<?xml version="1.0" encoding="utf-8"?>
<!-- Generator: Adobe Illustrator 15.1.0, SVG Export Plug-In  -->
<!DOCTYPE svg PUBLIC "-//W3C//DTD SVG 1.1//EN" "http://www.w3.org/Graphics/SVG/1.1/DTD/svg11.dtd" [
	<!ENTITY ns_flows "http://ns.adobe.com/Flows/1.0/">
]>
<svg version="1.1"
	 xmlns="http://www.w3.org/2000/svg" xmlns:xlink="http://www.w3.org/1999/xlink" xmlns:a="http://ns.adobe.com/AdobeSVGViewerExtensions/3.0/"
	 x="0px" y="0px" width="40px" height="40px" viewBox="0.135 0 40 40" enable-background="new 0.135 0 40 40" xml:space="preserve">
<defs>
</defs>
<path d="M34.904,18.621c-0.307,0.154-0.652,0.336-1.016,0.288c-0.521-0.071-1.125-0.601-1.543-0.858
	c-1.645-1.011-3.383-1.828-5.275-2.246c-1.084-0.239-2.053-0.188-3.148-0.146c-1.41,0.054-2.785,0.381-4.193,0.472
	c-0.803,0.052-1.406,0.069-2.143-0.233c-0.271-0.111-0.557-0.192-0.834-0.285c-0.176-0.059-0.334-0.197-0.438-0.024
	c-0.107,0.178-0.189,0.362-0.35,0.494c-0.275,0.229-0.34,0.193-0.152,0.489c0.143,0.226,0.277,0.458,0.428,0.678
	c0.197,0.288,0.848,0.861,0.848,1.203c0,0.25,0.939,0.824,1.137,0.988c0.098,0.081,0.295,0.007,0.152,0.221
	c-0.051,0.077-0.211,0.295-0.326,0.238c-0.238-0.12-0.443-0.29-0.66-0.448c0.154,0.643,0.371,1.3,0.453,1.956
	c0.127,0.998,0.213,1.997,0.482,2.969c0.5,1.806,1.383,3.528,2.639,4.925c0.594,0.657,1.262,1.241,1.982,1.756
	c0.311,0.222,0.99,0.563,1.027,1.006c0.027,0.299,0.053,0.66-0.078,0.942c-0.066,0.139-0.24,0.228-0.283,0.378
	c-0.074,0.276-0.045,0.32-0.316,0.4c-0.174,0.051-0.377,0.182-0.543,0.211c-0.313,0.056-0.619-0.189-0.867-0.337
	c-0.768-0.459-1.496-0.994-2.176-1.573c-2.447-2.084-4.336-5.148-4.676-8.382c-0.156-1.479-0.352-2.938-0.535-4.411
	c-0.035-0.29-0.281-0.396-0.428-0.636c-0.213-0.352-0.406-0.728-0.645-1.063c-0.371-0.522-0.881-1.325-1.467-1.567
	c-0.686-0.282-1.357-0.571-2.051-0.83c-0.441-0.164-0.797-0.557-1.156-0.851c-1.475-1.204-2.945-2.406-4.416-3.608
	C4.193,10.615,4.111,10.529,4,10.374c0.008,0.011,0.133-0.389,0.182-0.437c0.102-0.103,0.262-0.089,0.385-0.043
	c0.732,0.281,1.465,0.562,2.197,0.841c0.959,0.367,1.92,0.735,2.879,1.103c0.688,0.263,0.863,0.254,0.947,1.024
	c0.045,0.4,0.637,0.374,0.871,0.117c0.041-0.046,0.098-0.299,0.166-0.389c0.156-0.204,0.311-0.407,0.465-0.611
	c0.266-0.35-0.133-0.499-0.41-0.406c-0.27,0.09-0.486-0.012-0.648-0.225c-1.098-1.45-2.193-2.9-3.291-4.35
	C7.6,6.81,7.457,6.622,7.314,6.434C6.994,6.011,7.521,6,7.764,6c0.123,0,0.287,0.174,0.383,0.24C8.5,6.487,8.855,6.735,9.209,6.982
	c0.871,0.607,1.742,1.216,2.613,1.825c0.281,0.195,0.561,0.39,0.84,0.585c0.09,0.063,0.395,0.135,0.42,0.171
	c0.459,0.638,0.918,1.276,1.373,1.916c0.199,0.278,0.412,0.517,0.646,0.767c0.164,0.177,0.707,0.226,0.959,0.303
	c0.717,0.214,1.432,0.421,2.166,0.558c0.705,0.132,1.523-0.069,2.234-0.128c1.404-0.117,2.828-0.108,4.234-0.163
	c1.104-0.042,2.324-0.045,3.395,0.236c0.592,0.156,1.238,0.245,1.783,0.537c0.668,0.359,1.34,0.72,2.01,1.08
	c1.127,0.606,2.168,1.482,3.227,2.206C35.514,17.281,35.51,18.319,34.904,18.621z M19.795,18.23
	c-0.203-0.409-0.369-0.417-0.801-0.586c-0.262-0.102-0.668-0.376-0.961-0.261c-0.301,0-0.104,0.465,0.084,0.512
	c0.221,0.056,0.441,0.11,0.662,0.166C19.01,18.118,19.574,18.377,19.795,18.23z M17.611,18.011
	c-0.227-0.076-0.297,0.201-0.146,0.352c0.264,0.264,0.799,0.448,1.125,0.638c0.189,0.111,0.709,0.315,0.563-0.16
	c-0.361-0.208-0.727-0.409-1.092-0.613C17.91,18.143,17.775,18.065,17.611,18.011z M20.27,16.977
	c-0.137-0.104-0.322-0.111-0.488-0.139c-0.391-0.067-0.781-0.134-1.172-0.2c-0.209,0-0.248,0.542,0,0.542
	c0.086,0.058,0.34,0.041,0.439,0.054c0.391,0.048,0.783,0.116,1.178,0.116C20.422,17.35,20.346,17.065,20.27,16.977z"/>
<rect id="sliceCopy_x5F_5_1_" x="39.39" fill="none" width="28.987" height="40"/>
<rect id="sliceCopy_x5F_4_1_" fill="none" width="39.39" height="40"/>
</svg>
