<?xml version="1.0" encoding="utf-8"?>
<!-- Generator: Adobe Illustrator 15.1.0, SVG Export Plug-In  -->
<!DOCTYPE svg PUBLIC "-//W3C//DTD SVG 1.1//EN" "http://www.w3.org/Graphics/SVG/1.1/DTD/svg11.dtd" [
	<!ENTITY ns_flows "http://ns.adobe.com/Flows/1.0/">
]>
<svg version="1.1"
	 xmlns="http://www.w3.org/2000/svg" xmlns:xlink="http://www.w3.org/1999/xlink" xmlns:a="http://ns.adobe.com/AdobeSVGViewerExtensions/3.0/"
	 x="0px" y="0px" width="30px" height="40px" viewBox="0.086 0 30 40" enable-background="new 0.086 0 30 40" xml:space="preserve">
<defs>
</defs>
<path d="M25.233,9.533c-0.035,0.859,0.141,1.749,0.184,2.61c0.055,1.084,0.061,2.17,0.014,3.254
	c-0.088,1.974-0.354,3.942-0.828,5.861c-0.762,3.082-2.186,6.138-4.172,8.621c-0.51,0.64-0.99,1.338-1.551,1.938
	c-0.549,0.591-1.201,1.112-1.793,1.661c-0.477,0.442-1.088,0.758-1.607,1.147c-0.299,0.223-0.535,0.479-0.908,0.33
	c-0.795-0.318-1.58-1.17-2.223-1.731c-4.82-4.203-7.658-10.129-8.225-16.487c-0.23-2.579-0.145-5.272,0.301-7.823
	c1.287,0.836,2.656,1.453,4.234,1.266c1.451-0.171,2.508-0.959,3.592-1.845c0.58-0.473,1.023-1.003,1.51-1.574
	c0.438-0.514,0.51-1.133,0.656-1.762c1.094,1.667,2.232,3.354,4.014,4.356c0.979,0.55,2.096,0.828,3.219,0.771
	c0.74-0.037,1.465-0.232,2.141-0.533C24.333,9.354,24.722,9.096,25.233,9.533 M21.558,13.447c0.527,5.336-0.582,10.816-4.291,14.834
	c-0.473,0.513-1.014,1.022-1.598,1.402c-0.334,0.215-0.756,0.695-1.109,0.455c-0.818-0.557-1.588-1.186-2.277-1.895
	c-2.502-2.575-3.893-5.757-4.348-9.292C7.763,17.62,7.618,16.3,7.757,14.954c0.035-0.343,0.061-0.688,0.105-1.03
	c0.01-0.064,0.018-0.452,0.064-0.477c0.143-0.076,0.773,0.385,0.941,0.451c1.4,0.546,3.018,0.072,4.105-0.906
	c0.529-0.478,0.977-0.937,1.43-1.487c0.326-0.395,0.137-0.626,0.555-0.015c0.451,0.663,0.996,1.298,1.691,1.715
	c1.084,0.711,1.957,0.789,3.18,0.737C20.435,13.919,20.985,13.411,21.558,13.447 M20.872,11.25c-2.592-0.153-4.68-1.794-6.182-3.812
	c-0.664,0.888-1.518,1.642-2.414,2.289c-2.102,1.521-4.465,2.147-6.926,0.973c-0.447,3.491-0.191,7.086,0.756,10.481
	c1.031,3.691,2.863,7.144,5.592,9.858c0.641,0.638,1.324,1.234,2.041,1.786c0.367,0.282,0.742,0.554,1.125,0.813
	c0.078-0.006,0.246-0.186,0.307-0.231c0.742-0.561,1.527-1.089,2.211-1.723c5.76-5.326,7.393-13.459,6.752-20.984
	c-0.545,0.159-1.09,0.318-1.635,0.477C22.021,11.316,21.372,11.228,20.872,11.25"/>
<rect id="sliceCopy_x5F_3_1_" x="29.462" fill="none" width="29.489" height="40"/>
<rect id="sliceCopy_x5F_2_1_" fill="none" width="29.462" height="40"/>
</svg>
