<?xml version="1.0" encoding="utf-8"?>
<!-- Generator: Adobe Illustrator 15.1.0, SVG Export Plug-In  -->
<!DOCTYPE svg PUBLIC "-//W3C//DTD SVG 1.1//EN" "http://www.w3.org/Graphics/SVG/1.1/DTD/svg11.dtd" [
	<!ENTITY ns_flows "http://ns.adobe.com/Flows/1.0/">
]>
<svg version="1.1"
	 xmlns="http://www.w3.org/2000/svg" xmlns:xlink="http://www.w3.org/1999/xlink" xmlns:a="http://ns.adobe.com/AdobeSVGViewerExtensions/3.0/"
	 x="0px" y="0px" width="29px" height="40px" viewBox="0.624 0 29 40" enable-background="new 0.624 0 29 40" xml:space="preserve">
<defs>
</defs>
<path d="M14.846,35.3c-0.046,0-0.093-0.01-0.135-0.032l-0.35-0.177c-3.09-2.134-5.533-4.755-7.296-7.813
	c-1.35-2.403-2.333-5.17-2.921-8.228l-0.441-3.606L3.7,12.521l0.177-2.036l0.265-1.597c0.017-0.099,0.081-0.183,0.173-0.224
	c0.091-0.042,0.198-0.034,0.282,0.019L5.296,9.12c1.319,0.769,2.685,0.992,4.056,0.662l1.862-0.938l1.429-1.188l1.327-1.582
	l0.419-1.175c0.041-0.113,0.145-0.191,0.265-0.198c0.127-0.013,0.233,0.058,0.287,0.166l0.523,1.049
	c1.615,2.441,3.482,3.779,5.531,3.946c0.971,0.048,2.025-0.195,3.121-0.736l0.403-0.403c0.022-0.023,0.049-0.042,0.078-0.057
	l0.35-0.175c0.082-0.04,0.177-0.042,0.259-0.004c0.083,0.038,0.144,0.111,0.166,0.199l0.176,0.697l0.009,0.405
	c0.466,4.268,0.227,8.214-0.711,11.73l-1.494,4.136l-2.119,3.723L19.1,31.955l-1.86,1.775l-1.448,0.912l-0.78,0.607
	C14.962,35.283,14.904,35.3,14.846,35.3z M4.66,9.429L4.472,10.56l-0.173,1.987l0.001,2.86l0.436,3.55
	c0.573,2.974,1.534,5.68,2.851,8.024c1.717,2.977,4.1,5.533,7.081,7.596l0.156,0.078l0.118-0.079l0.5-0.418l1.433-0.899l1.788-1.712
	l2.078-2.508l2.068-3.633l1.465-4.064c0.912-3.423,1.146-7.3,0.685-11.498c-0.001-0.011-0.001-0.022-0.001-0.033V9.457l-0.068-0.255
	l-0.383,0.382c-0.022,0.023-0.049,0.042-0.078,0.056c-1.204,0.604-2.37,0.874-3.473,0.82c-2.25-0.183-4.27-1.611-6.01-4.246
	l-0.227-0.453l-0.201,0.564c-0.012,0.033-0.03,0.064-0.052,0.091l-1.402,1.664l-1.524,1.263l-1.983,0.998
	c-1.588,0.391-3.105,0.145-4.57-0.708L4.66,9.429z M14.846,33.988c-0.058,0-0.116-0.017-0.167-0.05
	c-2.829-1.887-5.067-4.306-6.655-7.19c-1.295-2.35-2.219-5.03-2.746-7.964l-0.441-4.927l0.173-3.107
	c0.006-0.098,0.06-0.187,0.144-0.237c0.084-0.052,0.187-0.058,0.277-0.017c2.022,0.898,3.906,0.791,5.76-0.331l1.648-1.127
	l1.443-1.54l0.14-0.216c0.054-0.081,0.145-0.13,0.242-0.132c0.094-0.021,0.19,0.043,0.248,0.122
	c1.734,2.351,3.736,3.575,5.952,3.637l3.301-0.434c0.084-0.012,0.166,0.013,0.23,0.066c0.064,0.053,0.104,0.13,0.108,0.214
	l0.088,1.486l0,1.681l-0.791,7.29l-1.415,3.919l-2.124,3.551l-1.502,2.035l-1.515,1.522l-1.337,1.071l-0.89,0.625
	C14.966,33.97,14.906,33.988,14.846,33.988z M5.583,11.207l-0.146,2.638l0.437,4.858c0.512,2.844,1.414,5.462,2.677,7.755
	c1.509,2.741,3.625,5.049,6.292,6.865l0.706-0.496l1.297-1.038l1.461-1.466l1.458-1.977l2.083-3.475l1.374-3.797l0.772-7.188
	l-0.001-1.631l-0.068-1.147l-3.005,0.395c-0.016,0.002-0.03,0.001-0.046,0.002c-2.314-0.056-4.398-1.253-6.199-3.558l-1.446,1.54
	l-1.712,1.18C9.618,11.818,7.627,11.995,5.583,11.207z M14.846,30.577c-0.069,0-0.139-0.024-0.195-0.072l-2.975-2.537l-2.058-2.76
	l-1.257-2.767l-0.629-2.589l-0.269-2.489l-0.001-3.355c0-0.028,0.004-0.056,0.011-0.083l0.176-0.614
	c0.037-0.129,0.155-0.217,0.289-0.217h0.086c0.059,0,0.117,0.018,0.167,0.05c0.979,0.653,1.983,0.813,3.072,0.489l1.312-0.661
	l1.021-0.936l0.58-0.75l0.142-0.299c0.051-0.102,0.155-0.166,0.269-0.166h0.088c0.102,0,0.196,0.051,0.252,0.137
	c0.613,0.947,1.255,1.621,1.909,2.004l1.826,0.742l1.535-0.08l1.086-0.503c0.04-0.018,0.083-0.027,0.126-0.027h0.176
	c0.165,0,0.299,0.133,0.3,0.299l0.086,4.545l-0.703,3.65l-1.063,2.932l-1.337,2.238l-1.428,1.701l-1.25,1.164l-1.158,0.892
	C14.975,30.557,14.91,30.577,14.846,30.577z M8.062,14.05v3.281l0.26,2.418l0.604,2.498l1.207,2.659l1.979,2.656l2.743,2.33
	l0.944-0.726l1.204-1.12l1.375-1.636l1.285-2.147l1.026-2.835l0.685-3.542l-0.084-4.108l-0.896,0.415
	c-0.035,0.016-0.072,0.025-0.11,0.027l-1.66,0.087c-0.043-0.002-0.088-0.005-0.129-0.022L16.568,13.5
	c-0.683-0.396-1.316-1.019-1.912-1.865l-0.623,0.808l-1.084,1c-0.021,0.019-0.043,0.035-0.068,0.047l-1.398,0.699
	c-1.197,0.36-2.31,0.228-3.353-0.376L8.062,14.05z M19.656,22.182c-0.022,0-0.044-0.002-0.066-0.007l-1.573-0.351l-2.91,0.007
	l-0.495-0.094c-0.039-0.008-0.076-0.023-0.108-0.045l-0.402-0.243l-0.598-0.252l-0.816-0.453l-0.725-0.321l-0.532-0.076
	l-0.659,0.083l-1.086,0.002l-0.378,0.082l-0.409,0.006c-0.121,0-0.229-0.072-0.276-0.184s-0.022-0.24,0.062-0.326l0.352-0.353
	l0.136-0.214l0.492-1.422l0.727-1.193l0.831-0.842c0.035-0.036,0.079-0.062,0.127-0.076l2.1-0.615
	c0.023-0.007,0.048-0.011,0.072-0.012l2.098-0.086c0,0,0,0,0.001,0c0.781,0,1.492,0.258,2.125,0.766
	c1.458,0.907,2.211,2.758,2.211,5.481v0.439c0,0.091-0.041,0.177-0.112,0.234C19.79,22.159,19.724,22.182,19.656,22.182z
	 M18.082,21.23l1.274,0.276v-0.064c0-2.502-0.659-4.182-1.958-4.993c-0.561-0.447-1.129-0.655-1.767-0.655l-2.048,0.084
	l-1.991,0.583l-0.733,0.733l-0.656,1.081l-0.58,1.561l0.004,0l1.108-0.006l0.662-0.086c0.028-0.003,0.054-0.002,0.08,0.001
	l0.613,0.088c0.027,0.004,0.054,0.012,0.079,0.023l0.787,0.35l0.812,0.45l0.776,0.34l0.246,0.164l0.378,0.076L18.082,21.23z"/>
<rect id="sliceCopy_x5F_4_1_" x="29.489" fill="none" width="39.39" height="40"/>
<rect id="sliceCopy_x5F_3_1_" fill="none" width="29.489" height="40"/>
</svg>
