<?xml version="1.0" encoding="utf-8"?>
<!-- Generator: Adobe Illustrator 15.1.0, SVG Export Plug-In  -->
<!DOCTYPE svg PUBLIC "-//W3C//DTD SVG 1.1//EN" "http://www.w3.org/Graphics/SVG/1.1/DTD/svg11.dtd" [
	<!ENTITY ns_flows "http://ns.adobe.com/Flows/1.0/">
]>
<svg version="1.1"
	 xmlns="http://www.w3.org/2000/svg" xmlns:xlink="http://www.w3.org/1999/xlink" xmlns:a="http://ns.adobe.com/AdobeSVGViewerExtensions/3.0/"
	 x="0px" y="0px" width="30px" height="40px" viewBox="0.086 0 30 40" enable-background="new 0.086 0 30 40" xml:space="preserve">
<defs>
</defs>
<path d="M14.787,35.3c-0.108,0-0.218-0.022-0.327-0.065c-0.667-0.267-1.3-0.855-1.858-1.374c-0.156-0.145-0.307-0.285-0.451-0.41
	c-4.782-4.17-7.739-10.096-8.326-16.686C3.587,14.1,3.692,11.367,4.129,8.863C4.146,8.764,4.212,8.68,4.305,8.64
	s0.199-0.031,0.283,0.023c1.546,1.003,2.733,1.375,4.036,1.219c1.362-0.161,2.363-0.901,3.437-1.78
	c0.533-0.435,0.957-0.932,1.405-1.458l0.066-0.078c0.319-0.375,0.415-0.82,0.526-1.335l0.066-0.299
	c0.027-0.117,0.121-0.207,0.239-0.228c0.118-0.02,0.237,0.03,0.304,0.131c1.004,1.53,2.142,3.265,3.91,4.26
	c0.942,0.529,2,0.786,3.057,0.733c0.668-0.033,1.352-0.204,2.034-0.507l0.162-0.074c0.533-0.246,1.087-0.378,1.599,0.058
	c0.07,0.06,0.109,0.148,0.105,0.24c-0.021,0.506,0.037,1.043,0.093,1.563c0.037,0.342,0.073,0.683,0.09,1.02
	c0.056,1.103,0.06,2.207,0.014,3.283c-0.091,2.054-0.373,4.045-0.837,5.92c-0.796,3.22-2.297,6.322-4.229,8.736
	c-0.163,0.205-0.323,0.416-0.484,0.627c-0.34,0.448-0.692,0.911-1.082,1.328c-0.375,0.404-0.797,0.776-1.206,1.136
	c-0.204,0.18-0.407,0.358-0.603,0.54c-0.313,0.29-0.673,0.524-1.021,0.751c-0.208,0.136-0.416,0.271-0.61,0.417l-0.116,0.089
	C15.337,35.117,15.104,35.3,14.787,35.3z M4.647,9.409c-0.366,2.331-0.444,4.845-0.224,7.302c0.573,6.436,3.458,12.22,8.123,16.288
	c0.148,0.129,0.303,0.273,0.464,0.423c0.52,0.483,1.109,1.03,1.672,1.256c0.172,0.067,0.299-0.045,0.491-0.194l0.126-0.098
	c0.204-0.153,0.423-0.295,0.642-0.438c0.342-0.223,0.666-0.433,0.94-0.688c0.2-0.186,0.407-0.368,0.614-0.55
	c0.397-0.351,0.809-0.713,1.164-1.095c0.37-0.396,0.712-0.846,1.043-1.282c0.164-0.215,0.327-0.43,0.493-0.639
	c1.878-2.348,3.339-5.369,4.115-8.506c0.454-1.837,0.73-3.789,0.819-5.803c0.046-1.057,0.041-2.142-0.014-3.226
	c-0.016-0.326-0.052-0.655-0.087-0.985c-0.053-0.489-0.107-0.994-0.101-1.493c-0.113-0.072-0.197-0.083-0.26-0.083
	c-0.164,0-0.361,0.09-0.588,0.195l-0.169,0.077c-0.749,0.333-1.505,0.521-2.247,0.559c-1.167,0.053-2.34-0.225-3.381-0.81
	c-1.664-0.937-2.777-2.437-3.728-3.864c-0.104,0.416-0.25,0.83-0.566,1.202l-0.066,0.078c-0.467,0.547-0.908,1.065-1.482,1.534
	c-1.106,0.904-2.225,1.731-3.746,1.911C7.091,10.672,5.699,10.047,4.647,9.409z M14.864,33.938c-0.06,0-0.119-0.018-0.168-0.051
	c-0.388-0.263-0.768-0.538-1.139-0.824c-0.734-0.564-1.43-1.173-2.07-1.811c-2.607-2.594-4.567-6.048-5.669-9.99
	c-0.952-3.41-1.216-7.076-0.764-10.6c0.012-0.096,0.069-0.179,0.154-0.225c0.083-0.046,0.185-0.049,0.273-0.007
	c2.124,1.013,4.361,0.691,6.621-0.945c1.002-0.723,1.771-1.451,2.35-2.226c0.057-0.076,0.146-0.12,0.24-0.12c0,0,0,0,0,0
	c0.095,0,0.184,0.045,0.24,0.121c1.187,1.594,3.184,3.528,5.958,3.691c0.089-0.009,0.321-0.003,0.51,0.001
	c0.314,0.009,0.686,0.034,1.015-0.063l1.635-0.477c0.084-0.025,0.179-0.011,0.253,0.041c0.074,0.051,0.122,0.132,0.129,0.222
	c0.439,5.158,0.133,14.774-6.847,21.229c-0.516,0.479-1.09,0.899-1.646,1.307c-0.197,0.145-0.394,0.289-0.588,0.436
	c-0.199,0.182-0.316,0.28-0.465,0.291C14.879,33.938,14.872,33.938,14.864,33.938z M5.6,11.138C5.228,14.46,5.501,17.895,6.396,21.1
	c1.073,3.842,2.98,7.206,5.514,9.726c0.622,0.62,1.299,1.212,2.013,1.761c0.309,0.238,0.624,0.468,0.944,0.689
	c0.011-0.01,0.021-0.02,0.029-0.027c0.039-0.036,0.073-0.065,0.095-0.083c0.196-0.147,0.395-0.293,0.595-0.44
	c0.542-0.397,1.101-0.808,1.592-1.263c6.633-6.133,7.069-15.246,6.687-20.373l-1.282,0.374c-0.422,0.124-0.839,0.095-1.198,0.087
	c-0.175-0.004-0.345-0.008-0.499-0.002c-2.854-0.167-4.912-1.995-6.197-3.622c-0.582,0.708-1.317,1.38-2.236,2.043
	C10.146,11.64,7.814,12.04,5.6,11.138z M14.77,30.504c-0.136,0-0.264-0.04-0.378-0.118c-0.87-0.591-1.651-1.242-2.324-1.934
	C9.61,25.924,8.12,22.74,7.637,18.99c-0.175-1.357-0.321-2.689-0.179-4.066l0.033-0.343c0.021-0.232,0.043-0.464,0.074-0.696
	L7.571,13.8c0.02-0.324,0.032-0.519,0.213-0.617c0.044-0.024,0.134-0.045,0.184-0.045c0.196,0,0.437,0.138,0.782,0.348
	c0.098,0.06,0.181,0.113,0.228,0.132c1.196,0.466,2.728,0.111,3.795-0.85c0.541-0.488,0.972-0.937,1.399-1.455
	c0.075-0.091,0.115-0.17,0.146-0.234c0.043-0.086,0.133-0.265,0.345-0.265c0.198,0,0.281,0.123,0.483,0.419l0.059,0.087
	c0.518,0.761,1.04,1.293,1.598,1.627c1.074,0.704,1.888,0.742,3.013,0.695c0.234-0.009,0.476-0.116,0.732-0.229
	c0.3-0.132,0.61-0.269,0.951-0.269c0.006,0,0.07,0.002,0.077,0.002c0.147,0.009,0.266,0.124,0.28,0.27
	c0.595,6.019-0.957,11.37-4.369,15.067c-0.577,0.627-1.119,1.101-1.654,1.45c-0.07,0.045-0.143,0.103-0.219,0.162
	C15.368,30.287,15.09,30.504,14.77,30.504z M8.169,13.84c-0.003,0.06-0.007,0.108-0.011,0.129c-0.028,0.217-0.049,0.442-0.07,0.667
	l-0.034,0.349c-0.135,1.313,0.006,2.607,0.177,3.928c0.466,3.619,1.901,6.688,4.266,9.122c0.644,0.663,1.395,1.287,2.231,1.855
	l0.041,0.014c0.114,0,0.323-0.163,0.476-0.281c0.091-0.07,0.179-0.138,0.261-0.191c0.492-0.32,0.996-0.763,1.54-1.353
	c3.238-3.508,4.739-8.578,4.241-14.301c-0.165,0.039-0.328,0.111-0.497,0.186c-0.296,0.131-0.603,0.266-0.95,0.28
	c-1.219,0.051-2.157,0-3.356-0.786c-0.624-0.374-1.208-0.964-1.775-1.797l-0.021-0.032c-0.017,0.023-0.035,0.045-0.054,0.069
	c-0.446,0.542-0.896,1.01-1.46,1.519c-1.234,1.108-3.014,1.509-4.416,0.962c-0.063-0.024-0.184-0.094-0.322-0.178
	C8.371,13.958,8.267,13.895,8.169,13.84z"/>
<rect id="sliceCopy_x5F_3_1_" x="29.462" fill="none" width="29.489" height="40"/>
<rect id="sliceCopy_x5F_2_1_" fill="none" width="29.462" height="40"/>
</svg>
