<?xml version="1.0" encoding="utf-8"?>
<!-- Generator: Adobe Illustrator 15.1.0, SVG Export Plug-In  -->
<!DOCTYPE svg PUBLIC "-//W3C//DTD SVG 1.1//EN" "http://www.w3.org/Graphics/SVG/1.1/DTD/svg11.dtd" [
	<!ENTITY ns_flows "http://ns.adobe.com/Flows/1.0/">
]>
<svg version="1.1"
	 xmlns="http://www.w3.org/2000/svg" xmlns:xlink="http://www.w3.org/1999/xlink" xmlns:a="http://ns.adobe.com/AdobeSVGViewerExtensions/3.0/"
	 x="0px" y="0px" width="40px" height="40px" viewBox="0.135 0 40 40" enable-background="new 0.135 0 40 40" xml:space="preserve">
<defs>
</defs>
<path d="M22.661,34.3c-0.317,0-0.59-0.174-0.81-0.314l-0.119-0.074c-0.749-0.448-1.495-0.987-2.216-1.603
	c-2.667-2.271-4.454-5.478-4.779-8.579c-0.118-1.118-0.259-2.225-0.399-3.335l-0.135-1.07c-0.009-0.077-0.05-0.125-0.157-0.236
	c-0.074-0.077-0.157-0.163-0.229-0.281c-0.072-0.119-0.141-0.24-0.211-0.361c-0.134-0.233-0.268-0.468-0.422-0.685l-0.127-0.182
	c-0.324-0.464-0.768-1.1-1.209-1.282l-0.511-0.212c-0.508-0.211-1.013-0.421-1.53-0.614c-0.383-0.142-0.7-0.424-0.979-0.673
	c-0.088-0.078-0.175-0.155-0.262-0.227l-4.416-3.608c-0.167-0.136-0.266-0.241-0.392-0.416c-0.066-0.092-0.075-0.214-0.022-0.314
	c0-0.001,0.001-0.002,0.001-0.003l0.032-0.085c0.091-0.251,0.132-0.353,0.204-0.423c0.163-0.165,0.435-0.209,0.701-0.109l5.25,2.009
	c0.618,0.229,0.873,0.356,0.966,1.207c0.025,0.059,0.286,0.02,0.351-0.053c-0.022,0.021-0.01-0.012,0.002-0.05
	c0.04-0.113,0.08-0.23,0.146-0.318l0.424-0.558c-0.016,0.001-0.027,0.004-0.036,0.007c-0.095,0.032-0.191,0.048-0.285,0.048
	c-0.188,0-0.46-0.065-0.697-0.376L7.075,6.615C6.868,6.341,6.898,6.135,6.96,6.011C7.115,5.7,7.553,5.7,7.764,5.7
	c0.198,0,0.356,0.131,0.484,0.237c0.025,0.021,0.049,0.041,0.068,0.055l4.519,3.154c0.033,0.018,0.105,0.04,0.169,0.061
	c0.159,0.053,0.255,0.085,0.324,0.184c0.457,0.636,0.917,1.274,1.372,1.915c0.182,0.255,0.38,0.479,0.621,0.736
	c0.066,0.058,0.369,0.119,0.514,0.148c0.12,0.024,0.231,0.048,0.314,0.073c0.717,0.214,1.422,0.417,2.133,0.55
	c0.468,0.088,0.994,0.013,1.507-0.056c0.222-0.03,0.439-0.059,0.648-0.076c0.942-0.079,1.902-0.102,2.832-0.124
	c0.473-0.011,0.945-0.022,1.416-0.041c0.319-0.012,0.647-0.021,0.979-0.021c1.016,0,1.812,0.084,2.504,0.267
	c0.15,0.04,0.304,0.075,0.458,0.11c0.468,0.107,0.951,0.217,1.39,0.453l2.01,1.08c0.771,0.415,1.503,0.953,2.21,1.473
	c0.348,0.256,0.695,0.511,1.043,0.75c0.334,0.328,0.469,0.836,0.388,1.331c-0.07,0.427-0.299,0.767-0.629,0.931
	c-0.369,0.186-0.753,0.375-1.189,0.316c-0.458-0.062-0.912-0.382-1.313-0.665c-0.125-0.088-0.242-0.17-0.347-0.235
	c-1.816-1.117-3.511-1.839-5.183-2.208c-0.549-0.121-1.104-0.175-1.8-0.175c-0.37,0-0.743,0.015-1.131,0.03l-0.141,0.005
	c-0.739,0.028-1.488,0.136-2.213,0.24c-0.642,0.093-1.307,0.188-1.973,0.231c-0.156,0.01-0.305,0.019-0.448,0.024l0.618,0.102
	c0.16,0.022,0.36,0.051,0.534,0.183c0.151,0.165,0.26,0.449,0.158,0.673c-0.143,0.311-0.587,0.243-0.934,0.205
	c0.141,0.096,0.267,0.235,0.389,0.481c0.067,0.135,0.023,0.299-0.102,0.383c-0.195,0.13-0.513,0.101-0.808,0.016
	c0.049,0.028,0.099,0.056,0.148,0.085c0.065,0.038,0.114,0.099,0.137,0.171c0.064,0.209,0.049,0.381-0.047,0.511
	c-0.049,0.066-0.163,0.177-0.38,0.177c-0.114,0-0.231-0.031-0.331-0.068c0.008,0.014,0.015,0.029,0.022,0.046
	c0.073,0.185-0.036,0.347-0.077,0.408c-0.166,0.252-0.346,0.381-0.535,0.381c-0.046,0-0.132-0.02-0.174-0.041
	c-0.012-0.006-0.023-0.012-0.035-0.018c0.105,0.398,0.207,0.807,0.259,1.219l0.066,0.541c0.099,0.828,0.193,1.61,0.408,2.385
	c0.509,1.837,1.398,3.498,2.573,4.804c0.56,0.62,1.21,1.196,1.934,1.712c0.055,0.039,0.122,0.082,0.195,0.129
	c0.386,0.249,0.915,0.589,0.957,1.096c0.034,0.365,0.053,0.753-0.105,1.093c-0.053,0.111-0.129,0.188-0.191,0.251
	c-0.027,0.028-0.068,0.07-0.077,0.087l-0.021,0.086c-0.069,0.281-0.153,0.414-0.498,0.515c-0.063,0.019-0.13,0.051-0.198,0.082
	c-0.121,0.056-0.246,0.113-0.378,0.136C22.758,34.296,22.709,34.3,22.661,34.3z M4.341,10.324c0.053,0.062,0.107,0.112,0.186,0.176
	l4.417,3.608c0.093,0.077,0.187,0.159,0.281,0.243c0.252,0.224,0.512,0.456,0.79,0.559c0.524,0.196,1.037,0.409,1.551,0.623
	l0.509,0.211c0.604,0.25,1.085,0.939,1.473,1.494l0.125,0.177c0.165,0.232,0.31,0.483,0.453,0.733
	c0.067,0.117,0.134,0.234,0.204,0.349c0.037,0.061,0.088,0.114,0.148,0.176c0.127,0.133,0.287,0.298,0.321,0.58l0.135,1.068
	c0.141,1.114,0.282,2.226,0.401,3.347c0.31,2.952,2.02,6.012,4.572,8.185c0.697,0.594,1.415,1.113,2.135,1.544l0.133,0.083
	c0.162,0.103,0.345,0.22,0.487,0.22l0.04-0.003c0.057-0.01,0.149-0.052,0.231-0.09c0.096-0.044,0.191-0.087,0.28-0.113
	c0.045-0.014,0.07-0.022,0.084-0.028c0,0,0,0,0,0c-0.012,0-0.007-0.025,0-0.055l0.028-0.108c0.046-0.161,0.15-0.267,0.226-0.344
	c0.027-0.027,0.068-0.069,0.076-0.086c0.094-0.202,0.076-0.499,0.05-0.785c-0.018-0.215-0.435-0.483-0.685-0.644
	c-0.082-0.053-0.157-0.101-0.218-0.145c-0.758-0.542-1.441-1.147-2.031-1.799c-1.237-1.375-2.172-3.12-2.705-5.046
	c-0.227-0.819-0.328-1.66-0.425-2.473l-0.065-0.538c-0.055-0.437-0.176-0.889-0.293-1.326c-0.054-0.2-0.107-0.4-0.154-0.598
	c-0.03-0.122,0.021-0.25,0.125-0.319c0.031-0.021,0.065-0.035,0.101-0.043c-0.374-0.29-0.537-0.487-0.537-0.707
	c-0.009-0.131-0.335-0.495-0.492-0.669c-0.125-0.14-0.237-0.267-0.304-0.364c-0.104-0.151-0.2-0.308-0.296-0.465l-0.138-0.222
	c-0.229-0.362-0.204-0.554,0.104-0.792l0.11-0.087c0.084-0.07,0.145-0.176,0.215-0.299l0.07-0.12
	c0.155-0.256,0.49-0.237,0.697-0.143c0.03,0.013,0.061,0.028,0.092,0.038l0.243,0.079c0.205,0.065,0.411,0.132,0.61,0.213
	c0.592,0.243,1.188,0.264,2.01,0.212c0.643-0.042,1.295-0.135,1.926-0.226c0.74-0.106,1.505-0.216,2.275-0.246l0.141-0.005
	c0.396-0.016,0.777-0.03,1.155-0.03c0.741,0,1.336,0.058,1.929,0.189c1.738,0.384,3.494,1.13,5.368,2.283
	c0.114,0.07,0.242,0.16,0.378,0.255c0.328,0.231,0.736,0.518,1.048,0.561c0.256,0.034,0.537-0.106,0.807-0.241
	c0.247-0.123,0.316-0.371,0.339-0.509c0.049-0.296-0.026-0.622-0.178-0.774c-0.311-0.206-0.663-0.465-1.017-0.725
	c-0.691-0.508-1.405-1.033-2.139-1.428l-2.01-1.08c-0.368-0.197-0.811-0.298-1.24-0.396c-0.161-0.037-0.321-0.074-0.477-0.115
	c-0.642-0.168-1.389-0.247-2.352-0.247c-0.324,0-0.644,0.009-0.955,0.021c-0.474,0.019-0.949,0.03-1.425,0.041
	c-0.92,0.021-1.872,0.044-2.796,0.121c-0.199,0.017-0.407,0.045-0.618,0.073c-0.574,0.077-1.207,0.144-1.697,0.051
	c-0.74-0.138-1.461-0.346-2.197-0.565c-0.07-0.021-0.161-0.04-0.259-0.059c-0.321-0.065-0.653-0.133-0.834-0.328
	c-0.256-0.273-0.468-0.514-0.67-0.796c-0.44-0.62-0.885-1.237-1.329-1.854c-0.021-0.007-0.045-0.015-0.07-0.023
	c-0.145-0.049-0.246-0.085-0.323-0.139L7.975,6.485c-0.03-0.02-0.068-0.051-0.11-0.086C7.825,6.367,7.752,6.306,7.722,6.294
	C7.669,6.296,7.626,6.299,7.591,6.302l3.682,4.865c0.105,0.139,0.19,0.139,0.219,0.139c0.029,0,0.061-0.006,0.095-0.018
	c0.327-0.105,0.716,0.01,0.843,0.267c0.053,0.107,0.111,0.329-0.099,0.605l-0.466,0.612c-0.01,0.019-0.04,0.104-0.056,0.15
	c-0.038,0.11-0.065,0.189-0.124,0.255c-0.164,0.181-0.429,0.291-0.692,0.291c-0.381,0-0.663-0.23-0.702-0.572
	c-0.056-0.517-0.066-0.521-0.578-0.71l-5.255-2.011c-0.025-0.01-0.052-0.015-0.072-0.015C4.397,10.161,4.369,10.248,4.341,10.324z
	 M16.055,16.393c0.003,0.005,0.007,0.011,0.011,0.017l0.142,0.229c0.091,0.148,0.182,0.297,0.28,0.44
	c0.055,0.081,0.151,0.186,0.255,0.302c0.168,0.187,0.314,0.355,0.425,0.513c0.083-0.123,0.218-0.196,0.371-0.196
	c0.013,0,0.039,0.003,0.067,0.007c-0.024-0.082-0.033-0.164-0.023-0.237c0.026-0.211,0.181-0.359,0.393-0.382
	c0.055-0.017,0.114-0.027,0.174-0.03c-0.008-0.048-0.011-0.093-0.011-0.13c0-0.222,0.089-0.408,0.227-0.508
	c-0.31-0.043-0.596-0.123-0.892-0.245c-0.184-0.075-0.375-0.136-0.565-0.196l-0.25-0.081c-0.048-0.016-0.096-0.037-0.142-0.058
	l-0.006,0.011c-0.087,0.152-0.185,0.324-0.354,0.463L16.055,16.393z"/>
<rect id="sliceCopy_x5F_5_1_" x="39.39" fill="none" width="28.987" height="40"/>
<rect id="sliceCopy_x5F_4_1_" fill="none" width="39.39" height="40"/>
</svg>
