<?xml version="1.0" encoding="utf-8"?>
<!-- Generator: Adobe Illustrator 15.1.0, SVG Export Plug-In  -->
<!DOCTYPE svg PUBLIC "-//W3C//DTD SVG 1.1//EN" "http://www.w3.org/Graphics/SVG/1.1/DTD/svg11.dtd" [
	<!ENTITY ns_flows "http://ns.adobe.com/Flows/1.0/">
]>
<svg version="1.1"
	 xmlns="http://www.w3.org/2000/svg" xmlns:xlink="http://www.w3.org/1999/xlink" xmlns:a="http://ns.adobe.com/AdobeSVGViewerExtensions/3.0/"
	 x="0px" y="0px" width="20px" height="40px" viewBox="0.914 0 20 40" enable-background="new 0.914 0 20 40" xml:space="preserve">
<defs>
</defs>
<path d="M8.823,34.3c-1.172,0-2.249-0.198-3.292-0.606l-0.162-0.061c-0.831-0.306-1.576-0.624-1.576-1.146l0.005-17.599
	c0.005-0.759,0.01-1.519-0.004-2.276c-0.155-0.354-0.088-0.61,0-0.765c0.297-0.525,1.181-0.593,1.827-0.643
	c0.145-0.011,0.268-0.02,0.351-0.034c0.059-0.011,0.148-0.02,0.251-0.03c0.139-0.014,0.438-0.044,0.577-0.091
	c0.017-0.22,0.083-0.392,0.143-0.546c0.056-0.144,0.1-0.257,0.1-0.395v-1.29c-0.102-0.005-0.257-0.01-0.492-0.01L6.357,8.809
	c0,0,0,0-0.001,0c-0.185,0-0.343-0.097-0.378-0.314c-0.06-0.373,0.288-1.796,0.899-1.998c0.179-0.058,0.452-0.051,0.711-0.03
	c0.086,0.007,0.167,0.015,0.236,0.015h1.978c0.041,0,0.123-0.005,0.232-0.012c0.237-0.014,0.591-0.035,0.936-0.035
	c0.454,0,0.767,0.034,0.979,0.11c0.27-0.472,0.51-0.731,0.758-0.825c0.06-0.023,0.127-0.025,0.189-0.008
	c0.024,0.002,0.056,0.001,0.089,0.001c0.182,0.001,0.338,0.003,0.452,0.117c0.146,0.146,0.116,0.343,0.09,0.491
	c0.235,0.085,0.286,0.271,0.287,0.416c0.11,0.308,0.232,0.617,0.355,0.929c0.081,0.203,0.162,0.408,0.24,0.614
	c0.077,0.204,0.201,0.534,0.322,0.654c0.164,0.163,0.198,0.406,0.229,0.621c0.013,0.092,0.035,0.246,0.063,0.286
	c0.253,0.249,0.326,0.612,0.389,0.933c0.051,0.259,0.1,0.503,0.226,0.629c0.155,0.154,0.224,0.386,0.292,0.61
	c0.035,0.114,0.07,0.232,0.108,0.303c0,0,0.017,0.016,0.046,0.049c0.159,0.183,0.28,0.337,0.28,0.519
	c0,0.308,0.007,0.421,0.092,0.594c0.055,0.114,0.116,0.206,0.174,0.296c0.123,0.189,0.263,0.404,0.343,0.757
	c0.12,0.529,0.108,1.162,0.098,1.774c-0.003,0.167-0.006,0.332-0.006,0.49l0.002,12.989c0.006,0.483,0.013,0.983-0.461,1.31
	c-0.177,0.122-0.248,0.121-0.506,0.135c-0.204,0-0.353-0.001-0.471-0.122c-0.117-0.119-0.115-0.266-0.112-0.408l0.001-0.1
	c0-0.306,0.13-0.483,0.208-0.589c0.016-0.022,0.039-0.053,0.043-0.064l-0.003-12.858c0-0.198,0.021-0.442,0.043-0.702
	c0.043-0.495,0.098-1.111-0.024-1.438c-0.026-0.058-0.179-0.241-0.261-0.34c-0.087-0.104-0.165-0.2-0.204-0.26
	c-0.071-0.111-0.135-0.229-0.197-0.348c-0.089-0.167-0.172-0.325-0.274-0.444c-0.031-0.036-0.061-0.075-0.09-0.116v19.077
	c0,0.243-0.091,0.381-0.297,0.448c-0.027,0.009-0.041,0.013-0.068,0.034c-0.509,0.384-1.289,0.688-2.32,0.903
	C10.763,34.178,9.761,34.3,8.823,34.3z M4.392,28.653v3.833c0.038,0.068,0.277,0.249,1.184,0.583l0.174,0.066
	C6.722,33.515,7.727,33.7,8.823,33.7c0.895,0,1.859-0.118,3.127-0.382c0.943-0.197,1.643-0.464,2.081-0.795
	c0.046-0.035,0.088-0.06,0.126-0.079l0.001-3.744c-0.108,0.088-0.277,0.133-0.537,0.162l-2.918,0.366
	c-0.117,0.014-0.238,0.036-0.361,0.058c-0.251,0.045-0.511,0.091-0.772,0.091l0,0c-0.078,0-0.155-0.004-0.23-0.013L4.738,28.79
	C4.578,28.77,4.468,28.719,4.392,28.653z M16.116,30.632c0.066,0,0.099,0,0.122-0.004c0.22-0.158,0.235-0.342,0.229-0.834
	l-0.001-0.199V16.797c0-0.162,0.003-0.33,0.006-0.501c0.01-0.577,0.021-1.172-0.083-1.631c-0.057-0.248-0.146-0.387-0.261-0.563
	c-0.071-0.11-0.144-0.222-0.211-0.36c-0.145-0.296-0.152-0.519-0.152-0.857c-0.011,0.015-0.092-0.078-0.133-0.125
	c-0.054-0.062-0.092-0.106-0.119-0.154c-0.069-0.128-0.113-0.276-0.157-0.419c-0.037-0.124-0.093-0.311-0.141-0.358
	c-0.255-0.255-0.327-0.617-0.39-0.937c-0.051-0.258-0.1-0.502-0.225-0.625c-0.167-0.16-0.202-0.407-0.233-0.625
	c-0.013-0.092-0.035-0.246-0.063-0.286c-0.209-0.208-0.353-0.59-0.438-0.818c-0.094-0.247-0.174-0.449-0.253-0.649
	c-0.134-0.338-0.266-0.673-0.383-1.006c-0.002-0.007-0.005-0.015-0.007-0.023c-0.091-0.032-0.197-0.094-0.266-0.228
	c-0.053-0.104-0.05-0.215-0.035-0.318c-0.019,0-0.036-0.001-0.053-0.002c-0.09,0.067-0.274,0.266-0.569,0.852
	c-0.066,0.132-0.219,0.194-0.358,0.152c-0.1-0.032-0.173-0.111-0.199-0.207c-0.078-0.027-0.282-0.073-0.771-0.073
	c-0.332,0-0.672,0.021-0.9,0.034C9.944,7.076,9.849,7.082,9.802,7.082H7.825c-0.083,0-0.182-0.007-0.286-0.016
	C7.341,7.048,7.115,7.05,7.064,7.067C6.889,7.142,6.645,7.829,6.583,8.208c0.705,0,1.058,0.006,1.058,0.361v1.538
	c0,0.25-0.074,0.441-0.139,0.611c-0.057,0.148-0.107,0.277-0.107,0.44c0,0.467-0.617,0.529-1.112,0.579
	c-0.085,0.009-0.158,0.016-0.207,0.024c-0.097,0.017-0.24,0.029-0.409,0.042c-0.362,0.028-1.211,0.093-1.351,0.34
	c-0.039,0.068,0.003,0.183,0.045,0.266c0.02,0.04,0.031,0.084,0.032,0.128c0.015,0.783,0.01,1.569,0.005,2.354l-0.005,1.171v10.621
	c0.056-0.032,0.122-0.043,0.184-0.041l4.847,0.492c0.443,0.047,0.955-0.043,1.453-0.127c0.254-0.042,0.503-0.084,0.734-0.109
	l2.406-0.255c0.051-0.003,0.097,0.001,0.142,0.02V12.584c0-0.112,0.063-0.215,0.163-0.267c0.1-0.053,0.22-0.043,0.312,0.022
	c0.22,0.157,0.365,0.38,0.494,0.578c0.06,0.091,0.116,0.18,0.179,0.254c0.144,0.169,0.247,0.364,0.346,0.551
	c0.055,0.104,0.11,0.208,0.171,0.304c0.03,0.046,0.093,0.12,0.161,0.202c0.186,0.223,0.311,0.379,0.361,0.513
	c0.17,0.455,0.112,1.117,0.061,1.702c-0.021,0.24-0.042,0.466-0.042,0.649v12.875c0,0.189-0.094,0.317-0.157,0.402
	c-0.059,0.08-0.091,0.125-0.091,0.234V30.632z M4.834,28.193l4.579,0.576c0.05,0.006,0.103,0.009,0.155,0.009l0,0
	c0.208,0,0.441-0.042,0.667-0.082c0.134-0.024,0.267-0.048,0.393-0.063l2.927-0.367c0.065-0.007,0.137-0.015,0.185-0.023
	c0.007-0.076,0.007-0.211,0.007-0.315v-0.653l-2.075,0.22c-0.221,0.023-0.457,0.063-0.698,0.104
	c-0.539,0.091-1.108,0.185-1.614,0.132l-4.516-0.458v0.696c0,0.071-0.004,0.136-0.009,0.195C4.835,28.174,4.835,28.184,4.834,28.193
	z M8.948,26.047c-0.006,0-0.012,0-0.018,0c-3.031-0.176-3.45-3.505-3.489-4.928c-0.069-2.455,0.884-4.851,2.485-6.251l2.353-1.9
	c0.12-0.096,0.292-0.087,0.4,0.021c0.108,0.108,0.118,0.281,0.021,0.401c-1.367,1.695,0.111,3.755,1.299,5.41
	c0.155,0.217,0.305,0.425,0.441,0.623c0.803,1.168,1.12,2.49,0.916,3.821c-0.135,0.749-1.018,2.697-2.218,2.697
	c-0.139,0-0.276-0.026-0.41-0.078c-0.104-0.041-0.178-0.136-0.19-0.247s0.039-0.221,0.132-0.283
	c0.032-0.021,0.044-0.042,0.049-0.082c0.009-0.086-0.006-0.581-1.255-1.889c-0.56-0.583-0.881-1.202-0.949-1.804
	c-0.375,0.53-0.575,1.205-0.544,1.896c0.039,0.874,0.452,1.617,1.133,2.04c0.117,0.072,0.17,0.214,0.128,0.345
	C9.194,25.963,9.078,26.047,8.948,26.047z M8.905,20.429c0.063,0,0.125,0.019,0.178,0.058c0.106,0.079,0.149,0.217,0.105,0.342
	c-0.294,0.83,0.224,1.61,0.711,2.118c1.009,1.057,1.473,1.83,1.418,2.364c0.682-0.216,1.343-1.584,1.448-2.167
	c0.179-1.169-0.104-2.342-0.818-3.382c-0.134-0.195-0.281-0.4-0.435-0.613c-0.989-1.378-2.271-3.164-1.9-4.872l-1.3,1.049
	c-1.461,1.278-2.335,3.495-2.271,5.776c0.029,1.063,0.287,3.326,1.895,4.092c-0.337-0.482-0.534-1.07-0.563-1.715
	c-0.052-1.18,0.466-2.326,1.353-2.991C8.778,20.449,8.841,20.429,8.905,20.429z"/>
<rect id="sliceCopy_x5F_10_1_" x="20.777" fill="none" width="28.367" height="40"/>
<rect id="sliceCopy_x5F_9_1_" fill="none" width="20.776" height="40"/>
</svg>
