<?xml version="1.0" encoding="utf-8"?>
<!-- Generator: Adobe Illustrator 15.1.0, SVG Export Plug-In  -->
<!DOCTYPE svg PUBLIC "-//W3C//DTD SVG 1.1//EN" "http://www.w3.org/Graphics/SVG/1.1/DTD/svg11.dtd" [
	<!ENTITY ns_flows "http://ns.adobe.com/Flows/1.0/">
]>
<svg version="1.1"
	 xmlns="http://www.w3.org/2000/svg" xmlns:xlink="http://www.w3.org/1999/xlink" xmlns:a="http://ns.adobe.com/AdobeSVGViewerExtensions/3.0/"
	 x="0px" y="0px" width="40px" height="40px" viewBox="0 0 40 40" enable-background="new 0 0 40 40" xml:space="preserve">
<defs>
</defs>
<path d="M34.166,30.3H5.805c-0.559,0-1.056-0.235-1.479-0.699C3.917,29.234,3.7,28.754,3.7,28.195V11.857
	c0-0.589,0.213-1.102,0.635-1.522C4.757,9.914,5.251,9.7,5.805,9.7h28.361c0.631,0,1.147,0.217,1.533,0.646
	c0.346,0.43,0.515,0.934,0.515,1.511v16.339c0,0.546-0.172,1.018-0.513,1.403C35.321,30.062,34.802,30.3,34.166,30.3z M5.805,10.3
	c-0.394,0-0.736,0.15-1.046,0.459C4.45,11.068,4.3,11.427,4.3,11.857v16.338c0,0.388,0.146,0.708,0.448,0.98
	c0.33,0.359,0.668,0.524,1.057,0.524h28.361c0.454,0,0.807-0.161,1.079-0.491c0.25-0.284,0.369-0.612,0.369-1.013V11.857
	c0-0.443-0.122-0.811-0.372-1.123c-0.26-0.288-0.616-0.435-1.076-0.435H5.805z M32.473,28.388h-1.477
	c-0.028,0-0.056-0.004-0.083-0.011l-0.383-0.109c-0.087-0.025-0.159-0.088-0.194-0.172l-0.162-0.384
	c-0.016-0.037-0.023-0.077-0.023-0.117v-1.528c0-0.32,0.162-0.492,0.298-0.581l0.397-0.228c0.045-0.026,0.097-0.04,0.149-0.04h1.475
	c0.052,0,0.104,0.013,0.149,0.04l0.383,0.219c0.051,0.029,0.093,0.073,0.12,0.126l0.164,0.328c0.021,0.042,0.031,0.088,0.031,0.134
	v1.529c0,0.041-0.008,0.081-0.024,0.118l-0.164,0.384c-0.036,0.083-0.106,0.146-0.193,0.17l-0.381,0.109
	C32.528,28.384,32.5,28.388,32.473,28.388z M31.038,27.788h1.392l0.204-0.059l0.084-0.196v-1.397l-0.092-0.184l-0.235-0.134h-1.315
	l-0.313,0.179l0,0c0.001,0-0.011,0.011-0.011,0.069v1.468l0.083,0.195L31.038,27.788z M29.137,28.388h-1.582
	c-0.032,0-0.064-0.005-0.094-0.015l-0.33-0.109c-0.082-0.027-0.148-0.088-0.182-0.168l-0.162-0.384
	c-0.016-0.037-0.023-0.077-0.023-0.117v-1.528c0-0.247,0.105-0.453,0.296-0.58l0.327-0.218c0.049-0.033,0.107-0.05,0.167-0.05h1.584
	c0.059,0,0.117,0.017,0.167,0.05l0.328,0.219c0.055,0.037,0.096,0.09,0.118,0.153l0.111,0.328c0.01,0.031,0.016,0.063,0.016,0.096
	v1.529c0,0.028-0.004,0.056-0.011,0.082l-0.109,0.384c-0.027,0.096-0.1,0.171-0.194,0.203l-0.33,0.109
	C29.201,28.383,29.169,28.388,29.137,28.388z M27.603,27.788h1.485l0.133-0.044l0.055-0.191v-1.438l-0.063-0.185l-0.167-0.112
	h-1.402l-0.252,0.168c-0.014,0.009-0.029,0.019-0.029,0.08v1.468l0.086,0.202L27.603,27.788z M25.695,28.388h-1.529
	c-0.032,0-0.064-0.005-0.094-0.015l-0.33-0.109c-0.082-0.027-0.148-0.088-0.182-0.168l-0.162-0.384
	c-0.016-0.037-0.023-0.077-0.023-0.117v-1.529c0-0.219,0.082-0.404,0.232-0.531c0.127-0.204,0.324-0.315,0.56-0.315h1.529
	c0.052,0,0.103,0.013,0.148,0.039l0.383,0.218c0.064,0.037,0.113,0.096,0.136,0.166l0.109,0.329c0.01,0.031,0.015,0.063,0.015,0.095
	v1.529c0,0.028-0.004,0.056-0.011,0.082l-0.109,0.384c-0.028,0.1-0.106,0.178-0.206,0.207l-0.383,0.109
	C25.751,28.384,25.723,28.388,25.695,28.388z M24.214,27.788h1.439l0.182-0.052l0.052-0.183v-1.439L25.83,25.94l-0.214-0.122h-1.45
	c-0.023,0-0.036,0-0.063,0.054c-0.024,0.047-0.06,0.087-0.104,0.116c-0.011,0.007-0.026,0.017-0.026,0.078v1.469l0.086,0.202
	L24.214,27.788z M22.252,28.388h-1.475c-0.028,0-0.056-0.004-0.083-0.011l-0.383-0.109c-0.075-0.021-0.139-0.072-0.178-0.14
	l-0.219-0.384c-0.026-0.045-0.039-0.096-0.039-0.148v-1.529c0-0.059,0.017-0.117,0.05-0.166l0.219-0.329
	c0.24-0.251,0.436-0.352,0.633-0.352h1.475c0.052,0,0.104,0.013,0.149,0.04l0.383,0.219c0.051,0.029,0.093,0.073,0.12,0.126
	l0.164,0.328c0.021,0.042,0.031,0.088,0.031,0.134v1.529c0,0.041-0.008,0.081-0.024,0.118l-0.164,0.384
	c-0.036,0.083-0.106,0.146-0.193,0.17l-0.383,0.109C22.308,28.384,22.28,28.388,22.252,28.388z M20.819,27.788h1.391l0.205-0.059
	l0.084-0.196v-1.397l-0.092-0.184l-0.235-0.134h-1.392c-0.009,0.002-0.065,0.02-0.173,0.129l-0.132,0.206v1.362l0.119,0.208
	L20.819,27.788z M9.269,28.386c-1.125,0-1.984-0.306-2.584-0.907c-0.604-0.642-0.906-1.501-0.906-2.561
	c0-0.986,0.302-1.809,0.899-2.445c0.68-0.682,1.652-1.023,2.896-1.023c0.007,0,0.014,0,0.021,0l0.766,0.054l0.708,0.172
	c0.16,0.04,0.257,0.201,0.219,0.361l-0.328,1.366c-0.019,0.078-0.068,0.146-0.137,0.187c-0.068,0.042-0.151,0.054-0.229,0.034
	l-0.438-0.111l-0.554-0.044c-0.421,0.001-0.733,0.138-0.929,0.418c-0.306,0.313-0.438,0.62-0.438,0.977
	c0,0.483,0.137,0.814,0.419,1.012c0.299,0.264,0.609,0.381,0.974,0.381h0.544l0.494-0.197c0.086-0.035,0.184-0.027,0.265,0.021
	c0.081,0.048,0.133,0.131,0.144,0.224l0.164,1.475c0.017,0.151-0.083,0.292-0.231,0.326l-0.711,0.164l-1.019,0.115
	C9.276,28.386,9.272,28.386,9.269,28.386z M9.565,22.05c-1.074,0.002-1.901,0.285-2.456,0.841c-0.49,0.522-0.731,1.188-0.731,2.028
	c0,0.902,0.248,1.623,0.737,2.143c0.479,0.479,1.199,0.726,2.131,0.726l0.951-0.108l0.417-0.097l-0.091-0.819l-0.181,0.072
	c-0.035,0.014-0.073,0.021-0.111,0.021H9.629c-0.511,0-0.964-0.172-1.346-0.511c-0.421-0.293-0.647-0.799-0.647-1.482
	c0-0.517,0.195-0.975,0.58-1.36c0.277-0.407,0.764-0.634,1.414-0.634l0.818,0.101l0.188-0.784l-0.368-0.092L9.565,22.05z
	 M16.896,28.277h-1.803c-0.166,0-0.3-0.134-0.3-0.3v-1.612h-3.253c-0.166,0-0.3-0.134-0.3-0.3v-1.257
	c0-0.056,0.015-0.11,0.044-0.157l3.061-4.974c0.055-0.089,0.151-0.143,0.255-0.143h2.295c0.166,0,0.3,0.134,0.3,0.3v4.51h0.739
	c0.166,0,0.3,0.134,0.3,0.3v1.421c0,0.166-0.134,0.3-0.3,0.3h-0.739v1.612C17.196,28.143,17.062,28.277,16.896,28.277z
	 M15.394,27.678h1.203v-1.612c0-0.166,0.134-0.3,0.3-0.3h0.739v-0.821h-0.739c-0.166,0-0.3-0.134-0.3-0.3v-4.51h-1.828l-2.928,4.759
	v0.872h3.253c0.166,0,0.3,0.134,0.3,0.3V27.678z M15.094,24.944h-1.748c-0.106,0-0.204-0.056-0.258-0.146
	c-0.054-0.091-0.056-0.204-0.006-0.297l1.423-2.573l0.31-0.783c0.045-0.114,0.156-0.188,0.278-0.188h0.109
	c0.083,0,0.162,0.034,0.219,0.095c0.057,0.061,0.085,0.142,0.08,0.225l-0.109,1.585l0,1.782
	C15.394,24.81,15.259,24.944,15.094,24.944z M13.851,24.345h0.943l0.017-1.746L13.851,24.345z M32.471,24.836h-1.475
	c-0.052,0-0.104-0.014-0.149-0.04l-0.385-0.221c-0.051-0.029-0.093-0.074-0.119-0.127l-0.162-0.326
	c-0.021-0.042-0.031-0.087-0.031-0.133v-1.53c0-0.041,0.008-0.08,0.023-0.117l0.162-0.382c0.036-0.083,0.106-0.146,0.194-0.171
	l0.385-0.11c0.027-0.007,0.055-0.011,0.083-0.011h1.475c0.028,0,0.056,0.004,0.083,0.012l0.383,0.11
	c0.086,0.025,0.157,0.087,0.192,0.169l0.164,0.382c0.016,0.038,0.024,0.078,0.024,0.119v1.53c0,0.047-0.011,0.093-0.032,0.135
	l-0.164,0.326c-0.026,0.052-0.067,0.096-0.118,0.125l-0.383,0.221C32.575,24.822,32.523,24.836,32.471,24.836z M31.076,24.236h1.314
	l0.235-0.136l0.092-0.183v-1.397l-0.084-0.194l-0.206-0.06h-1.39l-0.207,0.06l-0.083,0.194v1.399l0.09,0.182L31.076,24.236z
	 M29.137,24.836h-1.584c-0.06,0-0.118-0.018-0.167-0.051l-0.328-0.221c-0.043-0.029-0.077-0.068-0.101-0.114l-0.164-0.326
	c-0.021-0.042-0.032-0.088-0.032-0.135v-1.53c0-0.179,0.073-0.363,0.225-0.563c0.037-0.048,0.086-0.084,0.144-0.103l0.328-0.11
	c0.031-0.011,0.063-0.016,0.096-0.016h1.584c0.033,0,0.065,0.005,0.096,0.016l0.328,0.11c0.093,0.031,0.165,0.106,0.192,0.2
	l0.111,0.382c0.008,0.027,0.012,0.056,0.012,0.084v1.53c0,0.032-0.005,0.064-0.015,0.095l-0.109,0.326
	c-0.021,0.063-0.063,0.117-0.118,0.154l-0.33,0.221C29.254,24.818,29.196,24.836,29.137,24.836z M27.644,24.236h1.402l0.169-0.113
	l0.062-0.183v-1.438l-0.056-0.19l-0.133-0.045h-1.485l-0.188,0.063c-0.052,0.083-0.054,0.124-0.054,0.129v1.459l0.097,0.192
	L27.644,24.236z M25.695,24.836h-1.529c-0.06,0-0.117-0.018-0.167-0.05l-0.33-0.221c-0.044-0.029-0.079-0.069-0.102-0.116
	l-0.162-0.326c-0.021-0.042-0.031-0.087-0.031-0.133v-1.53c0-0.041,0.008-0.08,0.023-0.117l0.162-0.382
	c0.034-0.079,0.1-0.14,0.181-0.167l0.328-0.11c0.031-0.011,0.063-0.016,0.096-0.016h1.529c0.028,0,0.056,0.004,0.083,0.011
	l0.385,0.11c0.1,0.029,0.177,0.106,0.206,0.206l0.109,0.382c0.007,0.027,0.011,0.055,0.011,0.083v1.53
	c0,0.032-0.005,0.064-0.015,0.095l-0.109,0.326c-0.023,0.07-0.071,0.128-0.135,0.165l-0.383,0.221
	C25.8,24.822,25.748,24.836,25.695,24.836z M24.257,24.236h1.358l0.214-0.124l0.058-0.172v-1.439l-0.052-0.181l-0.184-0.053h-1.438
	l-0.154,0.052l-0.086,0.202v1.399l0.095,0.191L24.257,24.236z M22.252,24.836h-1.475c-0.197,0-0.392-0.102-0.597-0.311l-0.253-0.369
	c-0.033-0.049-0.051-0.107-0.051-0.167v-1.53c0-0.052,0.014-0.104,0.04-0.149l0.219-0.382c0.039-0.068,0.102-0.118,0.177-0.139
	l0.383-0.11c0.027-0.008,0.055-0.012,0.083-0.012h1.475c0.028,0,0.056,0.004,0.083,0.012l0.383,0.11
	c0.086,0.025,0.157,0.087,0.192,0.169l0.164,0.382c0.016,0.038,0.024,0.078,0.024,0.119v1.53c0,0.047-0.011,0.093-0.032,0.135
	l-0.164,0.326c-0.026,0.052-0.067,0.096-0.118,0.125l-0.383,0.221C22.356,24.822,22.305,24.836,22.252,24.836z M20.476,23.898
	l0.168,0.25c0.082,0.076,0.139,0.088,0.14,0.088h1.388l0.236-0.136l0.092-0.183v-1.397l-0.084-0.194l-0.206-0.06h-1.39l-0.226,0.065
	l-0.119,0.208V23.898z M32.637,21.229H20.668c-0.028,0-0.056-0.004-0.083-0.012l-0.383-0.11c-0.081-0.023-0.147-0.079-0.185-0.154
	l-0.219-0.437c-0.021-0.042-0.032-0.087-0.032-0.134v-7.649c0-0.046,0.011-0.092,0.031-0.134l0.219-0.438
	c0.015-0.029,0.034-0.056,0.057-0.079c0.166-0.165,0.371-0.251,0.594-0.251h11.969c0.563,0,0.899,0.337,0.899,0.901v7.649
	C33.536,20.912,33.2,21.229,32.637,21.229z M20.71,20.629h11.926c0.279,0,0.3-0.093,0.3-0.247v-7.649c0-0.234-0.067-0.302-0.3-0.302
	H20.668c-0.053,0-0.096,0.015-0.14,0.049l-0.162,0.324v7.508l0.128,0.255L20.71,20.629z M27.936,17.841h-0.383
	c-0.166,0-0.3-0.134-0.3-0.3v-0.037l-0.047,0.026c-0.072,0.04-0.157,0.047-0.235,0.024c-0.078-0.025-0.143-0.08-0.18-0.154
	l-0.162-0.328c-0.068-0.138-0.021-0.306,0.11-0.387l0.03-0.019l-0.03-0.019c-0.138-0.086-0.181-0.267-0.098-0.407l0.162-0.273
	c0.083-0.14,0.262-0.189,0.403-0.109l0.047,0.026c0.009-0.157,0.14-0.282,0.299-0.282h0.383c0.085,0,0.167,0.036,0.224,0.1
	c0.039,0.044,0.064,0.097,0.073,0.154c0.141-0.077,0.316-0.027,0.398,0.11l0.164,0.273c0.043,0.072,0.054,0.158,0.031,0.238
	c-0.023,0.08-0.079,0.147-0.154,0.185l-0.009,0.004l0.009,0.004c0.071,0.036,0.125,0.098,0.151,0.173
	c0.025,0.076,0.019,0.158-0.016,0.229l-0.164,0.328c-0.037,0.073-0.102,0.128-0.18,0.152c-0.075,0.023-0.156,0.017-0.227-0.02
	c0.002,0.077-0.026,0.151-0.077,0.208C28.101,17.805,28.021,17.841,27.936,17.841z M25.531,17.841h-0.438
	c-0.166,0-0.3-0.134-0.3-0.3v-0.007c-0.137,0.068-0.303,0.027-0.387-0.1l-0.219-0.328c-0.046-0.07-0.062-0.156-0.042-0.237
	s0.073-0.151,0.146-0.192l0.019-0.01l-0.019-0.011c-0.077-0.043-0.132-0.118-0.149-0.204c-0.017-0.087,0.005-0.177,0.06-0.246
	l0.219-0.273c0.091-0.113,0.25-0.145,0.375-0.077c0.022-0.144,0.146-0.254,0.296-0.254h0.438c0.091,0,0.177,0.041,0.234,0.112
	c0.033,0.041,0.055,0.09,0.063,0.142l0.007-0.004c0.14-0.069,0.311-0.02,0.392,0.114l0.164,0.273
	c0.042,0.07,0.054,0.153,0.032,0.232c-0.021,0.079-0.073,0.145-0.144,0.185l-0.019,0.011l0.019,0.01
	c0.141,0.078,0.195,0.253,0.123,0.397l-0.164,0.328c-0.036,0.071-0.098,0.125-0.174,0.15c-0.076,0.025-0.159,0.02-0.229-0.016
	l-0.003-0.002c0.002,0.071-0.022,0.141-0.068,0.197C25.706,17.801,25.621,17.841,25.531,17.841z M23.127,17.841h-0.383
	c-0.166,0-0.3-0.134-0.3-0.3v-0.037l-0.047,0.026c-0.071,0.04-0.155,0.047-0.234,0.024c-0.078-0.024-0.143-0.079-0.18-0.152
	l-0.164-0.328c-0.069-0.139-0.021-0.307,0.11-0.389l0.029-0.018l-0.03-0.019c-0.139-0.087-0.182-0.269-0.098-0.409l0.164-0.273
	c0.083-0.139,0.262-0.188,0.403-0.108l0.047,0.026c0.009-0.157,0.14-0.282,0.299-0.282h0.383c0.091,0,0.177,0.041,0.234,0.112
	c0.038,0.047,0.061,0.105,0.065,0.165l0.069-0.031c0.074-0.034,0.161-0.035,0.237-0.005c0.076,0.031,0.136,0.092,0.167,0.168
	l0.107,0.273c0.055,0.14-0.002,0.299-0.133,0.372l-0.02,0.011l0.019,0.011c0.126,0.07,0.184,0.219,0.14,0.355l-0.107,0.328
	c-0.026,0.081-0.086,0.147-0.165,0.182c-0.079,0.034-0.167,0.033-0.245-0.002l-0.07-0.032c0.008,0.08-0.015,0.16-0.066,0.223
	C23.302,17.801,23.217,17.841,23.127,17.841z"/>
<rect id="sliceCopy_x5F_2_1_" x="39.914" fill="none" width="29.462" height="40"/>
<rect id="sliceCopy_x5F_1_1_" fill="none" width="39.914" height="40"/>
</svg>
