<?xml version="1.0" encoding="utf-8"?>
<!-- Generator: Adobe Illustrator 15.1.0, SVG Export Plug-In  -->
<!DOCTYPE svg PUBLIC "-//W3C//DTD SVG 1.1//EN" "http://www.w3.org/Graphics/SVG/1.1/DTD/svg11.dtd" [
	<!ENTITY ns_flows "http://ns.adobe.com/Flows/1.0/">
]>
<svg version="1.1"
	 xmlns="http://www.w3.org/2000/svg" xmlns:xlink="http://www.w3.org/1999/xlink" xmlns:a="http://ns.adobe.com/AdobeSVGViewerExtensions/3.0/"
	 x="0px" y="0px" width="88px" height="40px" viewBox="0.77 0 88 40" enable-background="new 0.77 0 88 40" xml:space="preserve">
<defs>
</defs>
<path d="M9.334,27.201c-0.917,0-1.491-0.654-1.997-1.23l-0.082-0.091c-1.078-1.199-1.348-1.714-1.067-2.042
	c0.054-0.062,0.108-0.122,0.166-0.179C6.09,23.552,5.87,23.34,5.655,23.133L5.516,23c-0.449-0.417-0.879-0.872-1.279-1.351
	c-0.035-0.042-0.076-0.086-0.12-0.132c-0.215-0.228-0.662-0.703-0.249-1.18c0.214-0.247,0.423-0.496,0.63-0.749
	c0.535-0.654,1.283-1.074,2.006-1.481l0.724-0.416c0.492-0.288,1.001-0.586,1.536-0.826c1.583-0.71,3.265-1.239,4.89-1.75
	l0.882-0.278c4.419-1.409,9.344-2.038,15.968-2.038c1.264,0,2.442,0.116,3.853,0.269c0.663,0.072,1.23,0.3,1.78,0.52
	c0.311,0.125,0.625,0.251,0.962,0.351c0.757,0.224,1.488,0.25,2.263,0.277c0.237,0.009,0.479,0.017,0.723,0.032
	c1.004,0.054,1.928-0.256,2.91-0.591c0.297-0.101,0.594-0.202,0.894-0.293c0.145-0.044,0.297-0.066,0.451-0.066
	c0.801,0,1.529,0.591,1.91,1.096l0.081,0.109c0.207,0.282,0.262,0.358,0.535,0.358l0.075-0.002c0.288-0.015,0.578-0.082,0.886-0.153
	l0.282-0.063c0.496-0.106,0.791-0.354,1.135-0.747c0.234-0.269,0.63-0.239,0.952-0.137c0.062,0.02,0.124,0.041,0.187,0.055
	c0.431,0.099,0.869,0.176,1.308,0.253c0.211,0.037,0.423,0.074,0.634,0.114c0.955,0.179,1.95,0.274,2.912,0.366
	c0.343,0.033,0.687,0.066,1.028,0.102l0.589,0.066c0.868,0.1,1.68,0.193,2.529,0.138l5.295-0.345
	c0.961-0.063,1.878-0.255,2.85-0.459l0.763-0.158c0.306-0.065,0.507-0.034,0.77,0.125l0.853,0.521
	c1.357,0.826,2.636,1.394,3.909,1.734c1.021,0.273,2.136,0.406,3.407,0.406c1.181,0,2.395-0.112,3.568-0.221l0.898-0.082
	l2.257-0.388c0.118-0.021,0.244,0.035,0.308,0.141s0.057,0.24-0.019,0.337c-0.697,0.911-1.434,1.779-2.127,2.581
	c-1.396,1.616-3.211,2.3-4.966,2.96c-1.063,0.4-2.174,0.426-3.248,0.451c-0.275,0.006-0.551,0.013-0.827,0.025
	c-0.896,0.042-1.821-0.075-2.71-0.187c-0.372-0.047-0.742-0.093-1.107-0.128c-0.814-0.078-1.628-0.185-2.441-0.293
	c-0.399-0.053-0.8-0.105-1.199-0.155c-2.683-0.33-5.365-0.659-8.05-0.981l-3.375-0.405c-0.011,0.05-0.02,0.086-0.03,0.123
	c-0.109,0.367-1.419,0.407-1.978,0.407c-0.183,0-0.258-0.014-0.315-0.035c-0.161-0.061-0.264-0.197-0.346-0.307
	c-0.032-0.042-0.08-0.107-0.103-0.122c-0.152-0.088-0.271-0.092-0.505-0.092c-0.18,0-0.359,0.077-0.504,0.216
	c-0.101,0.097-0.254,0.111-0.372,0.035c-0.116-0.076-0.166-0.223-0.118-0.354c0.02-0.052,0.005-0.072-0.002-0.081
	c-0.021-0.031-0.078-0.062-0.157-0.062c-0.226,0.023-0.389,0.152-0.578,0.302l-0.038,0.03c-0.007,0.031-0.011,0.069-0.017,0.106
	c-0.02,0.124-0.038,0.24-0.09,0.336l-0.051,0.104c-0.081,0.167-0.172,0.355-0.367,0.5c-0.434,0.321-1.291,0.937-2.059,0.846
	c0.203,1.053-0.14,2.237-0.921,3.007c-0.005,0.004-0.545,0.509-0.95,0.509c-0.146,0-0.243-0.059-0.3-0.108
	c-0.355-0.314-0.03-0.708,0.077-0.837c0.029-0.035,0.059-0.067,0.074-0.096c0.232-0.642,0.346-1.125,0.412-1.775
	c0.04-0.412-0.103-0.771-0.328-1.185l-0.07-0.143c-0.045-0.095-0.165-0.346-0.237-0.386c-0.005-0.003-0.2-0.016-0.393,0
	c-0.097,0.008-0.19,0.015-0.271,0.015l-0.353-0.015c-0.194-0.008-0.39-0.016-0.582-0.038l-1.074-0.117
	c-0.772-0.083-1.545-0.166-2.314-0.266c-0.35-0.045-0.703-0.103-1.06-0.16c-0.862-0.14-1.749-0.29-2.602-0.247l-5.062,0.23
	c-0.807,0.037-1.629,0.112-2.424,0.186l-0.878,0.079c-0.365,0.032-0.742,0.05-1.122,0.068c-0.86,0.042-1.75,0.084-2.545,0.293
	l-0.568,0.149c-2.376,0.622-4.833,1.265-7.146,2.182c-0.337,0.134-0.68,0.264-1.023,0.396c-1.354,0.515-2.753,1.048-3.94,1.825
	c-0.33,0.216-0.564,0.377-0.81,0.644c-0.007,0.013-0.04,0.096-0.063,0.152c-0.093,0.233-0.197,0.497-0.46,0.534
	C9.525,27.194,9.428,27.201,9.334,27.201z M6.698,24.166c0.045,0.128,0.239,0.463,1.003,1.312l0.087,0.097
	c0.58,0.661,0.997,1.074,1.668,1.021c0.023-0.049,0.053-0.123,0.072-0.172c0.055-0.136,0.102-0.253,0.18-0.337
	c0.29-0.315,0.577-0.512,0.922-0.738c1.241-0.813,2.672-1.357,4.055-1.884c0.342-0.13,0.682-0.26,1.017-0.392
	c2.348-0.93,4.822-1.578,7.215-2.204l0.568-0.149c0.855-0.225,1.777-0.269,2.668-0.312c0.373-0.018,0.742-0.036,1.101-0.067
	l0.873-0.079c0.802-0.074,1.632-0.15,2.452-0.188l5.062-0.23c0.903-0.038,1.833,0.109,2.726,0.254
	c0.35,0.057,0.696,0.113,1.039,0.158c0.766,0.099,1.534,0.181,2.303,0.264l1.076,0.117c0.179,0.02,0.359,0.027,0.54,0.035
	l0.292,0.014c0.103,0.004,0.18-0.006,0.26-0.012c0.265-0.021,0.517-0.022,0.681,0.048c0.271,0.117,0.426,0.441,0.538,0.678
	l0.058,0.116c0.239,0.439,0.455,0.93,0.397,1.529c-0.072,0.7-0.192,1.22-0.444,1.916c0.046-0.036,0.086-0.069,0.11-0.094
	c0.772-0.762,1.023-2.009,0.599-2.968c-0.056-0.126-0.019-0.274,0.091-0.359c0.109-0.085,0.263-0.083,0.37,0.002
	c0.13,0.103,0.276,0.153,0.448,0.153c0.542,0,1.214-0.499,1.537-0.738c0.073-0.054,0.117-0.141,0.184-0.279l0.062-0.123
	c0.006-0.019,0.02-0.102,0.027-0.151c0.027-0.176,0.054-0.343,0.188-0.444l0.088-0.069c0.229-0.18,0.487-0.385,0.85-0.426
	c0.011-0.001,0.09-0.005,0.101-0.005c0.267,0,0.51,0.119,0.649,0.318c0.006,0.009,0.012,0.017,0.017,0.026
	c0.155-0.064,0.32-0.098,0.487-0.098c0.249,0,0.508,0,0.807,0.174c0.125,0.072,0.208,0.183,0.281,0.281
	c0.028,0.039,0.072,0.097,0.093,0.112c-0.015-0.011,0.021-0.007,0.088-0.011c0.396,0,1.135-0.072,1.436-0.126
	c0.029-0.135,0.114-0.418,0.453-0.418l3.566,0.424c2.685,0.323,5.367,0.651,8.051,0.981c0.401,0.049,0.803,0.103,1.205,0.156
	c0.806,0.106,1.612,0.213,2.419,0.29c0.371,0.036,0.747,0.083,1.126,0.13c0.863,0.109,1.752,0.221,2.607,0.183
	c0.281-0.013,0.562-0.019,0.841-0.025c1.071-0.025,2.083-0.048,3.051-0.413c1.685-0.634,3.427-1.29,4.723-2.792
	c0.53-0.613,1.086-1.265,1.628-1.943l-1.516,0.26l-0.92,0.084c-1.188,0.11-2.416,0.224-3.624,0.224c-1.325,0-2.49-0.14-3.562-0.426
	c-1.33-0.356-2.66-0.945-4.067-1.802l-0.851-0.521c-0.131-0.079-0.158-0.079-0.171-0.079c-0.031,0-0.09,0.012-0.164,0.028
	l-0.764,0.159c-0.949,0.199-1.931,0.405-2.934,0.47l-5.295,0.345c-0.897,0.06-1.782-0.043-2.637-0.141l-0.584-0.065
	c-0.34-0.036-0.681-0.069-1.021-0.101c-0.976-0.093-1.984-0.189-2.967-0.374l-0.626-0.113c-0.448-0.079-0.897-0.157-1.339-0.259
	c-0.079-0.019-0.157-0.043-0.235-0.068c-0.098-0.032-0.199-0.064-0.264-0.064c-0.457,0.486-0.86,0.823-1.515,0.963l-0.273,0.062
	c-0.318,0.073-0.647,0.149-0.988,0.167l-0.106,0.003c-0.577,0-0.792-0.293-1.02-0.604l-0.076-0.104
	c-0.378-0.501-1.115-0.996-1.708-0.816c-0.293,0.089-0.584,0.188-0.874,0.287c-0.991,0.338-2.021,0.69-3.139,0.622
	c-0.24-0.014-0.476-0.022-0.709-0.031c-0.813-0.029-1.581-0.056-2.411-0.301c-0.36-0.106-0.693-0.24-1.016-0.369
	c-0.535-0.214-1.04-0.417-1.621-0.48c-1.392-0.15-2.555-0.266-3.788-0.266c-6.56,0-11.429,0.62-15.786,2.009l-0.884,0.279
	c-1.608,0.506-3.272,1.03-4.823,1.726C8.503,17.64,8.008,17.93,7.529,18.21l-0.731,0.421c-0.675,0.379-1.373,0.771-1.836,1.338
	c-0.211,0.258-0.424,0.51-0.642,0.761c-0.039,0.045-0.015,0.113,0.232,0.375c0.053,0.056,0.103,0.109,0.145,0.16
	c0.384,0.46,0.796,0.896,1.227,1.296l0.147,0.141c0.326,0.314,0.566,0.559,0.914,0.32c0.599-0.413,1.111-0.754,1.665-1.075
	c1.283-0.741,2.573-1.305,3.938-1.902c1.93-0.844,3.761-1.61,5.664-2.012c0.467-0.099,0.936-0.209,1.406-0.32
	c0.942-0.222,1.918-0.452,2.887-0.587l4.451-0.62c1.398-0.195,2.913-0.29,4.631-0.29c0.855,0,1.771,0.023,2.798,0.071
	c1.212,0.057,2.422,0.133,3.633,0.21l0.325,0.021c0.216,0.014,0.433,0.035,0.65,0.057c0.337,0.034,0.686,0.069,1.02,0.069
	c0.321,0,0.361,0.332,0.407,0.717c0.011,0.084,0.018,0.16,0.028,0.2c0.125,0.326,0.225,0.545,0.407,0.797
	c0.068,0.096,0.076,0.222,0.018,0.325c-0.058,0.102-0.171,0.165-0.288,0.15c-0.673-0.062-1.268-0.327-1.844-0.583
	c-0.534-0.238-1.039-0.462-1.578-0.518c-1.431-0.147-2.91-0.281-4.396-0.397c-2.304-0.182-4.834-0.117-7.428,0.187
	c-3.522,0.412-7.636,1.059-11.447,2.729l-0.888,0.385c-1.61,0.696-3.274,1.415-4.732,2.368c-0.135,0.088-0.271,0.173-0.408,0.258
	C7.456,23.539,7.031,23.803,6.698,24.166z M34.997,16.916c0.766,0.069,1.523,0.142,2.27,0.219c0.633,0.065,1.206,0.32,1.76,0.566
	c0.353,0.157,0.692,0.309,1.041,0.412c-0.052-0.117-0.098-0.233-0.144-0.354c-0.026-0.07-0.038-0.161-0.059-0.328
	c-0.006-0.051-0.015-0.126-0.024-0.193c-0.293-0.01-0.584-0.04-0.866-0.068c-0.21-0.021-0.42-0.042-0.628-0.055l-0.325-0.021
	C37.013,17.031,36.005,16.968,34.997,16.916z M12.346,23.791c-0.445,0-0.868-0.324-1.005-0.77c-0.127-0.415,0.025-0.817,0.409-1.077
	c0.458-0.313,1.159-0.149,1.45,0.331c0.237,0.389,0.079,0.731-0.036,0.98l-0.059,0.132c-0.014,0.034-0.034,0.066-0.062,0.095l0,0
	c-0.001,0-0.001,0.001-0.001,0.001c-0.001,0-0.001,0-0.001,0.001s-0.001-0.002-0.002,0.002c-0.001,0-0.001,0.001-0.002,0.001l0,0
	c0,0,0,0.001-0.001,0.001c-0.039,0.039-0.075,0.076-0.118,0.103C12.747,23.723,12.552,23.791,12.346,23.791z M12.307,22.375
	c-0.08,0-0.156,0.023-0.221,0.066c-0.162,0.11-0.22,0.246-0.171,0.404c0.082,0.269,0.411,0.444,0.646,0.266l0.059-0.106
	c0.111-0.241,0.131-0.315,0.069-0.417C12.609,22.458,12.459,22.375,12.307,22.375z M14.599,22.822c-0.436,0-0.863-0.297-1.018-0.708
	c-0.136-0.364-0.031-0.743,0.28-1.015c0.178-0.179,0.417-0.281,0.679-0.281c0.435,0,0.861,0.296,1.016,0.705
	c0.122,0.323,0.054,0.66-0.182,0.923c-0.024,0.034-0.063,0.071-0.106,0.105C15.079,22.728,14.849,22.822,14.599,22.822z
	 M14.54,21.417c-0.1,0-0.19,0.04-0.269,0.119c-0.14,0.123-0.177,0.238-0.128,0.367c0.101,0.27,0.495,0.426,0.723,0.201
	c0,0,0.001-0.001,0.001-0.001c0.005-0.005,0.01-0.01,0.016-0.014c0,0,0,0,0,0c0.124-0.109,0.16-0.225,0.112-0.354
	C14.929,21.56,14.725,21.417,14.54,21.417z M7.042,21.425c-0.458,0-0.878-0.375-0.977-0.872c-0.091-0.459,0.13-0.86,0.576-1.044
	c0.547-0.229,1.253,0.147,1.364,0.715c0.052,0.267-0.064,0.496-0.157,0.68c-0.008,0.014-0.015,0.028-0.021,0.042
	c-0.014,0.095-0.071,0.176-0.152,0.221c-0.019,0.017-0.036,0.032-0.056,0.046C7.4,21.386,7.189,21.425,7.042,21.425z M7.009,20.037
	c-0.049,0-0.096,0.009-0.139,0.026c-0.181,0.075-0.251,0.196-0.216,0.373c0.06,0.298,0.362,0.504,0.612,0.29
	c0.015-0.031,0.03-0.062,0.046-0.093c0.052-0.102,0.116-0.229,0.104-0.293C7.38,20.15,7.181,20.037,7.009,20.037z M9.836,20.426
	c-0.443,0-0.858-0.332-0.986-0.788c-0.12-0.427,0.056-0.844,0.457-1.089c0.524-0.318,1.31,0.007,1.475,0.6
	c0.082,0.29-0.045,0.555-0.138,0.748c-0.008,0.017-0.016,0.034-0.023,0.05c-0.012,0.099-0.07,0.183-0.153,0.229
	c-0.021,0.019-0.042,0.037-0.064,0.051C10.232,20.358,10.039,20.426,9.836,20.426z M9.798,19.013c-0.065,0-0.125,0.017-0.179,0.049
	c-0.175,0.107-0.239,0.246-0.192,0.414c0.079,0.279,0.397,0.455,0.63,0.26c0.015-0.032,0.03-0.064,0.046-0.098
	c0.057-0.119,0.122-0.254,0.101-0.326C10.156,19.141,9.981,19.013,9.798,19.013z M37.644,19.847c-0.044,0-0.088-0.004-0.132-0.013
	c-0.299-0.056-0.563-0.253-0.708-0.526c-0.139-0.264-0.151-0.569-0.034-0.836c0.165-0.376,0.477-0.592,0.854-0.592
	c0.443,0,0.893,0.308,1.045,0.717c0.114,0.306,0.053,0.613-0.167,0.863c-0.013,0.019-0.027,0.037-0.046,0.053
	c-0.042,0.062-0.106,0.106-0.182,0.123c-0.026,0.013-0.054,0.027-0.082,0.041C38.042,19.753,37.855,19.847,37.644,19.847z
	 M37.623,18.48c-0.136,0-0.235,0.076-0.305,0.233c-0.059,0.135-0.016,0.255,0.017,0.315c0.06,0.113,0.167,0.194,0.289,0.217
	c0.059,0.001,0.2-0.054,0.297-0.104c0.035-0.018,0.07-0.035,0.104-0.051c0.122-0.12,0.105-0.218,0.081-0.283
	C38.041,18.633,37.815,18.48,37.623,18.48z M35.231,19.586c-0.46,0-0.891-0.358-1.003-0.833c-0.099-0.42,0.092-0.807,0.498-1.01
	c0.514-0.255,1.196,0.015,1.411,0.532c0.136,0.325,0.071,0.677-0.172,0.954c-0.004,0.005-0.009,0.01-0.013,0.015v0
	c-0.002,0.002-0.004,0.004-0.006,0.006c-0.003,0.002-0.005,0.004-0.007,0.007c-0.003,0.003-0.006,0.006-0.009,0.009
	c-0.004,0.004-0.009,0.008-0.013,0.013c0,0-0.001,0-0.001,0.001l0,0c-0.002,0.002-0.004,0.004-0.006,0.006l-0.002-0.001
	c0,0,0,0-0.001,0l0.002,0.001C35.715,19.483,35.479,19.586,35.231,19.586z M35.172,18.238c-0.062,0-0.121,0.014-0.178,0.042
	c-0.159,0.08-0.217,0.186-0.182,0.334c0.069,0.294,0.423,0.497,0.676,0.247c0,0,0-0.001,0.001-0.001l0,0c0,0,0-0.001,0.001-0.001
	l0,0c0,0,0.001-0.001,0.001-0.002c0,0,0.001,0,0.001,0c0.111-0.113,0.143-0.231,0.092-0.351
	C35.521,18.354,35.343,18.238,35.172,18.238z M71.031,17.572c-0.003,0-0.005,0-0.008,0l-14.618-0.39
	c-0.046-0.001-0.091-0.013-0.132-0.034l-0.57-0.301c-0.123-0.065-0.185-0.206-0.149-0.341c0.034-0.132,0.154-0.224,0.29-0.224
	c0.002,0,0.005,0,0.008,0l14.416,0.352c0.433,0.011,0.563,0.096,0.872,0.342l0.077,0.061c0.102,0.08,0.141,0.216,0.097,0.337
	C71.271,17.493,71.157,17.572,71.031,17.572z M32.728,15.777c-0.442,0-0.863-0.323-1-0.77c-0.128-0.417,0.023-0.819,0.404-1.077
	c0.493-0.334,1.272-0.11,1.51,0.431c0.153,0.349,0.011,0.656-0.095,0.88l-0.023,0.055c-0.012,0.098-0.07,0.182-0.153,0.228
	c-0.021,0.019-0.041,0.036-0.063,0.051C33.133,15.708,32.936,15.777,32.728,15.777z M32.691,14.362c-0.083,0-0.16,0.022-0.223,0.065
	c-0.16,0.109-0.217,0.245-0.168,0.404c0.085,0.277,0.42,0.452,0.658,0.253c0.015-0.032,0.029-0.063,0.044-0.096
	c0.093-0.199,0.13-0.295,0.09-0.387C33.02,14.436,32.839,14.362,32.691,14.362z M29.935,15.599c-0.441,0-0.862-0.328-1.001-0.78
	c-0.129-0.42,0.026-0.842,0.406-1.099c0.503-0.341,1.282-0.099,1.513,0.459c0.146,0.354,0.011,0.647-0.098,0.882l-0.06,0.134
	c-0.013,0.03-0.03,0.059-0.052,0.084h-0.001c0,0.001-0.001,0.001-0.001,0.001c0,0,0,0,0,0c-0.003,0.002-0.005,0.005-0.007,0.007l0,0
	c-0.001,0-0.001,0-0.001,0.001l-0.001,0c0,0,0,0,0,0c-0.001,0-0.001,0.001-0.001,0.001c0,0,0.008,0-0.002,0.001c0,0,0,0,0,0
	s0,0-0.001,0l0,0c0,0,0,0,0,0l0,0c-0.037,0.038-0.073,0.073-0.114,0.1C30.341,15.528,30.143,15.599,29.935,15.599z M29.897,14.15
	c-0.081,0-0.157,0.023-0.222,0.066c-0.164,0.111-0.221,0.255-0.169,0.426c0.089,0.287,0.422,0.465,0.661,0.26l0.042-0.093
	c0.096-0.207,0.13-0.301,0.088-0.403C30.234,14.253,30.073,14.15,29.897,14.15z"/>
<rect id="sliceCopy_x5F_15_1_" x="88" fill="none" width="88.001" height="40"/>
<rect id="sliceCopy_x5F_14_1_" fill="none" width="88" height="40"/>
</svg>
