<?xml version="1.0" encoding="utf-8"?>
<!-- Generator: Adobe Illustrator 15.1.0, SVG Export Plug-In  -->
<!DOCTYPE svg PUBLIC "-//W3C//DTD SVG 1.1//EN" "http://www.w3.org/Graphics/SVG/1.1/DTD/svg11.dtd" [
	<!ENTITY ns_flows "http://ns.adobe.com/Flows/1.0/">
]>
<svg version="1.1"
	 xmlns="http://www.w3.org/2000/svg" xmlns:xlink="http://www.w3.org/1999/xlink" xmlns:a="http://ns.adobe.com/AdobeSVGViewerExtensions/3.0/"
	 x="0px" y="0px" width="97px" height="40px" viewBox="0.51 0 97 40" enable-background="new 0.51 0 97 40" xml:space="preserve">
<defs>
</defs>
<path d="M64.94,36.3c-0.447,0-0.562-0.274-0.591-0.391l-1.084-4.729c-0.174-0.75-0.354-1.498-0.534-2.246
	c-0.249-1.034-0.498-2.067-0.729-3.107l-0.09-0.42c-0.072-0.336-0.144-0.674-0.224-1.007c-0.029-0.122-0.049-0.243-0.068-0.357
	c-0.074-0.461-0.106-0.461-0.282-0.461l-0.873-0.005c-0.661,0-1.358,0.026-1.981,0.219c-0.316,0.098-0.534,0.446-0.765,0.814
	c-0.27,0.43-0.547,0.875-1.044,0.979c-1.002,0.208-1.953,0.285-3.092,0.362c-0.397,0.027-0.812,0.046-1.23,0.046
	c-1.135,0-2.063-0.14-2.84-0.427c-0.087-0.032-0.176-0.062-0.266-0.092c-0.25-0.084-0.508-0.171-0.749-0.309
	c-0.104-0.059-0.209-0.131-0.31-0.202c-0.125-0.088-0.296-0.208-0.368-0.208l0,0c-0.001,0-0.021,0.01-0.057,0.061l-0.116,0.162
	c-0.541,0.743-0.583,0.975-0.56,1.046c0.024,0.054,0.055,0.136,0.089,0.23c0.043,0.119,0.14,0.384,0.207,0.477
	c0.083,0.026,0.153,0.088,0.188,0.171c0.047,0.112,0.021,0.241-0.064,0.327c-0.039,0.04-0.082,0.091-0.127,0.146
	c-0.128,0.155-0.274,0.33-0.457,0.416c-0.103,0.047-0.269,0.031-0.356,0.008c-0.271,0.449-0.546,0.891-0.824,1.333
	c-0.618,0.983-0.994,1.824-1.117,2.5c-0.024,0.136-0.006,0.315,0.013,0.505c0.036,0.354,0.076,0.754-0.153,1.076
	c-0.235,0.216-0.507,0.299-0.854,0.299c-0.32,0-0.693-0.076-0.95-0.195c-0.795-0.364-1.552-0.806-2.282-1.233l-0.256-0.149
	c-0.04-0.023-0.117-0.064-0.22-0.119c-1.864-0.989-2.477-1.515-2.342-2.008c0.186-0.683,0.543-1.312,0.889-1.92
	c0.119-0.21,0.238-0.419,0.348-0.628c0.887-1.685,1.856-3.353,2.793-4.966l0.408-0.703c0.286-0.494-0.26-1.955-0.77-2.337
	c-0.747-0.564-2.091-1-3.091-1.181c-1.369-0.25-2.823-0.494-4.23-0.494c-0.493,0-0.961,0.031-1.388,0.092
	c-0.835,0.119-1.676,0.447-2.489,0.764c-0.313,0.123-0.625,0.244-0.935,0.353L8.705,26.018c-0.421,0.147-1.305,0.296-2.184,0.296
	c-0.64,0-1.162-0.078-1.554-0.233c-0.691-0.273-0.837-0.733-0.837-1.071c0-0.587,0.017-1.187,0.034-1.791
	c0.038-1.383,0.079-2.813-0.091-4.146c-0.154-1.197-0.199-2.417-0.242-3.598c-0.029-0.801-0.06-1.63-0.124-2.439
	c-0.038-0.469,0.069-0.844,0.318-1.117c0.477-0.521,1.331-0.531,2.084-0.539l0.296-0.004c1.039-0.025,2.08-0.045,3.122-0.065
	c2.788-0.054,5.579-0.037,8.365-0.02c1.371,0.008,2.741,0.017,4.111,0.017h6.104c0.417,0,0.935-0.173,1.435-0.34
	c0.245-0.082,0.481-0.161,0.697-0.217c1.002-0.259,1.731-0.516,2.499-1.063c0.846-0.604,1.673-0.815,2.631-1.06l0.131-0.033
	c0.184-0.047,0.37-0.084,0.557-0.121c0.211-0.041,0.422-0.083,0.629-0.142c0.219-0.063,0.531-0.419,0.759-0.68
	c0.116-0.132,0.225-0.255,0.32-0.348c0.163-0.157,0.325-0.358,0.493-0.566c0.445-0.551,0.95-1.175,1.646-1.268l0.223-0.032
	c0.389-0.056,0.793-0.115,1.223-0.057l0.911,0.122c0.059,0.008,0.104-0.015,0.157-0.031c0.085-0.023,0.181-0.051,0.289-0.051
	c0.275,0.02,0.473,0.13,0.632,0.218l0.121,0.065c0.003,0.001,0.177,0.017,0.344,0.004c0.075-0.006,0.147-0.011,0.208-0.011
	c0.852,0,1.03,0.556,1.03,1.023v0.243c0.266-0.04,0.752-0.001,1.108,0.032c0.138,0.013,0.251,0.024,0.311,0.024h0.527
	c-0.028-0.165-0.049-0.358,0.092-0.502c0.1-0.1,0.24-0.135,0.539-0.135c1.253,0,1.253,0.234,1.253,0.405
	c0,0.061-0.007,0.13-0.015,0.199c-0.002,0.012-0.003,0.026-0.005,0.04c0.076,0.004,0.173,0.011,0.265,0.012
	c-0.014-0.157-0.01-0.332,0.113-0.469c0.082-0.091,0.199-0.141,0.332-0.141h0.939c0.132,0,0.25,0.05,0.331,0.141
	c0.122,0.138,0.126,0.313,0.111,0.47c0.065,0,0.135-0.003,0.198-0.006c-0.025-0.187-0.048-0.379,0.091-0.518
	c0.19-0.193,0.538-0.12,0.792-0.097c0.054,0.004,0.097,0.009,0.12,0.009l0.077-0.006c0.07-0.005,0.158-0.012,0.238-0.012
	c0.478,0,0.515,0.29,0.515,0.379c0,0.088-0.006,0.165-0.012,0.232c0.036,0.002,0.089,0.006,0.151,0.011
	c0.079,0.007,0.176,0.015,0.267,0.02c-0.022-0.203-0.038-0.378,0.082-0.513c0.057-0.063,0.163-0.111,0.249-0.111h0.896
	c0.147,0,0.332,0.018,0.46,0.157c0.128,0.139,0.122,0.305,0.109,0.456c0.131,0.021,0.324,0.025,0.39,0.01
	c-0.002-0.031-0.004-0.059-0.005-0.083c-0.008-0.123-0.019-0.275,0.102-0.403c0.118-0.126,0.282-0.136,0.427-0.136h0.979
	c0.085,0,0.187,0.045,0.243,0.108c0.118,0.131,0.104,0.309,0.083,0.515c0.091-0.004,0.187-0.012,0.266-0.019
	c0.057-0.005,0.105-0.009,0.141-0.011c-0.001-0.026-0.001-0.055-0.001-0.085c0.002-0.387,0.22-0.564,0.663-0.521
	c0.071,0.007,0.09,0.019,0.289,0.002c0.251-0.023,0.597-0.096,0.792,0.095c0.141,0.143,0.116,0.338,0.091,0.527
	c0.058,0.005,0.12,0.011,0.18,0.014c-0.031-0.143-0.06-0.324,0.061-0.476c0.045-0.056,0.147-0.15,0.334-0.15
	c0.071,0,0.166-0.01,0.272-0.02c0.154-0.015,0.327-0.03,0.486-0.03c0.704,0,0.809,0.35,0.809,0.559v0.084h0.063
	c0.028,0,0.052,0,0.072-0.001c0-0.001,0-0.003-0.001-0.005c-0.003-0.063-0.006-0.138-0.006-0.226c0-0.171,0-0.405,1.215-0.405
	c0.292,0,0.431,0.034,0.528,0.13c0.128,0.132,0.114,0.306,0.093,0.506h0.737c0.214,0,0.345,0.096,0.417,0.176
	c0.216,0.24,0.175,0.623,0.139,0.96c0,0.002,0,0.004,0,0.005c0.018-0.001,0.035-0.001,0.038-0.001h15.678
	c0.065,0,0.146,0.006,0.233,0.014c0.162,0.014,0.355,0.006,0.361,0.004c0.334-0.124,0.772-0.619,1.093-0.981
	c0.105-0.12,0.205-0.231,0.295-0.326c0.041-0.043,0.104-0.099,0.176-0.161c0.095-0.083,0.315-0.275,0.349-0.355l0.01-0.232
	c0.012-0.243,0.023-0.495,0.08-0.74c0.216-0.93,0.768-1.463,1.513-1.463c0.14,0,0.319-0.062,0.493-0.121
	c0.094-0.032,0.185-0.063,0.271-0.087c0.375-0.094,1.019,0.625,1.025,0.631c0.386,0.451,0.68,1.121,0.874,1.993
	c0.64,0.996,1.021,2.713,1.021,3.822v1.106c0.012,0.056,0.135,0.29,0.201,0.416c0.04,0.076,0.078,0.15,0.109,0.214
	c0.163,0.011,0.724-0.001,1.089-0.017c0.163-0.007,0.258-0.019,0.359-0.012c0.13,0,0.254-0.009,0.395-0.019
	c0.202-0.015,0.435-0.031,0.66-0.031c0.285,0,1.043,0,1.209,0.551c0.033,0.11,0.073,0.225,0.114,0.342
	c0.217,0.619,0.486,1.388-0.063,1.996c-0.449,0.491-1.178,0.562-1.765,0.619l-0.276,0.029c-0.225,0.027-0.415,0.07-0.594,0.11
	c-0.347,0.078-0.695,0.147-1.091,0.096c-0.096,0.427-0.21,0.638-0.646,1.04c-0.184,0.17-0.334,0.232-0.435,0.274
	c-0.03,0.001-0.042,0.049-0.043,0.266c0,0.484-0.094,1.105-0.539,1.307c-0.145,0.065-0.365,0.097-0.678,0.097
	c-0.318,0-0.701-0.035-0.909-0.084c-0.083-0.019-0.206-0.06-0.349-0.107c-0.244-0.081-0.613-0.204-0.804-0.204
	c-0.422,0.223-0.755,0.38-1.25,0.573c-0.497,0.194-0.459,0.846-0.356,1.678c0.024,0.199,0.047,0.385,0.053,0.544
	c0.051,1.345,0.034,2.715,0.017,4.04c-0.008,0.669-0.017,1.338-0.017,2.005c0,0.917-0.108,1.801-0.271,2.848
	c-0.049,0.312-0.143,0.596-0.233,0.87c-0.034,0.106-0.069,0.212-0.103,0.321l-0.046,0.159c-0.128,0.454-0.24,0.736-0.888,0.808
	c-0.271,0.03-0.576,0.056-0.886,0.056c-1.698,0-2.167-0.828-2.261-1.521c-0.029-0.216-0.061-0.413-0.089-0.599
	c-0.097-0.618-0.18-1.151-0.128-1.895c0.142-2.112,0.284-4.227,0.421-6.34c0.007-0.086,0.048-0.327,0.102-0.628
	c0.071-0.394,0.226-1.26,0.231-1.58c-0.334-0.176-0.591-0.443-0.841-0.702c-0.323-0.334-0.628-0.65-1.063-0.726
	c-0.184-0.033-0.38-0.018-0.571-0.005c-0.17,0.011-0.335,0.02-0.493,0.009c-0.441-0.03-0.79-0.014-1.218,0.072
	c-0.535,0.107-1.291,0.093-2.025,0.053c-0.303-0.017-0.602-0.033-0.885-0.033c-0.086,0-0.167-0.036-0.224-0.1
	c-0.058-0.064-0.084-0.149-0.074-0.234l0.023-0.201c0.018-0.142,0.034-0.281,0.047-0.417c-0.505,0.289-1.021,0.562-1.599,0.793
	c-0.332,0.133-0.704,0.192-1.206,0.192c-0.194,0-0.391-0.009-0.584-0.018c-0.052-0.002-0.104-0.004-0.155-0.006
	c0.172,0.751,0.346,1.525,0.463,2.302c0.009,0.066,0.039,0.184,0.074,0.327c0.201,0.823,0.261,1.204,0.106,1.428
	c-0.063,0.088-0.07,0.091-0.472,0.234c-0.11,0.04-0.217,0.077-0.249,0.091c0,0,0.001,0,0.001,0c0.015,0,0.043,0.086,0.061,0.144
	c0.023,0.072,0.047,0.148,0.064,0.228c0.173,0.798,0.353,1.593,0.531,2.388c0.281,1.244,0.561,2.487,0.817,3.738
	c0.276,1.344,0.601,2.706,0.913,4.023c0.138,0.583,0.276,1.166,0.411,1.748c0.022,0.094,0.09,0.382-0.07,0.603
	c-0.158,0.217-0.416,0.237-0.666,0.258c-0.073,0.006-0.15,0.012-0.231,0.023l-1.277,0.182c-0.425,0.061-0.852,0.097-1.279,0.133
	c-0.461,0.039-0.937,0.08-1.398,0.152c-0.045,0.007-0.105,0.022-0.173,0.038C65.368,36.246,65.144,36.3,64.94,36.3z M64.917,35.698
	C64.93,35.699,64.94,35.7,64.94,35.7c0.132,0,0.318-0.045,0.469-0.081c0.087-0.021,0.163-0.039,0.22-0.047
	c0.482-0.076,0.97-0.117,1.44-0.157c0.416-0.036,0.832-0.071,1.245-0.129l1.276-0.182c0.094-0.014,0.185-0.021,0.269-0.028
	c0.074-0.006,0.17-0.014,0.223-0.026c-0.006-0.016-0.01-0.049-0.021-0.1c-0.135-0.583-0.273-1.164-0.411-1.746
	c-0.313-1.321-0.638-2.688-0.917-4.041c-0.256-1.247-0.535-2.487-0.814-3.727c-0.18-0.797-0.359-1.594-0.532-2.393
	c-0.014-0.06-0.032-0.118-0.05-0.173c-0.064-0.201-0.198-0.621,0.239-0.861c0.028-0.014,0.169-0.067,0.317-0.12
	c0.063-0.022,0.127-0.045,0.18-0.064c-0.021-0.176-0.141-0.667-0.195-0.89c-0.041-0.167-0.074-0.307-0.085-0.381
	c-0.121-0.805-0.309-1.62-0.489-2.408l-0.051-0.225c-0.021-0.089,0-0.183,0.058-0.254c0.057-0.071,0.143-0.113,0.234-0.113
	c0.183,0,0.371,0.008,0.561,0.017c0.186,0.008,0.372,0.017,0.558,0.017c0.422,0,0.726-0.046,0.983-0.149
	c0.719-0.288,1.351-0.651,1.987-1.029c0.093-0.055,0.204-0.056,0.297-0.005c0.094,0.051,0.152,0.147,0.156,0.253
	c0.011,0.307-0.02,0.608-0.055,0.902c0.19,0.006,0.385,0.017,0.581,0.028c0.68,0.037,1.395,0.052,1.875-0.042
	c0.48-0.096,0.881-0.116,1.376-0.082c0.13,0.008,0.271,0,0.414-0.01c0.238-0.015,0.48-0.027,0.713,0.014
	c0.627,0.109,1.032,0.529,1.391,0.899c0.253,0.262,0.491,0.509,0.782,0.632c0.303,0.129,0.301,0.414-0.014,2.172
	c-0.048,0.271-0.088,0.486-0.094,0.562c-0.136,2.113-0.278,4.229-0.422,6.341c-0.047,0.676,0.028,1.155,0.123,1.761
	c0.029,0.19,0.061,0.391,0.09,0.611c0.059,0.43,0.295,1.002,1.667,1.002c0.287,0,0.57-0.024,0.819-0.052
	c0.279-0.031,0.279-0.031,0.377-0.375l0.049-0.167c0.034-0.114,0.071-0.226,0.107-0.337c0.087-0.263,0.169-0.512,0.209-0.774
	c0.159-1.02,0.265-1.878,0.265-2.756c0-0.669,0.008-1.341,0.017-2.013c0.017-1.318,0.034-2.68-0.017-4.01
	c-0.006-0.144-0.026-0.313-0.049-0.494c-0.095-0.769-0.236-1.932,0.733-2.31c0.466-0.182,0.777-0.329,1.15-0.541
	c0.283-0.162,0.858,0.01,1.312,0.161c0.12,0.04,0.226,0.076,0.296,0.092c0.144,0.033,0.472,0.068,0.772,0.068
	c0.331,0,0.427-0.042,0.431-0.043c0.071-0.033,0.187-0.269,0.187-0.761c0-0.504,0.093-0.688,0.413-0.821
	c0.078-0.032,0.152-0.063,0.257-0.16c0.391-0.36,0.415-0.435,0.522-1.004c0.016-0.081,0.063-0.152,0.133-0.197
	c0.069-0.044,0.153-0.059,0.235-0.038c0.407,0.103,0.729,0.048,1.121-0.041c0.197-0.044,0.407-0.092,0.655-0.121l0.289-0.03
	c0.509-0.049,1.086-0.105,1.378-0.426c0.289-0.318,0.164-0.758-0.058-1.393c-0.045-0.126-0.088-0.25-0.123-0.368
	c-0.001-0.001-0.063-0.124-0.635-0.124c-0.211,0-0.428,0.016-0.617,0.029c-0.165,0.012-0.325,0.012-0.415,0.021
	c-0.097,0-0.214,0.005-0.356,0.011c-0.251,0.011-0.577,0.024-0.846,0.024c-0.367,0-0.685,0-0.771-0.265
	c-0.021-0.06-0.077-0.164-0.138-0.277c-0.168-0.32-0.27-0.526-0.27-0.695v-1.106c0-1.015-0.364-2.656-0.952-3.537
	c-0.021-0.031-0.035-0.066-0.043-0.103c-0.171-0.789-0.432-1.405-0.755-1.783c-0.076-0.088-0.356-0.337-0.49-0.42
	c-0.052,0.016-0.104,0.034-0.157,0.052c-0.21,0.072-0.448,0.153-0.688,0.153c-0.575,0-0.822,0.543-0.929,0.999
	c-0.044,0.192-0.055,0.417-0.065,0.633c-0.004,0.094-0.009,0.187-0.016,0.277c-0.019,0.255-0.249,0.475-0.547,0.734
	c-0.057,0.049-0.106,0.092-0.138,0.124c-0.084,0.088-0.178,0.195-0.278,0.308c-0.402,0.455-0.858,0.97-1.333,1.146
	c-0.154,0.057-0.393,0.051-0.623,0.031c-0.067-0.006-0.13-0.012-0.181-0.012H65.075c-0.088,0.006-0.152,0.01-0.212,0.01
	c-0.415,0-0.447-0.262-0.447-0.342c0-0.096,0.012-0.213,0.024-0.336c0.016-0.139,0.047-0.429,0.006-0.502l-0.979,0.03
	c-0.085,0-0.188-0.046-0.244-0.109c-0.121-0.134-0.103-0.316-0.079-0.527c-0.213,0.003-0.457,0.019-0.629,0.041
	c0.007,0.156,0.005,0.314-0.118,0.443c-0.135,0.141-0.331,0.152-0.555,0.152l-0.113,0c-0.145,0-0.308,0-0.432-0.125
	c-0.123-0.125-0.121-0.278-0.119-0.456V6.997c-0.081-0.021-0.396-0.014-0.639,0.009c-0.04,0.004-0.079,0.007-0.116,0.011
	c0.032,0.153,0.059,0.369-0.106,0.523c-0.215,0.195-0.539,0.117-0.794,0.092c-0.063-0.006-0.114-0.012-0.144-0.012
	c-0.087,0-0.204-0.053-0.262-0.118c-0.12-0.138-0.104-0.322-0.08-0.504c-0.08,0.004-0.163,0.011-0.231,0.018
	c-0.077,0.007-0.14,0.011-0.171,0.011c-0.082,0-0.159-0.007-0.229-0.014l0.001,0.067c0.006,0.132,0.013,0.281-0.106,0.406
	c-0.127,0.134-0.311,0.134-0.458,0.134c-0.024,0-0.071,0.005-0.129,0.01c-0.293,0.026-0.661,0.08-0.833-0.105
	c-0.118-0.126-0.105-0.29-0.084-0.497h-0.629c0.002,0.03,0.002,0.056,0.002,0.085c0,0.122-0.047,0.504-0.631,0.547h8.493
	c0.166,0,0.3,0.134,0.3,0.3c0,0.079,0.007,0.145,0.012,0.2c0.014,0.139,0.029,0.312-0.099,0.453
	c-0.119,0.131-0.289,0.149-0.439,0.149H45.714c-0.088,0-0.223-0.061-0.28-0.128c-0.143-0.167-0.104-0.407-0.072-0.599l0.013-0.002
	c-0.006-0.023-0.009-0.047-0.009-0.072c0-0.166,0.134-0.3,0.3-0.3h9.616c-0.316-0.017-0.715-0.099-0.715-0.4
	c0-0.087,0.006-0.165,0.012-0.232h-0.594c0.022,0.199,0.037,0.37-0.087,0.5c-0.172,0.182-0.539,0.129-0.832,0.103
	c-0.058-0.005-0.104-0.009-0.129-0.01c-0.148,0-0.335-0.018-0.463-0.157c-0.126-0.137-0.122-0.301-0.11-0.449
	c-0.036,0.001-0.065,0.004-0.091,0.006c-0.112,0.01-0.149,0.009-0.299-0.004c-0.067-0.006-0.15-0.014-0.229-0.018
	c0.025,0.18,0.042,0.363-0.078,0.502c-0.058,0.065-0.178,0.119-0.265,0.119l-0.116,0.006c-0.098,0.006-0.225,0.013-0.343,0.013
	c-0.152,0-0.618,0-0.618-0.38c0-0.058,0.007-0.125,0.015-0.194c0.002-0.011,0.003-0.024,0.005-0.038h-0.623
	c0.001,0.014,0.002,0.026,0.004,0.038c0.008,0.07,0.015,0.138,0.014,0.196c0,0.249-0.202,0.377-0.6,0.377
	c-0.111,0-0.23-0.007-0.323-0.013L48.708,7.62c-0.177,0-0.284-0.079-0.343-0.145c-0.119-0.134-0.127-0.3-0.114-0.451
	c-0.184-0.022-0.472-0.037-0.659-0.041c0.028,0.161,0.056,0.354-0.069,0.504c-0.058,0.068-0.204,0.133-0.293,0.133h-0.768
	c-0.07,0-0.203-0.011-0.365-0.026c-0.294-0.027-0.743-0.056-0.913-0.042c0,0.139,0.019,0.353,0.027,0.449
	c0.008,0.097,0.014,0.175,0.014,0.213c0,0.254-0.204,0.562-0.458,0.562c-0.165,0-0.323-0.171-0.323-0.337V6.722
	c0-0.387-0.107-0.452-0.591-0.414c-0.247,0.018-0.498,0.016-0.659-0.065L43.05,6.166c-0.12-0.066-0.244-0.135-0.338-0.143
	c-0.001,0-0.001,0-0.001,0c-0.029,0-0.082,0.015-0.129,0.028c-0.085,0.024-0.19,0.054-0.309,0.054c-0.014,0-0.076-0.004-0.089-0.006
	l-0.912-0.122c-0.357-0.048-0.69,0.002-1.059,0.056l-0.229,0.033c-0.459,0.061-0.865,0.563-1.259,1.05
	c-0.185,0.229-0.359,0.445-0.544,0.622C38.097,7.82,38,7.931,37.897,8.048C37.59,8.4,37.24,8.799,36.851,8.91
	c-0.223,0.063-0.45,0.109-0.677,0.153c-0.176,0.035-0.351,0.069-0.523,0.113L35.519,9.21c-0.937,0.239-1.676,0.427-2.431,0.967
	c-0.84,0.598-1.654,0.886-2.697,1.155c-0.203,0.053-0.426,0.127-0.657,0.205c-0.546,0.182-1.11,0.371-1.625,0.371h-6.104
	c-1.371,0-2.743-0.008-4.115-0.017c-2.782-0.017-5.567-0.034-8.35,0.02c-1.041,0.02-2.081,0.04-3.119,0.065L6.117,11.98
	c-0.632,0.006-1.347,0.014-1.647,0.343c-0.135,0.147-0.188,0.364-0.164,0.665c0.065,0.823,0.097,1.658,0.126,2.465
	c0.043,1.167,0.087,2.374,0.238,3.543c0.175,1.379,0.134,2.833,0.095,4.239C4.747,23.834,4.73,24.429,4.73,25.01
	c0,0.091,0,0.332,0.458,0.513c0.316,0.125,0.777,0.191,1.333,0.191c0.774,0,1.616-0.133,1.983-0.262l20.412-7.226
	c0.303-0.107,0.608-0.227,0.916-0.347c0.845-0.33,1.719-0.67,2.622-0.799c0.455-0.065,0.951-0.099,1.473-0.099
	c1.457,0,2.941,0.249,4.338,0.503c0.991,0.18,2.463,0.626,3.344,1.292c0.684,0.512,1.414,2.28,0.929,3.117l-0.408,0.703
	c-0.935,1.608-1.9,3.271-2.781,4.944c-0.113,0.214-0.235,0.429-0.357,0.645c-0.327,0.576-0.666,1.171-0.832,1.781
	c0.041,0.078,0.357,0.426,2.045,1.321c0.113,0.06,0.197,0.105,0.241,0.131l0.255,0.149c0.752,0.439,1.463,0.854,2.23,1.206
	c0.251,0.115,0.938,0.194,1.113,0.041c0.052-0.085,0.024-0.355-0.002-0.615c-0.022-0.223-0.046-0.453-0.006-0.672
	c0.137-0.751,0.54-1.664,1.199-2.712c0.294-0.467,0.586-0.935,0.87-1.409c0.122-0.208,0.431-0.232,0.605-0.187h0.001
	c0.017,0,0.094-0.09,0.163-0.171c-0.108-0.165-0.188-0.383-0.262-0.586c-0.027-0.075-0.051-0.142-0.07-0.185
	c-0.208-0.45,0.192-1.062,0.621-1.649l0.104-0.146c0.183-0.267,0.401-0.323,0.553-0.323c0.262,0,0.491,0.161,0.713,0.317
	c0.085,0.06,0.172,0.121,0.261,0.171c0.191,0.109,0.412,0.184,0.646,0.262c0.095,0.032,0.189,0.064,0.281,0.098
	c0.709,0.262,1.569,0.389,2.632,0.389c0.404,0,0.805-0.018,1.189-0.044c1.115-0.076,2.046-0.15,3.01-0.351
	c0.247-0.051,0.446-0.371,0.658-0.709c0.266-0.425,0.566-0.906,1.096-1.07c0.699-0.216,1.451-0.246,2.159-0.246l0.873,0.005
	c0.718,0,0.813,0.58,0.875,0.964c0.017,0.101,0.033,0.207,0.06,0.313c0.081,0.339,0.153,0.682,0.227,1.023l0.089,0.416
	c0.229,1.035,0.478,2.065,0.727,3.095c0.181,0.75,0.361,1.5,0.534,2.251L64.917,35.698z M51.198,23.643
	c-0.645,0-2.606,0-2.606-1.364c0-1.686,1.917-1.686,2.548-1.686c0.344,0,0.687,0.02,0.996,0.037c0.475,0.027,0.81,0.028,1.184,0.01
	c0.398-0.017,0.806-0.034,1.179,0.02c0.396,0.057,1.144,0.297,1.438,0.842c0.109,0.202,0.199,0.529,0.005,0.943
	c-0.256,0.55-0.604,1.137-1.494,1.137h-1.658c-0.118,0-0.287,0.01-0.489,0.021C51.986,23.621,51.6,23.643,51.198,23.643z
	 M51.14,21.192c-1.717,0-1.948,0.549-1.948,1.086c0,0.507,0.676,0.764,2.007,0.764c0.389,0,0.764-0.021,1.067-0.039
	c0.215-0.012,0.396-0.022,0.522-0.022h1.658c0.498,0,0.696-0.244,0.95-0.792c0.096-0.204,0.053-0.329,0.012-0.404
	c-0.148-0.275-0.623-0.48-0.995-0.533c-0.338-0.048-0.708-0.03-1.066-0.014c-0.396,0.016-0.749,0.018-1.244-0.011
	C51.803,21.211,51.472,21.192,51.14,21.192z M10.55,22.274L10.55,22.274c-0.14,0-0.277-0.011-0.411-0.035l-0.319-0.053
	c-0.628-0.102-1.278-0.207-1.852-0.62c-0.342-0.248-0.313-0.821-0.289-1.282c0.006-0.107,0.012-0.203,0.009-0.274
	c-0.035-0.874-0.092-1.746-0.148-2.619c-0.069-1.069-0.142-2.174-0.172-3.267c-0.003-0.085,0.031-0.167,0.094-0.226
	c0.062-0.059,0.144-0.094,0.23-0.081l1.096,0.091c1.516,0.189,2.967,0.473,4.449,0.868l0.472,0.127
	c0.781,0.212,1.521,0.413,2.297,0.524c0.752,0.107,0.874,0.404,1.024,0.919c0.028,0.098,0.062,0.209,0.104,0.336
	c0.158,0.458,0.247,0.889,0.348,1.404c0.274,1.411-0.643,1.864-1.612,2.342c-0.918,0.452-1.824,0.829-2.813,1.174
	c-0.135,0.047-0.275,0.1-0.421,0.154C11.987,22,11.252,22.274,10.55,22.274z M7.978,14.442c0.034,0.973,0.098,1.956,0.16,2.909
	c0.057,0.877,0.113,1.755,0.149,2.635c0.003,0.086-0.002,0.2-0.009,0.328c-0.01,0.184-0.034,0.672,0.048,0.772
	c0.451,0.324,1.004,0.413,1.589,0.508l0.327,0.055c0.101,0.018,0.203,0.025,0.308,0.025l0,0c0.595,0,1.275-0.254,1.877-0.478
	c0.148-0.056,0.293-0.109,0.432-0.158c0.966-0.337,1.85-0.706,2.703-1.125c1.065-0.525,1.51-0.788,1.33-1.71
	c-0.095-0.492-0.18-0.902-0.324-1.323c-0.048-0.137-0.083-0.257-0.113-0.363c-0.123-0.419-0.128-0.436-0.534-0.494
	c-0.813-0.117-1.604-0.332-2.369-0.539l-0.469-0.126c-1.456-0.389-2.881-0.667-4.356-0.852L7.978,14.442z M23.896,17.612
	L23.896,17.612c-0.245,0-0.491-0.015-0.719-0.028c-0.183-0.011-0.354-0.022-0.498-0.022c-0.45,0-0.967-0.071-1.379-0.602
	c-0.233-0.299-0.286-0.705-0.146-1.112c0.153-0.445,0.512-0.798,0.912-0.899c0.436-0.108,1.051-0.101,1.66-0.065
	c0.227,0.013,0.449,0.026,0.657,0.026c0.673,0,0.999,0.29,1.154,0.532c0.262,0.411,0.247,1.003-0.042,1.627
	c-0.015,0.032-0.035,0.061-0.06,0.085C25.028,17.565,24.362,17.612,23.896,17.612z M22.973,15.456c-0.311,0-0.553,0.024-0.761,0.076
	c-0.205,0.052-0.402,0.258-0.491,0.513c-0.034,0.101-0.099,0.354,0.053,0.548c0.209,0.27,0.455,0.37,0.905,0.37
	c0.155,0,0.338,0.011,0.535,0.022c0.216,0.013,0.449,0.028,0.682,0.028l0,0c0.528,0,0.883-0.081,1.079-0.248
	c0.175-0.402,0.197-0.782,0.058-1c-0.108-0.17-0.326-0.256-0.648-0.256c-0.22,0-0.453-0.013-0.691-0.027
	S23.211,15.456,22.973,15.456z"/>
<rect id="sliceCopy_x5F_40_1_" x="96.644" fill="none" width="82.738" height="40"/>
<rect id="sliceCopy_x5F_39_1_" fill="none" width="96.643" height="40"/>
</svg>
