<?xml version="1.0" encoding="utf-8"?>
<!-- Generator: Adobe Illustrator 15.1.0, SVG Export Plug-In  -->
<!DOCTYPE svg PUBLIC "-//W3C//DTD SVG 1.1//EN" "http://www.w3.org/Graphics/SVG/1.1/DTD/svg11.dtd" [
	<!ENTITY ns_flows "http://ns.adobe.com/Flows/1.0/">
]>
<svg version="1.1"
	 xmlns="http://www.w3.org/2000/svg" xmlns:xlink="http://www.w3.org/1999/xlink" xmlns:a="http://ns.adobe.com/AdobeSVGViewerExtensions/3.0/"
	 x="0px" y="0px" width="53px" height="40px" viewBox="0.058 0 53 40" enable-background="new 0.058 0 53 40" xml:space="preserve">
<defs>
</defs>
<path d="M14.015,36.3c-0.146,0-0.282-0.013-0.417-0.041l-3.589-0.751c-0.647-0.136-1.297-0.31-1.925-0.478
	c-0.302-0.081-0.603-0.162-0.904-0.239c-0.161-0.041-0.335-0.079-0.515-0.119c-1.101-0.242-2.47-0.544-2.813-1.837
	c-0.389-1.232,0.033-2.744,0.404-4.077c0.091-0.325,0.179-0.638,0.248-0.93l0.324-1.349c0.24-1.001,0.48-2.003,0.728-3.003
	c0.283-1.149,0.615-2.304,0.937-3.421c0.401-1.395,0.816-2.836,1.134-4.264c0.045-0.73-0.554-1.219-1.188-1.737
	c-0.361-0.295-0.735-0.601-0.993-0.971C4.97,12.402,5.042,11.258,5.1,10.339c0.017-0.26,0.032-0.5,0.032-0.7
	c0-0.263-0.013-0.546-0.025-0.837C5.068,7.934,5.025,6.95,5.298,6.145c0.285-0.846,1.139-1.497,1.825-2.02
	c0.133-0.101,0.261-0.199,0.379-0.293c0.065-0.053,0.153-0.074,0.23-0.063c0.143,0.021,0.343,0.031,0.569,0.044
	c0.79,0.044,1.764,0.099,2.192,0.554c0.567,0.216,1.303,0.367,2.244,0.46c0.739,0.073,1.486,0.106,2.21,0.138
	c0.979,0.043,1.992,0.087,3.007,0.233c0.104,0.015,0.193,0.084,0.233,0.181l0.133,0.317c1.023-0.227,2.03-0.26,2.892-0.26
	c0.406,0,0.814,0.008,1.223,0.017c0.758,0.015,1.516,0.017,2.27,0.005c0.352-0.006,0.702-0.012,1.052-0.012
	c0.798,0,1.722,0.027,2.666,0.213c0.003-0.041,0.009-0.082,0.016-0.124c0.077-0.529,0.788-0.662,1.021-0.706
	c0.036-0.006,0.073-0.007,0.107,0l0.606,0.107c0.072-0.112,0.162-0.273,0.234-0.402c0.264-0.475,0.412-0.727,0.624-0.799
	c0.025-0.008,0.052-0.014,0.078-0.015c1.251-0.079,1.809,0.049,3.021,0.478c0.116,0.041,0.249,0.096,0.388,0.154
	c0.308,0.128,0.691,0.288,0.941,0.29c0.156,0,0.324-0.049,0.502-0.102c0.21-0.062,0.448-0.132,0.708-0.132l0.098,0.003
	c0.768,0.05,1.554,0.247,2.314,0.438c0.366,0.092,0.729,0.183,1.085,0.255c0.636,0.13,1.135,0.397,1.682,0.758
	c0.21,0.056,0.499,0.063,0.758,0.063l0.382-0.002c0.112,0,0.219,0.001,0.317,0.007c0.052,0.003,0.104,0.02,0.147,0.049
	c0.18,0.118,0.305,0.278,0.367,0.47c0.94,0.26,1.753,0.513,2.635,0.979c0.647-0.171,1.021-0.054,1.642,0.166l0.375,0.156
	c0.118,0.05,0.191,0.17,0.182,0.298c-0.112,1.58-0.361,3.177-0.601,4.722c-0.112,0.721-0.225,1.441-0.323,2.159
	c-0.275,1.184-1.694,1.517-2.73,1.76c-0.182,0.043-0.353,0.083-0.502,0.124c-0.223,0.061-0.467,0.143-0.721,0.227
	c-0.618,0.207-1.319,0.441-1.926,0.452c-0.177,0-0.393-0.004-0.663-0.01c-0.474-0.011-1.132-0.026-1.822-0.026
	c-2.375,0-2.961,0.19-3.1,0.268c0.003,0.086,0.01,0.198,0.019,0.325c0.065,1.035,0.094,2.086-0.354,2.563
	c-0.151,0.161-0.348,0.246-0.567,0.246c-0.018,0-0.077-0.003-0.095-0.006c-0.648-0.116-1.358-0.167-2.304-0.167
	c-0.379,0-0.759,0.008-1.138,0.015c-0.381,0.008-0.762,0.016-1.14,0.016l-1.358-0.005c-1.152,0-2.123,0.04-3.116,0.23
	c-0.084,0.017-0.167-0.003-0.233-0.052c-0.13-0.095-0.236-0.209-0.317-0.338c-0.404,0.482-0.818,0.718-1.256,0.718h-4.561
	c-0.411,0-0.633,0.556-0.879,1.283c-0.08,0.233-0.155,0.453-0.237,0.624c-0.664,1.383-1.01,2.816-1.376,4.333l-0.048,0.199
	c-0.653,2.69-0.983,4.93-0.615,7.776c0.002,0.531-0.291,0.813-0.802,0.813c-0.165,0-0.35-0.028-0.529-0.056
	c-0.139-0.022-0.274-0.045-0.389-0.045l-0.29,0.038C14.466,36.266,14.244,36.3,14.015,36.3z M7.777,4.379
	c-0.093,0.073-0.19,0.147-0.291,0.224c-0.653,0.498-1.394,1.062-1.62,1.734C5.63,7.036,5.669,7.92,5.706,8.776
	c0.013,0.3,0.025,0.592,0.025,0.863c0,0.211-0.016,0.464-0.033,0.737c-0.052,0.826-0.116,1.853,0.239,2.362
	c0.21,0.302,0.536,0.568,0.881,0.85c0.69,0.563,1.473,1.202,1.401,2.287c-0.329,1.491-0.746,2.942-1.149,4.345
	c-0.32,1.111-0.65,2.26-0.932,3.398c-0.246,0.999-0.486,2-0.726,3l-0.324,1.349c-0.072,0.298-0.161,0.618-0.254,0.951
	c-0.349,1.253-0.745,2.673-0.406,3.75c0.253,0.953,1.375,1.2,2.365,1.418c0.187,0.041,0.367,0.081,0.534,0.124
	c0.304,0.077,0.607,0.159,0.911,0.24c0.62,0.166,1.261,0.338,1.893,0.471l3.588,0.751c0.266,0.054,0.565,0.016,0.868-0.032
	l0.236-0.035c0.173-0.025,0.395,0.006,0.629,0.043c0.148,0.023,0.3,0.049,0.436,0.049c0.204,0,0.204-0.037,0.204-0.174
	c-0.377-2.89-0.021-5.276,0.629-7.957l0.049-0.198c0.374-1.548,0.727-3.011,1.418-4.452c0.073-0.153,0.139-0.349,0.21-0.558
	c0.242-0.713,0.573-1.689,1.447-1.689h4.561c0.432,0,0.852-0.525,1.127-0.965c0.073-0.118,0.216-0.169,0.35-0.125
	c0.131,0.044,0.215,0.173,0.203,0.311c-0.015,0.162,0.042,0.315,0.157,0.436c0.988-0.177,1.954-0.214,3.086-0.214l1.358,0.005
	c0.374,0,0.75-0.008,1.128-0.016c0.383-0.008,0.767-0.016,1.149-0.016c0.981,0,1.725,0.054,2.409,0.176
	c0.044-0.003,0.081-0.02,0.119-0.06c0.307-0.327,0.229-1.534,0.191-2.114c-0.012-0.182-0.021-0.333-0.021-0.435
	c0-0.504,0.605-0.797,3.701-0.797c0.695,0,1.359,0.016,1.836,0.026c0.264,0.006,0.47,0.011,0.591,0.011
	c0.562-0.01,1.217-0.228,1.795-0.421c0.265-0.088,0.52-0.173,0.751-0.237c0.156-0.043,0.334-0.085,0.524-0.129
	c0.883-0.207,2.093-0.491,2.278-1.285c0.094-0.694,0.206-1.417,0.318-2.141c0.228-1.463,0.463-2.974,0.58-4.46l-0.126-0.053
	c-0.64-0.224-0.834-0.295-1.409-0.127c-0.078,0.022-0.159,0.013-0.229-0.024c-0.922-0.502-1.773-0.755-2.791-1.033
	c-0.122-0.034-0.21-0.14-0.22-0.266c-0.007-0.079-0.032-0.138-0.084-0.188c-0.062-0.001-0.126-0.002-0.192-0.002l-0.382,0.001
	c-0.336,0-0.687-0.012-0.974-0.101c-0.027-0.009-0.054-0.021-0.077-0.037c-0.519-0.345-0.952-0.582-1.51-0.695
	c-0.363-0.074-0.734-0.167-1.109-0.261c-0.734-0.184-1.494-0.374-2.209-0.421c-0.207,0.012-0.408,0.051-0.597,0.105
	c-0.211,0.062-0.428,0.125-0.668,0.125c-0.375-0.002-0.8-0.179-1.175-0.335c-0.128-0.054-0.25-0.104-0.357-0.143
	c-1.063-0.376-1.579-0.514-2.712-0.448c-0.039,0.066-0.192,0.342-0.287,0.511c-0.154,0.278-0.288,0.519-0.418,0.649
	c-0.069,0.069-0.175,0.1-0.265,0.083l-0.73-0.129c-0.426,0.087-0.487,0.199-0.487,0.2c-0.021,0.124-0.015,0.216,0.018,0.28
	c0.053,0.104,0.04,0.231-0.033,0.323c-0.073,0.092-0.197,0.131-0.307,0.104c-1.03-0.257-2.07-0.292-2.952-0.292
	c-0.346,0-0.693,0.006-1.042,0.012c-0.76,0.013-1.527,0.011-2.292-0.005c-0.404-0.008-0.808-0.017-1.21-0.017
	c-0.896,0-1.951,0.036-2.996,0.301c-0.148,0.033-0.294-0.038-0.351-0.175l-0.165-0.394c-0.93-0.124-1.869-0.165-2.779-0.204
	C14.19,5.533,13.435,5.5,12.68,5.424c-1.037-0.103-1.847-0.275-2.477-0.527c-0.051-0.02-0.096-0.054-0.129-0.098
	C9.852,4.501,8.821,4.444,8.269,4.413C8.084,4.402,7.916,4.393,7.777,4.379z M21.854,18.578L21.854,18.578
	c-0.217,0-0.434-0.007-0.646-0.014c-0.197-0.007-0.392-0.013-0.579-0.013c-0.601,0-0.944-0.361-0.944-0.99v-1.843
	c0-0.591,0.353-0.944,0.944-0.944h3.27c0.41,0,0.716,0.201,0.858,0.567c0.306,0.781-0.228,2.227-0.608,2.579
	C23.47,18.5,22.608,18.578,21.854,18.578z M20.629,15.373c-0.264,0-0.345,0.081-0.345,0.345v1.843c0,0.33,0.116,0.391,0.345,0.391
	c0.193,0,0.395,0.006,0.599,0.013c0.206,0.007,0.417,0.014,0.627,0.014l0,0c0.645,0,1.373-0.06,1.896-0.507
	c0.18-0.165,0.659-1.37,0.448-1.912c-0.044-0.111-0.111-0.186-0.3-0.186H20.629z"/>
<rect id="sliceCopy_x5F_34_1_" x="52.354" fill="none" width="83.251" height="40"/>
<rect id="sliceCopy_x5F_33_1_" fill="none" width="52.354" height="40"/>
</svg>
