<?xml version="1.0" encoding="utf-8"?>
<!-- Generator: Adobe Illustrator 15.1.0, SVG Export Plug-In  -->
<!DOCTYPE svg PUBLIC "-//W3C//DTD SVG 1.1//EN" "http://www.w3.org/Graphics/SVG/1.1/DTD/svg11.dtd" [
	<!ENTITY ns_flows "http://ns.adobe.com/Flows/1.0/">
]>
<svg version="1.1"
	 xmlns="http://www.w3.org/2000/svg" xmlns:xlink="http://www.w3.org/1999/xlink" xmlns:a="http://ns.adobe.com/AdobeSVGViewerExtensions/3.0/"
	 x="0px" y="0px" width="88px" height="40px" viewBox="0.77 0 88 40" enable-background="new 0.77 0 88 40" xml:space="preserve">
<defs>
</defs>
<path d="M40.75,29.257c-0.076,0-0.152-0.004-0.224-0.012c-1.578-0.204-2.674-1.48-2.674-3.105c0-0.236,0.005-0.474,0.011-0.713
	c0.013-0.564,0.027-1.147-0.039-1.695c-0.031-0.265-0.119-0.307-0.316-0.307c-0.151,0-0.341,0.037-0.524,0.073
	c-0.108,0.021-0.216,0.042-0.319,0.058l-3.008,0.439c-0.854,0.125-1.731,0.169-2.579,0.212c-0.34,0.017-0.679,0.035-1.016,0.057
	c-0.515,0.034-1.028,0.071-1.541,0.108c-2.402,0.172-4.885,0.35-7.351,0.23l-2.06-0.095c-2.522-0.113-5.129-0.23-7.688-0.472
	l-2.867-0.271c-0.881-0.081-1.285,0.572-1.765,1.34c-0.147,0.235-0.525,0.837-1.08,0.837c-0.228,0-0.446-0.099-0.647-0.294
	c-0.366-0.355-0.404-0.883-0.435-1.307l-0.013-0.165c-0.072-0.837-0.086-1.688-0.094-2.491c-0.062-0.127-0.161-0.239-0.273-0.366
	c-0.171-0.193-0.365-0.413-0.456-0.734c-0.259-0.921,0.016-1.943,0.684-2.544c0.108-0.098,0.094-0.506,0.086-0.75
	c-0.004-0.127-0.008-0.247-0.003-0.348c0.018-0.42,0.042-0.841,0.081-1.262l0.012-0.129c0.032-0.381,0.072-0.856,0.404-1.197
	c0.201-0.206,0.419-0.311,0.648-0.311c0.535,0,0.898,0.562,1.139,0.934c0.577,0.895,1.021,1.334,1.843,1.255l3-0.284
	c2.454-0.231,4.956-0.35,7.375-0.465c0.778-0.037,1.557-0.074,2.334-0.115c2.378-0.125,4.778,0.055,7.099,0.228
	c0.607,0.045,1.215,0.091,1.824,0.131c0.296,0.02,0.593,0.036,0.891,0.053c0.859,0.048,1.747,0.098,2.617,0.225l3.896,0.569
	c0.054-0.03,0.089-0.174,0.116-0.423c0-0.001,0.008-0.073,0.008-0.075c0.063-0.5,0.042-1.045,0.022-1.573
	c-0.01-0.268-0.02-0.533-0.02-0.792c0-1.493,1.387-3.185,3.136-2.947c0.433,0.058,0.741,0.315,0.824,0.69
	c0.092,0.415-0.113,0.864-0.511,1.117c-0.158,0.1-0.318,0.154-0.46,0.201c-0.276,0.092-0.366,0.131-0.413,0.335
	c-0.142,0.63,0.153,1.531,0.508,2.003c0.015,0.018,0.065,0.059,0.11,0.095c0.106,0.085,0.238,0.191,0.304,0.345
	c0.081,0.186,0.058,0.428,0.038,0.643c-0.004,0.038-0.007,0.074-0.01,0.107c0.084,0.014,0.328,0.001,0.508-0.016
	c0.114-0.011,0.218-0.021,0.296-0.021h8.225c2.376,0,4.796,0.217,7.137,0.427c0.614,0.055,1.227,0.11,1.837,0.162
	c2.404,0.202,4.856,0.304,7.227,0.402l6.951,0.304c0.132,0.006,0.265,0.009,0.398,0.009c0,0,0,0,0,0
	c0.663,0,1.352-0.067,2.018-0.132c0.357-0.035,0.713-0.07,1.065-0.095l4.463-0.319c0.538-0.038,1.086-0.117,1.617-0.192
	c0.281-0.041,0.562-0.081,0.843-0.116c0.126-0.015,0.24,0.045,0.299,0.152c0.06,0.107,0.048,0.239-0.029,0.334l-0.426,0.529
	c-1.347,1.677-2.74,3.412-4.513,4.734c-1.224,0.914-2.744,1.633-4.784,2.264c-0.992,0.307-2.053,0.615-3.167,0.708
	c-0.875,0.074-1.754,0.166-2.636,0.259c-1.98,0.208-4.027,0.422-6.036,0.422H48.83c-0.034,0-0.092,0.005-0.162,0.01
	c-0.129,0.009-0.292,0.021-0.443,0.021c-0.28,0-0.448-0.039-0.562-0.129c-0.144-0.117-0.222-0.35-0.354-0.818
	c-0.032-0.115-0.06-0.215-0.081-0.267c-0.305-0.73-0.676-1.195-1.201-1.504c-1.333-0.788-3.363-0.297-4.545,1.002
	c-0.646,0.71-1.378,1.997-0.988,2.633c0.073,0.119,0.268,0.181,0.475,0.247c0.151,0.048,0.3,0.097,0.427,0.167
	c0.378,0.205,0.564,0.721,0.415,1.15C41.67,29.033,41.294,29.257,40.75,29.257z M37.509,22.824c0.524,0,0.848,0.297,0.912,0.836
	c0.071,0.59,0.056,1.195,0.042,1.78c-0.005,0.234-0.011,0.468-0.011,0.699c0,1.335,0.862,2.343,2.145,2.509
	c0.045,0.004,0.099,0.008,0.153,0.008c0.275,0,0.441-0.076,0.493-0.227c0.053-0.151-0.014-0.361-0.135-0.427
	c-0.095-0.052-0.208-0.086-0.322-0.122c-0.273-0.087-0.614-0.195-0.804-0.504c-0.634-1.033,0.413-2.643,1.055-3.35
	c0.896-0.985,2.232-1.598,3.486-1.598c0.659,0,1.268,0.163,1.809,0.482c0.635,0.375,1.096,0.944,1.45,1.791
	c0.027,0.065,0.063,0.19,0.104,0.333c0.037,0.132,0.109,0.386,0.16,0.5c0.082,0.013,0.386,0.004,0.579-0.009
	c0.089-0.006,0.162-0.011,0.205-0.011h13.842c1.977,0,4.008-0.213,5.973-0.419c0.886-0.093,1.77-0.185,2.648-0.259
	c1.054-0.088,2.08-0.387,3.04-0.684c1.973-0.61,3.436-1.3,4.603-2.171c1.693-1.263,3.049-2.942,4.358-4.573
	c-0.03,0.004-0.06,0.008-0.089,0.013c-0.541,0.078-1.1,0.158-1.66,0.197l-4.462,0.319c-0.347,0.024-0.697,0.059-1.049,0.093
	c-0.681,0.066-1.384,0.135-2.077,0.135c0,0,0,0,0,0c-0.142,0-0.284-0.003-0.424-0.009l-6.95-0.304
	c-2.377-0.099-4.835-0.202-7.251-0.404c-0.612-0.051-1.226-0.106-1.841-0.162c-2.328-0.209-4.734-0.425-7.083-0.425h-8.225
	c-0.063,0-0.146,0.009-0.238,0.018c-0.136,0.013-0.287,0.027-0.426,0.027c-0.671,0-0.743-0.377-0.743-0.54
	c0-0.063,0.007-0.145,0.015-0.233c0.01-0.102,0.028-0.292,0.008-0.35c-0.013-0.021-0.085-0.079-0.128-0.114
	c-0.072-0.058-0.147-0.118-0.208-0.195c-0.444-0.591-0.808-1.664-0.619-2.503c0.123-0.545,0.519-0.676,0.809-0.772
	c0.119-0.04,0.232-0.077,0.327-0.138c0.203-0.129,0.278-0.34,0.247-0.48c-0.035-0.156-0.191-0.209-0.317-0.226
	c-1.354-0.179-2.458,1.187-2.458,2.352c0,0.252,0.01,0.51,0.02,0.77c0.021,0.552,0.043,1.122-0.026,1.67
	c-0.036,0.327-0.11,1.024-0.705,1.024c-0.015,0-0.087-0.005-0.102-0.007l-3.896-0.569c-0.844-0.124-1.718-0.172-2.564-0.22
	c-0.299-0.017-0.599-0.033-0.897-0.053c-0.61-0.041-1.22-0.085-1.828-0.131c-2.303-0.171-4.677-0.349-7.023-0.227
	c-0.779,0.041-1.558,0.078-2.337,0.115c-2.413,0.115-4.908,0.233-7.348,0.463l-3,0.284c-1.24,0.108-1.86-0.685-2.39-1.506
	c-0.163-0.251-0.44-0.68-0.648-0.68c-0.077,0-0.161,0.07-0.219,0.129c-0.182,0.187-0.209,0.513-0.236,0.829L5.24,15.737
	c-0.039,0.41-0.062,0.821-0.079,1.231c-0.004,0.088,0,0.191,0.003,0.301c0.014,0.415,0.032,0.932-0.284,1.217
	c-0.495,0.445-0.704,1.241-0.508,1.935c0.054,0.19,0.181,0.334,0.329,0.5c0.143,0.162,0.304,0.344,0.402,0.588
	c0.014,0.035,0.021,0.071,0.021,0.108c0.008,0.81,0.021,1.67,0.093,2.506l0.014,0.173c0.024,0.339,0.052,0.724,0.254,0.919
	c0.085,0.083,0.163,0.125,0.229,0.125c0.083,0,0.265-0.068,0.548-0.52c0.53-0.849,1.1-1.783,2.353-1.656l2.867,0.271
	c2.544,0.241,5.144,0.358,7.659,0.471l2.062,0.095c2.435,0.117,4.893-0.058,7.278-0.229c0.514-0.037,1.028-0.074,1.544-0.108
	c0.34-0.022,0.682-0.04,1.024-0.057c0.834-0.042,1.696-0.086,2.522-0.207l3.008-0.439c0.094-0.014,0.191-0.033,0.29-0.052
	C37.081,22.867,37.299,22.824,37.509,22.824z"/>
<rect id="sliceCopy_x5F_12_1_" x="88" fill="none" width="88" height="40"/>
<rect id="sliceCopy_x5F_11_1_" fill="none" width="88" height="40"/>
</svg>
