<?xml version="1.0" encoding="utf-8"?>
<!-- Generator: Adobe Illustrator 15.1.0, SVG Export Plug-In  -->
<!DOCTYPE svg PUBLIC "-//W3C//DTD SVG 1.1//EN" "http://www.w3.org/Graphics/SVG/1.1/DTD/svg11.dtd" [
	<!ENTITY ns_flows "http://ns.adobe.com/Flows/1.0/">
]>
<svg version="1.1"
	 xmlns="http://www.w3.org/2000/svg" xmlns:xlink="http://www.w3.org/1999/xlink" xmlns:a="http://ns.adobe.com/AdobeSVGViewerExtensions/3.0/"
	 x="0px" y="0px" width="53px" height="40px" viewBox="0.618 0 53 40" enable-background="new 0.618 0 53 40" xml:space="preserve">
<defs>
</defs>
<path d="M27.844,36.3h-5.457c-0.081,0-0.175-0.041-0.231-0.099c-0.131-0.134-0.202-0.31-0.148-2.363l0.006-0.238v-4.244
	c0-0.486-0.034-0.486-0.451-0.486l-2.483,0.005c-0.564,0-0.82-0.41-1.026-0.739c-0.054-0.087-0.109-0.176-0.172-0.262
	c-0.159-0.213-0.072-0.542,0.079-1.018c0.022-0.07,0.041-0.128,0.049-0.162l0.876-3.901c0.312-1.398,0.622-2.796,0.959-4.187
	l0.063-0.244c0.107-0.411,0.133-0.508-0.058-0.858c-0.079-0.146-0.155-0.297-0.233-0.451c-0.258-0.506-0.523-1.03-0.895-1.402
	c-0.126-0.125-0.427-0.275-1.145-0.275c-0.448,0-0.936,0.057-1.327,0.103c-0.195,0.023-0.371,0.043-0.513,0.054
	c-0.238,0.018-0.388,0.16-0.633,0.411l-0.102,0.103c-0.146,0.146-0.308,0.221-0.482,0.221c-0.348,0-0.588-0.295-0.763-0.511
	c-0.042-0.052-0.105-0.129-0.132-0.15c0.002,0.004-0.042-0.012-0.186-0.012c-0.16,0-0.346,0.019-0.504,0.035
	c-0.136,0.014-0.254,0.024-0.329,0.024l-2.927-0.004c-0.05,0-0.099,0-0.145,0v3.197c0,0.491-1.482,0.639-1.497,0.639
	c-0.582,0-0.961-0.055-1.56-0.228c-0.186-0.053-0.404-0.057-0.637-0.061c-0.291-0.004-0.592-0.009-0.877-0.112
	c-0.5-0.181-0.909-0.746-1.072-1.051c-0.337-0.629-0.157-1.251,0.002-1.8c0.071-0.248,0.139-0.481,0.159-0.704
	c0.115-1.263,0.153-2.569,0.189-3.832c0.023-0.801,0.047-1.601,0.089-2.396l0.186-3.465c0.025-0.476,0.374-0.822,0.682-1.127
	c0.249-0.246,0.483-0.479,0.479-0.702C5.675,3.923,5.708,3.842,5.769,3.784c0.06-0.058,0.142-0.091,0.226-0.083
	c3.688,0.217,8.045,0.526,12.407,1.167l0.147,0.022c0.336,0.051,0.683,0.104,1.01,0.104c0.086,0,0.167,0.036,0.224,0.1
	c0.287,0.321,0.312,0.398,0.326,0.444c0.175,0.546-0.115,0.817-0.388,0.992c-0.081,0.052-0.164,0.099-0.248,0.14h12.876
	c0.021-0.111,0.029-0.287,0.035-0.384c0.005-0.107,0.012-0.202,0.021-0.263c0.021-0.128,0.028-0.235,0.035-0.327
	c0.028-0.4,0.101-0.712,0.747-0.788c0.443-0.052,0.966-0.104,1.481-0.104c0.502,0,0.924,0.049,1.289,0.149
	c0.479,0.13,0.708,0.624,0.874,0.984l0.061,0.129c0.036,0.079,0.078,0.169,0.096,0.191c-0.014-0.019,0.091-0.019,0.146-0.019h4.186
	c0.01-0.026,0.021-0.053,0.036-0.081c0.031-0.059,0.04-0.158,0.049-0.254c0.018-0.199,0.048-0.532,0.384-0.666
	c0.098-0.039,0.24-0.105,0.411-0.186c0.655-0.307,1.646-0.771,2.337-0.771c0.26,0,0.47,0.065,0.624,0.194
	c0.837,0.699,0.818,1.356,0.794,2.188c-0.004,0.148-0.009,0.305-0.009,0.474c0,0.097-0.009,0.224-0.02,0.368
	c-0.028,0.399-0.077,1.066,0.133,1.292c0.033,0.036,0.087,0.077,0.21,0.077l2.006,0c0.597,0,0.718,0.109,1.072,0.668
	c0.03,0.048,0.046,0.104,0.046,0.161c0,0.143,0.004,0.275,0.007,0.398c0.019,0.649,0.032,1.162-0.545,1.789
	c-0.191,0.208-0.53,0.304-1.066,0.304c-0.29,0-0.604-0.027-0.876-0.052c-0.584-0.053-0.777,0.009-0.797,0.031
	c-0.057,0.058-0.046,0.293-0.037,0.5c0.005,0.106,0.01,0.22,0.01,0.339c0,0.123,0.018,0.263,0.035,0.404
	c0.049,0.41,0.1,0.833-0.147,1.112c-0.088,0.099-0.251,0.216-0.533,0.216h-5.439c-0.072,0-0.12,0.005-0.151,0.01
	c0.008,0.056,0.027,0.139,0.043,0.205c0.031,0.129,0.065,0.275,0.082,0.434c0.041,0.37-0.203,0.56-0.335,0.662
	c-0.033,0.026-0.083,0.065-0.094,0.082c0.079,0.342,0.148,0.687,0.21,1.033c0.015,0.087-0.009,0.177-0.066,0.245
	c-0.057,0.068-0.141,0.107-0.229,0.107c-0.852,0-1.702-0.015-2.554-0.043c-0.149,0.191-0.467,0.779-0.664,1.146
	c-0.261,0.484-0.413,0.763-0.516,0.883l-0.105,0.123c-0.436,0.507-0.847,0.987-1.62,1.184c-0.31,0.079-0.629,0.089-0.9,0.089
	l-0.522-0.005l-0.13,0.001c-1.289,0.025-2.369-0.041-3.468-0.615v7.909c0,0.257-0.111,0.564-0.641,0.564
	c-0.075,0.001-0.135,0.001-0.165,0.003c-0.004,0.108,0.016,0.303,0.024,0.395s0.016,0.17,0.016,0.215v6.164
	c0,0.02,0.004,0.048,0.007,0.079c0.019,0.18,0.042,0.404-0.1,0.563C28.067,36.239,27.929,36.3,27.844,36.3z M22.609,35.7h5.021
	c-0.001-0.009-0.002-0.017-0.003-0.024c-0.006-0.056-0.01-0.105-0.01-0.141v-6.164c0-0.033-0.007-0.089-0.014-0.157
	c-0.037-0.384-0.053-0.647,0.071-0.817c0.184-0.25,0.487-0.24,0.616-0.24c0.039,0,0.067,0,0.09-0.001l0.002-8.396
	c0-0.11,0.061-0.211,0.157-0.264c0.097-0.053,0.216-0.047,0.307,0.012c1.132,0.74,2.199,0.817,3.592,0.791l0.142-0.001l0.522,0.005
	c0.234,0,0.507-0.008,0.752-0.07c0.59-0.151,0.909-0.523,1.313-0.994l0.106-0.124c0.064-0.075,0.274-0.465,0.443-0.778
	c0.648-1.204,0.813-1.462,1.091-1.462c0.771,0.026,1.532,0.042,2.293,0.046c-0.043-0.221-0.088-0.441-0.134-0.66
	c-0.08-0.379,0.171-0.575,0.306-0.68c0.111-0.086,0.11-0.094,0.107-0.123c-0.015-0.132-0.044-0.253-0.069-0.361
	c-0.061-0.251-0.122-0.512,0.047-0.726c0.159-0.202,0.428-0.228,0.645-0.228h5.439c0.054,0,0.08-0.01,0.084-0.015
	c0.068-0.076,0.024-0.444,0.001-0.642c-0.021-0.167-0.039-0.331-0.039-0.476c0-0.11-0.005-0.214-0.009-0.313
	c-0.017-0.359-0.031-0.698,0.202-0.942c0.162-0.169,0.402-0.249,0.757-0.249c0.131,0,0.316,0.016,0.527,0.035
	c0.255,0.023,0.55,0.05,0.822,0.05c0.498,0,0.608-0.093,0.625-0.111c0.412-0.447,0.404-0.754,0.387-1.366
	c-0.003-0.103-0.006-0.211-0.007-0.327c-0.201-0.316-0.222-0.316-0.519-0.316H46.27c-0.262,0-0.486-0.092-0.649-0.268
	c-0.388-0.417-0.332-1.184-0.291-1.744c0.009-0.127,0.018-0.239,0.018-0.324c0-0.174,0.005-0.337,0.009-0.491
	c0.022-0.773,0.034-1.199-0.579-1.71c-0.042-0.036-0.127-0.055-0.239-0.055c-0.558,0-1.512,0.447-2.083,0.714
	c-0.184,0.086-0.337,0.158-0.442,0.2c0.005,0.008-0.003,0.101-0.009,0.162c-0.013,0.141-0.028,0.316-0.117,0.482
	c0.023,0.09,0.01,0.19-0.047,0.263c-0.105,0.135-0.264,0.135-0.368,0.135l-4.336,0c-0.496,0-0.593-0.099-0.787-0.52L36.307,6.23
	C36.171,5.936,36.01,5.589,35.8,5.532c-0.313-0.086-0.683-0.128-1.131-0.128c-0.484,0-0.985,0.051-1.412,0.1
	c-0.164,0.02-0.204,0.046-0.205,0.047c-0.001,0.012-0.008,0.109-0.013,0.187c-0.008,0.108-0.017,0.235-0.042,0.383
	c-0.008,0.044-0.01,0.116-0.015,0.197c-0.021,0.401-0.051,0.952-0.496,0.952H16.402c-1.074,0-2.13-0.011-3.236-0.143
	c-0.442-0.053-0.888-0.087-1.333-0.121l-0.286-0.022c-0.045-0.003-0.09-0.004-0.135-0.004l-0.318,0.006c-0.137,0-0.42,0-0.6-0.211
	c-0.124-0.146-0.163-0.349-0.118-0.619c0.021-0.127,0.12-0.226,0.247-0.247c0.121-0.023,0.23,0.031,0.297,0.126
	c0.063,0.012,0.203,0.027,0.503,0.027c0.001,0,0.134,0,0.134,0c0.059,0,0.104,0.001,0.131,0.003L14.31,6.26
	c0.936,0.073,1.88,0.108,2.858,0.13c0.756,0.017,1.573,0.056,2.229-0.365c0.19-0.122,0.19-0.147,0.14-0.305
	c-0.015-0.019-0.065-0.077-0.113-0.129c-0.326-0.011-0.649-0.061-0.964-0.108l-0.146-0.022C14.08,4.839,9.844,4.531,6.228,4.315
	C6.121,4.639,5.859,4.898,5.621,5.135C5.368,5.386,5.129,5.623,5.116,5.868L4.931,9.333c-0.042,0.791-0.065,1.586-0.088,2.382
	c-0.037,1.272-0.076,2.587-0.192,3.869c-0.025,0.279-0.104,0.552-0.181,0.815c-0.146,0.502-0.271,0.937-0.049,1.351
	c0.162,0.304,0.486,0.675,0.747,0.77c0.191,0.069,0.43,0.073,0.683,0.077c0.261,0.004,0.531,0.008,0.793,0.084
	c0.544,0.156,0.869,0.204,1.394,0.204c0.128-0.002,0.646-0.134,0.897-0.221v-3.299c0-0.317,0.249-0.317,0.744-0.317l2.927,0.004
	c0.062,0,0.158-0.011,0.27-0.022c0.177-0.018,0.384-0.038,0.563-0.038c0.234,0,0.391,0.032,0.506,0.105
	c0.101,0.063,0.183,0.163,0.276,0.279c0.068,0.084,0.229,0.282,0.299,0.29l0.153-0.143c0.267-0.272,0.542-0.555,1.018-0.59
	c0.135-0.01,0.302-0.03,0.488-0.051c0.407-0.047,0.913-0.106,1.396-0.106c0.752,0,1.265,0.147,1.568,0.451
	c0.438,0.438,0.727,1.006,1.006,1.554c0.075,0.148,0.149,0.295,0.226,0.436c0.304,0.558,0.227,0.852,0.11,1.296l-0.059,0.233
	c-0.337,1.387-0.646,2.782-0.957,4.175l-0.876,3.901c-0.01,0.043-0.033,0.12-0.063,0.212c-0.037,0.115-0.129,0.406-0.136,0.527
	c0.06,0.084,0.113,0.17,0.166,0.254c0.207,0.332,0.305,0.457,0.517,0.457l2.483-0.005c0.648,0,1.051,0.182,1.051,1.086l-0.005,4.498
	C22.578,34.946,22.589,35.464,22.609,35.7z M31.608,19.41c-0.686,0-1.495-0.039-2.304-0.324c-0.029-0.01-0.057-0.025-0.081-0.043
	c-0.39-0.293-0.589-0.822-0.534-1.412c0.057-0.617,0.371-1.14,0.821-1.364c0.265-0.132,0.604-0.193,1.068-0.193
	c0.189,0,0.381,0.009,0.563,0.019c0.385,0.019,0.691,0.012,1.074-0.012c0.267-0.016,0.548-0.032,0.824-0.032
	c0.528,0,1.931,0,2.215,1.352c0.113,0.541,0.032,0.986-0.243,1.325c-0.358,0.442-1.026,0.666-1.986,0.666
	c-0.241,0-0.479,0.005-0.715,0.01S31.841,19.41,31.608,19.41z M29.552,18.538c0.952,0.323,1.852,0.279,2.747,0.263
	c0.239-0.005,0.481-0.01,0.727-0.01c0.759,0,1.285-0.154,1.521-0.444c0.157-0.194,0.197-0.463,0.121-0.823
	c-0.13-0.622-0.602-0.875-1.627-0.875c-0.265,0-0.533,0.016-0.788,0.031c-0.408,0.025-0.735,0.032-1.141,0.012
	c-0.172-0.009-0.353-0.019-0.532-0.019c-0.368,0-0.622,0.042-0.801,0.13c-0.257,0.128-0.455,0.483-0.492,0.882
	C29.254,18.043,29.354,18.364,29.552,18.538z M6.744,11.15c-0.008,0-0.015,0-0.022,0c-0.146-0.011-0.264-0.127-0.276-0.274
	l-0.02-0.227c-0.062-0.718-0.125-1.46-0.153-2.198c-0.014-0.398-0.02-0.793-0.02-1.191c0-0.55,0.216-0.784,0.721-0.784l0.249,0.003
	L7.869,6.63C7.95,6.65,8.019,6.702,8.06,6.774S8.11,6.932,8.085,7.011C7.663,8.364,7.331,9.69,7.036,10.92
	C7.003,11.056,6.882,11.15,6.744,11.15z M6.858,7.081c0.004,0.015-0.006,0.07-0.006,0.179c0,0.391,0.006,0.779,0.02,1.169
	c0.007,0.185,0.017,0.37,0.027,0.556c0.158-0.604,0.33-1.223,0.52-1.849L7.148,7.069l-0.07,0.008L6.974,7.076
	C6.911,7.076,6.877,7.078,6.858,7.081z"/>
<rect id="sliceCopy_x5F_38_1_" x="53.106" fill="none" width="106.002" height="40"/>
<rect id="sliceCopy_x5F_37_1_" fill="none" width="53.106" height="40"/>
</svg>
