<?xml version="1.0" encoding="utf-8"?>
<!-- Generator: Adobe Illustrator 15.1.0, SVG Export Plug-In  -->
<!DOCTYPE svg PUBLIC "-//W3C//DTD SVG 1.1//EN" "http://www.w3.org/Graphics/SVG/1.1/DTD/svg11.dtd" [
	<!ENTITY ns_flows "http://ns.adobe.com/Flows/1.0/">
]>
<svg version="1.1"
	 xmlns="http://www.w3.org/2000/svg" xmlns:xlink="http://www.w3.org/1999/xlink" xmlns:a="http://ns.adobe.com/AdobeSVGViewerExtensions/3.0/"
	 x="0px" y="0px" width="29px" height="40px" viewBox="0.745 0 29 40" enable-background="new 0.745 0 29 40" xml:space="preserve">
<defs>
</defs>
<path d="M13.043,34.3c-0.516,0-0.982-0.063-1.423-0.191c-0.941-0.277-1.887-0.577-2.821-0.881c-0.455-0.148-0.796-0.41-1.125-0.663
	c-0.165-0.126-0.331-0.255-0.516-0.37c-0.261-0.163-0.454-0.367-0.641-0.565c-0.076-0.08-0.152-0.161-0.234-0.239
	c-0.101-0.096-0.201-0.177-0.298-0.256c-0.232-0.189-0.472-0.384-0.672-0.726c-1.14-1.945-1.681-4.056-1.606-6.274
	c0.046-1.377,0.359-3.348,1.584-4.915c0.588-0.756,1.039-1.199,1.868-1.517c0.5-0.191,1.004-0.338,1.491-0.481
	c0.365-0.106,0.729-0.212,1.092-0.337c0.188-0.064,0.461-0.069,0.768-0.054c0.092,0.004,0.183,0.009,0.272,0.009
	c0.373,0,0.388-0.084,0.403-0.166c0.096-0.521,0.08-1.411-0.063-1.549c-0.082,0-0.162-0.041-0.219-0.099
	c-0.246-0.254-0.367-1.183-0.258-5.178c0.002-0.072,0.004-0.138,0.005-0.198c-0.138,0.007-0.28,0.014-0.421,0.014
	c-0.428,0-0.756-0.057-1.035-0.179c-0.358-0.155-0.54-0.469-0.472-0.821C8.764,8.44,8.885,8.251,8.986,8.111
	c0.069-0.097,0.08-0.124,0.107-0.196c0.015-0.041,0.034-0.088,0.063-0.153c0.285-0.625,0.913-0.642,1.119-0.648
	c0.157-0.004,0.258-0.058,0.397-0.133c0.166-0.089,0.372-0.2,0.675-0.2l4.182,0.006c0.293,0.01,0.849,0.021,1.055,0.011
	c-0.002-0.062-0.008-0.127-0.015-0.195c-0.013-0.135-0.024-0.27-0.015-0.4c0.01-0.15,0.104-0.502,0.751-0.502
	c0.105,0,0.207,0.009,0.281,0.015c0.593,0.043,0.906,0.422,0.906,1.044c0,0.118-0.043,0.213-0.082,0.283
	c0.029,0.023,0.059,0.045,0.089,0.068c0.094,0.071,0.187,0.143,0.269,0.229c0.205,0.212,0.292,0.5,0.375,0.778
	c0.055,0.183,0.106,0.355,0.185,0.478c0.255,0.396,0.412,0.869,0.563,1.327c0.191,0.578,0.371,1.125,0.728,1.493
	c0.042,0.043,0.07,0.099,0.08,0.158c0.097,0.568,0.41,1.055,0.741,1.571c0.165,0.257,0.329,0.513,0.466,0.777
	c0.382,0.737,0.711,1.527,1.03,2.29c0.127,0.305,0.254,0.609,0.384,0.908c0.344,0.798,0.7,1.624,1.181,2.385
	c0.479,0.756,0.677,1.556,0.621,2.516c-0.082,1.444-0.019,2.925,0.042,4.356c0.04,0.944,0.082,1.92,0.082,2.881
	c0,0.354,0.011,0.714,0.021,1.075c0.022,0.788,0.046,1.603-0.037,2.389c-0.074,0.697-0.514,0.902-0.77,0.963
	c-0.073,0.017-0.216,0.043-0.383,0.043c-0.578,0-0.721-0.328-0.755-0.47c-0.101-0.415,0.19-0.638,0.347-0.758
	c0.054-0.041,0.135-0.103,0.143-0.132c0.058-0.221,0.037-0.469,0.015-0.733c-0.013-0.147-0.024-0.294-0.024-0.439l0.001-1.125
	c0.001-0.937,0.002-1.874-0.004-2.809c-0.002-0.275-0.006-0.554-0.012-0.833c-0.343,1.654-1.163,3.381-2.272,4.748
	c-1.433,1.767-3.764,2.277-5.82,2.727l-0.591,0.13C14.294,34.215,13.64,34.3,13.043,34.3z M10.214,17.421
	c-0.125,0-0.216,0.01-0.277,0.031c-0.372,0.128-0.745,0.237-1.119,0.346c-0.475,0.139-0.967,0.282-1.444,0.465
	c-0.702,0.269-1.078,0.641-1.61,1.325c-1.126,1.44-1.414,3.278-1.458,4.566c-0.07,2.102,0.442,4.104,1.524,5.95
	c0.146,0.249,0.317,0.388,0.534,0.564c0.108,0.088,0.22,0.179,0.333,0.288c0.089,0.086,0.173,0.174,0.256,0.262
	c0.168,0.178,0.327,0.346,0.522,0.468c0.202,0.125,0.384,0.265,0.563,0.403c0.303,0.232,0.589,0.453,0.946,0.569
	c0.929,0.302,1.868,0.601,2.804,0.876c0.848,0.248,1.781,0.23,3.182-0.085l0.594-0.132c1.96-0.429,4.183-0.915,5.483-2.519
	c1.215-1.498,2.063-3.448,2.268-5.217c0.131-1.142-0.003-2.153-0.465-3.489c-0.082-0.237-0.152-0.475-0.223-0.709
	c-0.226-0.757-0.439-1.473-1.007-2.038c-0.721-0.717-1.27-1.035-2.176-1.261l-0.086-0.021c-0.49-0.122-0.997-0.248-1.496-0.287
	l-0.224-0.012c-0.28-0.013-0.597-0.027-0.892-0.151c-0.535-0.223-0.478-0.883-0.44-1.32c0.008-0.093,0.016-0.178,0.016-0.248
	c0-0.05-0.007-0.125-0.015-0.213c-0.045-0.515-0.061-0.925,0.175-1.129c0.212-0.185,0.529-0.271,0.997-0.271
	c0.206,0,0.414,0.017,0.593,0.031c0.089,0.007,0.17,0.014,0.24,0.017l0.125,0.002c0.092,0,0.191-0.003,0.293-0.006
	c0.425-0.011,0.962-0.052,1.383,0.199c0.226,0.134,0.308,0.359,0.374,0.541c0.033,0.092,0.065,0.18,0.106,0.228l0.11,0.131
	c0.227,0.268,0.441,0.521,0.639,0.835c0.151,0.239,0.284,0.481,0.415,0.72c0.275,0.503,0.536,0.979,0.94,1.341
	c0.178,0.16,0.237,0.373,0.284,0.543c0.029,0.107,0.057,0.208,0.102,0.252c0.23,0.226,0.42,0.628,0.582,1.232
	c0.614,2.273,0.715,4.592,0.732,6.758c0.006,0.938,0.005,1.876,0.004,2.814L24.4,31.195c0,0.128,0.012,0.258,0.022,0.389
	c0.026,0.302,0.052,0.615-0.032,0.936c-0.06,0.228-0.232,0.36-0.357,0.456c-0.046,0.035-0.123,0.094-0.133,0.12
	c0.005,0.016,0.231,0.048,0.424,0.004c0.131-0.031,0.273-0.108,0.308-0.441c0.079-0.747,0.056-1.541,0.034-2.309
	c-0.01-0.367-0.021-0.732-0.021-1.092c0-0.949-0.042-1.918-0.082-2.856c-0.062-1.446-0.125-2.942-0.041-4.417
	c0.048-0.84-0.115-1.506-0.529-2.16c-0.506-0.801-0.888-1.687-1.225-2.468c-0.13-0.301-0.258-0.607-0.387-0.915
	c-0.314-0.752-0.639-1.53-1.01-2.246c-0.128-0.248-0.282-0.487-0.438-0.729c-0.334-0.52-0.679-1.056-0.811-1.705
	c-0.409-0.459-0.609-1.066-0.803-1.653c-0.146-0.441-0.283-0.858-0.498-1.191c-0.124-0.194-0.19-0.415-0.254-0.629
	c-0.065-0.219-0.127-0.426-0.232-0.535c-0.062-0.064-0.13-0.115-0.198-0.166c-0.071-0.054-0.142-0.108-0.208-0.168
	c-0.183-0.168-0.204-0.383-0.061-0.638c0.023-0.444-0.159-0.457-0.28-0.465c-0.214-0.019-0.373-0.018-0.439-0.005
	c0,0.077,0.008,0.155,0.016,0.234c0.016,0.17,0.035,0.364-0.006,0.56c-0.065,0.298-0.4,0.298-0.863,0.298
	c-0.274,0-0.585-0.011-0.789-0.018l-0.19-0.006h-3.971c-0.152,0-0.252,0.054-0.391,0.129c-0.163,0.088-0.367,0.197-0.666,0.205
	C9.91,7.724,9.78,7.839,9.703,8.008L9.653,8.129C9.613,8.235,9.581,8.311,9.474,8.46c-0.06,0.083-0.141,0.206-0.161,0.315
	C9.306,8.808,9.293,8.873,9.434,8.934c0.202,0.088,0.454,0.129,0.796,0.129c0.179,0,0.359-0.011,0.531-0.021l0.182-0.01
	c0.084,0.006,0.163,0.026,0.222,0.083c0.06,0.057,0.093,0.135,0.093,0.217c0,0.081-0.005,0.27-0.012,0.532
	c-0.09,3.288-0.011,4.391,0.082,4.701c0.098,0.032,0.187,0.092,0.258,0.178c0.437,0.525,0.193,2.025,0.19,2.04
	c-0.122,0.656-0.778,0.656-0.993,0.656c-0.098,0-0.2-0.005-0.301-0.01C10.391,17.425,10.3,17.421,10.214,17.421z M17.48,15.031
	c-0.381,0-0.539,0.067-0.604,0.124c-0.02,0.068,0.016,0.472,0.029,0.624c0.01,0.11,0.017,0.204,0.017,0.266
	c0,0.084-0.008,0.188-0.018,0.299c-0.019,0.215-0.057,0.661,0.074,0.716c0.198,0.083,0.436,0.094,0.687,0.105
	c0.082,0.004,0.163,0.007,0.243,0.013c0.55,0.043,1.081,0.175,1.595,0.303l0.085,0.021c1.001,0.249,1.667,0.633,2.455,1.417
	c0.676,0.672,0.922,1.496,1.159,2.292c0.028,0.094,0.056,0.188,0.085,0.284c-0.061-0.281-0.128-0.562-0.204-0.842
	c-0.163-0.611-0.319-0.858-0.421-0.958c-0.161-0.157-0.216-0.359-0.261-0.522c-0.03-0.109-0.059-0.213-0.105-0.255
	c-0.481-0.431-0.778-0.975-1.066-1.5c-0.125-0.228-0.251-0.459-0.396-0.687c-0.177-0.279-0.378-0.517-0.591-0.769l-0.111-0.132
	c-0.109-0.129-0.163-0.278-0.211-0.41c-0.035-0.096-0.074-0.205-0.116-0.229c-0.184-0.109-0.501-0.122-0.724-0.122
	c-0.112,0-0.225,0.003-0.334,0.007c-0.108,0.003-0.213,0.006-0.311,0.006l-0.152-0.003c-0.076-0.003-0.164-0.011-0.261-0.019
	C17.86,15.047,17.669,15.031,17.48,15.031z"/>
<rect id="sliceCopy_x5F_6_1_" x="28.987" fill="none" width="20.777" height="40"/>
<rect id="sliceCopy_x5F_5_1_" fill="none" width="28.987" height="40"/>
</svg>
