<?xml version="1.0" encoding="utf-8"?>
<!-- Generator: Adobe Illustrator 15.1.0, SVG Export Plug-In  -->
<!DOCTYPE svg PUBLIC "-//W3C//DTD SVG 1.1//EN" "http://www.w3.org/Graphics/SVG/1.1/DTD/svg11.dtd" [
	<!ENTITY ns_flows "http://ns.adobe.com/Flows/1.0/">
]>
<svg version="1.1"
	 xmlns="http://www.w3.org/2000/svg" xmlns:xlink="http://www.w3.org/1999/xlink" xmlns:a="http://ns.adobe.com/AdobeSVGViewerExtensions/3.0/"
	 x="0px" y="0px" width="65px" height="40px" viewBox="0.276 0 65 40" enable-background="new 0.276 0 65 40" xml:space="preserve">
<defs>
</defs>
<path d="M12.974,36.3c-1.188,0-2.402-0.034-3.709-0.103l-0.233-0.012c-0.3-0.014-0.599-0.029-0.897-0.072
	c-0.513-0.073-1.137-0.506-1.196-2.157c-0.053-1.459,0.201-3.055,0.755-4.742c0.621-1.891,1.314-3.918,2.173-5.936l0.838-1.97
	c0.039-0.092,0.091-0.192,0.145-0.298c0.112-0.219,0.24-0.467,0.24-0.638c0-0.237,0.016-0.464,0.031-0.688
	c0.03-0.426,0.06-0.829-0.036-1.266c-0.266-1.206-0.857-1.786-2.042-2c-0.712-0.102-1.483-0.119-2.23-0.136l-0.978-0.027
	c-0.352-0.012-0.704-0.024-1.055-0.024c-0.408,0-0.849-0.045-1.019-0.379c-0.175-0.343,0.068-0.751,0.3-1.069
	c0.599-0.824,1.687-1.212,2.66-1.511c0.146-0.045,0.287-0.083,0.422-0.118c0.648-0.17,0.917-0.262,1.044-0.813
	c0.022-0.1,0.049-0.2,0.075-0.3c0.098-0.371,0.19-0.722,0.11-1.055c-0.061-0.257-0.193-0.443-0.347-0.658
	c-0.104-0.145-0.208-0.292-0.297-0.464c-0.052-0.1-0.119-0.208-0.189-0.322C7.32,9.191,7.074,8.791,7.074,8.387
	c0-0.03-0.006-0.083-0.012-0.148C7.021,7.797,7.017,7.573,7.15,7.423C7.3,7.256,7.582,7.2,7.964,7.14
	c0.083-0.013,0.157-0.024,0.204-0.037c0.201-0.051,0.428,0.086,0.663,0.264l0.068,0.051C8.901,7.42,9.032,7.435,9.173,7.426
	C9.398,7.41,9.576,7.422,9.729,7.43c0.081,0.004,0.155,0.008,0.223,0.008c0.178,0,0.267,0,0.44-0.304
	c0.49-0.858,1.362-1.416,2.223-1.911c0.008-0.09-0.021-0.283-0.037-0.403c-0.054-0.364-0.107-0.741,0.139-0.958
	C12.846,3.749,13.048,3.7,13.395,3.7c0.271,0,0.601,0.031,0.87,0.057c0.169,0.016,0.312,0.031,0.393,0.031
	c0.288,0,0.577,0.288,1.117,0.933c0.092,0.109,0.168,0.202,0.215,0.249c0.045,0.044,0.148,0.096,0.399,0.096
	c0.157,0,0.321-0.019,0.475-0.035c0.14-0.015,0.27-0.028,0.381-0.031c0.353-0.008,0.65-0.097,0.966-0.191
	c0.345-0.103,0.701-0.209,1.137-0.212l7.785-0.043c0.351,0,0.574,0.188,0.753,0.339c0.178,0.151,0.288,0.236,0.477,0.239
	l10.766,0.185c0.185,0.002,0.352,0.053,0.513,0.102c0.109,0.033,0.214,0.065,0.319,0.08c0,0,0.001-0.001,0.001-0.002
	c0.066-0.151,0.205-0.465,0.563-0.465l12.343,0.093c0.169,0.001,0.302,0.053,0.395,0.155c0.14,0.155,0.122,0.35,0.11,0.479
	c-0.001,0.005-0.001,0.01-0.002,0.016c0.082,0.001,0.177,0.001,0.25-0.003c0.001-0.006,0.003-0.012,0.005-0.018
	c0.042-0.148,0.104-0.372,0.323-0.494c0.154-0.086,0.369-0.126,0.677-0.126c0.255,0,0.544,0.028,0.799,0.053
	c0.181,0.018,0.342,0.035,0.454,0.035h0.079c0.002,0,0.004,0,0.005,0c0.437,0,0.581-0.01,0.894-0.197
	c0.106-0.064,0.21-0.129,0.313-0.194c0.399-0.251,0.813-0.511,1.332-0.653c0.104-0.028,0.204-0.043,0.297-0.043
	c0.628,0,0.809,0.603,0.91,1.004c0.101,0.054,0.361,0.115,0.494,0.147c0.118,0.028,0.225,0.055,0.303,0.081
	c0.292,0.008,0.468,0.077,0.585,0.208c0.187,0.208,0.155,0.487,0.125,0.756c-0.011,0.091-0.022,0.189-0.026,0.294
	c-0.015,0.369,0.039,0.742,0.096,1.137c0.021,0.142,0.041,0.284,0.059,0.426c0.077,0.642-0.204,1.397-0.453,2.064
	c-0.104,0.28-0.205,0.548-0.271,0.788c-0.267,0.976-0.598,2-0.982,3.044c-0.246,0.667-0.686,0.723-1.078,0.723l-0.303-0.003H36.95
	c-0.565,0-1.08,0.404-1.577,0.795c-0.147,0.116-0.292,0.229-0.435,0.331c-0.645,0.458-1.112,1.589-1.422,2.337
	c-0.467,1.132-0.524,2.364-0.524,3.315c0,0.706-0.325,0.815-0.784,0.894c-0.1,0.017-0.214,0.036-0.345,0.069
	c-0.401,0.1-0.814,0.147-1.215,0.192c-0.157,0.018-0.313,0.036-0.469,0.057c-0.822,0.112-1.659,0.15-2.469,0.188l-0.715,0.035
	c-0.006,0-0.078,0.002-0.083,0.002c-0.343,0-0.731-0.111-1.108-0.218c-0.563-0.161-1.16-0.297-1.425-0.105
	c-1.024,0.741-1.168,1.688-1.35,2.889l-0.071,0.459c-0.14,0.865-0.309,1.726-0.478,2.587c-0.145,0.737-0.289,1.474-0.415,2.212
	c-0.115,0.679-0.262,1.389-0.475,2.302c-0.073,0.315,0.253,1.018,0.469,1.483c0.089,0.191,0.171,0.37,0.23,0.519
	c0.04,0.051,0.064,0.116,0.064,0.186c0,0.167-0.161,0.285-0.308,0.3c-0.003,0-0.005,0-0.008,0h-0.001h-0.001
	c-1.082,0-2.158,0.151-3.2,0.298c-0.828,0.116-1.684,0.236-2.529,0.283C15.189,36.271,14.099,36.3,12.974,36.3z M4.306,15.593
	c0.025,0,0.143,0.041,0.473,0.041c0.357,0,0.717,0.012,1.075,0.024l0.971,0.027c0.764,0.017,1.554,0.034,2.313,0.143
	c1.436,0.26,2.213,1.02,2.531,2.464c0.114,0.521,0.081,0.987,0.049,1.437c-0.015,0.21-0.03,0.423-0.03,0.646
	c0,0.316-0.162,0.633-0.306,0.912c-0.047,0.092-0.093,0.179-0.126,0.258l-0.838,1.97c-0.851,1.997-1.539,4.01-2.155,5.889
	c-0.531,1.619-0.775,3.144-0.726,4.533c0.021,0.559,0.136,1.507,0.682,1.584c0.28,0.04,0.561,0.053,0.841,0.066l0.237,0.012
	c2.521,0.133,4.698,0.136,6.979,0.012c0.82-0.045,1.663-0.164,2.479-0.278c0.928-0.13,1.885-0.265,2.835-0.296
	c-0.023-0.052-0.048-0.104-0.073-0.159c-0.295-0.635-0.63-1.355-0.509-1.872c0.21-0.901,0.354-1.6,0.467-2.266
	c0.127-0.744,0.272-1.486,0.418-2.227c0.168-0.855,0.335-1.709,0.475-2.568l0.07-0.453c0.187-1.232,0.362-2.397,1.591-3.285
	c0.458-0.331,1.233-0.187,1.94,0.015c0.353,0.1,0.686,0.195,0.944,0.195l0.77-0.037c0.797-0.037,1.62-0.075,2.417-0.184
	c0.159-0.021,0.32-0.04,0.481-0.058c0.381-0.043,0.774-0.087,1.136-0.178c0.149-0.037,0.278-0.06,0.391-0.078
	c0.102-0.018,0.229-0.039,0.258-0.061c0,0,0,0,0,0c-0.001,0,0.027-0.047,0.027-0.242c0-1.007,0.063-2.314,0.548-3.492
	c0.357-0.865,0.865-2.091,1.65-2.65c0.136-0.096,0.272-0.204,0.412-0.313c0.55-0.432,1.174-0.922,1.947-0.922l21.605,0.003
	c0.292,0,0.399-0.016,0.516-0.331c0.379-1.028,0.704-2.036,0.967-2.994c0.069-0.256,0.176-0.542,0.287-0.84
	c0.225-0.603,0.479-1.285,0.419-1.782c-0.017-0.137-0.036-0.274-0.057-0.413c-0.059-0.404-0.118-0.822-0.102-1.247
	c0.005-0.121,0.018-0.234,0.029-0.338c0.012-0.101,0.026-0.236,0.018-0.292c-0.017,0.001-0.055-0.006-0.138-0.006
	c-0.041,0-0.132-0.008-0.17-0.025c-0.054-0.023-0.153-0.044-0.265-0.071c-0.415-0.098-0.844-0.2-0.924-0.528
	c-0.167-0.671-0.254-0.647-0.48-0.584c-0.434,0.118-0.791,0.344-1.171,0.582c-0.105,0.067-0.213,0.134-0.324,0.201
	c-0.449,0.268-0.725,0.282-1.137,0.282l-0.148,0c-0.127,0-0.31-0.017-0.514-0.038c-0.236-0.023-0.504-0.05-0.739-0.05
	c-0.272,0-0.363,0.038-0.384,0.05c-0.004,0.011-0.026,0.088-0.039,0.134c-0.035,0.125-0.084,0.296-0.244,0.389
	c-0.042,0.025-0.114,0.069-0.506,0.069c-0.33,0-0.427-0.033-0.507-0.101c-0.197-0.167-0.186-0.408-0.173-0.55L40.525,5.63
	c0.03,0.002,0.001,0.068-0.017,0.107c-0.057,0.129-0.162,0.369-0.43,0.369c-0.235,0-0.437-0.061-0.614-0.115
	c-0.132-0.041-0.247-0.075-0.347-0.077L28.352,5.73c-0.412-0.007-0.668-0.223-0.854-0.38c-0.153-0.13-0.239-0.198-0.36-0.198
	l-7.786,0.043c-0.35,0.002-0.65,0.092-0.969,0.187c-0.34,0.102-0.691,0.207-1.124,0.216c-0.097,0.002-0.21,0.015-0.33,0.028
	c-0.174,0.019-0.36,0.039-0.539,0.039c-0.371,0-0.641-0.089-0.822-0.271c-0.055-0.054-0.146-0.161-0.253-0.289
	c-0.167-0.199-0.558-0.667-0.7-0.724c-0.047,0.008-0.212-0.008-0.405-0.027C13.956,4.33,13.648,4.3,13.395,4.3
	c-0.237,0-0.303,0.028-0.306,0.029c0.026,0.018,0.062,0.26,0.083,0.405c0.054,0.373,0.115,0.796-0.207,0.981
	c-0.805,0.461-1.626,0.973-2.051,1.717c-0.295,0.519-0.587,0.63-1.216,0.598C9.563,8.022,9.413,8.011,9.214,8.024
	C9.032,8.038,8.808,8.079,8.566,7.917L8.469,7.846C8.421,7.809,8.316,7.731,8.256,7.699C8.201,7.709,8.133,7.721,8.058,7.732
	C7.949,7.75,7.747,7.782,7.637,7.817C7.636,7.923,7.651,8.098,7.659,8.183c0.009,0.089,0.015,0.164,0.015,0.204
	c0,0.234,0.208,0.571,0.375,0.842C8.128,9.357,8.202,9.479,8.26,9.59c0.075,0.144,0.165,0.268,0.253,0.391
	c0.175,0.244,0.355,0.497,0.442,0.868c0.114,0.479-0.007,0.939-0.114,1.346c-0.024,0.095-0.049,0.188-0.071,0.283
	c-0.213,0.926-0.854,1.095-1.476,1.258c-0.127,0.033-0.26,0.068-0.397,0.111c-0.881,0.271-1.862,0.617-2.352,1.291
	C4.32,15.447,4.301,15.569,4.3,15.595C4.301,15.594,4.303,15.593,4.306,15.593z M27.21,21.294c-0.379,0-0.681-0.041-0.92-0.126
	l-0.199-0.067c-0.482-0.16-0.705-0.257-0.924-0.878c-0.13-0.365-0.13-0.616-0.13-0.964v-2.892c0-1.458,1.339-1.458,1.91-1.458
	l3.212,0.008c0.445,0,0.8,0.133,1.054,0.396c0.509,0.526,0.477,1.428,0.451,2.153c-0.005,0.144-0.01,0.281-0.01,0.406
	c0,0.178,0.008,0.358,0.016,0.539c0.027,0.643,0.056,1.308-0.233,1.924c-0.37,0.786-1.124,0.887-1.738,0.887
	c-0.146,0-0.295-0.005-0.442-0.011c-0.352-0.014-0.693-0.004-1.115,0.031C27.836,21.269,27.515,21.294,27.21,21.294z M26.947,15.509
	c-0.979,0-1.311,0.216-1.311,0.857v2.892c0,0.33,0,0.496,0.096,0.764c0.131,0.371,0.154,0.378,0.547,0.509l0.21,0.071
	c0.337,0.12,1.005,0.091,1.603,0.043c0.446-0.037,0.81-0.047,1.187-0.032c0.14,0.005,0.28,0.01,0.42,0.01
	c0.686,0,1.009-0.147,1.195-0.542c0.227-0.482,0.202-1.046,0.177-1.644c-0.008-0.189-0.016-0.378-0.016-0.564
	c0-0.132,0.005-0.276,0.01-0.427c0.021-0.611,0.048-1.372-0.283-1.716c-0.139-0.144-0.342-0.213-0.622-0.213L26.947,15.509z"/>
<rect id="sliceCopy_x5F_32_1_" x="65.053" fill="none" width="56.167" height="40"/>
<rect id="sliceCopy_x5F_31_1_" fill="none" width="65.054" height="40"/>
</svg>
