<?xml version="1.0" encoding="utf-8"?>
<!-- Generator: Adobe Illustrator 15.1.0, SVG Export Plug-In  -->
<!DOCTYPE svg PUBLIC "-//W3C//DTD SVG 1.1//EN" "http://www.w3.org/Graphics/SVG/1.1/DTD/svg11.dtd" [
	<!ENTITY ns_flows "http://ns.adobe.com/Flows/1.0/">
]>
<svg version="1.1"
	 xmlns="http://www.w3.org/2000/svg" xmlns:xlink="http://www.w3.org/1999/xlink" xmlns:a="http://ns.adobe.com/AdobeSVGViewerExtensions/3.0/"
	 x="0px" y="0px" width="19px" height="40px" viewBox="0.981 0 19 40" enable-background="new 0.981 0 19 40" xml:space="preserve">
<defs>
</defs>
<path d="M12.466,34.3h-7.85c-0.574,0-0.916-0.342-0.916-0.916v-1.5c0-0.051,0.013-0.102,0.038-0.146l0.976-1.74v-1.951
	c0-0.166,0.134-0.3,0.3-0.3h0.186v-1.516H5.014c-0.166,0-0.3-0.134-0.3-0.3v-2.205c0-0.166,0.134-0.3,0.3-0.3h0.186V21.91H5.014
	c-0.166,0-0.3-0.134-0.3-0.3v-2.205c0-0.166,0.134-0.3,0.3-0.3h0.186v-1.517H5.014c-0.166,0-0.3-0.134-0.3-0.3v-1.944l-0.921-0.881
	C3.733,14.407,3.7,14.329,3.7,14.247v-2.822c0-0.575,0.342-0.917,0.916-0.917h0.506l1.135-0.984V8.148
	C5.345,7.932,5.2,7.276,5.2,6.882c0-0.637,0.312-0.908,0.574-1.023c0.024-0.011,0.05-0.018,0.076-0.022l0.883-0.133L11.629,5.7
	c0.104,0,0.2,0.053,0.254,0.141l4.102,6.57c0.03,0.047,0.045,0.103,0.045,0.159V26.46c0,0.115-0.065,0.219-0.168,0.27l-2.074,1.015
	c-0.06,0.029-0.125,0.037-0.191,0.024l-0.66-0.132c-0.086-0.017-0.16-0.071-0.203-0.148c-0.126-0.227-0.263-0.674,0.238-1.12
	c0.25-0.219,0.613-0.462,1.111-0.744l0.464-0.233v-12.03l-1.163-0.669v1.554c0,0.084-0.035,0.165-0.097,0.221l-0.962,0.881v1.94
	c0,0.166-0.134,0.3-0.3,0.3h-0.142v1.517h0.142c0.166,0,0.3,0.134,0.3,0.3v2.205c0,0.166-0.134,0.3-0.3,0.3h-0.142v1.517h0.142
	c0.166,0,0.3,0.134,0.3,0.3v2.205c0,0.166-0.134,0.3-0.3,0.3h-0.142v1.516h0.142c0.166,0,0.3,0.134,0.3,0.3v1.947l1.019,1.738
	c0.027,0.046,0.041,0.099,0.041,0.152v1.5C13.384,33.958,13.041,34.3,12.466,34.3z M4.3,31.962v1.421
	c0,0.245,0.071,0.316,0.316,0.316h7.85c0.247,0,0.318-0.071,0.318-0.316v-1.418l-1.019-1.738c-0.027-0.046-0.041-0.099-0.041-0.152
	v-1.729h-0.142c-0.166,0-0.3-0.134-0.3-0.3v-2.116c0-0.166,0.134-0.3,0.3-0.3h0.142v-1.605h-0.142c-0.166,0-0.3-0.134-0.3-0.3V21.61
	c0-0.166,0.134-0.3,0.3-0.3h0.142v-1.605h-0.142c-0.166,0-0.3-0.134-0.3-0.3V17.29c0-0.166,0.134-0.3,0.3-0.3h0.142v-1.773
	c0-0.084,0.035-0.165,0.097-0.221l0.962-0.881v-1.94c0-0.107,0.057-0.206,0.149-0.26c0.094-0.054,0.208-0.053,0.3,0l1.763,1.014
	c0.093,0.054,0.15,0.153,0.15,0.26v12.389c0,0.113-0.064,0.217-0.166,0.268l-0.616,0.309c-0.442,0.25-0.782,0.477-0.996,0.665
	c-0.124,0.11-0.158,0.192-0.152,0.262l0.399,0.08l1.815-0.888V12.656L11.462,6.3H6.778L5.984,6.423C5.912,6.462,5.8,6.557,5.8,6.882
	c0,0.306,0.095,0.63,0.795,0.717c0.15,0.019,0.263,0.146,0.263,0.298v1.764c0,0.087-0.038,0.17-0.104,0.227l-1.323,1.146
	c-0.054,0.047-0.124,0.073-0.196,0.073H4.616c-0.245,0-0.316,0.071-0.316,0.318v2.694L5.221,15c0.059,0.057,0.092,0.135,0.092,0.217
	v1.773h0.186c0.166,0,0.3,0.134,0.3,0.3v2.116c0,0.166-0.134,0.3-0.3,0.3H5.313v1.605h0.186c0.166,0,0.3,0.134,0.3,0.3v2.117
	c0,0.166-0.134,0.3-0.3,0.3H5.313v1.605h0.186c0.166,0,0.3,0.134,0.3,0.3v2.116c0,0.166-0.134,0.3-0.3,0.3H5.313v1.729
	c0,0.051-0.013,0.102-0.038,0.146L4.3,31.962z"/>
<rect id="sliceCopy_x5F_8_1_" x="19.73" fill="none" width="35.337" height="40"/>
<rect id="sliceCopy_x5F_7_1_" fill="none" width="19.73" height="40"/>
</svg>
