<?xml version="1.0" encoding="utf-8"?>
<!-- Generator: Adobe Illustrator 15.1.0, SVG Export Plug-In  -->
<!DOCTYPE svg PUBLIC "-//W3C//DTD SVG 1.1//EN" "http://www.w3.org/Graphics/SVG/1.1/DTD/svg11.dtd" [
	<!ENTITY ns_flows "http://ns.adobe.com/Flows/1.0/">
]>
<svg version="1.1"
	 xmlns="http://www.w3.org/2000/svg" xmlns:xlink="http://www.w3.org/1999/xlink" xmlns:a="http://ns.adobe.com/AdobeSVGViewerExtensions/3.0/"
	 x="0px" y="0px" width="60px" height="40px" viewBox="0.082 0 60 40" enable-background="new 0.082 0 60 40" xml:space="preserve">
<defs>
</defs>
<path d="M17.591,36.3H6.978c-0.084,0-0.164-0.035-0.221-0.097c-0.057-0.062-0.085-0.145-0.078-0.228
	c0.025-0.301,0.085-0.588,0.152-0.865c-0.914-0.017-2.017-0.147-2.719-1.177c-0.727-1.136-0.344-2.468-0.006-3.644
	c0.054-0.188,0.106-0.371,0.153-0.548c0.027-0.104,0.106-0.183,0.205-0.211c0.853-1.135,1.637-2.354,2.396-3.536
	c0.315-0.49,0.63-0.979,0.95-1.464c0.389-0.588,0.804-1.16,1.218-1.731c0.208-0.287,0.415-0.573,0.619-0.861
	c0.379-0.533,0.652-1.23,0.917-1.905c0.131-0.334,0.26-0.663,0.399-0.967c0.729-1.603,1.076-4.391-0.954-5.505
	c-0.256-0.14-0.523-0.265-0.789-0.39c-0.292-0.137-0.584-0.274-0.859-0.427c-0.503-0.281-0.759-0.885-0.782-1.848
	c-0.016-0.697-0.011-1.403-0.006-2.111C7.577,8.431,7.58,8.078,7.58,7.725V6.452c0-0.102-0.041-0.199-0.088-0.312
	c-0.086-0.207-0.205-0.49-0.016-0.824c0.242-0.485,0.976-0.521,1.512-0.548c0.1-0.005,0.188-0.009,0.255-0.017l0.274-0.028
	c0.45-0.042,0.459-0.043,0.672-0.408C10.458,3.855,10.693,3.7,11.12,3.7c0.073,0,0.156,0.004,0.251,0.009l0.202,0.009
	c0.818,0.029,1.01,0.327,1.128,0.947c0.076-0.003,0.185-0.007,0.264-0.014c0.063-0.005,0.117-0.009,0.151-0.009h38.438
	c0.176-0.253,0.448-0.325,0.653-0.379l0.124-0.035c0.424-0.135,0.561-0.083,0.684-0.017c0.034,0.018,0.08,0.042,0.154,0.071
	c0.164,0.062,0.248,0.128,0.32,0.191C53.507,4.49,53.536,4.5,53.64,4.5h1.17c0.15,0,0.282,0.055,0.382,0.159
	c0.221,0.229,0.205,0.614,0.191,0.953c-0.004,0.091-0.008,0.176-0.004,0.243l0.266,4.256c0.002,1.314,0.007,4.05-1.924,4.223
	c-1.162,0.104-2.133,0.186-3.16,0.216c-0.834,0.025-1.668,0.059-2.503,0.094c-1.215,0.05-2.43,0.1-3.644,0.12l-0.308,0.005
	c-0.987,0.017-2.007,0.034-3.008,0.105c-0.091,0.006-0.207,0.011-0.34,0.016c-0.592,0.022-1.979,0.073-2.06,0.581
	c-0.131,0.853-0.098,1.799,0.105,2.977c0.027,0.158,0.073,0.32,0.119,0.484c0.084,0.297,0.17,0.604,0.17,0.922
	c0,0.255-0.754,1.255-1.029,1.283c-2.193,0.245-4.305,0.339-6.334,0.278c-0.176-0.005-0.353-0.007-0.532-0.007l-0.955,0.005
	c-0.501,0-1.089-0.012-1.648-0.1l-1.696-0.268c-0.24-0.038-0.423-0.106-0.584-0.167c-0.231-0.087-0.398-0.147-0.672-0.096
	c-0.589,0.11-1.131,1-1.525,1.651c-0.089,0.145-0.171,0.281-0.248,0.398c-1.029,1.579-1.685,3.292-2.378,5.107
	c-0.401,0.987-0.796,2.029-1.224,3.228c-0.117,0.331-0.262,0.681-0.41,1.042c-0.359,0.874-0.731,1.776-0.8,2.558
	C18.979,35.698,18.402,36.3,17.591,36.3z M7.319,35.7h10.271c0.708,0,0.844-0.689,0.869-0.985c0.076-0.874,0.466-1.82,0.843-2.735
	c0.145-0.352,0.285-0.693,0.4-1.015c0.431-1.208,0.828-2.257,1.215-3.208c0.688-1.796,1.384-3.62,2.449-5.253
	c0.073-0.112,0.152-0.242,0.237-0.382c0.453-0.747,1.075-1.769,1.927-1.929c0.445-0.085,0.726,0.023,0.993,0.124
	c0.147,0.055,0.287,0.107,0.467,0.136l1.697,0.268c0.519,0.082,1.077,0.093,1.555,0.093l0.955-0.005
	c0.186,0,0.369,0.001,0.551,0.007c1.976,0.059,4.033-0.031,6.173-0.266c0.154-0.15,0.532-0.63,0.581-0.757
	c-0.009-0.173-0.081-0.428-0.156-0.698c-0.052-0.184-0.103-0.366-0.134-0.544c-0.214-1.243-0.248-2.251-0.106-3.171
	c0.156-0.997,1.705-1.054,2.631-1.088c0.124-0.004,0.233-0.008,0.318-0.015c1.018-0.072,2.046-0.09,3.041-0.106l0.308-0.005
	c1.209-0.021,2.419-0.07,3.629-0.12c0.837-0.035,1.673-0.069,2.51-0.094c1.011-0.03,1.973-0.111,3.125-0.214
	c1.383-0.124,1.379-2.401,1.377-3.624l-0.008-0.234l-0.258-3.985c-0.005-0.084-0.001-0.19,0.004-0.304
	c0.006-0.145,0.018-0.445-0.029-0.52L53.64,5.1c-0.291,0-0.412-0.059-0.545-0.174c-0.036-0.032-0.061-0.053-0.139-0.082
	c-0.108-0.042-0.175-0.077-0.224-0.103c-0.008,0-0.147,0.038-0.221,0.061L52.36,4.843c-0.132,0.035-0.281,0.075-0.313,0.139
	c-0.039,0.078-0.131,0.263-0.374,0.263l-0.088-0.003H13.116c-0.023,0-0.06,0.004-0.103,0.007c-0.087,0.007-0.194,0.016-0.294,0.016
	c-0.345,0-0.54-0.115-0.582-0.343c-0.095-0.577-0.106-0.588-0.585-0.605l-0.211-0.009C11.258,4.304,11.185,4.3,11.12,4.3
	c-0.17,0-0.227,0-0.413,0.318c-0.354,0.606-0.589,0.651-1.133,0.703L9.313,5.348c-0.077,0.009-0.179,0.015-0.294,0.02
	c-0.275,0.014-0.92,0.046-1.013,0.231c-0.045,0.081-0.039,0.122,0.04,0.31C8.105,6.052,8.18,6.23,8.18,6.452v1.272
	c0,0.354-0.002,0.709-0.005,1.063C8.17,9.491,8.164,10.19,8.18,10.881c0.018,0.721,0.178,1.171,0.476,1.338
	c0.263,0.146,0.541,0.277,0.821,0.408c0.277,0.13,0.556,0.261,0.822,0.407c2.138,1.173,2.228,4.047,1.212,6.28
	c-0.135,0.295-0.26,0.614-0.387,0.938c-0.278,0.708-0.565,1.44-0.985,2.033c-0.206,0.29-0.415,0.578-0.624,0.866
	c-0.409,0.565-0.819,1.13-1.203,1.71c-0.318,0.482-0.632,0.97-0.946,1.458c-0.812,1.262-1.65,2.566-2.577,3.777
	c-0.002,0.002-0.003,0.004-0.005,0.006c-0.032,0.116-0.065,0.233-0.1,0.353c-0.304,1.053-0.646,2.247-0.07,3.147
	c0.574,0.842,1.479,0.91,2.601,0.91c0.093,0,0.18,0.042,0.236,0.115s0.077,0.167,0.055,0.257L7.48,34.982
	C7.419,35.227,7.359,35.462,7.319,35.7z M34.964,19.319H28.72c-0.206,0-0.391-0.081-0.534-0.233
	c-0.447-0.476-0.42-1.574-0.358-2.567c0.008-0.132,0.015-0.238,0.015-0.302c0-0.808,0.176-1.634,1.479-1.634h6.143
	c0.213,0,0.404,0.083,0.553,0.242c0.477,0.506,0.446,1.689,0.382,2.759c-0.009,0.139-0.016,0.249-0.016,0.315
	C36.383,18.829,35.893,19.319,34.964,19.319z M29.321,15.183c-0.649,0-0.88,0.156-0.88,1.034c0,0.072-0.007,0.19-0.016,0.339
	c-0.03,0.491-0.11,1.793,0.196,2.119c0.035,0.037,0.063,0.045,0.098,0.045h6.244c0.59,0,0.819-0.23,0.819-0.82
	c0-0.074,0.007-0.197,0.017-0.352c0.032-0.534,0.118-1.953-0.22-2.312c-0.042-0.044-0.076-0.053-0.116-0.053H29.321z"/>
<rect id="sliceCopy_x5F_27_1_" x="59.346" fill="none" width="52.805" height="40"/>
<rect id="sliceCopy_x5F_26_1_" fill="none" width="59.346" height="40"/>
</svg>
