<?xml version="1.0" encoding="utf-8"?>
<!-- Generator: Adobe Illustrator 15.1.0, SVG Export Plug-In  -->
<!DOCTYPE svg PUBLIC "-//W3C//DTD SVG 1.1//EN" "http://www.w3.org/Graphics/SVG/1.1/DTD/svg11.dtd" [
	<!ENTITY ns_flows "http://ns.adobe.com/Flows/1.0/">
]>
<svg version="1.1"
	 xmlns="http://www.w3.org/2000/svg" xmlns:xlink="http://www.w3.org/1999/xlink" xmlns:a="http://ns.adobe.com/AdobeSVGViewerExtensions/3.0/"
	 x="0px" y="0px" width="63px" height="40px" viewBox="0.945 0 63 40" enable-background="new 0.945 0 63 40" xml:space="preserve">
<defs>
</defs>
<path d="M36.485,36.3c-0.157,0-0.354-0.017-0.498-0.03c-0.066-0.005-0.119-0.011-0.146-0.011h-6.025
	c-0.088,0-0.159,0.004-0.22,0.007c-0.054,0.003-0.101,0.005-0.141,0.005c-0.263,0-0.424-0.105-0.557-0.363
	c-0.152-0.301-0.123-0.788-0.065-1.443c0.017-0.188,0.032-0.357,0.032-0.478v-8.13c-0.107,0.071-0.243,0.119-0.423,0.119
	c-1.97,0-1.97-0.473-1.97-0.629c0-0.184-0.02-0.44-0.041-0.717c-0.025-0.341-0.053-0.71-0.053-1.02c0-0.169,0.001-0.467,0-0.687
	h-4.974c-0.027,0.039-0.004,0.272,0.009,0.397c0.013,0.117,0.023,0.233,0.023,0.336c0,0.081-0.032,0.157-0.089,0.214
	c-0.058,0.057-0.132,0.079-0.216,0.086l-3.068-0.045c-0.071,0.137-0.165,0.449-0.213,0.611c-0.101,0.333-0.15,0.501-0.278,0.581
	c-0.055,0.07-0.159,0.254-0.176,0.321c0.003,0.263-0.103,0.424-0.196,0.566c-0.035,0.053-0.074,0.111-0.111,0.189
	c-0.123,0.254-0.223,0.522-0.319,0.782c-0.048,0.127-0.095,0.253-0.144,0.374c-0.037,0.094-0.051,0.167-0.065,0.236
	c-0.022,0.11-0.049,0.234-0.13,0.397l-0.111,0.218c-0.079,0.156-0.165,0.324-0.216,0.431c-0.148,0.318-0.223,0.589-0.316,0.931
	l-0.041,0.149c-0.028,0.103-0.095,0.209-0.173,0.332c-0.038,0.061-0.103,0.163-0.115,0.199l-0.06,0.184
	c-0.059,0.178-0.121,0.369-0.169,0.55c-0.02,0.074-0.033,0.129-0.04,0.167c0.045,0.054,0.097,0.12,0.152,0.22
	c0.053,0.09,0.274,0.579,0.274,0.804l0.003,0.2c0.013,0.551,0.028,1.306-0.554,1.575c-0.272,0.125-0.739,0.018-1.042-0.069
	c-0.071-0.021-0.13-0.04-0.167-0.045c-0.233-0.009-0.51-0.032-0.77-0.055c-0.203-0.018-0.396-0.035-0.551-0.042
	c-0.388-0.02-0.767-0.044-1.143-0.068c-0.66-0.042-1.313-0.083-1.987-0.101c-0.411-0.009-0.807-0.054-1.188-0.098
	c-0.445-0.051-0.905-0.104-1.42-0.104c-0.202,0-0.387-0.046-0.55-0.087c-0.109-0.027-0.218-0.056-0.33-0.065
	c-0.03-0.002-0.065-0.003-0.104-0.003l-0.343,0.005c-0.17,0-0.389-0.009-0.569-0.077c-0.178-0.067-0.303-0.185-0.364-0.337
	c-0.253-0.097-0.6-0.28-0.71-0.486c-0.138-0.252-0.134-0.495-0.13-0.73l0.001-0.115c0-0.715,0.136-1.257,0.279-1.831
	c0.05-0.199,0.102-0.404,0.149-0.626c0.051-0.235,0.136-0.461,0.218-0.68c0.057-0.152,0.115-0.307,0.162-0.468
	c0.029-0.094,0.06-0.179,0.084-0.249c0.063-0.186,0.126-0.258,0.185-0.32c0.041-0.062,0.045-0.137,0.047-0.186
	c0.007-0.161,0.017-0.38,0.186-0.548c0.523-0.521,0.942-1.459,1.279-2.214c0.244-0.547,0.552-0.994,0.849-1.425
	c0.226-0.327,0.438-0.635,0.584-0.929c0.09-0.183,0.204-0.319,0.306-0.44c0.035-0.042,0.069-0.083,0.101-0.124
	c0.08-0.113,0.261-0.387,0.316-0.49c0.021-0.301,0.2-0.522,0.358-0.72c0.134-0.167,0.249-0.31,0.249-0.464
	c0-0.127,0.256-0.788,0.258-0.794c0.054-0.139,0.127-0.24,0.186-0.321c0.084-0.118,0.102-0.142,0.079-0.261
	c-0.011-0.047-0.075-0.179-0.318-0.528c-0.059-0.084-0.106-0.169-0.157-0.26c-0.078-0.138-0.166-0.295-0.265-0.396
	c-0.323-0.319-0.388-0.587-0.392-1.016c-0.025,0.006-0.083-0.004-0.191-0.004c-0.138,0-0.287,0.016-0.422,0.029
	C7.703,16.2,7.588,16.21,7.502,16.21c-0.554,0-1.048-0.086-1.234-0.123c-0.277-0.055-0.445-0.253-0.58-0.413
	c-0.061-0.072-0.129-0.153-0.178-0.178c-0.123-0.061-0.253-0.207-0.437-0.422c-0.045-0.053-0.084-0.1-0.109-0.125
	c-0.216-0.218-0.463-0.508-0.463-0.823c0-0.113-0.019-0.299-0.038-0.506c-0.026-0.285-0.056-0.607-0.056-0.855v-2.348
	c0-0.279,0.027-0.586,0.054-0.868c0.021-0.222,0.04-0.428,0.04-0.587L4.499,8.859C4.493,8.62,4.483,8.22,4.874,8.09
	c0.063-0.021,0.075-0.034,0.125-0.086c0.037-0.038,0.076-0.079,0.13-0.122c0.072-0.057,0.149-0.088,0.217-0.116
	c0.003-0.001,0.005-0.002,0.007-0.003c0.029-0.093,0.064-0.176,0.132-0.24C5.554,7.459,5.949,7.23,6.02,7.202
	c0.04-0.016,0.048-0.025,0.086-0.068c0.036-0.042,0.087-0.101,0.167-0.156C6.575,6.769,6.938,6.55,7.244,6.393l0.114-0.057
	c0.95-0.469,0.961-0.655,0.953-0.688C8.286,5.541,8.323,5.427,8.407,5.354c0.075-0.067,0.179-0.092,0.278-0.062
	C8.72,5.093,8.804,4.955,8.884,4.865c0.18-0.205,0.458-0.313,0.804-0.313c0.004,0,0.075,0.002,0.08,0.002l0.115,0.003
	c0.337,0.008,1.038,0.023,1.038,0.578c0.002,0.074,0.052,0.386,0.088,0.53c0.072,0.018,0.372,0.022,0.628,0.007
	c0.108-0.007,0.209-0.012,0.288-0.012l17.685,0.043c-0.019-0.364-0.036-0.74,0.083-0.999c0.028-0.06,0.075-0.109,0.134-0.14
	c0.193-0.101,0.375-0.216,0.549-0.327C30.811,3.961,31.222,3.7,31.707,3.7c0.282,0,0.551,0.088,0.821,0.27
	c0.08,0.054,0.169,0.108,0.261,0.165c0.224,0.139,0.479,0.295,0.67,0.478c0.301,0.284,0.329,0.398,0.327,0.802
	c0,0.001-0.001,0.132-0.001,0.133c-0.003,0.174-0.003,0.3-0.002,0.391h19.592c-0.011-0.084-0.01-0.167,0.029-0.25
	c0.067-0.135,0.139-0.186,0.2-0.224c0.617-0.793,0.837-0.793,0.942-0.793c0.101,0,0.204-0.005,0.308-0.01
	c0.113-0.005,0.227-0.01,0.338-0.01c0.26,0,0.592,0.024,0.863,0.214c0.005,0.004,0.327,0.287,0.427,0.537
	c0.135,0.1,0.312,0.247,0.312,0.507c0,0.008-0.004,0.086-0.005,0.094c0,0.007-0.001,0.015-0.002,0.022
	c0.05,0.041,0.126,0.102,0.177,0.138c0.119,0.04,0.205,0.152,0.205,0.285c0,0.002,0,0.003,0,0.005
	c0.009,0.005,0.035,0.011,0.054,0.016c0.113,0.03,0.305,0.079,0.42,0.268c0.099,0.163,0.071,0.361,0.042,0.57
	c-0.009,0.061-0.022,0.154-0.023,0.211c0.202,0.211,0.26,0.681,0.26,0.737c0,0.014,0,0.028-0.001,0.044
	c0.067,0.045,0.132,0.102,0.184,0.165c0.074-0.004,0.15-0.01,0.228-0.015c0.4-0.028,0.814-0.04,1.1,0.031l0,0c0,0,0.001,0,0.002,0
	c0.084,0.021,0.151,0.077,0.19,0.148c0.014,0.011,0.029,0.022,0.044,0.033c0.153,0.013,0.273,0.142,0.273,0.299
	c0,0.007,0,0.014-0.001,0.021l-0.004,0.103c-0.003,0.055-0.007,0.116,0,0.15c0.049,0.283,0.033,0.578,0.019,0.863
	c-0.007,0.125-0.014,0.249-0.014,0.366v0.563c0,0.54-0.378,0.598-0.541,0.598c-0.061,0-0.13-0.006-0.207-0.014
	c-0.063-0.007-0.132-0.014-0.206-0.016c-0.099-0.002-0.229-0.015-0.373-0.03c-0.272-0.027-0.638-0.045-0.758-0.025
	c-0.031,0.135-0.071,0.368-0.075,0.433c0,0.171-0.212,0.665-0.459,0.826c-0.01,0.025-0.021,0.06-0.03,0.085
	c-0.04,0.116-0.085,0.248-0.185,0.349c-0.041,0.042-0.149,0.182-0.218,0.27c-0.003,0.004-0.006,0.007-0.009,0.011
	c-0.043,0.288-0.251,0.462-0.564,0.462c-0.105,0-0.224-0.021-0.335-0.042c-0.058-0.011-0.111-0.023-0.157-0.025
	c-0.736-0.036-1.521-0.051-2.542-0.051c-0.468,0-0.936,0.003-1.402,0.006c-0.468,0.003-0.936,0.006-1.401,0.006l-7.905-0.052l0,0
	c-0.08,0-0.131,0.011-0.181,0.02c-0.151,0.028-0.342,0.025-0.48,0.02l-0.091-0.002c-0.002,0.031-0.003,0.073-0.003,0.13v2.348
	c0,0.648-1.058,0.648-1.565,0.648c-0.223,0-0.438-0.007-0.609-0.013c-0.108-0.004-0.199-0.007-0.262-0.007
	c-0.264,0-0.498,0.391-0.725,0.768c-0.144,0.239-0.292,0.487-0.469,0.668c-0.049,0.049-0.104,0.101-0.163,0.155
	c-0.193,0.179-0.434,0.401-0.434,0.598v2.625c0.178,0.022,0.402,0.079,0.509,0.296c0.176,0.355,0.192,0.924,0.049,1.689l-0.02,0.104
	c-0.086,0.462-0.142,0.768-0.704,1.048c-0.257,0.128-0.351,0.264-0.402,0.578c-0.077,0.463-0.05,1-0.023,1.519
	c0.014,0.267,0.027,0.53,0.027,0.781v7.326c0,0.039,0.007,0.105,0.015,0.183c0.045,0.472,0.051,0.711-0.096,0.867
	C36.84,36.277,36.686,36.3,36.485,36.3z M29.816,35.66h6.025c0.033,0,0.105,0.005,0.197,0.013c0.124,0.011,0.292,0.026,0.43,0.027
	c-0.003-0.114-0.018-0.266-0.025-0.345c-0.009-0.102-0.017-0.189-0.017-0.24V27.79c0-0.24-0.014-0.493-0.026-0.75
	c-0.028-0.551-0.058-1.12,0.03-1.647c0.083-0.505,0.293-0.8,0.726-1.017c0.295-0.147,0.305-0.201,0.383-0.62l0.02-0.106
	c0.112-0.599,0.113-1.089,0.003-1.313c0.018,0.039-0.077,0.03-0.129,0.026c-0.109-0.01-0.441-0.039-0.441-0.348V19.15
	c0-0.459,0.361-0.794,0.625-1.038c0.052-0.047,0.101-0.092,0.143-0.135c0.127-0.13,0.252-0.338,0.384-0.557
	c0.298-0.496,0.635-1.059,1.238-1.059c0.067,0,0.165,0.003,0.282,0.007c0.166,0.005,0.373,0.013,0.589,0.013
	c0.662,0,0.893-0.073,0.966-0.108v-2.288c0-0.273,0-0.731,0.568-0.731l0.147,0.004c0.099,0.004,0.237,0.011,0.35-0.01
	c0.079-0.015,0.163-0.029,0.285-0.029l7.909,0.052c0.465,0,0.931-0.003,1.397-0.006c0.469-0.003,0.938-0.006,1.406-0.006
	c1.032,0,1.825,0.016,2.571,0.052c0.069,0.003,0.153,0.018,0.241,0.035c0.065,0.013,0.134,0.027,0.196,0.031
	c0.011-0.062,0.038-0.124,0.079-0.167l-0.008-0.007l0.056-0.07c0.081-0.104,0.212-0.269,0.261-0.319
	c0.008-0.012,0.031-0.082,0.046-0.123c0.047-0.138,0.109-0.32,0.279-0.401c0.062-0.076,0.166-0.272,0.179-0.342
	c0-0.003,0.044-0.737,0.276-0.888c0.131-0.089,0.322-0.131,0.599-0.131c0.197,0,0.42,0.022,0.617,0.042
	c0.126,0.013,0.241,0.024,0.328,0.027c0.092,0.002,0.176,0.011,0.252,0.019c0.028,0.003,0.056,0.006,0.081,0.008l0.006-0.558
	c0-0.127,0.007-0.261,0.014-0.397c0.014-0.252,0.026-0.513-0.01-0.726c-0.012-0.062-0.014-0.123-0.013-0.182
	c-0.052-0.034-0.103-0.073-0.146-0.116c-0.21-0.031-0.526-0.015-0.813,0.005c-0.173,0.012-0.341,0.024-0.493,0.024
	c-0.141,0-0.259-0.097-0.291-0.228c-0.114-0.016-0.216-0.098-0.254-0.213c0-0.001-0.001-0.003-0.001-0.004l0,0
	c-0.007-0.02-0.011-0.042-0.013-0.065c-0.016-0.103-0.01-0.18-0.005-0.244c0.001-0.113-0.046-0.294-0.083-0.374
	c-0.223-0.162-0.178-0.481-0.145-0.72c0.007-0.049,0.017-0.115,0.021-0.164c-0.014-0.003-0.027-0.007-0.039-0.01
	c-0.117-0.03-0.399-0.104-0.48-0.417c-0.049-0.036-0.106-0.083-0.18-0.141c-0.252-0.136-0.229-0.418-0.22-0.538
	c0.006-0.019-0.029-0.043-0.053-0.061c-0.068-0.05-0.188-0.137-0.22-0.286c-0.045-0.07-0.173-0.221-0.219-0.26
	c-0.132-0.093-0.456-0.107-0.818-0.089c-0.113,0.005-0.226,0.01-0.335,0.01c-0.001,0.023-0.218,0.245-0.446,0.541
	c-0.045,0.058-0.086,0.096-0.12,0.122c0.015,0.101,0.018,0.214-0.045,0.315c-0.007,0.063-0.029,0.127-0.067,0.172
	c-0.099,0.118-0.219,0.118-0.372,0.118H33.508c-0.08,0-0.16-0.034-0.217-0.091c-0.103-0.104-0.117-0.174-0.105-0.909l0.001-0.125
	c0.001-0.231,0.001-0.231-0.141-0.365c-0.146-0.14-0.363-0.273-0.572-0.402c-0.099-0.061-0.194-0.12-0.28-0.178
	c-0.496-0.335-0.929-0.084-1.496,0.275c-0.155,0.098-0.315,0.199-0.483,0.293c-0.029,0.161-0.015,0.444-0.005,0.642
	c0.006,0.118,0.011,0.229,0.011,0.325c0,0.166-0.134,0.3-0.3,0.3L11.964,6.26c-0.112,0-0.196,0.005-0.292,0.011
	c-0.389,0.024-0.896,0.09-1.145-0.221c-0.117-0.15-0.183-0.661-0.201-0.848C10.22,5.165,9.97,5.16,9.869,5.157l-0.13-0.004
	c-0.004,0-0.007,0-0.01,0c-0.212,0-0.335,0.039-0.396,0.108C9.262,5.343,9.263,5.485,9.276,5.589
	c0.014,0.106-0.03,0.212-0.115,0.277C9.075,5.931,8.96,5.945,8.864,5.905c-0.001,0-0.002,0-0.003,0
	c-0.187,0.451-0.845,0.776-1.237,0.97L7.517,6.928C7.233,7.073,6.896,7.276,6.614,7.471c-0.018,0.012-0.03,0.027-0.056,0.056
	C6.502,7.592,6.416,7.69,6.239,7.761C6.194,7.782,6.021,7.885,5.927,7.944C5.889,8.071,5.861,8.151,5.781,8.213
	C5.708,8.267,5.637,8.296,5.572,8.322C5.546,8.333,5.52,8.342,5.498,8.355c-0.023,0.02-0.045,0.042-0.065,0.063
	C5.364,8.491,5.27,8.589,5.065,8.659c0.025-0.005,0.031,0.108,0.033,0.185l0.002,0.118c0,0.174-0.02,0.399-0.042,0.642
	c-0.024,0.264-0.052,0.552-0.052,0.813v2.348c0,0.232,0.029,0.533,0.054,0.799c0.021,0.23,0.04,0.437,0.04,0.563
	c0,0.011,0.01,0.118,0.288,0.399c0.031,0.031,0.083,0.091,0.142,0.16c0.068,0.08,0.21,0.247,0.262,0.283
	c0.146,0.074,0.257,0.204,0.354,0.319c0.082,0.097,0.167,0.197,0.238,0.211c0.17,0.034,0.618,0.112,1.118,0.112
	c0.07,0,0.165-0.01,0.27-0.021c0.153-0.015,0.324-0.032,0.481-0.032c0.714,0,0.791,0.395,0.791,0.564
	c0,0.355,0.032,0.45,0.216,0.631c0.159,0.161,0.268,0.355,0.364,0.526c0.041,0.073,0.078,0.142,0.117,0.198
	c0.237,0.34,0.388,0.582,0.424,0.77c0.071,0.374-0.075,0.577-0.182,0.725c-0.046,0.064-0.086,0.119-0.113,0.191
	c-0.042,0.103-0.201,0.55-0.224,0.635c0.007,0.304-0.204,0.567-0.374,0.778c-0.123,0.152-0.229,0.284-0.229,0.404
	c0,0.066,0,0.178-0.431,0.784c-0.041,0.056-0.082,0.104-0.124,0.154c-0.087,0.104-0.17,0.203-0.229,0.321
	c-0.165,0.333-0.39,0.658-0.627,1.003c-0.282,0.409-0.573,0.833-0.775,1.287c-0.377,0.843-0.82,1.838-1.424,2.438
	c-0.003,0.013-0.007,0.094-0.009,0.147c-0.006,0.118-0.011,0.251-0.073,0.381c-0.05,0.101-0.104,0.157-0.14,0.194
	c0,0.001-0.053,0.106-0.053,0.107c-0.022,0.062-0.05,0.137-0.074,0.218c-0.051,0.174-0.114,0.342-0.176,0.507
	c-0.075,0.201-0.15,0.396-0.193,0.596c-0.049,0.229-0.103,0.441-0.153,0.646c-0.141,0.561-0.262,1.044-0.262,1.686l-0.001,0.125
	c-0.003,0.21-0.002,0.326,0.059,0.437c0.055,0.063,0.386,0.216,0.509,0.252l0,0c0.165,0,0.229,0.125,0.229,0.29l0,0
	c0.001,0,0.071,0.043,0.377,0.043l0.343-0.005c0.055,0,0.105,0.001,0.15,0.004c0.147,0.012,0.288,0.046,0.429,0.082
	c0.142,0.036,0.275,0.069,0.404,0.069c0.549,0,1.026,0.055,1.488,0.107c0.385,0.044,0.748,0.086,1.134,0.094
	c0.684,0.017,1.343,0.059,2.011,0.101c0.374,0.024,0.75,0.048,1.135,0.067c0.161,0.008,0.361,0.025,0.572,0.043
	c0.251,0.022,0.517,0.045,0.75,0.054c0.076,0.002,0.166,0.028,0.302,0.067c0.162,0.047,0.385,0.111,0.542,0.111
	c0.059,0,0.08-0.01,0.081-0.01c0.226-0.104,0.214-0.654,0.206-1.018l-0.003-0.212c-0.01-0.077-0.139-0.408-0.196-0.506
	c-0.043-0.077-0.072-0.111-0.102-0.144c-0.186-0.21-0.155-0.365-0.069-0.693c0.051-0.193,0.117-0.396,0.18-0.585l0.059-0.183
	c0.036-0.108,0.105-0.217,0.179-0.333c0.036-0.058,0.092-0.146,0.104-0.177l0.039-0.143c0.097-0.355,0.181-0.662,0.352-1.026
	c0.052-0.112,0.142-0.288,0.225-0.451l0.109-0.213c0.046-0.093,0.06-0.159,0.078-0.251c0.021-0.099,0.043-0.202,0.096-0.336
	c0.047-0.117,0.093-0.238,0.139-0.362c0.104-0.276,0.211-0.562,0.341-0.832c0.051-0.105,0.104-0.186,0.151-0.259
	c0.075-0.114,0.101-0.152,0.101-0.268c0-0.156,0.184-0.558,0.381-0.741c0.026-0.064,0.058-0.176,0.095-0.302
	c0.175-0.581,0.312-1.04,0.683-1.04l2.855,0.042c-0.03-0.295-0.057-0.624,0.143-0.845c0.075-0.083,0.214-0.183,0.447-0.184h5.265
	c0.08,0,0.156,0.032,0.213,0.088c0.1,0.1,0.1,0.1,0.097,1.137c0,0.357,0.027,0.71,0.052,1.036c0.018,0.239,0.034,0.464,0.04,0.645
	c0.23,0.083,0.893,0.147,1.372,0.147c0.095,0,0.123-0.026,0.233-0.214c0.071-0.121,0.159-0.271,0.311-0.384
	c0.091-0.067,0.213-0.078,0.313-0.027c0.102,0.051,0.165,0.155,0.165,0.268v8.967c0,0.134-0.016,0.323-0.034,0.531
	c-0.029,0.332-0.084,0.948,0.002,1.118l0.13,0.032C29.633,35.664,29.716,35.66,29.816,35.66z M26.916,20.952
	c-0.001,0-0.003,0-0.004,0l-0.797-0.005c-6.401-0.031-6.401-0.055-6.401-0.459c0-0.215,0.115-0.406,0.227-0.589
	c0.06-0.097,0.148-0.244,0.148-0.303c0-0.247,0.263-0.927,0.463-1.127c0.086-0.087,0.141-0.281,0.194-0.469
	c0.109-0.386,0.26-0.914,0.856-1.023c0.162-0.032,0.317,0.077,0.349,0.238c0.012,0.06,0.01,0.109,0.009,0.141l0.039,0.07
	c0.253,0.498,0.352,0.721,0.374,0.862c0.06,0.078,0.252,0.234,0.349,0.313c0.098,0.079,0.183,0.15,0.229,0.199
	c0.528,0.55,0.885,0.684,1.64,0.934c0.135,0.045,0.348-0.013,0.438-0.12c0.046-0.054,0.046-0.1,0.04-0.134
	c-0.03-0.018-0.267-0.146-0.394-0.214c-0.146-0.079-0.272-0.147-0.356-0.222c-0.511-0.455-1.111-1.062-1.223-1.722
	c-0.015-0.087,0.01-0.176,0.066-0.244c0.058-0.067,0.142-0.106,0.229-0.106h1.877c0.085,0,0.19-0.006,0.304-0.013
	c0.148-0.008,0.311-0.017,0.466-0.017c0.296,0,0.508,0.032,0.666,0.101c0.424,0.184,0.564,0.639,0.678,1.005
	c0.04,0.129,0.077,0.255,0.128,0.356c0.022,0.045,0.033,0.095,0.031,0.146c-0.002,0.045,0.024,0.102,0.068,0.192
	c0.043,0.087,0.085,0.179,0.113,0.281c0.05,0.198,0.035,0.315,0.022,0.419c-0.006,0.046-0.013,0.1-0.013,0.175
	c0,0.085-0.035,0.162-0.092,0.216c-0.029,0.045-0.075,0.123-0.121,0.199c-0.132,0.221-0.164,0.273-0.207,0.315
	c-0.126,0.124-0.126,0.124-0.103,0.247c0.017,0.088-0.008,0.18-0.065,0.249C27.089,20.913,27.005,20.952,26.916,20.952z
	 M24.846,20.34c0.516,0.003,0.964,0.005,1.272,0.007l0.499,0.003c0.039-0.179,0.146-0.301,0.275-0.428
	c0.005-0.012,0.059-0.103,0.113-0.194c0.052-0.088,0.094-0.158,0.131-0.214c0.003-0.056,0.009-0.102,0.014-0.144
	c0.011-0.082,0.014-0.109-0.008-0.193c-0.016-0.061-0.045-0.116-0.071-0.171c-0.053-0.107-0.115-0.236-0.127-0.396
	c-0.051-0.114-0.093-0.247-0.135-0.383c-0.085-0.274-0.172-0.558-0.343-0.632c-0.054-0.023-0.172-0.051-0.428-0.051
	c-0.145,0-0.295,0.008-0.433,0.016c-0.126,0.007-0.242,0.013-0.337,0.013h-1.452c0.234,0.43,0.699,0.844,0.901,1.024
	c0.032,0.028,0.158,0.096,0.242,0.141c0.32,0.173,0.652,0.352,0.7,0.645c0.037,0.224-0.025,0.444-0.175,0.62
	C25.334,20.182,25.097,20.305,24.846,20.34z M20.428,20.252c0.75,0.051,2.634,0.074,4.117,0.085
	c-0.049-0.008-0.097-0.019-0.143-0.034c-0.809-0.268-1.26-0.438-1.883-1.087c-0.034-0.036-0.102-0.089-0.177-0.15
	c-0.352-0.286-0.564-0.477-0.564-0.715c-0.013-0.041-0.113-0.258-0.297-0.62c-0.058,0.096-0.103,0.237-0.158,0.432
	c-0.074,0.261-0.15,0.53-0.347,0.728c-0.087,0.096-0.278,0.584-0.288,0.709c0,0.222-0.125,0.428-0.235,0.609
	C20.445,20.223,20.438,20.237,20.428,20.252z"/>
<rect id="sliceCopy_x5F_31_1_" x="63.669" fill="none" width="65.054" height="40"/>
<rect id="sliceCopy_x5F_30_1_" fill="none" width="63.669" height="40"/>
</svg>
