<?xml version="1.0" encoding="utf-8"?>
<!-- Generator: Adobe Illustrator 15.1.0, SVG Export Plug-In  -->
<!DOCTYPE svg PUBLIC "-//W3C//DTD SVG 1.1//EN" "http://www.w3.org/Graphics/SVG/1.1/DTD/svg11.dtd" [
	<!ENTITY ns_flows "http://ns.adobe.com/Flows/1.0/">
]>
<svg version="1.1"
	 xmlns="http://www.w3.org/2000/svg" xmlns:xlink="http://www.w3.org/1999/xlink" xmlns:a="http://ns.adobe.com/AdobeSVGViewerExtensions/3.0/"
	 x="0px" y="0px" width="84px" height="40px" viewBox="0.769 0 84 40" enable-background="new 0.769 0 84 40" xml:space="preserve">
<defs>
</defs>
<path d="M44.954,27.469c-0.296,0-0.848,0-0.848-0.417c0-0.379-0.018-0.401-0.302-0.768c-0.125-0.006-0.195,0.03-0.211,0.05
	l-0.058,0.079c-0.089,0.126-0.205,0.331-0.615,0.217c-0.308-0.063-0.538-0.111-0.585-0.343l-0.214-1.07
	c-0.253-1.258-0.81-2.125-1.703-2.65l-0.176-0.104c-0.449-0.268-1.008-0.601-1.48-0.659l-1.161-0.141
	c-1.222-0.148-2.099-0.038-3.042,0.371c-0.405,0.176-0.756,0.43-1.126,0.698c-0.164,0.119-0.328,0.238-0.499,0.351
	c-0.068,0.046-0.144,0.105-0.223,0.167c-0.218,0.17-0.464,0.364-0.728,0.429c-0.161,0.041-0.32,0.061-0.473,0.061
	c-0.632,0-1.084-0.345-1.521-0.679c-0.112-0.085-0.227-0.173-0.348-0.257c-0.006-0.004-0.064-0.041-0.285-0.041
	c-0.114,0-0.23,0.009-0.335,0.017c-0.089,0.007-0.17,0.013-0.235,0.013c-0.523,0.006-1.048,0.018-1.571,0.048
	c-2.831,0.164-5.64,0.403-8.756,0.676c-0.968,0.084-1.95,0.229-2.9,0.368l-0.72,0.104c-0.441,0.063-0.88,0.146-1.319,0.228
	l-0.404,0.075c-0.584,0.107-1.004,0.268-1.622,0.545c-0.367,0.166-0.735,0.344-1.105,0.522c-0.807,0.39-1.64,0.792-2.488,1.076
	c-0.106,0.035-0.213,0.074-0.319,0.112c-0.225,0.08-0.45,0.161-0.679,0.22c-0.654,0.172-1.197-0.006-1.766-0.261
	c-0.947-0.425-1.483-1.352-1.434-2.477c0.029-0.683,0.188-1.294,0.518-1.983c0.683-1.429,1.439-2.819,2.089-3.991
	c0.047-0.083,0.1-0.192,0.159-0.315c0.29-0.594,0.688-1.407,1.281-1.585c0.09-0.026,0.199-0.038,0.366-0.038l0.432,0.007
	c0.418,0,0.486-0.068,0.493-0.077l0,0c0,0,0.008-0.025-0.009-0.092c-0.025-0.105,0.009-0.215,0.088-0.289
	c0.078-0.074,0.19-0.101,0.294-0.067c0.22,0.069,0.337,0.106,0.399,0.106c0.054,0,0.137-0.046,0.341-0.19
	c0.236-0.167,0.55-0.198,0.825-0.225c0.083-0.008,0.162-0.016,0.232-0.027c0.664-0.113,1.303-0.256,1.953-0.406
	c2.791-0.644,5.77-1.149,9.375-1.591c2.088-0.256,4.237-0.341,6.316-0.422c0.967-0.038,1.931-0.076,2.89-0.13
	c2.611-0.148,5.201-0.168,7.61-0.168h1.127c0.023,0,0.055-0.003,0.088-0.007c0.159-0.014,0.319-0.017,0.43,0.03
	c0.23,0.097,0.35,0.252,0.429,0.354c0.009,0.011,0.019,0.023,0.027,0.035c0.01-0.006,0.026-0.013,0.046-0.024l0.069-0.036
	c0.433-0.229,0.645-0.207,1.066,0.052c0.108,0.065,0.146,0.072,0.149,0.072c-0.002-0.006,0.06-0.063,0.109-0.108
	c0.053-0.049,0.113-0.104,0.186-0.165c0.054-0.044,0.143-0.076,0.213-0.076c0.186,0,0.322,0.143,0.496,0.323
	c0.025,0.027,0.06,0.063,0.092,0.095c0.01-0.006,0.02-0.012,0.029-0.018c0.292-0.183,0.715-0.346,0.999-0.105
	c0.071,0.061,0.13,0.115,0.181,0.162c0.042,0.04,0.095,0.088,0.12,0.105c0-0.007,0.045-0.023,0.143-0.079
	c0.464-0.264,0.743-0.129,1.025,0.056c0.037,0.024,0.077,0.05,0.122,0.078c0.023-0.02,0.068-0.054,0.1-0.077
	c0.119-0.089,0.254-0.19,0.421-0.19c0.055,0,0.155,0.027,0.203,0.056c0.067,0.041,0.136,0.091,0.206,0.142
	c0.105,0.077,0.251,0.183,0.325,0.183l0.103-0.043c0.485-0.236,0.683-0.169,1.064,0.186c-0.007-0.01,0.087-0.07,0.138-0.103
	c0.118-0.076,0.24-0.154,0.388-0.154c0.076,0,0.206,0.051,0.262,0.104c0.051,0.047,0.104,0.107,0.158,0.168
	c0.06,0.068,0.172,0.195,0.222,0.21c0.053-0.028,0.118-0.056,0.177-0.081c0.16-0.069,0.3-0.128,0.465-0.128
	c0.226,0,0.411,0.116,0.563,0.23c0.151,0.114,0.188,0.115,0.188,0.115c0.027,0,0.115-0.036,0.192-0.068l0.18-0.072
	c0.434-0.168,0.685,0.111,0.782,0.252c0.063,0.091,0.085,0.115,0.135,0.126c-0.018-0.01,0.058-0.062,0.107-0.097
	c0.134-0.093,0.3-0.208,0.497-0.208c0.018,0,0.069,0.004,0.086,0.007l0.567,0.098c0.41,0.07,0.82,0.139,1.228,0.22
	c0.395,0.078,0.789,0.153,1.184,0.227c1.065,0.201,2.167,0.409,3.236,0.691c2.036,0.537,4.061,1.218,6.019,1.876l2.388,0.803
	c0.054,0.018,0.116,0.042,0.184,0.068c0.135,0.052,0.319,0.124,0.416,0.124l1.139-0.166c0.075-0.011,0.107-0.043,0.129-0.073
	c0.089-0.123,0.11-0.407,0.054-0.724c-0.034-0.186-0.093-0.231-0.286-0.383l-0.14-0.111c-0.415-0.344-0.896-0.558-1.405-0.785
	l-0.351-0.158c-0.2-0.092-0.411-0.161-0.62-0.23l-0.232-0.078c-0.36-0.118-0.709-0.256-0.773-0.563
	c-0.02-0.095-0.023-0.282,0.175-0.459c0.511-0.458,1.106-0.41,1.772-0.23c3.065,0.826,6.613,1.827,9.985,3.267l1.985,0.842
	c0.094,0.04,0.161,0.125,0.179,0.225s-0.018,0.203-0.093,0.272c-2.188,2.015-4.201,3.785-6.69,5.047
	c-3.671,1.863-8.037,3.033-12.977,3.476c-2.088,0.188-4.229,0.214-6.301,0.24c-0.96,0.012-1.918,0.023-2.872,0.051
	c-0.644,0.019-1.287,0.021-1.931,0.021l-3.722-0.001c-0.031,0-0.091,0.004-0.169,0.008C45.384,27.457,45.162,27.469,44.954,27.469z
	 M44.701,26.859c0.153,0.015,0.571,0.003,0.809-0.01c0.093-0.005,0.164-0.008,0.201-0.008l3.722,0c0.638,0,1.275-0.003,1.913-0.021
	c0.957-0.027,1.919-0.04,2.883-0.051c2.06-0.025,4.189-0.052,6.255-0.237c4.862-0.436,9.155-1.584,12.758-3.414
	c2.292-1.162,4.189-2.786,6.213-4.639l-1.558-0.66c-3.337-1.425-6.86-2.418-9.9-3.238c-0.484-0.13-0.808-0.204-1.106,0.004
	c0.054,0.023,0.128,0.052,0.23,0.085l0.273,0.092c0.23,0.076,0.462,0.153,0.683,0.255l0.344,0.155
	c0.523,0.233,1.065,0.475,1.543,0.871l0.127,0.101c0.222,0.173,0.431,0.337,0.508,0.748c0.052,0.292,0.099,0.828-0.158,1.183
	c-0.126,0.174-0.309,0.283-0.529,0.315l-1.127,0.166c-0.015,0.002-0.083,0.007-0.098,0.007c-0.209,0-0.435-0.087-0.634-0.165
	c-0.057-0.022-0.109-0.043-0.156-0.059l-2.388-0.803c-1.949-0.655-3.964-1.333-5.98-1.865c-1.049-0.276-2.14-0.482-3.195-0.681
	c-0.396-0.075-0.793-0.15-1.188-0.228c-0.402-0.08-0.807-0.148-1.212-0.217l-0.57-0.098c-0.002,0.008-0.087,0.067-0.138,0.103
	c-0.136,0.094-0.289,0.2-0.478,0.2c-0.021,0-0.078-0.006-0.099-0.01c-0.286-0.062-0.42-0.255-0.5-0.37
	c-0.018-0.026-0.042-0.061-0.053-0.07l-0.188,0.101c-0.359,0.149-0.635,0.132-0.972-0.122c-0.121-0.091-0.177-0.11-0.202-0.11
	c-0.043,0-0.129,0.037-0.229,0.08c-0.064,0.027-0.137,0.059-0.221,0.091c-0.353,0.133-0.665-0.15-0.864-0.375
	c-0.005-0.007-0.011-0.013-0.017-0.02c-0.006,0.003-0.011,0.007-0.016,0.01c-0.224,0.145-0.609,0.283-0.856,0.051
	c-0.105-0.099-0.198-0.186-0.23-0.201c0.011,0.011-0.09,0.06-0.179,0.103l-0.082,0.039c-0.333,0.162-0.699-0.042-0.96-0.234
	c-0.023-0.017-0.047-0.034-0.069-0.05c-0.015,0.012-0.033,0.026-0.048,0.038c-0.181,0.135-0.471,0.288-0.701,0.151
	c-0.08-0.047-0.147-0.091-0.207-0.13c-0.095-0.062-0.177-0.115-0.212-0.115c-0.017,0-0.066,0.007-0.188,0.077
	c-0.523,0.299-0.736,0.108-0.97-0.108c-0.045-0.042-0.097-0.09-0.159-0.143c-0.05,0.004-0.203,0.1-0.294,0.157
	c-0.075,0.046-0.147,0.091-0.215,0.125c-0.041,0.021-0.104,0.035-0.15,0.035l0,0c-0.19,0-0.33-0.146-0.507-0.331
	c-0.016-0.017-0.035-0.036-0.055-0.057l0,0c-0.229,0.209-0.485,0.406-0.978,0.107c-0.093-0.057-0.219-0.134-0.256-0.141
	c-0.022,0.005-0.122,0.057-0.219,0.108L41.78,13.47c-0.445,0.234-0.71-0.027-0.826-0.177c-0.064-0.084-0.105-0.134-0.185-0.167
	c-0.052,0.006-0.1,0.01-0.143,0.015c-0.055,0.005-0.104,0.009-0.144,0.009h-1.127c-2.4,0-4.979,0.021-7.577,0.167
	c-0.961,0.055-1.93,0.093-2.898,0.131c-2.067,0.081-4.205,0.166-6.269,0.418c-3.583,0.438-6.542,0.94-9.313,1.58
	c-0.633,0.146-1.308,0.298-1.988,0.413c-0.082,0.014-0.176,0.023-0.273,0.033c-0.192,0.019-0.431,0.042-0.538,0.118
	c-0.343,0.241-0.571,0.351-0.905,0.272c-0.023,0.057-0.053,0.104-0.082,0.141c-0.212,0.269-0.606,0.305-0.965,0.305L8.116,16.72
	c-0.137,0-0.182,0.009-0.194,0.013c-0.342,0.103-0.714,0.864-0.914,1.273c-0.064,0.133-0.123,0.252-0.173,0.343
	c-0.646,1.164-1.396,2.544-2.073,3.959c-0.296,0.62-0.433,1.144-0.459,1.75c-0.039,0.872,0.365,1.583,1.08,1.903
	c0.491,0.22,0.876,0.355,1.368,0.228c0.212-0.055,0.42-0.13,0.628-0.205c0.11-0.04,0.222-0.08,0.332-0.116
	c0.812-0.271,1.627-0.666,2.416-1.047c0.375-0.182,0.749-0.362,1.121-0.529c0.647-0.292,1.12-0.472,1.761-0.588l0.401-0.075
	c0.447-0.084,0.895-0.167,1.344-0.232l0.719-0.104c0.958-0.141,1.949-0.286,2.935-0.372c3.121-0.274,5.936-0.514,8.773-0.677
	c0.533-0.031,1.067-0.042,1.599-0.049c0.055-0.001,0.123-0.006,0.198-0.012c0.118-0.009,0.251-0.019,0.38-0.019
	c0.284,0,0.483,0.047,0.629,0.149c0.128,0.089,0.249,0.182,0.367,0.271c0.507,0.386,0.895,0.662,1.486,0.513
	c0.139-0.035,0.34-0.192,0.502-0.319c0.092-0.072,0.18-0.141,0.261-0.194c0.163-0.109,0.321-0.224,0.479-0.338
	c0.381-0.275,0.774-0.561,1.24-0.763c1.042-0.452,2.024-0.578,3.352-0.416l1.162,0.141c0.599,0.073,1.218,0.442,1.716,0.739
	l0.173,0.103c1.034,0.608,1.702,1.634,1.986,3.05l0.183,0.912c0.039,0.009,0.079,0.016,0.109,0.022
	c0.005,0.001,0.036,0.008,0.059,0.013l0.058-0.079c0.25-0.327,0.903-0.386,1.157-0.056C44.568,26.29,44.679,26.45,44.701,26.859z
	 M5.851,25.918c-0.084,0-0.163-0.014-0.235-0.041c-0.656-0.241-1.048-0.527-1.24-1.349c-0.093-0.392-0.016-0.759,0.224-1.061
	c0.479-0.604,1.609-0.763,2.228-0.299c0.025,0.019,0.048,0.042,0.065,0.067C7.268,23.771,7.529,24.239,7.21,25
	C7.057,25.363,6.388,25.918,5.851,25.918z M5.908,23.483c-0.338,0-0.667,0.141-0.839,0.358c-0.123,0.155-0.16,0.34-0.11,0.551
	c0.126,0.539,0.288,0.711,0.863,0.923c0.247-0.001,0.761-0.37,0.835-0.548c0.191-0.456,0.093-0.685-0.227-1.143
	C6.292,23.533,6.107,23.483,5.908,23.483z"/>
<rect id="sliceCopy_x5F_21_1_" x="84" fill="none" width="88" height="40"/>
<rect id="sliceCopy_x5F_20_1_" fill="none" width="84" height="40"/>
</svg>
