<?xml version="1.0" encoding="utf-8"?>
<!-- Generator: Adobe Illustrator 15.1.0, SVG Export Plug-In  -->
<!DOCTYPE svg PUBLIC "-//W3C//DTD SVG 1.1//EN" "http://www.w3.org/Graphics/SVG/1.1/DTD/svg11.dtd" [
	<!ENTITY ns_flows "http://ns.adobe.com/Flows/1.0/">
]>
<svg version="1.1"
	 xmlns="http://www.w3.org/2000/svg" xmlns:xlink="http://www.w3.org/1999/xlink" xmlns:a="http://ns.adobe.com/AdobeSVGViewerExtensions/3.0/"
	 x="0px" y="0px" width="88px" height="40px" viewBox="0.77 0 88 40" enable-background="new 0.77 0 88 40" xml:space="preserve">
<defs>
</defs>
<path d="M42.109,19.907c-0.671-0.544-1.339-0.974-2.125-1.444l-0.498-0.329c-0.012-0.007-0.022-0.015-0.033-0.022l-0.157-0.104
	l-0.001,0.001c-0.063-0.039-0.091-0.048-0.126-0.051c-3.776-2.185-8.271-2.799-12.23-3.198c-1.942-0.197-3.446-0.325-4.875-0.413
	l-2.094-0.14c-0.066-0.051-0.213-0.137-0.347-0.139c-0.1-0.024-0.213-0.033-0.329-0.04c-0.224-0.013-0.322-0.029-0.358-0.093
	c-0.239-0.425-0.458-0.808-0.712-1.188c-0.062-0.092-0.247-0.371-0.538-0.371c-0.19,0-0.438,0.111-0.545,0.638l-0.284,1.42
	c-0.209,1.047-0.421,1.904-1.074,2.612c-0.791,0.856-1.752,1.328-2.707,1.328c-0.256,0-0.515-0.034-0.746-0.094
	c-0.643-0.224-1.466-0.675-1.735-1.55c-0.097-0.311-0.103-0.68-0.108-1.037c-0.002-0.14-0.005-0.279-0.012-0.414
	c-0.044-0.833,0.37-1.674,0.77-2.488c0.092-0.187,0.183-0.371,0.266-0.551c0.248-0.537,0.324-0.938,0.016-1.518
	c-0.427-0.802-1.021-1.503-1.768-2.085L9.653,8.557C9.318,8.289,8.757,7.84,8.233,7.84c-0.225,0-0.425,0.081-0.58,0.234
	C7.247,8.473,6.954,9.009,6.696,9.481L6.49,9.854c-0.91,1.629-1.851,3.313-2.327,5.123c-0.598,2.268-0.485,4.637-0.377,6.927
	l0.021,0.451c0.057,1.239,0.12,2.645,0.682,3.766c0.258,0.566,0.551,1.125,0.835,1.667c0.141,0.269,0.281,0.538,0.418,0.807
	c0.091,0.18,0.181,0.366,0.272,0.554c0.452,0.93,0.965,1.984,1.755,2.7c0.229,0.208,0.491,0.314,0.776,0.314
	c0.879,0,1.722-1.039,2.225-1.659l0.149-0.182c0.37-0.442,0.738-0.933,0.824-1.624c0.052-0.419-0.141-0.764-0.311-1.068
	c-0.05-0.09-0.101-0.181-0.143-0.271c-0.259-0.561-0.435-1.064-0.536-1.539c-0.172-0.811-0.104-1.751,0.171-2.397
	c0.321-0.75,1.338-1.151,2.147-1.205c0.804-0.056,1.526,0.225,2.213,0.869l0.101,0.094c0.468,0.436,1.252,1.167,1.316,1.743
	c0.018,0.163,0.028,0.357,0.04,0.566c0.038,0.688,0.082,1.468,0.37,1.971c0.146,0.256,0.327,0.386,0.536,0.386
	c0.455,0,0.696-0.604,0.931-1.188c0.063-0.159,0.15-0.376,0.153-0.396c0.421-0.28,1.175-0.326,1.781-0.363
	c0.172-0.01,0.336-0.021,0.485-0.034c1.823-0.167,3.354-0.331,4.818-0.514c0.515-0.065,1.031-0.124,1.549-0.183
	c1.517-0.172,3.084-0.351,4.6-0.689c3.248-0.723,6.553-2.057,10.104-4.078c0.086-0.049,0.143-0.137,0.15-0.236
	C42.228,20.066,42.187,19.969,42.109,19.907z M31.835,23.893c-1.484,0.332-3.036,0.508-4.536,0.679
	c-0.521,0.059-1.039,0.118-1.556,0.183c-1.458,0.183-2.982,0.345-4.8,0.512c-0.144,0.014-0.301,0.023-0.466,0.033
	c-0.714,0.043-1.521,0.092-2.077,0.461c-0.143,0.095-0.22,0.275-0.379,0.673c-0.083,0.208-0.243,0.609-0.364,0.766
	c-0.008-0.011-0.016-0.023-0.024-0.039c-0.218-0.38-0.259-1.115-0.292-1.706c-0.012-0.222-0.023-0.427-0.043-0.599
	c-0.089-0.798-0.94-1.591-1.504-2.116l-0.099-0.092c-0.812-0.761-1.675-1.095-2.664-1.03c-1.019,0.068-2.235,0.58-2.657,1.567
	c-0.322,0.752-0.403,1.835-0.206,2.758c0.11,0.52,0.3,1.064,0.577,1.666c0.048,0.104,0.105,0.208,0.164,0.312
	c0.137,0.246,0.267,0.477,0.238,0.702c-0.06,0.479-0.298,0.844-0.689,1.313l-0.154,0.188c-0.499,0.616-1.491,1.858-2.133,1.279
	c-0.703-0.638-1.168-1.594-1.617-2.518c-0.093-0.192-0.185-0.38-0.277-0.563c-0.138-0.272-0.28-0.543-0.422-0.814
	c-0.28-0.534-0.569-1.086-0.825-1.647c-0.509-1.018-0.569-2.355-0.623-3.535l-0.021-0.452c-0.105-2.246-0.215-4.568,0.358-6.746
	c0.457-1.736,1.379-3.386,2.271-4.982l0.208-0.378c0.25-0.457,0.508-0.929,0.852-1.266C8.118,8.458,8.166,8.44,8.233,8.44
	c0.313,0,0.789,0.381,1.046,0.585l0.108,0.086c0.68,0.53,1.22,1.167,1.607,1.895c0.183,0.343,0.177,0.536-0.031,0.984
	c-0.081,0.176-0.169,0.355-0.259,0.538c-0.414,0.842-0.883,1.796-0.831,2.785c0.007,0.127,0.009,0.259,0.012,0.392
	c0.006,0.399,0.014,0.812,0.134,1.203c0.269,0.87,1.019,1.559,2.135,1.947c1.409,0.372,2.915-0.151,4.069-1.4
	c0.758-0.821,1.001-1.8,1.221-2.901l0.284-1.42c0.003-0.012,0.005-0.023,0.008-0.034c0.237,0.357,0.446,0.724,0.676,1.131
	c0.202,0.359,0.59,0.383,0.846,0.398c0.078,0.005,0.155,0.007,0.221,0.024c0.024,0.005,0.098,0.029,0.121,0.029
	c0.056,0.043,0.16,0.125,0.335,0.135l2.092,0.13c1.421,0.088,2.917,0.215,4.852,0.411c4.175,0.421,8.947,1.082,12.768,3.601
	l0.007,0.004c0.001,0,0.001,0.001,0.002,0.001c0.004,0.002,0.008,0.005,0.013,0.008c0.634,0.38,1.184,0.728,1.715,1.128
	C38.032,21.967,34.905,23.209,31.835,23.893z M7.066,13.981c0.071,0.033,0.141,0.065,0.206,0.099
	c0.121,0.062,0.242,0.128,0.364,0.194c0.263,0.143,0.528,0.287,0.801,0.399c0.185,0.077,0.335,0.112,0.471,0.112
	c0.542,0,0.658-0.552,0.714-0.816c0.022-0.104,0.063-0.254,0.11-0.432c0.343-1.281,0.606-2.469,0.082-2.915l-0.192-0.167
	C9.25,10.128,8.865,9.79,8.294,9.689C8.276,9.687,8.187,9.678,8.169,9.678c-0.641,0-1.022,0.813-1.275,1.352
	c-0.039,0.083-0.074,0.158-0.104,0.215c0,0,0,0.001-0.001,0.001v0c0,0.001-0.001,0.002-0.001,0.003c0,0-0.002,0.002-0.002,0.003
	c-0.001,0-0.001,0-0.001,0v0c0,0,0,0,0,0.001c-0.001,0.001-0.002,0.002-0.002,0.003c-0.001,0.001-0.001,0.002-0.002,0.003
	c-0.037,0.071-0.093,0.161-0.154,0.263c-0.323,0.529-0.765,1.254-0.475,1.765C6.359,13.653,6.735,13.828,7.066,13.981z
	 M7.132,11.848c0.013-0.014,0.024-0.028,0.037-0.044l0.004,0.002l0.01-0.019c0.108-0.142,0.201-0.34,0.257-0.487l0.019-0.037
	L7.453,11.26c0.005-0.014,0.01-0.027,0.014-0.039c0.146-0.31,0.461-0.941,0.723-0.941c0,0,0,0,0.001,0
	c0.405,0.071,0.697,0.328,1.035,0.626l0.2,0.174c0.186,0.157,0.094,0.932-0.272,2.303c-0.051,0.19-0.094,0.35-0.118,0.462
	c-0.057,0.27-0.1,0.33-0.109,0.34c0.002,0.001-0.06,0.018-0.26-0.065c-0.252-0.104-0.498-0.239-0.742-0.372
	c-0.126-0.069-0.252-0.137-0.378-0.202c-0.072-0.037-0.148-0.072-0.227-0.108c-0.262-0.122-0.533-0.248-0.646-0.446
	C6.559,12.792,6.968,12.116,7.132,11.848z M9.978,27.124c-0.061-0.316-0.124-0.644-0.247-0.942
	c-0.148-0.359-0.424-0.558-0.775-0.558c-0.349,0-0.696,0.187-1.052,0.395c-0.325,0.19-0.637,0.407-0.947,0.624l-0.318,0.219
	c-0.543,0.366-0.153,1.018,0.013,1.296l0.05,0.083c0.295,0.523,0.592,1.033,0.967,1.521c0.191,0.251,0.461,0.539,0.845,0.539
	c0.273,0,0.522-0.146,0.781-0.346l0.002,0.003l0.054-0.044c0,0,0.001-0.001,0.002-0.001l0.139-0.116
	c0.002-0.001,0.004-0.003,0.005-0.004h0.001c0.005-0.004,0.01-0.009,0.015-0.013c0.049-0.047,0.111-0.095,0.175-0.146
	c0.267-0.209,0.63-0.497,0.565-0.921l-0.046-0.339c-0.036-0.278-0.072-0.558-0.139-0.827C10.033,27.412,10.006,27.269,9.978,27.124z
	 M9.313,29.163c-0.08,0.063-0.156,0.124-0.203,0.169l-0.003,0.002c-0.229,0.191-0.461,0.368-0.596,0.368
	c-0.09,0-0.214-0.102-0.368-0.304c-0.353-0.458-0.637-0.948-0.922-1.452l-0.056-0.096c-0.157-0.262-0.226-0.425-0.191-0.492
	l0.324-0.224c0.298-0.208,0.596-0.416,0.907-0.598c0.213-0.124,0.534-0.312,0.749-0.312c0.058,0,0.144,0,0.221,0.187
	c0.101,0.242,0.157,0.539,0.213,0.826c0.029,0.154,0.059,0.307,0.095,0.452c0.061,0.248,0.093,0.505,0.125,0.761l0.048,0.353
	C9.669,28.883,9.42,29.079,9.313,29.163z M9.243,17.612l-2.271-1.956c-0.445-0.383-1.298-0.238-1.68,0.233
	c-0.401,0.492-0.465,1.218-0.516,1.801l-0.012,0.131c-0.066,0.705-0.134,1.625-0.072,2.482c0.016,0.222,0.026,0.448,0.038,0.678
	c0.05,0.965,0.1,1.963,0.461,2.86c0.333,0.826,0.934,0.95,1.262,0.95c0.408,0,0.838-0.18,1.213-0.506l1.855-1.623
	c0.055-0.026,0.1-0.068,0.13-0.119l0.466-0.457c0.004-0.004,0.009-0.008,0.014-0.013l0.046-0.045v0
	c0.362-0.36,0.775-0.786,1.155-1.26c0.19-0.237,0.451-0.562,0.101-1.013C10.805,18.952,10.011,18.271,9.243,17.612z M10.848,20.413
	c-0.363,0.454-0.783,0.883-1.146,1.241l-0.513,0.503l-0.001,0c-0.003,0.003-0.007,0.007-0.01,0.01l-1.907,1.666
	c-0.578,0.503-1.244,0.477-1.523-0.216c-0.323-0.804-0.371-1.75-0.418-2.667c-0.012-0.233-0.023-0.464-0.04-0.69
	c-0.058-0.814,0.008-1.702,0.072-2.384l0.012-0.135c0.044-0.501,0.099-1.125,0.383-1.475c0.115-0.142,0.347-0.245,0.551-0.245
	c0.078,0,0.188,0.015,0.272,0.088l2.271,1.956c0.746,0.64,1.517,1.301,2.107,2.058c0.035,0.045,0.045,0.069,0.047,0.069
	C10.995,20.229,10.919,20.324,10.848,20.413z M50.647,32.11c-1.111,0-1.82-1.474-2.29-2.449c-0.07-0.147-0.134-0.279-0.19-0.387
	c-0.321-0.614-0.633-1.234-0.944-1.854L46.84,26.66c-0.943-1.858-0.994-3.992-1.044-6.055l-0.008-0.305
	c-0.033-1.336,0.011-2.504,0.134-3.572c0.18-1.541,0.662-3.009,1.614-4.909c0.455-0.904,0.946-1.863,1.505-2.785l0.093-0.16
	c0.218-0.389,0.518-0.922,0.978-1.015c0.877-0.178,1.928,0.889,2.461,1.444c0.554,0.58,0.93,1.23,1.195,1.732
	c0.235,0.439-0.061,1.014-0.277,1.434c-0.037,0.071-0.071,0.137-0.097,0.193l-0.148,0.316c-0.165,0.349-0.335,0.709-0.466,1.07
	c-0.341,0.942-0.386,2.404,0.13,3.22c0.423,0.668,1.356,1.117,2.322,1.117c0.35,0,0.681-0.062,0.958-0.18
	c1.377-0.585,2.194-1.563,2.573-3.079c0.064-0.256,0.108-0.536,0.152-0.819c0.08-0.505,0.162-1.027,0.359-1.473
	c0.132-0.297,0.311-0.448,0.531-0.448c0.388,0,0.605,0.453,0.858,0.978c0.095,0.198,0.239,0.498,0.312,0.557
	c1.092,0.417,2.452,0.456,3.769,0.493c0.436,0.013,0.867,0.025,1.286,0.051c1.183,0.072,2.38,0.208,3.538,0.338
	c0.546,0.062,1.091,0.123,1.636,0.179c1.237,0.125,2.46,0.397,3.644,0.662l0.722,0.16c2.989,0.653,5.491,2.058,7.797,3.442
	l0.822,0.661c0.078,0.062,0.119,0.159,0.111,0.258s-0.064,0.188-0.15,0.237c-4.414,2.51-8.308,3.95-11.904,4.402l-6.108,0.767
	c-0.669,0.084-1.342,0.144-2.014,0.203c-0.783,0.069-1.593,0.14-2.381,0.252l-0.172,0.022c-0.422,0.052-0.703,0.104-0.78,0.333
	c-0.137,0.413-0.308,0.738-0.539,1.13c-0.133,0.225-0.295,0.34-0.482,0.34l0,0c-0.603,0-0.81-1.303-0.87-1.864
	c-0.013-0.106-0.021-0.216-0.031-0.325c-0.032-0.386-0.063-0.751-0.233-1.058c-0.402-0.72-1.092-1.466-1.801-1.948
	c-0.422-0.287-0.963-0.444-1.523-0.444c-1.021,0-2.221,0.554-2.446,1.772c-0.176,0.944-0.106,1.795,0.217,2.68
	c0.081,0.224,0.185,0.431,0.285,0.633c0.299,0.604,0.608,1.228,0.275,2.038c-0.422,1.03-1.482,2.188-2.413,2.638
	C51.036,32.063,50.841,32.11,50.647,32.11z M50.32,8.438c-0.03,0-0.061,0.002-0.09,0.008c-0.191,0.039-0.449,0.499-0.574,0.72
	l-0.102,0.178c-0.548,0.903-1.033,1.851-1.482,2.743c-0.918,1.833-1.384,3.242-1.555,4.709c-0.12,1.039-0.162,2.18-0.13,3.488
	l0.008,0.306c0.048,1.997,0.098,4.061,0.979,5.799l0.384,0.763c0.311,0.617,0.62,1.233,0.939,1.845
	c0.06,0.113,0.126,0.251,0.2,0.405c0.434,0.9,1.175,2.459,2.067,2.03c0.788-0.381,1.759-1.446,2.12-2.326
	c0.229-0.56,0.015-0.994-0.259-1.544c-0.109-0.221-0.222-0.449-0.312-0.694c-0.361-0.989-0.438-1.941-0.242-2.995
	c0.287-1.555,1.775-2.263,3.036-2.263c0.679,0,1.34,0.195,1.861,0.548c0.792,0.539,1.535,1.344,1.986,2.152
	c0.234,0.419,0.271,0.867,0.309,1.3c0.009,0.104,0.017,0.207,0.028,0.309c0.039,0.359,0.162,0.937,0.281,1.215
	c0.194-0.334,0.333-0.604,0.446-0.944c0.201-0.606,0.821-0.683,1.274-0.738l0.162-0.021c0.803-0.115,1.621-0.187,2.412-0.256
	c0.665-0.059,1.33-0.117,1.992-0.201l6.108-0.767c3.412-0.429,7.112-1.775,11.298-4.112l-0.445-0.36
	c-2.229-1.334-4.682-2.713-7.582-3.347l-0.725-0.161c-1.166-0.26-2.371-0.529-3.573-0.65c-0.547-0.056-1.095-0.117-1.643-0.179
	c-1.15-0.13-2.34-0.264-3.508-0.336c-0.412-0.025-0.837-0.037-1.267-0.049c-1.366-0.039-2.779-0.079-3.995-0.548
	c-0.237-0.09-0.379-0.365-0.608-0.842c-0.08-0.166-0.2-0.417-0.296-0.557c-0.001,0.003-0.003,0.007-0.004,0.01
	c-0.165,0.373-0.241,0.856-0.315,1.323c-0.047,0.301-0.095,0.599-0.163,0.872c-0.422,1.688-1.377,2.829-2.921,3.485
	c-0.351,0.149-0.763,0.228-1.192,0.228c-1.182,0-2.293-0.548-2.83-1.396c-0.644-1.02-0.581-2.656-0.187-3.745
	c0.141-0.387,0.316-0.761,0.487-1.122l0.146-0.312c0.029-0.063,0.067-0.136,0.108-0.216c0.119-0.231,0.368-0.714,0.281-0.876
	c-0.374-0.706-0.701-1.182-1.095-1.594C51.803,9.368,50.911,8.438,50.32,8.438z M50.986,14.786c-0.136,0-0.286-0.036-0.471-0.112
	c-0.271-0.112-0.535-0.255-0.797-0.397c-0.123-0.067-0.246-0.133-0.369-0.196c-0.066-0.034-0.137-0.067-0.208-0.1
	c-0.331-0.154-0.706-0.328-0.911-0.692c-0.292-0.51,0.152-1.238,0.478-1.77c0.062-0.102,0.117-0.191,0.154-0.261
	c0-0.001,0.001-0.001,0.001-0.002l0,0c0.002-0.001,0.002-0.002,0.002-0.003c0.03-0.058,0.065-0.133,0.105-0.218
	c0.253-0.539,0.635-1.354,1.277-1.354c0.017,0,0.107,0.008,0.125,0.011c0.57,0.101,0.955,0.439,1.328,0.767l0.191,0.166
	c0.525,0.447,0.26,1.636-0.084,2.919c-0.047,0.176-0.087,0.325-0.109,0.428C51.645,14.234,51.528,14.786,50.986,14.786z
	 M49.224,11.825c-0.001,0.002-0.003,0.004-0.004,0.006c-0.16,0.262-0.585,0.957-0.468,1.16c0.111,0.198,0.382,0.323,0.643,0.445
	c0.079,0.037,0.156,0.073,0.229,0.11c0.127,0.065,0.254,0.134,0.382,0.204c0.243,0.132,0.488,0.266,0.739,0.37
	c0.2,0.083,0.261,0.067,0.26,0.065c0.007-0.007,0.051-0.063,0.108-0.339c0.024-0.112,0.066-0.271,0.117-0.458
	c0.367-1.373,0.46-2.149,0.274-2.307l-0.199-0.173c-0.339-0.298-0.632-0.555-1.035-0.626c-0.001,0-0.001,0-0.001,0
	c-0.27,0-0.595,0.667-0.736,0.967c-0.001,0.003-0.002,0.006-0.003,0.009l0.009,0.004l-0.04,0.076
	c-0.053,0.127-0.129,0.275-0.208,0.395l-0.039,0.075l-0.01-0.005C49.235,11.81,49.229,11.817,49.224,11.825z M50.59,30.302
	c-0.383,0-0.653-0.288-0.846-0.539c-0.374-0.49-0.67-1-0.965-1.522l-0.047-0.078c-0.168-0.279-0.563-0.934-0.017-1.302l0.318-0.22
	c0.311-0.216,0.622-0.432,0.945-0.623c0.356-0.208,0.705-0.395,1.054-0.395c0.352,0,0.626,0.198,0.774,0.558
	c0.125,0.3,0.188,0.631,0.25,0.95c0.027,0.142,0.055,0.282,0.087,0.415c0.063,0.265,0.1,0.54,0.135,0.813
	c0.016,0.118,0.031,0.235,0.049,0.352c0.063,0.425-0.3,0.712-0.565,0.922c-0.063,0.05-0.125,0.098-0.174,0.145
	c-0.005,0.005-0.011,0.01-0.016,0.014l-0.145,0.121c-0.001,0-0.001,0-0.001,0l-0.055,0.045l-0.003-0.003
	C51.111,30.156,50.862,30.302,50.59,30.302z M51.033,26.225c-0.215,0-0.537,0.188-0.75,0.313c-0.31,0.182-0.608,0.39-0.906,0.598
	l-0.324,0.224c-0.034,0.068,0.035,0.231,0.194,0.496l0.053,0.09c0.286,0.505,0.57,0.995,0.921,1.454
	c0.154,0.201,0.278,0.303,0.369,0.303c0.135,0,0.367-0.178,0.599-0.37v0c0.047-0.045,0.123-0.105,0.202-0.168
	c0.106-0.084,0.356-0.281,0.344-0.362c-0.019-0.12-0.034-0.242-0.05-0.364c-0.032-0.251-0.064-0.504-0.124-0.749
	c-0.034-0.143-0.063-0.292-0.092-0.442c-0.056-0.29-0.113-0.59-0.216-0.834C51.176,26.225,51.09,26.225,51.033,26.225z
	 M48.531,24.792c-0.328,0-0.929-0.124-1.262-0.95c-0.361-0.897-0.411-1.895-0.461-2.86c-0.012-0.229-0.022-0.456-0.038-0.678
	c-0.062-0.854,0.006-1.775,0.071-2.482l0.013-0.137c0.051-0.582,0.115-1.305,0.515-1.795c0.384-0.471,1.235-0.615,1.681-0.233
	l2.286,1.969c0.763,0.655,1.552,1.333,2.175,2.131c0.351,0.451,0.09,0.775-0.101,1.013c-0.387,0.482-0.799,0.906-1.156,1.261l0,0
	c-0.001,0.001-0.003,0.003-0.004,0.004c-0.003,0.003-0.006,0.005-0.009,0.008l-0.001,0c0,0.001-0.001,0.001-0.002,0.002
	l-0.001,0.001l0,0v0l-0.571,0.56c-0.008,0.008-0.017,0.016-0.025,0.022l-1.897,1.657C49.369,24.612,48.938,24.792,48.531,24.792z
	 M48.386,16.023c-0.204,0-0.436,0.103-0.552,0.245c-0.283,0.348-0.338,0.97-0.382,1.469l-0.013,0.14
	c-0.063,0.685-0.129,1.574-0.071,2.384c0.017,0.226,0.028,0.457,0.04,0.69c0.047,0.916,0.095,1.863,0.418,2.667
	c0.279,0.692,0.944,0.719,1.522,0.216l1.903-1.662l0.567-0.556c0,0,0,0,0.001-0.001c0.346-0.344,0.749-0.756,1.105-1.202
	c0.071-0.089,0.147-0.184,0.158-0.219c-0.002,0-0.012-0.024-0.047-0.069c-0.586-0.751-1.352-1.409-2.092-2.044l-2.286-1.969
	C48.574,16.039,48.463,16.023,48.386,16.023z"/>
<rect id="sliceCopy_x5F_16_1_" x="88.001" fill="none" width="88" height="40"/>
<rect id="sliceCopy_x5F_15_1_" fill="none" width="88.001" height="40"/>
</svg>
