<?xml version="1.0" encoding="utf-8"?>
<!-- Generator: Adobe Illustrator 15.1.0, SVG Export Plug-In  -->
<!DOCTYPE svg PUBLIC "-//W3C//DTD SVG 1.1//EN" "http://www.w3.org/Graphics/SVG/1.1/DTD/svg11.dtd" [
	<!ENTITY ns_flows "http://ns.adobe.com/Flows/1.0/">
]>
<svg version="1.1"
	 xmlns="http://www.w3.org/2000/svg" xmlns:xlink="http://www.w3.org/1999/xlink" xmlns:a="http://ns.adobe.com/AdobeSVGViewerExtensions/3.0/"
	 x="0px" y="0px" width="136px" height="40px" viewBox="0.353 0 136 40" enable-background="new 0.353 0 136 40"
	 xml:space="preserve">
<defs>
</defs>
<path d="M32.412,32.3c-0.013,0-0.025,0-0.038-0.002l-3.152-0.404l-3.072-0.498l-1.761-0.598c-0.046-0.016-0.088-0.043-0.122-0.079
	l-1.26-1.351l-1.332-1.196l-0.754-0.553h-5.543l-0.409,2.627c-0.06,0.455-0.306,0.577-0.473,0.605l-0.483,0.282
	c-0.066,0.037-0.141,0.049-0.212,0.035l-1.531-0.314l-2.912,0.006l-2.249,0.357l-2.508,0.538L4.225,31.76
	c-0.08,0-0.156-0.032-0.213-0.088l-0.135-0.136c-0.047-0.048-0.077-0.11-0.085-0.176l-0.09-0.765L3.7,25.382l0.225-4.024v-2.955
	c0-0.498,0.614-0.832,1.077-1.039c0.032-0.015,0.067-0.023,0.103-0.026l4.008-0.271l1.068-0.002l0.752-0.523
	c0.052-0.04,0.115-0.061,0.181-0.061H21.83c0.344,0.041,0.646,0.206,0.933,0.494l1.127,1.128h11.815l0.292-0.917l0.219-1.093
	L36.21,15.88c0-0.166,0.134-0.3,0.3-0.3h0.09l3.459-0.644c0.08-0.096,0.195-0.175,0.346-0.235c0.035-0.014,0.073-0.021,0.111-0.021
	h3.483v-0.526h-1.097l-1.077,0.178l-2.173,0.27l-2.532,0.227l-2.25-0.134c-0.115-0.007-0.217-0.08-0.26-0.188l-0.09-0.225
	c-0.015-0.035-0.021-0.073-0.021-0.111v-0.135l-0.136-1.916l-0.001-1.237c0-0.327,0.073-0.558,0.226-0.708l0.088-0.088
	c0.056-0.057,0.133-0.089,0.213-0.089h0.225l0.917-0.089l4.695-0.271l1.84,0.136l3.894,0l1.931-0.046l0.969-0.069V9.23l-0.07-0.171
	c-0.015-0.036-0.021-0.075-0.021-0.113V8.226c0-0.159,0.123-0.29,0.281-0.299l3.738-0.226c0.152-0.01,0.301,0.073,0.346,0.199
	l0.449,1.262c0.039,0.109,0.012,0.231-0.07,0.313l-0.027,0.028h5.896l2.117-0.313l2.938-0.316l2.754-0.226l1.547,0.181
	c0.053,0.006,0.103,0.026,0.145,0.059l0.18,0.136c0.074,0.056,0.117,0.142,0.119,0.234l0.088,5.039
	c0.012,0.031,0.018,0.064,0.018,0.099c0,0.075-0.027,0.143-0.072,0.195h61.579c0.166,0,0.3,0.134,0.3,0.3v0.115l0.385,0.899
	l0.148,0.63c0.008,0.432-0.186,0.899-0.584,1.495l-0.127,0.212c-0.054,0.09-0.151,0.146-0.257,0.146H83.638v0.211h3.212
	c0.166,0,0.3,0.134,0.3,0.3v2.938l0.408,0.408c0.317,0.243,0.492,0.686,0.492,1.292l-0.099,0.433
	c-0.008,0.033-0.022,0.065-0.041,0.094l-0.04,0.104c0,0.04-0.008,0.079-0.022,0.115l-0.225,0.54
	c-0.047,0.112-0.156,0.185-0.277,0.185H69.068l-0.02,0.04l0.362,0.348c0.08,0.081,0.108,0.199,0.073,0.308l-0.225,0.676
	c-0.041,0.123-0.156,0.205-0.285,0.205h-1.803c-0.08,0-0.156-0.032-0.213-0.088l-0.225-0.226c-0.026-0.026-0.048-0.058-0.063-0.092
	l-0.584-1.351c-0.324-0.745-0.362-1.385-0.114-1.906c0.006-0.09,0.021-0.174,0.046-0.25l-4.886-0.05l-5.319,1.476
	c-0.481,0.114-0.709,0.191-0.815,0.234v2.989c0,0.154-0.116,0.282-0.269,0.298l-10.311,1.08c-0.088,0.006-0.169-0.019-0.232-0.075
	c-0.063-0.057-0.099-0.138-0.099-0.223v-2.933c-0.375,0.027-0.453,0.101-0.457,0.104l-0.765,0.631l-1.4,0.75
	c-0.035,0.019-0.074,0.031-0.114,0.034l-2.07,0.182c-0.835-0.062-1.727-0.38-2.694-0.948l-0.032,0.016
	c-0.042,0.021-0.089,0.032-0.136,0.032h-0.071l-0.035,1.104l-0.318,1.843l-0.551,1.75c-0.01,0.029-0.022,0.057-0.04,0.082
	l-0.631,0.9c-0.05,0.071-0.128,0.117-0.214,0.126l-2.115,0.226C32.434,32.299,32.423,32.3,32.412,32.3z M24.654,30.254l1.641,0.562
	l3.013,0.484l3.107,0.398l1.945-0.207l0.525-0.751l0.527-1.667l0.305-1.762l0.041-1.353c0.005-0.162,0.138-0.29,0.3-0.29h0.29
	l0.115-0.059c0.093-0.046,0.202-0.043,0.291,0.011c0.943,0.572,1.792,0.891,2.524,0.949l1.96-0.176l1.298-0.69l0.672-0.554
	c0.141-0.188,0.519-0.292,1.18-0.292c0.166,0,0.3,0.134,0.3,0.3v2.909l9.711-1.017v-2.882c0-0.059,0.018-0.117,0.05-0.167
	c0.086-0.128,0.236-0.253,1.218-0.486l5.346-1.483c0.027-0.008,0.063-0.009,0.084-0.011l8.736,0.09
	c0.143,0.001,0.264,0.102,0.291,0.242c0.028,0.14-0.046,0.279-0.177,0.334c-0.603,0.255-1.143,0.384-1.604,0.384
	c-0.088,0-0.171-0.038-0.228-0.105c-0.03-0.035-0.228-0.209-1.169-0.209h-0.135c-0.196,0-0.241,0.045-0.241,0.24
	c0,0.049-0.012,0.098-0.035,0.141c-0.193,0.362-0.159,0.85,0.103,1.45l0.562,1.299l0.097,0.097h1.461l0.098-0.294l-0.185-0.183
	l-0.168-0.092c-0.134-0.081-0.183-0.251-0.113-0.391l0.225-0.45c0.051-0.102,0.155-0.166,0.269-0.166h18.263l0.125-0.376
	c0-0.059,0.018-0.117,0.05-0.167l0.062-0.091l0.077-0.31c-0.009-0.338-0.105-0.622-0.297-0.77l-0.524-0.521
	c-0.057-0.056-0.088-0.132-0.088-0.212v-2.762h-3.212c-0.166,0-0.3-0.134-0.3-0.3v-0.811c0-0.166,0.134-0.3,0.3-0.3h47.648
	l0.048-0.079c0.413-0.619,0.498-0.942,0.498-1.106l-0.127-0.519l-0.387-0.888c-0.001-0.002-0.002-0.004-0.003-0.006h-74.02
	c-0.166,0-0.3-0.134-0.3-0.3v-1.036c0-0.163,0.131-0.296,0.294-0.3l2.162-0.044l1.016,0.177c0.013-0.019,0.027-0.036,0.045-0.052
	c0.06-0.056,0.139-0.083,0.224-0.081l8.727,0.538l-0.082-4.678l-1.404-0.17l-2.686,0.227l-2.92,0.314l-2.149,0.314l-6.572,0.003
	c-0.166,0-0.3-0.134-0.3-0.3V9.576c0-0.166,0.134-0.3,0.3-0.3c0.015-0.03,0.079-0.068,0.103-0.092V9.184l-0.31-0.871l-3.276,0.196
	v0.379l0.07,0.171c0.014,0.036,0.021,0.075,0.021,0.113v0.765c0,0.157-0.121,0.288-0.278,0.299l-1.262,0.09l-1.952,0.046h-3.923
	l-1.823-0.136l-4.643,0.271l-1.065,0.092c-0.002,0.002-0.05,0.062-0.05,0.284v1.216l0.137,2.008l2.014,0.123l2.477-0.225
	l2.151-0.268l1.114-0.18l1.444-0.003c0.166,0,0.3,0.134,0.3,0.3v1.126c0,0.166-0.134,0.3-0.3,0.3h-3.72
	c-0.044,0.023-0.057,0.039-0.058,0.039c-0.034,0.1-0.112,0.159-0.216,0.18l-3.496,0.653l-0.232,1.184l-0.367,1.158
	c-0.04,0.125-0.155,0.208-0.286,0.208H23.766c-0.08,0-0.156-0.031-0.212-0.088l-1.215-1.216c-0.191-0.191-0.375-0.299-0.546-0.32
	L11.214,17.08l-0.699,0.498c-0.056,0.057-0.133,0.088-0.212,0.088h-1.17l-3.934,0.266c-0.638,0.295-0.675,0.469-0.675,0.471v2.971
	L4.3,25.398v5.161l0.072,0.601h0.167l2.457-0.533l2.316-0.364l3.018-0.003l1.479,0.298l0.44-0.257
	c0.034-0.02,0.072-0.033,0.111-0.038c-0.002-0.014,0.007-0.048,0.014-0.102l0.45-2.889c0.023-0.146,0.149-0.253,0.297-0.253h5.898
	c0.064,0,0.126,0.021,0.178,0.058l0.855,0.63l1.374,1.233L24.654,30.254z M57.296,14.59h10.199l-6.81-0.419
	c-0.018,0.036-0.043,0.068-0.075,0.095c-0.068,0.057-0.16,0.079-0.245,0.065l-1.26-0.226l-1.81,0.042V14.59z M41.191,25.366H38.67
	c-0.861,0-1.335-0.506-1.335-1.426c0-0.803,0.474-1.245,1.335-1.245h2.521c0.862,0,1.337,0.442,1.337,1.245
	C42.528,24.86,42.054,25.366,41.191,25.366z M38.67,23.295c-0.61,0-0.735,0.258-0.735,0.646c0,0.587,0.213,0.826,0.735,0.826h2.521
	c0.523,0,0.737-0.239,0.737-0.826c0-0.387-0.126-0.646-0.737-0.646H38.67z"/>
<rect id="sliceCopy_x5F_52_1_" x="135.832" fill="none" width="125.222" height="40"/>
<rect id="sliceCopy_x5F_51_1_" fill="none" width="135.832" height="40"/>
</svg>
