<?xml version="1.0" encoding="utf-8"?>
<!-- Generator: Adobe Illustrator 15.1.0, SVG Export Plug-In  -->
<!DOCTYPE svg PUBLIC "-//W3C//DTD SVG 1.1//EN" "http://www.w3.org/Graphics/SVG/1.1/DTD/svg11.dtd" [
	<!ENTITY ns_flows "http://ns.adobe.com/Flows/1.0/">
]>
<svg version="1.1"
	 xmlns="http://www.w3.org/2000/svg" xmlns:xlink="http://www.w3.org/1999/xlink" xmlns:a="http://ns.adobe.com/AdobeSVGViewerExtensions/3.0/"
	 x="0px" y="0px" width="79px" height="40px" viewBox="0.179 0 79 40" enable-background="new 0.179 0 79 40" xml:space="preserve">
<defs>
</defs>
<path d="M14.164,33.3c-0.684,0-1.143-0.118-1.443-0.371c-0.329-0.276-0.679-0.6-0.679-0.966c0-0.516,1.714-4.218,1.731-4.253
	l2.438-4.797c0.045-0.145,0.205-0.468,0.78-1.562c0.157-0.298,0.285-0.539,0.31-0.596c0.183-0.426,0.436-0.82,0.681-1.202
	c0.054-0.084,0.108-0.169,0.162-0.254c-0.302-0.101-0.805-0.137-1.078-0.157l-0.213-0.017c-0.38-0.035-0.729-0.101-1.1-0.17
	c-0.22-0.042-0.442-0.083-0.676-0.119c-1.043-0.159-2.342-0.358-3.416-0.751c-0.288-0.106-0.609-0.187-0.948-0.271
	c-0.646-0.162-1.313-0.328-1.876-0.703c-0.252-0.168-0.545-0.302-0.829-0.432c-0.15-0.069-0.297-0.136-0.433-0.206
	c-0.309-0.159-0.575-0.376-0.833-0.587c-0.16-0.13-0.318-0.26-0.484-0.371c-0.102-0.069-0.212-0.168-0.329-0.275
	c-0.187-0.172-0.42-0.386-0.591-0.386c-0.1,0.025-0.226,0-0.3-0.067c-0.074-0.068-0.133-0.167-0.116-0.266
	c-0.008-0.077-0.237-0.264-0.347-0.354c-0.13-0.106-0.252-0.207-0.335-0.318C4.04,13.578,3.8,13.215,3.737,12.816
	c-0.049-0.3-0.049-0.748,0-1.039c0.02-0.126,0.033-0.263,0.046-0.402c0.02-0.198,0.039-0.399,0.077-0.588
	c0.067-0.329,0.251-0.546,0.413-0.738c0.07-0.083,0.142-0.166,0.199-0.26c0.072-0.119,0.092-0.26,0.114-0.423
	C4.609,9.201,4.635,9.012,4.726,8.83c0.05-0.1,0.062-0.291,0.071-0.458c0.009-0.155,0.02-0.303,0.049-0.421
	C4.91,7.698,5.098,6.972,5.683,6.874c0.045-0.032,0.096-0.051,0.151-0.051H17.67c0.463,0,0.927,0.006,1.392,0.012
	c0.93,0.01,1.862,0.023,2.79-0.013c0.164-0.007,0.349-0.034,0.529-0.06c0.42-0.059,0.792-0.053,0.984,0.032
	c0.026,0.012,0.051,0.025,0.074,0.03l37.826-0.001c0.292,0,0.552,0.158,0.677,0.413l0.086,0.001
	c0.048-0.002,0.101-0.005,0.159-0.005c0.166,0,0.3,0.134,0.3,0.3c0,0.192-0.004,0.381-0.009,0.568
	c-0.007,0.294-0.014,0.575-0.003,0.853c0.243-0.055,0.449-0.033,0.635,0.009c0.028-0.008,0.058-0.015,0.087-0.01
	c0.592,0.058,0.626,0.643,0.612,1.021h8.825c0.07,0,0.177-0.011,0.302-0.022c0.2-0.018,0.441-0.04,0.665-0.04
	c0.414,0,0.67,0.071,0.829,0.231c0.4,0.404,0.417,0.629,0.416,1.146c0,0.157,0.004,0.268,0.007,0.378
	c0.008,0.242,0.014,0.487-0.008,0.721c-0.038,0.355-0.111,1.05-0.768,1.05h-4.716v0.15c0,0.106-0.055,0.199-0.138,0.252
	c-0.245,0.345-0.832,0.393-1.338,0.393c-0.304,0-0.617-0.021-0.87-0.039c-0.159-0.011-0.293-0.021-0.382-0.021h-2.303h-0.001
	c-0.177,0-0.306,0.002-0.413,0.024c0.005,0.092-0.02,0.167-0.043,0.217c-0.126,0.265-0.463,0.345-0.705,0.367
	c-0.054,0.078-0.145,0.128-0.246,0.128H61.79v0.519c0,0.153-0.114,0.281-0.267,0.298l-0.192,0.021
	c-0.174,0.411-0.368,0.791-0.605,1.186c-0.146,0.245-0.363,0.441-0.573,0.631c-0.172,0.156-0.35,0.316-0.416,0.452
	c-0.305,0.613-1.274,0.684-1.977,0.684c-0.229,0-0.449-0.008-0.637-0.015c-0.133-0.005-0.248-0.01-0.338-0.01
	c-0.668,0-1.537-0.196-2.058-0.735c-0.751,0.009-1.509,0.034-2.265,0.059c-0.926,0.031-1.849,0.062-2.748,0.062
	c-0.084,0-0.259,0.124-0.363,0.198l-0.201,0.139c-0.1,0.194-0.264,0.243-0.396,0.282c-0.037,0.011-0.099,0.029-0.117,0.041
	l-0.143,0.143c-0.241,0.237-0.491,0.482-0.659,0.77c-0.094,0.159-0.172,0.325-0.249,0.489c-0.263,0.555-0.561,1.183-1.369,1.39
	c-0.174,0.044-0.398,0.068-0.649,0.068c-0.493,0-0.987-0.091-1.354-0.249c-0.531-0.229-0.823-0.61-0.823-1.072
	c0-0.111-0.034-0.24-0.07-0.376c-0.04-0.152-0.086-0.325-0.094-0.511l-0.01-0.223c-0.005-0.139-0.009-0.267-0.023-0.389
	l-5.604,0.036c-0.104,0.001-0.207,0.021-0.311,0.041c-0.088,0.017-0.176,0.032-0.263,0.041c-0.075,0.175-0.212,0.284-0.313,0.365
	c-0.059,0.047-0.114,0.091-0.132,0.127c-0.165,0.333-0.397,0.564-0.644,0.81c-0.153,0.153-0.254,0.272-0.358,0.395
	c-0.121,0.142-0.245,0.288-0.385,0.427c-0.079,0.081-0.168,0.136-0.238,0.181c-0.075,0.047-0.118,0.075-0.135,0.108
	c-0.023,0.046-0.058,0.085-0.099,0.113c-0.024,0.019-0.075,0.063-0.129,0.109c-0.106,0.091-0.224,0.184-0.241,0.194
	c-0.426,0.213-0.976,0.31-1.74,0.31c-0.343,0-0.693-0.019-1.029-0.036c-0.302-0.016-0.592-0.032-0.854-0.032h-2.439
	c-0.279,0-0.491-0.042-0.641-0.127c-0.012,0.028-0.019,0.053-0.019,0.073c0,0.178-0.084,0.384-0.203,0.656l-0.064,0.151
	c-0.1,0.255-4.418,8.966-4.453,9.032c-0.083,0.161-0.122,0.279-0.151,0.365c-0.043,0.128-0.099,0.294-0.276,0.381
	c0.012,0.156-0.002,0.341-0.158,0.494c-0.286,0.282-0.65,0.249-0.957,0.238l-0.176-0.005l-5.655,0.03
	c-0.156,0-0.343,0.013-0.544,0.026C14.722,33.282,14.44,33.3,14.164,33.3z M5.467,14.265c0.347,0.055,0.634,0.318,0.869,0.534
	c0.092,0.084,0.177,0.165,0.257,0.218c0.181,0.121,0.354,0.262,0.529,0.405c0.245,0.2,0.476,0.388,0.729,0.518
	c0.127,0.065,0.266,0.128,0.408,0.194c0.305,0.139,0.62,0.283,0.912,0.478c0.476,0.317,1.092,0.471,1.688,0.62
	c0.34,0.084,0.691,0.172,1.01,0.29c1.018,0.373,2.283,0.566,3.299,0.722c0.24,0.036,0.471,0.08,0.697,0.122
	c0.355,0.067,0.691,0.13,1.043,0.162l0.201,0.016c0.695,0.05,1.345,0.122,1.663,0.439c0.098,0.097,0.116,0.248,0.046,0.366
	c-0.106,0.179-0.219,0.354-0.331,0.528c-0.242,0.377-0.472,0.734-0.634,1.113c-0.023,0.056-0.159,0.316-0.33,0.641
	c-0.241,0.458-0.69,1.312-0.736,1.452l-2.477,4.894c-0.345,0.708-1.631,3.63-1.669,3.996c0.006,0.037,0.073,0.168,0.464,0.495
	c0.186,0.156,0.531,0.231,1.059,0.231c0.263,0,0.53-0.018,0.775-0.034c0.216-0.014,0.415-0.027,0.581-0.027l5.649-0.03
	c0.073,0,0.141,0.002,0.209,0.005c0.232,0.009,0.441,0,0.511-0.064c-0.008,0.007-0.017-0.028-0.022-0.056
	c-0.05-0.378,0.145-0.504,0.298-0.545c0.004-0.012,0.008-0.025,0.013-0.039c0.035-0.105,0.084-0.252,0.188-0.453
	c0.035-0.067,4.286-8.639,4.428-8.977l0.071-0.168c0.049-0.111,0.15-0.343,0.153-0.417c0-0.197,0.084-0.357,0.158-0.498
	c0.042-0.08,0.081-0.154,0.094-0.216c0.028-0.14,0.151-0.241,0.294-0.241h0.164c0.107,0,0.206,0.057,0.26,0.15
	c0.042,0.073,0.051,0.159,0.027,0.237c0.056,0.012,0.141,0.022,0.262,0.022h2.439c0.272,0,0.573,0.016,0.886,0.032
	c0.326,0.017,0.666,0.035,0.998,0.035c0.668,0,1.133-0.076,1.461-0.241c-0.001,0-0.001,0-0.001,0c-0.008,0,0.065-0.063,0.135-0.122
	c0.046-0.039,0.083-0.071,0.114-0.096c0.092-0.144,0.22-0.224,0.315-0.284c0.053-0.033,0.1-0.063,0.132-0.095
	c0.13-0.129,0.243-0.264,0.354-0.394c0.115-0.135,0.228-0.267,0.346-0.385c0.266-0.265,0.455-0.454,0.576-0.698
	c0.078-0.156,0.198-0.252,0.295-0.33c0.134-0.106,0.146-0.128,0.145-0.188c-0.002-0.086,0.034-0.169,0.099-0.227
	c0.063-0.058,0.149-0.087,0.235-0.076c0.156-0.003,0.259-0.018,0.363-0.037c0.138-0.025,0.277-0.049,0.415-0.05l5.855-0.038
	c0.001,0,0.001,0,0.002,0c0.137,0,0.256,0.092,0.29,0.224c0.067,0.255,0.076,0.504,0.084,0.745l0.01,0.214
	c0.005,0.125,0.039,0.253,0.074,0.388c0.044,0.167,0.09,0.34,0.09,0.529c0,0.08,0,0.322,0.462,0.521
	c0.294,0.127,0.701,0.2,1.116,0.2c0.196,0,0.379-0.018,0.501-0.049c0.535-0.136,0.729-0.546,0.976-1.065
	c0.085-0.179,0.171-0.361,0.273-0.536c0.209-0.355,0.487-0.629,0.757-0.894l0.15-0.149c0.104-0.106,0.246-0.148,0.359-0.182
	c0.018-0.005,0.035-0.01,0.052-0.015c0.074-0.121,0.153-0.174,0.236-0.229l0.133-0.091c0.194-0.137,0.436-0.308,0.71-0.308
	c0.894,0,1.809-0.031,2.728-0.062c0.807-0.027,1.616-0.054,2.416-0.061c0.105,0.007,0.18,0.041,0.236,0.112
	c0.371,0.461,1.143,0.625,1.69,0.625c0.096,0,0.219,0.004,0.36,0.01c0.181,0.007,0.393,0.015,0.614,0.015
	c1.101,0,1.373-0.22,1.438-0.35c0.117-0.238,0.338-0.438,0.552-0.631c0.177-0.16,0.36-0.326,0.462-0.495
	c0.252-0.42,0.452-0.822,0.631-1.267c0.041-0.103,0.136-0.174,0.245-0.187l0.103-0.011v-0.55c0-0.166,0.134-0.3,0.3-0.3h1.191
	c0.011-0.015,0.023-0.029,0.037-0.042c0.061-0.057,0.145-0.086,0.225-0.081c0.143,0.002,0.252-0.014,0.325-0.032
	c-0.018-0.048-0.025-0.101-0.019-0.148c0.013-0.083,0.049-0.172,0.119-0.219c0.316-0.215,0.627-0.215,0.928-0.215h2.338
	c0.098,0,0.246,0.01,0.423,0.021c0.241,0.017,0.539,0.037,0.829,0.037c0.744,0,0.849-0.143,0.85-0.144
	c0.007-0.02,0.016-0.039,0.026-0.057v-0.294c0-0.166,0.134-0.3,0.3-0.3h5.016c0.085,0,0.13-0.124,0.165-0.455
	c0.024-0.261,0.018-0.481,0.011-0.698c-0.004-0.117-0.007-0.234-0.007-0.348c0-0.492,0-0.528-0.241-0.771l0,0
	c-0.001,0-0.078-0.055-0.404-0.055c-0.205,0-0.427,0.021-0.61,0.038c-0.147,0.013-0.273,0.024-0.356,0.024h-9.139
	c-0.166,0-0.3-0.134-0.3-0.3c0-0.058,0.004-0.127,0.008-0.201c0.006-0.102,0.022-0.39-0.021-0.49
	c-0.042,0.007-0.086,0.003-0.126-0.012c-0.061-0.023-0.176-0.048-0.298-0.048c-0.134,0-0.199,0.028-0.213,0.038
	c-0.105,0.083-0.27,0.094-0.377,0.012c-0.021-0.016-0.053-0.025-0.086-0.025c-0.083,0.011-0.183-0.014-0.247-0.071
	c-0.065-0.057-0.113-0.138-0.113-0.225V9.168c0-0.111,0.061-0.208,0.15-0.26c-0.008-0.277-0.002-0.554,0.005-0.823
	c0.002-0.082,0.004-0.164,0.005-0.247c-0.216-0.017-0.372-0.127-0.478-0.334c-0.036-0.074-0.11-0.082-0.141-0.082H23.424
	c-0.12,0-0.221-0.044-0.302-0.08C23.077,7.323,23.025,7.3,23,7.3c-0.151,0-0.34,0.028-0.534,0.056
	c-0.201,0.028-0.407,0.057-0.59,0.065c-0.938,0.037-1.88,0.025-2.822,0.013c-0.462-0.006-0.924-0.012-1.384-0.012H5.96
	C5.918,7.447,5.874,7.461,5.825,7.462l0,0c-0.11,0-0.263,0.11-0.398,0.635C5.406,8.182,5.402,8.292,5.396,8.406
	C5.383,8.631,5.368,8.887,5.263,9.098C5.216,9.191,5.199,9.31,5.181,9.447c-0.026,0.201-0.058,0.429-0.196,0.655
	c-0.073,0.121-0.162,0.228-0.252,0.334c-0.133,0.157-0.248,0.293-0.284,0.47c-0.033,0.167-0.05,0.349-0.067,0.527
	c-0.015,0.15-0.029,0.299-0.052,0.44c-0.038,0.231-0.038,0.61,0,0.848c0.043,0.27,0.233,0.553,0.395,0.769
	c0.039,0.053,0.142,0.138,0.232,0.212C5.146,13.858,5.366,14.039,5.467,14.265z M32.353,19.865L32.353,19.865L32.1,19.864
	c-0.735,0-1.268,0-1.724-0.76c-0.19-0.315-0.179-0.691-0.169-1.022l0.005-0.196c0-0.165,0.132-0.298,0.297-0.3l3.807-0.041
	c0.074,0.011,0.157,0.03,0.214,0.086c0.047,0.046,0.076,0.106,0.086,0.17c0.039,0.077,0.065,0.158,0.079,0.239
	c0.027,0.163-0.083,0.317-0.246,0.345c-0.008,0.016-0.148,0.152-0.478,0.822C33.643,19.865,32.771,19.865,32.353,19.865z
	 M30.805,18.182c-0.007,0.234-0.004,0.465,0.085,0.612c0.271,0.452,0.475,0.47,1.21,0.47l0.253,0.001l0,0
	c0.252,0,0.919,0,1.063-0.286c0.185-0.376,0.335-0.645,0.47-0.83L30.805,18.182z M29.486,19.864h-0.941
	c-0.087,0-0.17-0.038-0.227-0.103c-0.057-0.066-0.083-0.153-0.07-0.239c0.038-0.268,0.158-0.51,0.328-0.668l0.017-0.045
	c0.017-0.046,0.044-0.087,0.078-0.12c0.025-0.075,0.079-0.135,0.146-0.17c0.046-0.064,0.096-0.134,0.142-0.197
	c0.076-0.105,0.214-0.15,0.335-0.108c0.124,0.04,0.207,0.155,0.207,0.285v0.083c-0.02,0.169,0.032,0.274,0.117,0.434
	c0.083,0.157,0.178,0.335,0.168,0.562C29.779,19.737,29.647,19.864,29.486,19.864z"/>
<rect id="sliceCopy_x5F_37_1_" x="78.561" fill="none" width="53.106" height="40"/>
<rect id="sliceCopy_x5F_36_1_" fill="none" width="78.561" height="40"/>
</svg>
