<?xml version="1.0" encoding="utf-8"?>
<!-- Generator: Adobe Illustrator 15.1.0, SVG Export Plug-In  -->
<!DOCTYPE svg PUBLIC "-//W3C//DTD SVG 1.1//EN" "http://www.w3.org/Graphics/SVG/1.1/DTD/svg11.dtd" [
	<!ENTITY ns_flows "http://ns.adobe.com/Flows/1.0/">
]>
<svg version="1.1"
	 xmlns="http://www.w3.org/2000/svg" xmlns:xlink="http://www.w3.org/1999/xlink" xmlns:a="http://ns.adobe.com/AdobeSVGViewerExtensions/3.0/"
	 x="0px" y="0px" width="50px" height="40px" viewBox="0.104 0 50 40" enable-background="new 0.104 0 50 40" xml:space="preserve">
<defs>
</defs>
<path d="M16.014,36.3c-0.406,0-0.688-0.1-0.962-0.197c-0.132-0.046-0.271-0.096-0.438-0.138c-1.244-0.313-2.535-0.448-3.972-0.579
	C9.86,35.313,8.78,35.08,8.129,34.727c-0.148-0.079-0.335-0.111-0.532-0.145c-0.162-0.027-0.323-0.056-0.476-0.106
	c-0.476-0.157-0.5-0.55-0.512-0.74c-0.003-0.038-0.007-0.096-0.013-0.114c-0.004,0.02-0.1-0.01-0.299-0.01
	c-0.2,0-0.429,0.027-0.66,0.054c-0.263,0.031-0.529,0.061-0.771,0.061c-0.964,0-1.166-0.536-1.166-0.985
	c0-0.298,0.007-0.597,0.014-0.896c0.007-0.294,0.014-0.588,0.014-0.882c0-0.098-0.005-0.196-0.009-0.295
	c-0.006-0.128-0.011-0.257-0.009-0.385c0.003-0.224,0.109-0.361,0.173-0.443c0.047-0.061,0.047-0.065,0.048-0.086
	c0.038-1.024,0.218-2.067,0.493-2.86c0.062-0.178,0.095-0.359,0.128-0.539c0.039-0.207,0.079-0.42,0.156-0.637
	c0.037-0.104,0.072-0.225,0.107-0.35c0.074-0.254,0.15-0.518,0.262-0.72c0.361-0.661,0.728-1.363,0.965-2.019l0.077-0.222
	c0.118-0.349,0.253-0.744,0.452-1.025c0.091-0.128,0.425-0.845,0.446-1c-0.014-0.153,0.1-0.372,0.377-0.823
	c0.044-0.073,0.083-0.136,0.105-0.177c0.225-0.394,0.493-0.991,0.493-1.149c0-0.194,0.094-0.36,0.185-0.521
	c0.077-0.137,0.157-0.278,0.148-0.392c-0.018-0.246,0.039-0.438,0.084-0.593c0.062-0.208,0.082-0.278-0.028-0.422
	c-0.571-0.758-1.496-1.507-2.412-1.955c-0.146-0.072-0.331-0.121-0.526-0.173c-0.275-0.074-0.561-0.15-0.801-0.305
	c-0.14-0.091-0.188-0.221-0.212-0.292c-0.006,0-0.033-0.006-0.068-0.014c-0.201-0.046-0.396-0.139-0.457-0.507
	c-0.063-0.379-0.045-0.918,0.043-1.342c0.018-0.083,0.021-0.218,0.025-0.367c0.017-0.471,0.034-0.958,0.327-1.155l0.1-0.066
	C4.616,9.99,4.616,9.99,4.586,9.668c-0.053-0.55,0.11-1.288,0.397-1.793C5.1,7.67,5.23,7.459,5.362,7.248
	c0.202-0.324,0.411-0.659,0.55-0.953c0.13-0.278,0.334-0.501,0.515-0.699c0.273-0.3,0.441-0.497,0.441-0.767
	c0-0.082,0.033-0.159,0.092-0.216s0.146-0.075,0.219-0.084l1.002,0.036V4.032c0-0.08,0.031-0.156,0.088-0.212
	S8.401,3.732,8.48,3.732h0.001l15.314,0.044c0.096,0,0.178-0.006,0.251-0.012c0.071-0.005,0.135-0.009,0.191-0.009
	c0.118,0,0.291,0.016,0.421,0.157c0.107,0.116,0.138,0.267,0.141,0.408c0.04-0.004,0.075-0.009,0.106-0.014
	c0.065-0.01,0.122-0.018,0.162-0.019c0,0,0,0,0.001,0c0.203,0,0.32,0.083,0.387,0.152c0.176,0.186,0.161,0.461,0.152,0.643
	l-0.004,0.081c-0.001,0.066,0.008,0.098,0.012,0.109c0-0.002,0.03,0.005,0.095,0.005c0.08,0,0.169-0.01,0.262-0.02
	c0.122-0.013,0.249-0.026,0.373-0.026h3.688c0.049,0,0.132,0.006,0.232,0.016c0.134,0.012,0.305,0.028,0.464,0.028
	c0.196,0,0.253-0.026,0.255-0.027c0.034-0.076-0.018-0.602-0.04-0.826c-0.015-0.155-0.027-0.293-0.027-0.39
	c0-0.08,0.031-0.156,0.088-0.212s0.133-0.087,0.212-0.087h0.001l9.968,0.042c0.318,0.003,0.637,0.007,0.954,0.007
	c0.675,0,1.194-0.016,1.683-0.051C44.025,3.714,44.222,3.7,44.43,3.7c0.6,0,0.991,0.123,1.197,0.375
	c0.093,0.114,0.19,0.31,0.139,0.599c0.117,0.015,0.247,0.054,0.37,0.165c0.24,0.214,0.203,0.624,0.136,1.097
	c-0.009,0.062-0.017,0.114-0.02,0.15c-0.074,0.912-0.054,1.862-0.034,2.781c0.009,0.429,0.018,0.857,0.018,1.281
	c0,0.42,0.019,0.854,0.036,1.293c0.039,0.943,0.08,1.917-0.053,2.831c-0.076,0.539-0.857,0.607-1.529,0.607l0,0
	c-0.464,0-0.962-0.038-1.326-0.066c-0.2-0.015-0.359-0.028-0.445-0.028h-6.531c-0.116,0-0.282-0.013-0.471-0.029
	c-0.228-0.019-0.49-0.042-0.732-0.042c-0.432,0-0.52,0.075-0.523,0.078c-0.547,0.521-0.772,0.736-0.765,1.472
	c0.002,0.217,0.016,0.433,0.029,0.649c0.015,0.244,0.029,0.488,0.029,0.732c0,0.068-0.009,0.21-0.021,0.393
	c-0.021,0.327-0.083,1.288-0.018,1.553c0.411,0.285,0.324,0.786,0.266,1.124c-0.021,0.116-0.042,0.229-0.042,0.333
	c0,0.224-0.138,0.49-0.792,0.49c-0.105,0-0.203-0.006-0.27-0.01c-0.8-0.036-1.551-0.042-2.303-0.042l-1.525,0.003
	c-0.985,0-1.971-0.002-2.956-0.005c-1.971-0.006-3.941-0.011-5.912,0.005c-0.236,0.003-0.238,0.01-0.272,0.19l-0.065,0.312
	c-0.079,0.373-0.178,0.836-0.16,1.139c0.022,0.38-0.085,0.796-0.188,1.198c-0.055,0.212-0.108,0.42-0.137,0.61
	c-0.07,0.467-0.234,0.902-0.394,1.324c-0.089,0.235-0.178,0.469-0.248,0.708c-0.103,0.344-0.223,0.659-0.341,0.97
	c-0.154,0.406-0.301,0.789-0.398,1.221c-0.056,0.242-0.15,0.455-0.242,0.66c-0.092,0.205-0.178,0.397-0.217,0.603
	c-0.021,0.111-0.043,0.235-0.064,0.364c-0.073,0.438-0.156,0.935-0.323,1.298c-0.297,0.649-0.069,2.208,0.407,2.781
	c0.033,0.024,0.217,0.101,0.338,0.151c0.395,0.165,0.735,0.307,0.735,0.622c0,0.403-0.238,0.644-0.639,0.644
	c-0.118,0-0.25-0.021-0.377-0.044c-0.394-0.069-0.657-0.012-0.971,0.016C16.556,36.276,16.286,36.3,16.014,36.3z M12.302,34.952
	c0.85,0.101,1.66,0.23,2.459,0.431c0.187,0.047,0.344,0.103,0.492,0.155c0.256,0.091,0.457,0.163,0.761,0.163
	c0.254,0,0.507-0.023,0.758-0.046c0.361-0.033,0.668-0.088,1.129-0.009c0.063,0.011,0.129,0.023,0.191,0.03
	c-0.082-0.039-0.177-0.078-0.247-0.107c-0.285-0.119-0.465-0.198-0.567-0.321c-0.62-0.746-0.882-2.565-0.491-3.416
	c0.133-0.291,0.209-0.746,0.276-1.147c0.022-0.134,0.044-0.263,0.066-0.378c0.053-0.272,0.157-0.507,0.259-0.733
	c0.083-0.188,0.162-0.365,0.204-0.549c0.108-0.473,0.269-0.894,0.424-1.301c0.113-0.297,0.228-0.598,0.325-0.927
	c0.075-0.252,0.169-0.5,0.263-0.749c0.154-0.41,0.301-0.797,0.361-1.201c0.031-0.208,0.09-0.437,0.149-0.67
	c0.092-0.357,0.188-0.727,0.17-1.013c-0.021-0.384,0.082-0.87,0.173-1.299l0.063-0.301c0.115-0.588,0.497-0.671,0.856-0.675
	c1.973-0.018,3.948-0.012,5.919-0.006c0.985,0.003,1.971,0.006,2.955,0.006l1.525-0.003c0.761,0,1.521,0.007,2.28,0.04
	c0.237,0.014,0.409,0.012,0.49,0c0.009-0.101,0.026-0.206,0.045-0.313c0.061-0.35,0.064-0.484-0.037-0.541
	c-0.273-0.154-0.316-0.561-0.219-2.072c0.011-0.164,0.02-0.293,0.02-0.354c0-0.232-0.015-0.463-0.029-0.695
	c-0.014-0.227-0.027-0.453-0.029-0.68c-0.012-0.996,0.371-1.36,0.95-1.912c0.177-0.168,0.466-0.244,0.938-0.244
	c0.259,0,0.54,0.023,0.782,0.043c0.169,0.014,0.317,0.027,0.421,0.027h6.531c0.095,0,0.271,0.013,0.491,0.03
	c0.354,0.027,0.84,0.065,1.28,0.065c0,0,0,0,0.001,0c0.808,0,0.946-0.129,0.952-0.135c0.107-0.817,0.067-1.764,0.029-2.679
	c-0.019-0.447-0.036-0.89-0.036-1.318c0-0.42-0.009-0.843-0.019-1.268c-0.02-0.934-0.039-1.9,0.037-2.842
	c0.003-0.044,0.013-0.11,0.023-0.187c0.018-0.12,0.068-0.479,0.033-0.59c0,0.009-0.023,0.006-0.084,0.005
	c-0.091-0.001-0.26-0.005-0.379-0.15c-0.123-0.149-0.107-0.35-0.077-0.527c0.021-0.098-0.001-0.125-0.01-0.134
	C45.141,4.429,45.007,4.3,44.43,4.3c-0.191,0-0.371,0.014-0.498,0.023c-0.569,0.041-1.102,0.058-1.792,0.058
	c-0.32,0-0.641-0.003-0.961-0.007l-0.766-0.007l-8.874-0.034c0.001,0.01,0.002,0.02,0.003,0.03c0.054,0.55,0.08,0.993-0.104,1.265
	c-0.149,0.219-0.457,0.247-0.708,0.247c-0.178,0-0.369-0.017-0.518-0.03c-0.078-0.007-0.142-0.014-0.179-0.014h-3.688
	c-0.103,0-0.208,0.012-0.31,0.023c-0.115,0.012-0.226,0.023-0.325,0.023c-0.085,0-0.344,0-0.525-0.185
	c-0.124-0.125-0.185-0.306-0.181-0.537l0.004-0.104c0.002-0.038,0.006-0.103,0.004-0.154c-0.005,0-0.01,0.001-0.015,0.002
	c-0.253,0.039-0.545,0.027-0.688-0.127c-0.06-0.064-0.128-0.178-0.113-0.354c0.002-0.024,0.002-0.044,0.003-0.061
	c-0.041,0-0.074,0.003-0.109,0.006c-0.086,0.006-0.184,0.013-0.291,0.013L8.78,4.333v0.543c0,0.082-0.033,0.16-0.092,0.216
	C8.63,5.148,8.545,5.176,8.47,5.175L7.428,5.138C7.334,5.492,7.09,5.759,6.869,6C6.704,6.182,6.547,6.354,6.455,6.55
	C6.302,6.876,6.083,7.227,5.872,7.565C5.744,7.77,5.617,7.973,5.505,8.171c-0.228,0.401-0.363,1.007-0.321,1.44
	c0.056,0.602-0.041,0.75-0.453,1.022l-0.095,0.063c-0.041,0.073-0.056,0.482-0.063,0.679c-0.007,0.19-0.016,0.362-0.037,0.468
	c-0.074,0.352-0.09,0.813-0.039,1.121c0.002,0.01,0.001,0.017-0.001,0.02c0.092,0.022,0.179,0.046,0.274,0.102
	c0.15,0.086,0.198,0.222,0.225,0.295c0.134,0.094,0.361,0.155,0.604,0.219c0.214,0.058,0.436,0.117,0.635,0.214
	c1.011,0.495,1.993,1.292,2.627,2.132c0.293,0.385,0.196,0.714,0.126,0.954c-0.039,0.131-0.071,0.244-0.063,0.378
	c0.023,0.295-0.113,0.537-0.224,0.732c-0.042,0.074-0.105,0.186-0.107,0.226c0,0.44-0.545,1.4-0.568,1.441
	c-0.023,0.042-0.067,0.115-0.119,0.199c-0.081,0.132-0.271,0.441-0.291,0.535c0.019,0.26-0.462,1.192-0.553,1.321
	c-0.149,0.211-0.274,0.578-0.375,0.873l-0.08,0.231c-0.251,0.694-0.631,1.421-1.003,2.104c-0.08,0.145-0.146,0.375-0.211,0.598
	c-0.04,0.138-0.079,0.272-0.12,0.385c-0.063,0.178-0.097,0.362-0.131,0.545c-0.039,0.209-0.079,0.419-0.151,0.625
	c-0.256,0.739-0.424,1.718-0.46,2.687c-0.009,0.217-0.107,0.345-0.173,0.43c-0.047,0.061-0.047,0.064-0.048,0.086
	c-0.002,0.116,0.003,0.232,0.009,0.349c0.005,0.107,0.009,0.215,0.009,0.321c0,0.298-0.007,0.597-0.014,0.896
	C4.307,32.155,4.3,32.45,4.3,32.743c0,0.225,0.041,0.385,0.566,0.385c0.22,0,0.463-0.029,0.702-0.057
	c0.566-0.067,1.067-0.09,1.357,0.07c0.256,0.14,0.272,0.401,0.282,0.558c0.011,0.178,0.018,0.18,0.101,0.208
	c0.124,0.041,0.257,0.062,0.389,0.084c0.226,0.038,0.481,0.082,0.717,0.208c0.575,0.312,1.587,0.523,2.284,0.589
	c0.284,0.026,0.563,0.052,0.837,0.08c0.051-0.059,0.125-0.098,0.207-0.103c0.002,0,0.004,0,0.006,0c0.229,0,0.388,0.081,0.465,0.119
	C12.247,34.901,12.276,34.924,12.302,34.952z M23.213,20.744c-0.266,0-0.472-0.074-0.612-0.219
	c-0.228-0.235-0.217-0.566-0.206-0.887c0.004-0.115,0.008-0.235,0-0.353c-0.018-0.238-0.111-0.47-0.212-0.715
	c-0.114-0.282-0.233-0.573-0.257-0.916c-0.027-0.383,0.125-0.703,0.259-0.986c0.103-0.215,0.199-0.418,0.199-0.614
	c0-0.436,0.315-0.722,0.569-0.951c0.132-0.119,0.256-0.231,0.31-0.335c0.013-0.024,0.028-0.046,0.047-0.066
	c0.258-0.276,1.102-0.695,1.53-0.548c0.695,0.239,0.509,1.476,0.385,2.294c-0.017,0.113-0.031,0.207-0.037,0.27
	c-0.041,0.402,0.14,0.618,0.463,0.964c0.142,0.152,0.286,0.309,0.41,0.492c0.363,0.529,0.763,0.733,1.367,1.042
	c0.205,0.104,0.478,0.153,0.859,0.153c0.172,0,0.343-0.009,0.504-0.018c0.052-0.022,0.093-0.121,0.104-0.2
	c-0.012,0-0.022,0.001-0.033,0.002c-0.171,0.012-0.338,0.016-0.443-0.015c-0.076-0.023-0.14-0.064-0.186-0.117
	c-0.075-0.035-0.194-0.085-0.276-0.12c-0.063-0.027-0.11-0.048-0.119-0.053c-0.629-0.306-1.103-0.665-1.439-1.094
	c-0.475-0.601-0.443-1.37-0.415-2.049c0.006-0.153,0.013-0.303,0.013-0.447c0-0.394,0.268-1.019,0.752-1.116
	c0.597-0.123,1.39-0.094,2.161-0.037c0.451,0.033,0.9,0.066,1.336,0.048c0.13-0.006,0.257-0.01,0.38-0.01
	c0.55,0,1.182,0.077,1.7,0.648c0.046,0.051,0.182,0.132,0.291,0.196c0.27,0.161,0.549,0.326,0.546,0.612
	c-0.008,0.91-0.01,1.822,0.006,2.732c0.009,0.431,0.011,0.852-0.052,1.27c-0.063,0.414-0.363,0.59-0.817,0.522
	c-0.043,0.343-0.193,0.576-0.705,0.576l-0.433-0.007h-2.824c-0.453,0-0.906-0.005-1.361-0.01c-0.452-0.005-0.905-0.01-1.358-0.01
	c-0.902,0-1.628,0.021-2.285,0.066C23.29,20.743,23.25,20.744,23.213,20.744z M23.771,15.09c-0.105,0.179-0.263,0.321-0.416,0.459
	c-0.191,0.173-0.372,0.336-0.372,0.506c0,0.331-0.137,0.618-0.257,0.872c-0.117,0.247-0.219,0.46-0.203,0.686
	c0.018,0.247,0.113,0.482,0.215,0.731c0.113,0.278,0.23,0.565,0.254,0.898c0.011,0.139,0.007,0.28,0.002,0.416
	c-0.005,0.158-0.013,0.398,0.038,0.45c0.016,0.017,0.072,0.036,0.181,0.036l0.077-0.003c0.671-0.046,1.41-0.068,2.326-0.068
	c0.455,0,0.91,0.005,1.365,0.01c0.452,0.005,0.904,0.01,1.354,0.01l3.257,0.007c0.071,0,0.107-0.003,0.124-0.006
	c-0.017-0.008-0.003-0.092-0.003-0.311c0-0.083,0.034-0.162,0.095-0.219c0.061-0.056,0.146-0.086,0.224-0.081
	c0.094,0.006,0.188,0.021,0.278,0.035c0.073,0.012,0.142,0.025,0.203,0.025c0.063-0.402,0.062-0.78,0.054-1.2
	c-0.016-0.893-0.014-1.785-0.007-2.677c-0.058-0.047-0.176-0.117-0.252-0.162c-0.158-0.094-0.321-0.191-0.429-0.309
	c-0.418-0.46-0.96-0.473-1.608-0.443c-0.46,0.022-0.932-0.014-1.407-0.049c-0.714-0.054-1.457-0.085-1.997,0.026
	c-0.108,0.021-0.272,0.309-0.272,0.528c0,0.152-0.006,0.311-0.013,0.471c-0.024,0.603-0.051,1.226,0.286,1.653
	c0.28,0.356,0.686,0.66,1.237,0.929l0.087,0.038c0.222,0.095,0.359,0.154,0.442,0.213c0.052-0.001,0.133-0.003,0.185-0.007
	c0.161-0.01,0.273-0.033,0.408,0.038c0.223,0.121,0.317,0.412,0.243,0.743c-0.08,0.357-0.315,0.598-0.599,0.613
	c-0.22,0.012-0.401,0.021-0.585,0.021c-0.302,0-0.748-0.023-1.133-0.219c-0.637-0.325-1.14-0.581-1.589-1.238
	c-0.107-0.158-0.233-0.291-0.354-0.421c-0.323-0.348-0.69-0.742-0.621-1.434c0.007-0.069,0.022-0.173,0.042-0.299
	c0.203-1.349,0.076-1.594,0.012-1.637l-0.026-0.001C24.384,14.721,23.925,14.95,23.771,15.09z"/>
<rect id="sliceCopy_x5F_26_1_" x="50.022" fill="none" width="59.346" height="40"/>
<rect id="sliceCopy_x5F_25_1_" fill="none" width="50.022" height="40"/>
</svg>
