<?xml version="1.0" encoding="utf-8"?>
<!-- Generator: Adobe Illustrator 15.1.0, SVG Export Plug-In  -->
<!DOCTYPE svg PUBLIC "-//W3C//DTD SVG 1.1//EN" "http://www.w3.org/Graphics/SVG/1.1/DTD/svg11.dtd" [
	<!ENTITY ns_flows "http://ns.adobe.com/Flows/1.0/">
]>
<svg version="1.1"
	 xmlns="http://www.w3.org/2000/svg" xmlns:xlink="http://www.w3.org/1999/xlink" xmlns:a="http://ns.adobe.com/AdobeSVGViewerExtensions/3.0/"
	 x="0px" y="0px" width="121px" height="40px" viewBox="0.292 0 121 40" enable-background="new 0.292 0 121 40"
	 xml:space="preserve">
<defs>
</defs>
<path d="M54.679,36.299c-0.097,0-0.188-0.019-0.273-0.056c-0.046-0.02-0.086-0.051-0.116-0.091c-0.231-0.3-0.449-0.654-0.685-1.115
	c-0.428-0.837-0.786-1.706-1.065-2.582l-0.977-3.067c-0.835-2.62-1.52-5.325-2.182-7.941c-0.199-0.789-0.399-1.578-0.604-2.366
	c-0.026,0.011-0.053,0.023-0.079,0.034c-0.289,0.124-0.588,0.252-0.848,0.408c-0.097,0.058-0.179,0.129-0.261,0.198
	c-0.115,0.098-0.234,0.199-0.386,0.279c-0.553,0.293-1.411,0.354-2.038,0.399l-0.194,0.015c-1.106,0.084-2.067-0.136-3.283-0.728
	c-0.095-0.046-0.184-0.104-0.27-0.162c-0.067-0.045-0.18-0.12-0.218-0.121c-0.2,0.161-0.425,0.261-0.623,0.35
	c-0.076,0.034-0.15,0.067-0.221,0.102c-0.163,0.082-0.322,0.58-0.408,0.848c-0.04,0.125-0.077,0.239-0.112,0.329
	c-0.247,0.614-0.45,1.173-0.623,1.71c-0.255,0.796-0.51,1.642-0.572,2.464c-0.024,0.325-0.054,0.649-0.083,0.975
	c-0.07,0.775-0.143,1.578-0.143,2.358c0,0.333,0,1.026-0.636,1.026c-0.071,0-0.148-0.01-0.229-0.031
	c-0.662-0.17-1.286-0.47-1.89-0.759l-0.202-0.097c-0.608-0.29-1.206-0.601-1.803-0.913c-0.415-0.216-0.829-0.432-1.247-0.641
	c-0.205-0.102-0.289-0.253-0.322-0.361c-0.098-0.309,0.076-0.625,0.229-0.904c0.042-0.076,0.083-0.149,0.111-0.216
	c0.909-2.071,1.679-4.04,2.353-6.021c0.046-0.134,0.104-0.281,0.165-0.436c0.253-0.641,0.54-1.368,0.167-1.794
	c-0.109-0.125-0.222-0.246-0.333-0.367c-0.216-0.234-0.431-0.467-0.628-0.72c-0.027-0.004-0.313-0.07-0.973-0.07l-0.151,0.001
	c-1.854,0.034-3.954,0.071-6,0.191c-2.168,0.126-4.386,0.228-6.78,0.313c-3.437,0.124-6.538,2.602-8.802,4.412
	c-1.379,1.103-2.763,2.209-3.964,3.413c-0.097,0.097-0.188,0.227-0.281,0.359C7.012,25.19,6.797,25.491,6.5,25.64
	c-0.179,0.089-0.352,0.135-0.512,0.135c-0.761,0-0.973-0.889-1.113-1.477c-0.156-0.649-0.176-1.304-0.194-1.938
	c-0.01-0.317-0.019-0.634-0.045-0.944c-0.086-1.021-0.174-2.043-0.264-3.063c-0.099-1.094-0.191-2.082-0.336-3.087
	c-0.028-0.199-0.07-0.422-0.114-0.658c-0.201-1.076-0.452-2.415,0.192-3.191c0.316-0.381,0.808-0.574,1.459-0.574H28.28
	c0.077,0,0.157,0.005,0.239,0.01c0.132,0.008,0.277,0.014,0.364-0.004c0.178-0.006,0.264-0.137,0.418-0.413
	c0.171-0.307,0.385-0.689,0.833-0.796c0.402-0.096,0.802-0.165,1.199-0.232c0.647-0.11,1.259-0.215,1.874-0.437
	c0.561-0.201,0.833-0.354,1.267-0.711c0.477-0.392,0.522-0.733,0.612-1.413c0.029-0.215,0.045-0.411,0.06-0.605
	c0.077-0.967,0.173-2.171,1.724-2.171c0.002,0,0.075,0.001,0.078,0.001c0.531,0.014,0.854,0.356,1.138,0.658
	c0.071,0.076,0.145,0.154,0.224,0.229c0.245,0.233,0.37,0.252,0.496,0.252c0.109,0,0.228-0.02,0.371-0.042
	c0.1-0.015,0.21-0.032,0.334-0.047c0.155-0.019,0.282-0.03,0.389-0.03c0.5,0,0.694,0.252,0.955,0.667
	c0.237,0.38,0.316,0.807,0.393,1.22c0.01,0.051,0.02,0.103,0.029,0.154c0.477-0.002,1.686-0.099,2.319-0.154
	c0.225-0.019,0.392-0.034,0.46-0.038c0.59-0.039,1.206,0.072,1.788,0.177c0.335,0.06,0.669,0.121,0.997,0.151
	c0.432,0.04,0.875,0.026,1.314,0.013c0.228-0.007,0.453-0.014,0.676-0.014h9.62c-0.043-0.267-0.093-0.52-0.199-0.749
	c-0.043-0.093-0.035-0.201,0.02-0.288c0.056-0.086,0.15-0.138,0.253-0.138h1.674c0.226,0,0.477,0.023,0.618,0.197
	c0.131,0.16,0.095,0.343,0.074,0.441l-0.11,0.343l0.132-0.269c0.013,0.006,0.063,0.025,0.203,0.025c0.102,0,0.208-0.009,0.308-0.018
	c0.101-0.009,0.195-0.016,0.271-0.016h27.807c-0.008-0.127-0.007-0.252-0.007-0.375c0-0.118-0.037-0.241-0.069-0.35
	c-0.08-0.266-0.17-0.567-0.025-0.834c0.028-0.053,0.066-0.143,0.112-0.248c0.274-0.631,0.496-1.081,0.854-1.115l1.807-0.172
	c0.01-0.001,0.074-0.004,0.084-0.004c0.216,0,0.343,0.091,0.411,0.167c0.179,0.198,0.148,0.477,0.122,0.723
	c-0.008,0.081-0.018,0.163-0.018,0.239v2.585c0,0.187-0.138,0.274-0.247,0.327c0.218,0.166,0.589,0.397,0.756,0.501
	c0.14,0.087,0.252,0.158,0.302,0.195c0.722,0.535,1.7,0.625,2.561,0.668c1.611,0.081,3.356,0.12,5.336,0.12
	c1.954,0,3.944-0.038,5.869-0.074l0.989-0.019c1.193-0.023,2.427,0.039,3.604-0.147c0.141-0.022,0.34-0.066,0.573-0.117
	c0.639-0.139,1.512-0.33,2.227-0.33c0.547,0,0.929,0.113,1.161,0.344c0.127,0.03,0.241,0.097,0.336,0.199
	c0.446,0.479,0.397,1.705,0.31,2.919c-0.015,0.208-0.027,0.376-0.027,0.477c0,0.497-0.371,0.536-0.485,0.536
	c-0.047,0-0.101-0.004-0.16-0.01c-0.052-0.005-0.11-0.012-0.174-0.012l-5.029-0.007c-0.938,0-1.874,0.007-2.812,0.034
	c-1.946,0.056-4.256,0.116-6.635,0.137l-0.916,0.008c-0.606,0.005-1.214,0.01-1.821,0.018l-2.782,0.04c-0.016,0-0.03,0-0.043,0.001
	c-0.013,0.108-0.033,0.222-0.086,0.362c-0.279,0.732-1.378,1.616-2.322,1.616c-0.193,0-0.372-0.036-0.534-0.107
	c-0.505-0.224-0.938-0.639-1.319-1.005c-0.11-0.106-0.22-0.21-0.327-0.308c-0.077-0.05-0.472-0.143-0.661-0.188
	c-0.164-0.039-0.309-0.074-0.389-0.102c-0.519-0.18-0.968-0.282-1.505-0.341c-1.391-0.155-3.19-0.095-4.864-0.008
	c-0.486,0.025-0.971,0.05-1.454,0.069c-0.138,0.005-0.172,0.029-0.173,0.03c-0.018,0.023-0.037,0.139-0.051,0.222
	c-0.018,0.103-0.038,0.219-0.073,0.348c-0.09,0.326-0.328,0.511-0.71,0.55c-0.04,0.004-0.106,0.011-0.158,0.018
	c-0.003,0.03-0.006,0.065-0.009,0.098l-0.043,0.485c-0.033,0.368-0.067,0.736-0.104,1.104c-0.035,0.322-0.349,0.322-0.974,0.322
	l-0.424-0.003l-6.979,0.077c-0.257,0.003-0.517,0.004-0.776,0.004l-1.508-0.003c-1.27,0-2.743,0.017-4.147,0.217
	c-0.251,0.036-0.502,0.061-0.753,0.086c-0.277,0.028-0.555,0.055-0.831,0.098c-0.113,0.018-0.284,0.063-0.476,0.114
	c-0.483,0.128-1.031,0.266-1.331,0.19C62.02,17,61.88,15.826,61.89,14.103c-0.758,0.163-1.523,0.303-2.269,0.438
	c-0.552,0.1-1.103,0.2-1.653,0.311c-0.252,0.05-0.513,0.07-0.771,0.089l-0.087,0.007c-0.017,0.077-0.034,0.168-0.053,0.26
	c-0.043,0.208-0.086,0.414-0.106,0.477c-0.151,0.453-0.023,1.218,0.08,1.834c0.029,0.178,0.058,0.344,0.077,0.491
	c0.125,0.947,0.314,1.923,0.579,2.983c0.665,2.539,1.492,5.053,2.527,7.684c0.12,0.307,0.237,0.623,0.354,0.941
	c0.377,1.017,0.766,2.068,1.314,2.949c0.048,0.078,0.059,0.173,0.028,0.259c-0.031,0.086-0.099,0.153-0.185,0.184
	c-1.935,0.669-3.864,1.698-5.73,2.692l-0.397,0.211c-0.044,0.023-0.094,0.055-0.148,0.088
	C55.236,36.133,54.969,36.299,54.679,36.299z M48.979,18.365c0.044,0,0.088,0.009,0.128,0.029c0.081,0.038,0.14,0.109,0.162,0.195
	c0.235,0.903,0.465,1.807,0.693,2.711c0.66,2.607,1.342,5.303,2.172,7.906l0.977,3.067c0.269,0.844,0.614,1.682,1.028,2.491
	c0.197,0.388,0.373,0.681,0.559,0.934c0.12-0.012,0.301-0.125,0.436-0.208c0.067-0.042,0.131-0.081,0.185-0.109l0.396-0.21
	c1.776-0.946,3.61-1.923,5.471-2.606c-0.481-0.855-0.835-1.812-1.179-2.739c-0.116-0.315-0.231-0.627-0.351-0.931
	c-1.044-2.652-1.878-5.189-2.55-7.754c-0.271-1.086-0.465-2.084-0.594-3.053c-0.019-0.141-0.045-0.3-0.073-0.471
	c-0.114-0.681-0.256-1.528-0.058-2.121c0.018-0.056,0.052-0.23,0.088-0.408c0.12-0.596,0.143-0.703,0.383-0.722l0.301-0.024
	c0.233-0.017,0.471-0.034,0.698-0.08c0.554-0.11,1.108-0.211,1.663-0.312c0.86-0.156,1.749-0.318,2.612-0.514
	c0.086-0.02,0.183,0.001,0.254,0.058c0.071,0.057,0.112,0.143,0.112,0.234l-0.002,0.214c-0.025,2.403,0.279,2.626,0.341,2.646
	c0.289-0.004,0.7-0.103,1.028-0.189c0.216-0.057,0.409-0.107,0.537-0.126c0.287-0.045,0.575-0.074,0.863-0.103
	c0.243-0.024,0.486-0.048,0.729-0.083c1.442-0.206,2.94-0.224,4.231-0.224l1.508,0.003c0.258,0,0.515-0.001,0.771-0.003l6.967-0.077
	l0.441,0.003c0.187,0,0.313-0.003,0.398-0.007c0.028-0.29,0.055-0.582,0.081-0.874l0.043-0.478c0.042-0.521,0.195-0.615,0.705-0.665
	c0.165-0.017,0.176-0.055,0.191-0.112c0.028-0.106,0.045-0.203,0.06-0.289c0.052-0.307,0.123-0.727,0.793-0.752
	c0.479-0.018,0.962-0.043,1.445-0.069c1.697-0.088,3.53-0.148,4.962,0.011c0.575,0.063,1.08,0.178,1.636,0.372
	c0.067,0.023,0.19,0.051,0.328,0.084c0.475,0.112,0.773,0.189,0.926,0.325c0.112,0.102,0.226,0.21,0.341,0.321
	c0.363,0.348,0.738,0.708,1.146,0.889c0.085,0.037,0.183,0.056,0.292,0.056c0.666,0,1.557-0.692,1.762-1.229
	c0.042-0.111,0.049-0.192,0.055-0.264c0.035-0.397,0.26-0.48,0.609-0.485l2.8-0.04c0.608-0.009,1.217-0.014,1.824-0.019l0.915-0.008
	c2.374-0.021,4.681-0.081,6.623-0.137c0.943-0.028,1.886-0.035,2.829-0.035l5.029,0.007c0.08,0,0.154,0.006,0.221,0.013
	c0.005-0.128,0.016-0.275,0.028-0.447c0.046-0.64,0.154-2.139-0.151-2.467c-0.097,0-0.237-0.072-0.293-0.151
	c-0.054-0.075-0.224-0.2-0.765-0.2c-0.649,0-1.487,0.183-2.099,0.316c-0.248,0.054-0.459,0.1-0.607,0.123
	c-1.227,0.194-2.478,0.133-3.686,0.154l-0.989,0.019c-1.928,0.037-3.921,0.074-5.881,0.074c-1.989,0-3.745-0.039-5.365-0.12
	c-0.948-0.048-2.032-0.151-2.889-0.786c-0.043-0.032-0.141-0.092-0.262-0.168c-0.877-0.546-1.152-0.759-1.168-1.025
	c-0.01-0.276,0.222-0.412,0.377-0.484V4.83c0-0.097,0.01-0.201,0.021-0.303C92.2,4.461,92.21,4.371,92.21,4.307l-1.788,0.167
	c-0.059,0.064-0.277,0.567-0.36,0.757c-0.054,0.125-0.1,0.23-0.134,0.293C89.903,5.581,89.966,5.79,90,5.901
	c0.046,0.155,0.094,0.316,0.094,0.471c0,0.267,0,0.47,0.039,0.667c0.018,0.088-0.005,0.18-0.062,0.249
	c-0.058,0.07-0.143,0.11-0.232,0.11H61.694c-0.063,0-0.139,0.007-0.221,0.014c-0.309,0.026-0.632,0.027-0.825-0.067
	c-0.376-0.188-0.384-0.479-0.36-0.648c-0.024-0.001-0.055-0.002-0.09-0.002h-1.251c0.054,0.205,0.086,0.411,0.118,0.612L59.1,7.518
	c0.015,0.087-0.01,0.177-0.066,0.244c-0.058,0.067-0.141,0.106-0.229,0.106h-9.973c-0.217,0-0.437,0.007-0.657,0.014
	c-0.464,0.014-0.934,0.027-1.388-0.015c-0.346-0.032-0.696-0.095-1.049-0.158C45.189,7.61,44.62,7.51,44.092,7.541
	c-0.066,0.004-0.228,0.018-0.444,0.037c-0.673,0.058-1.799,0.156-2.339,0.156c-0.23,0-0.517,0-0.577-0.271
	c-0.027-0.123-0.051-0.249-0.074-0.375c-0.069-0.375-0.135-0.728-0.312-1.011c-0.242-0.385-0.277-0.385-0.446-0.385
	c-0.087,0-0.19,0.01-0.317,0.025c-0.117,0.014-0.221,0.03-0.314,0.044c-0.619,0.095-0.935,0.048-1.372-0.37
	c-0.087-0.083-0.168-0.169-0.246-0.252c-0.278-0.295-0.448-0.462-0.717-0.47c-0.001,0-0.002,0-0.002,0
	c-1.014,0-1.102,0.555-1.186,1.618c-0.017,0.205-0.033,0.412-0.061,0.614c-0.096,0.725-0.17,1.279-0.829,1.82
	c-0.484,0.399-0.822,0.589-1.444,0.812c-0.665,0.24-1.332,0.354-1.976,0.463c-0.386,0.066-0.772,0.132-1.162,0.225
	c-0.179,0.042-0.293,0.228-0.448,0.505c-0.178,0.318-0.398,0.714-0.879,0.714c-0.036,0.021-0.276,0.022-0.466,0.009
	c-0.068-0.004-0.136-0.009-0.2-0.009H5.573c-0.471,0-0.797,0.117-0.997,0.358c-0.465,0.56-0.243,1.745-0.064,2.697
	c0.046,0.246,0.089,0.478,0.118,0.684c0.146,1.02,0.24,2.016,0.34,3.119c0.09,1.021,0.178,2.044,0.264,3.066
	c0.027,0.321,0.037,0.648,0.047,0.977c0.018,0.603,0.037,1.227,0.173,1.792c0.102,0.429,0.248,1.041,0.534,1.041
	c0.066,0,0.151-0.024,0.245-0.072c0.163-0.081,0.324-0.307,0.48-0.526c0.114-0.16,0.228-0.316,0.345-0.434
	c1.225-1.227,2.622-2.345,3.974-3.425c2.37-1.895,5.561-4.445,9.195-4.576c2.391-0.085,4.604-0.187,6.767-0.312
	c2.059-0.121,4.165-0.159,6.023-0.192l0.163-0.001c1.211,0,1.37,0.203,1.446,0.301c0.187,0.241,0.391,0.46,0.595,0.682
	c0.115,0.125,0.23,0.25,0.344,0.378c0.614,0.702,0.225,1.689-0.061,2.411c-0.058,0.145-0.111,0.282-0.154,0.408
	c-0.68,1.998-1.455,3.982-2.371,6.068c-0.035,0.081-0.084,0.17-0.135,0.264c-0.064,0.117-0.198,0.361-0.184,0.438
	c0.439,0.212,0.856,0.43,1.274,0.647c0.591,0.308,1.181,0.616,1.783,0.903l0.204,0.098c0.577,0.277,1.175,0.563,1.779,0.719
	c0.039,0.01,0.064,0.012,0.079,0.012c0.036-0.046,0.036-0.303,0.036-0.426c0-0.807,0.073-1.623,0.145-2.412
	c0.029-0.322,0.059-0.645,0.083-0.966c0.066-0.888,0.332-1.772,0.6-2.603c0.176-0.55,0.385-1.122,0.636-1.749
	c0.031-0.078,0.063-0.179,0.099-0.29c0.144-0.449,0.322-1.007,0.712-1.202c0.077-0.039,0.16-0.076,0.243-0.113
	c0.174-0.077,0.353-0.157,0.479-0.258c0.305-0.246,0.685-0.092,0.941,0.079c0.063,0.042,0.128,0.087,0.198,0.121
	c1.116,0.543,1.983,0.744,2.975,0.668l0.198-0.014c0.572-0.042,1.357-0.098,1.799-0.332c0.095-0.05,0.185-0.126,0.279-0.207
	c0.106-0.09,0.216-0.18,0.341-0.255c0.293-0.176,0.611-0.312,0.919-0.444c0.132-0.057,0.264-0.113,0.392-0.172
	C48.894,18.374,48.937,18.365,48.979,18.365z M7.271,21.41c-0.035,0-0.069-0.006-0.104-0.018c-0.103-0.038-0.177-0.129-0.193-0.238
	c-0.143-0.965-0.251-1.932-0.36-2.898c-0.104-0.931-0.21-1.863-0.345-2.792l-0.235-1.791c-0.011-0.085,0.016-0.172,0.072-0.237
	s0.14-0.102,0.226-0.102h10.625c0.13,0,0.245,0.083,0.285,0.208s-0.004,0.259-0.109,0.335c-3.234,2.332-6.578,4.743-9.663,7.458
	C7.413,21.385,7.343,21.41,7.271,21.41z M6.673,13.934l0.19,1.448c0.135,0.932,0.241,1.869,0.347,2.807
	c0.087,0.777,0.175,1.555,0.28,2.332c2.747-2.377,5.674-4.52,8.537-6.587H6.673z M45.545,18.672c-0.475,0-0.954-0.033-1.309-0.058
	c-0.195-0.014-0.351-0.025-0.44-0.025l-0.465,0.006c-0.449,0-0.922-0.057-1.335-0.471c-0.452-0.575-0.539-1.511-0.224-2.158
	c0.236-0.484,0.658-0.751,1.188-0.751h3.242c0.589,0,1.021,0.183,1.285,0.543c0.348,0.476,0.363,1.219,0.048,2.21
	C47.381,18.455,46.767,18.672,45.545,18.672z M43.796,17.989c0.099,0,0.269,0.011,0.482,0.026c0.344,0.024,0.808,0.056,1.267,0.056
	c1.313,0,1.414-0.274,1.418-0.286c0.248-0.776,0.262-1.371,0.04-1.674c-0.145-0.197-0.414-0.297-0.801-0.297H42.96
	c-0.296,0-0.514,0.14-0.647,0.415c-0.217,0.443-0.156,1.129,0.132,1.499c0.224,0.221,0.487,0.268,0.887,0.268L43.796,17.989z"/>
<rect id="sliceCopy_x5F_44_1_" x="120.306" fill="none" width="90.918" height="40"/>
<rect id="sliceCopy_x5F_43_1_" fill="none" width="120.306" height="40"/>
</svg>
