<?xml version="1.0" encoding="utf-8"?>
<!-- Generator: Adobe Illustrator 15.1.0, SVG Export Plug-In  -->
<!DOCTYPE svg PUBLIC "-//W3C//DTD SVG 1.1//EN" "http://www.w3.org/Graphics/SVG/1.1/DTD/svg11.dtd" [
	<!ENTITY ns_flows "http://ns.adobe.com/Flows/1.0/">
]>
<svg version="1.1"
	 xmlns="http://www.w3.org/2000/svg" xmlns:xlink="http://www.w3.org/1999/xlink" xmlns:a="http://ns.adobe.com/AdobeSVGViewerExtensions/3.0/"
	 x="0px" y="0px" width="95px" height="40px" viewBox="0.099 0 95 40" enable-background="new 0.099 0 95 40" xml:space="preserve">
<defs>
</defs>
<path d="M64.501,37.3c-0.229,0-0.407-0.025-0.545-0.077c-0.247-0.092-0.388-0.281-0.388-0.518c0-0.223,0.164-0.333,0.243-0.387
	l0.056-0.062v-0.646c0-0.2-0.015-0.432-0.027-0.651c-0.011-0.176-0.021-0.343-0.023-0.48c-0.033-0.034-0.093-0.085-0.139-0.125
	c-0.243-0.208-0.609-0.522-0.609-0.989V23.248c0-0.084-0.004-0.174-0.008-0.266c-0.012-0.303-0.025-0.646,0.076-0.931
	c0.044-0.124,0.106-0.223,0.161-0.31c0.095-0.152,0.171-0.273,0.171-0.537c0-0.1,0.009-0.24,0.02-0.4
	c0.019-0.281,0.066-1.006-0.039-1.2c-0.008,0.005-0.022,0.011-0.04,0.021c-0.14,0.073-0.315,0.024-0.397-0.114
	c-0.146-0.248-0.244-1.488-0.102-2.15c-0.173-0.105-0.342-0.244-0.408-0.45c-0.014,0.013-0.027,0.026-0.042,0.04
	c-0.031,0.029-0.068,0.062-0.109,0.11c-0.117,0.138-0.275,0.168-0.387,0.18c-0.025,0.159-0.101,0.364-0.275,0.476
	c-0.49,0.31-1.002,0.268-1.483,0.249c-0.201-0.008-0.402-0.015-0.604-0.001c-0.126,0.008-0.243,0.022-0.354,0.035
	c-0.163,0.019-0.313,0.036-0.451,0.036c-0.279,0-0.683-0.06-0.973-0.573c-0.072-0.13-0.075-0.292-0.059-0.498
	c-0.054-0.002-0.121-0.003-0.205-0.003l-0.438,0.006l-6.289-0.002c-0.422-0.004-1.166-0.012-1.879-0.012
	c-0.904,0-1.341,0.012-1.552,0.024c-0.007,0.092-0.013,0.202,0.002,0.248c0.116,0.085,0.277,0.159,0.39,0.421
	c0.097,0.222,0.12,0.434,0.142,0.622c0.029,0.261,0.053,0.468,0.254,0.693c0.011,0.012,0.024,0.017,0.085,0.032
	c0.12,0.029,0.438,0.107,0.438,0.566v10.817c0,0.256-0.026,0.518-0.054,0.772c-0.022,0.218-0.046,0.429-0.046,0.623
	c0,0.411-0.186,0.9-1.072,0.9c-0.162,0-0.333-0.014-0.5-0.028c-0.143-0.012-0.281-0.024-0.405-0.024h-6.268
	c-0.117,0-0.256,0.008-0.405,0.017c-0.188,0.011-0.391,0.022-0.592,0.022c-0.394,0-0.954-0.039-1.29-0.377
	c-0.406-0.001-0.585-0.191-0.585-0.56v-1.894c0-0.924,0.012-1.855,0.022-2.79c0.03-2.439,0.063-4.961-0.121-7.355
	c-0.067-0.884,0.176-1.253,0.46-1.677c-0.012,0-0.022-0.001-0.033-0.001c-0.142-0.006-0.282-0.012-0.416-0.012
	c-0.131,0-0.528,0-0.645,0.146c-0.068,0.085-0.075,0.266-0.021,0.509c0.025,0.114,0.094,0.222,0.167,0.336
	c0.166,0.26,0.443,0.694-0.107,1.197c-0.261,0.238-0.656,0.276-0.975,0.306l-0.187,0.02c-0.187,0.024-0.312,0.033-0.398,0.04
	c-0.01,0.001-0.02,0.001-0.028,0.002c-0.036,0.061-0.067,0.113-0.112,0.178c-0.161,0.241-0.239,0.502-0.329,0.805l-0.207,0.646
	c-0.096,0.287-0.19,0.573-0.269,0.853c-0.026,0.091-0.045,0.22-0.066,0.359c-0.062,0.393-0.131,0.838-0.359,1.068
	c-0.027,0.043-0.014,0.23-0.006,0.342c0.02,0.273,0.044,0.613-0.189,0.85c0.014-0.01,0.015,0.023,0.014,0.048
	c-0.019,0.448-0.284,0.542-0.504,0.542c-0.042,0.003-0.171,0.049-0.257,0.08c-0.148,0.053-0.303,0.108-0.44,0.12
	c-0.286,0.025-0.664,0.05-1.071,0.05c-2.49,0-3.029-0.919-3.043-1.69c-0.011-0.611,0.272-1.236,0.522-1.787
	c0.112-0.249,0.221-0.485,0.291-0.702c0.05-0.157,0.111-0.335,0.177-0.523c0.202-0.583,0.455-1.31,0.455-1.777
	c0-0.221,0.034-0.386,0.062-0.519c0.047-0.223,0.063-0.306-0.108-0.558c-0.253-0.369-0.588-0.533-1.012-0.74l-0.17-0.083
	c-0.558-0.277-0.935-0.664-1.187-1.216c-0.043-0.095-0.068-0.195-0.092-0.293c-0.018-0.074-0.038-0.157-0.062-0.185
	c-0.034-0.04-0.055-0.065-0.073-0.08c-0.023,0.018-0.132,0.007-0.318-0.056c-0.339-0.113-0.484-0.321-0.543-0.509
	c-0.105-0.007-0.283-0.014-0.582-0.014c-0.33,0-0.679,0.008-0.891,0.012l-0.193,0.003c-0.212,0-0.519,0.028-0.871,0.058
	c-0.5,0.044-1.067,0.093-1.605,0.093c-0.888,0-1.44-0.14-1.738-0.439c-0.307-0.308-0.32-0.635-0.328-0.831
	c-0.002-0.039-0.004-0.089-0.009-0.116c-0.004,0.005-0.077-0.011-0.229-0.012c-0.187,0-0.378,0.007-0.572,0.014
	c-0.643,0.024-1.26,0.016-1.71-0.098c0.029,0.008-0.021,0.04-0.055,0.061c-0.11,0.07-0.262,0.165-0.453,0.171
	c-0.029,0.095-0.089,0.211-0.224,0.327c-2.479,2.13-4.989,4.018-7.261,5.46c-0.105,0.066-0.215,0.083-0.304,0.097
	c-0.037,0.006-0.095,0.015-0.11,0.025h0.001c0.01,0-0.022,0.086-0.044,0.144c-0.064,0.177-0.146,0.397-0.292,0.542
	c-0.155,0.157-0.683,0.485-0.876,0.58c-0.652,0.324-1.496,0.201-2.159-0.304c-0.649-0.497-1.063-2.007-1.063-2.631
	c0-0.629-0.274-1.819-0.543-2.359c-0.257-0.519-0.297-1.176-0.335-1.813c-0.017-0.272-0.032-0.536-0.066-0.769
	c-0.127-0.855-0.252-2.392,0.343-3.081c0.252-0.294,0.616-0.412,1.034-0.329c0.197-0.11,0.499-0.159,0.955-0.159
	c0.218,0,0.443,0.011,0.641,0.021c0.144,0.007,0.271,0.014,0.367,0.014h6.236c1.325,0,2.62-0.063,3.871-0.124
	c1.271-0.062,2.584-0.125,3.949-0.125h1.913c0.06-0.124,0.142-0.262,0.234-0.361l-0.006-0.004c0.049-0.074,0.069-0.123,0.086-0.161
	c0.072-0.167,0.144-0.257,0.398-0.422c0.201-0.13,0.446-0.147,0.644-0.162c0.083-0.006,0.209-0.015,0.245-0.033
	c0.026-0.062-0.06-0.278-0.101-0.382c-0.063-0.158-0.123-0.307-0.128-0.458c-0.018-0.639,0.241-0.813,0.582-0.975
	c0.075-0.036,0.162-0.076,0.255-0.136c0.08-0.051,0.185-0.169,0.286-0.284c0.233-0.263,0.498-0.561,0.866-0.561l0.101,0
	c0.364,0,0.863,0,1.146,0.566c0.027,0.016,0.19,0.042,0.288,0.057c0.186,0.029,0.396,0.062,0.572,0.169
	c0.136,0.083,0.207,0.187,0.259,0.262c0.058,0.083,0.081,0.118,0.213,0.154c0.339,0.094,0.944,0.07,1.504,0.029
	c0.377-0.028,0.719-0.021,1.045-0.064c0.473-0.059,0.855,0.033,1.023,0.401c0.527,0.076,0.664,0.843,0.713,1.37
	c0.241,0.004,0.482,0.013,0.729,0.022c0.357,0.013,0.727,0.027,1.09,0.027c0.509,0,1.248-0.024,1.782-0.231
	c0.052-0.02,0.186-0.121,0.283-0.195c0.28-0.211,0.598-0.45,0.917-0.45c0.086,0,0.255,0.021,0.4,0.162
	c0.355-0.177,0.778-0.221,1.094-0.104c0.275-0.196,0.753-0.289,1.465-0.289c0.538,0,1.12,0.058,1.434,0.112
	c0.205,0.036,0.34,0.194,0.424,0.298c0.081-0.002,0.142-0.013,0.202-0.022c0.108-0.017,0.216-0.031,0.315-0.031h0.001
	c0.216,0,0.425-0.012,0.637-0.024c0.226-0.013,0.454-0.025,0.675-0.025h1.951c0.212,0,0.384,0.103,0.51,0.178
	c0.043,0.026,0.107,0.064,0.134,0.071c-0.018-0.006,0.041-0.039,0.08-0.062c0.132-0.075,0.281-0.159,0.451-0.159
	c0.104,0,0.314,0.034,0.429,0.292c0.145-0.006,0.287,0.012,0.433,0.032c0.114,0.016,0.234,0.032,0.376,0.032l1.236-0.032
	c0.072-0.104,0.151-0.199,0.281-0.239c0.162-0.049,0.318-0.083,0.471-0.117c0.227-0.049,0.439-0.095,0.63-0.19
	c0.271-0.133,0.682-0.314,1.11-0.421c0.093-0.024,0.216-0.068,0.324-0.116l-2.126-0.736c-0.084-0.029-0.206-0.06-0.347-0.095
	c-0.63-0.157-1.491-0.373-1.637-0.958c-0.053-0.031-0.374-0.058-0.565-0.074c-0.389-0.033-0.755-0.063-0.976-0.285
	c-0.105-0.106-0.257-0.193-0.418-0.285c-0.3-0.172-0.641-0.367-0.795-0.765c-0.258-0.663,0.053-1.046,0.326-1.383l0.068-0.084
	C46.919,2.816,47.123,2.7,47.342,2.7c0.331,0,0.563,0.265,0.731,0.458c0.051,0.057,0.127,0.144,0.158,0.163
	c0.181-0.012,0.447,0.084,0.669,0.18c0.158-0.104,0.378-0.156,0.657-0.156c0.917,0,2.493,0.552,3.435,0.882
	c0.291,0.102,0.52,0.182,0.644,0.216l0.229,0.059c0.658,0.167,1.532,0.39,1.938,0.868c0.087-0.025,0.182-0.043,0.279-0.043
	c0.214,0,0.348,0.089,0.422,0.164c0.184,0.183,0.161,0.489,0.144,0.736c-0.003,0.047-0.007,0.09-0.007,0.123v2.593
	c0,0.997-1.063,0.997-1.575,0.997h-0.088c-0.422,0-0.638,0.022-0.885,0.098h5.416c0.087,0,0.211,0.008,0.35,0.018
	c0.291,0.02,0.674,0.026,0.78,0.008c0-0.003,0-0.007,0-0.01c-0.008-0.144-0.028-0.525,0.419-0.673
	c0.223-0.075,0.222-0.103,0.213-0.439c-0.003-0.112-0.006-0.235,0.004-0.369c0.004-0.05,0-0.066-0.006-0.096
	c-0.039-0.182-0.008-0.307,0.145-0.578c0.065-0.116,0.495-0.529,0.581-0.593c0.37-0.267,1.527-0.629,2.013-0.373
	c0.339,0.173,0.46,0.309,0.46,0.764c0,0.046,0.002,0.079,0.004,0.102c0.087,0.045,0.198,0.12,0.302,0.293
	c0.279,0.468,0.292,0.785,0.292,1.35c0,0.434,0.168,0.834,1.387,0.834c0.314,0,0.641-0.024,0.948-0.047
	c0.287-0.021,0.559-0.041,0.791-0.041H89.14c0.655,0.123,1.705,1.448,1.646,2.189c-0.021,0.267-0.165,0.458-0.397,0.548
	c-0.019,0.074-0.051,0.144-0.098,0.208c-0.273,0.375-1.024,0.534-2.513,0.534c-0.414,0-0.818-0.012-1.153-0.022
	c-0.23-0.007-0.427-0.013-0.568-0.013l-20.115,0.097c-0.046,0.229-0.08,0.71-0.08,0.996c0,0.144,0.033,0.167,0.208,0.266
	c0.152,0.086,0.36,0.204,0.469,0.467c0.146,0.361,0.101,0.937,0.058,1.493c-0.018,0.226-0.035,0.44-0.035,0.615
	c0,0.104,0.01,0.234,0.02,0.374c0.038,0.554,0.082,1.182-0.233,1.52c-0.123,0.132-0.288,0.205-0.479,0.21
	c0.005,0.125,0.011,0.252,0.017,0.38c0.026,0.567,0.053,1.152-0.034,1.69c0.591,0.495,0.554,2.246,0.443,4.297
	c-0.019,0.343-0.034,0.625-0.034,0.8l0.005,5.421c0.025,2.027,0.007,2.045-0.111,2.166c-0.057,0.057-0.137,0.09-0.217,0.09
	c-0.137,0-0.194,0.043-0.229,0.081c-0.207,0.224-0.158,0.893-0.122,1.381c0.012,0.156,0.022,0.306,0.026,0.439
	c0.139,0.16,0.291,0.359,0.188,0.585c-0.115,0.255-0.433,0.255-0.553,0.255c-0.049,0-0.123,0.007-0.212,0.015
	C64.879,37.283,64.686,37.3,64.501,37.3z M64.3,36.691c0.149,0.012,0.471-0.001,0.683-0.02c0.024-0.002,0.049-0.004,0.071-0.006
	c-0.024-0.047-0.04-0.099-0.04-0.16c-0.001-0.141-0.014-0.309-0.027-0.487c-0.049-0.665-0.104-1.418,0.281-1.833
	c0.107-0.116,0.243-0.196,0.399-0.238c0.014-0.394,0.003-1.267-0.003-1.683l-0.004-0.444v-4.985c0-0.182,0.016-0.476,0.034-0.833
	c0.129-2.394,0.052-3.673-0.228-3.805c-0.084-0.012-0.156-0.058-0.203-0.127c-0.048-0.069-0.063-0.155-0.043-0.237
	c0.122-0.519,0.093-1.149,0.064-1.759c-0.012-0.263-0.023-0.522-0.023-0.767c0-0.098,0.048-0.19,0.128-0.246
	s0.185-0.069,0.275-0.036s0.149,0.041,0.182,0.041c0.199-0.167,0.157-0.766,0.135-1.088c-0.011-0.156-0.021-0.299-0.021-0.416
	c0-0.188,0.018-0.419,0.036-0.662c0.035-0.441,0.078-0.991-0.015-1.22c-0.025-0.063-0.08-0.099-0.208-0.171
	c-0.191-0.108-0.513-0.29-0.513-0.789c0-1.592,0.327-1.594,0.503-1.595l20.268-0.098c0.001,0,0.002,0,0.002,0
	c0.17,0,0.372,0.006,0.609,0.013c0.329,0.01,0.728,0.022,1.135,0.022c1.811,0,2.013-0.26,2.029-0.29
	c-0.028-0.09-0.017-0.19,0.037-0.267c0.055-0.077,0.138-0.126,0.231-0.13c0.082-0.003,0.107-0.021,0.107-0.021
	c0.009-0.017,0.025-0.146-0.101-0.42c-0.257-0.563-0.806-1.119-1.001-1.157L68.19,10.786c-0.22,0-0.476,0.02-0.747,0.04
	c-0.321,0.024-0.663,0.049-0.992,0.049c-0.491,0-1.986,0-1.986-1.435c0-0.528-0.01-0.71-0.208-1.042
	c-0.032-0.054-0.043-0.059-0.078-0.075c-0.261-0.119-0.312-0.32-0.312-0.627c0-0.136-0.012-0.174-0.014-0.18
	c0.006,0.014-0.039-0.008-0.073-0.026c-0.069-0.036-0.125-0.058-0.25-0.058c-0.394,0-0.987,0.217-1.182,0.357
	c-0.062,0.048-0.376,0.36-0.428,0.427c-0.057,0.105-0.068,0.144-0.07,0.15c0.015,0.034,0.032,0.116,0.021,0.251
	c-0.008,0.109-0.004,0.213-0.002,0.308c0.01,0.359,0.021,0.807-0.623,1.024c-0.014-0.002-0.011,0.041-0.01,0.072
	c0.007,0.12,0.019,0.343-0.171,0.499c-0.138,0.113-0.344,0.161-0.689,0.161c-0.184,0-0.385-0.014-0.561-0.026
	c-0.123-0.009-0.231-0.017-0.308-0.017h-5.803c-0.261,0-0.477-0.174-0.525-0.424c-0.05-0.256,0.086-0.504,0.331-0.603
	c0.527-0.21,0.783-0.271,1.466-0.271l0.088,0.3v-0.3c0.84,0,0.976-0.117,0.976-0.397V6.349c0-0.044,0.004-0.102,0.008-0.166
	c0.005-0.063,0.013-0.179,0.009-0.254c-0.063,0.006-0.129,0.025-0.179,0.041c-0.189,0.056-0.399,0.026-0.479-0.133
	c-0.188-0.373-1.161-0.62-1.683-0.753l-0.237-0.062c-0.132-0.035-0.375-0.12-0.686-0.229c-0.905-0.317-2.422-0.848-3.236-0.848
	c-0.242,0-0.326,0.051-0.336,0.064c-0.083,0.117-0.245,0.177-0.377,0.122l-0.078-0.034c-0.184-0.081-0.434-0.191-0.602-0.191
	c-0.233,0-0.391-0.18-0.543-0.353C47.556,3.478,47.4,3.3,47.342,3.3c-0.009,0-0.059,0.021-0.138,0.12l-0.07,0.087
	c-0.271,0.334-0.358,0.466-0.234,0.788c0.078,0.199,0.29,0.321,0.535,0.461c0.188,0.107,0.382,0.219,0.545,0.383
	c0.068,0.065,0.414,0.095,0.601,0.11c0.462,0.039,0.986,0.083,1.097,0.527c0.059,0.235,0.888,0.443,1.2,0.521
	c0.161,0.041,0.302,0.076,0.398,0.109l2.301,0.798c0.369,0.127,0.439,0.334,0.433,0.486c-0.018,0.438-0.757,0.66-0.982,0.717
	c-0.296,0.074-0.647,0.208-0.99,0.377c-0.256,0.128-0.518,0.185-0.77,0.239c-0.12,0.026-0.243,0.052-0.368,0.088
	c-0.089,0.133-0.19,0.274-0.376,0.278l-1.314,0.034c-0.248,0.019-0.373-0.018-0.512-0.037c-0.175-0.022-0.347-0.042-0.518-0.005
	c-0.083,0.019-0.172-0.001-0.24-0.052c-0.069-0.051-0.112-0.128-0.121-0.213c-0.021,0.011-0.041,0.023-0.058,0.033
	c-0.121,0.068-0.246,0.139-0.389,0.139c-0.178-0.005-0.312-0.085-0.43-0.156c-0.069-0.042-0.156-0.094-0.202-0.094h-1.951
	c-0.21,0-0.426,0.013-0.641,0.025c-0.224,0.013-0.444,0.025-0.656,0.025l0,0c-0.087,0-0.163,0.013-0.241,0.025
	c-0.161,0.024-0.324,0.044-0.465,0.021c-0.141-0.023-0.217-0.119-0.284-0.203c-0.025-0.032-0.072-0.091-0.096-0.105
	c-0.214-0.033-0.768-0.095-1.305-0.095c-1.001,0-1.147,0.205-1.148,0.207c-0.043,0.074-0.115,0.127-0.199,0.144
	c-0.086,0.018-0.172-0.002-0.24-0.054c-0.084-0.063-0.194-0.076-0.272-0.076c-0.2,0-0.438,0.087-0.607,0.221
	c-0.076,0.061-0.179,0.082-0.272,0.052c-0.095-0.028-0.169-0.101-0.199-0.194c-0.02-0.061-0.037-0.079-0.037-0.079
	c-0.101,0.009-0.386,0.224-0.538,0.339c-0.16,0.12-0.298,0.225-0.428,0.275c-0.483,0.188-1.101,0.272-1.999,0.272
	c-0.37,0-0.748-0.014-1.112-0.027c-0.334-0.013-0.658-0.025-0.955-0.025c-0.158,0-0.319-0.123-0.33-0.28
	c-0.063-0.951-0.227-1.087-0.245-1.099c-0.083,0.034-0.172,0.034-0.252-0.009c-0.079-0.043-0.13-0.114-0.146-0.203
	c-0.038-0.204-0.086-0.204-0.191-0.204c-0.078,0-0.162,0.011-0.247,0.022c-0.339,0.043-0.686,0.038-1.076,0.067
	c-0.631,0.045-1.29,0.066-1.71-0.049c-0.342-0.095-0.465-0.274-0.546-0.392c-0.038-0.056-0.053-0.075-0.077-0.09
	c-0.074-0.045-0.223-0.068-0.353-0.089c-0.262-0.042-0.588-0.092-0.732-0.382c-0.104-0.206-0.216-0.234-0.609-0.234h-0.101
	c-0.099,0-0.298,0.225-0.417,0.36c-0.129,0.145-0.262,0.294-0.411,0.39c-0.117,0.076-0.226,0.127-0.322,0.173
	c-0.229,0.109-0.247,0.118-0.239,0.415c0.002,0.045,0.05,0.166,0.085,0.254c0.118,0.295,0.314,0.789-0.11,1.094
	c-0.156,0.114-0.355,0.128-0.549,0.142c-0.135,0.01-0.288,0.021-0.36,0.066C24.005,9.837,24,9.849,23.979,9.898
	c-0.026,0.061-0.061,0.138-0.139,0.256c-0.003,0.004-0.006,0.008-0.009,0.012c-0.054,0.076-0.159,0.238-0.207,0.327
	c-0.004,0.162-0.137,0.292-0.3,0.292H21.2c-1.351,0-2.656,0.064-3.92,0.125c-1.259,0.062-2.561,0.125-3.9,0.125H7.144
	c-0.104,0-0.241-0.006-0.396-0.014c-0.188-0.009-0.403-0.02-0.611-0.02c-0.546,0-0.658,0.079-0.67,0.088
	c-0.076,0.085-0.192,0.117-0.302,0.083c-0.257-0.075-0.432-0.046-0.563,0.108c-0.371,0.43-0.349,1.626-0.203,2.602
	c0.037,0.25,0.054,0.531,0.071,0.821c0.035,0.577,0.071,1.173,0.273,1.582c0.312,0.624,0.605,1.901,0.605,2.626
	c0,0.572,0.401,1.828,0.828,2.154c0.482,0.369,1.076,0.468,1.529,0.243c0.187-0.091,0.635-0.382,0.718-0.466
	c0.053-0.053,0.113-0.216,0.153-0.324c0.061-0.166,0.108-0.296,0.209-0.386c0.14-0.124,0.304-0.15,0.412-0.167
	c0.029-0.004,0.072-0.012,0.086-0.017c2.238-1.421,4.725-3.291,7.183-5.403c0.041-0.035,0.042-0.042,0.048-0.083
	c0.054-0.344,0.32-0.388,0.546-0.388c0.028,0,0.106-0.05,0.153-0.08c0.106-0.067,0.238-0.15,0.404-0.15
	c0.024,0,0.091,0.008,0.115,0.014c0.39,0.098,0.958,0.101,1.544,0.081c0.201-0.007,0.399-0.014,0.594-0.014
	c0.671,0,0.82,0.281,0.838,0.702c0.007,0.162,0.012,0.29,0.154,0.433c0.119,0.12,0.443,0.262,1.313,0.262
	c0.512,0,1.065-0.048,1.554-0.091c0.373-0.032,0.698-0.06,0.923-0.06l0.181-0.003c0.215-0.005,0.568-0.013,0.903-0.013
	c0.763,0,1.146,0,1.146,0.366c0,0.068,0,0.132,0.17,0.188c0.123,0.042,0.181,0.047,0.227,0.052c0.194,0.02,0.277,0.083,0.431,0.264
	c0.117,0.136,0.155,0.294,0.188,0.433c0.015,0.062,0.028,0.125,0.056,0.185c0.193,0.426,0.474,0.712,0.907,0.928l0.166,0.082
	c0.463,0.226,0.901,0.44,1.243,0.939c0.316,0.462,0.258,0.746,0.201,1.02c-0.024,0.116-0.05,0.237-0.05,0.396
	c0,0.568-0.259,1.315-0.488,1.974c-0.063,0.183-0.123,0.355-0.172,0.509c-0.077,0.237-0.193,0.496-0.315,0.767
	c-0.235,0.518-0.478,1.053-0.47,1.529c0.021,1.228,2.412,1.143,3.463,1.053c0.062-0.005,0.188-0.05,0.29-0.087
	c0.128-0.046,0.25-0.089,0.363-0.107c0.011-0.15,0.037-0.299,0.158-0.418c0.044-0.043,0.027-0.266,0.019-0.386
	c-0.019-0.261-0.042-0.586,0.179-0.808c0.091-0.092,0.157-0.512,0.192-0.738c0.025-0.168,0.051-0.322,0.082-0.43
	c0.079-0.287,0.178-0.583,0.276-0.879l0.201-0.628c0.096-0.32,0.193-0.651,0.407-0.969c0.049-0.072,0.078-0.123,0.1-0.161
	c0.136-0.234,0.249-0.265,0.494-0.282c0.08-0.006,0.194-0.014,0.365-0.036l0.207-0.022c0.217-0.021,0.515-0.049,0.627-0.151
	c0.178-0.163,0.168-0.178,0.006-0.432c-0.088-0.138-0.198-0.31-0.247-0.527c-0.1-0.443-0.055-0.775,0.138-1.015
	c0.262-0.327,0.709-0.371,1.113-0.371c0.143,0,0.291,0.006,0.441,0.013c0.144,0.006,0.288,0.012,0.428,0.012l0.108-0.001
	c0.069-0.015,0.209,0.052,0.265,0.145c0.056,0.092,0.058,0.208,0.005,0.302c-0.104,0.182-0.203,0.332-0.295,0.469
	c-0.269,0.402-0.416,0.623-0.365,1.306c0.186,2.42,0.154,4.956,0.124,7.408c-0.012,0.932-0.023,1.861-0.023,2.783v1.862
	c0.133,0.009,0.281,0.04,0.41,0.169c0.133,0.133,0.424,0.201,0.865,0.201c0.189,0,0.381-0.011,0.557-0.021
	c0.162-0.009,0.313-0.018,0.44-0.018h6.268c0.14,0,0.295,0.012,0.455,0.026c0.15,0.013,0.305,0.026,0.45,0.026
	c0.473,0,0.473-0.139,0.473-0.3c0-0.214,0.023-0.446,0.049-0.686c0.024-0.233,0.051-0.474,0.051-0.709V19.57
	c-0.123-0.033-0.255-0.081-0.371-0.21c-0.328-0.368-0.37-0.732-0.403-1.025c-0.019-0.167-0.035-0.311-0.096-0.452l-0.058-0.066
	c-0.135-0.062-0.271-0.154-0.354-0.411c-0.053-0.167-0.037-0.359-0.023-0.529c0.005-0.058,0.01-0.113,0.01-0.16
	c0-0.364,0.161-0.364,2.136-0.364c0.715,0,1.462,0.007,1.885,0.012l0.324,0.003l6.396-0.006c0.442,0,0.825,0,0.825,0.356
	c0,0.047-0.006,0.116-0.013,0.192c-0.008,0.078-0.023,0.24-0.012,0.291c0.18,0.307,0.436,0.247,0.817,0.204
	c0.12-0.014,0.248-0.029,0.384-0.038c0.219-0.015,0.444-0.007,0.665,0c0.12,0.004,0.239,0.009,0.356,0.009
	c0.367,0,0.602-0.049,0.783-0.164l0,0c-0.009,0,0.009-0.055,0.009-0.096c0-0.191,0.085-0.427,0.491-0.467
	c0.088-0.048,0.142-0.098,0.188-0.14c0.021-0.02,0.05-0.046,0.055-0.055c0,0,0.014-0.027,0.014-0.136
	c0-0.251,0.17-0.383,0.339-0.383c0.333,0,0.61,0.568,0.61,0.782c0,0.06,0.214,0.17,0.295,0.211c0.091,0.046,0.172,0.146,0.182,0.249
	c0.007,0.072-0.002,0.148-0.037,0.209c-0.085,0.2-0.09,1.152-0.028,1.612c0.149,0.001,0.283,0.06,0.387,0.17
	c0.283,0.302,0.267,0.911,0.217,1.675c-0.01,0.144-0.019,0.27-0.019,0.36c0,0.437-0.151,0.679-0.263,0.855
	c-0.044,0.07-0.082,0.131-0.104,0.193c-0.062,0.175-0.051,0.457-0.041,0.705c0.004,0.101,0.008,0.198,0.008,0.29v10.118
	c0,0.19,0.222,0.381,0.4,0.534c0.187,0.16,0.348,0.299,0.348,0.514c0,0.138,0.012,0.319,0.022,0.511
	c0.014,0.23,0.028,0.476,0.028,0.687v0.646C64.467,36.464,64.386,36.601,64.3,36.691z M9.085,17.864c-0.03,0-0.061-0.004-0.09-0.014
	c-0.091-0.029-0.163-0.099-0.194-0.189l-0.699-2.053c-0.044-0.128-0.105-0.166-0.227-0.24c-0.137-0.083-0.323-0.198-0.455-0.46
	c-0.161-0.323-0.218-0.809-0.268-1.237c-0.019-0.161-0.036-0.313-0.059-0.441c-0.015-0.087,0.01-0.177,0.066-0.245
	c0.057-0.067,0.141-0.106,0.229-0.106h8.324c0.151,0,0.279,0.112,0.298,0.263c0.019,0.15-0.077,0.291-0.224,0.328
	c-0.024,0.006-0.052,0.022-0.095,0.049c-0.04,0.024-0.08,0.048-0.123,0.069c-0.795,0.61-1.638,1.226-2.575,1.881
	c-0.188,0.131-0.408,0.259-0.635,0.39c-0.298,0.172-0.605,0.35-0.845,0.544c-0.361,0.296-0.727,0.495-1.112,0.706
	c-0.357,0.195-0.727,0.396-1.142,0.698C9.21,17.844,9.147,17.864,9.085,17.864z M7.734,13.478c0.004,0.041,0.009,0.082,0.014,0.123
	c0.042,0.36,0.095,0.809,0.209,1.038c0.055,0.109,0.121,0.15,0.231,0.218c0.154,0.095,0.366,0.225,0.48,0.557l0.572,1.678
	c0.316-0.207,0.608-0.366,0.874-0.511c0.377-0.206,0.703-0.383,1.022-0.645c0.276-0.224,0.604-0.414,0.922-0.598
	c0.212-0.123,0.418-0.241,0.592-0.363c0.742-0.519,1.425-1.013,2.069-1.498H7.734z"/>
<rect id="sliceCopy_x5F_57_1_" x="94.487" fill="none" width="106.674" height="40"/>
<rect id="sliceCopy_x5F_56_1_" fill="none" width="94.488" height="40"/>
</svg>
