<?xml version="1.0" encoding="utf-8"?>
<!-- Generator: Adobe Illustrator 15.1.0, SVG Export Plug-In  -->
<!DOCTYPE svg PUBLIC "-//W3C//DTD SVG 1.1//EN" "http://www.w3.org/Graphics/SVG/1.1/DTD/svg11.dtd" [
	<!ENTITY ns_flows "http://ns.adobe.com/Flows/1.0/">
]>
<svg version="1.1"
	 xmlns="http://www.w3.org/2000/svg" xmlns:xlink="http://www.w3.org/1999/xlink" xmlns:a="http://ns.adobe.com/AdobeSVGViewerExtensions/3.0/"
	 x="0px" y="0px" width="108px" height="40px" viewBox="0.438 0 108 40" enable-background="new 0.438 0 108 40"
	 xml:space="preserve">
<defs>
</defs>
<path d="M25.186,31.3c-0.623,0-1.233-0.137-1.823-0.27c-0.198-0.044-0.396-0.089-0.592-0.127l-0.283-0.056
	c-0.773-0.152-1.504-0.296-2.262-0.51c-0.725-0.202-1.834-0.512-1.865-1.487c-0.023-0.698,0.461-1.415,0.889-2.047
	c0.146-0.216,0.283-0.419,0.385-0.603l0.342-0.612c0.479-0.855,0.975-1.74,1.416-2.629c0.316-0.64,0.598-1.317,0.256-1.953
	c-0.101-0.115-0.725-0.167-0.93-0.185c-0.104-0.009-0.194-0.017-0.261-0.025c-0.526-0.072-1.059-0.109-1.582-0.109
	c-0.085,0-0.166-0.036-0.223-0.099c-0.057-0.063-0.084-0.146-0.076-0.231l0.011-0.137c0.004-0.049,0.007-0.1,0.012-0.151
	c-1.202,0.241-2.405,0.533-3.574,0.815c-0.824,0.2-1.648,0.399-2.477,0.583c-0.711,0.158-1.142,0.486-1.592,1.21
	c-0.271,0.439-0.486,0.92-0.683,1.375c-0.048,0.109-0.093,0.227-0.139,0.348c-0.144,0.376-0.307,0.802-0.587,1.111
	c-0.514,0.565-1.365,0.895-2.116,1.186c-0.176,0.068-0.344,0.133-0.497,0.197c-0.149,0.064-0.3,0.137-0.451,0.209
	c-0.481,0.233-0.979,0.474-1.528,0.474c-0.224,0-0.442-0.042-0.651-0.124c-0.541-0.212-0.528-1.189-0.456-2.444
	c0.012-0.201,0.021-0.368,0.021-0.472L3.7,14.111c-0.015-0.784,1.05-0.833,1.755-0.867c0.149-0.007,0.279-0.012,0.368-0.025
	c0.411-0.06,0.825-0.112,1.239-0.163c0.67-0.083,1.362-0.169,2.026-0.293c0.388-0.072,0.611-0.177,0.855-0.403
	c0.373-0.343,0.745-0.375,1.14-0.408l3.611-0.332l8.937-0.825c1.602-0.151,3.203-0.302,4.806-0.438
	c0.087-0.012,0.182,0.026,0.245,0.095c0.063,0.067,0.091,0.16,0.076,0.251c-0.027,0.176,0.251,0.585,0.459,0.673
	c0.049-0.021,0.078-0.253,0.09-0.34c0.022-0.181,0.054-0.428,0.306-0.468c0.115-0.037,0.328-0.349,0.501-0.627
	c-0.046-0.035-0.081-0.083-0.101-0.14c-0.042-0.121-0.003-0.255,0.098-0.334c0.078-0.06,0.235-0.105,0.331-0.078
	c0.041-0.069,0.078-0.128,0.11-0.174C30.868,8.758,31.324,8.7,31.686,8.7c0.095,0,0.191,0.004,0.291,0.009
	c0.153,0.008,0.266,0.069,0.341,0.109l0,0c0.01,0,0.08,0.03,0.089,0.03c0.254,0,0.331,0.238,0.377,0.38
	c0.012,0.038,0.032,0.103,0.05,0.14c0.065-0.035,0.142-0.047,0.221-0.026c0.087,0.023,0.167,0.055,0.244,0.098
	c0.059,0.033,0.104,0.083,0.129,0.142c0.34,0.051,0.692,0.039,1.01,0.03l0.177-0.008c0.114-0.006,0.235-0.013,0.358-0.013
	c0.341,0,0.826,0.046,1.104,0.441c0.021,0.028,0.038,0.057,0.055,0.085c0.077-0.091,0.203-0.153,0.403-0.153l0.16,0.002h11.869
	c0.037,0,0.067-0.001,0.091-0.002c-0.003-0.031-0.006-0.065-0.009-0.097l-0.01-0.096c-0.012-0.132,0.029-0.256,0.116-0.351
	c0.122-0.134,0.323-0.199,0.614-0.199c0.108,0,0.21,0.009,0.273,0.016c0.127,0.014,0.235,0.074,0.306,0.169
	c0.129,0.175,0.086,0.392,0.053,0.566c-0.004,0.02-0.009,0.044-0.013,0.067c0.118,0.014,0.337-0.022,0.527-0.056
	c0.195-0.035,0.392-0.068,0.563-0.068c0.596,0,0.747,0.391,0.783,0.625l0.018,0.11c0.104,0.666,0.148,0.68,0.625,0.647
	c0.738-0.052,1.53-0.076,2.49-0.076c0.688,0,1.377,0.012,2.063,0.025c0.681,0.012,1.36,0.024,2.035,0.024h29.742
	c0.88,0,1.769-0.021,2.661-0.041c0.901-0.02,1.807-0.041,2.709-0.041c1.196,0,2.184,0.036,3.106,0.113
	c0.362,0.029,0.624,0.029,0.799-0.164c0.286-0.318,0.479-0.737,0.622-1.36l0.028-0.147c0.058-0.312,0.164-0.893,0.795-0.896
	c0.449,0,0.869,0.239,1.176,0.414c0.82,0.464,1.67,1,2.325,1.764c0.303,0.352,0.468,0.414,0.941,0.558
	c0.641,0.196,0.641,0.709,0.641,1.017v1.12c0.002,0.015,0.003,0.031,0.002,0.046l-0.005,0.196c-0.004,0.443-0.131,0.542-0.563,0.651
	l-0.271,0.072c-0.254,0.071-0.52,0.126-0.81,0.166c0.083,0.011,0.158,0.03,0.227,0.057c0.857,0.334,1.227,1.44,1.076,2.273
	c-0.136,0.761-0.711,1.571-1.51,1.571H78.213c-0.443,0-0.792,0.117-1.233,0.266c-0.408,0.138-0.82,0.173-1.219,0.207
	c-0.123,0.01-0.245,0.021-0.364,0.034l-0.176,0.02c-1.058,0.121-2.151,0.245-3.252,0.245l-2.026-0.015
	c-1.659-0.015-3.316-0.031-4.974-0.005c-2.335,0.034-4.67,0.05-7.007,0.057l-0.827,0.002c-0.825,0.001-1.649,0.002-2.475,0.012
	c-0.175,0.002-0.356,0.007-0.542,0.012c-0.259,0.007-0.526,0.015-0.794,0.015c-0.58,0-1.331-0.03-1.99-0.268
	c-0.262-0.094-0.558-0.136-0.961-0.136c-0.197,0-0.397,0.01-0.597,0.019c-0.395,0.02-0.786,0.036-1.164-0.009
	c-1.023-0.124-2.297-0.248-3.24-0.108c-0.326,0.048-0.613,0.234-0.916,0.431c-0.346,0.223-0.703,0.455-1.152,0.508
	c-0.336,0.04-0.7-0.102-1.014-0.226c-0.135-0.054-0.264-0.106-0.382-0.137c-0.66-0.172-1.216-0.302-1.782-0.378
	c-0.956-0.129-1.638-0.134-2.227-0.021c-0.619,0.117-0.91,0.484-1.312,0.993l-0.199,0.249c-0.398,0.487-1.064,1.302-1.945,1.302
	c-0.207,0-0.418,0.052-0.642,0.106c-0.206,0.05-0.418,0.103-0.646,0.119c-0.31,0.022-0.62,0.028-0.932,0.035
	c-0.254,0.005-0.508,0.01-0.761,0.024c-0.21,0.012-0.428,0.018-0.649,0.024c-0.645,0.018-1.31,0.036-1.874,0.194
	c-0.421,0.117-0.683,0.866-0.873,1.413c-0.07,0.201-0.136,0.386-0.202,0.533c-0.441,0.977-0.914,1.959-1.404,2.92l-0.114,0.222
	c-0.38,0.732-0.68,1.311-0.338,2.055c0.039,0.084,0.158,0.223,0.264,0.345c0.262,0.304,0.56,0.648,0.446,1.015
	c-0.068,0.223-0.27,0.381-0.6,0.469C25.823,31.262,25.519,31.3,25.186,31.3z M19.2,20.091c0.444,0.012,0.894,0.049,1.339,0.109
	c0.059,0.008,0.138,0.015,0.229,0.022c0.653,0.055,1.21,0.13,1.408,0.498c0.517,0.962,0.02,1.965-0.248,2.503
	c-0.448,0.903-0.947,1.794-1.429,2.655l-0.342,0.611c-0.108,0.196-0.256,0.416-0.412,0.647c-0.376,0.557-0.803,1.189-0.786,1.692
	c0.016,0.494,0.683,0.722,1.364,0.912c0.799,0.225,1.519,0.367,2.279,0.517l0.283,0.056c0.201,0.04,0.403,0.085,0.606,0.131
	c0.841,0.189,1.743,0.354,2.471,0.158c0.153-0.041,0.189-0.082,0.189-0.082c-0.015-0.06-0.224-0.301-0.335-0.431
	c-0.145-0.167-0.281-0.326-0.354-0.487c-0.464-1.01-0.05-1.808,0.35-2.581l0.112-0.217c0.486-0.954,0.955-1.927,1.393-2.895
	c0.06-0.133,0.118-0.302,0.183-0.485c0.247-0.709,0.556-1.591,1.277-1.793c0.636-0.178,1.339-0.197,2.02-0.216
	c0.216-0.006,0.429-0.012,0.633-0.023c0.26-0.015,0.521-0.021,0.782-0.025c0.301-0.006,0.602-0.012,0.9-0.034
	c0.177-0.013,0.356-0.057,0.546-0.103c0.248-0.061,0.505-0.123,0.784-0.123c0.597,0,1.129-0.651,1.48-1.083l0.193-0.241
	c0.428-0.54,0.831-1.051,1.671-1.21c0.66-0.124,1.387-0.122,2.418,0.017c0.597,0.08,1.173,0.215,1.854,0.392
	c0.14,0.037,0.293,0.096,0.452,0.159c0.237,0.094,0.482,0.191,0.669,0.191c0.363-0.041,0.647-0.225,0.949-0.419
	c0.344-0.223,0.699-0.453,1.154-0.521c1.013-0.15,2.395-0.014,3.4,0.106c0.345,0.042,0.703,0.023,1.063,0.005
	c0.21-0.01,0.419-0.02,0.626-0.02c0.476,0,0.835,0.053,1.164,0.172c0.571,0.206,1.255,0.232,1.787,0.232
	c0.263,0,0.523-0.007,0.777-0.015c0.188-0.005,0.373-0.01,0.551-0.012c0.827-0.01,1.654-0.012,2.481-0.013l0.826-0.001
	c2.335-0.007,4.668-0.023,7.001-0.057c1.66-0.025,3.324-0.009,4.986,0.005l2.021,0.015c1.066,0,2.095-0.117,3.184-0.241l0.177-0.02
	c0.126-0.014,0.253-0.025,0.381-0.036c0.363-0.031,0.738-0.063,1.063-0.172c0.489-0.165,0.897-0.302,1.439-0.302h24.568
	c0.496,0,0.842-0.643,0.92-1.077c0.105-0.59-0.157-1.396-0.705-1.609c-0.124-0.048-0.404-0.02-0.661,0.013
	c-0.185,0.024-0.371,0.047-0.543,0.047c-0.459,0-0.765-0.177-0.906-0.525c-0.085-0.21-0.016-0.365,0.034-0.438
	c0.222-0.329,0.791-0.272,1.153-0.253c0.066,0.003,0.123,0.006,0.163,0.006c0.559-0.029,0.998-0.096,1.399-0.208
	c0.116-0.033,0.21-0.057,0.287-0.076c0.044-0.011,0.08-0.02,0.11-0.027c0-0.015,0-0.031,0-0.048l0.004-0.176
	c-0.001-0.009-0.001-0.019-0.001-0.028v-1.153c0-0.363-0.041-0.389-0.216-0.442c-0.52-0.158-0.81-0.263-1.222-0.741
	c-0.596-0.695-1.394-1.196-2.166-1.633c-0.264-0.15-0.59-0.336-0.875-0.336c-0.097,0-0.138,0.017-0.209,0.405l-0.034,0.173
	c-0.113,0.491-0.302,1.118-0.762,1.628c-0.303,0.337-0.651,0.38-0.921,0.38c-0.119,0-0.243-0.01-0.374-0.021
	c-0.905-0.075-1.876-0.11-3.056-0.11c-0.897,0-1.798,0.02-2.696,0.041c-0.896,0.02-1.789,0.04-2.674,0.04H59.09
	c-0.679,0-1.361-0.012-2.046-0.024c-0.684-0.012-1.368-0.024-2.053-0.024c-0.945,0-1.724,0.023-2.448,0.075
	c-0.064,0.004-0.125,0.006-0.181,0.006c-0.9,0-0.991-0.59-1.079-1.161l-0.017-0.108c-0.014-0.083-0.02-0.118-0.191-0.118
	c-0.14,0-0.299,0.03-0.459,0.059c-0.425,0.075-0.816,0.101-1.058-0.063c-0.246-0.167-0.187-0.473-0.15-0.655
	c0.002-0.01,0.004-0.022,0.007-0.035c-0.068-0.002-0.134,0.001-0.172,0.006c0.021,0.219,0.036,0.409-0.105,0.565
	c-0.145,0.159-0.363,0.172-0.575,0.172l-11.954-0.001c0.001,0.123,0.013,0.245,0.024,0.367c0.014,0.143,0.026,0.286,0.026,0.429
	c0,0.104-0.054,0.2-0.142,0.255c-0.09,0.054-0.2,0.06-0.292,0.014c-0.461-0.229-0.496-0.583-0.522-0.841
	c-0.016-0.158-0.028-0.283-0.118-0.411s-0.284-0.187-0.613-0.187c-0.111,0-0.222,0.006-0.325,0.012l-0.192,0.009
	c-0.136,0.004-0.276,0.008-0.418,0.008c-0.463,0-1.056-0.04-1.54-0.346c-0.166-0.104-0.232-0.301-0.28-0.449
	c-0.078-0.021-0.137-0.053-0.182-0.077s-0.07-0.037-0.089-0.038C31.856,9.304,31.77,9.3,31.686,9.3
	c-0.342,0-0.509,0.067-0.641,0.256c-0.054,0.078-0.122,0.197-0.202,0.334c-0.329,0.566-0.616,1.024-0.938,1.2
	c-0.001,0.007-0.002,0.014-0.003,0.021c-0.033,0.263-0.111,0.878-0.641,0.878c-0.088,0-0.181-0.02-0.276-0.06
	c-0.322-0.136-0.672-0.547-0.787-0.95c-1.504,0.13-3.007,0.271-4.51,0.413l-12.554,1.158c-0.351,0.03-0.563,0.048-0.783,0.251
	c-0.38,0.352-0.735,0.475-1.152,0.552c-0.682,0.128-1.384,0.215-2.063,0.299c-0.41,0.051-0.819,0.102-1.226,0.161
	c-0.104,0.015-0.255,0.023-0.429,0.031c-0.98,0.046-1.185,0.165-1.183,0.257l0.168,10.428c0.002,0.115-0.008,0.297-0.021,0.516
	c-0.024,0.414-0.097,1.671,0.096,1.862c0.121,0.044,0.263,0.071,0.412,0.071c0.411,0,0.827-0.201,1.268-0.414
	c0.159-0.077,0.318-0.154,0.479-0.222c0.159-0.067,0.333-0.134,0.514-0.205c0.689-0.267,1.471-0.569,1.89-1.029
	c0.203-0.225,0.339-0.579,0.47-0.921c0.05-0.13,0.098-0.256,0.148-0.373c0.205-0.475,0.431-0.979,0.724-1.453
	c0.533-0.859,1.104-1.288,1.971-1.48c0.825-0.183,1.646-0.382,2.467-0.581c1.328-0.322,2.702-0.654,4.076-0.915
	c0.112-0.021,0.235,0.026,0.303,0.125c0.067,0.098,0.07,0.227,0.008,0.328C19.229,19.905,19.211,19.993,19.2,20.091z M32.778,20.895
	c-0.318,0-0.644-0.032-0.927-0.061c-0.151-0.015-0.289-0.029-0.407-0.036c-0.086-0.004-0.174-0.005-0.263-0.005v-0.3l-0.057,0.3
	c-0.005,0-0.01,0-0.016,0c-0.449,0-0.981-0.005-1.385-0.42c-0.339-0.347-0.479-0.885-0.365-1.403
	c0.265-1.197,1.552-1.197,1.975-1.197c0.309,0,0.621,0.026,0.901,0.05c0.136,0.012,0.265,0.022,0.381,0.029
	c0.059,0.003,0.12,0.004,0.185,0.004l0.233-0.001c0.316,0,0.907,0,1.26,0.434c0.517,0.638,0.251,1.395,0.058,1.948
	c-0.009,0.026-0.021,0.05-0.037,0.073C34.039,20.704,33.536,20.895,32.778,20.895z M31.182,20.193c0.1,0,0.199,0.001,0.296,0.006
	c0.125,0.006,0.272,0.021,0.434,0.038c0.266,0.026,0.569,0.058,0.867,0.058c0.523,0,0.858-0.098,1.022-0.3
	c0.188-0.543,0.304-0.987,0.026-1.328c-0.143-0.177-0.409-0.212-0.793-0.212l-0.233,0.001c-0.076,0-0.148-0.001-0.218-0.005
	c-0.122-0.007-0.256-0.018-0.399-0.03c-0.264-0.022-0.559-0.048-0.85-0.048c-1.088,0-1.313,0.388-1.389,0.727
	c-0.069,0.318,0.013,0.654,0.209,0.855c0.215,0.222,0.514,0.239,0.913,0.239H31.182z M82.562,15.434c-0.68,0-1.36-0.003-2.04-0.008
	c-0.304-0.002-0.608-0.01-0.912-0.017c-0.528-0.013-1.061-0.026-1.587-0.011l-0.101,0.001c-0.178,0-0.718,0-0.887-0.369
	c-0.158-0.348,0.146-0.698,0.246-0.813c0.209-0.239,0.541-0.267,0.772-0.267c0.133,0,0.269,0.011,0.393,0.021
	c0.088,0.007,0.168,0.014,0.233,0.014h18.193c0.021,0,0.049-0.003,0.081-0.007c0.068-0.006,0.147-0.014,0.224-0.014
	c0.237,0,0.402,0.075,0.491,0.222c0.017,0.039,0.03,0.065,0.042,0.086c0.067,0.009,0.214-0.001,0.334-0.015
	c0.145-0.016,0.286-0.026,0.398-0.016c0.302,0.029,0.438,0.185,0.549,0.311c0.026,0.03,0.055,0.063,0.09,0.097
	c0.061,0.06,0.093,0.143,0.089,0.228l-0.012,0.253c-0.008,0.16-0.14,0.286-0.3,0.286c-1.477,0-2.938-0.012-4.396-0.024
	c-2.595-0.021-5.176-0.043-7.801,0.004C85.296,15.423,83.929,15.434,82.562,15.434z M78.528,14.791c0.365,0,0.73,0.009,1.096,0.018
	c0.301,0.008,0.602,0.015,0.901,0.018c2.041,0.014,4.084,0.008,6.125-0.028c2.636-0.047,5.22-0.026,7.817-0.005
	c0.983,0.008,1.968,0.017,2.958,0.021c-0.005-0.002-0.011-0.005-0.017-0.007c-0.035-0.016-0.067-0.039-0.094-0.067
	c-0.05-0.053-0.093-0.11-0.128-0.171c-0.078,0.003-0.132,0.004-0.176,0.008c-0.056,0.005-0.104,0.009-0.139,0.009H78.68
	c-0.079,0-0.176-0.007-0.282-0.016c-0.108-0.009-0.228-0.019-0.344-0.019c-0.26,0-0.314,0.054-0.32,0.061
	c-0.062,0.071-0.097,0.123-0.116,0.159c0.053,0.014,0.146,0.029,0.305,0.029l0.083-0.001C78.18,14.792,78.354,14.791,78.528,14.791z
	"/>
<rect id="sliceCopy_x5F_56_1_" x="108.339" fill="none" width="94.488" height="40"/>
<rect id="sliceCopy_x5F_55_1_" fill="none" width="108.338" height="40"/>
</svg>
