<?xml version="1.0" encoding="utf-8"?>
<!-- Generator: Adobe Illustrator 15.1.0, SVG Export Plug-In  -->
<!DOCTYPE svg PUBLIC "-//W3C//DTD SVG 1.1//EN" "http://www.w3.org/Graphics/SVG/1.1/DTD/svg11.dtd" [
	<!ENTITY ns_flows "http://ns.adobe.com/Flows/1.0/">
]>
<svg version="1.1"
	 xmlns="http://www.w3.org/2000/svg" xmlns:xlink="http://www.w3.org/1999/xlink" xmlns:a="http://ns.adobe.com/AdobeSVGViewerExtensions/3.0/"
	 x="0px" y="0px" width="105px" height="40px" viewBox="0.572 0 105 40" enable-background="new 0.572 0 105 40"
	 xml:space="preserve">
<defs>
</defs>
<path d="M45.07,37.3c-0.747,0-0.938-1.082-1.105-2.036c-0.056-0.315-0.113-0.64-0.171-0.759c-0.461-0.949-0.715-2.167-0.939-3.242
	l-0.061-0.285c-0.084-0.405-0.205-0.785-0.334-1.188c-0.146-0.457-0.296-0.928-0.388-1.437c-0.054-0.301-0.105-0.605-0.157-0.913
	c-0.146-0.867-0.297-1.764-0.507-2.594c-0.051-0.199-0.079-0.359-0.102-0.489c-0.018-0.099-0.039-0.222-0.058-0.251
	c-0.019-0.009-0.117-0.033-0.436-0.05c-0.648-0.036-1.34-0.052-2.176-0.052c-0.62,0-1.24,0.009-1.859,0.018l-1.142,0.017
	c-0.404,0.006-0.854,0.017-1.182,0c-0.203-0.012-0.299-0.084-0.44,0.171c-0.036,0.065-0.081,0.141-0.132,0.226
	c-0.148,0.25-0.425,0.714-0.425,0.908c0,0.27-0.189,0.575-0.373,0.869c-0.075,0.121-0.146,0.233-0.185,0.321
	c-0.156,0.354-0.39,0.682-0.616,1c-0.093,0.129-0.184,0.257-0.266,0.382c-0.596,0.909-0.805,1.716-0.983,2.888
	c-0.052,0.337-0.317,0.538-0.71,0.538c-0.566,0-1.39-0.381-2.117-0.738c-0.11-0.054-0.199-0.098-0.256-0.123
	c-0.433-0.189-0.882-0.364-1.332-0.541c-0.771-0.301-1.566-0.611-2.294-0.997c-0.327-0.174-0.529-0.454-0.584-0.809
	c-0.215-1.393,1.948-3.832,3.257-5.161c0.376-0.382,1.218-1.373,0.918-2.308c-0.228-0.715-1.576-1.036-2.462-1.036
	c-0.027,0-0.054-0.003-0.08-0.011c-0.106-0.029-0.276-0.139-0.32-0.25c-0.098-0.057-0.247-0.169-0.247-0.432v-1.399
	c0-0.048-0.001-0.085-0.003-0.115c-0.033,0.011-0.076,0.026-0.132,0.047c-0.19,0.073-0.194,0.086-0.163,0.441
	c0.009,0.095,0.018,0.197,0.021,0.308c0.005,0.175,0.019,0.335,0.031,0.482c0.037,0.428,0.069,0.798-0.174,1.075
	c-0.181,0.205-0.464,0.305-0.92,0.324c-0.499,0.02-1,0-1.497-0.02l-0.512-0.023c-0.136-0.008-0.288-0.018-0.404-0.008
	c-0.035,0.213-0.063,0.629-0.063,0.78c0,0.478-0.651,0.571-1.778,0.571l-0.379-0.003c-0.014,0.051-0.031,0.131-0.051,0.259
	c0,0-0.013,0.079-0.013,0.08c-0.071,0.451-0.163,0.657-0.737,0.737c-0.263,0.038-0.552,0.057-0.882,0.058
	c-0.207,0-0.418-0.021-0.562-0.171c-0.044-0.046-0.073-0.095-0.094-0.146c-0.158,0.1-0.319,0.188-0.478,0.275
	c-0.319,0.175-0.621,0.341-0.871,0.581c-0.204,0.197-0.413,0.348-0.616,0.494c-0.285,0.205-0.554,0.399-0.768,0.699
	c-0.246,0.339-0.823,0.376-1.06,0.376c-0.136,0-0.393-0.012-0.594-0.092c-0.449-0.174-0.451-0.86-0.386-1.69
	c-0.476,0.221-1.017,0.833-1.367,1.229c-0.086,0.098-0.165,0.187-0.233,0.261l-0.388,0.408c-0.777,0.812-1.581,1.652-1.972,2.666
	c-0.038,0.097-0.062,0.186-0.083,0.264c-0.08,0.294-0.179,0.661-0.819,0.688c-0.08,0.003-0.167,0.01-0.256,0.018
	c-0.158,0.012-0.325,0.025-0.49,0.025c-0.322,0-0.568-0.049-0.775-0.154c-0.368-0.187-0.357-0.634-0.35-0.93
	c0.002-0.092,0.005-0.219-0.008-0.264L4.9,26.796c-0.089-0.285-0.182-0.58-0.207-0.937c-0.08-1.094-0.237-2.222-0.39-3.313
	c-0.102-0.729-0.203-1.458-0.283-2.182c-0.128-1.16-0.212-2.337-0.292-3.476c-0.072-0.988,0.007-1.974,0.084-2.927
	c0.026-0.314,0.052-0.629,0.071-0.945c0.003-0.047-0.004-0.121-0.011-0.207c-0.031-0.39-0.073-0.924,0.311-1.093
	c0.295-0.131,0.709-0.105,1.105-0.046c0.133,0.021,0.263,0.041,0.383,0.045c0.199,0.007,0.319,0.096,0.385,0.169
	c0.17,0.19,0.148,0.457,0.133,0.651c-0.004,0.05-0.01,0.097-0.007,0.135c0.009-0.006,0.088,0.024,0.303,0.024
	c0.15,0,0.308-0.015,0.438-0.027c0.109-0.01,0.203-0.018,0.267-0.018h14.592c0.409,0,0.838,0.021,1.273,0.042
	c0.441,0.021,0.89,0.043,1.331,0.043c0.618,0,1.106-0.043,1.536-0.135c0.487-0.104,0.856-0.502,1.247-0.924
	c0.326-0.353,0.664-0.717,1.098-0.933c0.233-0.117,0.233-0.117,0.285-0.339c0.054-0.222,0.237-0.484,0.814-0.484
	c0.073,0,0.146,0.003,0.21,0.007l0.292,0.01c1.542,0.044,3.08,0.055,4.625,0.075c0.441,0.006,0.882,0.012,1.322,0.012l0.432-0.002
	c0.057-0.001,0.102-0.002,0.137-0.004c-0.001-0.005-0.001-0.01-0.002-0.015c-0.011-0.068-0.022-0.149-0.032-0.244
	c-0.292,0.128-0.859,0.069-1.08-0.212c-0.05-0.063-0.101-0.153-0.119-0.273c-0.166-0.013-0.648-0.01-0.895-0.002l-0.145,0.003
	c-0.094,0-0.157,0.004-0.199,0.009c-0.024,0.176-0.109,0.356-0.4,0.479c-0.387,0.164-0.698,0.124-0.903-0.097
	c-0.286-0.309-0.242-0.872-0.207-1.324c0.007-0.085,0.013-0.163,0.016-0.23c0.016-0.384-0.001-0.774-0.018-1.165
	c-0.032-0.76-0.064-1.546,0.128-2.315c0.015-0.058,0.046-0.109,0.09-0.149c0.194-0.175,0.195-0.294,0.197-0.532
	c0.002-0.188,0.004-0.421,0.121-0.691c0.159-0.36,0.762-0.559,1.118-0.559c0.193,0,0.348,0.05,0.459,0.149
	c0.316,0.283,0.245,0.762,0.177,1.226c-0.03,0.203-0.087,0.581-0.025,0.656l0.167,0.029c0.188,0.034,0.47,0.039,0.471,0.037
	c-0.056-0.089-0.021-0.203,0.057-0.288c0.061-0.067,0.175-0.147,0.375-0.147c0.179,0,0.456,0.073,0.638,0.213
	c0.009-0.141,0.046-0.293,0.156-0.412c0.147-0.158,0.35-0.178,0.509-0.178c0.069,0,0.147,0.004,0.233,0.009l0.133,0.007h0.001
	c0.054,0,0.134-0.006,0.226-0.013c0.148-0.011,0.324-0.024,0.469-0.024c0.148,0,0.496,0,0.561,0.296
	c0.019,0.078,0.013,0.171,0.001,0.328c-0.004,0.06-0.012,0.162-0.012,0.24c0.254,0.048,0.673,0.026,1.045-0.001
	c0.205-0.016,0.402-0.03,0.573-0.03h2.469c0.022,0,0.066,0.003,0.122,0.007c0.066,0.005,0.155,0.013,0.242,0.015
	c-0.029-0.13-0.026-0.292,0.107-0.425c0.122-0.123,0.31-0.183,0.573-0.183c0.184,0,0.392,0.03,0.554,0.054
	c0.064,0.009,0.121,0.018,0.162,0.021c0.238,0.022,0.478,0.027,0.717,0.027l0.959-0.007c0.074,0,0.182,0,0.257-0.004
	c0.003-0.027,0.005-0.058,0.007-0.086c0.005-0.074,0.012-0.163,0.023-0.268c0.027-0.228,0.247-0.362,0.588-0.362
	c0.381,0,0.644,0.164,0.685,0.427c0.014,0.092,0.015,0.193,0.016,0.291c0,0.034,0,0.077,0.001,0.115
	c0.044-0.007,0.091-0.013,0.105-0.013c0.132,0,0.252,0.064,0.33,0.177c0.246,0.354,0.029,1.25,0.003,1.322
	c-0.14,0.376-0.35,0.755-0.553,1.122c-0.097,0.175-0.192,0.347-0.277,0.515l-0.038,0.075c-0.61,1.193-0.79,1.723-0.841,1.949
	c0.201-0.011,0.445-0.023,0.664-0.023c0.341,0,0.807,0,0.812,0.38c0.001,0.085,0.001,0.14,0.282,0.14
	c0.136,0,0.284-0.017,0.43-0.032c0.61-0.065,1.097-0.027,1.632-0.014c0.393,0.01,0.787,0.019,1.181,0.019
	c0.53,0,0.966-0.018,1.368-0.055l0.231-0.023c0.343-0.036,0.692-0.07,1.036-0.03c0.337,0.038,0.516,0.209,0.53,0.509
	c0.024,0.002,0.057,0.004,0.098,0.004h24.691c0.355,0,0.711-0.011,1.066-0.022c0.719-0.021,1.438-0.043,2.153,0.021
	c0.089,0.008,0.193,0.043,0.369,0.106c0.06,0.021,0.146,0.052,0.223,0.076c0.051-0.081,0.134-0.152,0.27-0.189V8.569
	c0-0.068-0.01-0.233-0.022-0.453c-0.132-2.338-0.064-2.732,0.235-2.871c0.163-0.075,0.528-0.081,0.637-0.081
	c0.227,0,0.907,0,0.971,0.438c0.202,0.003,0.358,0.118,0.431,0.315c0.082,0.224,0.051,0.458,0.023,0.665
	c-0.01,0.071-0.02,0.141-0.021,0.205c0.074,0.034,0.162,0.087,0.244,0.189c0.267,0.334,0.257,0.828,0.249,1.188l-0.002,0.101
	c-0.003,0.185-0.025,0.396-0.05,0.617c-0.045,0.407-0.096,0.868,0.006,1.161l0.107-0.038c0.133-0.008,0.281-0.031,0.468,0.064
	c0.362,0.19,0.341,0.677,0.328,0.968c-0.002,0.048-0.005,0.092-0.004,0.125c0.001,0.07,0.002,0.12,0.258,0.12
	c0.179,0,0.385-0.031,0.59-0.061c0.233-0.034,0.465-0.066,0.662-0.066c0.527,0,0.717,0.247,0.783,0.454
	c0.002,0.008,0.185,0.695-0.01,0.959c-0.026,0.036-0.067,0.069-0.113,0.094c0.023,0.027,0.044,0.058,0.06,0.092
	c0.083,0.182,0.096,0.385,0.041,0.568c1.075,0.007,2.604,0.013,4.775,0.013l1.825-0.001c0.002-0.011,0.003-0.021,0.004-0.029
	c0.049-0.333,0.45-0.333,0.602-0.333c0.122,0,0.254,0.009,0.342,0.015l0.717,0.005l0.827-0.006c0.688-0.009,1.38-0.018,2.066-0.004
	l0.27-0.003c0.145,0,0.313,0.008,0.469,0.068c0.25,0.098,0.289,0.244,0.219,1.847c-0.006,0.13-0.011,0.228-0.011,0.267
	c0.002,0.024,0.013,0.088,0.024,0.168c0.094,0.619,0.175,1.154-0.24,1.225c-0.356,0.06-0.81,0.059-1.275,0.043
	c-0.579-0.021-1.156-0.015-1.736-0.022c-0.414-0.005-0.829-0.011-1.243-0.011c-0.745,0-1.347,0.018-1.896,0.057
	c-0.646,0.042-0.735-0.292-0.767-0.478h-7.261c-0.088,0-0.189-0.007-0.295-0.015c-0.109-0.008-0.217-0.021-0.334-0.015
	c-0.002,0.077-0.005,0.172-0.043,0.263c-0.147,0.365-0.395,0.433-0.542,0.473c-0.087,0.024-0.09,0.028-0.104,0.049
	c-0.049,0.11,0.001,0.621,0.03,0.926c0.069,0.715,0.102,1.166-0.11,1.41c-0.081,0.093-0.192,0.147-0.314,0.153l-0.112,0.002
	c-0.204,0-0.406-0.025-0.607-0.051c-0.117-0.015-0.234-0.03-0.352-0.039c-0.812-0.062-0.805-0.563-0.799-0.965l0.002-0.143
	c0-0.233,0.037-0.457,0.072-0.673c0.031-0.191,0.062-0.373,0.065-0.55c-0.162,0.011-0.267-0.031-0.349-0.119
	c-0.021,0.154-0.037,0.322-0.049,0.441c-0.06,0.611-0.099,1.016-0.468,1.016c-0.063-0.004-0.097-0.006-0.129-0.006
	c-0.175,0-0.254,0.012-0.316,0.302c-0.032,0.146-0.033,0.253-0.033,0.357c-0.001,0.396-0.106,0.616-0.699,0.792
	c-0.188,0.243-0.364,0.314-0.756,0.314c-0.341,0-0.686-0.013-1.031-0.026c-0.329-0.013-0.658-0.025-0.985-0.026l-16.375-0.04
	c-0.113,0-0.285-0.011-0.486-0.024c-0.271-0.017-0.597-0.038-0.896-0.038c-0.532,0-0.649,0.07-0.661,0.078
	c-0.048,0.088-0.201,0.226-0.523,0.226c-0.226,0-0.544-0.076-0.715-0.221c-0.104-0.083-0.138-0.209-0.167-0.322l-0.925-0.006
	c-1.104-0.008-2.202-0.045-3.302-0.083l-1.005-0.034c-1.25-0.042-2.191,0.183-3.109,0.771c-0.42,0.269-0.527,0.464-0.499,0.908
	c0.004,0.058,0,0.151-0.005,0.256c-0.003,0.056-0.008,0.146-0.008,0.225c0.037-0.004,0.135,0.012,0.177,0.029
	c0.229,0.091,0.345,0.325,0.293,0.596c-0.06,0.312-0.331,0.649-0.667,0.649l0,0c-0.141,0-0.177,0.014-0.181,0.016
	c0.021,0.003,0.023,0.164,0.025,0.293c0.019,0.948,0.117,1.931,0.212,2.882l0.041,0.411c0.02,0.199,0.089,0.337,0.176,0.513
	c0.062,0.123,0.123,0.25,0.173,0.398c0.075,0.221,0.121,0.45,0.165,0.68c0.036,0.185,0.072,0.37,0.128,0.55
	c0.198,0.644,0.426,1.275,0.652,1.903c0.17,0.469,0.339,0.938,0.495,1.409l0.106,0.337c0.122,0.393,0.248,0.8,0.451,1.118
	l0.08,0.123c0.191,0.289,0.43,0.648,0.188,1.182c-0.18,0.397-0.755,0.535-1.218,0.646c-0.121,0.029-0.23,0.055-0.307,0.082
	c-0.537,0.191-1.077,0.369-1.617,0.547l-0.672,0.222c-0.262,0.087-0.525,0.184-0.793,0.281C47.103,36.936,46.104,37.3,45.07,37.3z
	 M38.638,23.405c0.847,0,1.549,0.017,2.209,0.053c0.773,0.042,0.94,0.168,1.051,0.796c0.021,0.118,0.047,0.264,0.093,0.445
	c0.216,0.854,0.369,1.763,0.517,2.642c0.052,0.305,0.103,0.608,0.155,0.906c0.085,0.47,0.224,0.902,0.369,1.361
	c0.128,0.399,0.26,0.812,0.351,1.246l0.06,0.286c0.218,1.041,0.464,2.22,0.893,3.104c0.095,0.194,0.15,0.513,0.222,0.916
	c0.067,0.381,0.271,1.541,0.515,1.541c0.928,0,1.875-0.346,2.792-0.68c0.272-0.1,0.542-0.198,0.809-0.287l0.673-0.223
	c0.536-0.177,1.072-0.354,1.604-0.542c0.092-0.033,0.223-0.064,0.368-0.1c0.206-0.049,0.752-0.18,0.811-0.31
	c0.1-0.22,0.041-0.327-0.142-0.603l-0.087-0.133c-0.246-0.384-0.384-0.83-0.518-1.261l-0.104-0.326
	c-0.154-0.466-0.321-0.93-0.489-1.394c-0.229-0.638-0.461-1.277-0.661-1.93c-0.062-0.2-0.103-0.406-0.144-0.612
	c-0.039-0.203-0.078-0.407-0.145-0.603c-0.041-0.122-0.093-0.224-0.142-0.324c-0.096-0.193-0.205-0.413-0.236-0.72l-0.04-0.411
	c-0.097-0.962-0.196-1.958-0.215-2.931c-0.006-0.326-0.01-0.561,0.167-0.741c0.155-0.158,0.378-0.179,0.574-0.179
	c0.005-0.003,0.012-0.008,0.018-0.016c-0.104-0.01-0.235-0.066-0.334-0.255c-0.083-0.157-0.079-0.372-0.064-0.659
	c0.004-0.075,0.009-0.141,0.006-0.185c-0.049-0.765,0.274-1.134,0.773-1.455c1.015-0.649,2.057-0.915,3.453-0.865l1.006,0.034
	c1.095,0.037,2.187,0.075,3.285,0.083l1.078,0.007c0.305,0,0.387,0.311,0.422,0.443c0.003,0.012,0.006,0.024,0.009,0.036
	c0.103,0.044,0.371,0.053,0.371,0.053c0.107-0.198,0.44-0.295,1.107-0.295c0.313,0,0.652,0.021,0.935,0.04
	c0.186,0.012,0.346,0.022,0.45,0.023l16.375,0.04c0.334,0,0.67,0.013,1.007,0.026c0.337,0.013,0.674,0.026,1.008,0.026
	c0.169,0,0.217-0.017,0.222-0.019c0.041-0.094,0.136-0.204,0.363-0.271c0.225-0.067,0.271-0.108,0.275-0.113
	c-0.006,0-0.005-0.062-0.005-0.106c0-0.117,0-0.276,0.047-0.483c0.107-0.5,0.385-0.754,0.847-0.772
	c0.021-0.13,0.041-0.326,0.055-0.47c0.067-0.689,0.125-1.284,0.577-1.284c0.217,0,0.356,0.174,0.402,0.231
	c0.048,0.059,0.076,0.121,0.096,0.175c0.033-0.004,0.058-0.005,0.081-0.005c0.095,0,0.408,0.033,0.436,0.46
	c0.017,0.284-0.027,0.55-0.07,0.807c-0.033,0.201-0.064,0.391-0.064,0.575l-0.001,0.152c-0.002,0.116-0.004,0.274,0.017,0.312l0,0
	c0.002,0,0.049,0.032,0.227,0.045c0.127,0.01,0.255,0.026,0.383,0.042c0.17,0.022,0.34,0.044,0.512,0.046
	c0.029-0.19-0.014-0.63-0.04-0.908c-0.064-0.665-0.096-1.084,0.074-1.328c0.142-0.203,0.327-0.254,0.438-0.284
	c0.1-0.027,0.107-0.03,0.145-0.121c0.003-0.181,0.013-0.558,0.392-0.62c0.177-0.029,0.386-0.015,0.586,0
	c0.09,0.007,0.176,0.014,0.25,0.014h7.375c0.191,0,0.429,0.08,0.472,0.46c-0.033,0.011-0.007,0.021,0.067,0.021
	c0.634-0.042,1.25-0.061,2.009-0.061c0.417,0,0.834,0.005,1.251,0.011c0.583,0.007,1.164,0.001,1.749,0.022
	c0.344,0.011,0.699,0.019,0.97-0.011c-0.008-0.173-0.049-0.447-0.067-0.568c-0.02-0.125-0.031-0.223-0.031-0.258
	c0-0.042,0.004-0.149,0.011-0.292c0.011-0.26,0.042-0.969,0.025-1.285c-0.04-0.003-0.08-0.003-0.113-0.003l-0.239,0.003
	c-0.796-0.015-1.406-0.006-2.089,0.004l-0.835,0.006l-0.759-0.006c-0.088-0.006-0.239-0.013-0.345-0.013
	c-0.052,0.167-0.178,0.361-0.509,0.361l-1.877,0.001c-7.421,0-7.451-0.031-7.577-0.164c-0.057-0.058-0.087-0.138-0.084-0.219
	c0.013-0.366,0.444-0.366,0.824-0.366c0.235,0,0.515,0.01,0.771,0.02c0.288,0.011,0.563,0.024,0.655,0.011
	c0.045-0.054,0.063-0.099,0.065-0.138c-0.097-0.013-0.377-0.001-0.545,0.012c-0.081,0.006-0.147,0.011-0.186,0.011
	c-0.11,0-0.212-0.061-0.264-0.158c-0.053-0.097-0.048-0.215,0.014-0.307c-0.001,0-0.001,0-0.001,0c-0.004,0,0.012-0.054,0.028-0.108
	c0.069-0.225,0.129-0.419,0.363-0.419h0.656c-0.011-0.123-0.034-0.27-0.048-0.326c0.001,0-0.022-0.027-0.209-0.027
	c-0.172,0-0.373,0.031-0.575,0.06c-0.235,0.034-0.473,0.067-0.677,0.067c-0.763,0-0.854-0.496-0.857-0.709
	c-0.001-0.044,0.001-0.1,0.004-0.163c0.005-0.099,0.016-0.361-0.028-0.427l-0.133,0.02c-0.433,0.026-0.645-0.176-0.71-0.366
	C85.5,9.82,85.56,9.287,85.611,8.817c0.021-0.2,0.043-0.392,0.046-0.559l0.002-0.105c0.005-0.269,0.013-0.637-0.118-0.802
	c-0.213-0.09-0.381-0.202-0.376-0.559c0.001-0.091,0.014-0.189,0.027-0.29c0.013-0.1,0.027-0.209,0.023-0.294l-0.007,0
	c-0.118,0-0.381-0.042-0.455-0.409c-0.067-0.017-0.194-0.036-0.392-0.036c-0.126,0-0.231,0.008-0.305,0.016
	c-0.074,0.418,0.005,1.817,0.032,2.302c0.013,0.236,0.022,0.414,0.022,0.487v2.025c0,0.106-0.036,0.349-0.356,0.406
	c-0.067,0.247-0.338,0.323-0.937,0.111c-0.094-0.034-0.179-0.066-0.228-0.075c-0.68-0.06-1.381-0.039-2.075-0.017
	c-0.361,0.011-0.724,0.022-1.085,0.022H54.74c-0.183,0-0.412-0.019-0.562-0.17c-0.115-0.115-0.132-0.25-0.135-0.343
	c-0.114-0.015-0.188-0.018-0.263-0.018c-0.215,0-0.43,0.023-0.644,0.045L52.9,10.58c-0.421,0.04-0.874,0.058-1.424,0.058
	c-0.398,0-0.797-0.009-1.195-0.019c-0.51-0.012-0.967-0.053-1.555,0.011c-0.166,0.018-0.337,0.035-0.492,0.035
	c-0.58,0-0.787-0.265-0.854-0.513c-0.199-0.014-0.798,0.009-1.009,0.023c-0.006,0-0.088,0.005-0.094,0.005
	c-0.147,0-0.273-0.07-0.349-0.192c-0.138-0.225-0.185-0.614,0.854-2.643l0.037-0.072c0.088-0.174,0.187-0.353,0.287-0.534
	c0.192-0.348,0.392-0.707,0.516-1.041c0.037-0.109,0.083-0.459,0.076-0.662c-0.526,0.026-0.552-0.525-0.554-0.729
	c0-0.037,0-0.074-0.001-0.111c-0.027-0.005-0.059-0.01-0.106-0.008c-0.002,0.025-0.004,0.049-0.005,0.072
	c-0.042,0.592-0.27,0.648-0.862,0.648l-0.126,0l-0.833,0.008c-0.257,0-0.515-0.006-0.771-0.03c-0.05-0.004-0.117-0.014-0.195-0.026
	c-0.162-0.024-0.409-0.055-0.536-0.044c0.026,0.109,0.039,0.204,0.01,0.305C43.637,5.42,43.258,5.42,43.133,5.42
	c-0.115,0-0.238-0.01-0.325-0.017l-0.075-0.006h-2.467c-0.157,0-0.339,0.014-0.528,0.028c-0.519,0.041-1.069,0.052-1.407-0.059
	c-0.314-0.104-0.293-0.486-0.271-0.801c-0.122,0.002-0.265,0.013-0.386,0.022c-0.111,0.008-0.208,0.015-0.266,0.015l-0.173-0.008
	c-0.115-0.005-0.226-0.01-0.271-0.005c0.005,0.017,0.002,0.06,0.007,0.131c0.016,0.245-0.033,0.43-0.146,0.55
	c-0.08,0.085-0.188,0.133-0.303,0.133c-0.136,0-0.338-0.064-0.531-0.372c-0.014-0.008-0.078-0.034-0.146-0.052
	c-0.023,0.108-0.073,0.185-0.119,0.236c-0.19,0.211-0.618,0.203-1.001,0.135L34.6,5.33c-0.688-0.105-0.577-0.85-0.504-1.343
	c0.029-0.197,0.09-0.603,0.022-0.685C34.114,3.305,34.091,3.3,34.054,3.3c-0.232,0-0.523,0.138-0.573,0.209
	c-0.063,0.147-0.064,0.286-0.066,0.446c-0.002,0.258-0.005,0.576-0.324,0.904c-0.149,0.659-0.121,1.341-0.091,2.062
	c0.017,0.407,0.033,0.813,0.018,1.213C33.014,8.208,33.007,8.295,33,8.388c-0.041,0.528-0.024,0.821,0.051,0.873
	c0.061,0.002,0.116-0.003,0.227-0.05c0.059-0.496,0.46-0.535,0.834-0.535l0.125-0.003c0.132-0.004,0.329-0.01,0.528-0.01
	c0.65,0,0.815,0.063,0.92,0.195c0.058,0.071,0.085,0.192,0.064,0.281c0.005,0.061,0.114,0.079,0.211,0.078
	c0.001-0.085,0.016-0.184,0.061-0.295c0.061-0.159,0.21-0.259,0.389-0.259c0.214,0,0.483,0.158,0.544,0.393
	c0.04,0.16,0.021,0.31,0.005,0.441c-0.009,0.072-0.018,0.14-0.013,0.189c0.008,0.09,0.02,0.167,0.029,0.231
	c0.027,0.181,0.056,0.369-0.077,0.525c-0.14,0.164-0.354,0.179-0.644,0.182l-0.438,0.002c-0.443,0-0.887-0.006-1.33-0.012
	c-1.554-0.021-3.09-0.031-4.635-0.076l-0.306-0.01c-0.055-0.003-0.116-0.006-0.179-0.006c-0.192,0-0.238,0.034-0.24,0.036
	c-0.091,0.42-0.209,0.534-0.592,0.725c-0.336,0.167-0.622,0.476-0.925,0.803c-0.438,0.472-0.89,0.96-1.563,1.104
	c-0.472,0.101-0.999,0.148-1.661,0.148c-0.451,0-0.909-0.022-1.359-0.044c-0.427-0.021-0.846-0.041-1.245-0.041H7.189
	c-0.05,0-0.124,0.008-0.211,0.016c-0.146,0.014-0.323,0.03-0.493,0.03c-0.692,0-0.871-0.299-0.898-0.549
	c-0.008-0.071-0.003-0.162,0.005-0.258c0.003-0.047,0.01-0.122,0.008-0.175c-0.13-0.008-0.264-0.028-0.4-0.049
	c-0.281-0.042-0.595-0.078-0.773,0.001c0.01,0.041,0.034,0.36,0.045,0.497c0.01,0.12,0.017,0.225,0.013,0.292
	c-0.021,0.319-0.047,0.638-0.072,0.956c-0.075,0.93-0.153,1.893-0.085,2.835c0.081,1.133,0.164,2.304,0.29,3.453
	c0.08,0.718,0.181,1.441,0.282,2.165c0.153,1.101,0.312,2.239,0.393,3.353c0.021,0.287,0.096,0.525,0.183,0.801
	c0.029,0.093,0.059,0.188,0.086,0.285c0.039,0.134,0.035,0.285,0.031,0.445c-0.003,0.109-0.008,0.335,0.03,0.387
	c0.184,0.089,0.584,0.087,0.938,0.059c0.097-0.008,0.19-0.015,0.277-0.019c0.202-0.009,0.202-0.009,0.267-0.246
	c0.026-0.097,0.056-0.205,0.103-0.324c0.434-1.125,1.279-2.009,2.098-2.864l0.383-0.403c0.065-0.07,0.14-0.155,0.223-0.249
	c0.534-0.604,1.341-1.515,2.139-1.515c0.166,0,0.306,0.134,0.306,0.3c0,0.06-0.008,0.166-0.02,0.299
	c-0.06,0.716-0.049,1.134,0.033,1.241h0.001c0.025,0,0.156,0.026,0.337,0.026c0.333,0,0.537-0.083,0.572-0.126
	c0.27-0.378,0.593-0.61,0.904-0.835c0.193-0.14,0.377-0.272,0.551-0.439c0.308-0.295,0.659-0.488,0.998-0.674
	c0.305-0.167,0.592-0.324,0.834-0.546c0.087-0.08,0.213-0.102,0.323-0.053c0.108,0.048,0.179,0.156,0.179,0.274
	c0,0.079-0.003,0.149-0.006,0.211c-0.002,0.025-0.003,0.053-0.004,0.078c0.023,0.002,0.055,0.003,0.095,0.003
	c0.301-0.001,0.563-0.018,0.8-0.052c0.156-0.022,0.196-0.04,0.205-0.045c-0.007-0.004,0.009-0.104,0.022-0.192l0.309-0.031
	l-0.297-0.045c0.041-0.27,0.117-0.771,0.506-0.771l0.518,0.005c0.757,0,1.063-0.057,1.18-0.092c0.016-1.123,0.251-1.186,0.366-1.216
	c0.203-0.053,0.476-0.051,0.738-0.033l0.498,0.022c0.482,0.019,0.968,0.039,1.447,0.019c0.351-0.015,0.461-0.082,0.495-0.121
	c0.073-0.084,0.051-0.348,0.026-0.627c-0.014-0.157-0.028-0.329-0.033-0.517c-0.003-0.098-0.011-0.188-0.019-0.271
	c-0.032-0.364-0.073-0.816,0.544-1.055c0.175-0.067,0.318-0.112,0.45-0.112c0.501,0,0.501,0.557,0.501,0.74v1.342
	c0.046,0.029,0.1,0.072,0.145,0.135c0.948,0.043,2.587,0.37,2.938,1.468c0.384,1.202-0.501,2.34-1.063,2.912
	c-2.031,2.063-3.216,3.844-3.092,4.648c0.026,0.17,0.11,0.284,0.272,0.37c0.696,0.37,1.477,0.674,2.23,0.969
	c0.458,0.179,0.915,0.357,1.354,0.549c0.063,0.027,0.159,0.075,0.279,0.134c0.448,0.22,1.379,0.677,1.854,0.677
	c0.089,0,0.118-0.018,0.118-0.018c0.189-1.266,0.418-2.136,1.073-3.137c0.086-0.131,0.182-0.266,0.278-0.401
	c0.209-0.293,0.425-0.596,0.556-0.892c0.047-0.107,0.132-0.248,0.226-0.397c0.098-0.158,0.281-0.452,0.282-0.552
	c0-0.332,0.23-0.747,0.509-1.214l0.122-0.209c0.238-0.43,0.536-0.488,0.796-0.488c0.063,0,0.129,0.004,0.202,0.008
	c0.317,0.016,0.751,0.005,1.14-0.001l1.143-0.017C37.392,23.414,38.015,23.405,38.638,23.405z M37.596,23.411
	c-0.809,0-0.941-0.396-0.948-0.632c-0.004-0.17-0.026-0.367-0.05-0.572c-0.076-0.675-0.163-1.44,0.247-1.899
	c0.204-0.229,0.5-0.344,0.878-0.344c0.174,0,0.4-0.034,0.648-0.069c0.321-0.046,0.685-0.098,1.025-0.098
	c0.478,0,0.825,0.105,1.061,0.322c0.404,0.229,1.026,0.764,0.971,1.429c-0.045,0.557-0.568,0.875-0.989,1.13
	c-0.149,0.091-0.291,0.177-0.393,0.26c0.022,0.081,0.025,0.17-0.005,0.231c-0.097,0.192-0.271,0.192-0.621,0.192h-1.057
	c-0.059,0-0.143,0.009-0.24,0.018C37.965,23.394,37.776,23.411,37.596,23.411z M37.247,22.762c0.007,0.001,0.083,0.049,0.349,0.049
	c0.161,0,0.329-0.017,0.471-0.03c0.12-0.012,0.225-0.021,0.297-0.021h1.057c0.007,0,0.013,0,0.019,0
	c0.025-0.074,0.072-0.145,0.14-0.21c0.148-0.143,0.343-0.261,0.549-0.386c0.32-0.194,0.683-0.415,0.703-0.667
	c0.025-0.299-0.334-0.678-0.694-0.872c-0.026-0.014-0.051-0.032-0.072-0.054c-0.115-0.117-0.34-0.176-0.667-0.176
	c-0.298,0-0.64,0.049-0.941,0.092c-0.271,0.039-0.526,0.075-0.732,0.075c-0.302,0-0.398,0.108-0.431,0.144
	c-0.231,0.259-0.157,0.91-0.099,1.433C37.219,22.363,37.242,22.578,37.247,22.762z M36.057,23.36c-0.582,0-1.053-0.164-1.363-0.476
	c-0.276-0.277-0.415-0.654-0.413-1.118c0-1.259,0.404-1.259,0.536-1.259c0.23,0,0.376,0.188,0.465,0.331
	c0.015,0.023,0.026,0.049,0.034,0.076c0.053,0.18,0.144,0.355,0.24,0.541c0.104,0.202,0.213,0.41,0.284,0.647
	c0.023,0.076,0.123,0.207,0.204,0.313c0.153,0.202,0.313,0.411,0.313,0.645C36.356,23.226,36.223,23.36,36.057,23.36z
	 M34.893,21.474c-0.008,0.096-0.013,0.198-0.013,0.295c-0.001,0.3,0.079,0.533,0.239,0.693c0.104,0.104,0.234,0.174,0.373,0.219
	c-0.095-0.128-0.183-0.261-0.227-0.404c-0.056-0.184-0.146-0.359-0.242-0.544C34.979,21.648,34.935,21.562,34.893,21.474z"/>
<rect id="sliceCopy_x5F_48_1_" x="105.287" fill="none" width="99.902" height="40"/>
<rect id="sliceCopy_x5F_47_1_" fill="none" width="105.287" height="40"/>
</svg>
