<?xml version="1.0" encoding="utf-8"?>
<!-- Generator: Adobe Illustrator 15.1.0, SVG Export Plug-In  -->
<!DOCTYPE svg PUBLIC "-//W3C//DTD SVG 1.1//EN" "http://www.w3.org/Graphics/SVG/1.1/DTD/svg11.dtd" [
	<!ENTITY ns_flows "http://ns.adobe.com/Flows/1.0/">
]>
<svg version="1.1"
	 xmlns="http://www.w3.org/2000/svg" xmlns:xlink="http://www.w3.org/1999/xlink" xmlns:a="http://ns.adobe.com/AdobeSVGViewerExtensions/3.0/"
	 x="0px" y="0px" width="88px" height="40px" viewBox="0.771 0 88 40" enable-background="new 0.771 0 88 40" xml:space="preserve">
<defs>
</defs>
<path d="M37.763,29.469c-0.028,0-0.109-0.012-0.136-0.02l-1.797-0.508c-0.094-0.026-0.169-0.097-0.201-0.189
	s-0.018-0.194,0.039-0.274c0.821-1.146,0.694-2.671-0.296-3.545c-0.267-0.236-0.553-0.469-0.872-0.507
	c-0.458-0.054-0.918-0.098-1.378-0.128c-0.855-0.056-1.727-0.062-2.494,0.012c-0.341,0.033-0.672,0.098-1.021,0.166
	c-0.406,0.08-0.826,0.162-1.262,0.189c-1.066,0.067-2.15,0.072-3.199,0.077l-0.119,0c-0.699,0.003-1.397,0.005-2.098,0.005
	c-2.491,0-5.437-0.025-8.394-0.214l-0.246-0.016c-0.817-0.051-1.661-0.103-2.47-0.305l-0.217-0.058
	c-0.431-0.118-0.791-0.189-1.078,0.043c-0.12,0.107-0.257,0.237-0.397,0.371c-0.755,0.716-1.708,1.622-2.859,1.471
	c-1.452-0.19-2.365-1.2-2.79-3.085c-0.091-0.402-0.159-0.827-0.208-1.296c-0.017-0.156-0.029-0.312-0.04-0.468
	c-0.436-0.151-0.588-0.761-0.51-1.263c0.063-0.397,0.26-0.673,0.532-0.763c0.011-0.089,0.02-0.253,0.024-0.352
	c0.006-0.109,0.012-0.211,0.023-0.292c0.055-0.412,0.137-0.772,0.25-1.097c0.289-0.819,0.953-1.396,1.428-1.759
	c0.427-0.326,1.051-0.505,1.758-0.505c0.473,0,0.951,0.081,1.348,0.228c0.247,0.091,0.452,0.227,0.65,0.358
	c0.262,0.173,0.487,0.323,0.745,0.323c0.555-0.049,1.044-0.104,1.534-0.159c0.992-0.111,2.018-0.225,3.029-0.269
	c0.824-0.035,1.653-0.087,2.483-0.14c1.8-0.114,3.666-0.234,5.489-0.168l10.497,0.36c1.001,0,1.955-0.419,2.579-0.771
	c1.475-0.832,1.935-2.577,2.25-4.148c0.016-0.079,0.063-0.148,0.13-0.192c0.067-0.043,0.149-0.06,0.229-0.042l1.688,0.369
	c0.08,0.018,0.194,0.07,0.279,0.221c0.187,0.333,0.171,1.129,0.084,1.379l-0.675,1.975c-0.116,0.34-0.128,0.716-0.14,1.115
	c-0.004,0.137-0.009,0.274-0.017,0.409c-0.002,0.026-0.004,0.049-0.005,0.069c0.007,0.003,0.015,0.006,0.022,0.01l0.08,0.035
	c0.249,0.11,0.497,0.184,0.773,0.261c0.176,0.049,0.332-0.029,0.525-0.13c0.2-0.104,0.427-0.222,0.722-0.222l2.307-0.004
	c0.387,0,0.463,0.221,0.551,0.476l0.007,0.02c0.029-0.074,0.054-0.158,0.065-0.236c0.021-0.147,0.148-0.256,0.297-0.256
	c0.144,0,0.332,0.102,0.359,0.244c0.012,0.065,0.022,0.121,0.033,0.168c0.001-0.003,0.002-0.006,0.004-0.009
	c0.028-0.07,0.053-0.127,0.067-0.155c0.092-0.175,0.248-0.274,0.429-0.274c0.245,0,0.46,0.188,0.556,0.362
	c0.091,0.168,0.238,0.345,0.389,0.345c0.251-0.055,0.395-0.389,0.442-0.499c0.026-0.061,0.071-0.111,0.129-0.143
	c0.108-0.061,0.21-0.09,0.312-0.09c0.314,0,0.445,0.256,0.511,0.445c0.065-0.129,0.135-0.246,0.232-0.326
	c0.081-0.065,0.188-0.084,0.285-0.052c0.099,0.033,0.172,0.114,0.196,0.214c0.022,0.096,0.053,0.179,0.083,0.246
	c0.003-0.01,0.005-0.021,0.008-0.033c0.089-0.41,0.327-0.471,0.462-0.471c0.256,0,0.452,0.222,0.66,0.458
	c0.074,0.084,0.198,0.225,0.248,0.251c0.104-0.003,0.24-0.17,0.35-0.304c0.16-0.196,0.342-0.419,0.619-0.419
	c0.103,0,0.2,0.031,0.292,0.093c0.063,0.042,0.106,0.105,0.124,0.179c0.03,0.137,0.056,0.236,0.077,0.307
	c0.013-0.059,0.028-0.141,0.043-0.251c0.021-0.148,0.15-0.286,0.301-0.286c0.145,0,0.332,0.102,0.359,0.244
	c0.021,0.111,0.046,0.192,0.068,0.25c0.02-0.058,0.038-0.135,0.053-0.236c0.012-0.081,0.056-0.152,0.121-0.2
	c0.097-0.07,0.202-0.106,0.312-0.106c0.285,0,0.47,0.233,0.632,0.439c0.08,0.101,0.229,0.29,0.299,0.29
	c0.072,0,0.212-0.18,0.296-0.287c0.161-0.207,0.344-0.44,0.633-0.44c0.107,0,0.212,0.034,0.309,0.102
	c0.064,0.045,0.109,0.113,0.124,0.19c0.021,0.11,0.045,0.191,0.068,0.249c0.019-0.058,0.036-0.134,0.051-0.234
	c0.021-0.148,0.147-0.258,0.297-0.258c0.145,0,0.335,0.103,0.361,0.244c0.017,0.091,0.035,0.162,0.053,0.217
	c0.022-0.059,0.047-0.134,0.069-0.23c0.032-0.135,0.153-0.23,0.292-0.23h9.637c2.187,0,4.383,0.223,6.507,0.438
	c0.515,0.052,1.028,0.104,1.543,0.153c1.544,0.148,3.245,0.491,5.198,1.048c1.568,0.449,3.191,1.013,4.44,2.087
	c0.066,0.057,0.104,0.139,0.104,0.226c0.001,0.087-0.037,0.17-0.103,0.227c-2.324,2.036-5.69,2.763-8.678,3.205
	c-1.099,0.163-2.232,0.216-3.33,0.268c-0.5,0.023-0.999,0.047-1.494,0.081c-1.893,0.129-3.777,0.147-5.532,0.147l-8.178-0.005
	c-0.281,0-0.438-0.156-0.465-0.463c0-0.006-0.001-0.013-0.001-0.019c-0.03,0.073-0.055,0.153-0.065,0.226
	c-0.021,0.147-0.147,0.257-0.297,0.257s-0.34-0.109-0.361-0.257c-0.015-0.099-0.041-0.183-0.068-0.249
	c-0.006,0.019-0.011,0.04-0.016,0.063c-0.076,0.342-0.304,0.463-0.491,0.463c-0.204,0-0.394-0.136-0.509-0.364
	c-0.076-0.153-0.206-0.334-0.398-0.334c-0.071,0-0.24,0.199-0.321,0.295c-0.178,0.208-0.36,0.424-0.632,0.424
	c-0.102,0-0.202-0.034-0.29-0.098c-0.065-0.048-0.108-0.12-0.12-0.2c-0.017-0.112-0.038-0.192-0.059-0.25
	c-0.021,0.057-0.042,0.138-0.059,0.25c-0.021,0.148-0.147,0.257-0.297,0.257c-0.148,0-0.34-0.109-0.361-0.256
	c-0.015-0.1-0.042-0.186-0.07-0.252c-0.005,0.02-0.011,0.041-0.016,0.065c-0.076,0.342-0.313,0.463-0.492,0.463
	c-0.213,0-0.399-0.144-0.5-0.384c-0.06-0.143-0.18-0.314-0.404-0.314c-0.073,0-0.233,0.192-0.32,0.295
	c-0.171,0.205-0.349,0.417-0.615,0.417c-0.094,0-0.187-0.029-0.268-0.085c-0.063-0.042-0.106-0.105-0.124-0.177
	c-0.038-0.168-0.069-0.277-0.096-0.348c-0.018,0.063-0.037,0.155-0.056,0.292c-0.018,0.131-0.12,0.248-0.251,0.269
	c-0.129,0.019-0.26-0.032-0.318-0.15c-0.022-0.044-0.048-0.106-0.076-0.177c-0.015-0.037-0.037-0.092-0.063-0.149l-0.001,0.004
	c-0.058,0.176-0.178,0.542-0.542,0.542c-0.103,0-0.207-0.034-0.311-0.1c-0.062-0.039-0.106-0.1-0.127-0.169
	c-0.054-0.187-0.157-0.417-0.343-0.455c-0.173-0.037-0.334,0.04-0.428,0.195l-0.033,0.067c-0.078,0.162-0.222,0.464-0.546,0.464
	c-0.108,0-0.215-0.038-0.317-0.111c-0.066-0.048-0.11-0.121-0.121-0.201c-0.016-0.112-0.037-0.193-0.059-0.25
	c-0.021,0.057-0.042,0.138-0.059,0.25c-0.021,0.148-0.147,0.257-0.297,0.257s-0.34-0.109-0.361-0.257
	c-0.01-0.067-0.04-0.169-0.074-0.261c-0.014,0.039-0.021,0.07-0.027,0.1c-0.082,0.354-0.283,0.418-0.65,0.418h-2.158
	c-0.238,0-0.411-0.072-0.563-0.136c-0.08-0.034-0.162-0.07-0.264-0.091c-0.215,0.005-0.365,0.071-0.535,0.153
	c-0.184,0.089-0.393,0.189-0.622,0.215l-0.187,0.016c-0.005,0-0.009,0-0.013,0.001c-0.001,0.02-0.001,0.044-0.001,0.072
	c0,0.173-0.044,0.298-0.088,0.418l-1.384,3.995c-0.015,0.044-0.028,0.104-0.043,0.167C38.288,28.998,38.179,29.469,37.763,29.469z
	 M36.38,28.473l1.317,0.373c0.028-0.075,0.056-0.192,0.072-0.264c0.02-0.087,0.039-0.167,0.061-0.228l1.373-3.964
	c0.05-0.141,0.065-0.186,0.065-0.252c0-0.483,0.133-0.64,0.569-0.672l0.164-0.014c0.128-0.014,0.273-0.084,0.427-0.158
	c0.263-0.128,0.591-0.27,0.92-0.2c0.144,0.03,0.261,0.078,0.373,0.125c0.124,0.052,0.213,0.09,0.331,0.09h2.158
	c0.031,0,0.057,0,0.077-0.001c0.025-0.101,0.061-0.212,0.132-0.348c0.146-0.281,0.332-0.34,0.461-0.34
	c0.182,0,0.318,0.112,0.419,0.259c0.148-0.162,0.311-0.182,0.381-0.182c0.098,0,0.377,0.039,0.546,0.453
	c0.006-0.012,0.012-0.022,0.019-0.032c0.224-0.366,0.647-0.552,1.06-0.469c0.205,0.042,0.463,0.169,0.653,0.517
	c0.006-0.018,0.012-0.034,0.018-0.048c0.048-0.118,0.194-0.479,0.521-0.479c0.154,0,0.271,0.077,0.364,0.19
	c0.094-0.118,0.225-0.2,0.409-0.2c0.339,0,0.503,0.299,0.592,0.571c0.019-0.021,0.036-0.042,0.052-0.061
	c0.19-0.227,0.427-0.51,0.78-0.51c0.357,0,0.671,0.186,0.867,0.505c0.142-0.381,0.352-0.464,0.517-0.464
	c0.169,0,0.31,0.088,0.421,0.224c0.152-0.177,0.322-0.199,0.395-0.199c0.103,0,0.406,0.043,0.571,0.522
	c0.025-0.029,0.05-0.058,0.071-0.083c0.191-0.226,0.431-0.506,0.779-0.506c0.348,0,0.648,0.187,0.86,0.53
	c0.141-0.403,0.356-0.489,0.524-0.489c0.172,0,0.314,0.09,0.426,0.229c0.106-0.148,0.249-0.261,0.432-0.261
	c0.232,0,0.406,0.167,0.516,0.498c0.021,0.063,0.031,0.121,0.038,0.171l8.054,0.005c1.744,0,3.617-0.018,5.491-0.146
	c0.499-0.034,1.003-0.058,1.507-0.082c1.083-0.051,2.202-0.104,3.271-0.262c2.783-0.412,5.898-1.073,8.097-2.833
	c-1.125-0.858-2.552-1.345-3.938-1.742c-1.918-0.548-3.583-0.884-5.09-1.028c-0.517-0.049-1.031-0.102-1.547-0.154
	c-2.108-0.214-4.29-0.436-6.446-0.436h-9.41c-0.168,0.493-0.412,0.604-0.598,0.604c-0.144,0-0.266-0.06-0.366-0.178
	c-0.138,0.157-0.29,0.184-0.376,0.184c-0.129,0-0.417-0.061-0.59-0.555c-0.025,0.036-0.056,0.075-0.08,0.107
	c-0.171,0.219-0.404,0.518-0.77,0.518c-0.361,0-0.598-0.299-0.77-0.518c-0.021-0.027-0.047-0.059-0.072-0.09
	c-0.146,0.46-0.406,0.538-0.564,0.538c-0.081,0-0.224-0.023-0.36-0.161c-0.096,0.135-0.232,0.231-0.433,0.231
	c-0.334,0-0.49-0.32-0.573-0.598c-0.022,0.026-0.044,0.053-0.063,0.076c-0.206,0.252-0.531,0.61-0.976,0.5
	c-0.199-0.048-0.355-0.225-0.537-0.43c-0.033-0.037-0.075-0.085-0.117-0.13c-0.118,0.373-0.29,0.539-0.524,0.539
	c-0.195,0-0.344-0.123-0.453-0.277c-0.095,0.159-0.218,0.29-0.411,0.29c-0.309,0-0.432-0.342-0.478-0.471L47.96,16.72
	c-0.141,0.245-0.347,0.488-0.664,0.565c-0.419,0.1-0.825-0.129-1.092-0.6c-0.158,0.379-0.25,0.553-0.433,0.609
	c-0.208,0.068-0.395-0.06-0.502-0.21c-0.101,0.122-0.229,0.207-0.388,0.207c-0.228,0-0.401-0.163-0.516-0.485l-0.038-0.109
	c-0.01-0.026-0.018-0.05-0.024-0.071l-2.267,0.002c-0.147,0-0.285,0.072-0.444,0.154c-0.258,0.134-0.598,0.278-0.965,0.176
	c-0.299-0.084-0.569-0.164-0.855-0.291l-0.075-0.033c-0.353-0.153-0.399-0.285-0.378-0.659c0.009-0.136,0.013-0.267,0.017-0.397
	c0.013-0.426,0.025-0.865,0.171-1.291l0.676-1.977c0.046-0.137,0.036-0.647-0.021-0.84l-1.295-0.283
	c-0.369,1.723-0.955,3.393-2.481,4.254c-0.687,0.387-1.743,0.849-2.874,0.849l-0.137-0.002l-10.382-0.358
	c-1.796-0.063-3.643,0.055-5.43,0.167c-0.835,0.053-1.668,0.105-2.496,0.141c-0.99,0.042-2.006,0.156-2.988,0.265
	c-0.493,0.055-0.985,0.11-1.477,0.157c-0.493,0.044-0.873-0.2-1.2-0.417c-0.178-0.118-0.346-0.229-0.527-0.296
	c-0.332-0.123-0.736-0.19-1.14-0.19c-0.576,0-1.07,0.136-1.393,0.382c-0.658,0.503-1.048,0.974-1.227,1.481
	c-0.1,0.285-0.173,0.606-0.222,0.979c-0.01,0.068-0.014,0.153-0.019,0.243c-0.018,0.321-0.033,0.625-0.21,0.801
	c-0.057,0.056-0.133,0.087-0.212,0.087c-0.042,0-0.104,0.092-0.135,0.247c-0.059,0.293,0.026,0.568,0.092,0.632
	c0.017,0.001,0.034,0.004,0.052,0.006l0.001,0.011c0.038-0.007,0.078-0.006,0.116,0.003c0.132,0.029,0.228,0.143,0.234,0.278
	c0.012,0.229,0.028,0.458,0.052,0.686c0.047,0.445,0.111,0.846,0.197,1.226c0.367,1.633,1.093,2.467,2.282,2.623
	c0.872,0.115,1.667-0.646,2.368-1.312c0.146-0.138,0.286-0.272,0.423-0.393c0.477-0.386,1.079-0.313,1.624-0.164l0.205,0.055
	c0.754,0.188,1.57,0.239,2.36,0.289l0.248,0.016c2.939,0.187,5.873,0.212,8.354,0.212c0.699,0,1.397-0.002,2.096-0.005l0.118-0.001
	c1.04-0.005,2.115-0.01,3.165-0.076c0.396-0.025,0.778-0.1,1.183-0.179c0.35-0.068,0.71-0.139,1.081-0.175
	c0.798-0.077,1.703-0.072,2.591-0.013c0.471,0.032,0.94,0.077,1.408,0.131c0.491,0.059,0.877,0.368,1.199,0.653
	C36.89,25.473,37.122,27.127,36.38,28.473z"/>
<rect id="sliceCopy_x5F_14_1_" x="88.001" fill="none" width="88" height="40"/>
<rect id="sliceCopy_x5F_13_1_" fill="none" width="88.001" height="40"/>
</svg>
