<?xml version="1.0" encoding="utf-8"?>
<!-- Generator: Adobe Illustrator 15.1.0, SVG Export Plug-In  -->
<!DOCTYPE svg PUBLIC "-//W3C//DTD SVG 1.1//EN" "http://www.w3.org/Graphics/SVG/1.1/DTD/svg11.dtd" [
	<!ENTITY ns_flows "http://ns.adobe.com/Flows/1.0/">
]>
<svg version="1.1"
	 xmlns="http://www.w3.org/2000/svg" xmlns:xlink="http://www.w3.org/1999/xlink" xmlns:a="http://ns.adobe.com/AdobeSVGViewerExtensions/3.0/"
	 x="0px" y="0px" width="53px" height="40px" viewBox="0.736 0 53 40" enable-background="new 0.736 0 53 40" xml:space="preserve">
<defs>
</defs>
<path d="M7.258,36.3c-0.477,0-1.171-0.06-1.686-0.574c-0.537-0.536-1.085-1.228-1.085-2.289c0-1.116,0.13-2.294,0.422-3.82
	c0.48-2.325,0.919-4.091,1.422-5.73c0.089-0.289,0.175-0.579,0.261-0.869c0.195-0.658,0.391-1.316,0.615-1.963l0.613-1.763
	c0.044-0.124,0.1-0.256,0.157-0.393c0.125-0.294,0.267-0.627,0.267-0.883c0-0.154,0.006-0.297,0.013-0.432
	c0.028-0.622,0.039-0.854-0.537-1.128c-0.239-0.114-0.504-0.225-0.778-0.34c-1.494-0.627-3.354-1.409-3.236-3.422
	c0.04-0.68,0.212-1.309,0.378-1.918c0.071-0.26,0.143-0.522,0.205-0.791c0.071-0.31,0.133-0.635,0.197-0.967
	c0.189-0.993,0.387-2.02,0.853-2.883C5.632,5.589,6.104,5.244,6.561,4.91l0.265-0.196c0.005-0.022-0.003-0.14-0.009-0.21
	c-0.014-0.185-0.03-0.416,0.132-0.591C7.049,3.804,7.191,3.75,7.37,3.75c0.009,0,0.078,0.003,0.086,0.004l0.575,0.045
	c1.19,0.088,2.314,0.171,3.46,0.918c0.159,0.104,0.411,0.114,0.72,0.099c0.095-0.004,0.19-0.008,0.287-0.008h21.181
	c0.32,0,0.51,0.165,0.662,0.319c0.088-0.022,0.144-0.027,0.194-0.032c0.059-0.005,0.112-0.009,0.155-0.009H45.9
	c0.033-0.053,0.206-0.458,0.289-0.653c0.185-0.432,0.296-0.692,0.572-0.692c0.077,0,0.155-0.01,0.233-0.019
	c0.236-0.027,0.478-0.032,0.674,0.034c0.701,0.114,1,1.089,1.179,1.671l0.03,0.099c0.264,1.364,0.237,2.625,0.21,3.961
	c-0.013,0.538-0.046,1.04-0.079,1.542l-0.021,0.326c-0.019,0.266-0.18,0.417-0.287,0.516c-0.083,0.078-0.101,0.1-0.104,0.13
	l-0.012,0.193c-0.016,0.286-0.031,0.582-0.19,0.884c-0.076,0.145-0.254,0.2-0.398,0.13c-0.144-0.071-0.864-0.176-1.566-0.176
	c-0.4,0-0.589,0.035-0.667,0.057c-0.021,0.076-0.041,0.157-0.061,0.24c-0.165,0.666-0.39,1.579-1.264,1.579h-7.855
	c-0.23,0-0.474-0.013-0.722-0.026c-0.504-0.028-1.039-0.042-1.402,0.021c-0.646,0.113-1.386,0.565-2.038,0.963
	c-0.16,0.097-0.313,0.191-0.458,0.275c-0.156,0.091-0.154,0.234-0.067,0.678c0.024,0.126,0.05,0.253,0.063,0.378
	c0.046,0.422,0.047,0.888,0.003,1.346c-0.014,0.14-0.024,0.283-0.034,0.427c-0.036,0.494-0.073,1.004-0.236,1.489
	c-0.472,1.397-1.894,1.852-2.699,1.999c-1.043,0.149-2.307,0.087-3.484,0.001c-0.797-0.057-1.613-0.118-2.425-0.085
	c-0.615,0.024-1.178,0.026-1.793-0.023c-0.768-0.059-1.098-0.01-1.685,0.441c-0.521,0.401-0.545,1.434-0.564,2.345
	c-0.008,0.335-0.016,0.653-0.046,0.924c-0.029,0.274-0.154,0.508-0.274,0.735c-0.093,0.175-0.18,0.34-0.206,0.495
	c-0.065,0.392-0.177,0.772-0.285,1.141c-0.041,0.138-0.081,0.275-0.119,0.414c-0.273,0.989-0.509,1.985-0.685,2.743l-0.065,0.289
	c-0.081,0.365-0.163,0.729-0.276,1.086c-0.012,0.037-0.034,0.091-0.06,0.154c-0.024,0.058-0.073,0.177-0.093,0.253l0.02,0.02
	c0.155,0.147,0.348,0.331,0.427,0.563c0.176,0.526,0.036,0.891-0.112,1.105c-0.466,0.671-1.643,0.808-2.303,0.83
	c-1.332,0.045-2.665,0.114-3.997,0.183c-0.686,0.035-1.37,0.071-2.056,0.103C8.713,36.184,8.5,36.206,8.28,36.229
	C7.947,36.264,7.604,36.3,7.258,36.3z M7.408,4.352C7.41,4.387,7.413,4.427,7.415,4.459c0.016,0.21,0.039,0.529-0.227,0.731
	L6.915,5.394c-0.422,0.308-0.819,0.6-1.05,1.026C5.443,7.203,5.256,8.183,5.074,9.131C5.009,9.47,4.945,9.803,4.872,10.121
	c-0.063,0.276-0.137,0.546-0.21,0.813c-0.165,0.606-0.321,1.178-0.357,1.795c-0.094,1.59,1.48,2.251,2.869,2.834
	c0.283,0.119,0.557,0.234,0.804,0.351c0.937,0.445,0.908,1.053,0.879,1.698c-0.006,0.126-0.013,0.26-0.013,0.404
	c0,0.378-0.167,0.771-0.313,1.117c-0.053,0.125-0.104,0.245-0.144,0.357l-0.613,1.761c-0.222,0.638-0.414,1.288-0.606,1.937
	c-0.087,0.292-0.173,0.583-0.262,0.874c-0.498,1.621-0.932,3.37-1.407,5.672c-0.284,1.483-0.411,2.626-0.411,3.703
	c0,0.679,0.264,1.219,0.909,1.865C6.269,35.574,6.669,35.7,7.258,35.7c0.314,0,0.643-0.034,0.96-0.067
	c0.232-0.024,0.457-0.048,0.664-0.058c0.684-0.032,1.368-0.067,2.052-0.103c1.336-0.069,2.672-0.138,4.009-0.183
	c0.904-0.03,1.604-0.25,1.829-0.573c0.104-0.149,0.115-0.336,0.037-0.571c-0.031-0.091-0.17-0.223-0.271-0.32l-0.094-0.09
	c-0.23-0.23-0.082-0.587,0.025-0.847c0.018-0.042,0.034-0.079,0.042-0.104c0.108-0.341,0.186-0.689,0.264-1.037l0.066-0.292
	c0.176-0.764,0.414-1.769,0.69-2.768c0.039-0.141,0.08-0.282,0.121-0.423c0.108-0.367,0.21-0.714,0.27-1.07
	c0.042-0.251,0.157-0.468,0.269-0.678c0.098-0.185,0.19-0.359,0.208-0.52c0.028-0.256,0.034-0.555,0.041-0.871
	c0.023-1.046,0.05-2.231,0.8-2.807c0.696-0.536,1.152-0.638,2.098-0.563c0.592,0.047,1.13,0.044,1.722,0.021
	c0.833-0.034,1.678,0.027,2.492,0.086c1.147,0.083,2.379,0.141,3.345,0.005c0.664-0.122,1.854-0.494,2.227-1.599
	c0.139-0.412,0.173-0.884,0.206-1.341c0.011-0.148,0.021-0.296,0.035-0.441c0.04-0.412,0.039-0.847-0.001-1.224
	c-0.012-0.108-0.034-0.218-0.056-0.327c-0.082-0.418-0.195-0.992,0.354-1.312c0.143-0.083,0.292-0.174,0.448-0.269
	c0.698-0.426,1.489-0.909,2.247-1.042c0.412-0.074,0.987-0.06,1.538-0.03c0.237,0.013,0.47,0.026,0.689,0.026h7.855
	c0.375,0,0.519-0.465,0.681-1.123c0.03-0.124,0.061-0.244,0.092-0.353c0.084-0.288,0.426-0.4,1.219-0.4
	c0.488,0,1.108,0.051,1.514,0.139c0.027-0.126,0.034-0.262,0.042-0.41l0.014-0.21c0.022-0.269,0.185-0.42,0.293-0.52
	c0.072-0.067,0.095-0.092,0.096-0.116l0.021-0.326c0.033-0.494,0.066-0.987,0.078-1.481c0.027-1.337,0.053-2.568-0.19-3.836
	l-0.023-0.07c-0.119-0.391-0.368-1.203-0.75-1.267c-0.206-0.062-0.313-0.035-0.461-0.018c-0.058,0.006-0.114,0.012-0.171,0.017
	c-0.043,0.083-0.104,0.223-0.149,0.333c-0.224,0.523-0.435,1.017-0.842,1.017H34.69c-0.029,0-0.065,0.004-0.104,0.007
	c-0.067,0.006-0.141,0.012-0.212,0.012c-0.074,0-0.303,0-0.458-0.154c-0.128-0.129-0.169-0.143-0.237-0.143H12.498
	c-0.087,0-0.174,0.004-0.26,0.008c-0.323,0.013-0.687,0.057-1.075-0.196c-1.016-0.663-2.017-0.736-3.176-0.822L7.408,4.352z
	 M21.658,20.338c-0.549,0-0.925-0.08-1.183-0.252c-0.46-0.308-0.413-1.067-0.378-1.622c0.007-0.106,0.013-0.199,0.013-0.271v-1.764
	c0-0.719,0.477-1.084,1.416-1.084c0.161,0,0.325,0.009,0.48,0.017c0.129,0.007,0.252,0.014,0.36,0.014h6.85
	c0.346,0,0.617,0.143,0.766,0.403c0.229,0.395,0.188,1,0.155,1.485c-0.01,0.144-0.02,0.276-0.02,0.386v1.627
	c0,0.668-0.504,1.008-1.498,1.008c-0.215,0-0.431-0.014-0.624-0.026c-0.144-0.009-0.272-0.018-0.376-0.018h-4.339
	c-0.157,0-0.369,0.019-0.604,0.04C22.358,20.307,21.998,20.338,21.658,20.338z M21.526,15.944c-0.754,0-0.816,0.229-0.816,0.484
	v1.764c0,0.082-0.006,0.188-0.014,0.309c-0.017,0.265-0.061,0.97,0.113,1.085c0.15,0.101,0.436,0.151,0.849,0.151
	c0.322,0,0.664-0.03,0.967-0.057c0.256-0.022,0.485-0.042,0.656-0.042h4.339c0.114,0,0.257,0.009,0.415,0.019
	c0.181,0.012,0.384,0.025,0.585,0.025c0.898,0,0.898-0.275,0.898-0.408v-1.627c0-0.121,0.01-0.268,0.021-0.426
	c0.025-0.383,0.061-0.908-0.077-1.146c-0.039-0.068-0.121-0.102-0.245-0.102h-6.85c-0.118,0-0.252-0.007-0.393-0.015
	C21.83,15.953,21.677,15.944,21.526,15.944z"/>
<rect id="sliceCopy_x5F_28_1_" x="52.804" fill="none" width="100.411" height="40"/>
<rect id="sliceCopy_x5F_27_1_" fill="none" width="52.805" height="40"/>
</svg>
