<?xml version="1.0" encoding="utf-8"?>
<!-- Generator: Adobe Illustrator 15.1.0, SVG Export Plug-In  -->
<!DOCTYPE svg PUBLIC "-//W3C//DTD SVG 1.1//EN" "http://www.w3.org/Graphics/SVG/1.1/DTD/svg11.dtd" [
	<!ENTITY ns_flows "http://ns.adobe.com/Flows/1.0/">
]>
<svg version="1.1"
	 xmlns="http://www.w3.org/2000/svg" xmlns:xlink="http://www.w3.org/1999/xlink" xmlns:a="http://ns.adobe.com/AdobeSVGViewerExtensions/3.0/"
	 x="0px" y="0px" width="73px" height="40px" viewBox="0.77 0 73 40" enable-background="new 0.77 0 73 40" xml:space="preserve">
<defs>
</defs>
<path d="M12.443,36.3c-0.294,0-0.58-0.015-0.822-0.027l-0.27-0.013c-1.473-0.056-2.701-0.12-3.866-0.201
	c-0.216-0.015-0.431-0.019-0.642-0.022c-0.913-0.015-1.857-0.031-2.515-0.959c-0.824-1.168-0.656-2.428-0.494-3.646l0.061-0.471
	c0.353-2.899,1.445-5.939,3.439-9.567l0.427-0.771c0.378-0.679,0.756-1.359,1.115-2.048c0.191-0.369,0.411-0.743,0.635-1.123
	c0.438-0.746,0.891-1.518,1.146-2.281c0.07-0.211,0.105-0.43,0.143-0.662c0.052-0.323,0.105-0.656,0.26-0.992
	c0.188-0.413,0.467-0.481,0.672-0.531c0.087-0.021,0.169-0.041,0.254-0.087c0.09-0.048,0.19-0.18,0.288-0.308
	c0.118-0.156,0.253-0.333,0.433-0.449c0.46-0.298,1.078-0.385,1.623-0.462c0.174-0.024,0.342-0.048,0.495-0.078
	c0.482-0.094,0.548-0.16,0.819-0.435c0.074-0.075,0.158-0.16,0.264-0.26c0.077-0.073,0.149-0.145,0.22-0.214
	c0.336-0.335,0.654-0.651,1.21-0.779l0.948-0.219c0.144-0.034,0.324-0.02,0.512,0.004c0.146,0.019,0.313,0.013,0.322,0.01
	c0.356-0.169,0.319-0.364,0.306-0.437c-0.069-0.366-0.596-0.798-1.006-0.826c-0.001,0-0.003,0-0.004,0
	c-0.161,0-0.345,0.054-0.521,0.106c-0.228,0.067-0.463,0.137-0.698,0.137c-0.313,0-0.559-0.125-0.729-0.373
	c-0.051-0.074-0.066-0.166-0.042-0.252s0.086-0.157,0.168-0.193l0.113-0.051c0.552-0.246,1.134-0.501,1.788-0.392
	c0.225,0.038,0.44,0.084,0.651,0.13c0.43,0.092,0.835,0.18,1.281,0.18c0.07,0,0.166,0,0.229-0.003
	c0.045-0.077,0.103-0.166,0.207-0.279c0.223-0.24,0.452-0.459,0.683-0.653c0.335-0.28,0.654-0.405,0.995-0.456
	c-0.23-0.137-0.396-0.275-0.481-0.438c-0.089-0.169-0.159-1.826,0.114-2.083C22.396,3.613,22.8,3.701,23.11,3.73
	c0.079,0.007,0.144,0.014,0.179,0.014c0.157,0,0.279,0.048,0.364,0.142c0.052,0.058,0.078,0.121,0.092,0.18
	c0.107,0.001,0.257,0.01,0.371,0.125c0.123,0.124,0.128,0.275,0.127,0.481c0.179-0.016,0.417-0.02,0.726-0.05
	c0.265-0.026,0.557-0.054,0.82-0.054c0.314,0,0.54,0.039,0.712,0.121c0.14,0.066,0.229,0.203,0.315,0.336
	c0.022,0.035,0.056,0.085,0.082,0.12h0.807c0.495,0,0.993,0.027,1.487,0.055c0.476,0.027,0.947,0.053,1.407,0.053h8.791
	c0.331,0,0.547,0.067,0.736,0.127c0.157,0.05,0.282,0.089,0.467,0.089h23.254c0.395,0,0.891-0.213,1.328-0.4
	c0.208-0.089,0.408-0.174,0.594-0.238c0.085-0.029,0.168-0.06,0.251-0.092C66.332,4.622,66.655,4.5,67.023,4.5
	c0.063,0,0.116-0.003,0.161-0.006l0.119-0.005c0.41,0,0.49,0.344,0.523,0.491l0.03,0.149c0.005,0.027,0.011,0.059,0.017,0.087
	c0.078-0.004,0.175,0.009,0.234,0.053c0.075,0.057,0.154,0.139,0.154,0.233c0,0.486,0.246,0.854,0.53,1.281
	c0.283,0.426,0.605,0.91,0.658,1.554c0.02,0.24,0.013,0.472,0.005,0.703c-0.009,0.265-0.017,0.515,0.019,0.77
	c0.097,0.665-0.07,1.142-0.263,1.694l-0.09,0.26c-0.044,0.133-0.008,0.449,0.021,0.703c0.029,0.253,0.057,0.492,0.038,0.695
	c-0.143,1.381-0.496,1.541-0.75,1.541H40.699c-0.383,0-0.383,0-0.56,0.408l-0.102,0.234c-0.401,0.898-0.631,1.708-0.721,2.55
	c-0.012,0.111-0.013,0.281-0.015,0.473c-0.009,0.684-0.03,1.23-0.224,1.519c-0.345,0.519-1.181,0.49-1.967,0.473
	c-0.144-0.003-0.287-0.006-0.426-0.006c-0.245,0-0.553,0.008-0.76,0.074c-0.152,0.049-0.4,0.108-0.694,0.177
	c-1.993,0.47-2.411,0.758-2.411,0.917c0.001,1.52,0.001,3.318-1.292,4.386c-1.062,0.875-2.671,0.988-3.955,0.988
	c-0.176,0-0.359,0.006-0.548,0.013c-0.905,0.028-1.979,0.097-2.814-0.587c-0.901-0.739-1.685-1.46-2.129-2.795
	c-0.002-0.004-0.003-0.008-0.005-0.014c0.013,0.053,0.024,0.099,0.033,0.134c0.036,0.142,0.064,0.257,0.076,0.322
	c0.045,0.249,0.074,0.56-0.101,0.769c-0.068,0.082-0.195,0.179-0.411,0.179c-0.184,0-0.388-0.069-0.639-0.174
	c-0.366-0.153-0.96-0.357-1.354-0.275L19.6,24.486c-0.601,0.128-1.169,0.25-1.792,0.292c0.017,0.044,0.061,0.372,0.084,0.547
	c0.029,0.216,0.057,0.421,0.034,0.584l-0.264,1.834c-0.055,0.378-0.382,0.771-0.671,1.118c-0.106,0.128-0.208,0.249-0.278,0.353
	l-0.141,0.202c-0.339,0.485-0.409,0.586-0.33,1.16c0.087,0.631,0.126,1.243,0.126,1.986c0,0.63-0.303,0.836-0.596,1.037
	c-0.104,0.071-0.223,0.151-0.349,0.267c-0.54,0.5-0.589,0.632-0.794,1.337C14.537,36.3,12.962,36.3,12.443,36.3z M18.491,10.273
	l-1.02,0.225c-0.39,0.089-0.612,0.312-0.922,0.619c-0.073,0.073-0.149,0.148-0.23,0.225c-0.1,0.094-0.179,0.174-0.248,0.245
	c-0.324,0.328-0.494,0.479-1.133,0.603c-0.163,0.032-0.341,0.057-0.525,0.083c-0.483,0.068-1.032,0.146-1.381,0.372
	c-0.092,0.06-0.188,0.186-0.281,0.309c-0.137,0.179-0.277,0.364-0.483,0.474c-0.152,0.082-0.286,0.114-0.395,0.141
	c-0.166,0.041-0.201,0.049-0.268,0.197c-0.121,0.263-0.166,0.542-0.214,0.839c-0.039,0.245-0.08,0.498-0.165,0.756
	c-0.275,0.823-0.744,1.622-1.198,2.395c-0.217,0.371-0.432,0.737-0.62,1.097c-0.361,0.694-0.741,1.378-1.122,2.063L7.86,21.681
	c-1.955,3.558-3.026,6.529-3.369,9.35L4.43,31.509c-0.154,1.155-0.299,2.245,0.39,3.221c0.481,0.68,1.167,0.691,2.034,0.706
	c0.222,0.004,0.447,0.008,0.673,0.023c1.159,0.081,2.382,0.144,3.849,0.2l0.277,0.013c0.233,0.012,0.508,0.027,0.791,0.027
	c1.545,0,1.586-0.457,1.6-0.607c0.245-0.866,0.354-1.094,0.974-1.668c0.152-0.14,0.293-0.237,0.418-0.322
	c0.263-0.18,0.334-0.228,0.334-0.541c0-0.714-0.037-1.301-0.12-1.904c-0.112-0.806,0.07-1.066,0.433-1.585l0.136-0.197
	c0.081-0.117,0.193-0.253,0.313-0.398c0.215-0.257,0.508-0.608,0.538-0.819l0.264-1.833c0.011-0.081-0.014-0.261-0.035-0.42
	c-0.052-0.388-0.106-0.789,0.099-1.04c0.092-0.112,0.221-0.177,0.372-0.187c0.58-0.04,1.127-0.157,1.707-0.281l0.084-0.018
	c0.536-0.117,1.27,0.124,1.71,0.308c0.063,0.027,0.239,0.1,0.353,0.121c0.001-0.045-0.003-0.119-0.023-0.234
	c-0.011-0.056-0.036-0.158-0.068-0.284c-0.232-0.929-0.315-1.416-0.16-1.668c0.133-0.217,0.296-0.262,0.408-0.262
	c0.102,0,0.19,0.031,0.271,0.092c0.003-0.017,0.009-0.034,0.016-0.048c0.035-0.074,0.089-0.157,0.166-0.183
	c0.563-0.187,1.121-0.34,1.756-0.481c0.021-0.005,0.063-0.008,0.085-0.008c0.014,0,1.486,0.2,1.583,0.613
	c0.252,1.001,0.508,1.832,1.25,2.509c-0.41-0.728-0.722-1.323-0.515-2.282c0.149-0.705,0.477-0.813,0.958-0.896
	c0.108-0.019,0.233-0.04,0.376-0.078c0.422-0.111,0.695-0.271,1.109-0.537c0.142-0.263,0.389-0.406,0.708-0.406
	c0.397,0,0.84,0.216,1.231,0.406c0.145,0.071,0.277,0.136,0.384,0.175l0.148,0.054c0.612,0.223,0.854,0.356,0.922,0.729
	c0.076-0.784,1.346-1.141,2.869-1.5c0.275-0.065,0.507-0.119,0.649-0.165c0.227-0.072,0.509-0.103,0.942-0.103
	c0.143,0,0.29,0.003,0.438,0.006c0.145,0.003,0.29,0.006,0.432,0.006c0.219,0,0.883,0,1.023-0.212
	c0.109-0.164,0.118-0.834,0.122-1.193c0.003-0.215,0.006-0.405,0.02-0.53c0.096-0.906,0.341-1.773,0.769-2.73l0.099-0.228
	c0.282-0.653,0.391-0.77,1.11-0.77l27.661,0c0.067-0.116,0.169-0.463,0.224-0.999c0.013-0.138-0.012-0.357-0.036-0.569
	c-0.042-0.36-0.081-0.7,0.005-0.96l0.093-0.269c0.181-0.518,0.311-0.891,0.235-1.413c-0.043-0.308-0.033-0.595-0.024-0.874
	c0.007-0.209,0.015-0.419-0.003-0.635c-0.04-0.489-0.293-0.868-0.561-1.269c-0.259-0.389-0.525-0.79-0.605-1.3
	c-0.326-0.068-0.389-0.406-0.42-0.579l-0.024-0.122c-0.002-0.008-0.004-0.016-0.006-0.022l-0.015,0
	C67.166,5.096,67.101,5.1,67.023,5.1c-0.26,0-0.518,0.098-0.792,0.201c-0.089,0.033-0.178,0.066-0.268,0.097
	c-0.171,0.06-0.357,0.14-0.552,0.223c-0.49,0.21-1.047,0.448-1.564,0.448H40.594c-0.276,0-0.473-0.062-0.646-0.116
	c-0.17-0.054-0.317-0.1-0.557-0.1H30.6c-0.472,0-0.954-0.026-1.44-0.054c-0.483-0.027-0.971-0.054-1.454-0.054H26.82
	c-0.251,0-0.393-0.217-0.507-0.392c-0.031-0.048-0.078-0.121-0.1-0.141c-0.031-0.011-0.157-0.044-0.425-0.044
	c-0.245,0-0.517,0.027-0.763,0.051c-0.313,0.029-0.57,0.033-0.744,0.052c-0.059,0.006-0.111,0.011-0.157,0.011
	c-0.113,0-0.481-0.039-0.481-0.53c0-0.033,0-0.061,0-0.085l-0.11,0c-0.085,0-0.235-0.059-0.293-0.122
	c-0.061-0.068-0.083-0.143-0.091-0.209c-0.029-0.002-0.061-0.005-0.094-0.008c-0.134-0.013-0.281-0.039-0.438-0.028
	c-0.045,0.343-0.059,1.188-0.014,1.365c0.062,0.108,0.64,0.376,0.886,0.49c0.181,0.083,0.341,0.159,0.445,0.22
	c0.116,0.069,0.172,0.207,0.136,0.337c-0.075,0.28-0.471,0.22-0.728,0.212c-0.589-0.019-0.977-0.025-1.414,0.338
	c-0.211,0.177-0.422,0.378-0.627,0.6c-0.083,0.09-0.114,0.146-0.142,0.196c-0.154,0.278-0.324,0.278-0.734,0.278
	c-0.385,0-0.739-0.056-1.08-0.125c0.345,0.252,0.603,0.601,0.669,0.947c0.087,0.459-0.146,0.857-0.638,1.091
	c-0.171,0.08-0.404,0.075-0.655,0.043C18.643,10.284,18.563,10.273,18.491,10.273z M22.716,22.197
	c0.204,0.544,0.398,1.053,0.614,1.555c0.371,0.868,0.61,1.039,1.403,1.605c0.551,0.394,1.48,0.61,2.617,0.61
	c0.001,0,0.001,0,0.001,0c0.661,0,1.337-0.074,1.903-0.209c1.024-0.244,1.593-0.659,2.099-1.531c0.2-0.347,0.219-0.901,0.234-1.391
	c0.006-0.19,0.013-0.375,0.027-0.542c0.065-0.726,0.065-0.726-0.517-0.938l-0.149-0.055c-0.122-0.044-0.274-0.118-0.44-0.199
	c-0.316-0.154-0.71-0.345-0.969-0.345c-0.124,0-0.161,0.04-0.195,0.125c-0.023,0.058-0.063,0.106-0.116,0.14
	c-0.426,0.274-0.793,0.511-1.354,0.658c-0.162,0.042-0.303,0.067-0.426,0.089c-0.367,0.063-0.397,0.069-0.475,0.431
	c-0.165,0.768,0.096,1.232,0.492,1.934c0.013,0.023,0.062,0.078,0.095,0.115c0.121,0.136,0.272,0.305,0.257,0.521
	c-0.009,0.112-0.063,0.216-0.153,0.292c-0.132,0.11-0.278,0.211-0.457,0.211c-0.201,0-0.327-0.121-0.448-0.238
	c-0.041-0.039-0.088-0.084-0.146-0.134c-0.919-0.778-1.239-1.725-1.513-2.792c-0.236-0.093-0.85-0.256-1.016-0.273
	C23.596,21.944,23.152,22.061,22.716,22.197z M32.217,22.305c-0.001,0.014-0.003,0.028-0.004,0.042
	c-0.014,0.157-0.02,0.33-0.025,0.508c-0.002,0.051-0.003,0.103-0.005,0.155C32.202,22.777,32.212,22.54,32.217,22.305z M52.585,7.39
	C52.585,7.39,52.585,7.39,52.585,7.39c-0.521,0-0.852-0.094-1.044-0.297c-0.12-0.127-0.179-0.292-0.169-0.475
	c0.009-0.159,0.141-0.283,0.3-0.283h2.77c0.071,0,0.192-0.011,0.34-0.024c0.261-0.022,0.597-0.051,0.91-0.051
	c0.599,0,0.94,0.104,1.107,0.335c0.104,0.143,0.128,0.325,0.066,0.511c-0.041,0.123-0.155,0.206-0.285,0.206l-2.82,0.001
	c-0.08,0-0.205,0.013-0.353,0.027C53.165,7.362,52.867,7.39,52.585,7.39z M42.996,7.387c-0.922,0-1.329-0.116-1.455-0.416
	c-0.043-0.104-0.081-0.313,0.151-0.548c0.213-0.211,0.707-0.136,1.075-0.104c0.084,0.007,0.151,0.014,0.184,0.014h1.865
	c0.086,0,0.213-0.014,0.36-0.029c0.229-0.023,0.5-0.05,0.751-0.05c0.3,0,0.724,0.032,0.935,0.314c0.082,0.11,0.162,0.299,0.08,0.58
	c-0.038,0.128-0.155,0.215-0.288,0.215l-2.985,0.003C43.535,7.375,43.278,7.387,42.996,7.387z M66.012,7.37l-1.807-0.004h-2.77
	c-0.135,0-0.252-0.089-0.289-0.218C61.1,6.981,61.128,6.818,61.226,6.69c0.166-0.219,0.508-0.317,1.107-0.317
	c0.316,0,0.655,0.027,0.913,0.048c0.146,0.012,0.263,0.022,0.33,0.022h1.961c0.022,0,0.069-0.005,0.128-0.01
	c0.276-0.022,0.688-0.134,0.904,0.11c0.205,0.229,0.186,0.417,0.133,0.535C66.587,7.336,66.272,7.37,66.012,7.37z"/>
<rect id="sliceCopy_x5F_24_1_" x="73.203" fill="none" width="50.463" height="40"/>
<rect id="sliceCopy_x5F_23_1_" fill="none" width="73.203" height="40"/>
</svg>
