<?xml version="1.0" encoding="utf-8"?>
<!-- Generator: Adobe Illustrator 15.1.0, SVG Export Plug-In  -->
<!DOCTYPE svg PUBLIC "-//W3C//DTD SVG 1.1//EN" "http://www.w3.org/Graphics/SVG/1.1/DTD/svg11.dtd" [
	<!ENTITY ns_flows "http://ns.adobe.com/Flows/1.0/">
]>
<svg version="1.1"
	 xmlns="http://www.w3.org/2000/svg" xmlns:xlink="http://www.w3.org/1999/xlink" xmlns:a="http://ns.adobe.com/AdobeSVGViewerExtensions/3.0/"
	 x="0px" y="0px" width="83px" height="40px" viewBox="0.769 0 83 40" enable-background="new 0.769 0 83 40" xml:space="preserve">
<defs>
</defs>
<path d="M12.409,34.339c-1.282,0-2.652-0.432-4.07-1.283l-1.31-0.786c-0.097-0.058-0.184-0.123-0.271-0.188
	c-0.137-0.103-0.256-0.192-0.393-0.223c-0.087-0.02-0.23-0.038-0.404-0.062c-0.929-0.126-2.333-0.315-2.26-1.166
	c0.028-0.327,0.318-0.702,0.573-1.033c0.09-0.117,0.173-0.223,0.225-0.306c0.504-0.807,0.862-1.588,1.063-2.323
	c0.193-0.703,0.396-1.404,0.599-2.105l0.552-1.923c0.094-0.327,0.383-0.496,0.657-0.619c-0.162-0.198-0.229-0.402-0.117-0.79
	c0.144-0.493,0.292-1.002,0.622-1.474c0.192-0.273,0.552-0.329,0.899-0.382c0.589-0.09,0.631-0.157,0.607-0.341
	c-0.029-0.236,0.014-0.422,0.13-0.553c0.167-0.19,0.479-0.201,0.82-0.136c0.079,0.015,0.155,0.031,0.218,0.031
	c0.178-0.017,0.183-0.023,0.254-0.295c0.027-0.105,0.058-0.22,0.105-0.342c0.163-0.417,0.491-0.666,0.878-0.666
	c0.21,0,0.384,0.101,0.524,0.182c0.06,0.035,0.15,0.088,0.184,0.09c0.133-0.034,0.143-0.054,0.226-0.298l0.039-0.11
	c-0.009-0.206,0.053-0.389,0.182-0.535c0.26-0.296,0.729-0.358,1.075-0.358c0.111,0.001,0.191,0.012,0.253,0.024
	c0.003-0.017,0.007-0.037,0.011-0.06c0.134-0.803,0.596-0.887,1.044-0.968c0.087-0.016,0.182-0.033,0.283-0.057
	c0.193-0.045,0.278-0.149,0.454-0.412c0.206-0.31,0.526-0.467,0.809-0.605l0.1-0.049c0.036-0.018,0.077-0.035,0.121-0.053
	c0.04-0.016,0.106-0.043,0.126-0.059c0.028-0.164,0.071-0.279,0.276-0.393l0.631-0.351c0.548-0.305,1.096-0.609,1.647-0.906
	c2.983-1.605,6.351-2.846,10.293-3.794l1.777-0.428c0.41-0.1,0.618-0.007,0.897,0.128l0.132,0.063
	c0.062,0.029,0.136,0.071,0.214,0.117c0.097,0.056,0.275,0.16,0.345,0.165c0.029,0,0.112-0.035,0.168-0.058
	c0.098-0.041,0.209-0.087,0.332-0.1c0.264-0.028,0.58,0.012,0.876,0.052c0.115,0.016,0.227,0.031,0.33,0.04
	c0.486,0.042,0.981,0.064,1.472,0.064c1.794,0,3.467-0.282,4.837-0.815c0.646-0.251,1.383-0.576,1.947-1.078
	c0.053-0.047,0.119-0.119,0.194-0.199c0.317-0.341,0.584-0.605,0.873-0.642c0.136-0.018,0.321-0.059,0.53-0.104
	c0.43-0.094,0.965-0.211,1.412-0.211c0.434,0,0.73,0.109,0.907,0.334c0.074,0.095,0.145,0.25,0.25,0.493
	c0.029,0.067,0.057,0.132,0.08,0.184L52.2,7.024c1.298,0.101,2.59,0.376,3.84,0.643c0.429,0.091,0.857,0.183,1.285,0.267
	c2.775,0.546,5.34,1.819,7.482,2.992c3.25,1.779,5.997,3.958,8.166,6.478c1.686,1.991,3.085,4.058,4.162,6.148
	c0.933,1.808,1.919,3.944,2.162,6.084c0.016,0.139-0.066,0.271-0.198,0.317c-0.128,0.047-0.278-0.004-0.353-0.122
	c-2.089-3.288-5.501-6.306-9.362-8.281c-3.326-1.702-6.854-2.79-9.933-3.064c-2.595-0.231-5.251-0.111-7.837,0.358
	c-1.388,0.251-2.721,0.621-4.294,1.098c-0.33,0.101-0.644,0.209-0.968,0.337c-0.088,0.036-0.112,0.058-0.113,0.059
	c0.063,0.131,0.114,0.396-0.136,0.698c-0.309,0.38-1.946,1.024-2.468,1.024c-0.018,0-0.094-0.006-0.111-0.009
	c-0.539-0.092-0.797-0.846-1.003-1.452c-0.059-0.173-0.109-0.324-0.156-0.417c-0.461-0.896-1.14-1.703-1.91-2.273
	c-1.389-1.028-3.438-1.051-4.884-0.063c-0.803,0.547-1.505,1.322-1.88,2.073c-0.167,0.333-0.311,0.62-0.654,0.62
	c-0.128,0-0.249-0.042-0.417-0.1l-0.233-0.078c-1.706-0.537-3.624-0.174-5.022,0.95c-0.638,0.512-1.115,1.155-1.535,1.773
	c-0.049,0.071-0.088,0.144-0.125,0.211c-0.129,0.237-0.307,0.561-0.757,0.561c-0.009,0-0.072-0.002-0.08-0.003
	c-0.496-0.042-0.968-0.081-1.421-0.081c-1.152,0-1.936,0.269-2.54,0.873c-0.457,0.458-0.775,1.009-1.111,1.592l-0.045,0.077
	c-0.018,0.031-0.036,0.08-0.06,0.134c-0.097,0.235-0.237,0.572-0.512,0.667c-0.005,0.257-0.016,0.512-0.038,0.771
	c-0.256,2.911-2.521,5.556-5.386,6.289C13.321,34.283,12.868,34.339,12.409,34.339z M9.974,19.203c0,0.014,0.002,0.034,0.005,0.059
	c0.104,0.823-0.688,0.944-1.112,1.009c-0.159,0.024-0.454,0.07-0.498,0.134c-0.274,0.39-0.402,0.83-0.538,1.296
	c-0.055,0.188-0.055,0.188,0.117,0.362c0.046,0.046,0.097,0.099,0.153,0.16c0.063,0.069,0.091,0.163,0.075,0.255
	c-0.017,0.092-0.074,0.171-0.157,0.214c-0.076,0.04-0.166,0.078-0.259,0.117c-0.184,0.078-0.437,0.185-0.47,0.299l-0.552,1.924
	c-0.201,0.699-0.403,1.397-0.597,2.097c-0.217,0.791-0.598,1.626-1.132,2.482c-0.061,0.096-0.155,0.22-0.259,0.355
	c-0.164,0.212-0.438,0.566-0.451,0.718c-0.007,0.084,0.148,0.304,1.742,0.519c0.197,0.026,0.358,0.049,0.456,0.071
	c0.263,0.059,0.453,0.202,0.621,0.329c0.07,0.052,0.141,0.106,0.219,0.153l1.31,0.785c1.787,1.073,3.47,1.431,4.96,1.049
	c2.626-0.672,4.702-3.095,4.937-5.76c0.03-0.353,0.038-0.695,0.038-1.051c0-0.115,0.065-0.22,0.169-0.27
	c0.078-0.04,0.17-0.041,0.249-0.006c0.051-0.08,0.109-0.22,0.138-0.289c0.035-0.084,0.066-0.158,0.094-0.205l0.044-0.077
	c0.342-0.591,0.694-1.202,1.208-1.715c0.93-0.93,2.072-1.049,2.964-1.049c0.479,0,0.962,0.041,1.431,0.08
	c0.137,0.006,0.169-0.003,0.301-0.244c0.046-0.084,0.096-0.174,0.156-0.262c0.445-0.656,0.955-1.341,1.655-1.902
	c1.55-1.247,3.682-1.65,5.577-1.054l0.25,0.083c0.089,0.03,0.189,0.065,0.221,0.067c-0.02-0.016,0.08-0.214,0.117-0.289
	c0.425-0.85,1.183-1.688,2.079-2.3c1.655-1.129,3.985-1.101,5.579,0.077c0.843,0.624,1.584,1.505,2.086,2.481
	c0.058,0.111,0.12,0.292,0.19,0.498c0.096,0.28,0.349,1.022,0.538,1.055l0,0c0.401,0,1.83-0.6,2.013-0.805
	c0.071-0.086,0.065-0.113,0.047-0.214c-0.048-0.248-0.032-0.527,0.444-0.718c0.339-0.135,0.668-0.248,1.015-0.354
	c1.594-0.483,2.945-0.858,4.361-1.115c2.641-0.478,5.354-0.602,7.997-0.365c3.154,0.281,6.76,1.392,10.153,3.127
	c3.491,1.786,6.627,4.409,8.789,7.322c-0.402-1.586-1.14-3.144-1.845-4.511c-1.057-2.049-2.431-4.079-4.085-6.033
	c-2.12-2.463-4.812-4.597-7.998-6.341c-2.103-1.151-4.614-2.399-7.31-2.93c-0.432-0.085-0.863-0.177-1.295-0.269
	c-1.23-0.262-2.503-0.533-3.762-0.63l-4.709-0.364c-0.213-0.019-0.277-0.169-0.435-0.532c-0.052-0.117-0.137-0.314-0.172-0.362
	c-0.019-0.024-0.108-0.104-0.436-0.104c-0.383,0-0.883,0.109-1.284,0.197c-0.229,0.05-0.432,0.094-0.581,0.113
	c-0.11,0.025-0.392,0.327-0.512,0.457c-0.09,0.096-0.171,0.182-0.234,0.239c-0.635,0.565-1.433,0.918-2.129,1.188
	c-1.438,0.56-3.186,0.855-5.054,0.855c-0.508,0-1.021-0.022-1.524-0.066c-0.112-0.01-0.233-0.026-0.357-0.043
	c-0.247-0.034-0.507-0.072-0.735-0.05c-0.034,0.003-0.104,0.033-0.161,0.057c-0.117,0.049-0.25,0.104-0.401,0.104
	c-0.251-0.018-0.459-0.139-0.644-0.246c-0.062-0.036-0.119-0.069-0.167-0.092l-0.141-0.067c-0.262-0.127-0.285-0.136-0.494-0.085
	l-1.777,0.428c-3.946,0.949-7.171,2.138-10.148,3.74c-0.55,0.295-1.096,0.599-1.642,0.902l-0.631,0.351l-0.02,0.083
	c-0.068,0.246-0.307,0.342-0.449,0.4l-0.181,0.084c-0.235,0.115-0.458,0.225-0.574,0.4c-0.176,0.263-0.375,0.56-0.816,0.663
	c-0.111,0.026-0.217,0.045-0.313,0.063c-0.409,0.074-0.494,0.09-0.559,0.477C14.844,16.587,14.774,17,14.392,17
	c-0.066,0-0.125-0.014-0.182-0.027c-0.053-0.012-0.103-0.024-0.16-0.025c0,0-0.001,0-0.002,0c-0.328,0-0.573,0.061-0.655,0.154
	c-0.014,0.016-0.042,0.047-0.029,0.141c0.006,0.049,0,0.099-0.018,0.145l-0.056,0.157c-0.092,0.268-0.195,0.572-0.657,0.688
	c-0.024,0.006-0.112,0.017-0.137,0.017c-0.19,0-0.348-0.091-0.485-0.171c-0.078-0.045-0.174-0.102-0.223-0.102
	c-0.181,0-0.277,0.178-0.319,0.284c-0.038,0.098-0.062,0.191-0.084,0.275c-0.075,0.287-0.178,0.681-0.762,0.739
	c-0.181,0.005-0.282-0.016-0.4-0.038C10.139,19.222,10.051,19.204,9.974,19.203z M12.096,32.832c-0.829,0-1.48-0.19-2.249-0.658
	c-1.252-0.764-1.777-1.682-2.182-2.825c-0.377-1.069-0.337-2.253,0.126-3.727c0.394-1.249,2.108-2.869,3.548-2.98l0.403-0.015
	c0.227-0.009,0.452-0.019,0.677-0.019c0.391,0,0.907,0.023,1.437,0.208c1.482,0.516,2.864,2.071,3.284,3.7
	c0.444,1.714,0.011,3.546-1.131,4.781c-0.868,0.938-1.776,1.37-3.136,1.493C12.593,32.816,12.338,32.832,12.096,32.832z
	 M12.419,23.208c-0.216,0-0.434,0.009-0.652,0.018l-0.396,0.014c-1.154,0.089-2.679,1.519-3.007,2.561
	c-0.422,1.343-0.464,2.407-0.132,3.347c0.438,1.242,0.961,1.923,1.928,2.513c0.885,0.539,1.568,0.633,2.659,0.532
	c1.212-0.11,1.983-0.475,2.75-1.303c1.004-1.086,1.384-2.704,0.991-4.223c-0.374-1.448-1.594-2.829-2.901-3.284
	C13.312,23.262,12.929,23.208,12.419,23.208z"/>
<rect id="sliceCopy_x5F_20_1_" x="83" fill="none" width="84" height="40"/>
<rect id="sliceCopy_x5F_19_1_" fill="none" width="83.001" height="40"/>
</svg>
