<?xml version="1.0" encoding="utf-8"?>
<!-- Generator: Adobe Illustrator 15.1.0, SVG Export Plug-In  -->
<!DOCTYPE svg PUBLIC "-//W3C//DTD SVG 1.1//EN" "http://www.w3.org/Graphics/SVG/1.1/DTD/svg11.dtd" [
	<!ENTITY ns_flows "http://ns.adobe.com/Flows/1.0/">
]>
<svg version="1.1"
	 xmlns="http://www.w3.org/2000/svg" xmlns:xlink="http://www.w3.org/1999/xlink" xmlns:a="http://ns.adobe.com/AdobeSVGViewerExtensions/3.0/"
	 x="0px" y="0px" width="60px" height="40px" viewBox="0.452 0 60 40" enable-background="new 0.452 0 60 40" xml:space="preserve">
<defs>
</defs>
<path d="M26.3,36.3c-0.319,0-0.619-0.07-0.885-0.132c-0.216-0.051-0.42-0.099-0.594-0.099l-0.522,0.007
	c-0.485,0-0.988-0.056-1.334-0.725c-0.301-0.577-0.637-1.749-0.637-2.453c0-0.135-0.052-0.265-0.112-0.416
	c-0.077-0.194-0.165-0.414-0.165-0.696c0-0.166-0.062-0.403-0.121-0.633c-0.043-0.168-0.085-0.333-0.107-0.478l-0.111-0.706
	c-0.206-1.302-0.4-2.531-0.4-3.971c0-0.144,0-0.361-0.022-0.41c-0.026-0.015-0.189-0.057-0.348-0.097
	c-0.65-0.165-0.649-1.012-0.649-1.418c0-0.362-0.022-0.735-0.044-1.115c-0.024-0.407-0.048-0.823-0.048-1.22
	c0-0.736,0.028-1.457,0.093-2.337c0.027-0.376,0.179-0.748,0.325-1.107c0.142-0.348,0.275-0.677,0.275-0.955
	c0-0.112,0.039-0.278,0.119-0.613c0.08-0.331,0.263-1.084,0.217-1.311c-0.075-0.058-0.116-0.136-0.139-0.216
	c-0.013,0.008-0.026,0.015-0.04,0.022c-0.195,0.099-0.429,0.09-0.672,0.042c-0.075-0.014-0.151-0.031-0.23-0.031l-2.526,0.075
	c-0.085,0.002-0.203,0.032-0.316,0.062c-0.261,0.065-0.558,0.117-0.773,0.02c-0.185-0.083-0.273-0.25-0.346-0.383
	c-0.025-0.046-0.063-0.116-0.082-0.133c-0.036-0.015-0.162-0.05-0.48-0.05c-0.282,0-0.601,0.027-0.871,0.05
	c-0.217,0.019-0.405,0.034-0.528,0.034h-2.869c-0.094,0-0.2,0.008-0.313,0.016c-0.434,0.031-0.872,0.021-1.145-0.118
	c-0.152-0.079-0.303-0.26-0.422-0.473c-0.113,0.456-0.206,1.049-0.206,1.341c0,0.334-0.228,0.824-0.525,1.429
	C8.667,17.26,8.598,17.4,8.552,17.507c-0.095,0.219-0.188,0.449-0.28,0.681c-0.134,0.331-0.27,0.668-0.418,0.992
	c-0.479,1.044-0.965,1.842-2.472,1.842c-0.644,0-1.068-0.128-1.337-0.404c-0.368-0.377-0.354-0.922-0.338-1.553
	c0.004-0.136,0.008-0.279,0.008-0.427v-9.26c0-0.097-0.004-0.196-0.007-0.296C3.699,8.859,3.692,8.633,3.717,8.418
	C3.752,8.085,3.853,7.924,3.97,7.737c0.049-0.08,0.106-0.171,0.171-0.3C4.38,6.96,5.295,6.714,5.632,6.714
	c0.011,0,0.071,0.003,0.081,0.004c0.244,0.025,0.364,0.118,0.467,0.21c0.052,0.047,0.073,0.066,0.22,0.066h1.592
	C7.943,6.739,7.986,6.459,8.124,6.187C8.183,6.069,8.262,5.975,8.33,5.891c0.038-0.045,0.076-0.087,0.1-0.13
	c0.01-0.021,0.225-0.368,0.255-0.409c0.333-0.417,0.819-0.811,1.622-0.41c0.271,0.134,0.271,0.134,0.539,0.154
	c0.133-0.067,0.234-0.127,0.382-0.117c0.455-0.835,1.11-1.227,2.043-1.227h30.258c0.269,0,0.556-0.013,0.844-0.026
	c0.415-0.019,0.828-0.037,1.191-0.02c0.667,0.03,0.963,0.362,1.25,0.683c0.12,0.135,0.244,0.274,0.404,0.4
	c0.211,0.166,0.492,0.178,0.866,0.178h0.104c0.319,0,0.758,0,1.16,0.208c0.521,0.271,0.96,1.006,0.91,1.687
	c0.095,0.035,0.171,0.086,0.233,0.154c0.185,0.204,0.158,0.474,0.139,0.671c-0.006,0.055-0.012,0.11-0.012,0.162
	c0,0.129,0.049,0.273,0.102,0.424c0.065,0.192,0.143,0.418,0.125,0.663c0.008,0.004,0.015,0.009,0.022,0.013
	c0.067,0.04,0.131,0.078,0.184,0.093c0.061,0.018,0.114,0.054,0.152,0.104c0.017,0.021,0.188,0.201,1.255,0.201
	c0.556,0,1.168-0.047,1.661-0.084c0.336-0.026,0.615-0.046,0.783-0.046c0.053,0,0.122-0.006,0.201-0.012
	c0.122-0.01,0.263-0.021,0.401-0.021c0.824,0,0.947,0.429,0.947,0.685c0,0.157,0.023,0.38,0.049,0.629
	c0.069,0.695,0.149,1.484-0.088,1.899c-0.271,0.476-0.86,0.476-1.055,0.476l0,0c-0.163,0-0.33-0.014-0.485-0.027
	c-0.118-0.01-0.228-0.02-0.32-0.02h-2.545c-0.117,0.011-0.423,0.093-0.572,0.169c0.003,0.013,0.007,0.026,0.011,0.04
	c0.066,0.257,0.096,0.378,0.096,0.462c0.003,0.363-0.102,0.68-0.288,0.868c-0.232,0.237-0.582,0.256-0.917,0.03
	c-0.238-0.159-0.888-0.892-1.007-1.136c-0.111-0.229-0.194-0.28-0.217-0.28c-0.091,0-0.287,0.167-0.43,0.289
	c-0.124,0.105-0.25,0.212-0.38,0.296l-0.105,0.067c-0.335,0.211-0.451,0.3-0.451,0.607V23.5c0,0.198,0.021,0.434,0.041,0.683
	c0.05,0.586,0.105,1.25-0.057,1.729c-0.093,0.271-0.338,0.595-0.98,0.595c-0.638,0-1.46-0.318-2.06-0.551
	c-0.165-0.064-0.309-0.12-0.419-0.157c-2.123-0.704-1.947-2.958-1.819-4.604l0.018-0.218c0.121-1.606,0.138-3.23,0.138-4.607v-2.315
	c0-0.292-0.045-0.35-0.047-0.353c-0.003,0.001-0.151-0.019-0.406-0.007c-0.121,0.005-0.259,0.012-0.413,0.012h-5.717
	c-0.03,0-0.061,0-0.09,0c0.023,0.21-0.014,0.408-0.046,0.58c-0.021,0.108-0.043,0.216-0.043,0.324c0,0.287-0.234,0.48-0.441,0.65
	c-0.162,0.133-0.346,0.284-0.346,0.415c0,1.788-1.507,1.828-2.718,1.86c-0.147,0.004-0.294,0.008-0.439,0.015l-0.949,0.046
	c-0.894,0.045-1.818,0.092-2.701,0.092c-0.085,0.067-0.064,0.411-0.057,0.54c0.005,0.083,0.009,0.16,0.009,0.225
	c0,0.395-0.022,0.777-0.046,1.162c-0.022,0.377-0.046,0.756-0.046,1.153c0,0.583,0.084,1.171,0.164,1.74
	c0.137,0.961,0.277,1.955,0.011,2.924c-0.239,0.869,0.041,2.202,0.267,3.273c0.079,0.377,0.154,0.733,0.203,1.045
	c0.038,0.234,0.071,0.464,0.104,0.691c0.076,0.518,0.151,1.026,0.265,1.563c0.092,0.452,0.199,0.8,0.319,1.038l0.1,0.203
	c0.048,0.101,0.094,0.197,0.148,0.293c0.06,0.104,0.069,0.199,0.075,0.262c0.063,0.041,0.197,0.098,0.28,0.262
	c0.123,0.248,0.099,0.512,0.077,0.745c-0.014,0.16-0.029,0.324,0.016,0.413c0.13,0.261,0.055,0.453-0.001,0.543
	c-0.189,0.307-0.666,0.37-1.322,0.37c-0.141,0-0.282-0.003-0.414-0.005l-0.312-0.005c-0.104,0-0.188,0.001-0.242,0.012
	C27.326,36.238,26.903,36.3,26.3,36.3z M24.821,35.469c0.243,0,0.491,0.058,0.731,0.114C25.797,35.641,26.05,35.7,26.3,35.7
	c0.554,0,0.944-0.058,1.433-0.156c0.081-0.017,0.207-0.024,0.361-0.024l0.324,0.005c0.128,0.003,0.265,0.006,0.401,0.006
	c0.483,0,0.688-0.042,0.772-0.074c-0.104-0.248-0.082-0.491-0.062-0.707c0.015-0.162,0.029-0.329-0.017-0.422
	c-0.049,0.01-0.188-0.05-0.278-0.23c-0.048-0.099-0.057-0.184-0.063-0.24c-0.062-0.133-0.113-0.242-0.169-0.356l-0.093-0.19
	c-0.146-0.29-0.268-0.678-0.372-1.187c-0.116-0.55-0.19-1.059-0.271-1.597c-0.032-0.226-0.066-0.453-0.103-0.685
	c-0.049-0.303-0.121-0.649-0.198-1.016c-0.252-1.194-0.536-2.546-0.258-3.556c0.233-0.849,0.107-1.738-0.026-2.68
	c-0.084-0.59-0.17-1.2-0.17-1.825c0-0.409,0.023-0.8,0.047-1.189c0.022-0.373,0.045-0.743,0.045-1.126
	c0-0.055-0.004-0.119-0.009-0.188c-0.02-0.327-0.044-0.733,0.196-0.988c0.08-0.085,0.226-0.188,0.46-0.188
	c0.868,0,1.784-0.047,2.67-0.092l0.953-0.047c0.149-0.007,0.3-0.011,0.45-0.015c1.363-0.037,2.135-0.113,2.135-1.26
	c0-0.414,0.326-0.682,0.564-0.878c0.082-0.067,0.206-0.17,0.228-0.215c-0.005-0.115,0.021-0.26,0.048-0.406
	c0.048-0.254,0.072-0.418-0.016-0.577c-0.044-0.08-0.05-0.175-0.015-0.26c0.034-0.084,0.105-0.148,0.193-0.174
	c0.186-0.054,0.372-0.059,0.563-0.059l5.717,0c0.144,0,0.271-0.006,0.385-0.012c0.1-0.004,0.188-0.009,0.268-0.009
	c0.578,0,0.813,0.281,0.813,0.968v2.315c0,1.388-0.017,3.027-0.14,4.652l-0.017,0.22c-0.126,1.608-0.269,3.431,1.41,3.987
	c0.117,0.039,0.271,0.098,0.446,0.167c0.524,0.203,1.317,0.51,1.843,0.51c0.349,0,0.394-0.131,0.412-0.188
	c0.122-0.359,0.071-0.958,0.027-1.485c-0.022-0.268-0.043-0.521-0.043-0.733v-9.261c0-0.654,0.388-0.899,0.73-1.115l0.1-0.063
	c0.108-0.07,0.214-0.161,0.316-0.249c0.25-0.212,0.508-0.432,0.819-0.432c0.457,0,0.683,0.464,0.756,0.617
	c0.075,0.152,0.652,0.8,0.802,0.9c0.064,0.044,0.112,0.059,0.135,0.059c0.079-0.069,0.139-0.232,0.137-0.456
	c-0.006-0.05-0.046-0.193-0.077-0.313c-0.067-0.257-0.085-0.327-0.021-0.44c0.198-0.42,1.154-0.52,1.163-0.52h2.545
	c0.107,0,0.234,0.01,0.371,0.022c0.139,0.012,0.289,0.025,0.435,0.025c0.39,0,0.491-0.099,0.533-0.173
	c0.143-0.249,0.061-1.058,0.012-1.542c-0.027-0.272-0.051-0.517-0.051-0.689c-0.003-0.025-0.062-0.085-0.348-0.085
	c-0.122,0-0.247,0.01-0.354,0.019c-0.098,0.007-0.184,0.014-0.248,0.014c-0.158,0-0.421,0.021-0.737,0.045
	c-0.503,0.038-1.129,0.086-1.707,0.086c-0.879,0-1.399-0.111-1.66-0.358c-0.089-0.036-0.166-0.082-0.236-0.123
	c-0.054-0.032-0.105-0.064-0.162-0.085c-0.075-0.028-0.137-0.085-0.169-0.159c-0.033-0.073-0.035-0.157-0.006-0.232
	c0.054-0.137,0.007-0.288-0.073-0.521C50.09,8.286,50.02,8.079,50.02,7.85c0-0.071,0.007-0.146,0.014-0.221
	c0.007-0.065,0.017-0.17,0.008-0.213c-0.011-0.002-0.047-0.007-0.122-0.007c-0.099,0-0.197-0.047-0.254-0.127
	c-0.056-0.08-0.077-0.182-0.044-0.274c0.17-0.471-0.211-1.123-0.55-1.299c-0.251-0.13-0.536-0.141-0.883-0.141l-0.104-0.3v0.3
	c-0.377,0-0.847,0-1.237-0.307c-0.201-0.159-0.35-0.325-0.481-0.472c-0.258-0.29-0.414-0.464-0.829-0.483
	c-0.347-0.017-0.742,0.002-1.137,0.02c-0.298,0.013-0.595,0.026-0.871,0.026H13.271c-0.787,0-1.257,0.325-1.62,1.121
	c-0.037,0.082-0.108,0.143-0.195,0.166c-0.089,0.022-0.181,0.005-0.253-0.047c-0.075,0.04-0.19,0.104-0.354,0.104
	c-0.408-0.028-0.479-0.054-0.809-0.217C9.646,5.282,9.525,5.26,9.157,5.722C9.131,5.76,8.98,6.004,8.957,6.046
	C8.915,6.123,8.856,6.197,8.792,6.274C8.741,6.336,8.688,6.4,8.659,6.456c-0.072,0.145-0.166,0.42,0.026,0.641
	c0.078,0.088,0.097,0.214,0.048,0.321C8.685,7.525,8.577,7.594,8.46,7.594H6.399c-0.349,0-0.498-0.109-0.622-0.221
	C5.728,7.329,5.72,7.322,5.651,7.314H5.65c-0.317,0-0.896,0.238-0.973,0.392C4.603,7.855,4.536,7.962,4.479,8.055
	C4.38,8.214,4.334,8.286,4.313,8.484C4.292,8.671,4.3,8.867,4.308,9.061c0.003,0.107,0.007,0.213,0.007,0.317v0.295l0.002-0.11
	c0-0.15,0.11-0.277,0.26-0.297c0.145-0.024,0.288,0.072,0.329,0.217c0.154,0.559,0.155,1.584,0,2.151
	c-0.039,0.144-0.179,0.237-0.329,0.218c-0.148-0.02-0.26-0.147-0.26-0.297v-1.437c-0.001-0.008-0.001-0.017-0.002-0.025v8.545
	c0,0.153-0.004,0.301-0.007,0.442c-0.014,0.515-0.024,0.922,0.167,1.118c0.145,0.148,0.449,0.224,0.907,0.224
	c1.119,0,1.461-0.478,1.927-1.493c0.145-0.315,0.276-0.643,0.406-0.965c0.096-0.238,0.189-0.472,0.286-0.695
	c0.049-0.113,0.122-0.264,0.204-0.43c0.174-0.353,0.465-0.943,0.465-1.164c0-0.165,0.164-2.062,0.686-2.423
	c0.097-0.066,0.22-0.071,0.32-0.014c0.101,0.058,0.158,0.168,0.149,0.283c-0.014,0.187,0.227,0.673,0.35,0.753
	c0.148,0.075,0.504,0.072,0.825,0.051c0.128-0.009,0.248-0.017,0.354-0.017h2.869c0.111,0,0.281-0.015,0.477-0.032
	c0.287-0.024,0.624-0.053,0.923-0.053c0.338,0,0.573,0.035,0.74,0.111c0.188,0.085,0.281,0.26,0.351,0.388
	c0.024,0.045,0.061,0.113,0.08,0.13c0.121-0.002,0.244-0.033,0.362-0.063c0.146-0.037,0.296-0.075,0.447-0.08l2.512-0.075
	c0.002,0,0.004,0,0.005,0c0.149,0,0.262,0.02,0.372,0.042c0.106,0.021,0.219,0.044,0.288,0.011
	c-0.029,0.019-0.002-0.037,0.009-0.064c0.041-0.1,0.137-0.333,0.391-0.333c0.167,0,0.281,0.114,0.318,0.151
	c0.147,0.148,0.155,0.35,0.161,0.498c0.001,0.016,0.001,0.032,0.001,0.047c0.298,0.267,0.171,0.906-0.064,1.881
	c-0.045,0.185-0.101,0.415-0.104,0.475c0,0.392-0.162,0.792-0.319,1.178c-0.129,0.316-0.262,0.643-0.283,0.925
	c-0.063,0.865-0.091,1.572-0.091,2.292c0,0.386,0.023,0.79,0.047,1.185c0.022,0.392,0.045,0.777,0.045,1.13
	c0,0.768,0.121,0.837,0.146,0.843c0.774,0.197,0.874,0.33,0.874,1.102c0,1.393,0.191,2.6,0.394,3.877l0.111,0.708
	c0.02,0.126,0.058,0.271,0.096,0.419c0.068,0.266,0.14,0.542,0.14,0.783c0,0.167,0.057,0.309,0.123,0.474
	c0.072,0.182,0.154,0.388,0.154,0.638c0,0.61,0.307,1.67,0.569,2.176c0.18,0.346,0.349,0.401,0.802,0.401L24.821,35.469z
	 M29.122,15.977c-0.441,0-0.58-0.098-0.703-0.5l-0.054-0.167c-0.089-0.259-0.156-0.546-0.049-0.883
	c0.039-0.121,0.149-0.204,0.276-0.208c0.11,0.001,0.242,0.072,0.289,0.189c0.089,0.226,0.172,0.38,0.286,0.534
	c0.032,0.04,0.073,0.098,0.114,0.158c0.087,0.125,0.176,0.255,0.282,0.305c0.127,0.06,0.195,0.2,0.165,0.337
	c-0.031,0.137-0.152,0.234-0.293,0.234L29.122,15.977z M32.098,15.976l-0.274-0.001c-0.532,0-0.689-0.197-0.828-0.436
	c-0.041-0.071-0.08-0.138-0.15-0.208c-0.05-0.049-1.119-1.41-1.058-1.788c0.073-0.443,0.661-0.503,1.227-0.503
	c0.334,0,0.696,0.025,0.984,0.045c0.33,0.022,0.46,0.024,0.706-0.001c0.168-0.018,0.356-0.036,0.529-0.036
	c0.229,0,0.553,0.027,0.729,0.266c0.067,0.092,0.134,0.245,0.088,0.469c0.059,0.339-0.097,0.553-0.213,0.712
	c-0.036,0.049-0.074,0.101-0.105,0.161c-0.051,0.098-0.088,0.21-0.126,0.322c-0.058,0.17-0.117,0.345-0.214,0.494
	C33.06,15.976,32.457,15.976,32.098,15.976z M30.438,13.686c0.181,0.334,0.689,1.081,0.83,1.22c0.126,0.127,0.195,0.246,0.245,0.332
	c0.074,0.126,0.08,0.137,0.31,0.137l0.274,0.001c0.424,0,0.662-0.036,0.793-0.235c0.056-0.084,0.103-0.223,0.147-0.356
	c0.049-0.142,0.098-0.284,0.162-0.406c0.045-0.087,0.1-0.164,0.152-0.237c0.104-0.144,0.128-0.182,0.1-0.29
	c-0.014-0.053-0.012-0.109,0.004-0.162c0.034-0.007-0.019-0.041-0.223-0.041c-0.152,0-0.319,0.018-0.468,0.033
	c-0.285,0.029-0.43,0.029-0.809,0.002c-0.275-0.019-0.624-0.043-0.943-0.043C30.704,13.64,30.532,13.664,30.438,13.686z"/>
<rect id="sliceCopy_x5F_36_1_" x="60.273" fill="none" width="78.561" height="40"/>
<rect id="sliceCopy_x5F_35_1_" fill="none" width="60.272" height="40"/>
</svg>
