<?xml version="1.0" encoding="utf-8"?>
<!-- Generator: Adobe Illustrator 15.1.0, SVG Export Plug-In  -->
<!DOCTYPE svg PUBLIC "-//W3C//DTD SVG 1.1//EN" "http://www.w3.org/Graphics/SVG/1.1/DTD/svg11.dtd" [
	<!ENTITY ns_flows "http://ns.adobe.com/Flows/1.0/">
]>
<svg version="1.1"
	 xmlns="http://www.w3.org/2000/svg" xmlns:xlink="http://www.w3.org/1999/xlink" xmlns:a="http://ns.adobe.com/AdobeSVGViewerExtensions/3.0/"
	 x="0px" y="0px" width="125px" height="40px" viewBox="0.521 0 125 40" enable-background="new 0.521 0 125 40"
	 xml:space="preserve">
<defs>
</defs>
<path d="M91.616,35.3c-0.442,0-0.974-0.048-1.161-0.422c-0.27-0.537-0.224-1.982,0.189-2.671c0.091-0.152,0.191-0.254,0.29-0.322
	c-0.085-0.197-0.214-0.456-0.34-0.709c-0.43-0.864-0.743-1.534-0.777-2.009c-0.196,0.012-0.398,0.029-0.602,0.046
	c-0.642,0.053-1.318,0.107-1.898,0.025c-0.83-0.12-0.811-0.609-0.794-1.041c0.003-0.081,0.007-0.17,0.007-0.269
	c0-0.076-0.005-0.158-0.01-0.244c-0.021-0.4-0.05-0.949,0.35-1.25c0.156-0.118,0.394-0.158,0.645-0.2
	c0.047-0.008,0.106-0.018,0.159-0.028c-0.001-0.075-0.001-0.152,0.003-0.229c-0.388-0.022-0.664-0.094-0.859-0.29
	c-0.24-0.241-0.288-0.601-0.287-1.103c0.002-0.822,0.092-1.214,0.905-1.294c-0.077-0.535-0.044-1.132-0.011-1.712
	c0.009-0.17,0.019-0.337,0.024-0.499c-0.544-0.089-0.785-0.74-0.828-1.353c-0.008-0.104-0.006-0.208-0.004-0.308
	c0.002-0.081,0.005-0.198-0.007-0.249c-0.008,0-0.028-0.002-0.06-0.001l-27.07-0.042c-0.253,0-0.372,0.142-0.618,0.462
	c-0.066,0.086-0.136,0.176-0.212,0.266l-0.172,0.199c-0.333,0.385-0.748,0.864-0.954,1.28c-0.205,0.416-0.491,0.798-0.769,1.168
	c-0.114,0.153-0.228,0.304-0.332,0.454c-0.03,0.044-0.089,0.151-0.163,0.283c-0.526,0.94-0.751,1.252-1.042,1.252
	c-2.745,0-5.532,0.011-8.328,0.022c-2.814,0.011-5.639,0.022-8.439,0.022c-0.067,0-0.138-0.006-0.21-0.018
	c-0.072,0.188-0.186,0.365-0.29,0.528c-0.072,0.113-0.144,0.221-0.188,0.323c-0.166,0.374-0.316,0.698-0.493,1.077l-0.14,0.302
	c-0.316,0.677-0.391,0.835-0.318,1.482c0.021,0.18,0.058,0.382,0.097,0.595c0.107,0.579,0.229,1.234,0.077,1.76
	c-0.146,0.492-1.387,0.759-1.398,0.761c-0.13,0.02-0.3,0.063-0.486,0.11c-0.571,0.143-1.263,0.288-1.66,0.13
	c-0.229-0.091-0.51-0.176-0.813-0.268c-1.02-0.31-2.288-0.695-2.681-1.608c-0.202-0.465,0.014-0.903,0.187-1.254
	c0.101-0.204,0.195-0.397,0.195-0.549l-0.001-0.154c-0.002-0.44-0.005-0.939,0.152-1.34c0.085-0.218,0.249-0.415,0.408-0.605
	c0.101-0.121,0.202-0.24,0.271-0.359c0.027-0.048,0.063-0.119,0.104-0.199c0.233-0.462,0.449-0.856,0.724-0.996
	c0.075-0.072,0.375-0.59,0.411-0.723c-0.005-0.27,0.182-0.511,0.332-0.705c0.089-0.114,0.18-0.231,0.198-0.322
	c0.038-0.196-0.212-1.025-0.372-1.266c-0.112,0.001-0.227,0.005-0.342,0.008c-0.494,0.013-0.967,0.01-1.296-0.059
	c-0.37-0.078-0.441-0.086-0.526-0.086l-0.277,0.004c-0.355,0-0.387,0.018-0.557,0.18c-0.237,0.227-0.392,0.624-0.392,1.011
	c0,0.414-0.678,1.253-1.231,1.253c-0.188,0-0.351-0.089-0.457-0.247c-0.117-0.033-0.432-0.07-0.887-0.07
	c-0.407,0-0.634,0.03-0.679,0.044c-0.167,0.056-0.224,0.121-0.312,0.219c-0.091,0.103-0.204,0.23-0.424,0.322l-10.603,4.453
	c-0.272,0.114-0.451,0.128-0.697,0.105c-0.063-0.006-0.136-0.014-0.23-0.015l-0.208-0.002c-0.157,0-0.206,0.009-0.221,0.014
	c0.03,0.001,0.03,0.205,0.03,0.303c0,0.099-0.003,0.199-0.006,0.3c-0.006,0.185-0.013,0.371,0.005,0.551
	c0.018,0.187,0.08,0.318,0.151,0.469c0.095,0.199,0.201,0.423,0.201,0.765c0,0.829-1.159,1.124-2.245,1.124
	c-0.813,0-1.813-0.164-2.178-0.624c-0.042-0.053-0.075-0.11-0.1-0.168l-0.966,0.017c-0.92,0.014-1.84,0.028-2.76,0.066
	c-1.151,0.045-1.587-0.345-1.588-1.42V18.735c0-0.104-0.013-0.246-0.025-0.406c-0.06-0.735-0.084-1.323,0.188-1.637
	c0.215-0.248,0.647-0.281,1.043-0.281l4.176,0.001c0.035,0,0.104-0.033,0.165-0.062c0.098-0.046,0.219-0.104,0.361-0.114
	c0.437-0.03,0.941,0.031,1.425,0.089c0.071,0.009,0.143,0.017,0.214,0.025c-0.038-0.049-0.073-0.103-0.104-0.163
	c-0.139-0.282-0.06-0.584-0.002-0.804c0.016-0.061,0.032-0.117,0.039-0.167l0.025-0.213c0.049-0.447,0.116-1.06,0.719-1.336
	c0.237-0.109,0.558-0.159,1.009-0.159c0.319,0,0.663,0.026,0.981,0.05c0.258,0.02,0.497,0.039,0.688,0.039h10.486
	c0.346,0,1.397,0,1.55,1.14c0.03,0.223-0.015,0.523-0.063,0.842c-0.032,0.217-0.066,0.436-0.066,0.605l0.001,0.121
	c0.003,0.244,0.006,0.497-0.062,0.684c-0.043,0.117-0.122,0.216-0.199,0.312c-0.028,0.035-0.068,0.084-0.097,0.125
	c0.075,0.022,0.229,0.049,0.524,0.049c0.464,0,1.052-0.065,1.524-0.117c0.334-0.037,0.613-0.067,0.764-0.067
	c0.683,0,1.359-0.124,2.068-0.378c0.857-0.309,1.708-0.675,2.354-0.959c0.833-0.368,1.703-0.775,2.42-1.251
	c0.194-0.13,0.402-0.279,0.612-0.43c0.501-0.36,1.02-0.733,1.46-0.916c0.167-0.069,0.333-0.127,0.499-0.175
	c-0.869-0.007-1.82-0.028-2.646-0.085c-0.209-0.015-0.458,0.005-0.72,0.025c-0.232,0.017-0.473,0.035-0.701,0.035
	c-0.313,0-1.143,0-1.391-0.698c-0.2-0.566-0.135-1.603-0.087-2.359c0.011-0.165,0.021-0.314,0.025-0.437
	c0.038-0.904,0.793-1.157,1.04-1.24c0.294-0.097,0.852-0.07,1.485-0.02c0.323,0.025,0.654,0.052,0.947,0.052
	c0.575,0,0.652-0.11,0.653-0.111c0.042-0.093-0.015-0.468-0.048-0.691c-0.08-0.526-0.162-1.07,0.116-1.394
	c0.088-0.103,0.252-0.225,0.531-0.225c0.142,0,0.35-0.019,0.59-0.04c0.341-0.03,0.764-0.067,1.154-0.067
	c0.483,0,1.157,0.048,1.426,0.464c0.173,0.269,0.139,0.699,0.109,1.079c-0.009,0.104-0.017,0.198-0.017,0.271
	c0,0.088-0.008,0.187-0.018,0.287c-0.011,0.119-0.028,0.318-0.002,0.374l6.899-0.037c-0.003-0.038-0.005-0.078-0.005-0.118V7.058
	c0-0.076-0.004-0.169-0.008-0.273c-0.028-0.72-0.074-1.924,0.815-1.982c0.122,0,0.298-0.016,0.514-0.034
	c0.375-0.031,0.842-0.069,1.29-0.069c0.868,0,1.335,0.147,1.515,0.479c0.13,0.239,0.065,0.559,0.003,0.868
	c-0.026,0.13-0.055,0.256-0.055,0.353c0,0.208,0.013,0.418,0.025,0.633c0.026,0.43,0.053,0.872-0.009,1.332h8.408
	c0.666,0,1.496-0.218,2.223-0.584c0.113-0.057,0.235-0.114,0.361-0.173c0.398-0.187,0.851-0.399,1.1-0.649
	c0.253-0.254,0.688-0.372,1.37-0.372c0.381,0,0.772,0.035,1.119,0.066c0.232,0.021,0.437,0.04,0.584,0.042c0,0,0,0,0.001,0
	c0.332,0,0.683-0.03,1.047-0.06c0.885-0.074,1.834-0.109,2.424,0.073c0.34,0.104,0.535,0.234,0.633,0.419
	c0.117,0.222,0.049,0.439-0.005,0.614c-0.033,0.105-0.064,0.205-0.064,0.309l-0.002,4.698c-0.001,0.021-0.001,0.042-0.002,0.06
	c0.045,0.001,0.096,0.001,0.141,0.001l49.394,0c0.329,0,0.59,0,0.765,0.18c0.139,0.143,0.152,0.329,0.148,0.476
	c-0.007,0.315-0.004,1.074-0.002,1.655l0.002,0.577c0,0.097,0,0.325-0.185,0.472c-0.139,0.11-0.317,0.119-0.474,0.119
	c-0.079,0-0.173-0.003-0.286-0.007c-0.159-0.006-0.357-0.013-0.604-0.013l-11.495-0.036l-16.526-0.051
	c-0.016,0.423,0.006,0.871,0.027,1.307c0.016,0.346,0.032,0.691,0.032,1.028c0,0.564-0.034,1.077-0.067,1.573
	c-0.032,0.475-0.063,0.942-0.063,1.442c0,0.209-0.063,0.443-0.123,0.67c-0.039,0.146-0.099,0.367-0.088,0.435
	c0.07,0.208,0.029,0.523-0.014,0.857c-0.02,0.148-0.039,0.29-0.039,0.392l-0.002,1.829c-0.007,0.388-0.004,0.599,0.128,0.796
	c0.136,0.205,0.269,0.431,0.269,0.738c0,0.18-0.038,0.54-0.086,0.812c0.515,0.337,0.83,1.271,1.091,2.046
	c0.077,0.229,0.144,0.429,0.202,0.563c0.051,0.114,0.099,0.231,0.146,0.348c0.136,0.331,0.265,0.643,0.434,0.867
	c0.054,0.07,0.113,0.137,0.173,0.203c0.237,0.265,0.554,0.618,0.384,1.139c0.04,0.063,0.069,0.133,0.086,0.211
	c0.107,0.511-0.345,1.207-0.472,1.365c-0.321,0.403-0.553,0.42-1.003,0.42l0,0c-0.139,0-0.271,0.013-0.43,0.027
	C92.269,35.27,91.931,35.3,91.616,35.3z M90.991,34.608c0.003,0,0.114,0.092,0.625,0.092c0.296,0,0.613-0.029,0.866-0.052
	c0.188-0.017,0.365-0.028,0.437-0.029c0.411,0,0.426-0.002,0.581-0.196c0.208-0.259,0.407-0.758,0.351-0.877
	c-0.072-0.037-0.12-0.096-0.145-0.172c-0.023-0.077-0.01-0.155,0.028-0.226c0.138-0.256,0.054-0.371-0.211-0.666
	c-0.069-0.078-0.14-0.157-0.203-0.24c-0.217-0.287-0.366-0.65-0.511-1.002c-0.046-0.112-0.093-0.225-0.141-0.334
	c-0.064-0.146-0.138-0.363-0.222-0.612c-0.173-0.511-0.576-1.708-0.917-1.765c-0.085-0.014-0.16-0.064-0.205-0.138
	c-0.046-0.073-0.058-0.163-0.032-0.246c0.049-0.158,0.118-0.689,0.118-0.901c0-0.129-0.055-0.233-0.169-0.405
	c-0.241-0.361-0.234-0.739-0.229-1.138l0.003-1.819c0-0.122,0.021-0.291,0.043-0.469c0.023-0.179,0.066-0.513,0.037-0.602
	c-0.068-0.21,0-0.469,0.08-0.768c0.049-0.181,0.104-0.386,0.104-0.516c0-0.514,0.032-0.995,0.064-1.482
	c0.032-0.486,0.066-0.988,0.066-1.533c0-0.328-0.017-0.664-0.032-1c-0.026-0.552-0.054-1.123-0.01-1.661
	c0.013-0.156,0.143-0.275,0.299-0.275h0.001l27.839,0.089l0.465-0.001c0.255,0,0.46,0.007,0.625,0.014
	c0.136,0.005,0.252,0.01,0.319,0.006l0.002-0.565c-0.002-0.586-0.005-1.353,0.002-1.672c0-0.012,0-0.022,0-0.031
	c-0.084-0.01-0.233-0.01-0.313-0.01H71.23c-0.31,0-0.487,0-0.628-0.144c-0.135-0.138-0.132-0.31-0.127-0.528l0.002-4.687
	c0-0.195,0.05-0.357,0.091-0.487c0.019-0.059,0.043-0.138,0.042-0.167l0,0c-0.008,0-0.066-0.05-0.273-0.113
	c-0.498-0.154-1.374-0.118-2.197-0.048c-0.383,0.032-0.75,0.062-1.072,0.062c-0.19-0.002-0.412-0.021-0.663-0.044
	c-0.326-0.029-0.707-0.064-1.065-0.064c-0.653,0-0.872,0.122-0.944,0.195c-0.324,0.325-0.827,0.561-1.271,0.769
	c-0.121,0.057-0.238,0.112-0.347,0.167c-0.806,0.405-1.737,0.647-2.492,0.647h-8.77c-0.092,0-0.179-0.042-0.236-0.114
	c-0.057-0.073-0.077-0.167-0.055-0.256c0.123-0.508,0.093-1.025,0.063-1.525c-0.014-0.227-0.026-0.45-0.026-0.669
	c0-0.129,0.031-0.298,0.066-0.472c0.028-0.138,0.08-0.395,0.055-0.468l0,0c-0.001,0-0.126-0.16-0.984-0.16
	c-0.424,0-0.877,0.038-1.241,0.067c-0.237,0.02-0.43,0.035-0.543,0.035c-0.287,0.02-0.251,0.959-0.235,1.36
	c0.004,0.112,0.008,0.213,0.008,0.296v1.188c0,0.039,0.004,0.077,0.007,0.113c0.013,0.133,0.029,0.316-0.104,0.463
	c-0.086,0.094-0.207,0.142-0.36,0.142h-7.072c-0.215,0-0.346-0.093-0.417-0.171c-0.196-0.215-0.168-0.536-0.143-0.819
	c0.008-0.081,0.016-0.161,0.016-0.233c0-0.084,0.008-0.195,0.018-0.317c0.015-0.182,0.048-0.608-0.015-0.708
	c-0.021-0.031-0.161-0.189-0.922-0.189c-0.369,0-0.766,0.035-1.102,0.065c-0.262,0.023-0.488,0.042-0.643,0.042
	c-0.015,0-0.063,0.001-0.077,0.017c-0.099,0.115-0.02,0.634,0.022,0.913c0.066,0.435,0.123,0.811-0.018,1.069
	c-0.204,0.375-0.738,0.424-1.181,0.424c-0.308,0-0.655-0.027-0.995-0.054c-0.306-0.024-0.604-0.048-0.853-0.048
	c-0.229,0-0.341,0.021-0.395,0.04c-0.434,0.145-0.616,0.347-0.631,0.696c-0.005,0.126-0.015,0.279-0.025,0.449
	c-0.043,0.665-0.106,1.67,0.054,2.121c0.049,0.139,0.188,0.298,0.824,0.298c0.214,0,0.439-0.017,0.657-0.033
	c0.295-0.022,0.573-0.042,0.806-0.025c1.118,0.078,2.481,0.088,3.543,0.088h2.145c0.118,0,0.282,0.106,0.33,0.214
	c0.081,0.183,0.013,0.428-0.098,0.551c-0.133,0.14-0.342,0.166-0.658,0.166l-0.257-0.003l-0.223,0.009
	c-0.897,0.036-1.673,0.066-2.446,0.388c-0.377,0.157-0.866,0.509-1.34,0.85c-0.217,0.155-0.43,0.309-0.631,0.442
	c-0.755,0.501-1.652,0.921-2.51,1.3c-0.654,0.289-1.518,0.66-2.393,0.975c-0.775,0.278-1.519,0.413-2.271,0.413
	c-0.137,0-0.392,0.03-0.698,0.063c-0.487,0.054-1.094,0.121-1.59,0.121c-0.589,0-0.906-0.092-1.063-0.309
	c-0.241-0.336,0.024-0.666,0.167-0.842c0.037-0.045,0.092-0.114,0.104-0.141c0.029-0.083,0.026-0.317,0.025-0.473l-0.001-0.127
	c0-0.205,0.037-0.453,0.073-0.694c0.037-0.25,0.079-0.534,0.061-0.673c-0.053-0.393-0.226-0.62-0.955-0.62H14.666
	c-0.203,0-0.459-0.019-0.733-0.04c-0.65-0.049-1.409-0.073-1.694,0.057c-0.279,0.127-0.323,0.408-0.372,0.855l-0.028,0.233
	c-0.01,0.07-0.03,0.15-0.053,0.235c-0.035,0.136-0.08,0.305-0.042,0.383c0.038,0.073,0.111,0.145,0.188,0.221
	c0.128,0.125,0.272,0.267,0.337,0.487c0.027,0.093,0.008,0.193-0.052,0.269c-0.059,0.076-0.124,0.112-0.249,0.115
	c-0.295-0.012-0.617-0.051-0.941-0.09c-0.457-0.055-0.922-0.113-1.313-0.086c-0.028,0.002-0.093,0.032-0.145,0.057
	c-0.111,0.053-0.251,0.119-0.422,0.119l-4.176-0.001c-0.473,0-0.578,0.066-0.595,0.079c-0.124,0.144-0.064,0.877-0.039,1.19
	c0.015,0.18,0.027,0.339,0.027,0.455v11.017c0,0.716,0.179,0.825,0.793,0.825l0.171-0.004c0.925-0.038,1.85-0.052,2.775-0.066
	l1.232-0.021c0.086,0.021,0.181,0.039,0.239,0.111c0.058,0.072,0.08,0.167,0.059,0.257c0.169,0.227,0.85,0.429,1.722,0.429
	c1.017,0,1.646-0.272,1.646-0.524c0-0.206-0.063-0.339-0.144-0.507c-0.084-0.177-0.179-0.377-0.207-0.669
	c-0.02-0.205-0.014-0.417-0.007-0.626c0.003-0.095,0.006-0.189,0.006-0.282c0-0.624,0.078-0.917,0.79-0.917l0.199,0.002
	c0.133,0.002,0.221,0.01,0.297,0.018c0.106,0.01,0.122,0.061,0.407-0.061l10.603-4.454c0.095-0.039,0.138-0.087,0.208-0.167
	c0.105-0.119,0.251-0.282,0.569-0.389c0.205-0.068,0.677-0.076,0.869-0.076c1.217,0,1.317,0.204,1.378,0.325
	c0.137-0.01,0.569-0.493,0.598-0.671c0-0.422,0.151-1.029,0.577-1.435c0.313-0.298,0.507-0.346,0.971-0.346l0.277-0.005
	c0.149,0,0.265,0.018,0.65,0.099c0.274,0.057,0.709,0.06,1.154,0.046c0.286-0.008,0.577-0.089,0.793,0.172
	c0.271,0.331,0.609,1.392,0.526,1.805c-0.047,0.229-0.188,0.41-0.312,0.57c-0.109,0.14-0.212,0.272-0.212,0.382
	c0,0.242-0.48,1.081-0.731,1.211c-0.128,0.07-0.371,0.551-0.463,0.732c-0.046,0.091-0.086,0.17-0.118,0.227
	c-0.086,0.148-0.208,0.297-0.331,0.445c-0.128,0.154-0.261,0.313-0.311,0.439c-0.115,0.295-0.113,0.732-0.11,1.118v0.158
	c0,0.292-0.13,0.557-0.257,0.814c-0.165,0.336-0.26,0.555-0.174,0.751c0.282,0.658,1.403,0.999,2.305,1.272
	c0.32,0.097,0.618,0.188,0.859,0.284c0.038,0.015,0.111,0.034,0.238,0.034c0.303,0,0.702-0.1,1.054-0.188
	c0.208-0.052,0.396-0.099,0.543-0.121c0.247-0.036,0.836-0.267,0.935-0.381c0.089-0.341-0.019-0.923-0.113-1.437
	c-0.042-0.228-0.081-0.445-0.103-0.637c-0.091-0.814,0.042-1.101,0.365-1.792l0.145-0.312c0.175-0.376,0.324-0.697,0.488-1.067
	c0.057-0.126,0.142-0.263,0.231-0.403c0.127-0.197,0.27-0.42,0.271-0.576c0-0.098,0.048-0.189,0.128-0.245
	c0.081-0.055,0.183-0.069,0.274-0.036c0.125,0.045,0.239,0.069,0.333,0.069c2.8,0,5.623-0.011,8.438-0.022
	c2.771-0.011,5.533-0.021,8.255-0.021c0.151-0.156,0.469-0.723,0.594-0.946c0.087-0.155,0.156-0.279,0.193-0.332
	c0.109-0.156,0.227-0.313,0.345-0.472c0.261-0.348,0.53-0.708,0.712-1.075c0.239-0.484,0.664-0.974,1.038-1.407l0.168-0.195
	c0.07-0.082,0.133-0.164,0.193-0.242c0.263-0.342,0.534-0.696,1.089-0.696l27.076,0.042c0.211,0,0.377,0.06,0.492,0.179
	c0.186,0.189,0.179,0.453,0.173,0.686c-0.002,0.08-0.004,0.165,0.002,0.25c0.028,0.396,0.17,0.806,0.359,0.806
	c0.025,0,0.056-0.005,0.089-0.016c0.092-0.026,0.19-0.012,0.267,0.045c0.077,0.057,0.122,0.146,0.122,0.242
	c0,0.265-0.016,0.554-0.032,0.851c-0.037,0.668-0.075,1.36,0.065,1.886c0.023,0.09,0.005,0.187-0.052,0.26
	c-0.057,0.074-0.146,0.117-0.238,0.117c-0.667,0-0.667,0-0.669,0.712c0,0.262,0.012,0.577,0.112,0.677
	c0.106,0.107,0.453,0.122,0.777,0.122c0.093,0,0.18,0.042,0.236,0.115c0.057,0.073,0.077,0.168,0.055,0.258
	c-0.04,0.158-0.038,0.323-0.037,0.513l0.001,0.118c0,0.326-0.335,0.382-0.66,0.437c-0.115,0.02-0.33,0.056-0.386,0.09
	c-0.142,0.107-0.123,0.456-0.108,0.737c0.005,0.097,0.01,0.19,0.01,0.275c0,0.106-0.004,0.204-0.007,0.292
	c-0.016,0.381-0.016,0.381,0.279,0.424c0.534,0.075,1.157,0.021,1.764-0.03c0.344-0.028,0.683-0.057,1.001-0.063
	c0.003,0,0.005,0,0.007,0c0.11,0,0.213,0.061,0.265,0.159c0.054,0.1,0.046,0.222-0.02,0.314c-0.106,0.24,0.447,1.351,0.713,1.884
	c0.234,0.47,0.419,0.841,0.477,1.084c0.021,0.088,0.001,0.181-0.054,0.252c-0.056,0.072-0.14,0.115-0.229,0.117
	c-0.068,0.002-0.139,0.108-0.166,0.154C90.854,33.023,90.823,34.273,90.991,34.608C90.991,34.608,90.991,34.608,90.991,34.608z
	 M15.795,25.028c-0.471,0-1.075-0.052-1.276-0.299c-0.268-0.333-0.04-1.445,0.064-1.619c0.013-0.022,0.029-0.042,0.047-0.06
	c0.184-0.179,0.505-0.259,1.042-0.259c0.319,0,0.673,0.028,0.974,0.053c0.361,0.029,0.573,0.034,0.782,0.015
	c0.102-0.009,0.2-0.018,0.288-0.018s0.356,0,0.524,0.203c0.117,0.142,0.151,0.333,0.104,0.584c-0.102,0.545-1.286,1.036-1.613,1.036
	c-0.067,0-0.108,0.028-0.216,0.113c-0.101,0.081-0.227,0.181-0.412,0.229C16.076,25.012,16.012,25.028,15.795,25.028z
	 M14.998,24.341c0.128,0.044,0.452,0.087,0.797,0.087c0.077,0,0.139-0.001,0.17-0.007c0.047-0.012,0.098-0.052,0.177-0.114
	c0.13-0.103,0.307-0.243,0.589-0.243c0.21-0.01,0.946-0.392,1.028-0.564c0.004-0.024,0.006-0.043,0.006-0.059
	c-0.007,0.001-0.027,0-0.049,0c-0.071,0-0.15,0.008-0.233,0.015c-0.24,0.022-0.475,0.02-0.886-0.015
	c-0.286-0.023-0.621-0.051-0.925-0.051c-0.371,0-0.528,0.044-0.589,0.07C15.031,23.641,14.97,24.145,14.998,24.341z M39.068,22.734
	c-0.557,0-1.034-0.43-1.088-0.979c-0.051-0.542,0.339-0.848,0.624-1.071l0.139-0.111c0.09-0.076,0.215-0.092,0.32-0.044
	c0.106,0.049,0.174,0.155,0.174,0.272c0,0.114-0.006,0.232-0.013,0.351c-0.027,0.496-0.03,0.809,0.26,0.973
	c0.101,0.058,0.159,0.168,0.15,0.284c-0.009,0.116-0.084,0.216-0.192,0.257C39.322,22.711,39.196,22.734,39.068,22.734z
	 M40.963,22.685c-0.079,0-0.155-0.031-0.212-0.087c-0.062-0.062-0.094-0.147-0.087-0.234c0.003-0.043,0.003-0.043-0.065-0.109
	c-0.092-0.088-0.244-0.235-0.244-0.509v-0.679c-0.037-0.114-0.001-0.294,0.109-0.436c0.202-0.257,0.626-0.372,1.376-0.372
	c0.349,0,0.713,0.025,1.004,0.044c0.352,0.024,0.556-0.011,0.673,0.136c0.058,0.071,0.089,0.164,0.069,0.252
	c-0.258,1.163-1.206,1.889-2.601,1.993C40.978,22.685,40.971,22.685,40.963,22.685z M41.84,20.859c-0.779,0-0.899,0.136-0.904,0.142
	l0.019,0.745c0.006,0.024,0.039,0.056,0.061,0.077c0.052,0.05,0.13,0.125,0.185,0.236c0.653-0.094,1.372-0.382,1.692-1.15
	c-0.029-0.002-0.059-0.004-0.089-0.006C42.523,20.883,42.175,20.859,41.84,20.859z"/>
<rect id="sliceCopy_x5F_53_1_" x="125.222" fill="none" width="112.593" height="40"/>
<rect id="sliceCopy_x5F_52_1_" fill="none" width="125.222" height="40"/>
</svg>
