<?xml version="1.0" encoding="utf-8"?>
<!-- Generator: Adobe Illustrator 15.1.0, SVG Export Plug-In  -->
<!DOCTYPE svg PUBLIC "-//W3C//DTD SVG 1.1//EN" "http://www.w3.org/Graphics/SVG/1.1/DTD/svg11.dtd" [
	<!ENTITY ns_flows "http://ns.adobe.com/Flows/1.0/">
]>
<svg version="1.1"
	 xmlns="http://www.w3.org/2000/svg" xmlns:xlink="http://www.w3.org/1999/xlink" xmlns:a="http://ns.adobe.com/AdobeSVGViewerExtensions/3.0/"
	 x="0px" y="0px" width="106px" height="40px" viewBox="0.931 0 106 40" enable-background="new 0.931 0 106 40"
	 xml:space="preserve">
<defs>
</defs>
<path d="M56.866,36.3c-0.425,0-0.633-0.197-0.732-0.363c-0.101-0.167-0.136-0.465-0.182-0.935c-0.017-0.17-0.029-0.323-0.049-0.403
	c-0.166-0.673-0.352-1.336-0.538-2.005c-0.73-2.649-1.116-5.021-1.179-7.253c0-0.1,0.02-0.257,0.045-0.436
	c0.024-0.18,0.073-0.531,0.06-0.688c-0.071-0.021-0.184-0.044-0.245-0.056c-0.078-0.016-0.146-0.03-0.188-0.043
	c-0.091-0.029-0.152-0.081-0.194-0.146c-0.158,0.136-0.352,0.242-0.605,0.242h-4.143c-0.106,0-0.24-0.012-0.385-0.025
	c-0.302-0.027-0.651-0.024-0.724,0.004c-0.115,0.046-0.204,0.134-0.29,0.218c-0.121,0.119-0.258,0.254-0.468,0.254
	c-0.286,0-0.479-0.257-0.646-0.535c-0.036-0.061-0.061-0.072-0.061-0.072c-0.02,0-0.224,0.022-0.709,0.768
	c-0.083,0.131-0.161,0.237-0.23,0.333c-0.247,0.338-0.313,0.429-0.139,0.849c0.021,0.053,0.05,0.103,0.075,0.149
	c0.08,0.146,0.179,0.328,0.114,0.535c-0.042,0.132-0.14,0.237-0.291,0.313c-0.11,0.055-0.233,0.105-0.36,0.157
	c-0.273,0.112-0.583,0.239-0.723,0.416c-0.471,0.6-0.824,1.392-1.165,2.157c-0.102,0.227-0.2,0.45-0.301,0.663
	c-0.057,0.12-0.11,0.223-0.159,0.316c-0.208,0.398-0.251,0.48-0.053,0.852c0.192,0.357,0.347,0.729,0.18,1.021
	c-0.168,0.291-0.539,0.327-0.905,0.339l-0.353,0.016C40.871,32.966,40.17,33,39.398,33c-2.568,0-4.032-0.373-4.475-1.14
	c-0.223-0.386-0.187-0.839,0.107-1.346l5.959-10.276c0.32-0.552,0.142-1.807-0.438-2.162c-0.164-0.102-0.457-0.086-0.751-0.054
	c-0.15,0.017-0.3,0.032-0.444,0.032c-0.438,0-0.764-0.154-0.995-0.471c-0.429-0.583-0.343-2.08-0.241-2.825
	c-0.129-0.03-0.246-0.078-0.36-0.124l-0.113-0.045c-0.126-0.051-0.229-0.165-0.296-0.288h-7.058c-0.037,0.031-0.083,0.212-0.11,0.32
	c-0.048,0.187-0.103,0.399-0.224,0.573c-0.344,0.496-0.796,0.856-1.234,1.206c-0.489,0.39-0.952,0.759-1.242,1.292
	c-0.05,0.091-0.093,0.192-0.137,0.292c-0.167,0.383-0.396,0.908-1,0.908c-0.004,0-0.007,0-0.011,0c-0.684,0-0.685,0.003-0.988,0.536
	l-0.147,0.264c-0.244,0.453-0.373,0.567-0.988,0.567h-2.164c-0.229,0-0.357-0.094-0.425-0.173c-0.152-0.176-0.129-0.398-0.104-0.57
	c-0.071-0.005-0.151-0.013-0.237-0.021c-0.223-0.022-0.486-0.048-0.712-0.048c-0.233,0-0.298,0.03-0.301,0.032l-4.125,3.109
	c-0.687,0.519-1.17,0.384-1.373-0.231l-5.7,3.67c-0.151,0.098-0.328,0.194-0.512,0.294c-0.51,0.277-1.088,0.591-1.197,1.028
	c-0.168,0.67-0.697,1.07-1.416,1.07c-0.526,0-1.102-0.224-1.502-0.583C3.733,27.198,3.736,26.55,3.74,25.8l0.001-3.818v-8.866
	c0-0.152-0.01-0.322-0.019-0.5c-0.031-0.569-0.065-1.215,0.149-1.721C4.365,9.749,5.55,9.749,6.414,9.749h22.979
	c0.071,0,0.144-0.004,0.214-0.008c0.078-0.004,0.155-0.008,0.229-0.008c0.188,0,0.755,0,0.933,0.692
	c0.012,0.05,0.021,0.086,0.029,0.111l0.054-0.001c0.06-0.003,0.128-0.006,0.21-0.006h6.127c0.018,0,0.033,0,0.048-0.001
	c0.05-0.162,0.18-0.246,0.294-0.29c0.614-0.236,1.076-0.246,1.645-0.246c-0.003-0.07-0.012-0.158-0.018-0.22
	c-0.031-0.308-0.063-0.627,0.142-0.831c0.402-0.402,1.117-0.463,1.64-0.507c0.445-0.039,0.764-0.025,1.124-0.015
	c0.171,0.005,0.341,0.01,0.509,0.01c0.07,0,0.183,0.009,0.315,0.021c0.169,0.015,0.376,0.034,0.565,0.034
	c0.257,0,0.325-0.037,0.327-0.038c0.054-0.088,0.173-0.229,0.303-0.381c0.229-0.269,0.545-0.638,0.59-0.86
	c0.032-0.159-0.121-0.284-0.454-0.514c-0.271-0.188-0.581-0.401-0.708-0.734c-0.193-0.506-0.128-1.052,0.179-1.498
	c0.448-0.652,1.339-0.934,2.074-0.635c1.063,0.437,1.063,1.447,1.063,2.185v1.585c0.048-0.221,0.253-0.438,0.874-0.438
	c0.191,0,0.398,0.018,0.575,0.033c0.188,0.016,0.315,0.02,0.404,0.012c0.044-0.004,0.082-0.007,0.115-0.007
	c0.206,0,0.426,0.125,0.426,0.475l-0.002,0.565h13.384c0.592,0,0.872,0.418,1.097,0.755c0.053-0.043,0.132-0.12,0.176-0.163
	l0.078-0.074c0.028-0.027,0.063-0.047,0.1-0.061c0.187-0.068,0.484-0.06,0.77-0.034c0.163,0.014,0.284,0.012,0.434,0.028
	c0.04,0.004,0.082,0.008,0.121,0.01c0.099-0.331,0.346-0.511,0.704-0.511h19.445c0.189,0,0.401-0.014,0.623-0.029
	c0.258-0.017,0.529-0.035,0.797-0.035c0.479,0,1.124,0.051,1.596,0.434c0.645-0.882,1.209-1.629,1.762-2.333
	c0.041-0.052,0.085-0.116,0.134-0.186c0.224-0.322,0.502-0.722,0.892-0.799c0.549-0.11,1.117-0.224,1.762-0.224
	c0.1,0,0.182-0.006,0.25-0.01c0.06-0.004,0.11-0.007,0.153-0.007c0.506,0,0.506,0.457,0.506,0.676v5.611
	c0.157,0.009,0.524-0.002,0.738-0.012c0.253-0.013,0.253,0.008,0.428-0.146c0.145-0.127,0.342-0.3,0.661-0.3h3.908
	c0.16,0,0.332-0.007,0.509-0.014c0.196-0.008,0.399-0.016,0.6-0.016c0.573,0,2.096,0,2.096,1.677c0,1.737-1.249,1.737-2.253,1.737
	l-5.033-0.002c-0.048,0-0.095-0.011-0.137-0.033c-0.064-0.033-0.131-0.09-0.242-0.187c-0.029-0.026-0.058-0.052-0.083-0.073h-0.823
	c-0.447,0-0.489,0.058-0.758,0.433c-0.055,0.075-0.115,0.159-0.186,0.251c-0.171,0.224-0.376,0.271-0.519,0.271
	c-0.337,0-0.644-0.262-0.867-0.453c-0.06-0.05-0.141-0.12-0.169-0.135c-0.172-0.068-0.656-0.046-1.055-0.01
	c-0.198,0.019-0.382,0.035-0.527,0.035L90.119,14.3c-0.235-0.008-0.687-0.016-0.86-0.007c-0.038,0.897-0.325,1.253-1.238,1.631
	c-0.244,0.1-0.505,0.112-0.68,0.112c-0.114,0-0.23-0.006-0.344-0.012c-0.1-0.005-0.197-0.01-0.29-0.01l-21.906,0.007
	c-0.581,0-0.998-0.105-1.343-0.59l-0.185,0.301c-0.072,0.119-0.231,0.209-0.382,0.263v5.132c0,0.055,0.066,0.141,0.125,0.216
	c0.112,0.146,0.376,0.486,0.042,0.823c-0.373,0.372-0.345,0.72-0.297,1.297l0.016,0.202c0.03,0.392,0.044,0.795,0.058,1.202
	c0.023,0.68,0.047,1.384,0.15,2.03c0.238,1.496,0.745,3.033,1.235,4.521c0.178,0.538,0.353,1.07,0.514,1.593
	c0.074,0.021,0.213,0.106,0.24,0.288c0.028,0.189-0.087,0.352-0.204,0.485c-0.083,0.1-0.214,0.127-0.319,0.149l-5.85,1.849
	c-0.074,0.024-0.18,0.068-0.305,0.12C57.888,36.069,57.327,36.3,56.866,36.3z M54.184,23.578c0.285,0.058,0.481,0.108,0.592,0.253
	c0.166,0.218,0.13,0.583,0.05,1.157c-0.02,0.145-0.039,0.271-0.039,0.345c0.062,2.174,0.44,4.5,1.157,7.101
	c0.188,0.674,0.374,1.342,0.543,2.023c0.023,0.099,0.043,0.283,0.063,0.487c0.021,0.209,0.058,0.598,0.102,0.689
	c0.007,0.012,0.04,0.066,0.215,0.066c0.343,0,0.859-0.213,1.201-0.354c0.144-0.059,0.267-0.109,0.353-0.137l5.838-1.847
	c-0.039-0.046-0.074-0.103-0.097-0.173c-0.16-0.522-0.334-1.05-0.51-1.583c-0.498-1.51-1.013-3.071-1.258-4.614
	c-0.109-0.683-0.135-1.406-0.158-2.104c-0.014-0.398-0.027-0.793-0.056-1.178l-0.016-0.197c-0.05-0.604-0.097-1.176,0.432-1.731
	c-0.017-0.023-0.037-0.05-0.054-0.07c-0.105-0.136-0.25-0.323-0.25-0.583v-5.405c0-0.196,0.212-0.34,0.389-0.287
	c0.04-0.016,0.095-0.041,0.115-0.058l0.419-0.698c0.059-0.096,0.167-0.15,0.275-0.144c0.111,0.007,0.21,0.076,0.255,0.178
	c0.299,0.677,0.554,0.707,1.056,0.707l0.568-0.006h21.338c0.103,0,0.21,0.005,0.32,0.011c0.299,0.015,0.596,0.014,0.765-0.056
	c0.757-0.313,0.871-0.484,0.871-1.307c0-0.376,0.442-0.376,0.87-0.376c0.219,0,0.452,0.008,0.606,0.014l0.147,0.005
	c0.13,0,0.295-0.016,0.473-0.032c0.502-0.047,1.041-0.067,1.342,0.054c0.103,0.041,0.201,0.125,0.326,0.232
	c0.126,0.108,0.361,0.309,0.478,0.309c0.108-0.121,0.165-0.201,0.217-0.272c0.322-0.448,0.523-0.682,1.245-0.682h0.914
	c0.135,0,0.22,0.074,0.388,0.221c0.028,0.025,0.057,0.05,0.082,0.072l4.935,0.002c1.225,0,1.653-0.093,1.653-1.138
	c0-0.795-0.392-1.077-1.496-1.077c-0.192,0-0.387,0.008-0.575,0.015c-0.186,0.008-0.365,0.015-0.533,0.015h-3.908
	c-0.085,0-0.141,0.042-0.266,0.151c-0.139,0.122-0.328,0.288-0.625,0.288c-0.031,0-0.092,0.003-0.169,0.007
	c-0.153,0.007-0.368,0.018-0.565,0.018c-0.3,0-0.802,0-0.802-0.394V5.673c0-0.028-0.001-0.051-0.001-0.071l-0.02,0.001
	C93.3,5.607,93.204,5.613,93.09,5.613c-0.544,0-1.004,0.084-1.644,0.213c-0.153,0.03-0.39,0.371-0.518,0.554
	c-0.056,0.08-0.107,0.154-0.153,0.213c-0.608,0.774-1.231,1.603-1.96,2.606c-0.057,0.078-0.147,0.124-0.243,0.124h-0.001
	c-0.097,0-0.188-0.047-0.243-0.125c-0.234-0.328-0.661-0.475-1.383-0.475c-0.254,0-0.513,0.017-0.758,0.033
	c-0.235,0.016-0.461,0.03-0.662,0.03H66.08c-0.093,0-0.115,0.005-0.14,0.125c-0.023,0.117-0.123,0.387-0.54,0.387
	c-0.065,0-0.137-0.007-0.205-0.014c-0.142-0.015-0.264-0.013-0.426-0.027c-0.171-0.015-0.385-0.024-0.464-0.011l-0.014,0.013
	c-0.158,0.153-0.375,0.363-0.638,0.363c-0.166,0-0.313-0.083-0.412-0.235L63.2,9.326c-0.214-0.322-0.339-0.49-0.599-0.49H48.916
	c-0.08,0-0.156-0.032-0.213-0.088c-0.056-0.057-0.088-0.133-0.087-0.213l0.003-0.725c-0.104,0.002-0.228-0.006-0.396-0.021
	c-0.304-0.027-0.713-0.03-0.809-0.005c0.001,0.055,0.004,0.104,0.007,0.148c0.01,0.184,0.019,0.357-0.118,0.501
	c-0.139,0.147-0.341,0.159-0.57,0.159c-0.159,0-0.297,0-0.408-0.115c-0.107-0.111-0.104-0.244-0.101-0.341l0.002-0.08V6.011
	c0-0.837-0.047-1.365-0.691-1.63c-0.48-0.196-1.06-0.007-1.353,0.42c-0.196,0.285-0.236,0.62-0.112,0.943
	c0.061,0.16,0.278,0.31,0.488,0.454c0.344,0.237,0.814,0.562,0.701,1.127c-0.076,0.375-0.419,0.777-0.722,1.131
	c-0.115,0.135-0.224,0.261-0.298,0.366c-0.162,0.233-0.506,0.263-0.788,0.263c-0.206,0-0.433-0.019-0.617-0.036
	c-0.111-0.009-0.205-0.019-0.264-0.019c-0.173,0-0.349-0.005-0.525-0.01c-0.337-0.01-0.679-0.02-1.01,0.009
	c-0.452,0.039-1.065,0.091-1.313,0.338c0,0.029,0.02,0.228,0.031,0.346c0.029,0.286,0.056,0.557-0.11,0.741
	c-0.081,0.089-0.195,0.139-0.322,0.139h-0.078c-0.588,0-0.955,0.009-1.433,0.181c-0.009,0.063-0.033,0.138-0.098,0.206
	c-0.117,0.124-0.295,0.149-0.524,0.149h-6.127c-0.07,0-0.13,0.003-0.181,0.005l-0.122,0.004c-0.435,0-0.518-0.342-0.573-0.569
	c-0.05-0.197-0.109-0.237-0.35-0.237c-0.063,0-0.131,0.003-0.198,0.007c-0.08,0.004-0.162,0.008-0.244,0.008H6.414
	c-0.938,0-1.679,0.058-1.99,0.783c-0.16,0.376-0.129,0.949-0.103,1.453c0.01,0.189,0.02,0.37,0.02,0.532v12.687
	c-0.004,0.703-0.007,1.127,0.504,1.583c0.295,0.266,0.717,0.43,1.101,0.43c0.31,0,0.706-0.107,0.834-0.616
	c0.174-0.693,0.874-1.074,1.492-1.41c0.17-0.092,0.334-0.181,0.475-0.271l6.07-3.908c0.089-0.056,0.199-0.062,0.292-0.018
	c0.095,0.045,0.158,0.136,0.169,0.24c0.04,0.397,0.129,0.465,0.13,0.465c0.031,0,0.139-0.015,0.375-0.193l4.135-3.115
	c0.135-0.102,0.336-0.146,0.652-0.146c0.244,0,0.529,0.027,0.771,0.051c0.392,0.038,0.568,0.019,0.696,0.167
	c0.134,0.156,0.104,0.352,0.08,0.51c-0.003,0.023-0.008,0.054-0.012,0.083l2.106,0.001c0.324,0,0.324,0,0.461-0.253l0.153-0.275
	c0.441-0.777,0.551-0.839,1.45-0.839c0.261,0,0.354-0.167,0.521-0.548c0.05-0.116,0.102-0.232,0.159-0.338
	c0.349-0.64,0.881-1.064,1.396-1.475c0.423-0.337,0.821-0.655,1.116-1.079c0.06-0.085,0.098-0.235,0.134-0.379
	c0.074-0.289,0.197-0.771,0.692-0.771h7.271c0.161,0,0.292,0.126,0.3,0.285c0.01,0.024,0.026,0.055,0.038,0.066l0.082,0.026
	c0.158,0.064,0.283,0.114,0.416,0.114c0.092,0,0.212,0.04,0.269,0.111c0.057,0.071,0.112,0.163,0.093,0.251
	c-0.146,0.656-0.212,2.272,0.083,2.674c0.119,0.163,0.262,0.226,0.511,0.226c0.124,0,0.252-0.015,0.38-0.029
	c0.434-0.048,0.838-0.041,1.13,0.139c0.885,0.542,1.116,2.161,0.645,2.974l-5.959,10.276c-0.27,0.464-0.146,0.676-0.106,0.746
	c0.181,0.313,0.935,0.84,3.954,0.84c0.76,0,1.45-0.034,1.897-0.055l0.362-0.016c0.288-0.01,0.383-0.04,0.412-0.054
	c-0.017-0.007-0.034-0.122-0.196-0.423c-0.348-0.651-0.181-0.971,0.05-1.413c0.046-0.087,0.096-0.184,0.148-0.295
	c0.099-0.209,0.196-0.428,0.296-0.651c0.355-0.799,0.724-1.625,1.241-2.284c0.237-0.301,0.625-0.459,0.967-0.6
	c0.093-0.038,0.183-0.074,0.266-0.113c-0.01-0.017-0.02-0.035-0.027-0.05c-0.035-0.064-0.072-0.132-0.103-0.205
	c-0.305-0.734-0.067-1.059,0.208-1.435c0.063-0.087,0.134-0.183,0.206-0.297c0.321-0.494,0.744-1.05,1.22-1.05
	c0.162,0,0.394,0.063,0.574,0.364c0.061,0.102,0.104,0.164,0.136,0.201c0.014-0.013,0.028-0.027,0.04-0.04
	c0.11-0.109,0.262-0.258,0.491-0.349c0.23-0.091,0.626-0.077,0.999-0.043c0.124,0.011,0.239,0.022,0.33,0.022h4.143
	c0.143,0,0.257-0.125,0.432-0.329c0.065-0.075,0.13-0.15,0.198-0.219c0.086-0.085,0.215-0.111,0.327-0.064
	c0.112,0.046,0.185,0.156,0.185,0.277c0,0.031-0.003,0.078-0.007,0.133C54.19,23.452,54.185,23.518,54.184,23.578z M51.039,23.419
	c-0.24,0-0.482-0.008-0.722-0.016c-0.229-0.008-0.458-0.016-0.681-0.016l-0.483,0.004c-0.719,0-1.525-0.077-2.01-0.987
	c-0.783-1.472,0.152-2.324,0.925-2.838c0.088-0.058,0.201-0.066,0.297-0.02c0.095,0.046,0.159,0.139,0.168,0.245l0.015,0.185
	c0.031,0.428,0.063,0.871,0.307,1.16l0.069,0.095c0.147,0.21,0.268,0.363,0.364,0.474c-0.254-0.967-0.342-1.639-0.085-1.977
	c0.214-0.281,0.621-0.211,1.045-0.232c0.254-0.013,0.521-0.026,0.787-0.026c0.577,0,2.335,0,2.335,1.762
	c-0.027,0.165-0.046,0.272-0.064,0.378c-0.124,0.717-0.278,1.608-1.383,1.758C51.662,23.403,51.382,23.419,51.039,23.419z
	 M49.637,22.788c0.229,0,0.464,0.007,0.7,0.016c0.549,0.018,1.103,0.024,1.506-0.03c0.638-0.086,0.742-0.515,0.872-1.266
	c0.02-0.112,0.039-0.225,0.062-0.335c-0.006-0.777-0.492-1.103-1.741-1.103c-0.256,0-0.514,0.013-0.758,0.025
	c-0.229,0.012-0.447,0.022-0.643,0.022c-0.013,0.062-0.055,0.415,0.328,1.781c0.037,0.134,0.065,0.238,0.078,0.297
	c0.026,0.121-0.024,0.245-0.127,0.313c-0.085,0.056-0.185,0.086-0.287,0.086c-0.42,0-0.821-0.489-1.194-1.017l-0.049-0.07
	c-0.271-0.322-0.36-0.728-0.403-1.123c-0.598,0.525-0.678,1.042-0.308,1.739c0.301,0.565,0.734,0.669,1.48,0.669L49.637,22.788z
	 M92.592,10.397h-1.996c-0.443,0-0.584-0.585-0.659-1.464c-0.005-0.052,0.002-0.135,0.023-0.182c0.042-0.09,0.093-0.225,0.151-0.379
	c0.262-0.686,0.486-1.226,0.796-1.413c0.156-0.094,0.378-0.138,0.699-0.138c0.264,0,0.565,0.03,0.832,0.057
	c0.325,0.034,0.561-0.013,0.697,0.131c0.057,0.06,0.086,0.14,0.082,0.222L93.13,8.954c-0.003,0.06,0.002,0.146,0.006,0.241
	c0.02,0.381,0.04,0.813-0.187,1.051C92.854,10.345,92.73,10.397,92.592,10.397z M90.695,9.798h1.829
	c0.034-0.131,0.02-0.435,0.013-0.574c-0.006-0.119-0.011-0.226-0.007-0.302l0.073-1.424c-0.071-0.006-0.146-0.014-0.226-0.022
	c-0.247-0.025-0.527-0.054-0.771-0.054c-0.289,0-0.375,0.043-0.39,0.051c-0.158,0.098-0.43,0.809-0.545,1.113
	c-0.05,0.13-0.095,0.248-0.134,0.34C90.59,9.483,90.658,9.71,90.695,9.798z"/>
<rect id="sliceCopy_x5F_43_1_" x="106.639" fill="none" width="120.306" height="40"/>
<rect id="sliceCopy_x5F_42_1_" fill="none" width="106.639" height="40"/>
</svg>
