<?xml version="1.0" encoding="utf-8"?>
<!-- Generator: Adobe Illustrator 15.1.0, SVG Export Plug-In  -->
<!DOCTYPE svg PUBLIC "-//W3C//DTD SVG 1.1//EN" "http://www.w3.org/Graphics/SVG/1.1/DTD/svg11.dtd" [
	<!ENTITY ns_flows "http://ns.adobe.com/Flows/1.0/">
]>
<svg version="1.1"
	 xmlns="http://www.w3.org/2000/svg" xmlns:xlink="http://www.w3.org/1999/xlink" xmlns:a="http://ns.adobe.com/AdobeSVGViewerExtensions/3.0/"
	 x="0px" y="0px" width="106px" height="40px" viewBox="0.512 0 106 40" enable-background="new 0.512 0 106 40"
	 xml:space="preserve">
<defs>
</defs>
<path d="M43.603,35.3l-0.185,0c-1.921,0-3.857-0.211-5.01-1.742c-1.003-1.337-0.824-3.257,0.491-5.267
	c0.529-0.812,0.814-1.718,1.117-2.677c0.142-0.45,0.284-0.901,0.453-1.344c0.539-1.419,0.896-2.825-0.132-3.498
	c-0.743-0.486-1.718-0.743-2.817-0.743c-0.64,0-1.307,0.089-1.931,0.258c-2.016,0.545-23.853,7.492-24.031,7.551
	c-0.083,0.027-0.455,0.139-0.977,0.296c-1.484,0.446-4.574,1.373-4.991,1.578c-0.251,0.123-0.472,0.183-0.674,0.183
	c-1.01,0-1.01-1.354-1.01-2.081c0-0.164-0.019-0.398-0.039-0.666c-0.087-1.132-0.195-2.534,0.479-2.945
	c0.059-0.182,0.009-0.777-0.008-0.98c-0.012-0.132-0.02-0.239-0.02-0.299v-1.914c0-0.185,0.003-0.37,0.007-0.555
	c0.006-0.319,0.012-0.638-0.001-0.956c-0.012-0.329-0.025-0.341-0.259-0.551l-0.098-0.087c-0.307-0.285-0.291-0.856-0.238-1.575
	c0.011-0.146,0.021-0.274,0.019-0.36l-0.01-0.257c-0.021-0.539-0.046-1.149,0.183-1.676c0.388-0.899,1.124-1.003,1.645-1.003
	c0.236,0,0.483,0.024,0.729,0.049c0.225,0.022,0.447,0.045,0.66,0.045c2.752,0,5.699,0.006,8.608,0.051
	c0.282,0.004,0.589,0.022,0.905,0.042c0.381,0.023,0.777,0.048,1.168,0.048c0.675,0,1.172-0.075,1.566-0.235
	c0.183-0.074,0.345-0.198,0.516-0.33c0.178-0.136,0.36-0.277,0.585-0.379c0.396-0.182,0.831,0.007,0.909,0.36
	c0.003,0.01,0.005,0.021,0.006,0.031c0.019-0.006,0.036-0.013,0.054-0.019c0.203-0.073,0.396-0.142,0.558-0.159
	c0.584-0.062,1.324-0.068,2.089-0.05c1.772,0.04,3.546,0.066,5.32,0.084l0.669,0.003c0.713,0,1.426-0.011,2.14-0.021
	c0.461-0.007,0.923-0.014,1.385-0.018c0.543-0.005,1.058-0.076,1.604-0.151l0.223-0.031c0.126-0.017,0.251-0.026,0.376-0.035
	c0.289-0.021,0.539-0.038,0.763-0.164c0.263-0.147,0.498-0.356,0.748-0.578c0.477-0.423,0.971-0.861,1.695-0.897
	c0.454-0.023,0.838-0.445,1.208-0.853c0.135-0.148,0.267-0.292,0.399-0.418c0.178-0.169,0.359-0.374,0.548-0.586
	c0.558-0.627,1.189-1.337,2.009-1.504c0.401-0.082,0.849-0.12,1.407-0.12c0.433,0,0.873,0.023,1.307,0.046
	c0.405,0.021,0.804,0.043,1.18,0.043h13.805c0.054-0.022,0.187-0.221,0.25-0.316c0.071-0.106,0.139-0.203,0.199-0.265
	c0.16-0.169,0.411-0.218,0.613-0.257c0.056-0.011,0.135-0.026,0.179-0.04c0.142-0.215,0.367-0.368,0.567-0.503
	c0.075-0.051,0.148-0.1,0.212-0.15c0.155-0.125,0.28-0.306,0.413-0.499c0.248-0.358,0.528-0.765,1.066-0.796
	c0.428-0.029,1.019,0.023,1.461,0.468c0.08,0.081,0.2,0.169,0.325,0.263c0.271,0.203,0.552,0.413,0.676,0.664
	c0.168,0.336,0.749,0.611,1.295,0.611c0.152,0,0.292-0.022,0.404-0.064c0.04-0.106,0.113-0.242,0.276-0.328
	c0.19-0.102,0.393-0.174,0.547-0.225c0.342-0.111,0.608-0.307,0.918-0.533l0.065-0.048c0.263-0.19,0.462-0.275,0.647-0.275
	c0.438,0,0.553,0.42,0.636,0.727c0.057,0.209,0.115,0.426,0.24,0.548c0.101,0.099,0.254,0.143,0.494,0.143
	c0.114,0,0.229-0.009,0.339-0.018l0.224-0.015c0.078-0.003,0.186-0.022,0.307-0.042c0.211-0.035,0.45-0.075,0.676-0.075
	c0.312,0,0.532,0.079,0.674,0.241l0.096,0.11c0.186,0.211,0.363,0.415,0.53,0.648c0.001,0.002,0.08,0.084,0.498,0.084
	c0.209,0,0.429-0.019,0.616-0.035c0.154-0.013,0.289-0.024,0.384-0.024h13.623c0.172,0,0.347,0.007,0.521,0.015
	c0.166,0.007,0.331,0.014,0.491,0.014c0.729,0,1.142-0.14,1.238-0.88c0.01-0.072-0.012-0.299-0.03-0.499
	c-0.075-0.804-0.17-1.805,0.49-1.929c0.116-0.016,0.255-0.042,0.416-0.073C93.709,4.811,94.295,4.7,94.818,4.7
	c0.72,0,1.166,0.219,1.328,0.652c0.204,0.553,0.395,1.065,0.312,1.717c-0.019,0.14-0.046,0.288-0.074,0.439
	c-0.068,0.371-0.141,0.754-0.069,1.063c0.228,0.984,0.164,2.116,0.086,3.099c-0.012,0.158,0.012,0.229,0.026,0.244
	c0.006,0.006,0.046,0.039,0.258,0.039c0.067,0,0.141-0.003,0.216-0.005c0.09-0.003,0.184-0.007,0.279-0.007h2.104
	c0.128,0,0.305-0.016,0.506-0.033c0.286-0.024,0.617-0.053,0.932-0.053c0.467,0,0.808,0.063,1.047,0.195
	c0.057,0.013,0.099,0.043,0.148,0.093l0.001,0l0.016,0.017c0.018,0.018,0.035,0.037,0.056,0.058l0.092,0.1
	c0.041,0.043,0.069,0.101,0.083,0.161c0.204,0.431,0.138,0.998,0.083,1.469c-0.021,0.179-0.041,0.347-0.042,0.485
	c0,0.125,0.013,0.267,0.025,0.417c0.043,0.518,0.097,1.161-0.262,1.597c-0.165,0.201-0.476,0.291-1.007,0.291
	c-0.319,0-0.675-0.033-0.958-0.06c-0.172-0.016-0.315-0.03-0.401-0.03c-0.272,0-0.553-0.012-0.835-0.024
	c-0.498-0.022-1.027-0.038-1.444,0c0.115,0.287,0.056,0.628,0.003,0.935c-0.016,0.089-0.032,0.181-0.041,0.262
	c0.189,0.162,0.3,0.441,0.387,0.661l0.049,0.12c0.146,0.327,0.063,0.696-0.008,1.022c-0.035,0.158-0.068,0.307-0.068,0.419
	l-0.002,0.625c-0.004,0.78-0.008,1.586,0.048,2.373l0.013,0.154c0.051,0.592,0.137,1.584-0.687,1.855
	c-0.45,0.148-1.069,0.134-1.675,0.081c-0.237-0.021-0.473-0.042-0.699-0.042l-0.077,0.001c-0.659,0-0.827-0.416-0.927-0.664
	c-0.086-0.212-0.122-0.281-0.303-0.309c-0.45-0.067-1.043-0.035-1.594,0.008c-0.168,0.014-0.335,0.027-0.501,0.036
	c-0.713,0.042-1.431,0.032-2.147,0.02c-0.32-0.005-0.641-0.01-0.96-0.01H64.998c-0.107,0-0.201-0.003-0.283-0.006l-0.154-0.004
	c-0.014,0-0.025,0-0.036,0c-0.004,0.039-0.008,0.105-0.006,0.216c0.006,0.31-0.057,0.682-0.599,0.801
	c-0.154,0.033-0.411,0.069-0.672,0.069c-0.422,0-0.729-0.093-0.91-0.277c-0.024-0.025-0.047-0.051-0.067-0.079
	c-0.184,0.027-0.361-0.034-0.492-0.167c-0.294-0.298-0.311-0.884-0.301-1.62c0.002-0.166,0.005-0.373-0.008-0.434
	c-0.04-0.189-0.344-0.854-0.542-1.066c-0.08,0.168-0.052,0.485-0.026,0.771c0.034,0.386,0.069,0.786-0.097,1.1
	c-0.068,0.129-0.083,0.273-0.101,0.44c-0.021,0.208-0.045,0.442-0.176,0.687c-0.051,0.095-0.076,0.2-0.105,0.322
	c-0.046,0.195-0.099,0.415-0.266,0.631c-0.174,0.224-0.471,0.347-0.836,0.347c-0.531,0-1.136-0.264-1.265-0.769
	c-0.044-0.17,0.002-0.375,0.056-0.613c0.021-0.091,0.051-0.226,0.062-0.321c-0.326,0.005-0.649,0.237-0.935,0.441
	c-0.377,0.271-0.854,0.402-1.459,0.402c-0.337,0-0.665-0.038-0.983-0.074l-0.187-0.021c-0.543-0.058-1.087-0.07-1.735-0.07
	l-0.728,0.001l-0.357-0.001h-0.001c-0.158,0-0.337,0.014-0.535,0.029c-0.267,0.021-0.565,0.043-0.853,0.043
	c-0.629,0-1.038-0.11-1.288-0.348c-0.096-0.09-0.18-0.215-0.269-0.347c-0.08-0.119-0.269-0.398-0.354-0.398
	c-0.36,0.227-0.521,0.734-0.649,1.141l-0.064,0.199c-0.112,0.342-0.232,0.678-0.353,1.013c-0.199,0.56-0.406,1.139-0.57,1.727
	c-0.133,0.478-0.313,0.943-0.488,1.393c-0.149,0.382-0.298,0.766-0.418,1.158c-0.055,0.18-0.099,0.378-0.145,0.58
	c-0.103,0.458-0.216,0.964-0.471,1.381c0.131,0.119,0.233,0.28,0.304,0.479c0.187,0.531,0.111,1.295-0.17,1.704
	C45.007,35.3,44.128,35.3,43.603,35.3z M37.521,19.428c1.217,0,2.305,0.291,3.146,0.841c1.573,1.03,0.757,3.18,0.364,4.213
	c-0.164,0.433-0.303,0.873-0.441,1.312c-0.301,0.955-0.612,1.943-1.188,2.824c-0.553,0.846-1.71,2.984-0.513,4.579
	c0.993,1.321,2.764,1.503,4.529,1.503h0.185c0.573,0,1.11-0.031,1.369-0.409c0.152-0.222,0.229-0.791,0.098-1.164
	c-0.059-0.167-0.146-0.268-0.263-0.303c-0.1-0.03-0.176-0.108-0.203-0.208c-0.027-0.1-0.002-0.207,0.068-0.283
	c0.308-0.334,0.429-0.875,0.546-1.396c0.049-0.218,0.097-0.43,0.155-0.625c0.125-0.407,0.278-0.804,0.433-1.201
	c0.17-0.436,0.345-0.887,0.47-1.336c0.17-0.608,0.38-1.197,0.584-1.767c0.118-0.331,0.236-0.663,0.348-1l0.062-0.191
	c0.157-0.497,0.354-1.116,0.829-1.432c0.125-0.085,0.258-0.128,0.393-0.128c0.405,0,0.653,0.367,0.852,0.663
	c0.067,0.099,0.136,0.201,0.185,0.247c0.088,0.084,0.311,0.183,0.875,0.183c0.272,0,0.555-0.022,0.807-0.041
	c0.217-0.017,0.412-0.031,0.563-0.031l0.376,0.002l0.728-0.002c0.668,0,1.229,0.013,1.8,0.074l0.19,0.021
	c0.302,0.035,0.612,0.07,0.915,0.07c0.481,0,0.834-0.092,1.109-0.29c0.387-0.278,0.895-0.632,1.493-0.539
	c0.126,0.019,0.233,0.086,0.303,0.188c0.152,0.223,0.084,0.528,0.012,0.85c-0.025,0.113-0.064,0.285-0.058,0.339
	c0.037,0.144,0.337,0.311,0.682,0.311c0.168,0,0.307-0.043,0.361-0.114c0.088-0.114,0.118-0.241,0.156-0.402
	c0.034-0.143,0.073-0.305,0.161-0.467c0.074-0.14,0.09-0.29,0.107-0.464c0.021-0.201,0.044-0.428,0.167-0.66
	c0.083-0.157,0.056-0.467,0.029-0.766c-0.043-0.486-0.092-1.037,0.297-1.362c0.086-0.072,0.189-0.111,0.298-0.111
	c0.677,0,1.156,1.581,1.159,1.597c0.025,0.122,0.023,0.306,0.021,0.561c-0.004,0.29-0.015,1.054,0.124,1.188
	c0.002-0.005,0.038-0.013,0.103-0.05c0.093-0.052,0.207-0.052,0.3,0.002s0.149,0.154,0.148,0.261c0.056,0.08,0.21,0.134,0.495,0.134
	c0.214,0,0.427-0.03,0.544-0.055c0.09-0.02,0.112-0.04,0.112-0.04l0,0c0,0,0.017-0.032,0.015-0.164
	c-0.005-0.249,0.005-0.504,0.168-0.671c0.154-0.157,0.37-0.157,0.474-0.157l0.176,0.004c0.075,0.002,0.162,0.006,0.262,0.006h23.135
	c0.322,0,0.646,0.005,0.97,0.01c0.699,0.011,1.403,0.021,2.103-0.019c0.162-0.01,0.325-0.022,0.488-0.036
	c0.599-0.047,1.229-0.08,1.732-0.003c0.527,0.082,0.672,0.44,0.768,0.677c0.09,0.222,0.117,0.289,0.371,0.289l0.077,0
	c0.243,0,0.496,0.021,0.752,0.044c0.527,0.047,1.066,0.069,1.435-0.053c0.344-0.114,0.327-0.649,0.276-1.235l-0.013-0.162
	c-0.059-0.81-0.055-1.628-0.05-2.419l0.002-0.622c0-0.178,0.041-0.366,0.082-0.548c0.052-0.235,0.111-0.502,0.045-0.649
	l-0.059-0.144c-0.04-0.103-0.148-0.376-0.22-0.426c-0.135-0.026-0.208-0.131-0.216-0.269c-0.009-0.173,0.024-0.366,0.057-0.552
	c0.042-0.237,0.093-0.531,0.015-0.641c-0.027-0.038-0.088-0.064-0.18-0.079c-0.141-0.021-0.247-0.139-0.255-0.281
	c-0.007-0.142,0.086-0.27,0.224-0.306c0.393-0.102,0.834-0.15,1.388-0.15c0.289,0,0.58,0.013,0.867,0.025
	c0.274,0.012,0.545,0.024,0.81,0.024c0.098,0,0.262,0.014,0.457,0.033c0.268,0.025,0.602,0.057,0.902,0.057
	c0.449,0,0.545-0.074,0.549-0.077c0.198-0.242,0.157-0.729,0.121-1.16c-0.014-0.168-0.026-0.328-0.026-0.468
	c0-0.159,0.021-0.35,0.046-0.554c0.051-0.443,0.115-0.993-0.089-1.237c-0.005-0.004-0.01-0.009-0.014-0.014
	c-0.06-0.064-0.247-0.172-0.827-0.172c-0.298,0-0.61,0.027-0.881,0.05c-0.221,0.019-0.416,0.035-0.557,0.035H97.18
	c-0.088,0-0.175,0.003-0.257,0.006c-0.348,0.014-0.689,0.043-0.937-0.225c-0.147-0.159-0.208-0.387-0.184-0.698
	c0.073-0.939,0.135-2.017-0.073-2.918c-0.099-0.431-0.012-0.896,0.064-1.307c0.026-0.14,0.052-0.276,0.068-0.406
	c0.064-0.504-0.085-0.909-0.275-1.421C95.503,5.345,95.123,5.3,94.818,5.3c-0.467,0-1.021,0.105-1.426,0.182
	c-0.174,0.033-0.323,0.061-0.434,0.076c-0.095,0.129-0.017,0.965,0.014,1.28c0.029,0.314,0.045,0.499,0.028,0.632
	c-0.185,1.402-1.341,1.402-1.834,1.402c-0.169,0-0.342-0.007-0.517-0.015c-0.166-0.007-0.333-0.015-0.496-0.015H76.531
	c-0.082,0-0.199,0.011-0.333,0.022c-0.202,0.018-0.44,0.037-0.667,0.038c-0.322,0-0.775-0.035-0.987-0.337
	c-0.154-0.214-0.32-0.403-0.492-0.6l-0.097-0.11l0,0c0,0-0.048-0.035-0.222-0.035c-0.177,0-0.39,0.035-0.578,0.066
	c-0.149,0.024-0.282,0.045-0.379,0.05L72.573,7.95c-0.125,0.009-0.255,0.019-0.385,0.019c-0.254,0-0.626-0.032-0.914-0.314
	c-0.241-0.236-0.329-0.56-0.399-0.82c-0.026-0.095-0.063-0.233-0.095-0.289c-0.014,0.018-0.098,0.05-0.257,0.166L70.46,6.759
	c-0.337,0.246-0.654,0.478-1.086,0.618c-0.152,0.05-0.309,0.107-0.451,0.184c-0.083,0.146-0.162,0.293-0.352,0.362
	c-0.713,0.267-2.032-0.016-2.443-0.843c-0.061-0.123-0.313-0.313-0.499-0.451c-0.151-0.113-0.294-0.222-0.391-0.32
	c-0.243-0.244-0.61-0.295-0.876-0.295l-0.124,0.003c-0.234,0.014-0.384,0.214-0.607,0.539c-0.145,0.209-0.308,0.446-0.533,0.626
	c-0.075,0.06-0.161,0.119-0.25,0.179c-0.169,0.114-0.343,0.232-0.414,0.354c-0.115,0.195-0.338,0.238-0.553,0.28
	c-0.09,0.017-0.257,0.05-0.297,0.085c-0.043,0.044-0.084,0.111-0.132,0.182c-0.164,0.246-0.39,0.582-0.749,0.582H46.898
	c-0.386,0-0.795-0.021-1.212-0.043c-0.932-0.049-1.909-0.07-2.563,0.063c-0.623,0.127-1.185,0.758-1.68,1.315
	c-0.2,0.226-0.394,0.443-0.584,0.623c-0.122,0.116-0.243,0.25-0.367,0.386c-0.432,0.474-0.92,1.012-1.622,1.048
	c-0.515,0.025-0.91,0.376-1.328,0.747c-0.262,0.233-0.533,0.474-0.852,0.652c-0.341,0.191-0.684,0.216-1.015,0.239
	c-0.112,0.008-0.225,0.015-0.338,0.031l-0.221,0.03c-0.565,0.078-1.1,0.151-1.68,0.156c-0.461,0.004-0.922,0.011-1.382,0.018
	c-0.716,0.011-1.433,0.021-2.148,0.021l-0.675-0.004c-1.776-0.018-3.554-0.044-5.328-0.084c-0.252-0.005-0.505-0.01-0.758-0.01
	c-0.488,0-0.887,0.018-1.255,0.057c-0.09,0.01-0.265,0.072-0.419,0.127c-0.391,0.139-0.754,0.242-0.971,0.093
	c-0.088-0.061-0.137-0.165-0.128-0.271c0.004-0.054,0.022-0.104,0.053-0.147c-0.115,0.068-0.227,0.154-0.343,0.243
	c-0.196,0.15-0.398,0.306-0.656,0.411c-0.468,0.19-1.038,0.278-1.792,0.278c-0.403,0-0.813-0.024-1.204-0.048
	c-0.308-0.019-0.604-0.037-0.879-0.042c-2.904-0.045-5.85-0.051-8.599-0.051c-0.232,0-0.476-0.024-0.72-0.048
	c-0.226-0.022-0.452-0.046-0.669-0.046c-0.588,0-0.895,0.18-1.094,0.642c-0.175,0.402-0.153,0.916-0.134,1.414l0.01,0.265
	c0.003,0.1-0.008,0.249-0.02,0.42c-0.02,0.263-0.071,0.962,0.047,1.091L4.467,18.5c0.296,0.266,0.438,0.418,0.458,0.976
	c0.013,0.328,0.007,0.659,0.001,0.989c-0.003,0.182-0.007,0.363-0.007,0.544v1.914c0,0.05,0.008,0.14,0.018,0.25
	c0.065,0.786,0.085,1.356-0.268,1.536c-0.372,0.189-0.253,1.733-0.203,2.393c0.022,0.287,0.041,0.537,0.041,0.712
	c0,0.769,0.05,1.481,0.41,1.481c0.105,0,0.247-0.042,0.41-0.122c0.426-0.209,2.847-0.943,5.082-1.614
	c0.513-0.154,0.878-0.264,0.96-0.292c0.181-0.059,21.946-6.987,24.064-7.561C36.107,19.524,36.829,19.428,37.521,19.428z
	 M7.127,26.725c-0.076,0-0.151-0.029-0.208-0.083c-0.088-0.084-0.115-0.213-0.071-0.326c0.081-0.208,0.246-0.29,0.346-0.339
	c0.004-0.002,0.009-0.005,0.015-0.007c-0.017-0.03-0.032-0.063-0.045-0.099c-0.13-0.039-0.244-0.11-0.34-0.211
	c-0.394-0.421-0.338-1.246-0.308-1.688l0.019-0.289c0.06-0.934,0.116-1.815,0.107-2.741c-0.001-0.061-0.012-0.175-0.026-0.323
	c-0.097-1.044-0.158-2.1,0.244-2.542c0.124-0.136,0.285-0.208,0.465-0.208h24.568c0.145,0,0.27,0.104,0.295,0.246
	c0.026,0.143-0.054,0.283-0.189,0.334c-0.056,0.021-0.114,0.073-0.182,0.132c-0.076,0.068-0.166,0.148-0.283,0.207
	c-0.025,0.017-0.053,0.031-0.083,0.04l0,0c-0.002,0.001-0.004,0-0.004,0.001c-0.008,0.002-0.015,0.004-0.022,0.005
	c-0.008,0.002-0.016,0.005-0.023,0.007l-0.001-0.003c-0.001,0-0.003,0-0.005,0l0.001,0.004C29.625,19.346,8.95,25.958,7.247,26.7
	C7.208,26.717,7.167,26.725,7.127,26.725z M7.735,25.682c0.028,0.048,0.06,0.103,0.082,0.163c3.913-1.392,19.105-6.259,22.742-7.376
	H7.324c-0.279,0.295-0.152,1.649-0.111,2.094c0.017,0.171,0.027,0.303,0.028,0.373c0.009,0.948-0.048,1.84-0.108,2.785l-0.017,0.269
	c-0.019,0.271-0.07,1.029,0.146,1.26c0.063,0.064,0.317,0.04,0.416,0.193C7.724,25.514,7.752,25.602,7.735,25.682z M55.478,24.292
	c-0.447,0-0.893-0.042-1.251-0.077c-0.183-0.018-0.342-0.033-0.465-0.039c-0.568-0.028-1.141-0.021-1.712-0.014
	c-0.377,0.004-0.734-0.008-1.158,0.033c-0.167,0.016-0.337,0.032-0.499,0.032c-0.6,0-0.967-0.243-1.091-0.723
	c-0.084-0.321-0.254-1.125-0.04-1.666c0.063-0.154,0.076-0.386,0.09-0.61c0.024-0.411,0.053-0.876,0.376-1.171
	c0.228-0.205,0.42-0.3,0.605-0.3c0.463,0,0.582,0.536,0.634,0.765c0.126,0.57,0.297,1.217,0.727,1.671
	c0.34,0.359,0.817,0.65,1.245,0.758c0.262,0.017,0.376-0.095,0.392-0.139c-0.007,0.006-0.021-0.02-0.077-0.06
	c-0.42-0.302-1.557-1.659-1.321-2.471c0.055-0.187,0.229-0.505,0.793-0.538c0.535-0.032,1.073-0.022,1.611-0.014
	c0.249,0.004,0.497,0.009,0.744,0.009c0.073,0,0.213-0.012,0.387-0.026c0.308-0.025,0.712-0.058,1.06-0.058
	c0.541,0,0.815,0.077,0.948,0.267c0.189,0.273,0.161,0.747,0.104,1.338c-0.014,0.142-0.026,0.267-0.026,0.352
	c0.001,0.133,0.02,0.299,0.039,0.476c0.052,0.464,0.109,0.991-0.065,1.363C57.257,24.017,56.587,24.292,55.478,24.292z
	 M53.013,23.558c0.259,0.001,0.519,0.007,0.776,0.019c0.132,0.006,0.301,0.022,0.495,0.041c0.345,0.033,0.775,0.074,1.193,0.074
	c0.842,0,1.349-0.168,1.505-0.499c0.104-0.218,0.053-0.675,0.013-1.041c-0.022-0.201-0.043-0.389-0.043-0.541
	c0-0.101,0.013-0.246,0.029-0.412c0.022-0.236,0.075-0.783,0.006-0.928c-0.009,0.015-0.119-0.02-0.461-0.02
	c-0.331,0-0.718,0.032-1.011,0.056c-0.195,0.016-0.353,0.028-0.436,0.028c-0.25,0-0.502-0.004-0.754-0.008
	c-0.523-0.009-1.047-0.018-1.566,0.012c-0.225,0.013-0.245,0.084-0.252,0.107c-0.114,0.397,0.706,1.536,1.095,1.816
	c0.392,0.28,0.339,0.604,0.299,0.73C53.784,23.358,53.357,23.556,53.013,23.558z M50.292,20.365
	c-0.018,0.021-0.074,0.058-0.161,0.136c-0.143,0.129-0.162,0.451-0.181,0.762c-0.017,0.272-0.033,0.553-0.131,0.796
	c-0.1,0.252-0.075,0.76,0.063,1.293c0.039,0.15,0.104,0.274,0.511,0.274c0.144,0,0.294-0.015,0.442-0.029
	c0.44-0.042,0.815-0.031,1.208-0.036c0.315-0.003,0.629-0.007,0.945-0.005c-0.067-0.001-0.134-0.01-0.196-0.025
	c-0.541-0.137-1.114-0.483-1.535-0.927c-0.534-0.567-0.732-1.306-0.876-1.954C50.344,20.485,50.313,20.404,50.292,20.365z"/>
<rect id="sliceCopy_x5F_39_1_" x="106.002" fill="none" width="96.643" height="40"/>
<rect id="sliceCopy_x5F_38_1_" fill="none" width="106.002" height="40"/>
</svg>
