<?xml version="1.0" encoding="utf-8"?>
<!-- Generator: Adobe Illustrator 15.1.0, SVG Export Plug-In  -->
<!DOCTYPE svg PUBLIC "-//W3C//DTD SVG 1.1//EN" "http://www.w3.org/Graphics/SVG/1.1/DTD/svg11.dtd" [
	<!ENTITY ns_flows "http://ns.adobe.com/Flows/1.0/">
]>
<svg version="1.1"
	 xmlns="http://www.w3.org/2000/svg" xmlns:xlink="http://www.w3.org/1999/xlink" xmlns:a="http://ns.adobe.com/AdobeSVGViewerExtensions/3.0/"
	 x="0px" y="0px" width="88px" height="40px" viewBox="0.769 0 88 40" enable-background="new 0.769 0 88 40" xml:space="preserve">
<defs>
</defs>
<path d="M4.553,29.228c-0.325,0-0.485-0.321-0.538-0.427c-0.36-0.726-0.328-1.514-0.297-2.276c0.006-0.151,0.012-0.301,0.015-0.448
	c0.024-1.302,0.424-2.763,1.219-4.467c1.63-3.502,4.871-5.714,7.167-7.074c2.395-1.417,5.152-2.048,7.534-2.479
	c0.306-0.055,0.611-0.114,0.916-0.172c0.842-0.162,1.713-0.329,2.583-0.421l5.095-0.544c0.108-0.011,0.23-0.034,0.357-0.057
	c0.313-0.057,0.684-0.12,0.979-0.065c0.104,0.02,0.229,0.064,0.352,0.111c0.094,0.035,0.223,0.083,0.275,0.085l1.127,0.036
	c1.366,0.044,2.731,0.102,4.098,0.162c0.062-0.077,0.177-0.171,0.351-0.171l1.491-0.007c0.161,0,0.322,0.003,0.481,0.016l9.37,0.721
	c0.161,0.013,0.288,0.069,0.391,0.146c0.051-0.039,0.078-0.069,0.181-0.059l2.619,0.024h0.001c0.087,0,0.151-0.005,0.207-0.009
	c0.055-0.004,0.104-0.007,0.146-0.007c0.337,0,0.508,0.209,0.508,0.622c0,0.136,0,0.499-0.398,0.499l-0.354-0.003
	c0.103,0.179,0.225,0.326,0.394,0.376c0.015,0.004,0.204,0.003,0.344-0.01c0.083-0.008,0.163-0.016,0.232-0.018l2.624-0.062
	c0.878-0.021,1.772-0.083,2.639-0.144l1.02-0.068c0.148-0.009,0.308-0.044,0.471-0.079c0.373-0.08,0.788-0.144,1.106-0.042
	l2.327,0.75c1.919,0.619,3.795,1.189,5.66,1.36l7.585,0.699c0.616,0.057,1.268,0.084,1.993,0.084c0.916,0,1.813-0.042,2.762-0.087
	l0.665-0.031l3.722-0.378c0.096-0.008,0.193,0.028,0.257,0.102c0.064,0.074,0.088,0.175,0.064,0.27
	c-0.072,0.287-0.283,0.489-0.453,0.65l-0.969,1.005c-0.644,0.673-1.509,1.518-2.485,2.072l-0.79,0.455
	c-1.429,0.826-2.904,1.679-4.52,2.196c-2.604,0.834-5.374,1.084-8.052,1.327l-0.554,0.05c-0.853,0.078-1.721,0.091-2.561,0.103
	c-0.343,0.005-0.685,0.01-1.025,0.019l-0.284,0.004c-0.322,0-0.645-0.013-0.968-0.026l-0.494-0.018
	c-0.106-0.003-0.215-0.004-0.323-0.004l-0.385,0.001c-0.327,0-0.676-0.007-1.008-0.063l-4.521-0.74
	c-0.848-0.139-1.696-0.352-2.518-0.558c-0.369-0.093-0.739-0.186-1.108-0.272c-0.48-0.112-1.024-0.162-1.764-0.162
	c-0.325,0-0.651,0.009-0.975,0.019c-0.322,0.009-0.642,0.018-0.952,0.018l-0.792-0.01c-0.182-0.001-0.283-0.135-0.403-0.33
	c-0.038,0.025-0.083,0.055-0.113,0.076c-0.091,0.061-0.176,0.118-0.262,0.15l-2.103,0.776c-0.183,0.067-0.377,0.149-0.577,0.234
	c-0.665,0.28-1.432,0.599-2.129,0.556c-0.505-0.033-0.75-0.761-0.929-1.292c-0.025-0.077-0.048-0.142-0.065-0.188l-0.117-0.304
	c-0.651-1.695-1.54-4.036-3.583-3.854c-0.927,0.081-1.658,0.145-2.13,0.908c-0.057,0.093-0.117,0.186-0.179,0.279
	c-0.115,0.177-0.232,0.354-0.326,0.54l-0.059,0.123c-0.14,0.294-0.284,0.599-0.852,0.632c-0.5,0.033-1.028-0.087-1.531-0.199
	c-0.179-0.04-0.353-0.079-0.519-0.108c-0.448-0.08-0.984-0.169-1.552-0.219c-0.286-0.025-0.58-0.059-0.879-0.092
	c-1.024-0.116-2.146-0.213-2.979-0.078l-0.256,0.042c-0.545,0.088-1.09,0.176-1.63,0.295c-0.146,0.032-0.305,0.074-0.468,0.118
	c-0.472,0.125-1.02,0.266-1.487,0.232c-0.449-0.035-0.9-0.215-1.337-0.389c-0.178-0.071-0.351-0.14-0.516-0.195
	c-0.547-0.18-1.555,0.564-1.964,1.091c-0.242,0.314-0.388,0.687-0.542,1.083c-0.116,0.299-0.237,0.609-0.406,0.902
	c-0.029,0.051-0.057,0.108-0.084,0.166c-0.116,0.241-0.275,0.571-0.646,0.656l-0.125,0.03c-0.177,0.043-0.378,0.091-0.58,0.091
	c-0.29,0-0.532-0.102-0.72-0.304c-0.1-0.107-0.198-0.221-0.298-0.334c-0.438-0.503-0.851-0.978-1.441-1.043
	c-0.942-0.105-1.666,0.417-2.484,1.232c-0.788,0.785-1.521,1.654-2.229,2.494c-0.309,0.366-0.617,0.732-0.932,1.093
	c-0.135,0.155-0.267,0.321-0.4,0.488c-0.294,0.368-0.598,0.748-0.953,1.053l-0.877,0.752C4.927,29.091,4.768,29.228,4.553,29.228z
	 M29.32,11.373c-0.183,0-0.399,0.04-0.609,0.078c-0.143,0.026-0.28,0.051-0.401,0.063l-5.094,0.544
	c-0.847,0.09-1.704,0.255-2.534,0.414c-0.308,0.059-0.614,0.118-0.922,0.174c-2.33,0.421-5.023,1.037-7.336,2.405
	c-2.228,1.319-5.369,3.459-6.929,6.811c-0.749,1.604-1.14,3.026-1.163,4.225c-0.003,0.151-0.009,0.305-0.016,0.461
	c-0.027,0.687-0.057,1.397,0.235,1.984c0.012,0.024,0.022,0.043,0.031,0.058c0.037-0.029,0.082-0.068,0.119-0.1l0.915-0.784
	c0.313-0.269,0.599-0.626,0.875-0.972c0.139-0.174,0.276-0.346,0.416-0.507c0.313-0.359,0.619-0.723,0.926-1.086
	c0.717-0.85,1.457-1.729,2.264-2.532c0.808-0.803,1.72-1.537,2.975-1.404c0.823,0.092,1.356,0.705,1.828,1.246
	c0.095,0.109,0.188,0.217,0.284,0.32c0.152,0.163,0.409,0.113,0.72,0.038l0.133-0.032c0.088-0.02,0.164-0.178,0.237-0.331
	c0.034-0.071,0.068-0.141,0.104-0.205c0.146-0.254,0.254-0.53,0.368-0.821c0.162-0.417,0.331-0.849,0.626-1.231
	c0.405-0.524,1.372-1.354,2.241-1.354c0.136,0,0.267,0.021,0.387,0.061c0.176,0.059,0.36,0.132,0.549,0.207
	c0.395,0.158,0.803,0.32,1.159,0.348c0.384,0.035,0.842-0.095,1.289-0.214c0.172-0.045,0.338-0.09,0.492-0.124
	c0.552-0.122,1.106-0.211,1.663-0.302l0.254-0.041c0.905-0.15,2.08-0.047,3.145,0.074c0.294,0.033,0.584,0.066,0.864,0.091
	c0.591,0.053,1.143,0.144,1.605,0.226c0.174,0.032,0.356,0.072,0.542,0.113c0.419,0.093,0.853,0.19,1.242,0.19l0.124-0.003
	c0.213-0.013,0.218-0.023,0.345-0.291l0.064-0.134c0.104-0.207,0.232-0.404,0.36-0.6c0.058-0.089,0.115-0.177,0.17-0.266
	c0.631-1.02,1.626-1.107,2.588-1.191c2.487-0.218,3.479,2.373,4.195,4.237l0.116,0.301c0.021,0.053,0.046,0.127,0.075,0.215
	c0.182,0.538,0.323,0.838,0.423,0.89l0.072-0.002c0.544,0,1.19-0.272,1.761-0.513c0.21-0.088,0.412-0.173,0.603-0.244l2.104-0.776
	c0.036-0.016,0.082-0.05,0.134-0.084c0.156-0.105,0.333-0.224,0.522-0.224c0.137,0,0.26,0.063,0.339,0.172
	c0.005,0.007,0.046,0.072,0.05,0.08c0.021,0.035,0.049,0.083,0.076,0.125l0.656,0.008c0.305,0,0.618-0.009,0.935-0.018
	c0.329-0.01,0.661-0.019,0.992-0.019c0.787,0,1.373,0.055,1.9,0.178c0.372,0.087,0.745,0.181,1.118,0.274
	c0.809,0.203,1.646,0.414,2.469,0.548l4.521,0.74c0.273,0.045,0.562,0.054,0.91,0.054l0.385-0.001c0.115,0,0.229,0.001,0.341,0.004
	l0.5,0.018c0.315,0.012,0.63,0.025,0.944,0.025l0.269-0.003c0.343-0.009,0.688-0.015,1.032-0.02
	c0.828-0.012,1.686-0.024,2.515-0.101l0.554-0.05c2.646-0.239,5.382-0.486,7.923-1.3c1.554-0.498,3.002-1.335,4.402-2.145
	l0.794-0.457c0.909-0.516,1.733-1.321,2.349-1.966l0.854-0.893c0.018-0.018,0.034-0.035,0.053-0.053l-3.731,0.342
	c-1.644,0.079-3.411,0.133-4.838,0.001l-7.585-0.699c-1.927-0.177-3.838-0.757-5.789-1.387l-2.327-0.75
	c-0.189-0.062-0.502-0.005-0.799,0.057c-0.192,0.041-0.383,0.08-0.558,0.09L56.7,13.704c-0.872,0.061-1.774,0.124-2.666,0.145
	L51.41,13.91c-0.056,0.001-0.12,0.008-0.187,0.015c-0.2,0.021-0.413,0.031-0.564-0.008c-0.54-0.161-0.775-0.671-0.947-1.043
	l-0.038-0.083c-0.044-0.093-0.037-0.202,0.019-0.289c0.011-0.017,0.022-0.032,0.036-0.046l-1.67-0.015l0.003,0.016
	c0.01,0.049,0.005,0.332-0.102,0.463c-0.123,0.149-0.396,0.133-0.499-0.026c-0.045-0.066-0.086-0.149-0.127-0.237
	c-0.105-0.222-0.159-0.302-0.252-0.309l-9.37-0.721c-0.145-0.011-0.29-0.014-0.436-0.014l-1.491,0.006
	c-0.05,0.073-0.17,0.171-0.354,0.171c-1.386-0.061-2.749-0.119-4.113-0.163l-1.127-0.036c-0.152-0.005-0.313-0.065-0.468-0.124
	c-0.088-0.033-0.175-0.068-0.25-0.083C29.425,11.376,29.373,11.373,29.32,11.373z"/>
<rect id="sliceCopy_x5F_17_1_" x="88" fill="none" width="93" height="40"/>
<rect id="sliceCopy_x5F_16_1_" fill="none" width="88" height="40"/>
</svg>
