<?xml version="1.0" encoding="utf-8"?>
<!-- Generator: Adobe Illustrator 15.1.0, SVG Export Plug-In  -->
<!DOCTYPE svg PUBLIC "-//W3C//DTD SVG 1.1//EN" "http://www.w3.org/Graphics/SVG/1.1/DTD/svg11.dtd" [
	<!ENTITY ns_flows "http://ns.adobe.com/Flows/1.0/">
]>
<svg version="1.1"
	 xmlns="http://www.w3.org/2000/svg" xmlns:xlink="http://www.w3.org/1999/xlink" xmlns:a="http://ns.adobe.com/AdobeSVGViewerExtensions/3.0/"
	 x="0px" y="0px" width="95px" height="40px" viewBox="0.521 0 95 40" enable-background="new 0.521 0 95 40" xml:space="preserve">
<defs>
</defs>
<path d="M17.985,36.3c-0.001,0-0.002,0-0.003,0l-12.07-0.112c-0.081,0-0.158-0.034-0.215-0.093
	c-0.056-0.059-0.085-0.138-0.082-0.219l0.112-2.75c0.226-2.26,0.587-4.427,1.074-6.458c0.529-2.079,1.216-4.042,2.041-5.837
	l0.788-1.634l0.385-0.988c0.1-0.408-0.065-0.616-0.199-0.733c-0.147-0.146-0.49-0.368-1.361-0.672l-1.459-0.504
	c-0.043-0.015-0.083-0.04-0.114-0.072l-0.448-0.449c-0.06-0.06-0.092-0.141-0.088-0.225L6.4,14.261l0.075-0.564l-1.772-0.191
	l-0.442-0.122c-0.034-0.01-0.065-0.025-0.093-0.045c-0.353-0.253-0.511-0.603-0.459-1.011c0.104-0.539,0.468-0.824,1.026-0.824
	l0.375,0.033l0.229-1.193c0.02-0.098,0.085-0.179,0.176-0.219s0.195-0.031,0.279,0.022l1.315,0.833l0.645-3.221
	C7.761,7.73,7.77,7.704,7.783,7.678l1.144-2.18V4.617c0-0.106,0.057-0.205,0.148-0.259c0.091-0.054,0.204-0.055,0.299-0.003
	l0.833,0.469l3.516,0.055c0.068,0.001,0.135,0.025,0.188,0.069l0.254,0.212h12.131c0.14,0,0.257,0.095,0.29,0.225h6.289
	c0.049-0.1,0.151-0.168,0.27-0.168h11.489V4c0-0.166,0.134-0.3,0.3-0.3h2.808c0.088,0,0.171,0.038,0.229,0.105l0.336,0.394
	c0.046,0.054,0.071,0.124,0.071,0.195v0.665l0.052-0.007c0.102-0.016,0.213,0.028,0.279,0.113L49.1,5.668
	c0.04,0.053,0.063,0.117,0.063,0.184v0.599h0.523V5.965c0-0.166,0.134-0.3,0.3-0.3h1.385V4.337c0-0.166,0.134-0.3,0.3-0.3h5.759
	l0.325-0.186c0.081-0.047,0.182-0.053,0.271-0.013l0.446,0.199h13.353l0.352,0.048l0.317-0.136c0.037-0.016,0.077-0.024,0.118-0.024
	h17.234c0.089,0,0.173,0.039,0.23,0.107l0.281,0.337c0.026,0.032,0.047,0.07,0.058,0.11l0.337,1.179l0.124,2.144l-0.17,2.229
	l-0.348,1.238l-0.238,0.544c-0.049,0.108-0.156,0.178-0.274,0.178h-17.46c-0.065,0-0.128-0.021-0.18-0.06l-0.099-0.074l-0.189,0.063
	c-0.03,0.01-0.062,0.015-0.094,0.015H58.497l-0.261,0.175c-0.077,0.052-0.173,0.064-0.263,0.035l-0.457-0.154h-5.623
	c-0.166,0-0.3-0.134-0.3-0.3v-0.71h-1.608c-0.166,0-0.3-0.134-0.3-0.3v-0.543h-0.58v1.521l0.169,0.135
	c0.071,0.057,0.112,0.143,0.112,0.234v0.954c0,0.091-0.041,0.178-0.112,0.234l-0.177,0.141l-0.104,1.776
	c-0.01,0.159-0.141,0.282-0.3,0.282H36.021l-0.162,0.081c-0.097,0.085-0.214,0.249-0.306,0.466l-2.245,5.498
	c-0.013,0.033-0.032,0.063-0.056,0.088l-0.562,0.617c-0.044,0.048-0.103,0.081-0.166,0.093l-0.898,0.169l-5.882,0.229
	c-0.047-0.004-0.085-0.006-0.123-0.021l-0.842-0.338l-1.438-0.439L22.6,21.764l-0.795,0.159l-1.036,0.116
	c-0.042,0.002-0.078,0-0.115-0.01l-0.091-0.026l-2.79,11.821l-0.098,1.197l0.514,0.746c0.068,0.055,0.112,0.139,0.112,0.233
	c0,0.167-0.119,0.285-0.308,0.3C17.99,36.3,17.988,36.3,17.985,36.3z M6.228,35.591l11.184,0.104l-0.291-0.422
	c-0.039-0.057-0.058-0.126-0.052-0.195l0.113-1.348l2.869-12.17c0.019-0.08,0.069-0.148,0.14-0.19
	c0.07-0.042,0.153-0.054,0.234-0.03l0.336,0.095l0.952-0.105l0.817-0.165c0.032-0.007,0.064-0.008,0.099-0.003l0.094,0.013
	l-0.531-0.225c-0.043-0.019-0.081-0.046-0.111-0.082l-0.953-1.123c-0.018-0.021-0.032-0.043-0.044-0.068
	c-0.255-0.549-0.299-1.146-0.131-1.775c0.118-0.56,0.407-1.098,0.854-1.585c0.347-0.346,0.862-0.627,1.586-0.868l0.919-0.231
	c0.125-0.032,0.259,0.021,0.328,0.132c0.068,0.11,0.059,0.253-0.025,0.352l-0.616,0.729c-0.442,0.577-0.705,1.225-0.772,1.914
	c-0.033,0.394,0.09,0.91,0.368,1.532l0.023,0.049l-0.093-0.906c0.04-0.62,0.206-1.139,0.494-1.595l0.688-0.918l1.373-1.431
	c0.056-0.058,0.133-0.091,0.213-0.092l6.399-0.056l0.439,0.061c0.035,0.005,0.068,0.017,0.1,0.034l0.619,0.338
	c0.078,0.042,0.134,0.118,0.15,0.205l0.111,0.561l0.006,0.396c0,0.034-0.006,0.068-0.018,0.101l-0.842,2.358l-1.131,2.547
	c-0.046,0.102-0.144,0.17-0.254,0.177l-2.47,0.168l-2.783-0.113l-1.251-0.113l-0.755-0.026l0.365,0.111l0.807,0.322l5.773-0.221
	l0.756-0.145l0.458-0.504L35,15.732c0.131-0.311,0.313-0.558,0.539-0.739l0.277-0.146c0.041-0.021,0.087-0.031,0.134-0.031h12.461
	l0.095-1.627c0.005-0.085,0.046-0.164,0.112-0.217l0.169-0.135v-0.665l-0.169-0.135c-0.071-0.057-0.112-0.143-0.112-0.234V9.839
	c0-0.166,0.134-0.3,0.3-0.3h1.18c0.166,0,0.3,0.134,0.3,0.3v0.543h1.608c0.166,0,0.3,0.134,0.3,0.3v0.71h5.372
	c0.032,0,0.064,0.005,0.096,0.015l0.364,0.123l0.214-0.144c0.05-0.033,0.107-0.05,0.167-0.05h13.369l0.292-0.097
	c0.094-0.03,0.197-0.013,0.273,0.045l0.145,0.108h17.164l0.146-0.327l0.323-1.139l0.158-2.131l-0.113-2.038l-0.308-1.05
	l-0.151-0.182H72.672l-0.337,0.145c-0.051,0.022-0.104,0.029-0.161,0.021L71.78,4.634L58.407,4.637
	c-0.042,0-0.084-0.009-0.122-0.026l-0.366-0.163l-0.263,0.149c-0.045,0.026-0.097,0.039-0.148,0.039H51.97v1.328
	c0,0.166-0.134,0.3-0.3,0.3h-1.385v0.486c0,0.166-0.134,0.3-0.3,0.3h-1.123c-0.166,0-0.3-0.134-0.3-0.3V5.956L48.34,5.669
	L48.118,5.7c-0.084,0.014-0.173-0.013-0.238-0.07c-0.066-0.057-0.104-0.14-0.104-0.227V4.504L47.602,4.3h-2.369v1.217
	c0,0.166-0.134,0.3-0.3,0.3h-11.52c-0.049,0.1-0.151,0.168-0.27,0.168h-6.849c-0.14,0-0.257-0.095-0.29-0.225H14.056
	c-0.07,0-0.138-0.024-0.192-0.069l-0.256-0.213l-3.486-0.054c-0.05,0-0.099-0.014-0.143-0.038L9.526,5.13v0.442
	c0,0.048-0.012,0.096-0.034,0.139L8.335,7.918l-0.722,3.607c-0.02,0.097-0.085,0.178-0.176,0.217
	c-0.092,0.039-0.195,0.03-0.278-0.022l-1.313-0.831l-0.197,1.028c-0.028,0.151-0.172,0.258-0.322,0.242l-0.618-0.057
	c-0.281,0.001-0.369,0.129-0.407,0.32c-0.019,0.156,0.034,0.282,0.179,0.399l0.339,0.097l2.027,0.215
	c0.08,0.009,0.154,0.05,0.204,0.113s0.072,0.145,0.061,0.225l-0.113,0.842L6.95,15.446l0.307,0.308l1.395,0.482
	c0.797,0.278,1.312,0.54,1.573,0.8c0.255,0.222,0.537,0.649,0.361,1.353l-0.405,1.046l-0.795,1.65
	c-0.808,1.757-1.481,3.686-2.001,5.726c-0.48,2-0.837,4.14-1.059,6.356L6.228,35.591z M24.211,21.008l1.196,0.041l1.253,0.113
	l2.735,0.112l2.256-0.155l1.05-2.361l0.816-2.288v-0.285l-0.076-0.363l-0.451-0.246l-0.34-0.05l-6.227,0.058l-1.262,1.313
	l-0.649,0.871c-0.222,0.351-0.357,0.777-0.391,1.245l0.109,1.028l0.209,0.523c0.052,0.128,0.009,0.275-0.104,0.355L24.211,21.008z
	 M22.491,20.425l0.871,0.369l-0.313-0.667c-0.322-0.72-0.464-1.336-0.421-1.836c0.079-0.806,0.382-1.557,0.902-2.235l0.025-0.03
	c-0.601,0.202-1.051,0.441-1.316,0.706c-0.364,0.397-0.604,0.841-0.703,1.31c-0.133,0.497-0.107,0.933,0.075,1.347L22.491,20.425z"
	/>
<rect id="sliceCopy_x5F_30_1_" x="94.576" fill="none" width="63.669" height="40"/>
<rect id="sliceCopy_x5F_29_1_" fill="none" width="94.576" height="40"/>
</svg>
