<?xml version="1.0" encoding="utf-8"?>
<!-- Generator: Adobe Illustrator 15.1.0, SVG Export Plug-In  -->
<!DOCTYPE svg PUBLIC "-//W3C//DTD SVG 1.1//EN" "http://www.w3.org/Graphics/SVG/1.1/DTD/svg11.dtd" [
	<!ENTITY ns_flows "http://ns.adobe.com/Flows/1.0/">
]>
<svg version="1.1"
	 xmlns="http://www.w3.org/2000/svg" xmlns:xlink="http://www.w3.org/1999/xlink" xmlns:a="http://ns.adobe.com/AdobeSVGViewerExtensions/3.0/"
	 x="0px" y="0px" width="114px" height="40px" viewBox="0.383 0 114 40" enable-background="new 0.383 0 114 40"
	 xml:space="preserve">
<defs>
</defs>
<path d="M52.517,34.3c-0.712,0-0.885-0.401-0.924-0.64c-0.107-0.653-0.172-1.324-0.233-1.973c-0.028-0.297-0.057-0.594-0.089-0.888
	c-0.129-1.205-0.225-2.411-0.32-3.618l-0.215-2.678c-0.088-0.004-0.207-0.004-0.27,0c-0.013,0.026-0.025,0.052-0.038,0.079
	c-0.133,0.275-0.334,0.692-0.784,0.692c-0.074,0-0.152-0.013-0.23-0.037c-0.082-0.026-0.148-0.086-0.184-0.165
	c-0.035-0.079-0.034-0.169,0.002-0.247l0.146-0.309h-0.151c-0.004,0.023-0.011,0.048-0.02,0.073l-0.593,1.7
	c-0.188,0.542-0.604,1.47-1.272,1.601l-1.797,0.352c-0.379,0.073-0.655,0.044-1.041-0.004c-0.14-0.017-0.276-0.021-0.424-0.026
	c-0.425-0.014-0.907-0.03-1.206-0.225c-0.375-0.242-0.729-0.437-1.146-0.632c-0.049-0.023-0.12-0.07-0.198-0.123
	c-0.037-0.026-0.095-0.065-0.144-0.094c-0.039,0.08-0.116,0.254-0.145,0.32l-0.055,0.119c-0.338,0.676-0.653,1.361-0.968,2.046
	c-0.455,0.991-0.927,2.015-1.465,2.996c-0.167,0.304-0.448,0.731-0.964,0.924c-0.506,0.19-1.412-0.379-2.108-0.883l-2.594-1.872
	c-0.076-0.055-0.157-0.104-0.237-0.152l-0.127-0.079c-0.072-0.045-0.122-0.12-0.136-0.204c-0.014-0.084,0.009-0.171,0.063-0.237
	c0.326-0.407,0.573-0.945,0.812-1.465c0.146-0.318,0.29-0.632,0.451-0.92c0.341-0.608,0.807-1.085,1.258-1.546
	c0.382-0.391,0.743-0.76,1.032-1.202c0.324-0.5,0.37-1.344,0.1-1.842c-0.16-0.295-0.404-0.439-0.745-0.439h-6.408
	c-0.551,0-1.152,0.223-1.734,0.438c-0.159,0.059-0.314,0.116-0.465,0.168c-1.347,0.46-3.118,1.075-4.885,1.754
	c-4.07,1.562-8.142,3.027-11.233,4.129c-1.856,0.662-3.512,0.984-5.061,0.984l-0.222-0.002C3.842,30.139,3.7,29.013,3.7,27.762
	c0-0.416,0.09-0.781,0.178-1.134c0.048-0.195,0.097-0.392,0.131-0.602c0.022-0.143,0.013-0.316,0.003-0.499
	c-0.015-0.285-0.03-0.58,0.067-0.852c0.262-0.736,0.224-1.484,0.185-2.276l-0.021-0.444c-0.016-0.355-0.034-0.696-0.08-1.049
	L4.06,20.069c-0.064-0.032-0.161-0.137-0.215-0.31c-0.146-0.467-0.146-0.887-0.145-1.332v-0.1c0-0.696,0.647-0.82,1.034-0.894
	c0.074-0.015,0.148-0.028,0.216-0.045c0.769-0.193,1.583-0.209,2.286-0.209l0.645,0.002c0.389,0,0.776-0.017,1.164-0.033
	l0.134-0.006c0.008-0.038,0.101-0.316,0.156-0.482c0.09-0.272,0.175-0.529,0.326-0.685c0.588-0.604,1.782-0.547,2.598-0.527
	c0.146,0.003,0.284,0.007,0.406,0.007l1.693-0.034l8.429-0.165c0.029-0.001,0.095-0.008,0.178-0.016
	c0.401-0.04,1.077-0.182,1.329,0.147c0.13,0.168,0.245,0.365,0.359,0.56c0.364,0.623,0.594,0.925,1.107,0.756
	c0.721-0.239,1.484-0.611,2.335-1.138c0.166-0.103,0.338-0.216,0.515-0.332c0.829-0.544,1.768-1.162,2.763-1.162
	c0.408-0.017,0.828-0.018,1.249-0.018h0.163c0.433,0,0.865-0.001,1.297-0.021c0.061-0.002,0.12-0.003,0.179-0.003l0.267,0.002
	c0.276,0,0.431-0.026,0.558-0.178l0.079-0.096c0.339-0.411,0.525-0.638,1.088-0.958c0.614-0.351,1.367-0.209,2.044-0.002
	c0.146,0.045,0.294,0.09,0.444,0.129c-0.186-0.366-0.344-0.756-0.397-1.143c-0.856,0.132-1.714,0.265-2.569,0.401
	c-0.484,0.075-1.098,0.07-1.722,0.045c-1.278-0.048-2.554-0.017-3.829-0.041c-0.265-0.005-0.533-0.019-0.802-0.033
	c-0.656-0.033-1.337-0.053-1.842,0.019c-0.709,0.101-1.591,0.045-2.399-0.028c-0.231-0.021-0.464-0.042-0.694-0.058
	c-0.366-0.026-0.51-0.383-0.642-2.438l-0.012-0.186c-0.04-0.517-0.037-0.983,0.01-1.512c0.022-0.273,0.115-0.514,0.197-0.726
	c0.06-0.155,0.116-0.301,0.14-0.442c0.108-0.647,1.034-0.647,1.382-0.647c0.324,0,0.665,0.027,0.942,0.05
	c0.174,0.014,0.32,0.027,0.415,0.027c1.248,0,2.521,0.055,3.753,0.109c0.584,0.025,1.168,0.051,1.749,0.071
	c1.873,0.066,3.858-0.057,5.753,0.171c0.3,0.036,0.611,0.094,0.927,0.154c0.569,0.106,1.15,0.216,1.69,0.185
	c1.027-0.067,2.051-0.115,3.079-0.154c0.87-0.034,1.74-0.052,2.61-0.061l0.303-0.001c0.349,0,0.679,0,1.011-0.053
	c0.048-0.007,0.116-0.011,0.191-0.015c0.07-0.003,0.216-0.01,0.259-0.024c0.057-0.046,0.104-0.118,0.163-0.208
	C48.52,6.216,48.662,6,49.075,5.881c0.495-0.244,1.293-0.173,1.968-0.031c0.174,0.037,0.349,0.073,0.521,0.1
	c0.233,0.036,0.362,0.217,0.457,0.349c0.026,0.037,0.065,0.092,0.084,0.106c0.018,0.014,0.039,0.035,0.054,0.053
	c0.058,0.068,0.359,0.184,0.677,0.236c0.734,0.118,1.666,0.153,2.538,0.109c1.546-0.078,3.109-0.224,4.621-0.366l1.383-0.127
	c0.744-0.066,1.497-0.075,2.226-0.083l0.743-0.011c0.873-0.02,2.336-0.041,2.873,0.724c0.562,0.794,0.472,2.334,0.233,3.124
	c-0.128,0.423-0.375,0.795-0.613,1.155c-0.079,0.119-0.157,0.237-0.229,0.354c-0.13,0.214-0.432,0.347-1.533,0.347
	c-0.461,0-0.944-0.024-1.267-0.04c-0.152-0.007-0.267-0.014-0.321-0.014c-0.915,0-2.053,0-3.118-0.135
	c-0.252-0.032-0.509-0.071-0.766-0.111c-0.841-0.13-1.747-0.244-2.453-0.111c-0.215,0.039-0.488,0.011-0.773-0.024
	c-0.321-0.041-0.66-0.039-0.73,0c-0.04,0.039-0.148,0.265-0.2,0.373c-0.041,0.086-0.079,0.162-0.108,0.211
	c-0.149,0.245-0.242,0.327-0.431,0.383c-0.038,0.012-0.074,0.022-0.137,0.057c-0.188,0.102-0.387,0.201-0.59,0.302
	c-0.69,0.343-1.401,0.695-1.78,1.262h23.438c0.609,0,1.237-0.089,1.846-0.174c0.518-0.073,1.053-0.148,1.586-0.172
	c0.104-0.004,0.208-0.006,0.313-0.009c0.261-0.005,0.508-0.01,0.74-0.054c0.322-0.06,0.403-0.12,0.598-0.265
	c0.072-0.053,0.153-0.113,0.258-0.183c0.368-0.246,0.716-0.202,1.021-0.187c0.08,0.004,0.16,0.008,0.24,0.008l0.383-0.008
	c0.379,0,0.595,0.12,0.855,0.476c0.352,0.481,0.352,0.481,0.748,0.481h7.801c-0.262-0.841-0.458-1.677-0.045-2.092l0.162-0.166
	c0.291-0.303,0.621-0.646,1.045-0.771c0.067-0.02,0.149-0.03,0.248-0.03c0.257,0,1.022,0.094,1.171,0.512
	c0.319,0.911,0.474,1.788,0.623,2.635c0.058,0.316,0.055,0.626,0.052,0.926l-0.001,0.187c0,0.051-0.001,0.094-0.003,0.129
	c0.004,0.002,0.007,0.004,0.011,0.006c0.196,0.122,0.313,0.3,0.344,0.504c0.054-0.017,0.108-0.027,0.163-0.027h0.582
	c0.205,0,0.314,0.052,0.409,0.106c0.247,0.066,0.43,0.071,0.586,0.071l0.468-0.005h10.689c0.061,0,0.124-0.005,0.188-0.01
	c0.082-0.005,0.165-0.011,0.245-0.011c0.122,0,0.492,0,0.724,0.318c0.15,0.208,0.168,0.535,0.177,0.974
	c0.002,0.107,0.003,0.203,0.011,0.27c0.049,0.391,0.179,1.437-0.709,1.642c-1.717,0.226-3.385,0.228-5.745,0.015
	c-0.16-0.015-0.289-0.065-0.403-0.11c-0.102-0.04-0.182-0.071-0.265-0.071H97.59c-0.278,0-0.278,0-0.462,0.11l-0.109,0.065
	c-0.378,0.222-0.952,0.476-1.473,0.216c-0.576-0.288-0.774-0.013-1.093,0.694c-0.063,0.139-0.126,0.277-0.194,0.406
	c-0.15,0.287-0.522,0.307-0.762,0.23c0,0.111,0.01,0.222,0.02,0.33c0.037,0.438,0.087,1.037-0.617,1.261
	c-0.484,0.153-1.092,0.067-1.638-0.04c-0.308-0.061-0.598-0.119-0.871-0.119h-1.916c-0.078,0-0.188-0.009-0.311-0.021
	c-0.228-0.022-0.539-0.03-0.626-0.012v0.008c0.001,0.243,0.003,0.545-0.437,0.567c-0.041,0.002-0.095,0.005-0.165,0.015
	c-0.186,0.027-0.403,0.004-0.606-0.021c-0.079-0.01-0.155-0.02-0.226-0.024c-0.224-0.014-0.5,0.018-0.753-0.078
	c-0.323-0.121-0.408-0.235-0.487-0.464c-0.014-0.039-0.03-0.086-0.058-0.146c-0.002-0.005-0.004-0.011-0.006-0.016
	c-0.139-0.005-0.378,0.004-0.53,0.012c-0.082,0.004-0.148,0.007-0.187,0.007H72.752c-1.39,0-2.708,0.115-4.104,0.235l-0.174,0.015
	c-0.413,0.035-0.825,0.074-1.24,0.114c-0.157,0.016-0.358,0.062-0.57,0.109c-0.441,0.099-0.908,0.199-1.226,0.134
	c-0.266-0.053-0.47-0.227-0.633-0.367l-0.106-0.089c-0.107-0.088-0.144-0.211-0.156-0.324h-5.087c0.147,1.866,0.302,3.73,0.47,5.593
	c0.011,0.118,0.045,0.362,0.089,0.685c0.499,3.59,0.476,4.67-0.101,4.814c-1.904,0.478-3.817,0.848-5.85,1.131
	c-0.101,0.014-0.241,0.049-0.4,0.088C53.318,34.195,52.889,34.3,52.517,34.3z M50.593,23.901c0.332,0,0.707,0,0.723,0.331
	l0.232,2.903c0.096,1.202,0.191,2.402,0.318,3.601c0.033,0.296,0.062,0.595,0.09,0.895c0.062,0.639,0.124,1.299,0.229,1.932
	c0.008,0.044,0.022,0.137,0.332,0.137c0.3,0,0.69-0.095,1.005-0.172c0.184-0.045,0.345-0.083,0.461-0.1
	c1.987-0.277,3.86-0.638,5.724-1.103c0.147-0.333,0.052-1.734-0.285-4.165c-0.047-0.336-0.082-0.592-0.093-0.714
	c-0.178-1.972-0.34-3.946-0.496-5.922c-0.007-0.083,0.021-0.166,0.078-0.227c0.058-0.062,0.137-0.096,0.221-0.096h5.674
	c0.148,0,0.327,0.077,0.331,0.443c0,0.018,0.001,0.043,0.002,0.065l0.058,0.048c0.122,0.104,0.249,0.212,0.361,0.235
	c0.226,0.044,0.626-0.053,0.977-0.131c0.237-0.053,0.464-0.103,0.641-0.121c0.419-0.041,0.835-0.08,1.25-0.115l0.173-0.015
	c1.408-0.122,2.739-0.237,4.155-0.237h11.332c0.032,0,0.087-0.003,0.155-0.007c0.385-0.019,1.042-0.124,1.184,0.27
	c0.017,0.046,0.038,0.139-0.004,0.247c0.004,0.013,0.008,0.024,0.012,0.036c0.013,0.046,0.037,0.063,0.131,0.098
	c0.14,0.052,0.391,0.028,0.581,0.041c0.082,0.005,0.171,0.016,0.262,0.027c0.148,0.019,0.305,0.043,0.444,0.022
	c0.032-0.005,0.063-0.008,0.09-0.011v-0.054c0-0.205,0.104-0.547,0.797-0.547c0.16,0,0.334,0.016,0.485,0.03
	c0.101,0.01,0.189,0.019,0.254,0.019h1.916c0.332,0,0.665,0.066,0.987,0.129c0.498,0.098,0.978,0.172,1.34,0.057
	c0.216-0.068,0.242-0.152,0.2-0.639c-0.01-0.125-0.021-0.255-0.021-0.385c0-0.571,0.333-0.632,0.477-0.632
	c0.105,0,0.202,0.031,0.287,0.059c0.043,0.014,0.107,0.035,0.131,0.035c-0.001-0.086,0.057-0.213,0.114-0.34
	c0.234-0.521,0.527-1.169,1.225-1.169c0.21,0,0.434,0.061,0.683,0.185c0.284,0.143,0.548,0.011,0.901-0.196l0.104-0.062
	c0.281-0.168,0.356-0.195,0.771-0.195h5.367c0.196,0,0.355,0.062,0.483,0.112c0.088,0.035,0.164,0.064,0.239,0.071
	c2.313,0.209,3.968,0.203,5.584-0.007c0.231-0.055,0.301-0.332,0.22-0.981c-0.01-0.083-0.013-0.2-0.015-0.329
	c-0.004-0.177-0.011-0.546-0.065-0.637c-0.022-0.031-0.063-0.067-0.235-0.067c-0.066,0-0.135,0.005-0.202,0.01
	c-0.079,0.006-0.157,0.011-0.231,0.011l-11.157,0.006c-0.176,0-0.406-0.006-0.64-0.054c-0.118-0.024-0.193-0.067-0.242-0.095
	c-0.042-0.024-0.05-0.028-0.113-0.028H96c-0.011,0.005-0.053,0.025-0.1,0.044c-0.139,0.057-0.311,0.127-0.496,0.127
	c-0.122,0-0.234-0.074-0.28-0.187c-0.046-0.113-0.021-0.243,0.067-0.328c0.037-0.037,0.058-0.089,0.053-0.138
	c-0.005-0.042-0.028-0.061-0.045-0.072c-0.238-0.149-0.331-0.238-0.317-0.527l0.005-0.325c0.002-0.284,0.005-0.553-0.043-0.815
	c-0.146-0.826-0.296-1.678-0.598-2.542c-0.038-0.016-0.353-0.112-0.605-0.112c-0.057,0-0.079,0.005-0.079,0.006
	c-0.271,0.079-0.542,0.361-0.781,0.61l-0.17,0.175c-0.213,0.213,0.12,1.264,0.23,1.609c0.034,0.11,0.064,0.205,0.085,0.279
	c0.025,0.09,0.007,0.187-0.05,0.262c-0.058,0.075-0.146,0.118-0.239,0.118l-8.207,0c-0.68,0-0.785-0.115-1.23-0.724
	c-0.17-0.233-0.218-0.233-0.373-0.233l-0.383,0.007c-0.09,0-0.181-0.004-0.271-0.009c-0.28-0.014-0.519-0.007-0.656,0.086
	c-0.096,0.063-0.17,0.118-0.234,0.167c-0.247,0.183-0.408,0.29-0.844,0.372c-0.282,0.053-0.565,0.059-0.84,0.064l-0.298,0.008
	c-0.506,0.022-1.026,0.096-1.529,0.167c-0.629,0.089-1.278,0.18-1.93,0.18H51.924c-0.097,0-0.187-0.046-0.243-0.125
	c-0.057-0.078-0.072-0.178-0.042-0.27c0.349-1.047,1.374-1.556,2.278-2.005c0.195-0.097,0.388-0.192,0.568-0.291
	c0.118-0.065,0.2-0.089,0.254-0.105h0.001c0.008,0,0.031-0.026,0.088-0.119c0.021-0.035,0.049-0.094,0.08-0.16
	c0.15-0.312,0.271-0.541,0.457-0.642c0.255-0.135,0.663-0.12,1.089-0.066c0.213,0.026,0.429,0.059,0.588,0.029
	c0.794-0.149,1.769-0.029,2.655,0.108c0.252,0.039,0.503,0.078,0.75,0.108c1.028,0.131,2.146,0.131,3.043,0.131
	c0.06,0,0.185,0.006,0.352,0.014c0.314,0.016,0.786,0.039,1.236,0.039c0.869,0,1.042-0.091,1.059-0.102
	c0.038-0.082,0.12-0.205,0.203-0.331c0.215-0.324,0.437-0.659,0.539-0.997c0.211-0.701,0.257-2.031-0.149-2.605
	c-0.222-0.315-0.872-0.475-1.934-0.475c-0.158,0-0.307,0.003-0.438,0.005L63.61,6.827c-0.717,0.009-1.458,0.018-2.18,0.082
	l-1.38,0.127c-1.518,0.142-3.088,0.289-4.647,0.368c-0.907,0.045-1.885,0.009-2.664-0.117c-0.18-0.03-0.771-0.145-1.025-0.426
	c-0.075-0.064-0.131-0.143-0.181-0.212c-0.029-0.041-0.072-0.102-0.094-0.117c-0.15-0.017-0.335-0.055-0.52-0.094
	c-0.61-0.127-1.185-0.208-1.634,0.003c-0.245,0.074-0.29,0.143-0.379,0.278c-0.074,0.113-0.167,0.254-0.35,0.385
	c-0.129,0.091-0.299,0.105-0.545,0.117c-0.052,0.003-0.099,0.004-0.129,0.009c-0.376,0.059-0.745,0.059-1.102,0.06l-0.296,0.001
	c-0.865,0.009-1.729,0.027-2.594,0.061c-1.022,0.04-2.042,0.086-3.064,0.153c-0.607,0.037-1.233-0.081-1.84-0.194
	c-0.302-0.057-0.6-0.113-0.887-0.147c-1.858-0.224-3.843-0.104-5.702-0.167c-0.583-0.02-1.168-0.045-1.755-0.071
	c-1.225-0.054-2.491-0.109-3.727-0.109c-0.106,0-0.27-0.013-0.464-0.028c-0.263-0.021-0.586-0.048-0.894-0.048
	c-0.696,0-0.79,0.145-0.79,0.146c-0.034,0.202-0.104,0.383-0.172,0.559c-0.073,0.192-0.144,0.373-0.159,0.562
	c-0.044,0.503-0.047,0.925-0.01,1.415l0.014,0.194c0.077,1.209,0.156,1.7,0.217,1.887c0.19,0.015,0.382,0.032,0.573,0.049
	c0.775,0.07,1.61,0.125,2.261,0.032c0.546-0.078,1.26-0.061,1.958-0.024c0.262,0.014,0.523,0.027,0.782,0.032
	c1.28,0.024,2.56-0.011,3.841,0.042c0.584,0.023,1.164,0.03,1.604-0.039c0.965-0.154,1.933-0.303,2.899-0.451
	c0.091-0.015,0.181,0.013,0.247,0.074s0.103,0.148,0.099,0.238c-0.025,0.49,0.28,1.096,0.549,1.568
	c0.037,0.065,0.106,0.131,0.18,0.202c0.156,0.151,0.352,0.339,0.352,0.641l0.004,0.149c0.007,0.191,0.014,0.389-0.133,0.54
	c-0.127,0.132-0.28,0.179-0.613,0.117c-0.136-0.025-0.237-0.139-0.246-0.276c-0.008-0.138,0.078-0.263,0.21-0.305
	c0.024-0.122-0.401-0.522-0.601-0.572c-0.171-0.043-0.34-0.094-0.506-0.145c-0.593-0.181-1.124-0.306-1.571-0.051
	c-0.467,0.267-0.6,0.429-0.922,0.82l-0.081,0.098c-0.306,0.364-0.686,0.394-1.019,0.394l-0.267-0.002l-0.151,0.003
	c-0.441,0.02-0.883,0.021-1.324,0.021l-0.163,0c-0.412,0-0.825,0.001-1.236,0.018c-0.828,0-1.688,0.565-2.445,1.063
	c-0.182,0.12-0.358,0.236-0.529,0.341c-0.891,0.551-1.695,0.943-2.461,1.197c-0.162,0.054-0.317,0.081-0.464,0.081
	c-0.707,0-1.05-0.586-1.352-1.104c-0.089-0.153-0.179-0.308-0.278-0.445c-0.104-0.017-0.576,0.008-0.834,0.033
	c-0.104,0.01-0.186,0.018-0.226,0.018l-10.132,0.2c-0.127,0-0.27-0.004-0.422-0.008c-0.17-0.004-0.354-0.009-0.54-0.009
	c-0.544,0-1.303,0.037-1.611,0.354c-0.056,0.058-0.135,0.297-0.188,0.456c-0.137,0.411-0.291,0.875-0.7,0.893l-0.135,0.005
	c-0.395,0.017-0.792,0.033-1.188,0.033L7.236,17.78c-0.698,0-1.438,0.015-2.14,0.191c-0.079,0.02-0.164,0.036-0.25,0.053
	C4.372,18.114,4.3,18.173,4.3,18.328v0.101c-0.001,0.414-0.001,0.772,0.117,1.152c0.014,0.042,0.034,0.066,0.076,0.111
	c0.057,0.061,0.142,0.153,0.161,0.298l0.104,0.84c0.048,0.37,0.068,0.727,0.084,1.101l0.021,0.438
	c0.042,0.853,0.083,1.659-0.22,2.508c-0.057,0.159-0.045,0.382-0.032,0.619c0.011,0.206,0.022,0.419-0.011,0.625
	c-0.036,0.227-0.088,0.44-0.141,0.651c-0.082,0.333-0.16,0.647-0.16,0.99c0,1.34,0.183,1.79,1.261,1.812l0.21,0.002
	c1.479,0,3.068-0.311,4.859-0.949c3.089-1.101,7.155-2.564,11.22-4.125c1.775-0.682,3.554-1.299,4.905-1.761
	c0.146-0.05,0.297-0.106,0.451-0.163c0.602-0.223,1.284-0.475,1.942-0.475h6.408c0.558,0,1.009,0.267,1.272,0.752
	c0.376,0.691,0.321,1.771-0.124,2.456c-0.322,0.492-0.721,0.899-1.106,1.294c-0.442,0.453-0.861,0.881-1.163,1.42
	c-0.153,0.274-0.29,0.574-0.429,0.877c-0.206,0.449-0.418,0.912-0.69,1.318c0.041,0.026,0.081,0.054,0.121,0.082L36,32.151
	c0.96,0.694,1.366,0.834,1.544,0.834c0.288-0.099,0.488-0.299,0.684-0.654c0.527-0.962,0.994-1.977,1.445-2.958
	c0.317-0.691,0.636-1.383,0.977-2.065l0.041-0.091c0.118-0.27,0.279-0.638,0.592-0.704c0.181-0.037,0.354,0.066,0.584,0.223
	c0.047,0.032,0.088,0.062,0.117,0.076c0.435,0.203,0.821,0.417,1.216,0.67c0.16,0.104,0.605,0.119,0.9,0.129
	c0.168,0.006,0.323,0.012,0.443,0.026c0.37,0.046,0.575,0.075,0.886,0.015l1.796-0.352c0.259-0.05,0.589-0.536,0.822-1.208
	l0.592-1.698c-0.002-0.11-0.007-0.245,0.103-0.358c0.116-0.121,0.281-0.121,0.343-0.121h0.766c0.085,0,0.165,0.036,0.222,0.098
	C50.18,23.922,50.352,23.901,50.593,23.901z M45.118,25.966c-0.002,0-0.004,0-0.005,0c-0.168,0-0.337-0.006-0.504-0.012
	c-0.155-0.006-0.31-0.012-0.457-0.012c-0.317,0-2.259-0.296-2.578-1.077c-0.063-0.151-0.118-0.454,0.207-0.775
	c0.037-0.036,0.083-0.063,0.134-0.076c1.113-0.297,2.158-0.441,3.192-0.441c0.354,0,0.613-0.07,0.912-0.15
	c0.179-0.048,0.363-0.097,0.577-0.136c0.469-0.083,0.637,0.076,0.724,0.204c0.191,0.283,0.039,0.664-0.109,1.031
	c-0.039,0.098-0.077,0.193-0.104,0.279C46.733,25.962,45.605,25.966,45.118,25.966z M42.155,24.571
	c-0.018,0.024-0.032,0.05-0.026,0.066c0.139,0.338,1.59,0.705,2.023,0.705c0.155,0,0.316,0.006,0.479,0.012
	c0.159,0.006,0.321,0.012,0.481,0.012c0.861,0,1.246-0.203,1.422-0.748c0.031-0.098,0.074-0.208,0.119-0.319
	c0.048-0.118,0.128-0.317,0.15-0.434c-0.03,0.002-0.063,0.006-0.101,0.013c-0.196,0.036-0.365,0.082-0.529,0.125
	c-0.312,0.083-0.634,0.17-1.067,0.17C44.152,24.173,43.186,24.303,42.155,24.571z"/>
<rect id="sliceCopy_x5F_50_1_" x="113.817" fill="none" width="113.213" height="40"/>
<rect id="sliceCopy_x5F_49_1_" fill="none" width="113.816" height="40"/>
</svg>
