<?xml version="1.0" encoding="utf-8"?>
<!-- Generator: Adobe Illustrator 15.1.0, SVG Export Plug-In  -->
<!DOCTYPE svg PUBLIC "-//W3C//DTD SVG 1.1//EN" "http://www.w3.org/Graphics/SVG/1.1/DTD/svg11.dtd" [
	<!ENTITY ns_flows "http://ns.adobe.com/Flows/1.0/">
]>
<svg version="1.1"
	 xmlns="http://www.w3.org/2000/svg" xmlns:xlink="http://www.w3.org/1999/xlink" xmlns:a="http://ns.adobe.com/AdobeSVGViewerExtensions/3.0/"
	 x="0px" y="0px" width="88px" height="40px" viewBox="0.77 0 88 40" enable-background="new 0.77 0 88 40" xml:space="preserve">
<defs>
</defs>
<path d="M7.44,27.763c-0.501,0-1.012-0.17-1.272-0.272l-0.131-0.046c-0.252-0.084-0.632-0.212-0.717-0.59
	c-0.014-0.064-0.025-0.143-0.036-0.228c-0.015-0.112-0.046-0.346-0.095-0.398c-0.049-0.022-0.122-0.055-0.203-0.091
	c-0.5-0.223-1.336-0.596-1.283-1.343c0.047-0.658,0.384-1.127,0.71-1.582c0.074-0.104,0.15-0.21,0.225-0.32
	c0.883-1.309,1.983-2.473,3.271-3.462c1.356-1.042,2.914-1.571,4.42-2.083l0.355-0.121c1.02-0.348,2.073-0.708,3.146-0.878
	c0.376-0.06,0.753-0.129,1.132-0.198c0.861-0.158,1.753-0.321,2.638-0.375l4.781-0.292c2.003-0.123,4.043-0.13,6.016-0.137
	l6.449-0.034c0.295,0,0.591,0.007,0.884,0.031c0.772,0.064,1.417,0.24,1.969,0.539c0.076,0.041,0.139,0.079,0.193,0.111
	c0.022,0.013,0.048,0.028,0.07,0.042c0.02-0.021,0.048-0.054,0.087-0.103c0.054-0.066,0.132-0.107,0.217-0.112
	c0.08-0.01,0.168,0.026,0.229,0.086l0.025,0.025c0.147-0.103,0.347-0.073,0.516,0.04c0.05-0.02,0.105-0.037,0.168-0.044
	c0.031-0.064,0.083-0.121,0.145-0.15c0.088-0.043,0.201-0.055,0.286-0.008l0.034,0.021c0.11-0.102,0.285-0.115,0.404-0.064
	c0.082-0.08,0.215-0.127,0.352-0.105c0.025-0.045,0.061-0.085,0.101-0.111c0.061-0.038,0.13-0.073,0.205-0.064
	c0.019-0.063,0.058-0.118,0.111-0.157c0.077-0.057,0.178-0.072,0.27-0.042l0.003,0.001c0.009-0.015,0.02-0.029,0.03-0.041
	c0.063-0.069,0.166-0.126,0.249-0.122c0.041,0.003,0.084,0.009,0.127,0.016c0.041,0.006,0.081,0.013,0.12,0.013
	c0.036-0.017,0.075-0.053,0.117-0.091c0.142-0.127,0.303-0.272,0.484-0.313c0.021-0.005,0.096-0.013,0.118-0.013
	c0.181,0,0.404,0.079,0.621,0.154c0.09,0.032,0.173,0.062,0.231,0.075c4.677,1.058,9.759,1.481,15.101,1.251l0.301-0.013
	c2.304-0.098,4.687-0.199,6.988-0.493l4.813-0.614c2.397-0.307,4.799-0.961,7.122-1.594l4.382-1.219
	c0.143-0.038,0.285,0.027,0.349,0.153c0.064,0.127,0.03,0.283-0.082,0.372l-2.25,1.771c-1.524,1.201-3.101,2.443-4.724,3.572
	c-2.475,1.722-5.372,3.192-8.611,4.369c-2.331,0.847-4.982,1.483-8.346,2l-0.557,0.085c-0.492,0.075-0.983,0.15-1.475,0.229
	l-0.185,0.032c-0.467,0.086-0.678,0.055-1.028-0.232c-0.351-0.286-0.735-0.215-1.257,0.195c-0.026,0.02-0.05,0.043-0.074,0.066
	c-0.143,0.136-0.422,0.314-0.684,0.162l-0.08-0.049c-0.065-0.04-0.122-0.074-0.166-0.083c-0.574-0.11-0.738-0.13-1.107,0.065
	c-0.035,0.02-0.087,0.063-0.146,0.108c-0.228,0.177-0.378,0.286-0.544,0.289c-0.176,0-0.296-0.103-0.383-0.178
	c-0.021-0.018-0.042-0.038-0.063-0.05l-0.161-0.033c-0.269-0.064-0.503-0.107-0.702-0.021c-0.178,0.078-0.339,0.2-0.509,0.328
	l-0.068,0.051c-0.172,0.129-0.427,0.027-0.666-0.147c-0.145-0.094-0.503-0.187-0.674-0.187c-0.243,0.019-0.599,0.304-0.732,0.411
	c-0.053,0.043-0.124,0.067-0.192,0.067c-0.089,0-0.168-0.028-0.603-0.215c-0.107-0.046-0.201-0.087-0.237-0.1
	c-0.398-0.127-0.636-0.036-1.076,0.24c-0.256,0.161-0.559,0.048-0.744-0.06c-0.06-0.034-0.115-0.066-0.162-0.081
	c-0.081-0.025-0.16-0.054-0.238-0.082c-0.267-0.096-0.5-0.173-0.698-0.076c-0.052,0.026-0.138,0.1-0.213,0.165
	c-0.19,0.164-0.406,0.349-0.67,0.349h-2.431c-0.052,0-0.097,0.004-0.137,0.007c-0.364,0.032-0.536-0.097-0.616-0.417l-0.12-0.478
	l-0.893,0.893c-0.389,0.389-0.642,0.543-1.33,0.463c-0.739-0.085-0.953-0.434-1.226-0.875l-0.112-0.181
	c-0.276-0.436-0.545-0.723-0.943-1.101c-0.759-0.718-1.502-0.947-2.504-0.805c-0.641,0.09-1.263,0.314-1.799,0.649
	c-0.073,0.045-0.139,0.097-0.203,0.147c-0.186,0.145-0.396,0.309-0.708,0.331c-0.003,0-0.005,0-0.008,0
	c-0.401,0-0.729-0.175-1.017-0.331c-0.144-0.077-0.284-0.154-0.417-0.2c-0.663-0.234-1.305-0.353-1.909-0.353
	c-1.139,0.018-2.287,0.383-3.143,0.979c-0.058,0.04-0.127,0.099-0.201,0.162c-0.237,0.199-0.506,0.425-0.777,0.463
	c-0.479,0.068-0.883-0.081-1.267-0.225c-0.123-0.046-0.248-0.093-0.378-0.133c-1.703-0.522-3.348-0.788-4.888-0.788l-0.252,0.002
	c-0.937,0.018-1.759,0.109-2.442,0.271c-1.489,0.354-2.723,1.235-3.959,2.184c-0.094,0.072-0.183,0.145-0.271,0.216
	c-0.309,0.252-0.629,0.513-1.058,0.661L7.99,27.679C7.829,27.735,7.644,27.763,7.44,27.763z M36.847,15.914l-6.447,0.033
	c-1.964,0.007-3.995,0.015-5.98,0.136l-4.781,0.292c-0.85,0.052-1.723,0.211-2.566,0.366c-0.384,0.07-0.766,0.14-1.146,0.201
	c-1.021,0.162-2.051,0.514-3.046,0.854l-0.356,0.122c-1.46,0.496-2.97,1.008-4.248,1.99c-1.236,0.95-2.293,2.067-3.139,3.322
	c-0.078,0.115-0.157,0.226-0.235,0.335c-0.303,0.422-0.564,0.786-0.6,1.274c-0.022,0.328,0.551,0.583,0.93,0.753
	c0.09,0.04,0.172,0.077,0.239,0.11c0.318,0.16,0.37,0.557,0.409,0.847c0.009,0.066,0.017,0.127,0.027,0.176
	c0.007,0.032,0.115,0.083,0.321,0.152c0.057,0.019,0.11,0.037,0.159,0.056c0.296,0.115,1.019,0.314,1.408,0.179l1.163-0.401
	c0.328-0.113,0.581-0.319,0.874-0.558c0.092-0.076,0.187-0.152,0.284-0.228c1.29-0.989,2.581-1.909,4.186-2.292
	c0.726-0.172,1.59-0.269,2.569-0.287l0.264-0.002c1.601,0,3.304,0.274,5.063,0.814c0.143,0.043,0.278,0.094,0.412,0.144
	c0.349,0.13,0.636,0.242,0.973,0.193c0.102-0.015,0.345-0.219,0.475-0.329c0.091-0.076,0.175-0.146,0.244-0.195
	c0.95-0.662,2.223-1.068,3.406-1.086c0.002,0,0.078-0.001,0.08-0.001c0.672,0,1.382,0.13,2.107,0.387
	c0.159,0.055,0.329,0.145,0.503,0.238c0.238,0.128,0.486,0.261,0.673,0.261c0.148-0.01,0.246-0.081,0.406-0.207
	c0.081-0.063,0.164-0.127,0.255-0.184c0.607-0.379,1.311-0.632,2.032-0.733c1.202-0.172,2.113,0.123,3,0.963
	c0.434,0.411,0.728,0.727,1.037,1.215l0.117,0.188c0.25,0.405,0.334,0.542,0.783,0.594c0.373,0.044,0.479,0.067,0.838-0.292
	l1.267-1.267c0.076-0.076,0.188-0.106,0.292-0.077c0.104,0.029,0.185,0.111,0.211,0.216l0.24,0.957
	c0.053-0.004,0.112-0.008,0.18-0.008h2.431c0.053-0.01,0.199-0.136,0.278-0.204c0.106-0.092,0.218-0.188,0.336-0.247
	c0.372-0.186,0.809-0.083,1.17,0.048c0.07,0.025,0.142,0.051,0.213,0.073c0.111,0.034,0.203,0.087,0.284,0.134
	c0.046,0.027,0.115,0.067,0.141,0.07c0.435-0.284,0.923-0.508,1.564-0.301c0.039,0.013,0.156,0.062,0.29,0.119
	c0.104,0.045,0.221,0.096,0.31,0.132c0.28-0.214,0.601-0.416,0.915-0.44c0.004,0,0.008,0,0.011,0c0.313,0,0.777,0.106,0.992,0.236
	c0.021,0.013,0.053,0.035,0.09,0.063c0.019,0.013,0.049,0.035,0.079,0.056c0.172-0.129,0.353-0.258,0.57-0.354
	c0.341-0.148,0.736-0.094,1.08-0.013l0.182,0.041c0.129,0.027,0.222,0.107,0.296,0.171c0.002,0.001,0.003,0.003,0.005,0.004
	c0.037-0.036,0.115-0.097,0.164-0.134c0.093-0.072,0.178-0.136,0.231-0.164c0.503-0.266,0.906-0.239,1.446-0.134
	c0.206,0.04,0.325,0.112,0.421,0.17c0.013-0.012,0.026-0.025,0.038-0.036c0.038-0.037,0.078-0.073,0.117-0.104
	c0.762-0.597,1.441-0.648,2.007-0.187c0.174,0.143,0.237,0.143,0.284,0.143c0.073,0,0.153-0.017,0.255-0.036l0.198-0.035
	c0.493-0.079,0.986-0.154,1.479-0.229l0.556-0.084c3.323-0.512,5.939-1.138,8.232-1.971c3.19-1.16,6.042-2.606,8.475-4.298
	c1.608-1.119,3.177-2.355,4.694-3.551l1.072-0.844l-2.942,0.818c-2.342,0.638-4.765,1.298-7.203,1.609l-4.813,0.614
	c-2.327,0.298-4.723,0.399-7.039,0.498l-0.301,0.013c-5.394,0.229-10.529-0.196-15.259-1.266c-0.075-0.017-0.182-0.053-0.298-0.094
	c-0.128-0.045-0.344-0.121-0.422-0.121c-0.024,0.014-0.14,0.117-0.201,0.172c-0.059,0.053-0.113,0.101-0.158,0.134
	c-0.097,0.071-0.213,0.108-0.346,0.11c-0.017,0.053-0.046,0.101-0.084,0.135c-0.07,0.063-0.168,0.107-0.26,0.093
	c-0.016,0.079-0.063,0.149-0.132,0.194c-0.084,0.055-0.194,0.063-0.286,0.021l-0.012-0.005c-0.02,0.028-0.043,0.053-0.069,0.071
	c-0.078,0.054-0.182,0.094-0.272,0.063l-0.095-0.033c-0.002,0.005-0.005,0.011-0.007,0.017c-0.036,0.081-0.105,0.142-0.19,0.166
	c-0.085,0.022-0.177,0.01-0.25-0.038c-0.004-0.003-0.024-0.019-0.044-0.033c-0.079,0.061-0.201,0.097-0.313,0.074
	c-0.03,0.037-0.068,0.068-0.11,0.086c-0.096,0.042-0.214,0.046-0.298-0.011c-0.126,0.103-0.295,0.12-0.417,0.034
	c-0.016-0.011-0.029-0.021-0.042-0.03c-0.001,0.001-0.002,0.002-0.003,0.003c-0.055,0.063-0.146,0.114-0.229,0.117
	c-0.074-0.001-0.177-0.015-0.234-0.074l-0.019-0.018c-0.197,0.153-0.464,0.104-0.705-0.04c-0.048-0.028-0.104-0.062-0.17-0.098
	c-0.478-0.258-1.045-0.412-1.733-0.469C37.404,15.919,37.125,15.914,36.847,15.914z M33.88,19.035c-0.079,0-0.154-0.031-0.211-0.086
	c-0.057-0.057-0.089-0.133-0.089-0.213l-0.003-0.077c-0.018-0.481-0.006-0.628,0.106-0.744c0.057-0.059,0.144-0.096,0.225-0.096
	h2.439c0.085,0,0.165,0.036,0.223,0.099c0.057,0.063,0.084,0.146,0.076,0.231c-0.02,0.192-0.011,0.28,0.047,0.472
	c0.027,0.09,0.011,0.188-0.045,0.264c-0.056,0.076-0.145,0.122-0.238,0.123l-2.527,0.029C33.882,19.035,33.881,19.035,33.88,19.035z
	 M34.171,18.418c0,0.005,0,0.009,0.001,0.014l1.197-0.014H34.171z"/>
<rect id="sliceCopy_x5F_23_1_" x="88" fill="none" width="73.203" height="40"/>
<rect id="sliceCopy_x5F_22_1_" fill="none" width="88" height="40"/>
</svg>
