<?xml version="1.0" encoding="utf-8"?>
<!-- Generator: Adobe Illustrator 15.1.0, SVG Export Plug-In  -->
<!DOCTYPE svg PUBLIC "-//W3C//DTD SVG 1.1//EN" "http://www.w3.org/Graphics/SVG/1.1/DTD/svg11.dtd" [
	<!ENTITY ns_flows "http://ns.adobe.com/Flows/1.0/">
]>
<svg version="1.1"
	 xmlns="http://www.w3.org/2000/svg" xmlns:xlink="http://www.w3.org/1999/xlink" xmlns:a="http://ns.adobe.com/AdobeSVGViewerExtensions/3.0/"
	 x="0px" y="0px" width="50px" height="40px" viewBox="0.566 0 50 40" enable-background="new 0.566 0 50 40" xml:space="preserve">
<defs>
</defs>
<path d="M17.516,36.3c-0.138,0-0.253-0.01-0.331-0.025L5.413,33.921c-0.117-0.023-0.237-0.04-0.354-0.055
	c-0.537-0.072-1.271-0.171-1.34-1.068c-0.115-1.479,0.314-2.909,0.729-4.293l0.138-0.461C5.029,26.54,5.591,24.76,6.4,22.964
	c0.679-1.506,1.22-2.767,1.704-3.97c0.303-0.75,0.499-1.347,0.637-1.935c0.257-1.113,0.09-1.53-0.852-2.123
	c-0.379-0.24-0.815-0.395-1.278-0.559c-0.639-0.227-1.299-0.46-1.831-0.939c-0.783-0.704-0.993-2.132-0.642-4.365
	c0.147-0.942,0.922-2.028,1.486-2.822l0.184-0.258c0.374-0.533,0.873-1.18,1.412-1.45c0.265-0.132,0.639-0.131,1.021-0.089
	c0.271,0.031,0.54,0.046,0.68-0.032c0.019-0.019,0.066-0.126,0.095-0.19c0.078-0.173,0.176-0.39,0.388-0.486
	c0.17-0.078,0.475-0.033,0.744,0.02c0.071,0.014,0.133,0.027,0.175,0.031c0.04,0.004,0.1,0.003,0.169,0.004
	c0.354,0.001,0.599,0.011,0.757,0.139c0.117,0.092,0.152,0.241,0.197,0.43c0.005,0.019,0.011,0.042,0.017,0.065H25.25
	c0.09,0,0.236,0.064,0.294,0.133c0.085,0.104,0.093,0.224,0.082,0.327h5.464c-0.004-0.192,0.001-0.279,0.09-0.37
	c0.057-0.057,0.134-0.09,0.215-0.09L44.009,4.39c0.12,0,0.235-0.004,0.346-0.007c0.545-0.015,1.034-0.042,1.639,0.295
	c0.587,0.367,0.597,0.995,0.604,1.499c0.002,0.091,0.003,0.182,0.008,0.269l0.131,2.381c0.044,0.802,0.024,1.617,0.005,2.404
	c-0.007,0.305-0.015,0.61-0.019,0.915l-0.001,0.112c-0.007,0.724-0.024,2.417-1.273,2.434l-8.071,0.119
	c-0.219,0-0.45-0.01-0.687-0.02c-0.608-0.026-1.224-0.03-1.624,0.063c-0.957,0.219-1.266,0.534-1.271,1.295
	c-0.006,0.599,0.068,1.215,0.14,1.812l0.062,0.529c0.045,0.399,0.109,0.796,0.175,1.193l0.048,0.301
	c0.033,0.203-0.012,0.391-0.128,0.543c-0.27,0.351-0.83,0.41-1.28,0.457c-0.097,0.01-0.183,0.019-0.252,0.03
	c-2.31,0.385-4.276,0.545-6.145,0.491l-5.698-0.168c-0.249,0.436-0.85,2.278-1.056,2.911c-0.091,0.277-0.158,0.485-0.19,0.571
	l-0.247,0.668c-0.522,1.408-1.062,2.864-1.515,4.318c-0.2,0.644-0.146,1.284-0.088,1.961c0.015,0.168,0.029,0.338,0.041,0.511
	l0.127,1.95c0.055,0.112,0.559,0.367,0.749,0.463c0.129,0.065,0.241,0.123,0.315,0.169c0.384,0.24,0.538,0.501,0.459,0.776
	C19.122,36.293,17.581,36.3,17.516,36.3z M7.799,5.024c-0.134,0-0.231,0.018-0.309,0.057C7.017,5.318,6.495,6.06,6.299,6.339
	L6.114,6.6C5.584,7.345,4.857,8.365,4.73,9.167c-0.389,2.477,0.031,3.448,0.451,3.826c0.444,0.399,1.02,0.604,1.63,0.82
	c0.474,0.167,0.963,0.341,1.398,0.617c1.16,0.731,1.431,1.403,1.115,2.766c-0.145,0.621-0.35,1.244-0.664,2.023
	c-0.487,1.21-1.032,2.479-1.714,3.992c-0.795,1.762-1.349,3.518-1.785,5.002l-0.139,0.464c-0.399,1.331-0.813,2.708-0.707,4.074
	c0.029,0.382,0.225,0.439,0.822,0.52c0.13,0.018,0.263,0.036,0.392,0.062l11.771,2.354c0.051,0.01,0.125,0.013,0.214,0.013
	c0.484,0,0.996-0.109,1.177-0.214c-0.03-0.028-0.079-0.068-0.159-0.118c-0.063-0.039-0.158-0.087-0.269-0.143
	c-0.492-0.249-1.05-0.531-1.077-0.96l-0.127-1.949c-0.011-0.169-0.024-0.335-0.039-0.499c-0.063-0.738-0.123-1.435,0.113-2.191
	c0.457-1.469,1-2.933,1.524-4.348l0.247-0.667c0.03-0.083,0.096-0.284,0.183-0.551c1.032-3.166,1.192-3.327,1.501-3.327l5.841,0.172
	c1.83,0.055,3.759-0.105,6.028-0.483c0.078-0.013,0.178-0.024,0.288-0.036c0.264-0.027,0.754-0.079,0.866-0.225
	c0.008-0.009,0.021-0.027,0.013-0.083l-0.049-0.299c-0.066-0.407-0.132-0.814-0.178-1.224l-0.062-0.523
	c-0.073-0.615-0.15-1.251-0.144-1.889c0.01-1.3,0.841-1.669,1.736-1.875c0.291-0.067,0.622-0.098,1.044-0.098
	c0.246,0,0.496,0.01,0.74,0.021c0.228,0.01,0.45,0.019,0.662,0.019l8.062-0.118c0.585-0.008,0.673-0.935,0.682-1.84l0.002-0.114
	c0.004-0.306,0.011-0.614,0.019-0.921c0.019-0.776,0.038-1.578-0.005-2.357l-0.131-2.38C46,6.383,45.998,6.285,45.997,6.186
	c-0.008-0.501-0.032-0.817-0.309-0.991c-0.413-0.229-0.81-0.226-1.317-0.211c-0.115,0.003-0.234,0.006-0.36,0.006L31.693,5.035
	c0.002,0.194-0.009,0.282-0.095,0.37c-0.057,0.058-0.136,0.091-0.217,0.091h-5.993c-0.124,0-0.232-0.049-0.306-0.137
	c-0.084-0.103-0.096-0.22-0.087-0.323H11.28c-0.293,0-0.365-0.304-0.418-0.525c-0.009-0.036-0.017-0.072-0.024-0.104
	c-0.081-0.004-0.263-0.004-0.349-0.004c-0.095,0-0.177-0.001-0.227-0.007c-0.053-0.005-0.137-0.021-0.232-0.04
	C9.909,4.332,9.765,4.3,9.656,4.3C9.64,4.309,9.592,4.416,9.563,4.479C9.487,4.649,9.4,4.842,9.214,4.947
	C8.952,5.093,8.576,5.096,8.177,5.052C8.05,5.039,7.922,5.024,7.799,5.024z M25.426,20.243c-0.893,0-1.612-0.112-2.138-0.333
	c-0.938-0.395-1.136-1.077-1.136-1.58l-0.004-0.334c-0.012-0.828-0.024-1.685,0.583-2.416c0.612-0.661,1.298-0.749,1.89-0.749
	c0.204,0,0.415,0.012,0.633,0.023c0.367,0.019,0.428,0.346,0.537,1.741c0.009,0.111,0.015,0.196,0.02,0.236
	c0.054,0.452,0.869,1.122,1.604,1.553l0.184,0.108c0.304,0.183,0.572,0.344,0.856,0.382c-0.006-0.001-0.012-0.003-0.018-0.005
	c-0.487-0.153-0.811-0.378-1.052-0.707c-0.088-0.118-0.187-0.24-0.288-0.365c-0.399-0.493-0.852-1.052-0.935-1.708
	c-0.058-0.461-0.056-0.791,0.137-1.008c0.178-0.202,0.439-0.219,0.692-0.219l3.96,0.045c0.071-0.051,0.159-0.08,0.256-0.08
	c0.439,0,1.133,0.665,1.244,0.822c0.479,0.813,0.485,1.781,0.431,2.623c-0.006,0.088-0.006,0.184-0.007,0.282
	c-0.002,0.491-0.005,1.164-0.639,1.472c-0.194,0.096-0.454,0.142-0.791,0.142c-0.222,0-0.451-0.02-0.651-0.037l-0.218-0.018
	c-0.974-0.065-2.262-0.109-3.293,0.007C26.78,20.177,26.115,20.243,25.426,20.243z M24.621,15.431c-0.561,0-1.021,0.093-1.439,0.544
	c-0.454,0.548-0.443,1.259-0.433,2.012l0.003,0.343c0,0.48,0.244,0.806,0.769,1.027c0.451,0.19,1.093,0.286,1.905,0.286
	c0.659,0,1.303-0.063,1.79-0.119c0.336-0.038,0.68-0.063,1.042-0.075c-0.356-0.075-0.667-0.261-0.969-0.442l-0.178-0.105
	c-0.419-0.246-1.792-1.114-1.896-2.001c-0.005-0.045-0.013-0.138-0.022-0.259c-0.019-0.242-0.07-0.904-0.129-1.197
	C24.906,15.437,24.762,15.431,24.621,15.431z M28.938,19.441c0.602,0.005,1.183,0.04,1.68,0.073l0.229,0.019
	c0.401,0.034,0.922,0.053,1.127-0.046c0.278-0.136,0.3-0.444,0.302-0.936c0-0.11,0.001-0.217,0.007-0.317
	c0.05-0.752,0.048-1.608-0.334-2.259c-0.071-0.098-0.481-0.439-0.683-0.528c-0.053,0.04-0.105,0.066-0.185,0.061l-4.09-0.046
	c-0.182,0-0.235,0.015-0.251,0.023c0.003,0.003-0.037,0.097,0.018,0.528c0.062,0.487,0.439,0.954,0.805,1.406
	c0.107,0.132,0.212,0.261,0.305,0.386c0.167,0.227,0.385,0.377,0.687,0.473c0.529,0.15,0.962,0.302,0.971,0.654
	c0.005,0.209-0.143,0.366-0.438,0.466C29.036,19.416,28.987,19.43,28.938,19.441z"/>
<rect id="sliceCopy_x5F_25_1_" x="50.462" fill="none" width="50.022" height="40"/>
<rect id="sliceCopy_x5F_24_1_" fill="none" width="50.463" height="40"/>
</svg>
