<?xml version="1.0" encoding="utf-8"?>
<!-- Generator: Adobe Illustrator 15.1.0, SVG Export Plug-In  -->
<!DOCTYPE svg PUBLIC "-//W3C//DTD SVG 1.1//EN" "http://www.w3.org/Graphics/SVG/1.1/DTD/svg11.dtd" [
	<!ENTITY ns_flows "http://ns.adobe.com/Flows/1.0/">
]>
<svg version="1.1"
	 xmlns="http://www.w3.org/2000/svg" xmlns:xlink="http://www.w3.org/1999/xlink" xmlns:a="http://ns.adobe.com/AdobeSVGViewerExtensions/3.0/"
	 x="0px" y="0px" width="93px" height="40px" viewBox="0.769 0 93 40" enable-background="new 0.769 0 93 40" xml:space="preserve">
<defs>
</defs>
<path d="M36.705,29.413c-0.155,0-0.318-0.003-0.421-0.005l-0.088-0.001l-0.111,0.002c-0.002,0-0.005,0-0.007,0
	c-0.259,0-0.387-0.07-0.454-0.207c-0.048-0.097-0.048-0.193-0.048-0.338v-3.896c0.002-0.054,0.004-0.11,0.006-0.163h-3.26
	c-0.32,0-0.413-0.03-0.618-0.125l-0.118-0.053c-0.347-0.154-0.562-0.147-0.725,0.056c-0.22,0.274-0.636,0.187-0.908,0.163
	c-0.059-0.005-0.108-0.01-0.14-0.01h-1.419c-0.055,0-0.112,0.004-0.17,0.008c-0.071,0.004-0.144,0.009-0.215,0.009
	c-0.168,0-0.416-0.023-0.613-0.219c-0.133-0.133-0.383-0.18-0.533-0.095l0,0c0.006,0-0.016,0.024-0.039,0.05
	c-0.116,0.126-0.225,0.246-0.396,0.246H23.62c-0.159,0-0.262-0.107-0.381-0.23c-0.036-0.038-0.096-0.101-0.12-0.117
	c-0.083,0.006-0.129,0.038-0.227,0.115c-0.123,0.098-0.293,0.232-0.548,0.232h-2.526c-0.264,0-0.442-0.154-0.574-0.267
	c-0.057-0.048-0.134-0.115-0.165-0.115c-0.005,0-0.034,0.002-0.096,0.043c-0.087,0.058-0.137,0.104-0.176,0.138
	c-0.166,0.15-0.278,0.2-0.618,0.2H15.65c-0.217,0-0.316-0.104-0.38-0.195c-0.024-0.017-0.052-0.044-0.071-0.067
	c-0.102-0.124-0.146-0.072-0.282-0.028l-0.167,0.054c-0.192,0.063-0.344,0.114-0.66,0.114c-0.121,0-0.25-0.007-0.383-0.016
	c-0.25-0.016-0.521-0.024-0.688,0.01c-0.193,0.04-0.413,0.145-0.626,0.247c-0.114,0.055-0.228,0.109-0.336,0.153
	c-0.262,0.107-0.54,0.12-0.727,0.12c-0.115,0-0.231-0.005-0.346-0.011c-0.102-0.005-0.202-0.01-0.299-0.01h-5.91
	c-0.23,0-0.349-0.182-0.637-0.808c-0.034-0.073-0.078-0.148-0.125-0.229c-0.146-0.251-0.313-0.537-0.313-0.805L3.701,21.91
	c-0.002-0.479-0.003-0.958,0.011-1.437c0.006-0.203,0.001-0.415-0.004-0.63c-0.011-0.519-0.022-1.055,0.095-1.554
	c0.137-0.583,0.68-1.188,1.351-1.188l5.033,0.024c0.11,0,0.236-0.01,0.37-0.02c0.408-0.031,0.833-0.038,1.1,0.061l0.165,0.06
	c0.61,0.224,1.051,0.385,1.66,0.385l0.075,0c0.074-0.001,0.146-0.008,0.219-0.014c0.096-0.008,0.189-0.016,0.28-0.016
	c0.187,0,0.462,0.027,0.692,0.258c0.067,0.067,0.104,0.067,0.12,0.067c0.07,0,0.179-0.052,0.293-0.107l0.085-0.041
	c0.068-0.032,0.12-0.059,0.163-0.082c0.199-0.104,0.305-0.144,0.626-0.144h2.384c0.183,0,0.287,0.131,0.35,0.209
	c0.022,0.022,0.081,0.047,0.142,0.075c0.065,0.029,0.188,0.084,0.23,0.086c0.049-0.004,0.218-0.061,0.264-0.095
	c0.021-0.064,0.134-0.275,0.377-0.275l2.4,0.028c0.283,0.003,0.462,0.149,0.593,0.256c0.109,0.089,0.154,0.121,0.223,0.121
	c0.147-0.003,0.268-0.057,0.329-0.124c0.062-0.095,0.188-0.25,0.357-0.25h2.774c0.195,0,0.342,0.126,0.471,0.238
	c0.055,0.047,0.146,0.126,0.185,0.135c0.001,0,0.002,0,0.004,0c0.091,0,0.149-0.042,0.255-0.124c0.137-0.105,0.324-0.25,0.603-0.25
	h2.518c0.199,0,0.293,0.047,0.402,0.203c0.085,0.12,0.195,0.227,0.356,0.227c0.114-0.015,0.147-0.05,0.219-0.137
	c0.097-0.117,0.242-0.292,0.507-0.292h3.608c-0.001-0.061-0.011-0.147-0.018-0.21c-0.011-0.099-0.021-0.2-0.021-0.293v-6.101
	c0-0.24,0.187-0.362,0.554-0.362c0.108,0,0.228,0.007,0.313,0.013l0.081,0.005c0.022,0,0.059-0.004,0.102-0.009
	c0.09-0.009,0.201-0.019,0.302-0.019c0.506,0,0.545,0.307,0.545,0.401V17c0,0.077,0.002,0.133,0.004,0.174l0.077-0.001
	c0.083-0.004,0.184-0.009,0.303-0.009h2.531c0.115,0,0.246-0.083,0.384-0.169c0.174-0.109,0.371-0.233,0.61-0.233l29.551,0.12
	l0.514-0.006c0.196,0,0.392,0.008,0.584,0.038l17.046,2.631c0.114,0.018,0.208,0.099,0.241,0.209s0.001,0.23-0.084,0.308
	c-1.209,1.107-2.57,2.25-4.335,3.113c-2.108,1.028-4.521,1.672-7.591,2.027c-1.992,0.23-3.725,0.343-5.297,0.345l-34.54,0.061
	l-0.029,3.481C37.411,29.413,37.1,29.413,36.705,29.413z M36.196,28.807l0.509,0.006c0.037,0,0.074,0,0.108,0l0.027-3.28
	l-0.001-0.081c-0.002-0.102-0.004-0.229,0.102-0.336c0.106-0.108,0.239-0.108,0.327-0.108l34.711-0.06
	c1.55-0.002,3.26-0.114,5.229-0.341c3.001-0.348,5.351-0.974,7.396-1.971c1.476-0.721,2.668-1.655,3.727-2.595l-16.423-2.535
	c-0.162-0.025-0.327-0.031-0.492-0.031l-0.505,0.006l-29.56-0.12c-0.066,0-0.186,0.075-0.29,0.141
	c-0.186,0.117-0.416,0.261-0.704,0.261h-2.531c-0.108,0-0.198,0.005-0.273,0.008c-0.063,0.003-0.116,0.005-0.162,0.005
	c-0.086,0-0.346,0-0.473-0.247c-0.064-0.125-0.075-0.27-0.075-0.53v-5.811c-0.065,0.003-0.132,0.01-0.188,0.015
	c-0.112,0.012-0.14,0.015-0.28,0.005c-0.063-0.004-0.147-0.01-0.229-0.011v5.863c0,0.072,0.01,0.15,0.019,0.227
	c0.026,0.239,0.057,0.51-0.119,0.707c-0.069,0.078-0.198,0.17-0.42,0.17h-3.648c0.017,0.002-0.02,0.046-0.044,0.075
	c-0.096,0.115-0.24,0.29-0.506,0.338c-0.395,0.076-0.746-0.091-0.985-0.413l-2.467,0c-0.07,0-0.13,0.043-0.237,0.125
	c-0.137,0.105-0.324,0.249-0.601,0.249c-0.013,0-0.088-0.004-0.1-0.006c-0.212-0.027-0.372-0.165-0.501-0.276
	c-0.041-0.035-0.103-0.089-0.127-0.101l-2.595,0.008c-0.003,0.004-0.006,0.008-0.008,0.011c-0.005,0.007-0.01,0.014-0.016,0.02
	c-0.172,0.204-0.466,0.34-0.732,0.34c-0.38,0.006-0.532-0.145-0.664-0.253c-0.106-0.087-0.153-0.12-0.22-0.121l-2.278-0.027
	c-0.008,0.016-0.016,0.028-0.017,0.029c-0.142,0.234-0.616,0.339-0.741,0.339c-0.173-0.002-0.333-0.075-0.475-0.138
	c-0.045-0.02-0.087-0.04-0.125-0.053c-0.106-0.036-0.175-0.115-0.227-0.179h-2.277c-0.203,0-0.217,0.007-0.347,0.076
	c-0.05,0.026-0.109,0.058-0.188,0.094l-0.078,0.038c-0.319,0.153-0.771,0.252-1.098-0.076c-0.05-0.049-0.114-0.082-0.269-0.082
	c-0.075,0-0.152,0.007-0.23,0.013c-0.085,0.007-0.17,0.014-0.256,0.016l-0.088,0.001c-0.716,0-1.224-0.186-1.866-0.421l-0.164-0.06
	c-0.171-0.063-0.53-0.051-0.851-0.026c-0.149,0.011-0.291,0.021-0.413,0.021l-5.03-0.024c-0.355,0-0.69,0.382-0.771,0.725
	c-0.1,0.425-0.089,0.922-0.079,1.404c0.005,0.225,0.01,0.447,0.004,0.659c-0.014,0.473-0.012,0.946-0.011,1.419l0.001,1.455
	c0,0.106,0.145,0.355,0.231,0.503c0.057,0.098,0.109,0.189,0.146,0.266c0.12,0.262,0.193,0.401,0.235,0.474h5.772
	c0.106,0,0.216,0.005,0.327,0.01c0.325,0.016,0.629,0.012,0.816-0.065c0.098-0.04,0.2-0.089,0.305-0.14
	c0.245-0.117,0.498-0.238,0.764-0.293c0.227-0.047,0.541-0.041,0.845-0.021c0.12,0.007,0.237,0.015,0.347,0.015
	c0.22,0,0.298-0.026,0.471-0.084l0.181-0.058c0.407-0.126,0.671-0.056,0.892,0.187c0.035,0.027,0.063,0.054,0.083,0.078l2.474,0
	c0.136,0,0.172-0.009,0.18-0.011c0.09-0.083,0.159-0.146,0.281-0.227c0.143-0.096,0.287-0.145,0.429-0.145
	c0.254,0,0.429,0.15,0.557,0.26c0.069,0.06,0.142,0.122,0.183,0.122h2.526c0.042,0,0.086-0.031,0.175-0.103
	c0.164-0.129,0.443-0.308,0.806-0.205c0.134,0.038,0.237,0.146,0.348,0.261c0.015,0.016,0.03,0.031,0.044,0.046h2.618
	c0.015-0.017,0.03-0.034,0.046-0.051c0.067-0.073,0.12-0.131,0.188-0.169c0.364-0.209,0.933-0.125,1.25,0.193
	c0.029,0.029,0.176,0.05,0.365,0.036c0.071-0.004,0.142-0.009,0.21-0.009h1.419c0.042,0,0.11,0.005,0.191,0.012
	c0.142,0.013,0.363,0.021,0.428,0.013c0.329-0.372,0.812-0.443,1.396-0.183l0.128,0.058c0.14,0.065,0.151,0.07,0.366,0.07h3.535
	c0.081,0,0.165,0.036,0.222,0.095c0.107,0.111,0.112,0.252,0.099,0.626l-0.002,3.881H36.196z M76.634,21.499h-1.897
	c-0.519,0-0.862-0.806-0.862-1.133c-0.024-0.226,0.158-0.699,0.377-0.945c0.128-0.144,0.27-0.218,0.422-0.221l1.077-0.019
	c0.049-0.001,0.103-0.006,0.159-0.011c0.286-0.025,0.577-0.01,0.756,0.118c0.467,0.265,0.684,0.72,0.571,1.233
	C77.175,20.906,77.081,21.499,76.634,21.499z M76.174,19.754c-0.07,0-0.143,0.007-0.211,0.013c-0.073,0.007-0.143,0.013-0.204,0.013
	L74.685,19.8c-0.049,0.047-0.211,0.417-0.212,0.543c0.004,0.155,0.185,0.515,0.288,0.56l1.779-0.003
	c0.025-0.061,0.057-0.179,0.093-0.407l0.018-0.1c0.021-0.094,0.083-0.378-0.308-0.601C76.313,19.774,76.284,19.754,76.174,19.754z"
	/>
<rect id="sliceCopy_x5F_18_1_" x="92.999" fill="none" width="93" height="40"/>
<rect id="sliceCopy_x5F_17_1_" fill="none" width="93" height="40"/>
</svg>
