<?xml version="1.0" encoding="utf-8"?>
<!-- Generator: Adobe Illustrator 15.1.0, SVG Export Plug-In  -->
<!DOCTYPE svg PUBLIC "-//W3C//DTD SVG 1.1//EN" "http://www.w3.org/Graphics/SVG/1.1/DTD/svg11.dtd" [
	<!ENTITY ns_flows "http://ns.adobe.com/Flows/1.0/">
]>
<svg version="1.1"
	 xmlns="http://www.w3.org/2000/svg" xmlns:xlink="http://www.w3.org/1999/xlink" xmlns:a="http://ns.adobe.com/AdobeSVGViewerExtensions/3.0/"
	 x="0px" y="0px" width="93px" height="40px" viewBox="0.77 0 93 40" enable-background="new 0.77 0 93 40" xml:space="preserve">
<defs>
</defs>
<path d="M36.545,32.03c-0.01,0-0.98-0.082-0.99-0.532l-0.057-5.678c-0.197-0.045-0.274-0.214-0.306-0.454c-0.004,0-0.007,0-0.01,0
	l-3.907-0.088c-0.204-0.007-0.295-0.164-0.352-0.319c-0.074,0.24-0.202,0.344-0.391,0.35l-3.002,0.112c0,0-0.001,0-0.002,0
	c-0.415,0-0.524-0.236-0.597-0.392c-0.006-0.013-0.013-0.027-0.02-0.042c-0.032,0.021-0.066,0.049-0.08,0.07
	c-0.212,0.423-0.771,0.423-0.954,0.423c-0.176,0-0.36-0.016-0.528-0.031c-0.124-0.011-0.238-0.022-0.329-0.022h-1.897
	c-0.283,0-0.389-0.25-0.439-0.393c-0.078,0.157-0.202,0.331-0.52,0.336l-2.767,0.053c-0.298,0-0.428-0.114-0.577-0.319
	c-0.063,0.121-0.132,0.245-0.255,0.314c-0.157,0.091-0.473,0.068-0.753,0.03c-0.068-0.009-0.127-0.018-0.165-0.02l-2.486-0.089
	c-0.299-0.01-0.423-0.273-0.49-0.415c-0.005-0.01-0.01-0.022-0.016-0.034c-0.164,0.011-0.244,0.055-0.401,0.142
	c-0.062,0.034-0.129,0.07-0.209,0.11l-0.116,0.06c-0.203,0.106-0.413,0.217-0.7,0.234c-1.302,0.076-2.714,0.134-4.444,0.183
	c-0.604,0.019-1.199-0.006-1.801-0.03l-0.193-0.005c-0.266-0.003-0.598-0.007-0.84-0.13c-0.067-0.035-0.115-0.085-0.201-0.177
	c-0.006-0.007-0.012-0.013-0.018-0.02l-0.358,0.032c-0.071,0.006-0.146,0.02-0.221,0.033c-0.434,0.075-0.818,0.034-1.027-0.258
	c-0.183-0.254-0.169-0.569-0.158-0.822c0.003-0.062,0.006-0.121,0.005-0.176c-0.008-0.376-0.066-0.723-0.128-1.091
	c-0.047-0.279-0.094-0.56-0.12-0.856c-0.068-0.777,0.021-1.531,0.105-2.26c0.062-0.529,0.126-1.076,0.126-1.614l-0.002-0.151
	c-0.003-0.272-0.007-0.553,0.095-0.853c0.077-0.232,0.303-0.351,0.671-0.351c0.08,0,0.159,0.005,0.227,0.009l0.092,0.005
	c0.729,0,1.385-0.067,1.984-0.139c0.712-0.085,1.636-0.05,2.517,0.002c0.38,0.023,0.758,0.045,1.127,0.053l2.471,0.051
	c0.269,0.006,0.515,0.127,0.731,0.235c0.067,0.034,0.134,0.066,0.197,0.093l0.173,0.077c0.146,0.067,0.19,0.087,0.331,0.087
	l0.088-0.002c-0.019-0.005,0.002-0.042,0.017-0.067c0.07-0.123,0.2-0.352,0.491-0.363l2.508-0.092
	c0.038-0.001,0.093-0.01,0.154-0.018c0.245-0.033,0.51-0.051,0.664,0.023c0.154,0.075,0.25,0.201,0.32,0.302
	c0.221-0.261,0.33-0.332,0.657-0.332l2.648,0c0.339,0,0.47,0.266,0.533,0.394c0.004,0.008,0.01,0.019,0.015,0.029
	c0.08-0.189,0.183-0.421,0.426-0.423l3.292-0.029c0.283,0,0.378,0.257,0.409,0.341c0,0,0.021,0.045,0.029,0.065l0.003,0
	c0.046-0.003,0.076-0.004,0.098-0.007c-0.004-0.006,0.005-0.022,0.016-0.042l0.041-0.073c0.045-0.1,0.141-0.314,0.398-0.314
	l2.438,0.092c0.027,0.003,0.087-0.003,0.14-0.006c0.084-0.005,0.182-0.011,0.272-0.011c0.208,0,0.339,0.03,0.436,0.102
	c0.126,0.093,0.159,0.238,0.185,0.356c0.002,0,0.003,0,0.004,0c0.084-0.226,0.192-0.41,0.581-0.422l3.661-0.109l0,0
	c0.021,0,0.041,0,0.061,0.002l0.012-0.159c0.008-0.128,0.096-0.267,0.271-0.305V8.586c0-0.374,0.359-0.616,0.917-0.616
	c0.523,0,1.089,0.224,1.095,0.717l0.084,7.147c0,0.024,0.001,0.055,0.001,0.086l0.193-0.004h3.954
	c0.131-0.011,0.208-0.018,0.277-0.018c0.104,0,0.254,0.012,0.362,0.117l0.151,0.136c0.195,0.173,0.418,0.369,0.549,0.651
	l0.434,0.937c0.107-0.05,0.264-0.172,0.296-0.243c-0.002-0.149-0.146-0.418-0.438-0.754c-0.078-0.09-0.096-0.219-0.044-0.327
	s0.137-0.171,0.283-0.17l1.514,0.063l0.205-0.003c0.138-0.003,0.317-0.008,0.495-0.008c0.613,0,0.851,0.037,0.957,0.244
	c0.054,0.104,0.104,0.222,0.157,0.343c0.128,0.295,0.272,0.63,0.483,0.751c0.105,0.059,0.254,0.057,0.302,0.003
	c0.027-0.032,0.024-0.089,0.018-0.131c-0.027-0.183-0.153-0.434-0.328-0.657c-0.074-0.094-0.084-0.224-0.026-0.329
	c0.058-0.105,0.173-0.16,0.292-0.155l1.452,0.138c0.405,0.029,0.581,0.083,0.824,0.542c0.038,0.073,0.074,0.155,0.111,0.24
	c0.09,0.207,0.192,0.44,0.327,0.461c0.047,0.008,0.082,0.012,0.113,0.012c0.129-0.084,0.05-0.5-0.137-0.777
	c-0.062-0.092-0.068-0.21-0.016-0.309c0.052-0.098,0.153-0.159,0.265-0.159l1.538-0.002c0.429,0,0.539,0.185,0.712,0.541
	c0.032,0.066,0.063,0.141,0.096,0.217c0.136,0.327,0.215,0.464,0.355,0.464c0.122-0.006,0.202-0.031,0.217-0.064
	c0.048-0.105-0.061-0.433-0.271-0.699c-0.072-0.09-0.086-0.213-0.036-0.317c0.051-0.104,0.155-0.169,0.271-0.169l1.579-0.005
	c0.42,0,0.554,0.18,0.74,0.563l0.081,0.176c0.152,0.341,0.234,0.483,0.44,0.504c0.117,0.001,0.128-0.013,0.132-0.025
	c0.059-0.145-0.061-0.525-0.209-0.667c-0.087-0.083-0.116-0.21-0.073-0.323c0.042-0.113,0.148-0.189,0.269-0.194l1.342-0.051
	c0.001,0,0.001,0,0.002,0c0.548,0,0.674,0.41,0.758,0.681c0.021,0.071,0.044,0.146,0.074,0.219c0.04,0.096,0.232,0.435,0.555,0.313
	c0.071-0.026,0.078-0.05,0.08-0.058c0.029-0.102-0.077-0.378-0.335-0.711c-0.071-0.092-0.083-0.217-0.029-0.321
	c0.053-0.104,0.182-0.161,0.277-0.163l1.222,0.045c0.525,0.019,0.64,0.087,0.875,0.516l0.062,0.111
	c0.034,0.061,0.065,0.125,0.099,0.191c0.151,0.308,0.229,0.417,0.364,0.417c0.148-0.004,0.161-0.046,0.165-0.061
	c0.041-0.146-0.102-0.444-0.263-0.55c-0.111-0.074-0.161-0.211-0.122-0.339c0.039-0.128,0.167-0.222,0.292-0.211l1.21,0.02
	c0.116-0.011,0.135-0.003,0.187-0.006c0.056-0.003,0.107-0.006,0.157-0.006c0.19,0,0.464,0.04,0.642,0.379
	c0.032,0.063,0.063,0.134,0.094,0.208c0.09,0.214,0.173,0.391,0.27,0.395c0.115,0,0.133-0.042,0.14-0.06
	c0.047-0.111-0.017-0.368-0.156-0.51c-0.084-0.085-0.109-0.213-0.063-0.324c0.045-0.111,0.152-0.185,0.272-0.186l0.105-0.002
	c0.276-0.004,0.545-0.008,0.81-0.008c0.598,0,1.313,0.019,2.085,0.157l15.096,2.706c1.54,0.275,3.084,0.649,4.578,1.011
	c0.609,0.147,1.218,0.294,1.826,0.436c0.119,0.028,0.209,0.124,0.229,0.245c0.02,0.12-0.035,0.24-0.14,0.304l-2.249,1.379
	c-3.723,2.207-7.619,3.469-11.587,3.751c-0.69,0.049-1.386,0.05-2.059,0.052l-28.488,0.14c-0.244,0-0.346-0.033-0.486-0.155
	c-0.026-0.023-0.063-0.055-0.125-0.095c-0.41-0.264-0.859-0.409-1.267-0.409l-5.331,0.029l-0.029,5.492
	C37.535,31.955,36.555,32.03,36.545,32.03z M36.153,31.325c0.122,0.042,0.312,0.09,0.393,0.104c0.086-0.013,0.272-0.058,0.391-0.098
	l0.028-5.39c-0.013-0.135-0.028-0.309,0.088-0.435c0.057-0.062,0.158-0.106,0.242-0.106l5.587-0.03c0.534,0,1.1,0.179,1.604,0.503
	c0.097,0.062,0.152,0.11,0.193,0.146c0.011,0.01,0.065,0.017,0.079,0.009l28.502-0.141c0.662-0.001,1.348-0.003,2.017-0.051
	c3.874-0.276,7.683-1.51,11.319-3.667l1.625-0.997c-0.374-0.089-0.748-0.179-1.122-0.27c-1.484-0.359-3.021-0.731-4.542-1.003
	l-15.096-2.706c-0.727-0.13-1.408-0.147-1.979-0.147c-0.134,0-0.269,0.001-0.405,0.002c0.066,0.219,0.076,0.457-0.009,0.66
	c-0.114,0.272-0.371,0.428-0.705,0.428c-0.497-0.019-0.686-0.465-0.811-0.761c-0.025-0.06-0.05-0.117-0.075-0.167
	c-0.028-0.054-0.028-0.054-0.107-0.054l-0.123,0.005c-0.062,0.003-0.127,0.007-0.196,0.007l-0.631-0.01
	c0.09,0.213,0.125,0.448,0.065,0.656c-0.041,0.145-0.193,0.482-0.718,0.496l0,0c-0.557,0-0.779-0.453-0.927-0.752
	c-0.027-0.057-0.055-0.112-0.083-0.164l-0.064-0.116c-0.043-0.078-0.091-0.167-0.111-0.186c-0.028-0.011-0.19-0.017-0.259-0.019
	l-0.653-0.024c0.118,0.244,0.184,0.504,0.117,0.738c-0.042,0.148-0.154,0.347-0.448,0.457c-0.534,0.2-1.082-0.079-1.318-0.647
	c-0.038-0.093-0.066-0.185-0.093-0.271c-0.08-0.258-0.094-0.258-0.15-0.258l-0.85,0.032c0.103,0.268,0.143,0.576,0.043,0.826
	c-0.104,0.257-0.337,0.405-0.64,0.405l0,0c-0.036,0-0.073-0.002-0.113-0.006c-0.57-0.06-0.775-0.521-0.925-0.857l-0.072-0.158
	c-0.075-0.154-0.111-0.208-0.128-0.226c0,0.002-0.021,0.001-0.073,0l-1.055,0.004c0.114,0.268,0.175,0.576,0.059,0.833
	c-0.08,0.178-0.27,0.394-0.72,0.417c0,0-0.001,0-0.002,0c-0.606,0-0.814-0.501-0.952-0.833c-0.026-0.064-0.053-0.127-0.08-0.184
	c-0.024-0.051-0.079-0.162-0.109-0.206c-0.005,0.003-0.025,0.003-0.063,0.002l-1.063,0.002c0.101,0.289,0.157,0.642,0.012,0.915
	c-0.076,0.145-0.28,0.404-0.811,0.31c-0.454-0.07-0.642-0.5-0.778-0.814c-0.031-0.071-0.061-0.139-0.093-0.199
	c-0.109-0.208-0.109-0.208-0.335-0.224l-0.874-0.082c0.054,0.123,0.099,0.257,0.12,0.394c0.036,0.235-0.019,0.453-0.155,0.613
	c-0.235,0.272-0.702,0.329-1.055,0.128c-0.386-0.22-0.572-0.653-0.737-1.035c-0.03-0.071-0.061-0.14-0.091-0.206
	c-0.071-0.009-0.211-0.019-0.473-0.019c-0.173,0-0.348,0.004-0.48,0.008l-0.202,0.003l-0.937-0.038
	c0.119,0.211,0.204,0.447,0.196,0.69c-0.015,0.373-0.593,0.801-0.959,0.801c-0.188,0-0.347-0.098-0.423-0.261l-0.484-1.047
	c-0.078-0.168-0.234-0.307-0.4-0.454c-0.038-0.033-0.076-0.067-0.114-0.101c-0.069,0-0.118,0.005-0.159,0.008
	c-0.051,0.005-0.094,0.008-0.121,0.008l-4.25,0.007c-0.491,0-0.495-0.378-0.498-0.682l-0.084-7.146
	C36.822,8.66,36.626,8.57,36.353,8.57c-0.197,0-0.313,0.048-0.337,0.07l0.02,7.899c0,0.148-0.091,0.306-0.289,0.346l-0.042,0.583
	c-0.01,0.14-0.115,0.254-0.255,0.275c-0.139,0.017-0.273-0.059-0.324-0.189c-0.023-0.061-0.04-0.119-0.055-0.171
	c-0.002-0.007-0.004-0.013-0.006-0.02l-3.615,0.107c-0.021-0.017-0.029,0.014-0.042,0.047c-0.017,0.048-0.037,0.103-0.063,0.166
	c-0.035,0.082-0.132,0.218-0.389,0.218c-0.08,0-0.18-0.014-0.256-0.025c-0.339-0.029-0.407-0.311-0.436-0.442
	c-0.073,0.002-0.188,0.004-0.273,0.009c-0.067,0.004-0.127,0.007-0.168,0.007l-2.319-0.087c-0.002,0.002-0.003,0.005-0.004,0.007
	l-0.038,0.066c-0.137,0.246-0.239,0.332-0.573,0.354c-0.076,0.005-0.118,0.008-0.151,0.008c-0.285,0-0.375-0.182-0.448-0.329
	c-0.018-0.034-0.029-0.06-0.038-0.081l-3.008,0.027c-0.006,0.014-0.012,0.027-0.016,0.036c-0.003,0.009-0.032,0.073-0.037,0.081
	c-0.072,0.137-0.173,0.327-0.438,0.327c-0.034,0-0.077-0.004-0.132-0.011c-0.34-0.034-0.448-0.253-0.507-0.372
	c-0.014-0.028-0.034-0.07-0.045-0.083l-2.599,0.023c-0.021,0-0.084,0-0.102,0.004c-0.009,0.01-0.08,0.094-0.106,0.125
	c-0.101,0.119-0.259,0.276-0.472,0.276c-0.241,0-0.369-0.185-0.453-0.307c-0.03-0.043-0.08-0.116-0.106-0.128
	c-0.123,0.003-0.229,0.019-0.321,0.032c-0.085,0.012-0.161,0.021-0.214,0.023l-2.484,0.091c0.017,0.007-0.002,0.039-0.015,0.062
	c-0.069,0.123-0.2,0.351-0.489,0.368c-0.388,0.022-0.52-0.046-0.719-0.138l-0.154-0.069c-0.074-0.031-0.151-0.069-0.23-0.108
	c-0.169-0.083-0.345-0.17-0.479-0.173l-2.471-0.051c-0.377-0.008-0.762-0.031-1.15-0.054c-0.844-0.051-1.736-0.086-2.408-0.005
	c-0.618,0.074-1.295,0.143-2.057,0.143c-0.033,0-0.078-0.002-0.131-0.006c-0.103-0.006-0.255-0.008-0.31,0
	c-0.048,0.184-0.046,0.373-0.043,0.588l0.001,0.159c0,0.573-0.065,1.137-0.13,1.683c-0.085,0.732-0.166,1.423-0.104,2.138
	c0.024,0.28,0.069,0.545,0.114,0.809c0.063,0.373,0.128,0.758,0.136,1.179c0.001,0.067-0.002,0.139-0.005,0.214
	c-0.007,0.169-0.016,0.36,0.046,0.446c0.018,0.024,0.038,0.053,0.146,0.053c0.093,0,0.192-0.019,0.292-0.036
	c0.092-0.016,0.183-0.031,0.271-0.039l0.485-0.042c0.002,0,0.003,0,0.004,0c0.174,0,0.261,0.093,0.38,0.221
	c0.027,0.03,0.053,0.059,0.072,0.076c0.077,0.034,0.342,0.037,0.535,0.039l0.177,0.004c0.632,0.025,1.204,0.048,1.792,0.031
	c1.726-0.048,3.132-0.106,4.426-0.182c0.158-0.01,0.284-0.076,0.458-0.167l0.126-0.065c0.073-0.036,0.134-0.069,0.188-0.1
	c0.214-0.118,0.398-0.219,0.789-0.219c0.28,0,0.396,0.248,0.46,0.381c0.01,0.022,0.023,0.051,0.036,0.074l2.419,0.087
	c0.053,0.002,0.133,0.012,0.225,0.025c0.109,0.015,0.239,0.034,0.345,0.034c0.03,0.025,0.036-0.033,0.057-0.073
	c0.09-0.171,0.227-0.428,0.509-0.428c0.164,0,0.313,0.094,0.442,0.28c0.028,0.04,0.101,0.145,0.126,0.166l0.229-0.014l2.535-0.048
	c0.052-0.123,0.128-0.27,0.322-0.364c0.094-0.046,0.182-0.068,0.27-0.068c0.346,0,0.457,0.317,0.511,0.469
	c0.003,0.007,0.005,0.013,0.007,0.02h1.774c0.105,0,0.238,0.011,0.383,0.024c0.151,0.014,0.316,0.029,0.475,0.029
	c0.354,0,0.412-0.081,0.42-0.098c0.102-0.203,0.394-0.421,0.668-0.421c0.186,0,0.345,0.095,0.435,0.261
	c0.031,0.058,0.055,0.108,0.075,0.153c0.015,0.032,0.025,0.059,0.04,0.08l2.852-0.142c0.075-0.313,0.229-0.447,0.47-0.447
	c0.001,0,0.117,0.004,0.118,0.004c0.107,0.001,0.358,0.004,0.477,0.31c0.003,0.007,0.022,0.07,0.025,0.078
	c0.002,0.007,0.004,0.015,0.006,0.023l3.653,0.082c0.006-0.015,0.012-0.031,0.017-0.044c0.02-0.049,0.039-0.099,0.063-0.147
	c0.06-0.12,0.196-0.184,0.326-0.16c0.132,0.026,0.23,0.138,0.24,0.272c0.003,0.032,0.004,0.089,0.005,0.161
	c0.001,0.083,0.003,0.298,0.018,0.429c0.214,0.073,0.32,0.194,0.313,0.489l-0.001,0.097L36.153,31.325z M72.414,22.008
	c-0.109,0-0.228-0.01-0.333-0.019c-0.069-0.006-0.133-0.013-0.181-0.013h-1.161c-0.455,0-0.938-0.464-1.07-0.784
	c-0.256-0.618-0.012-1.211,0.724-1.766c0.052-0.039,0.115-0.06,0.181-0.06h2.071c0.419,0,0.769,0.295,0.915,0.771
	c0.209,0.684-0.042,1.341-0.672,1.759C72.771,21.974,72.622,22.008,72.414,22.008z M70.676,19.967
	c-0.573,0.459-0.545,0.773-0.452,0.997c0.07,0.17,0.374,0.414,0.516,0.414H71.9c0.063,0,0.144,0.006,0.233,0.015
	c0.197,0.017,0.428,0.002,0.43,0.001c0.281-0.187,0.59-0.53,0.422-1.079c-0.024-0.082-0.123-0.348-0.341-0.348H70.676z"/>
<rect id="sliceCopy_x5F_19_1_" x="93.001" fill="none" width="83.001" height="40"/>
<rect id="sliceCopy_x5F_18_1_" fill="none" width="93" height="40"/>
</svg>
