<?xml version="1.0" encoding="utf-8"?>
<!-- Generator: Adobe Illustrator 15.1.0, SVG Export Plug-In  -->
<!DOCTYPE svg PUBLIC "-//W3C//DTD SVG 1.1//EN" "http://www.w3.org/Graphics/SVG/1.1/DTD/svg11.dtd" [
	<!ENTITY ns_flows "http://ns.adobe.com/Flows/1.0/">
]>
<svg version="1.1"
	 xmlns="http://www.w3.org/2000/svg" xmlns:xlink="http://www.w3.org/1999/xlink" xmlns:a="http://ns.adobe.com/AdobeSVGViewerExtensions/3.0/"
	 x="0px" y="0px" width="111px" height="40px" viewBox="0.492 0 111 40" enable-background="new 0.492 0 111 40"
	 xml:space="preserve">
<defs>
</defs>
<path d="M61.68,35.3c-0.06,0-0.119-0.018-0.169-0.052c-1.768-1.208-3.465-2.666-5.043-4.333c-1.37-1.427-2.81-3.252-4.278-5.425
	c-1.432-2.063-2.642-4.545-3.597-7.38l-0.146,0.013l-0.278,0.243c-0.067,0.059-0.163,0.084-0.246,0.07l-1.211-0.202
	c-0.671,0.367-1.376,0.625-2.098,0.769l-2.098,0.137c-0.85-0.086-1.637-0.412-2.383-0.968l-0.648,0.511l-1.587,1.679
	c-0.584,0.693-1.149,1.504-1.667,2.397c-0.544,0.831-0.913,1.667-1.106,2.5c-0.021,0.091-0.084,0.168-0.17,0.206l-0.789,0.352
	l-1.809,0.412c-0.109,0.01-0.168,0.011-0.225,0.011c-0.632,0-1.244-0.161-1.823-0.478c-0.646-0.408-1.047-1.187-1.205-2.324
	c-0.008-0.058,0.001-0.116,0.025-0.169l0.658-1.401l1.275-2.421l1.316-2.412l0.628-0.84l-0.494-0.348
	c-0.327-0.319-0.597-0.413-0.902-0.345l-0.839,0.296l-1.976,0.658l-2.62,0.961l-2.982,1.052l-7.834,2.889l-10.391,3.42
	c-0.088,0.027-0.185,0.015-0.261-0.036c-0.077-0.051-0.126-0.136-0.132-0.228L3.701,12.116c-0.008-0.102,0.037-0.2,0.119-0.261
	c0.497-0.372,1.075-0.654,1.719-0.836l1.935-0.484c0.026-0.006,0.056-0.007,0.079-0.009l2.234,0.044l1.913-0.044l4.275-0.35
	l6.355-0.395c0.037-0.003,0.075,0.003,0.11,0.014l1.227,0.395l1.744,0.373l2.908-0.728l2.378-0.722l3.938-3.376
	c0.121-0.102,0.297-0.096,0.408,0.016l0.262,0.263h24.116l0.18-0.15c0.109-0.111,0.313-0.208,0.604-0.28l1.097-0.095l18.772,0.174
	c0.031,0,0.063,0.005,0.092,0.015l2.671,0.862h7.789c0.09,0,0.175,0.04,0.232,0.11l1.184,1.445l1.035,1.077l0.7,0.433h6.741
	l0.356-0.119l1.259-2.813c0.134-0.406,0.259-0.679,0.39-0.847l0.115-0.579L102.634,5c0-0.166,0.134-0.3,0.3-0.3h1.797
	c0.166,0,0.3,0.134,0.3,0.3v4.459l1.394,0.147c0.107,0.011,0.2,0.079,0.243,0.178l0.53,1.232c0.033,0.081,0.03,0.171-0.009,0.25
	l-0.219,0.438c-0.035,0.069-0.096,0.123-0.169,0.149l-0.746,0.263c-0.058,0.02-0.118,0.022-0.179,0.006l-0.441-0.121h-0.311
	l-0.66,1.162c-0.075,0.131-0.234,0.187-0.374,0.13l-1.346-0.547H91.163l-0.523,0.636c-0.102,0.125-0.284,0.145-0.412,0.049
	l-0.619-0.465h-8.058l-0.087,0.496c-0.025,0.144-0.15,0.248-0.296,0.248H68.016l-2.646,1.41c-0.025,0.014-0.053,0.023-0.08,0.029
	l-0.832,0.176c-0.037,0.007-0.074,0.009-0.109,0.003l-0.832-0.132c-0.282-0.047-0.438-0.177-0.524-0.301l-0.481-0.309h-5.607
	c0.043,1.35,0.371,2.755,0.979,4.18c0.571,1.344,1.487,2.856,2.723,4.493c1.262,1.662,3.096,3.35,5.451,5.016
	c0.067,0.047,0.112,0.121,0.124,0.202c0.012,0.082-0.01,0.164-0.061,0.229L65.33,29.71l-1.427,2.253l-1.968,3.194
	c-0.044,0.07-0.113,0.119-0.193,0.136C61.722,35.298,61.7,35.3,61.68,35.3z M48.803,17.489c0.129,0,0.244,0.082,0.285,0.206
	c0.948,2.874,2.158,5.382,3.596,7.455c1.452,2.147,2.871,3.946,4.219,5.35c1.473,1.556,3.049,2.925,4.688,4.073l3.251-5.208
	l0.612-0.784c-2.283-1.642-4.074-3.31-5.327-4.961c-1.265-1.676-2.206-3.23-2.797-4.62c-0.685-1.606-1.031-3.192-1.031-4.715
	c0-0.166,0.134-0.3,0.3-0.3h6c0.058,0,0.113,0.016,0.162,0.047l0.615,0.394c0.046,0.03,0.084,0.072,0.108,0.123
	c0.011,0.022,0.06,0.042,0.128,0.054l0.775,0.123l0.735-0.155l2.68-1.426c0.043-0.023,0.091-0.035,0.14-0.035h12.975l0.087-0.496
	c0.025-0.144,0.15-0.248,0.296-0.248h8.41c0.065,0,0.128,0.021,0.181,0.06l0.47,0.353l0.431-0.523
	c0.057-0.069,0.142-0.109,0.231-0.109h11.781c0.039,0,0.077,0.007,0.113,0.022l1.156,0.47l0.616-1.084
	c0.053-0.094,0.152-0.152,0.261-0.152h0.525c0.026,0,0.053,0.003,0.079,0.01l0.39,0.106l0.544-0.191l0.103-0.206l-0.401-0.935
	l-1.489-0.158c-0.153-0.016-0.269-0.145-0.269-0.298V5.3l-1.197,0.007l-0.137,0.715c-0.012,0.058-0.04,0.112-0.082,0.153
	c-0.029,0.029-0.138,0.167-0.322,0.716l-1.323,2.961c-0.034,0.077-0.099,0.135-0.179,0.162l-0.527,0.176
	c-0.03,0.01-0.063,0.015-0.095,0.015h-6.875c-0.057,0-0.112-0.016-0.16-0.046l-0.832-0.525l-1.107-1.141L90.485,7.14h-7.696
	c-0.032,0-0.064-0.005-0.095-0.015l-2.672-0.862L61.325,6.088l-1.022,0.087c-0.209,0.055-0.283,0.12-0.296,0.132l-0.283,0.238
	c-0.055,0.045-0.122,0.069-0.192,0.069h-24.35c-0.08,0-0.156-0.032-0.213-0.088l-0.153-0.154l-3.774,3.235
	c-0.031,0.027-0.068,0.047-0.108,0.06l-2.451,0.744l-2.995,0.75c-0.045,0.011-0.09,0.012-0.133,0.002l-1.84-0.395l-1.202-0.385
	l-6.293,0.391l-4.287,0.35l-1.943,0.045l-2.207-0.043l-1.887,0.472c-0.509,0.145-0.976,0.361-1.383,0.643l0.836,11.843l10.015-3.296
	l7.828-2.887l8.457-2.979c0.139-0.032,0.241-0.043,0.342-0.043c0.398,0,0.771,0.17,1.108,0.508l0.707,0.492
	c0.066,0.046,0.11,0.118,0.123,0.198s-0.007,0.162-0.056,0.227l-0.789,1.052l-2.559,4.777L29.71,23.44
	c0.14,0.906,0.443,1.512,0.903,1.803c0.473,0.259,0.989,0.395,1.519,0.395l0.146-0.003l1.7-0.386l0.598-0.272
	c0.217-0.854,0.602-1.706,1.145-2.535c0.527-0.909,1.112-1.749,1.73-2.482l1.631-1.721l0.864-0.685
	c0.109-0.086,0.265-0.086,0.374,0.002c0.711,0.573,1.454,0.905,2.209,0.985l2.007-0.133c0.654-0.132,1.331-0.386,1.974-0.749
	c0.06-0.034,0.132-0.046,0.196-0.035l1.175,0.195l0.245-0.213c0.048-0.042,0.107-0.067,0.171-0.073l0.48-0.043
	C48.785,17.489,48.794,17.489,48.803,17.489z M44.861,18.176h-2.365c-0.536,0-1.014-0.17-1.418-0.506
	c-0.369-0.369-0.546-0.779-0.546-1.239c0-0.542,0.173-1.007,0.516-1.383c0.443-0.373,0.928-0.527,1.467-0.492l2.341-0.044
	c0.529,0,0.957,0.181,1.279,0.537c0.316,0.387,0.472,0.848,0.472,1.383c0,0.038-0.007,0.075-0.021,0.109l-0.395,1.008
	c-0.013,0.034-0.032,0.065-0.057,0.092C45.813,17.996,45.385,18.176,44.861,18.176z M42.37,15.15c-0.345,0-0.643,0.108-0.909,0.33
	c-0.211,0.237-0.329,0.558-0.329,0.951c0,0.299,0.114,0.56,0.351,0.796c0.277,0.229,0.615,0.35,1.014,0.35h2.365
	c0.332,0,0.592-0.099,0.793-0.301l0.352-0.899c-0.01-0.374-0.116-0.681-0.326-0.937c-0.196-0.217-0.468-0.329-0.818-0.329
	l-2.359,0.044L42.37,15.15z"/>
<rect id="sliceCopy_x5F_47_1_" x="110.92" fill="none" width="105.287" height="40"/>
<rect id="sliceCopy_x5F_46_1_" fill="none" width="110.92" height="40"/>
</svg>
