<?xml version="1.0" encoding="utf-8"?>
<!-- Generator: Adobe Illustrator 15.1.0, SVG Export Plug-In  -->
<!DOCTYPE svg PUBLIC "-//W3C//DTD SVG 1.1//EN" "http://www.w3.org/Graphics/SVG/1.1/DTD/svg11.dtd" [
	<!ENTITY ns_flows "http://ns.adobe.com/Flows/1.0/">
]>
<svg version="1.1"
	 xmlns="http://www.w3.org/2000/svg" xmlns:xlink="http://www.w3.org/1999/xlink" xmlns:a="http://ns.adobe.com/AdobeSVGViewerExtensions/3.0/"
	 x="0px" y="0px" width="113px" height="40px" viewBox="0.299 0 113 40" enable-background="new 0.299 0 113 40"
	 xml:space="preserve">
<defs>
</defs>
<path d="M7.01,31.3c-0.99,0-1.694-0.33-2.035-0.952c-0.361-0.663-0.397-1.579-0.431-2.388c-0.011-0.278-0.021-0.545-0.046-0.782
	c-0.127-1.275-0.221-2.393-0.286-3.417c-0.023-0.386-0.041-0.771-0.058-1.155c-0.035-0.792-0.071-1.612-0.171-2.411
	c-0.031-0.253-0.044-0.508-0.057-0.763c-0.012-0.246-0.022-0.491-0.055-0.734c-0.016-0.121-0.046-0.24-0.074-0.358
	c-0.086-0.353-0.183-0.752,0.032-1.19c0.617-1.251,1.581-1.353,2.686-1.353c0.214,0,0.393,0.052,0.55,0.099
	c0.14,0.041,0.261,0.077,0.396,0.077c0.142-0.008,0.229-0.01,0.316-0.01c0.244,0,0.488,0.02,0.732,0.041
	c0.165,0.014,0.33,0.028,0.494,0.034c0.256,0.012,0.497,0,0.688-0.041c0.068-0.117,0.176-0.212,0.313-0.276
	c0.347-0.166,0.682-0.132,0.96-0.122c0.193,0.008,0.348,0.01,0.501,0.01c0.439,0,0.879-0.021,1.317-0.042
	c0.351-0.017,0.7-0.034,1.049-0.04c0.815-0.016,1.642-0.074,2.44-0.131c0.351-0.025,0.702-0.05,1.055-0.072
	c0.469-0.029,0.944-0.097,1.404-0.164c0.551-0.079,1.121-0.161,1.701-0.179c2.328-0.074,4.666-0.229,6.949-0.463
	c0.074-0.008,0.182-0.03,0.306-0.056c0.259-0.053,0.582-0.119,0.861-0.119c0.47,0,0.652,0.202,0.723,0.372
	c0.035,0.085,0.328,0.204,0.727,0.204c0.037,0,0.07-0.001,0.101-0.003c0.284-0.022,0.553-0.119,0.837-0.221
	c0.162-0.059,0.324-0.117,0.493-0.164c0.172-0.048,0.342-0.088,0.511-0.127c0.32-0.074,0.623-0.145,0.918-0.274
	c0.595-0.265,1.205-0.501,1.815-0.737c0.479-0.186,0.957-0.371,1.429-0.57c0.328-0.139,0.659-0.273,0.99-0.407l0.469-0.19
	c0.174-0.071,0.344-0.166,0.515-0.26c0.25-0.138,0.509-0.281,0.789-0.365c0.739-0.223,1.526-0.557,2.479-1.054l0.224-0.113
	c0.488-0.243,1.096-0.545,1.096-1.021c0-0.085,0.036-0.166,0.099-0.223c0.063-0.057,0.144-0.083,0.231-0.076l0.064,0.006
	C43.076,9.071,43.1,9.032,43.123,9c0.28-0.377,0.903-0.307,1.329-0.287c0.095,0.004,0.182,0.009,0.251,0.009
	c0.008,0,0.133-0.005,0.14-0.005c0.46,0,0.565,0.332,0.605,0.457l0.088,0.013l0.132-0.003c0.195,0,0.438,0.024,0.588,0.213
	c0.034,0.043,0.069,0.104,0.088,0.182c0.134,0.015,0.385,0.03,0.853,0.03c0.694,0,1.524-0.033,1.936-0.049l0.223-0.008
	c0.374-0.011,0.75-0.02,1.126-0.02c0.911,0,1.674,0.047,2.378,0.147c0.052-0.022,0.118-0.037,0.203-0.037
	c0.107,0,0.273,0.019,0.347,0.027c0.066,0,0.129,0.022,0.18,0.061c0.116-0.001,0.201-0.008,0.257-0.013
	c0.009,0,0.08-0.005,0.088-0.005c0.391,0.004,0.776,0.011,1.163,0.019l0.544,0.01c1.103,0.021,2.211,0.021,3.093-0.032
	c0.154-0.009,0.316-0.028,0.482-0.047c0.266-0.03,0.54-0.061,0.802-0.061c0.511,0,0.885,0.114,1.177,0.358
	c-0.003-0.007,0.027,0.002,0.097,0.002l0,0c0.101,0,0.214-0.014,0.321-0.026c0.176-0.021,0.33-0.035,0.442-0.019
	c0.217,0.03,0.369,0.143,0.48,0.226c0.082,0.06,0.134,0.097,0.183,0.104c0.183,0.023,0.388,0,0.586-0.021
	c0.162-0.018,0.325-0.034,0.483-0.034l1.797,0.023c1.077,0.01,2.154,0.017,3.232,0.02c0.873,0.003,1.746,0.004,2.619,0.004
	l12.715-0.005l17.361,0.002c0.034-0.133,0.153-0.225,0.29-0.225c0.004,0,0.008,0,0.013,0c0.295,0.012,0.589,0.047,0.883,0.082
	c0.122,0.014,0.243,0.029,0.365,0.042c0.098-0.742,0.555-0.931,1.243-0.976c0.082-0.005,0.176-0.016,0.275-0.027
	c0.195-0.022,0.413-0.046,0.623-0.046c0.198,0,0.802,0,1.106,0.491c0.085,0.134,0.104,0.298,0.124,0.456
	c0.01,0.077,0.025,0.205,0.047,0.24l0.029-0.034c0.146,0,0.295-0.007,0.442-0.014c0.437-0.02,0.858-0.019,1.189,0.055
	c0.29,0.065,0.484,0.182,0.594,0.357c0.153,0.247,0.086,0.523,0.031,0.746c-0.036,0.148-0.07,0.291-0.046,0.404
	c0.038,0.05,0.062,0.113,0.062,0.181c0,0.002,0,0.005-0.001,0.008c0.118,0.371,0.114,0.723,0.109,1.091l-0.001,0.105
	c-0.001,0.102-0.035,0.397-0.394,0.492c0.004,0.021,0.007,0.042,0.007,0.064c0,0.167-0.106,0.3-0.308,0.3c-0.003,0-0.005,0-0.008,0
	h-0.001l-8.781-0.033h-0.001c-0.399,0-0.774,0.031-1.149,0.062c-0.315,0.026-0.631,0.051-0.947,0.06l-0.12,0.001l-0.403-0.005
	c-0.167,0-0.361,0.007-0.536,0.06c-0.129,0.039-0.239,0.135-0.281,0.244c-0.029,0.075-0.023,0.146,0.02,0.217
	c0.217,0.365,0.199,0.884,0.184,1.342c-0.004,0.138-0.009,0.267-0.005,0.378c0.03,0.919-0.589,1.007-0.998,1.065
	c-0.268,0.038-0.498,0.07-0.649,0.256c-0.027,0.035-0.063,0.063-0.104,0.082c-0.447,0.213-0.965,0.29-1.466,0.364
	c-0.196,0.029-0.389,0.057-0.568,0.093c-0.67,0.135-1.281,0.224-1.868,0.27c-1.36,0.108-2.815,0.159-4.581,0.159
	c-1.249,0-2.498-0.025-3.742-0.05c-0.31-0.006-0.563-0.009-0.816-0.009c-3.439,0-6.891,0.467-10.229,0.918
	c-1.128,0.152-2.256,0.305-3.389,0.441c-1.178,0.141-2.44,0.168-3.733,0.1c-0.897-0.047-1.843-0.134-2.667-0.633
	c-0.479-0.289-0.849-0.683-1.207-1.063l-0.185-0.195c-0.116-0.122-0.354-0.126-0.624-0.107c-0.089,0.006-0.177,0.012-0.263,0.013
	l-3.433,0.033c-0.597,0.005-1.192,0.027-1.787,0.049c-0.678,0.025-1.355,0.05-2.034,0.05l-0.801,0.006
	c-0.46,0-0.989-0.015-1.482-0.118c-0.132,0.094-0.34,0.214-0.668,0.375c-0.127,0.061-0.249,0.183-0.378,0.311
	c-0.134,0.133-0.272,0.271-0.445,0.377c-0.34,0.211-0.646,0.468-0.971,0.74c-0.346,0.29-0.704,0.589-1.108,0.832
	c-0.635,0.379-1.498,0.597-2.37,0.597c-1.308,0-2.397-0.46-2.99-1.264c-0.151-0.205-0.272-0.424-0.39-0.636
	c-0.325-0.588-0.52-0.896-1.054-0.896c-0.901,0.043-1.803,0.167-2.61,0.351c-0.832,0.19-1.447,0.467-1.994,0.897
	c-0.188,0.151-0.218,0.217-0.3,0.444c-0.074,0.207-0.208,0.365-0.326,0.505c-0.092,0.109-0.18,0.212-0.218,0.315
	c-0.081,0.219-0.086,0.505-0.09,0.808c-0.009,0.563-0.018,1.202-0.566,1.572c-0.396,0.267-0.842,0.483-1.327,0.646
	c-0.19,0.064-0.382,0.1-0.571,0.136c-0.24,0.044-0.468,0.087-0.677,0.195c-0.093,0.048-0.188,0.104-0.287,0.16
	c-0.453,0.259-0.988,0.559-1.559,0.454c-0.478-0.085-0.559-0.414-0.606-0.611c-0.017-0.067-0.032-0.131-0.06-0.188
	c-0.321-0.676-0.944-1.332-1.526-1.111c-0.769,0.291-1.541,0.642-2.288,0.981c-0.382,0.173-0.762,0.346-1.143,0.512l-1.611,0.702
	c-0.127,0.056-0.256,0.123-0.387,0.192c-0.278,0.147-0.566,0.298-0.87,0.368c-0.202,0.048-0.42,0.014-0.586-0.021
	c-0.163-0.035-0.282-0.053-0.421,0.01c-0.208,0.094-0.402,0.224-0.607,0.36c-0.092,0.061-0.185,0.122-0.277,0.18
	c-0.875,0.546-1.62,0.921-2.345,1.181c-0.266,0.096-0.516,0.23-0.779,0.373c-0.248,0.134-0.505,0.272-0.782,0.38l-0.377,0.142
	c-0.359,0.133-0.698,0.259-1.023,0.43l-0.189,0.1c-0.86,0.455-1.674,0.886-2.631,1.204c-0.096,0.032-0.214,0.061-0.341,0.091
	c-0.271,0.065-0.725,0.174-0.776,0.351c-0.14,0.469-0.786,0.556-1.172,0.608l-0.09,0.013C7.5,31.28,7.25,31.3,7.01,31.3z
	 M6.516,16.397c-1.138,0-1.718,0.147-2.146,1.019c-0.114,0.23-0.07,0.448,0.012,0.783c0.033,0.137,0.067,0.277,0.086,0.421
	c0.034,0.261,0.047,0.522,0.06,0.784c0.012,0.239,0.022,0.479,0.053,0.717c0.103,0.823,0.139,1.655,0.175,2.459
	c0.017,0.381,0.033,0.762,0.058,1.144c0.064,1.017,0.157,2.127,0.284,3.395c0.024,0.248,0.036,0.527,0.048,0.818
	c0.03,0.743,0.064,1.584,0.358,2.124c0.289,0.528,0.979,0.64,1.508,0.64c0.21,0,0.43-0.018,0.652-0.051l0.099-0.014
	c0.502-0.067,0.646-0.141,0.679-0.19c0.147-0.502,0.762-0.649,1.21-0.757c0.108-0.026,0.21-0.05,0.291-0.077
	c0.91-0.302,1.701-0.721,2.54-1.165l0.19-0.1c0.359-0.189,0.733-0.328,1.094-0.461l0.369-0.139c0.242-0.094,0.472-0.218,0.714-0.348
	c0.272-0.147,0.554-0.298,0.861-0.409c0.684-0.245,1.393-0.603,2.229-1.125c0.089-0.055,0.176-0.113,0.263-0.171
	c0.217-0.144,0.44-0.292,0.692-0.407c0.273-0.123,0.576-0.097,0.796-0.05c0.125,0.027,0.228,0.046,0.325,0.023
	c0.228-0.052,0.48-0.185,0.725-0.313c0.145-0.076,0.285-0.15,0.422-0.209l1.615-0.703c0.379-0.165,0.756-0.336,1.134-0.508
	c0.756-0.343,1.538-0.699,2.325-0.997c0.153-0.058,0.311-0.087,0.468-0.087c0.81,0,1.467,0.775,1.812,1.501
	c0.055,0.113,0.08,0.219,0.102,0.304c0.011,0.045,0.029,0.121,0.042,0.135c0,0,0.019,0.016,0.088,0.028
	c0.381,0.069,0.769-0.163,1.154-0.385c0.105-0.061,0.209-0.12,0.31-0.171c0.287-0.149,0.569-0.202,0.843-0.253
	c0.162-0.03,0.326-0.06,0.49-0.115c0.435-0.145,0.832-0.338,1.182-0.574c0.27-0.182,0.294-0.53,0.302-1.083
	c0.005-0.341,0.011-0.693,0.128-1.008c0.074-0.201,0.206-0.357,0.322-0.495c0.094-0.11,0.182-0.215,0.22-0.32
	c0.109-0.304,0.193-0.473,0.491-0.711c0.621-0.49,1.311-0.802,2.234-1.013c0.84-0.191,1.778-0.32,2.644-0.363l0.1-0.002
	c0.914,0,1.267,0.641,1.579,1.206c0.104,0.19,0.213,0.387,0.348,0.57c0.471,0.638,1.408,1.02,2.507,1.02
	c0.767,0,1.518-0.187,2.062-0.511c0.364-0.218,0.688-0.49,1.031-0.777c0.326-0.273,0.664-0.556,1.041-0.791
	c0.114-0.07,0.223-0.178,0.338-0.292c0.158-0.158,0.322-0.321,0.537-0.425c0.071-0.035,0.471-0.254,0.605-0.344
	c0.069-0.094,0.188-0.143,0.314-0.111c0.473,0.12,1.021,0.136,1.494,0.136l0.801-0.006c0.671,0,1.341-0.025,2.012-0.05
	c0.602-0.022,1.202-0.044,1.804-0.049l3.434-0.033c0.073-0.001,0.149-0.006,0.226-0.012c0.096-0.007,0.193-0.013,0.289-0.013
	c0.223,0,0.55,0.031,0.811,0.305l0.188,0.199c0.346,0.367,0.672,0.714,1.08,0.96c0.705,0.427,1.566,0.505,2.388,0.547
	c1.261,0.069,2.487,0.041,3.63-0.096c1.13-0.136,2.256-0.288,3.38-0.44c3.606-0.487,7.323-0.997,11.082-0.916
	c1.296,0.026,2.541,0.051,3.786,0.051c1.749,0,3.189-0.05,4.534-0.156c0.563-0.045,1.149-0.13,1.796-0.26
	c0.19-0.039,0.393-0.068,0.6-0.099c0.435-0.064,0.884-0.13,1.241-0.287c0.295-0.318,0.689-0.374,0.98-0.416
	c0.41-0.058,0.496-0.07,0.483-0.451c-0.004-0.122,0-0.266,0.005-0.418c0.013-0.357,0.027-0.801-0.1-1.015
	c-0.138-0.23-0.16-0.494-0.063-0.742c0.11-0.284,0.36-0.509,0.669-0.602c0.249-0.075,0.497-0.084,0.708-0.084l0.403,0.004
	l0.104-0.001c0.306-0.009,0.61-0.034,0.916-0.059c0.391-0.032,0.782-0.063,1.175-0.063l8.395,0.031
	c-0.009-0.07,0.008-0.142,0.048-0.202c0.055-0.084,0.149-0.135,0.25-0.135c0.003,0,0.081,0.001,0.084,0.001l0.086,0.002
	c0.019,0,0.033,0,0.047-0.001v-0.032c0.005-0.411,0.008-0.735-0.147-1.074c-0.003-0.007-0.006-0.013-0.009-0.02l-0.057-0.124
	l0.003-0.002c-0.056-0.143-0.046-0.19,0.016-0.286c0.009-0.015,0.02-0.028,0.03-0.04c0.015-0.1,0.037-0.192,0.058-0.274
	c0.02-0.083,0.062-0.254,0.041-0.287c0,0-0.034-0.048-0.215-0.088c-0.274-0.062-0.647-0.06-1.031-0.042
	c-0.157,0.007-0.313,0.014-0.47,0.014l-0.1-0.001c-0.483-0.011-0.543-0.498-0.572-0.732c-0.009-0.072-0.021-0.181-0.038-0.213
	c-0.056-0.089-0.178-0.207-0.597-0.207c-0.188,0-0.381,0.022-0.555,0.042c-0.11,0.013-0.214,0.024-0.305,0.03
	c-0.604,0.039-0.702,0.138-0.702,0.703c0,0.083-0.034,0.163-0.096,0.219c-0.061,0.057-0.146,0.086-0.225,0.08
	c-0.233-0.016-0.465-0.044-0.695-0.071c-0.156-0.019-0.313-0.038-0.469-0.052c-0.042,0.12-0.155,0.199-0.282,0.199l-17.726-0.001
	l-12.715,0.004c-0.874,0-1.748-0.001-2.621-0.004c-1.078-0.002-2.157-0.009-3.236-0.02l-1.766-0.022c-0.001,0-0.002,0-0.003,0
	c-0.162,0-0.302,0.016-0.442,0.031c-0.246,0.026-0.491,0.048-0.726,0.02c-0.207-0.027-0.349-0.132-0.463-0.216
	c-0.091-0.067-0.145-0.105-0.208-0.114c-0.124-0.01-0.195,0.01-0.29,0.021c-0.13,0.015-0.268,0.03-0.39,0.03
	c-0.134,0-0.329-0.014-0.477-0.138c-0.18-0.152-0.433-0.222-0.797-0.222c-0.24,0-0.49,0.029-0.734,0.057
	c-0.177,0.02-0.35,0.04-0.515,0.049c-0.896,0.054-2.022,0.054-3.139,0.033l-0.545-0.01c-0.385-0.007-0.768-0.015-1.153-0.019
	c-0.119,0.011-0.254,0.021-0.365,0.021c-0.001,0-0.002,0-0.003,0c-0.084,0-0.23-0.001-0.339-0.081
	c-0.01-0.001-0.019-0.002-0.027-0.002c-0.058,0.045-0.13,0.068-0.213,0.055c-0.733-0.118-1.529-0.173-2.503-0.173
	c-0.37,0-0.739,0.008-1.108,0.019l-0.217,0.008c-0.416,0.016-1.256,0.049-1.959,0.049c-1.092,0-1.265-0.068-1.38-0.213
	c-0.043-0.055-0.068-0.134-0.068-0.208c-0.021-0.001-0.047-0.002-0.08-0.002L45.446,9.79c-0.048,0-0.091-0.003-0.126-0.008
	c-0.325-0.051-0.408-0.313-0.444-0.424l-0.033-0.339l-0.037,0.302l-0.103,0.003c-0.078,0-0.175-0.004-0.28-0.01
	C44.306,9.307,44.176,9.3,44.049,9.3c-0.362,0-0.441,0.057-0.449,0.064c0.029,0.096,0.021,0.198-0.043,0.275
	c-0.063,0.077-0.147,0.112-0.249,0.105l-0.089-0.009c-0.18,0.632-0.864,0.973-1.384,1.231l-0.214,0.108
	c-0.987,0.515-1.808,0.863-2.583,1.097c-0.22,0.066-0.439,0.188-0.673,0.316c-0.191,0.105-0.383,0.21-0.578,0.29l-0.471,0.191
	c-0.327,0.132-0.655,0.265-0.98,0.403c-0.478,0.203-0.962,0.39-1.446,0.578c-0.602,0.232-1.203,0.465-1.789,0.726
	c-0.348,0.153-0.692,0.233-1.024,0.311c-0.16,0.037-0.322,0.075-0.484,0.121c-0.156,0.043-0.305,0.098-0.453,0.151
	c-0.309,0.111-0.628,0.227-0.994,0.255c-0.044,0.003-0.093,0.005-0.146,0.005c-0.243,0-1.052-0.041-1.277-0.565
	c-0.006,0.003-0.053-0.011-0.172-0.01c-0.219,0-0.509,0.059-0.741,0.106c-0.147,0.03-0.275,0.055-0.365,0.064
	c-2.297,0.235-4.648,0.392-6.991,0.466c-0.547,0.017-1.1,0.097-1.635,0.174c-0.472,0.068-0.959,0.138-1.452,0.168
	c-0.351,0.022-0.7,0.047-1.05,0.072c-0.806,0.058-1.64,0.117-2.471,0.132c-0.343,0.006-0.688,0.023-1.031,0.04
	c-0.61,0.029-1.223,0.058-1.833,0.034c-0.117-0.005-0.197-0.008-0.278-0.008c-0.125,0-0.307,0.007-0.441,0.072
	c-0.022,0.106-0.154,0.238-0.257,0.271c-0.289,0.091-0.644,0.118-1.023,0.103c-0.173-0.007-0.346-0.021-0.52-0.036
	c-0.302-0.025-0.604-0.051-0.904-0.031c-0.007,0-0.088,0.003-0.095,0.003c-0.222,0-0.403-0.054-0.564-0.101
	C6.761,16.432,6.643,16.397,6.516,16.397z M43.584,19.939c-0.39,0-0.751-0.046-0.967-0.125c-0.447-0.162-0.815-0.919-0.846-1.351
	c-0.012-0.166,0.021-0.287,0.068-0.375c-0.03-0.122-0.028-0.19,0.041-0.282c0.042-0.057,0.103-0.096,0.17-0.112
	c0.193-0.158,0.528-0.227,1.077-0.227c0.233,0,0.475,0.012,0.682,0.023c0.147,0.007,0.276,0.014,0.37,0.014l0.123,0.295
	l-0.019-0.299c0.073-0.004,0.16-0.01,0.251-0.01c0.457,0,0.748,0.142,0.863,0.42c0.138,0.332,0.146,1,0.015,1.322
	C45.15,19.871,44.046,19.939,43.584,19.939z M42.366,18.403c-0.009,0.226,0.283,0.785,0.454,0.847
	c0.114,0.041,0.382,0.089,0.764,0.089c0.711,0,1.206-0.169,1.273-0.332c0.071-0.176,0.064-0.679-0.014-0.865l0,0
	c-0.001,0-0.059-0.05-0.309-0.05c-0.078,0-0.153,0.005-0.215,0.008l-0.141,0.005c-0.102,0-0.241-0.007-0.4-0.015
	c-0.198-0.01-0.428-0.022-0.651-0.022c-0.388,0-0.565,0.038-0.643,0.065c0.001,0.01,0.002,0.02,0.002,0.03
	C42.487,18.261,42.439,18.349,42.366,18.403z"/>
<rect id="sliceCopy_x5F_54_1_" x="112.592" fill="none" width="103.27" height="40"/>
<rect id="sliceCopy_x5F_53_1_" fill="none" width="112.593" height="40"/>
</svg>
