<?xml version="1.0" encoding="utf-8"?>
<!-- Generator: Adobe Illustrator 15.1.0, SVG Export Plug-In  -->
<!DOCTYPE svg PUBLIC "-//W3C//DTD SVG 1.1//EN" "http://www.w3.org/Graphics/SVG/1.1/DTD/svg11.dtd" [
	<!ENTITY ns_flows "http://ns.adobe.com/Flows/1.0/">
]>
<svg version="1.1"
	 xmlns="http://www.w3.org/2000/svg" xmlns:xlink="http://www.w3.org/1999/xlink" xmlns:a="http://ns.adobe.com/AdobeSVGViewerExtensions/3.0/"
	 x="0px" y="0px" width="95px" height="40px" viewBox="0.068 0 95 40" enable-background="new 0.068 0 95 40" xml:space="preserve">
<defs>
</defs>
<path d="M28.291,38.3c-0.147,0-0.281-0.058-0.387-0.169c-0.232-0.244-0.319-0.753-0.28-1.645l-0.964-2.06
	c-0.733-1.932-1.38-4.032-1.93-6.263c-0.522-2.22-0.904-4.394-1.134-6.464l-0.158-2.13l-0.92-0.031l-1.868,1.494
	c-0.054,0.056-0.156,0.099-0.265,0.099c-0.246,0-0.447-0.219-0.596-0.41c-0.072-0.082-0.124-0.133-0.158-0.164
	c-0.691,0.285-1.675,0.854-2.954,1.706c-1.893,1.341-2.42,2.067-2.527,2.439l-0.257,0.88l0.365,0.397l0.506,0.779
	c0.031,0.048,0.048,0.104,0.048,0.162c0,0.466-0.15,0.834-0.447,1.094c-0.244,0.247-0.608,0.378-1.067,0.378H8.219
	c-0.385,0-0.771-0.154-1.146-0.458c-0.421-0.387-0.739-0.895-0.962-1.522l-1.353-5.631c-0.678-3.176-1.021-5.067-1.05-5.789
	c-0.032-0.769,0.017-1.318,0.148-1.678l0.598-0.892c0.017-0.024,0.036-0.045,0.059-0.063l1.388-1.128
	c0.775-0.517,1.355-0.76,1.798-0.76l27.007-0.569c0-0.094,0.044-0.184,0.12-0.24l0.694-0.521l1.055-0.705
	c0.035-0.023,0.073-0.039,0.114-0.046l1.215-0.218l1.401,0.032V6.599h-0.089c-0.033,0.093-0.083,0.163-0.129,0.213
	c-0.163,0.177-0.418,0.263-0.779,0.263c-0.039,0-0.078-0.007-0.114-0.022L37.67,6.835c-0.081-0.033-0.144-0.1-0.171-0.183
	l-0.018-0.054h-1.18l-0.129,0.129c-0.057,0.056-0.133,0.087-0.212,0.087h-0.52c-0.099,0-0.19-0.048-0.246-0.128
	c-0.301-0.432-0.446-1.113-0.446-2.082c0-1.059,0.161-1.571,0.54-1.714c0.034-0.013,0.07-0.019,0.106-0.019h0.392
	c0.06,0,0.117,0.018,0.167,0.051l0.181,0.121l1.161-0.035l0.025-0.092c0.165-0.335,0.46-0.478,0.897-0.478
	c0.314,0,0.556,0.103,0.702,0.291V2.476c0-0.147,0.107-0.273,0.253-0.296l0.822-0.129l0.984,0.083
	c0.154,0.015,0.271,0.144,0.271,0.299V2.61l3.091-0.431l4.131-0.477l1.38-0.002c0.067,0,0.132,0.022,0.185,0.063l0.527,0.412h0.206
	c0.02-0.147,0.145-0.26,0.297-0.26h0.479c0.121,0,0.225,0.071,0.272,0.174h0.594c0.166,0,0.3,0.134,0.3,0.3v4.255
	c0,0.16-0.125,0.292-0.285,0.3l-0.603,0.03c-0.045,0.109-0.152,0.187-0.278,0.187H51.11c-0.152,0-0.278-0.113-0.298-0.261h-0.556
	c0.245,0.072,0.492,0.206,0.542,0.469l0.125,0.581h0.915c0.048-0.103,0.152-0.173,0.272-0.173h0.649c0.12,0,0.225,0.071,0.272,0.173
	h0.932c0.048-0.103,0.152-0.173,0.272-0.173h0.651c0.12,0,0.225,0.071,0.272,0.173h0.932c0.048-0.103,0.152-0.173,0.272-0.173h0.609
	c0.12,0,0.225,0.071,0.272,0.173h0.973c0.048-0.103,0.152-0.173,0.272-0.173h0.609c0.12,0,0.225,0.071,0.272,0.173h0.976
	c0.048-0.103,0.152-0.173,0.272-0.173h0.606c0.12,0,0.225,0.071,0.272,0.173H62.4c0.046,0,0.092,0.01,0.133,0.031l3.082,1.52
	c0.103,0.05,0.167,0.155,0.167,0.269v0.823l0.558,0.31h13.301l0.491-0.301c0.047-0.029,0.102-0.044,0.157-0.044h1.605
	c0.073,0,0.144,0.026,0.199,0.075l0.305,0.271h0.591l0.32-0.179c0.05-0.027,0.098-0.038,0.162-0.038l1.456,0.074
	c0.007-0.014,0.016-0.028,0.026-0.042c0.145-0.192,0.348-0.293,0.587-0.293h1.087c0.028,0,0.057,0.004,0.083,0.012l0.302,0.087
	l0.388,0.028l0.54-0.233c0.038-0.016,0.078-0.024,0.119-0.024h2.126c0.108,0,0.209,0.059,0.262,0.153l0.219,0.391
	c0.017,0.03,0.028,0.062,0.034,0.096l0.172,0.999c0.006,0.034,0.006,0.068,0,0.102l-0.172,1c-0.009,0.049-0.029,0.095-0.06,0.134
	l-0.304,0.389c-0.057,0.073-0.144,0.115-0.236,0.115h-1.91c-0.032,0-0.063-0.005-0.095-0.015l-0.394-0.13l-0.283-0.026l-0.482,0.081
	l-0.213,0.075c-0.031,0.011-0.063,0.016-0.096,0.016h-1.216c-0.064,0-0.128-0.021-0.18-0.059l-0.095-0.071h-1.81
	c-0.078,0-0.153-0.03-0.209-0.085l-0.089-0.086h-0.598c-0.125,0.192-0.33,0.302-0.581,0.302h-1.78c-0.036,0-0.072-0.006-0.105-0.019
	l-0.454-0.195L67.18,13.758l-0.608,0.646c-0.057,0.06-0.136,0.094-0.219,0.094h-0.305c-0.09,0-0.175-0.04-0.232-0.109l-0.13-0.151
	L65.6,14.366c-0.056,0.083-0.149,0.133-0.249,0.133h-2.34l-0.313,2.388c-0.019,0.183-0.094,0.412-0.311,0.602l0.483,0.06
	c0.861,0.161,0.941,0.628,0.914,0.893c-0.211,1.144-0.189,1.74-0.135,2.042l0.049,2.043v2.265c0.054,0.822,0.376,1.741,0.957,2.713
	c0.079,0.139,0.094,0.291,0.044,0.432c-0.084,0.238-0.33,0.425-0.799,0.608l-1.704,0.321c-0.036,0.007-0.072,0.007-0.108,0
	l-1.912-0.348l-1.112-0.31c-0.127-0.036-0.216-0.151-0.219-0.283c-0.027-1.301,0.048-2.503,0.224-3.571l0.61-2.161
	c0.267-0.799,0.265-1.18,0.218-1.362l-0.306-1.081l-0.33-0.74c-0.187-0.487,0.273-0.856,0.589-1.054l-2.153-0.115l-3.664,0.17
	c-0.797,0.549-1.857,1.75-3.154,3.569l-2.771,4.16c-0.664,0.966-1.315,1.613-1.938,1.925c-0.026,0.013-0.054,0.022-0.083,0.027
	l-2.476,0.435l-4.337,0.22l-3.048,0.044c-0.52,0-0.741-0.233-0.836-0.428c-0.016-0.032-0.025-0.067-0.029-0.102l-0.089-0.913
	c0.06-1.341,0.225-2.258,0.506-2.849l0.831-1.535c0.603-1.084,0.842-1.358,0.983-1.477l0.861-0.774
	c0.361-0.439,0.552-1.001,0.552-1.687c0-0.702-0.261-1.066-0.845-1.182l-2.362,0.092l-2.642,0.174
	c-1.08,0.071-1.22,0.262-1.226,0.27c-0.255,0.388-0.651,0.683-1.192,0.902l-0.075,1.368c0.14,1.53,0.589,3.629,1.332,6.195
	c1.14,4.054,2.188,6.723,3.12,7.933c0.273,0.352,0.382,0.681,0.318,0.976c-0.056,0.264-0.239,0.48-0.546,0.643l-6.426,2.277
	C28.43,38.286,28.325,38.3,28.291,38.3z M22.418,18.936c0.003,0,0.007,0,0.01,0l1.3,0.043c0.153,0.005,0.278,0.125,0.289,0.278
	l0.177,2.388c0.227,2.036,0.604,4.186,1.12,6.379c0.544,2.204,1.183,4.281,1.898,6.17l0.986,2.106
	c0.021,0.044,0.03,0.093,0.028,0.142c-0.044,0.88,0.051,1.166,0.094,1.247l6.326-2.239c0.058-0.034,0.179-0.118,0.2-0.221
	c0.024-0.111-0.05-0.282-0.206-0.483c-0.993-1.291-2.047-3.951-3.223-8.136c-0.753-2.6-1.209-4.737-1.354-6.349l0.085-1.606
	c0.007-0.121,0.086-0.227,0.2-0.267c0.514-0.18,0.871-0.418,1.063-0.708c0.153-0.316,0.685-0.501,1.704-0.567l2.65-0.174l2.44-0.087
	c0.675,0.125,1.396,0.53,1.396,1.776c0,0.82-0.242,1.527-0.721,2.102l-0.899,0.813c-0.073,0.062-0.287,0.298-0.85,1.312
	l-0.823,1.518c-0.235,0.496-0.386,1.362-0.441,2.562l0.08,0.795c0.063,0.057,0.206,0.063,0.271,0.063l3.033-0.044l4.289-0.216
	l2.394-0.423c0.521-0.275,1.084-0.849,1.673-1.706l2.774-4.164c1.402-1.967,2.508-3.199,3.387-3.775
	c0.045-0.029,0.097-0.046,0.15-0.049l3.777-0.174l3.283,0.174c0.136,0.007,0.25,0.105,0.278,0.238
	c0.027,0.133-0.038,0.269-0.159,0.33l-0.779,0.392c-0.474,0.264-0.505,0.411-0.506,0.413l0.339,0.76l0.321,1.126
	c0.102,0.389,0.028,0.942-0.224,1.696l-0.599,2.114c-0.153,0.94-0.227,2.027-0.213,3.206l0.87,0.244l1.83,0.332l1.596-0.295
	c0.229-0.093,0.331-0.169,0.373-0.209c-0.61-1.032-0.951-2.026-1.011-2.95v-2.277l-0.044-1.99c-0.088-0.465-0.044-1.217,0.136-2.189
	c0.008-0.082-0.13-0.162-0.413-0.214l-0.673-0.083c-0.065-0.008-0.127-0.038-0.174-0.084l-0.308-0.305
	c-0.074-0.074-0.104-0.18-0.081-0.281c0.023-0.102,0.098-0.184,0.197-0.217c0.299-0.1,0.351-0.241,0.361-0.354l0.348-2.657
	c0.02-0.149,0.147-0.261,0.298-0.261h2.443l0.086-0.128c0.056-0.083,0.149-0.133,0.249-0.133h0.309c0.09,0,0.175,0.04,0.232,0.109
	l0.156,0.151l0.605-0.644c0.056-0.059,0.131-0.092,0.212-0.094l12.545-0.303c0.054,0.006,0.119,0.016,0.17,0.048l0.133,0.086
	l0.234,0.083h1.729c0.063,0,0.079-0.008,0.1-0.081c0.035-0.131,0.153-0.221,0.289-0.221h0.912c0.078,0,0.153,0.03,0.209,0.085
	l0.089,0.086h1.787c0.064,0,0.128,0.021,0.18,0.059l0.095,0.071h1.067l0.212-0.071l0.566-0.099c0.027-0.005,0.056-0.005,0.083-0.002
	l0.39,0.044l0.406,0.129h1.718l0.167-0.214l0.15-0.875l-0.154-0.897l-0.107-0.193h-1.889l-0.55,0.238
	c-0.047,0.02-0.098,0.028-0.145,0.023l-0.522-0.044l-0.316-0.086h-1.047c-0.032,0-0.055,0.005-0.074,0.02l-0.023,0.098
	c-0.034,0.14-0.15,0.221-0.308,0.229l-1.608-0.082l-0.313,0.175c-0.045,0.025-0.096,0.038-0.146,0.038h-0.782
	c-0.073,0-0.144-0.026-0.199-0.075l-0.305-0.271h-1.407L79.88,11.46c-0.047,0.028-0.101,0.043-0.155,0.043H66.263
	c-0.051,0-0.101-0.013-0.146-0.038l-0.78-0.433c-0.096-0.053-0.154-0.153-0.154-0.262V9.957L62.33,8.551h-1.102
	c-0.12,0-0.225-0.071-0.272-0.173h-0.062c-0.048,0.103-0.152,0.173-0.272,0.173h-1.521c-0.12,0-0.225-0.071-0.272-0.173h-0.064
	c-0.048,0.103-0.152,0.173-0.272,0.173h-1.518c-0.12,0-0.225-0.071-0.272-0.173h-0.064c-0.048,0.103-0.152,0.173-0.272,0.173h-1.477
	c-0.12,0-0.225-0.071-0.272-0.173H54.51c-0.048,0.103-0.152,0.173-0.272,0.173h-1.477c-0.12,0-0.225-0.071-0.272-0.173h-0.104
	c-0.048,0.103-0.152,0.173-0.272,0.173h-1.43c-0.142,0-0.264-0.099-0.293-0.237l-0.175-0.812c-0.01,0.012-0.099-0.04-0.403-0.083
	l-0.52,0.003c-0.101,0-0.194-0.05-0.25-0.133l-0.348-0.521c-0.061-0.092-0.066-0.21-0.015-0.308
	c0.053-0.098,0.154-0.158,0.265-0.158h2.167c0.109,0,0.205,0.059,0.258,0.146c0.046-0.035,0.103-0.056,0.164-0.059l0.581-0.029V2.69
	h-0.566c-0.081,0-0.154-0.032-0.208-0.084c-0.049,0.101-0.151,0.17-0.271,0.17h-0.606c-0.067,0-0.132-0.022-0.185-0.063L49.75,2.3
	h-1.242l-4.09,0.474l-3.425,0.478c-0.083,0.013-0.172-0.014-0.238-0.071c-0.065-0.057-0.103-0.139-0.103-0.226v-0.25l-0.638-0.06
	l-0.494,0.084v0.485c0,0.154-0.116,0.283-0.27,0.298l-0.438,0.044c-0.097,0.008-0.169-0.02-0.231-0.076
	c-0.063-0.057-0.099-0.138-0.099-0.223c0-0.14-0.013-0.22-0.265-0.22c-0.183,0-0.311,0.036-0.341,0.096l-0.064,0.249
	c-0.036,0.126-0.149,0.214-0.28,0.218l-1.477,0.044c-0.071,0-0.123-0.016-0.176-0.051l-0.185-0.124H35.49
	c-0.035,0.065-0.142,0.318-0.142,1.134c0,0.73,0.088,1.271,0.263,1.611h0.226l0.129-0.129c0.057-0.056,0.133-0.087,0.212-0.087
	h1.521c0.129,0,0.244,0.083,0.285,0.206l0.042,0.129l0.34,0.141c0.219-0.008,0.275-0.062,0.281-0.068
	c0.016-0.017,0.013-0.063,0.012-0.082c-0.007-0.083,0.021-0.167,0.078-0.228s0.137-0.097,0.221-0.097h0.648
	c0.166,0,0.3,0.134,0.3,0.3v2.212c0,0.081-0.032,0.158-0.091,0.215s-0.13,0.08-0.217,0.085l-1.648-0.043L36.857,8.97l-0.99,0.661
	l-0.562,0.421v0.153c0,0.163-0.13,0.296-0.294,0.3L7.705,11.07c-0.223,0-0.649,0.112-1.448,0.643l-1.331,1.084l-0.539,0.79
	c-0.037,0.126-0.113,0.534-0.078,1.38c0.027,0.678,0.376,2.589,1.035,5.681l1.343,5.593c0.18,0.503,0.445,0.93,0.779,1.238
	c0.255,0.206,0.506,0.312,0.753,0.312h5.079c0.294,0,0.515-0.073,0.657-0.216c0.16-0.141,0.241-0.326,0.255-0.572l-0.424-0.66
	l-0.448-0.48c-0.071-0.077-0.097-0.186-0.067-0.287l0.304-1.042c0.198-0.684,1.102-1.589,2.764-2.766
	c1.434-0.956,2.476-1.548,3.194-1.816c0.188-0.07,0.397,0.02,0.721,0.386c0.054,0.069,0.095,0.115,0.124,0.146l1.854-1.484
	C22.284,18.958,22.35,18.936,22.418,18.936z M40.735,27.09c-0.029,0-0.059-0.004-0.087-0.013c-0.369-0.112-0.661-0.365-0.87-0.753
	c-0.281-0.489-0.254-1.068,0.084-1.714l2.13-3.911c0.014-0.025,0.031-0.048,0.052-0.068l0.261-0.261
	c0.036-0.036,0.08-0.063,0.13-0.077l0.306-0.087c0.026-0.007,0.054-0.011,0.082-0.011h0.842l0.138-0.334
	c0.05-0.12,0.18-0.189,0.301-0.185l0.563,0.043l0.683-0.036l0.032-0.048l-0.079-0.758c-0.001-0.457,0.127-0.816,0.38-1.099
	l0.291-0.248c0.054-0.045,0.122-0.069,0.192-0.069h3.689c0.105,0,0.203,0.055,0.257,0.146c0.602,1.003,0.777,1.618,0.57,1.993
	c-3.669,6.031-4.159,6.455-4.32,6.594c-0.648,0.484-1.506,0.772-2.64,0.896L40.735,27.09z M40.783,26.49h2.905
	c0.978-0.108,1.761-0.367,2.296-0.766c0.2-0.173,1.033-1.259,4.178-6.427c-0.001,0-0.001,0-0.001,0
	c-0.001,0,0.099-0.237-0.479-1.238h-3.409l-0.176,0.147c-0.122,0.142-0.197,0.36-0.197,0.638l0.089,0.836
	c0.007,0.07-0.011,0.141-0.051,0.2l-0.178,0.261c-0.053,0.078-0.14,0.126-0.233,0.131l-0.87,0.043l-0.383-0.028l-0.131,0.319
	c-0.046,0.112-0.155,0.186-0.277,0.186h-1.001l-0.19,0.055l-0.175,0.175l-2.107,3.869c-0.238,0.454-0.268,0.829-0.089,1.14
	C40.432,26.271,40.588,26.419,40.783,26.49z"/>
<rect id="sliceCopy_x5F_46_1_" x="94.576" fill="none" width="110.92" height="40"/>
<rect id="sliceCopy_x5F_45_1_" fill="none" width="94.576" height="40"/>
</svg>
