<?xml version="1.0" encoding="utf-8"?>
<!-- Generator: Adobe Illustrator 15.1.0, SVG Export Plug-In  -->
<!DOCTYPE svg PUBLIC "-//W3C//DTD SVG 1.1//EN" "http://www.w3.org/Graphics/SVG/1.1/DTD/svg11.dtd" [
	<!ENTITY ns_flows "http://ns.adobe.com/Flows/1.0/">
]>
<svg version="1.1"
	 xmlns="http://www.w3.org/2000/svg" xmlns:xlink="http://www.w3.org/1999/xlink" xmlns:a="http://ns.adobe.com/AdobeSVGViewerExtensions/3.0/"
	 x="0px" y="0px" width="56px" height="40px" viewBox="0.224 0 56 40" enable-background="new 0.224 0 56 40" xml:space="preserve">
<defs>
</defs>
<path d="M38.547,36.3c-0.286,0-0.571-0.004-0.856-0.017c-0.076-0.003-0.149-0.036-0.202-0.091c-0.27-0.28-0.398-0.655-0.512-0.986
	c-0.032-0.094-0.064-0.188-0.099-0.277c-0.952-3.062-1.919-6.096-2.886-9.13c-0.605-1.902-1.212-3.805-1.813-5.708
	c-0.41-1.385-0.835-2.76-1.26-4.135c-0.251-0.812-0.502-1.624-0.749-2.437c-0.148,0.204-0.267,0.444-0.351,0.713
	c-0.062,0.217-0.021,0.465,0.022,0.729c0.032,0.197,0.066,0.4,0.062,0.615l0.005,0.827c0.004,0.498,0.008,0.995-0.001,1.493
	c-0.001,0.091-0.044,0.176-0.115,0.231c-0.598,0.464-1.296,0.729-1.971,0.983l-0.072,0.028c-1.036,0.387-2.188,0.621-3.623,0.738
	c-0.924,0.08-1.851-0.083-3.026-0.507l-0.207-0.06c-0.724-0.214-1.507-0.392-2.069-0.115c-0.826,0.311-1.172,1.169-1.308,1.655
	c-0.225,0.811-0.495,1.62-0.758,2.402c-0.223,0.666-0.446,1.332-0.644,2.006c-0.099,0.315-0.203,0.623-0.308,0.931
	c-0.268,0.785-0.543,1.597-0.664,2.422c-0.131,0.677-0.099,1.353-0.035,2.093c0.051,0.025,0.104,0.049,0.156,0.073
	c0.355,0.163,0.797,0.365,0.944,0.868c0.025,0.088,0.01,0.183-0.044,0.258c-0.319,0.45-0.746,0.762-1.23,1.095
	c-0.148,0.109-0.326,0.168-0.521,0.168c-0.008,0-0.076-0.003-0.085-0.004c-1.162,0.008-2.353,0.02-3.542,0.031
	c-1.244,0.012-2.487,0.024-3.729,0.03c-0.003,0-0.006,0-0.008,0c-0.327,0-0.553-0.131-0.734-0.237
	c-0.05-0.029-0.099-0.058-0.148-0.083c-0.105-0.054-0.17-0.166-0.163-0.285c0.015-0.242,0.021-0.484,0.019-0.725
	c-0.925-0.138-1.937-0.452-2.262-1.429c-0.145-1.319-0.005-2.666,0.401-4.066c0.612-2.025,1.114-3.574,1.631-5.026
	c0.239-0.699,0.567-1.367,0.886-2.013l0.039-0.081c0.253-0.507,0.562-0.981,0.859-1.44c0.37-0.569,0.72-1.107,0.974-1.704
	c0.243-0.855,0.107-2.067-0.793-2.623c-0.337-0.215-0.732-0.31-1.289-0.31c-0.225,0-0.451,0.014-0.678,0.028
	c-0.354,0.022-0.706,0.042-1.044,0.018c-0.041-0.003-0.081-0.014-0.117-0.033c-0.479-0.25-0.438-0.771-0.41-1.116
	c0.008-0.1,0.017-0.196,0.012-0.281c-0.01-0.137,0.075-0.263,0.206-0.306c0.322-0.105,0.663-0.169,0.993-0.232
	c0.72-0.137,1.399-0.266,1.854-0.775c0.192-0.169,0.218-0.388,0.239-0.731c0.007-0.097,0.013-0.194,0.024-0.288
	C7.604,9.029,7.416,8.54,7.058,8.211C6.697,7.884,6.273,7.5,6.323,6.921c-0.08-0.447,0.218-0.83,0.503-1.148
	c0.028-0.031,0.062-0.056,0.099-0.073l0.153-0.074c0.156-0.078,0.334-0.165,0.533-0.21C7.688,5.405,7.745,5.4,7.802,5.4
	c0.271,0,0.513,0.096,0.727,0.18c0.004,0.002,0.009,0.003,0.013,0.005c0.194-0.25,0.41-0.479,0.62-0.702l0.151-0.161
	c0.053-0.056,0.125-0.09,0.202-0.095c0.188-0.011,0.376-0.015,0.563-0.015l0.796,0.007c0.1,0,0.199-0.001,0.299-0.003
	c0.071-0.155,0.126-0.326,0.183-0.503l0.066-0.203c0.04-0.118,0.148-0.199,0.272-0.204c0.321-0.012,0.646-0.004,0.966,0.007
	c0.111,0.004,0.211,0.069,0.26,0.169c0.116,0.241,0.218,0.487,0.316,0.735h0.018c1.043-0.003,2.087-0.005,3.13-0.005
	c1.91,0,4.43,0.007,6.979,0.066c0.801,0.086,1.568,0.097,2.15,0.097c0.338,0,0.675-0.004,1.012-0.008
	c0.34-0.004,0.68-0.008,1.019-0.008c0.489-0.073,1.018-0.084,1.51-0.084l0.591,0.003c4.196,0.044,8.391,0.047,12.583,0.016
	c0.049-0.212,0.108-0.477,0.336-0.655c0.053-0.042,0.118-0.064,0.186-0.064c0.001,0,0.002,0,0.002,0
	c0.354,0.002,0.705,0.034,1.056,0.066l0.413,0.035c0.096,0.008,0.183,0.061,0.233,0.144l0.093,0.157
	c0.15,0.257,0.293,0.5,0.507,0.65c0.203,0.13,0.287,0.346,0.349,0.504c0.016,0.039,0.03,0.078,0.046,0.111
	c2.447,0.003,4.504,0.03,6.46,0.083c0.114,0.003,0.217,0.07,0.265,0.174c0.39,0.844,0.391,1.917,0.002,2.8
	c-0.048,0.109-0.155,0.179-0.273,0.179l-3.61,0.009c-0.953,0-1.906-0.004-2.86-0.018C45.388,9.18,45.387,9.5,45.387,9.834
	c-0.001,0.465-0.002,0.947-0.122,1.428c-0.075,0.238-0.304,0.609-1.051,0.624c-0.796,0.036-1.604,0.041-2.288,0.041l-1.415-0.002
	c-0.309,0-0.642,0.001-0.987,0.005c0.139,0.09,0.272,0.173,0.411,0.233c0.092,0.042,0.371,0.192,0.441,0.472
	c0.037,0.148,0.005,0.299-0.09,0.427c-0.366,0.367-0.802,0.534-1.186,0.682c-0.028,0.011-0.059,0.018-0.09,0.019
	c-0.32,0.02-0.641,0.028-0.962,0.036c-0.111,0.003-0.223,0.006-0.334,0.009c1.822,5.723,3.616,11.522,5.136,16.459
	c0.111,0.374,0.23,0.743,0.35,1.112c0.235,0.734,0.48,1.493,0.661,2.265c0.025,0.107-0.011,0.221-0.094,0.294
	c-0.118,0.104-0.238,0.204-0.36,0.305l-0.004,0.083c-0.012,0.246-0.022,0.5-0.089,0.755c-0.013,0.051-0.039,0.098-0.076,0.136
	c-0.279,0.283-0.669,0.334-0.982,0.376l-0.148,0.021c-0.027,0.004-0.096,0.08-0.137,0.125c-0.115,0.127-0.289,0.319-0.575,0.319
	l-0.093-0.003c-0.138,0-0.285,0.049-0.441,0.101c-0.186,0.062-0.395,0.131-0.63,0.131l-0.107,0c-0.261,0-0.522,0.004-0.784,0.007
	C39.075,36.296,38.811,36.3,38.547,36.3z M37.848,35.689c0.493,0.017,0.989,0.011,1.484,0.004c0.265-0.003,0.528-0.007,0.792-0.007
	l0.081,0c0.176-0.025,0.312-0.049,0.468-0.1c0.185-0.062,0.395-0.131,0.63-0.131c0.007,0,0.075,0.002,0.083,0.003
	c0.035-0.006,0.101-0.078,0.14-0.121c0.107-0.118,0.254-0.28,0.491-0.315l0.16-0.022c0.215-0.028,0.436-0.058,0.577-0.155
	c0.033-0.17,0.041-0.352,0.05-0.543l0.011-0.223c0.006-0.083,0.045-0.159,0.108-0.212c0.119-0.099,0.22-0.182,0.312-0.26
	c-0.17-0.689-0.392-1.376-0.605-2.042c-0.12-0.373-0.24-0.746-0.353-1.122c-1.552-5.042-3.39-10.985-5.253-16.827
	c-0.028-0.089-0.014-0.186,0.04-0.263c0.053-0.077,0.139-0.124,0.232-0.128c0.246-0.011,0.491-0.018,0.737-0.024
	c0.299-0.008,0.598-0.016,0.896-0.033c0.293-0.113,0.591-0.232,0.82-0.42c-0.017-0.012-0.037-0.025-0.061-0.036
	c-0.216-0.093-0.414-0.225-0.605-0.352c-0.315-0.209-0.588-0.39-0.91-0.39l-0.091,0.004c-0.158,0.004-0.302-0.116-0.313-0.279
	c-0.012-0.163,0.109-0.305,0.271-0.32c0.042-0.004,0.083-0.006,0.124-0.006c0.812-0.039,1.643-0.043,2.347-0.043l1.415,0.002
	c0.678,0,1.477-0.005,2.269-0.041c0.168-0.003,0.443-0.032,0.493-0.188c0.098-0.392,0.098-0.816,0.099-1.266
	c0.001-0.434,0.002-0.882,0.1-1.331c0.03-0.14,0.14-0.246,0.298-0.236c1.036,0.017,2.071,0.021,3.106,0.021l3.406-0.008
	c0.227-0.632,0.227-1.354,0.001-1.959c-1.935-0.051-3.979-0.076-6.409-0.078c-0.08,0-0.156-0.032-0.213-0.088
	c-0.124-0.125-0.182-0.273-0.232-0.405c-0.04-0.103-0.075-0.191-0.125-0.224c-0.331-0.233-0.521-0.558-0.689-0.844l-0.012-0.02
	l-0.264-0.022c-0.288-0.026-0.576-0.053-0.867-0.061c-0.031,0.064-0.052,0.158-0.073,0.25c-0.021,0.093-0.042,0.185-0.072,0.268
	c-0.043,0.118-0.154,0.196-0.28,0.197c-4.274,0.033-8.549,0.031-12.819-0.015l-0.587-0.002c-0.47,0-0.973,0.01-1.467,0.081
	c-0.38,0.003-0.717,0.007-1.054,0.011c-0.34,0.004-0.68,0.009-1.02,0.009c-0.597,0-1.386-0.011-2.189-0.099
	c-2.519-0.057-5.033-0.064-6.94-0.064c-1.043,0-2.086,0.002-3.129,0.005l-0.222,0c-0.001,0-0.001,0-0.001,0
	c-0.123,0-0.234-0.076-0.279-0.19c-0.095-0.242-0.19-0.483-0.298-0.72c-0.176-0.006-0.354-0.009-0.529-0.006
	c-0.081,0.252-0.165,0.513-0.308,0.758c-0.052,0.088-0.144,0.144-0.245,0.149c-0.166,0.008-0.332,0.011-0.499,0.011l-0.796-0.007
	c-0.137,0-0.273,0.002-0.41,0.007L9.599,5.294C9.34,5.568,9.096,5.827,8.894,6.117C8.817,6.225,8.679,6.27,8.553,6.229
	C8.471,6.202,8.39,6.17,8.309,6.139c-0.21-0.083-0.403-0.159-0.586-0.132c-0.109,0.025-0.24,0.09-0.379,0.158L7.234,6.218
	c-0.229,0.26-0.352,0.459-0.316,0.682C6.898,7.235,7.1,7.439,7.41,7.72c0.552,0.505,0.813,1.192,0.734,1.84
	C8.134,9.644,8.129,9.729,8.123,9.813c-0.022,0.357-0.052,0.802-0.418,1.119c-0.563,0.634-1.376,0.788-2.162,0.938
	c-0.25,0.047-0.489,0.093-0.716,0.153c-0.003,0.041-0.006,0.082-0.01,0.124c-0.022,0.286-0.021,0.436,0.051,0.507
	c0.29,0.013,0.586-0.004,0.886-0.022c0.239-0.015,0.479-0.029,0.715-0.029c0.456,0,1.052,0.046,1.608,0.402
	c1.162,0.717,1.354,2.23,1.038,3.331c-0.287,0.68-0.668,1.265-1.035,1.831c-0.289,0.445-0.588,0.904-0.824,1.379l-0.039,0.08
	c-0.31,0.629-0.63,1.28-0.857,1.946c-0.514,1.446-1.014,2.987-1.622,4.999c-0.384,1.322-0.517,2.592-0.393,3.77
	c0.234,0.686,1.197,0.896,2.009,0.994c0.147,0.018,0.26,0.141,0.264,0.289c0.008,0.28,0.007,0.562-0.005,0.843
	c0.002,0.001,0.003,0.002,0.005,0.002c0.146,0.085,0.271,0.158,0.389,0.158c1.29-0.008,2.532-0.021,3.775-0.033
	c1.19-0.012,2.382-0.023,3.571-0.03c0.134-0.005,0.181-0.015,0.234-0.054c0.39-0.268,0.731-0.515,0.987-0.822
	c-0.1-0.146-0.288-0.241-0.559-0.365c-0.118-0.054-0.235-0.108-0.342-0.169c-0.085-0.049-0.141-0.136-0.149-0.234
	c-0.072-0.82-0.125-1.621,0.027-2.41c0.127-0.866,0.412-1.705,0.688-2.515c0.104-0.303,0.206-0.606,0.302-0.912
	c0.198-0.676,0.424-1.35,0.649-2.022c0.26-0.774,0.528-1.576,0.748-2.372c0.166-0.596,0.601-1.653,1.648-2.044
	c0.271-0.134,0.591-0.205,0.951-0.205c0.526,0,1.034,0.15,1.525,0.295l0.222,0.064c1.112,0.4,1.956,0.553,2.792,0.48
	c1.381-0.113,2.479-0.336,3.462-0.703l0.071-0.027c0.588-0.223,1.195-0.452,1.7-0.812c0.006-0.444,0.002-0.887-0.002-1.331
	l-0.004-0.838c0.003-0.166-0.024-0.333-0.054-0.511c-0.05-0.302-0.105-0.645-0.005-0.997c0.174-0.563,0.475-1.029,0.871-1.356
	c0.078-0.063,0.184-0.084,0.277-0.055c0.096,0.029,0.171,0.104,0.2,0.2c0.296,0.978,0.597,1.953,0.898,2.929
	c0.426,1.377,0.851,2.754,1.261,4.137c0.599,1.898,1.204,3.8,1.811,5.702c0.967,3.036,1.935,6.072,2.879,9.115
	c0.031,0.077,0.065,0.178,0.101,0.28C37.628,35.255,37.714,35.507,37.848,35.689z M23.835,19.086L23.835,19.086
	c-0.615,0-1.236-0.07-1.844-0.208c-1.227-0.369-2.12-1.418-2.194-2.557c-0.067-0.758,0.282-1.577,0.962-2.239
	c0.419-0.391,1.061-0.904,1.848-0.904c0.004,0,0.068,0.001,0.072,0.001c0.163,0.006,0.291,0.143,0.288,0.306l-0.006,0.288
	c0.009,0.01,0.019,0.02,0.028,0.03c0.102,0.111,0.271,0.296,0.23,0.574c0.022,0.269-0.023,0.6-0.067,0.92
	c-0.077,0.565-0.151,1.1,0.146,1.542c0.272,0.363,0.571,0.763,0.937,0.998c-0.021-0.017-0.042-0.034-0.064-0.051
	c-0.08-0.063-0.158-0.125-0.23-0.19c-0.657-0.595-0.939-1.573-0.735-2.553c0.09-0.385,0.306-0.668,0.515-0.942
	c0.083-0.108,0.167-0.217,0.238-0.332l0.007-0.322c0.002-0.157,0.126-0.286,0.283-0.295c0.331-0.019,0.655-0.141,0.998-0.269
	c0.457-0.171,0.937-0.349,1.478-0.301c0.855,0.154,1.521,0.563,1.901,1.156c0.483,0.68,0.469,1.545,0.401,2.221
	c-0.208,1.022-0.917,1.911-1.854,2.352C26.188,18.816,25.031,19.086,23.835,19.086z M22.36,13.802
	c-0.466,0.091-0.873,0.421-1.188,0.714c-0.544,0.531-0.829,1.173-0.776,1.758c0.059,0.902,0.777,1.731,1.749,2.024
	c0.649,0.146,1.345,0.209,2.021,0.181c-0.589-0.268-1.003-0.821-1.354-1.291c-0.435-0.645-0.338-1.35-0.253-1.972
	c0.042-0.305,0.082-0.593,0.065-0.864c-0.003-0.063-0.047-0.112-0.076-0.144c-0.054-0.058-0.104-0.117-0.144-0.179
	c-0.028-0.047-0.044-0.102-0.044-0.157L22.36,13.802z M24.56,13.719l-0.003,0.146c-0.001,0.05-0.016,0.098-0.04,0.142
	c-0.093,0.16-0.206,0.31-0.319,0.458c-0.179,0.234-0.348,0.455-0.406,0.708c-0.156,0.754,0.06,1.533,0.552,1.979
	c0.063,0.057,0.131,0.11,0.199,0.164c0.288,0.227,0.646,0.509,0.667,1.014c0,0.008,0,0.017,0,0.026
	c0.603-0.118,1.176-0.314,1.697-0.583c0.78-0.366,1.361-1.094,1.527-1.903c0.053-0.542,0.069-1.266-0.307-1.796
	c-0.396-0.62-1.1-0.828-1.484-0.897c-0.017,0-0.06-0.002-0.102-0.002c-0.361,0-0.713,0.132-1.084,0.271
	C25.17,13.553,24.875,13.663,24.56,13.719z M7.894,7.645c-0.009,0-0.019,0-0.027-0.001C7.46,7.606,7.129,7.354,6.957,6.951
	C6.919,6.86,6.927,6.756,6.979,6.672l0.224-0.35c0.036-0.056,0.089-0.098,0.151-0.121l0.335-0.12
	C7.78,6.049,7.882,6.063,7.962,6.118C7.992,6.139,8.03,6.157,8.07,6.177c0.159,0.079,0.521,0.259,0.459,0.654
	C8.552,7.117,8.357,7.3,8.238,7.412C8.2,7.449,8.16,7.487,8.142,7.514C8.086,7.596,7.992,7.645,7.894,7.645z"/>
<rect id="sliceCopy_x5F_33_1_" x="56.166" fill="none" width="52.354" height="40"/>
<rect id="sliceCopy_x5F_32_1_" fill="none" width="56.167" height="40"/>
</svg>
