<?xml version="1.0" encoding="utf-8"?>
<!-- Generator: Adobe Illustrator 15.1.0, SVG Export Plug-In  -->
<!DOCTYPE svg PUBLIC "-//W3C//DTD SVG 1.1//EN" "http://www.w3.org/Graphics/SVG/1.1/DTD/svg11.dtd" [
	<!ENTITY ns_flows "http://ns.adobe.com/Flows/1.0/">
]>
<svg version="1.1"
	 xmlns="http://www.w3.org/2000/svg" xmlns:xlink="http://www.w3.org/1999/xlink" xmlns:a="http://ns.adobe.com/AdobeSVGViewerExtensions/3.0/"
	 x="0px" y="0px" width="90px" height="40px" viewBox="0.986 0 90 40" enable-background="new 0.986 0 90 40" xml:space="preserve">
<defs>
</defs>
<path d="M22.924,35.299c0,0-0.039,0-0.04,0c-0.159,0-0.29-0.125-0.299-0.284l-0.133-2.425c-0.19-3.418-0.387-6.949-0.46-10.434
	c-1.388,0.24-2.75,0.489-4.106,0.829c-0.001,0.007-0.002,0.014-0.003,0.021c-0.055,0.512-0.147,1.368-0.781,1.368
	c-0.156,0.045-0.394,0.114-0.635,0.184c-0.497,0.144-1.011,0.292-1.484,0.33c-0.104,0.011-0.213-0.042-0.272-0.132
	c-0.171-0.255-0.321-0.44-0.521-0.641c-0.041-0.04-0.068-0.091-0.081-0.146l-0.002-0.011c-2.528,1.214-5.147,1.433-8.048,1.575
	c-0.105-0.001-0.19-0.038-0.25-0.114c-0.043-0.054-0.098-0.093-0.167-0.119c-0.087-0.032-0.154-0.102-0.183-0.19
	c-0.612-1.919-1.346-4.467-1.585-7.155l-0.035-0.377c-0.164-1.733-0.389-4.107,0.681-5.514c0.197-0.29,0.422-0.56,0.64-0.822
	c0.254-0.306,0.493-0.594,0.701-0.925c0.183-0.295,0.387-0.583,0.591-0.87C6.53,9.332,6.609,9.22,6.688,9.107v-0.12
	c0-0.166,0.134-0.3,0.3-0.3h8.096c0.166,0,0.3,0.134,0.3,0.3v0.119c0.493,0.694,0.898,1.193,1.352,1.661
	c0.908-0.446,1.595-0.979,2.446-1.67c0.054-0.043,0.119-0.066,0.188-0.067l0.313-0.001c1.511,0,3.038,0.086,4.516,0.17
	c1.466,0.083,2.981,0.168,4.469,0.168c1.107,0,2.104-0.047,3.041-0.144c0.199-0.578,0.359-1.08,0.486-1.594
	c0.04-0.165,0.101-0.356,0.165-0.557c0.119-0.374,0.255-0.797,0.254-1.084c-0.001-0.083,0.033-0.163,0.094-0.219
	c1.06-0.997,3.356-1.103,4.771-1.06L56.934,5.33c1.535,0.049,3.069,0.087,4.604,0.125l2.065,0.052
	c0.763,0.02,1.527,0.047,2.292,0.075c1.427,0.052,2.901,0.105,4.341,0.105c-0.019-0.005,0.036-0.011,0.09-0.011
	c0.314,0,0.589,0.215,0.817,0.641c1.052,1.148,0.938,3.208,0.854,4.713c-0.039,0.694-0.145,1.3-0.247,1.887
	c-0.05,0.29-0.101,0.579-0.143,0.87c0.573,0.023,1.133,0.152,1.675,0.277l0.318,0.072c0.083,0.019,0.154,0.071,0.196,0.146
	c0.034,0.061,0.062,0.125,0.082,0.19h3.123c0.284,0,0.583,0.015,0.888,0.03c0.308,0.016,0.622,0.031,0.933,0.031
	c0.507,0,0.898-0.043,1.231-0.137c1.211-0.338,2.549-0.495,4.212-0.495c0.694,0,1.393,0.025,2.095,0.056
	c0.048,0.002,0.094,0.016,0.136,0.039l0.303,0.172c0.094,0.053,0.151,0.153,0.151,0.261v0.124l0.242,0.726
	c0.061,0.417-0.039,0.744-0.127,1.033c-0.068,0.224-0.133,0.435-0.116,0.621c0.008,0.083-0.02,0.166-0.076,0.228
	c-0.056,0.062-0.135,0.098-0.219,0.099c-0.646,0.009-1.31,0.055-1.951,0.1c-0.596,0.042-1.191,0.083-1.786,0.097L82.8,17.456
	c-0.531,0-1.032-0.085-1.516-0.168c-0.48-0.082-0.934-0.159-1.413-0.159h-5.283c-0.608,0-1.156,0.171-1.735,0.353
	c-0.534,0.167-1.085,0.339-1.698,0.375c-0.068,0.008-0.144-0.018-0.201-0.063l-0.155-0.121c-0.22,0.967-0.503,1.743-1.129,2.629
	c-0.037,0.052-0.09,0.091-0.15,0.111c-0.88,0.293-1.621,0.317-2.43,0.317l-13.343-0.001c-0.207,0-0.413-0.003-0.616-0.007
	c-0.694-0.015-1.388-0.042-2.133,0.148c0.003,0.122,0.006,0.246,0.01,0.372c0.028,1.003,0.061,2.14-0.535,3.001
	c-0.023,0.033-0.053,0.061-0.086,0.082c-0.409,0.261-0.941,0.387-1.628,0.387c-0.536,0-1.096-0.076-1.589-0.144
	c-0.216-0.03-0.423-0.058-0.614-0.078c-0.873-0.092-1.808-0.214-2.752-0.478l-0.654,0.436c-0.424,0.319-0.404,1.015-0.387,1.629
	c0.004,0.121,0.007,0.238,0.007,0.35c0,0.122-0.073,0.231-0.187,0.278c-0.339,0.139-0.56,0.628-0.736,1.021l-0.058,0.125l0.008,0.08
	c0.014,0.158,0.026,0.315,0.054,0.471l0.217,0.288c0.068,0.091,0.079,0.212,0.028,0.314c-0.051,0.102-0.155,0.166-0.269,0.166h-0.11
	c-0.537,0.716-0.733,1.292-0.745,2.182l0.119,0.181c0.062,0.092,0.066,0.21,0.015,0.308C41.052,31.939,40.95,32,40.84,32
	c-0.658,0-1.327-0.167-1.975-0.328c-0.29-0.072-0.578-0.144-0.858-0.199c-0.324-0.063-0.628-0.181-0.921-0.294l-0.467-0.169
	c-0.139-0.045-0.278-0.092-0.406-0.153c-0.331-0.156-0.504-0.378-0.656-0.574c-0.096-0.122-0.178-0.228-0.293-0.313
	c-0.083-0.061-0.129-0.161-0.121-0.264l0.028-0.396c0.134-1.859,0.286-3.966,1.122-5.686c0.243-0.498,0.592-0.914,0.93-1.315
	c0.483-0.576,0.94-1.12,1.004-1.821c-0.001-0.022-0.037-0.195-0.487-0.458c-1.371-0.229-2.138-0.159-3.219,0.252
	c-1.166,0.419-2.13,1.177-2.795,2.194c-0.144,0.22-0.265,0.48-0.393,0.756c-0.336,0.725-0.748,1.612-1.759,1.761
	c0.016,0.637,0.055,1.28,0.093,1.905c0.031,0.527,0.063,1.055,0.082,1.583c0.021,0.594,0.07,1.196,0.119,1.801
	c0.075,0.921,0.152,1.874,0.131,2.797c-0.002,0.094-0.048,0.181-0.123,0.236C28.016,34.668,25.807,35.299,22.924,35.299z
	 M22.285,21.502c0.069,0,0.137,0.024,0.191,0.069c0.067,0.056,0.106,0.138,0.108,0.226c0.067,3.587,0.27,7.234,0.466,10.761
	l0.118,2.141c2.567-0.034,4.558-0.603,6.233-1.782c0.01-0.847-0.063-1.73-0.132-2.585c-0.05-0.614-0.1-1.225-0.121-1.828
	c-0.019-0.523-0.05-1.046-0.082-1.568c-0.043-0.724-0.089-1.473-0.098-2.215c-0.001-0.081,0.03-0.158,0.086-0.215
	c0.057-0.057,0.134-0.089,0.214-0.089c0.854,0,1.162-0.665,1.52-1.435c0.131-0.283,0.267-0.576,0.435-0.832
	c0.736-1.127,1.805-1.967,3.089-2.429c0.741-0.281,1.422-0.413,2.137-0.413c0.424,0,0.883,0.045,1.443,0.141
	c0.034,0.006,0.066,0.018,0.096,0.034c0.563,0.316,0.837,0.655,0.837,1.034c-0.082,0.916-0.621,1.558-1.143,2.179
	c-0.314,0.375-0.64,0.761-0.851,1.193c-0.785,1.615-0.933,3.661-1.063,5.466l-0.018,0.243c0.112,0.105,0.199,0.217,0.278,0.318
	c0.132,0.17,0.236,0.305,0.439,0.4c0.106,0.051,0.222,0.087,0.336,0.125l0.18,0.061c0.105,0.038,0.211,0.079,0.316,0.119
	c0.281,0.109,0.548,0.212,0.82,0.265c0.29,0.057,0.588,0.13,0.888,0.206c0.451,0.112,0.914,0.228,1.36,0.281
	c0.011-1.083,0.265-1.792,0.952-2.67c-0.023-0.034-0.04-0.071-0.048-0.111c-0.041-0.199-0.059-0.401-0.076-0.604l-0.015-0.156
	c-0.005-0.054,0.005-0.108,0.027-0.157l0.087-0.191c0.195-0.432,0.432-0.958,0.868-1.233c-0.001-0.05-0.002-0.101-0.004-0.152
	c-0.021-0.722-0.046-1.621,0.641-2.136l0.783-0.523c0.073-0.05,0.164-0.064,0.251-0.039c0.943,0.277,1.894,0.402,2.78,0.496
	c0.197,0.021,0.41,0.05,0.634,0.08c0.474,0.065,1.011,0.139,1.507,0.139c0.538,0,0.949-0.086,1.254-0.263
	c0.449-0.696,0.422-1.659,0.396-2.591c-0.006-0.211-0.012-0.417-0.012-0.615c0-0.131,0.085-0.247,0.21-0.286
	c0.686-0.214,1.364-0.243,1.938-0.243c0.198,0,0.397,0.003,0.598,0.007s0.401,0.008,0.605,0.008l13.343,0.001
	c0.751,0,1.392-0.02,2.146-0.256c0.602-0.875,0.836-1.623,1.051-2.678c0.028-0.14,0.151-0.24,0.294-0.24h0.17
	c0.066,0,0.132,0.022,0.184,0.063l0.296,0.229c0.497-0.045,0.958-0.189,1.443-0.341c0.598-0.187,1.216-0.38,1.915-0.38h5.283
	c0.53,0,1.03,0.085,1.514,0.167c0.48,0.082,0.935,0.159,1.415,0.159l0.104-0.001c0.585-0.014,1.172-0.055,1.758-0.096
	c0.557-0.039,1.13-0.079,1.699-0.095c0.025-0.183,0.078-0.358,0.131-0.529c0.077-0.252,0.15-0.491,0.119-0.723l-0.244-0.716
	c-0.011-0.03-0.016-0.062-0.016-0.093l-0.088-0.05c-0.67-0.028-1.335-0.052-1.997-0.052c-1.629,0-2.878,0.146-4.05,0.474
	c-0.388,0.108-0.831,0.159-1.394,0.159c-0.32,0-0.645-0.016-0.963-0.032c-0.294-0.015-0.583-0.029-0.857-0.029h-3.381
	c-0.081,0-0.159-0.033-0.216-0.091c-0.057-0.058-0.087-0.137-0.084-0.218c0.001-0.024-0.001-0.05-0.007-0.075l-0.167-0.038
	c-0.565-0.13-1.151-0.266-1.72-0.266l-0.149,0.003c-0.084,0.002-0.173-0.031-0.232-0.096s-0.089-0.152-0.078-0.239
	c0.049-0.416,0.12-0.827,0.191-1.238c0.1-0.57,0.202-1.159,0.234-1.744c0.082-1.473,0.188-3.388-0.737-4.411
	c-0.179-0.315-0.287-0.383-0.33-0.383c-0.023,0.005-0.065,0.011-0.09,0.011c-1.45,0-2.931-0.053-4.362-0.105
	c-0.763-0.027-1.525-0.055-2.286-0.075l-2.065-0.052c-1.535-0.038-3.071-0.076-4.608-0.125L37.457,5.308
	C37.303,5.303,37.135,5.3,36.958,5.3c-1.772,0-3.096,0.293-3.752,0.828c-0.028,0.353-0.159,0.761-0.276,1.126
	c-0.06,0.187-0.116,0.364-0.154,0.517c-0.145,0.59-0.33,1.157-0.564,1.829c-0.038,0.109-0.136,0.186-0.25,0.199
	c-1.013,0.113-2.091,0.167-3.295,0.167c-1.505,0-3.028-0.086-4.503-0.169c-1.469-0.083-2.987-0.169-4.481-0.169l-0.204,0.001
	c-0.905,0.733-1.644,1.294-2.68,1.773c-0.112,0.053-0.248,0.029-0.338-0.06c-0.69-0.688-1.188-1.353-1.621-1.968
	c-0.019-0.026-0.033-0.056-0.042-0.087H7.275c-0.009,0.03-0.022,0.058-0.04,0.084C7.139,9.512,7.039,9.652,6.939,9.792
	c-0.196,0.277-0.394,0.554-0.571,0.84c-0.229,0.367-0.493,0.684-0.749,0.991c-0.21,0.253-0.421,0.507-0.613,0.789
	c-0.938,1.233-0.726,3.472-0.57,5.106l0.035,0.38c0.229,2.572,0.925,5.026,1.52,6.9c0.063,0.035,0.122,0.077,0.175,0.125
	c2.907-0.145,5.521-0.384,8.012-1.674c0.082-0.042,0.181-0.044,0.265-0.006c0.084,0.04,0.146,0.116,0.166,0.207l0.067,0.301
	c0.157,0.164,0.293,0.327,0.43,0.518c0.372-0.052,0.79-0.172,1.195-0.29c0.251-0.073,0.498-0.144,0.732-0.2
	c0.173-0.087,0.234-0.654,0.255-0.84c0.01-0.097,0.02-0.183,0.03-0.246c0.02-0.117,0.106-0.212,0.222-0.241
	c1.556-0.399,3.108-0.676,4.695-0.948C22.251,21.503,22.269,21.502,22.285,21.502z M65.252,13.331L65.252,13.331
	c-0.325,0-0.65-0.019-0.938-0.035c-0.217-0.012-0.41-0.024-0.564-0.024H38.398c-1.105,0-1.714-0.624-1.714-1.756v-1.371
	c0-1.161,0.608-1.8,1.714-1.8h27.553c0.551,0,0.976,0.182,1.264,0.54c0.447,0.397,0.593,1.396,0.572,2.119
	c-0.012,0.394-0.095,1.355-0.619,1.774C66.787,13.268,65.89,13.331,65.252,13.331z M38.398,8.944c-0.771,0-1.114,0.37-1.114,1.2
	v1.371c0,0.811,0.333,1.157,1.114,1.157H63.75c0.163,0,0.369,0.011,0.599,0.024c0.276,0.016,0.59,0.034,0.903,0.034
	c0.793,0,1.296-0.126,1.494-0.375c0.269-0.224,0.423-0.743,0.441-1.37c0.021-0.736-0.154-1.462-0.407-1.69
	c-0.204-0.248-0.464-0.351-0.829-0.351H38.398z"/>
<rect id="sliceCopy_x5F_45_1_" x="90.918" fill="none" width="94.576" height="40"/>
<rect id="sliceCopy_x5F_44_1_" fill="none" width="90.918" height="40"/>
</svg>
