<?xml version="1.0" encoding="utf-8"?>
<!-- Generator: Adobe Illustrator 15.1.0, SVG Export Plug-In  -->
<!DOCTYPE svg PUBLIC "-//W3C//DTD SVG 1.1//EN" "http://www.w3.org/Graphics/SVG/1.1/DTD/svg11.dtd" [
	<!ENTITY ns_flows "http://ns.adobe.com/Flows/1.0/">
]>
<svg version="1.1"
	 xmlns="http://www.w3.org/2000/svg" xmlns:xlink="http://www.w3.org/1999/xlink" xmlns:a="http://ns.adobe.com/AdobeSVGViewerExtensions/3.0/"
	 x="0px" y="0px" width="113px" height="40px" viewBox="0.565 0 113 40" enable-background="new 0.565 0 113 40"
	 xml:space="preserve">
<defs>
</defs>
<path d="M52.79,34.3h-7.141c-0.215,0-0.786,0-0.786-2.37c0-0.142,0.008-0.4,0.018-0.731c0.028-0.979,0.114-3.868-0.122-4.472
	c-0.081,0.023-0.156,0.073-0.24,0.128c-0.129,0.084-0.274,0.18-0.465,0.183l-4.632,0.036c-0.519,0.004-0.904,0.287-1.032,0.755
	c-0.009,0.036-0.01,0.158-0.011,0.224c-0.002,0.097-0.003,0.174-0.014,0.24c0.004,0.013,0.009,0.028,0.014,0.044
	c0.064,0.203,0.152,0.48,0.021,0.703c-0.12,0.205-0.366,0.225-0.584,0.242c-0.08,0.006-0.215,0.017-0.255,0.038
	c-0.117,0.119-0.208,0.308-0.304,0.508c-0.05,0.102-0.099,0.204-0.154,0.302c-0.082,0.149-0.178,0.313-0.278,0.484
	c-0.215,0.369-0.455,0.781-0.622,1.142c0.181,0.364,0.201,0.659,0.063,0.896c-0.156,0.271-0.479,0.402-0.987,0.402
	c-0.894,0-2.237-0.41-2.884-0.607l-0.22-0.066c-0.184-0.053-0.354-0.092-0.509-0.127c-0.43-0.098-0.801-0.182-0.991-0.496
	c-0.131-0.216-0.145-0.496-0.044-0.878c0.082-0.313,0.295-0.552,0.483-0.762c0.088-0.099,0.177-0.197,0.245-0.301
	c0.516-0.781,0.966-1.5,1.409-2.206c0.477-0.76,0.944-1.506,1.473-2.299c0.085-0.127,0.177-0.253,0.269-0.379
	c0.501-0.688,0.787-1.14,0.384-1.717c-0.295-0.423-0.856-0.611-1.82-0.611c-0.295,0-0.594,0.016-0.881,0.031
	c-0.276,0.015-0.544,0.029-0.787,0.029c-0.622-0.006-1.091-0.12-1.543-0.23c-0.469-0.114-0.911-0.222-1.458-0.222
	c-0.279,0.004-0.481,0.004-0.677,0.004c-1.089,0.001-1.876,0.001-2.647,0.509c-0.219,0.145-0.423,0.363-0.639,0.594l-0.204,0.216
	c-0.738,0.762-0.833,0.86-1.101,1.895c-0.285,1.096-1.221,1.222-1.9,1.222c-0.346,0-0.707-0.034-1.09-0.07
	c-0.382-0.036-0.776-0.074-1.151-0.074H14.61c-0.323,0-0.775,0.038-1.254,0.077c-0.595,0.049-1.269,0.104-1.876,0.104
	c-0.658,0-1.145-0.066-1.487-0.202c-0.202-0.081-0.317-0.273-0.419-0.444c-0.057-0.095-0.122-0.204-0.177-0.246
	c-0.086-0.063-0.158-0.154-0.185-0.263c-0.135,0-0.305-0.011-0.488-0.022c-0.205-0.014-0.429-0.028-0.64-0.028
	c-0.488,0-0.576,0.086-0.58,0.09c-0.071,0.144-0.005,0.835,0.023,1.131c0.019,0.199,0.034,0.371,0.034,0.476
	c0,0.799-0.064,1.364-0.907,1.364c-0.124,0-0.271-0.01-0.444-0.021c-0.055-0.004-0.112-0.008-0.173-0.011
	c-0.014,0.203-0.075,0.373-0.185,0.502c-0.102,0.12-0.304,0.265-0.633,0.251c-0.017,0.011-0.035,0.021-0.056,0.027
	c-0.588,0.195-0.97-0.007-1.12-0.192c-0.393-0.485-0.188-1.434-0.024-2.196c0.05-0.234,0.103-0.476,0.103-0.574v-4.261
	c0-1.188-0.06-2.352-0.117-3.477L4,18.472c-0.009-0.198-0.038-0.435-0.064-0.655c-0.03-0.253-0.057-0.488-0.057-0.638
	c0-0.066-0.045-0.185-0.08-0.28c-0.078-0.21-0.167-0.449-0.022-0.657c0.062-0.088,0.186-0.193,0.432-0.193
	c0.068,0,0.157-0.004,0.257-0.008C5,16.019,5.744,15.965,5.942,16.374c0.015,0.031,0.028,0.066,0.036,0.107
	c0.084,0.003,0.163,0.003,0.236,0.003l0.17,0c0.507,0,0.915,0.054,1.16,0.736c0.123,0.338,0.082,0.804,0.046,1.214
	c-0.014,0.165-0.028,0.321-0.028,0.45v1.174c0.29,0.054,0.813,0.138,1.273,0.138c0.517,0,0.684-0.104,0.684-0.155
	c0-0.427,0.203-0.935,1.175-0.935c0.341,0,0.734,0.057,1.116,0.112c0.366,0.053,0.746,0.108,1.055,0.108
	c0.589,0,0.617-0.19,0.634-0.303c0.029-0.201,0.021-0.286,0.016-0.317c-0.01,0.007-0.054,0.002-0.144,0.001l-0.194,0.004
	c-0.299,0.009-0.691,0.014-1.033,0.036c-0.228,0.014-0.447,0.028-0.652,0.028c-0.567,0-1.252-0.099-1.511-0.871
	c-0.281-0.846-0.329-4.193,0.393-4.719c0.381-0.28,0.937-0.243,1.409-0.228c0.106,0.003,0.209,0.007,0.305,0.007h5.189
	c0.787,0,1.602-0.025,2.42-0.049c1.304-0.04,2.612-0.08,3.831-0.021c0.242,0.011,0.554-0.006,0.88-0.025
	c0.291-0.017,0.596-0.034,0.885-0.034c0.546,0,1.214,0.053,1.533,0.469c0.179,0.231,0.221,0.531,0.126,0.889
	c-0.109,0.408-0.477,0.801-0.801,1.149c-0.052,0.055-0.102,0.108-0.147,0.159c0.452-0.444,0.878-0.709,1.293-0.709
	c0.221,0,0.459,0.011,0.704,0.022c0.249,0.012,0.504,0.024,0.751,0.024c0.412,0,0.992-0.03,1.274-0.292
	c0.01-0.023,0.019-0.152,0.024-0.229c0.016-0.211,0.034-0.474,0.235-0.636c0.063-0.051,0.137-0.091,0.222-0.122
	c-0.005-0.005-0.01-0.01-0.015-0.016c-0.206-0.237-0.256-0.54-0.133-0.811c0.125-0.274,0.406-0.458,0.7-0.458
	c0.473,0,0.993-0.058,1.496-0.114c0.347-0.039,0.673-0.075,0.947-0.088c0.43-0.018,0.782,0.022,1.125,0.138
	c0.26,0.087,0.326,0.269,0.35,0.371c0.087,0.016,0.371,0.021,0.757-0.003c0.229-0.014,0.479-0.029,0.712-0.029
	c0.451,0,0.737,0.056,0.928,0.18c0.23,0.15,0.207,0.445,0.186,0.706c-0.002,0.031-0.005,0.069-0.007,0.104
	c0.435,0.154,1.505,0.099,2.382,0.021c0.288-0.025,0.559-0.049,0.792-0.061c0.085-1.021,0.133-2.139,0.071-2.335
	c-0.103-0.144-0.182-0.144-0.208-0.144c-0.118,0-0.298,0.112-0.473,0.22c-0.253,0.157-0.54,0.335-0.869,0.335l-0.166,0
	c-0.725,0-1.484,0.03-2.253,0.06c-0.793,0.031-1.595,0.062-2.378,0.062c-0.945,0-1.735-0.047-2.416-0.144
	c-0.572-0.08-0.568-0.978-0.499-2.238c0.009-0.165,0.017-0.302,0.017-0.391c0-0.047-0.009-0.136-0.018-0.245
	c-0.063-0.722-0.058-1.008,0.098-1.176c0.142-0.152,0.409-0.211,0.954-0.211c0.598,0,1.411,0.076,1.948,0.127
	c0.259,0.024,0.455,0.043,0.533,0.044c1.39,0.008,3.444,0.049,5.229,0.312c0.126,0.019,0.243,0.075,0.355,0.129
	c0.03,0.014,0.069,0.033,0.105,0.048c0.003-0.031,0.006-0.071,0.006-0.124c0-0.503,0.465-0.758,1.383-0.758
	c0.348,0,0.721,0.031,1.035,0.058c0.212,0.018,0.394,0.035,0.517,0.035c0.091,0,0.369,0,0.529,0.196
	c0.146,0.18,0.104,0.39,0.076,0.529c-0.003,0.012-0.006,0.026-0.008,0.04c0.116,0.015,0.412,0.015,0.664,0.034
	c0.324,0.024,0.689,0.044,0.928,0.009c0.006-0.146,0.028-0.294,0.147-0.414c0.08-0.081,0.188-0.13,0.318-0.146
	c-0.021-0.217,0.017-0.405,0.114-0.549c0.065-0.096,0.155-0.167,0.262-0.213c-0.017-0.226,0.011-0.46,0.159-0.643
	C47.118,5.724,47.524,5.7,47.921,5.7c0.775,0,1.148,0.029,1.169,0.681c0.005,0.136,0.01,0.305,0.09,0.536
	c0.257,0.753,1.093,1.155,1.883,0.875c-0.033-0.118-0.043-0.25,0.042-0.377c0.128-0.191,0.371-0.213,0.543-0.213h2.113
	c0.596,0,0.735,0.264,0.799,0.549c0.006,0.028,0.016,0.071,0.022,0.082l0,0c0,0,0.066,0.058,0.39,0.058
	c1.175,0,1.943-0.174,2.98-0.438c1.443-0.368,2.913-0.671,4.033-0.895c0.784-0.158,1.264-0.187,1.926-0.187l1.056,0.006l4.46-0.028
	c0.001,0,0.002,0,0.002,0c0.622,0,0.878,0.089,0.9,0.615c0.004,0.089,0.008,0.203,0.041,0.351c0.144,0.641,0.096,1.381,0.049,2.097
	c-0.021,0.324-0.042,0.64-0.042,0.931v1.42c0,0.044-0.001,0.087-0.004,0.129c0.194-0.105,0.489-0.152,0.938-0.152
	c0.347,0,0.734,0.029,1.066,0.054c0.234,0.018,0.438,0.034,0.575,0.034c0.384,0,0.715,0.076,1.013,0.235
	c0.025-0.046,0.056-0.088,0.09-0.126c0.083-0.09,0.235-0.197,0.484-0.197c0.467,0,1.056,0.388,1.257,0.655
	c0.229,0.304,0.278,0.582,0.313,0.785c0.042,0.247,0.054,0.313,0.718,0.313h9.418c0.356,0,1.038,0.264,1.083,0.695
	c0.012,0.115-0.014,0.293-0.227,0.433c0.175,0.352,0.155,0.744,0.134,1.179c-0.008,0.162-0.017,0.337-0.017,0.529
	c0,0.472,0,0.835,0.063,0.917c0.046,0.062,0.449,0.062,0.622,0.062l0.484-0.001h8.07c0.049,0,0.084-0.003,0.107-0.006
	c0.078-0.28,0.275-0.4,0.619-0.4c0.134,0,0.238,0.073,0.396,0.185c0.08,0.056,0.25,0.176,0.349,0.21c0-0.021,0.007-0.06,0.012-0.117
	c0.008-0.117,0.084-0.218,0.193-0.259c0.11-0.042,0.234-0.015,0.316,0.067c0.008,0.007,0.028,0.019,0.052,0.033
	c0.024-0.046,0.061-0.086,0.107-0.115c0.089-0.057,0.203-0.059,0.296-0.011c0.706,0.369,1.868,0.416,2.802,0.416
	c0.431,0,0.87-0.011,1.301-0.022c0.42-0.011,0.831-0.021,1.22-0.021h1.742c0.151,0,0.378-0.017,0.641-0.037
	c0.383-0.028,0.84-0.062,1.261-0.062c0.658,0,1.432,0.069,1.574,0.605c0.007,0.025,0.01,0.051,0.01,0.077
	c0,0.08,0.012,0.191,0.023,0.313c0.043,0.458,0.064,0.8-0.056,1.039c-0.264,0.522-0.999,0.589-1.609,0.589
	c-0.369,0-0.764-0.03-1.124-0.057c-0.288-0.022-0.554-0.042-0.763-0.042c-0.187,0-0.537-0.013-0.985-0.031
	c-0.785-0.031-1.86-0.073-2.875-0.073c-2.071,0-2.543,0.184-2.646,0.249c-0.021,0.079-0.075,0.146-0.149,0.185
	c-0.095,0.05-0.209,0.046-0.298-0.01c-0.41-0.256-0.496-0.235-0.956-0.2c-0.2,0.016-0.293,0.054-0.421,0.106
	c-0.152,0.063-0.341,0.141-0.707,0.177c-0.099,0.012-0.191-0.028-0.255-0.1c-0.063-0.073-0.089-0.171-0.066-0.266
	c0.017-0.074-0.002-0.097-0.013-0.111c-0.044-0.056-0.267-0.237-1.263-0.237c-0.553,0-1.151,0.054-1.632,0.097
	c-0.312,0.028-0.565,0.05-0.713,0.05c-0.562,0-1.163,0.031-1.777,0.062c-0.651,0.033-1.318,0.066-1.971,0.066
	c-0.846,0-1.525-0.056-2.12-0.175c-0.333,0.301-1.097,0.428-2.484,0.428c-1.043,0-2.227-0.078-3.091-0.134
	c-0.496-0.033-0.893-0.059-1.103-0.06l-8.132-0.021c0,0.109,0.006,0.22,0.012,0.33c0.024,0.456,0.05,0.927-0.325,1.195
	c-0.081,0.058-0.186,0.071-0.275,0.039c-0.014-0.005-0.026-0.01-0.038-0.017c-0.271,0.046-0.562,0.052-0.739-0.032
	c-0.153-0.071-0.251-0.203-0.271-0.36c-0.061,0.033-0.13,0.083-0.18,0.127c-0.017,0.115-0.099,0.21-0.207,0.244
	c-0.029,0.009-0.054,0.011-0.097,0.013c-0.333-0.002-0.479-0.101-0.598-0.18c-0.067-0.045-0.127-0.085-0.234-0.12
	c-0.025,0.006-0.051,0.009-0.074,0.009c-0.292,0-0.47-0.011-0.581-0.033c-0.179,0.003-0.207,0.024-0.257,0.061
	c-0.07,0.053-0.178,0.133-0.398,0.192c-0.003,0-0.006,0.001-0.009,0.002l-0.087,0.023c-0.104,0.024-0.208-0.011-0.277-0.08
	c-0.028-0.001-0.06,0-0.091,0c-0.056,0.056-0.141,0.088-0.221,0.087c-0.017,0.003-0.048-0.001-0.075-0.008l-0.012-0.003
	c0,0-0.004-0.001-0.008-0.002l-0.063-0.017c-0.004-0.001-0.007-0.001-0.011-0.002c-0.219-0.06-0.324-0.139-0.395-0.192
	c-0.048-0.036-0.076-0.057-0.249-0.06c-0.157,0.038-0.399,0.053-0.627,0.032c-0.053,0.018-0.101,0.035-0.142,0.052
	c-0.001,0.015-0.003,0.029-0.006,0.044c-0.035,0.162-0.18,0.271-0.351,0.23l0,0l0,0h-0.001c-0.336-0.074-0.454-0.208-0.54-0.328
	c0-0.008-0.023-0.02-0.097-0.026c-0.19,0.189-0.354,0.321-0.542,0.321c-0.138,0-0.261-0.072-0.329-0.193
	c-0.017-0.029-0.029-0.061-0.04-0.095c-0.106,0.034-0.241,0.092-0.327,0.128l-0.08,0.034c-0.026,0.017-0.055,0.031-0.085,0.04
	c-0.051,0.021-0.103,0.032-0.147,0.041c-0.098,0.018-0.19-0.01-0.258-0.069c-0.059-0.002-0.131-0.001-0.186,0
	c-0.061,0.059-0.15,0.088-0.237,0.07l0,0l0,0c-0.001,0-0.002,0-0.003,0c-0.299-0.056-0.423-0.108-0.532-0.155
	c-0.094-0.04-0.175-0.075-0.414-0.118c-0.422,0.171-1.157,0.177-1.168,0.177c-0.026,0-0.156-0.013-0.182-0.02
	c-0.026-0.007-0.052-0.019-0.076-0.034c-0.128-0.006-0.443-0.011-1.015-0.011c-0.762,0-1.522,0.01-1.656,0.018
	c-0.108,0.022-0.228-0.028-0.292-0.113c-0.136,0.021-0.339,0.084-0.522,0.142c-0.506,0.157-1.021,0.288-1.288,0.094
	c-0.058-0.043-0.104-0.097-0.138-0.16c-0.11,0.044-0.249,0.112-0.331,0.151c-0.121,0.059-0.231,0.111-0.306,0.137
	c-0.14,0.049-0.277,0.091-0.409,0.13c-0.506,0.15-0.775,0.245-0.912,0.591c-0.064,0.159-0.045,0.953,0.017,1.299
	c0.016,0.089,0.124,0.263,0.196,0.377c0.1,0.16,0.166,0.265,0.173,0.386c0.022,0.441,0.021,0.826-0.215,1.075
	c-0.114,0.121-0.268,0.191-0.457,0.211c-0.021,0.141,0,0.416,0.01,0.545c0.008,0.102,0.014,0.192,0.014,0.256v2.72
	c0,0.475-0.024,0.994-0.05,1.528c-0.059,1.253-0.12,2.549,0.121,3.512c0.022,0.089,0.002,0.185-0.055,0.257S52.883,34.3,52.79,34.3z
	 M44.858,26.112c0.111,0,0.218,0.046,0.3,0.132c0.341,0.351,0.422,1.605,0.322,4.973c-0.01,0.322-0.018,0.574-0.018,0.713
	c0,1.074,0.147,1.694,0.252,1.791l6.706-0.02c-0.17-0.983-0.114-2.166-0.06-3.314c0.024-0.523,0.049-1.034,0.049-1.5v-2.72
	c0-0.053-0.006-0.127-0.013-0.211c-0.034-0.462-0.045-0.832,0.151-1.043c0.084-0.091,0.199-0.141,0.323-0.141
	c0.068,0,0.119-0.011,0.137-0.03c0.078-0.082,0.059-0.466,0.05-0.63c-0.012,0.021-0.043-0.035-0.082-0.1
	c-0.108-0.172-0.242-0.387-0.279-0.592c-0.045-0.257-0.128-1.265,0.018-1.626c0.25-0.631,0.783-0.79,1.298-0.943
	c0.123-0.037,0.251-0.075,0.383-0.121c0.06-0.021,0.146-0.064,0.243-0.111c0.309-0.149,0.542-0.255,0.732-0.255
	c0.203,0,0.356,0.125,0.392,0.307c0.208-0.012,0.476-0.095,0.715-0.17c0.528-0.165,0.933-0.225,1.113-0.056
	c0.293-0.018,0.768-0.018,1.536-0.018c0.819,0,1.169,0,1.318,0.061c0.322-0.018,0.89-0.132,1.011-0.163
	c0.047-0.018,0.101-0.021,0.152-0.014c0.355,0.061,0.489,0.118,0.608,0.168c0.057,0.024,0.109,0.047,0.195,0.07
	c0.261-0.071,0.642-0.045,0.824-0.014l0.038-0.016c0.489-0.209,0.876-0.271,1.054-0.037c0.008-0.008,0.015-0.015,0.02-0.021
	c0.082-0.083,0.153-0.156,0.286-0.156c0.379,0,0.538,0.081,0.661,0.23c0.118-0.069,0.28-0.133,0.492-0.199
	c0.007-0.002,0.069-0.02,0.081-0.023l0.001,0c0,0,0,0,0.001,0c0.069-0.017,0.141-0.006,0.199,0.022
	c0.122-0.005,0.253-0.015,0.318-0.021c0.023-0.006,0.049-0.009,0.074-0.009c0.386,0,0.521,0.078,0.657,0.18
	c0.021,0.017,0.041,0.031,0.065,0.044c0.234-0.055,0.561-0.054,0.797,0c0.024-0.014,0.044-0.028,0.066-0.045
	c0.137-0.102,0.271-0.18,0.656-0.18c0.023,0,0.047,0.002,0.068,0.008c0.074,0.007,0.242,0.018,0.374,0.023
	c0.055-0.029,0.118-0.037,0.186-0.024c0.297,0.066,0.446,0.166,0.555,0.239c0.036,0.024,0.063,0.042,0.089,0.054
	c0.167-0.18,0.482-0.399,0.758-0.399c0.208,0,0.446,0.125,0.49,0.465c0.107,0.007,0.306-0.02,0.446-0.053
	c0.037-0.134,0.025-0.354,0.014-0.568c-0.012-0.216-0.024-0.46,0.004-0.698c0.019-0.15,0.146-0.264,0.298-0.264h0.001l8.418,0.022
	c0.217,0,0.627,0.027,1.141,0.061c0.855,0.056,2.027,0.133,3.051,0.133c1.841,0,2.07-0.254,2.091-0.283
	c0.056-0.134,0.201-0.204,0.341-0.171c0.594,0.137,1.284,0.201,2.173,0.201c0.643,0,1.299-0.033,1.941-0.065
	c0.624-0.032,1.235-0.062,1.807-0.062c0.136,0,0.371-0.022,0.659-0.048c0.492-0.044,1.105-0.1,1.686-0.1
	c0.931,0,1.48,0.147,1.732,0.464c0.041,0.051,0.082,0.118,0.111,0.201c0.091-0.024,0.16-0.053,0.231-0.082
	c0.145-0.06,0.308-0.127,0.604-0.15c0.553-0.041,0.772-0.009,1.074,0.147c0.341-0.24,1.168-0.373,3.021-0.373
	c1.026,0,2.108,0.042,2.898,0.073c0.438,0.017,0.779,0.031,0.962,0.031c0.222,0,0.503,0.021,0.809,0.043
	c0.346,0.026,0.724,0.055,1.078,0.055c0.82,0,1.025-0.163,1.074-0.259c0.051-0.103,0.012-0.514-0.007-0.712
	c-0.011-0.112-0.021-0.215-0.023-0.3c-0.039-0.032-0.23-0.152-0.986-0.152c-0.406,0-0.847,0.033-1.217,0.06
	c-0.28,0.021-0.522,0.038-0.685,0.038h-1.742c-0.384,0-0.79,0.011-1.204,0.021c-0.436,0.011-0.881,0.022-1.316,0.022
	c-0.888,0-1.868-0.04-2.644-0.301c-0.001,0.006-0.002,0.012-0.003,0.019c-0.024,0.114-0.112,0.204-0.226,0.23
	c-0.115,0.028-0.232-0.015-0.304-0.106c-0.022-0.029-0.067-0.061-0.117-0.092c-0.134,0.213-0.338,0.244-0.443,0.244
	c-0.269,0-0.527-0.183-0.736-0.33c-0.039-0.027-0.073-0.053-0.103-0.072c-0.084,0.284-0.294,0.403-0.674,0.403l-8.555,0.001
	c-0.469,0-0.874,0-1.101-0.299c-0.184-0.243-0.184-0.572-0.184-1.227c0-0.254,0.009-0.439,0.017-0.61
	c0.028-0.572,0.03-0.835-0.214-1.074c-0.079-0.078-0.109-0.192-0.078-0.299s0.118-0.187,0.227-0.209
	c0.004-0.001,0.007-0.001,0.01-0.002c-0.104-0.051-0.236-0.094-0.335-0.094h-9.418c-0.994,0-1.215-0.261-1.31-0.811
	c-0.03-0.173-0.059-0.337-0.201-0.526c-0.104-0.138-0.527-0.416-0.777-0.416c-0.044,0.004-0.077,0.049-0.065,0.212
	c0.01,0.122-0.056,0.237-0.166,0.292c-0.109,0.054-0.241,0.036-0.332-0.044c-0.293-0.26-0.599-0.372-1.023-0.372
	c-0.147,0-0.367-0.016-0.62-0.035c-0.317-0.024-0.689-0.052-1.021-0.052c-0.536,0-0.65,0.077-0.661,0.085
	c-0.043,0.042-0.047,0.05-0.035,0.2c0.01,0.132,0.024,0.313-0.05,0.532c-0.052,0.153-0.039,0.254-0.026,0.351
	c0.013,0.107,0.034,0.27-0.09,0.41c-0.143,0.162-0.377,0.174-0.719,0.174H54.763c-0.265,0-0.489-0.108-0.651-0.312
	c-0.506-0.639-0.214-2.019-0.15-2.29c0.033-0.139,0.053-0.25,0.068-0.338c0.063-0.362,0.143-0.599,0.642-0.599
	c0.063,0,0.141,0.002,0.233,0.005c0.135,0.004,0.307,0.01,0.526,0.01l0.917-0.007c0.506,0,1.052,0.016,1.619,0.135
	c0.382,0.079,0.806,0.193,1.241,0.311c0.331,0.09,0.669,0.181,0.999,0.259c0.335,0.079,0.693,0.201,1.039,0.318
	c0.373,0.126,0.76,0.257,1.102,0.329c0.719,0.152,1.536,0.224,2.572,0.224c0.654,0,1.316-0.028,1.969-0.055
	c0.644-0.026,1.278-0.053,1.89-0.053c0.188,0,0.361,0.015,0.517,0.029c0.108,0.01,0.207,0.02,0.295,0.02
	c0.155,0,0.188,0,0.188-0.316v-1.42c0-0.303,0.021-0.632,0.043-0.97c0.044-0.674,0.089-1.37-0.036-1.927
	c-0.042-0.192-0.05-0.34-0.055-0.456c0-0.011-0.001-0.022-0.001-0.033c-0.047-0.004-0.122-0.008-0.244-0.008l-4.518,0.029
	l-1.056-0.006c-0.636,0-1.068,0.026-1.809,0.174c-1.112,0.223-2.573,0.524-4.002,0.888c-1.082,0.276-1.884,0.457-3.129,0.457
	c-0.717,0-0.918-0.244-0.998-0.61c-0.002-0.053-0.049-0.079-0.213-0.079h-2.068c0.061,0.291-0.087,0.408-0.19,0.458
	C50.323,8.812,49,8.248,48.611,7.112C48.503,6.796,48.495,6.558,48.49,6.4c-0.001-0.023-0.001-0.05-0.003-0.073
	C48.414,6.313,48.255,6.3,47.921,6.3c-0.331,0-0.521,0.028-0.567,0.083c-0.011,0.014-0.063,0.1,0.01,0.45
	c0.019,0.092-0.006,0.188-0.068,0.258c-0.061,0.071-0.151,0.11-0.246,0.102l-0.088,0.008c-0.017,0.023-0.038,0.173,0.063,0.435
	c0.041,0.104,0.021,0.222-0.053,0.306c-0.072,0.084-0.181,0.122-0.296,0.095c-0.087-0.021-0.147-0.029-0.188-0.032
	c0,0.002,0,0.004,0,0.005c0,0.106,0.001,0.427-0.314,0.512c-0.316,0.084-0.799,0.071-1.259,0.037
	c-0.181-0.013-0.355-0.027-0.512-0.027c-0.186,0-0.449-0.022-0.607-0.215c-0.153-0.188-0.107-0.415-0.08-0.55
	c0-0.001,0-0.003,0.001-0.005c-0.106,0.006-0.341-0.016-0.586-0.037c-0.299-0.026-0.654-0.057-0.984-0.057
	c-0.65,0-0.783,0.125-0.783,0.158c0,0.656-0.326,0.754-0.521,0.754c-0.162,0-0.314-0.073-0.449-0.138
	c-0.063-0.03-0.148-0.071-0.185-0.076c-1.746-0.257-3.772-0.297-5.146-0.306c-0.086,0-0.301-0.02-0.584-0.047
	c-0.526-0.049-1.322-0.124-1.893-0.124c-0.273,0-0.416,0.017-0.487,0.031c-0.013,0.174,0.019,0.536,0.033,0.704
	c0.011,0.132,0.02,0.24,0.02,0.297c0,0.096-0.008,0.245-0.018,0.423c-0.019,0.344-0.074,1.36,0.046,1.62
	c0.64,0.087,1.383,0.129,2.271,0.129c0.775,0,1.569-0.031,2.355-0.061c0.775-0.03,1.543-0.06,2.275-0.06l0.165,0
	c0.159,0,0.359-0.125,0.554-0.246c0.246-0.152,0.5-0.311,0.789-0.311c0.282,0,0.526,0.15,0.725,0.446
	c0.055,0.08,0.224,0.328-0.013,2.953c-0.014,0.155-0.144,0.273-0.299,0.273c-0.269,0-0.626,0.032-1.016,0.067
	c-0.479,0.042-1.021,0.09-1.511,0.09c-0.614,0-1.036-0.074-1.328-0.233c-0.227-0.124-0.205-0.392-0.187-0.627
	c0.004-0.053,0.01-0.13,0.011-0.187c-0.081-0.025-0.236-0.051-0.526-0.051c-0.222,0-0.459,0.015-0.676,0.028
	c-0.194,0.012-0.373,0.022-0.514,0.022c-0.462,0-0.768-0.073-0.853-0.431c-0.271-0.087-0.543-0.114-0.874-0.097
	c-0.263,0.012-0.575,0.047-0.907,0.084c-0.496,0.055-1.058,0.118-1.563,0.118c-0.06,0-0.126,0.046-0.153,0.106
	c-0.012,0.026-0.022,0.063,0,0.112c0.134,0.012,0.666-0.015,0.915-0.035c0.094-0.008,0.16-0.012,0.182-0.012
	c0.213,0,0.378,0.024,0.505,0.073c0.289,0.113,0.312,0.339,0.312,0.405c0,0.348-0.452,0.609-1.051,0.609
	c-0.091,0-0.207-0.009-0.334-0.021c-0.135-0.012-0.283-0.025-0.425-0.025c-0.254,0-0.331,0.046-0.349,0.06
	c0.002,0.014-0.008,0.138-0.013,0.212c-0.015,0.205-0.033,0.458-0.216,0.626c-0.432,0.4-1.125,0.452-1.682,0.452
	c-0.257,0-0.521-0.012-0.779-0.024c-0.235-0.011-0.464-0.022-0.676-0.022c-0.638,0-1.755,1.548-2.423,2.473
	c-0.329,0.457-0.614,0.851-0.836,1.085c-0.037,0.04-0.081,0.092-0.129,0.149c-0.253,0.302-0.599,0.716-1.052,0.716
	c-0.212,0-0.544,0.026-0.936,0.056c-0.579,0.044-1.299,0.099-1.965,0.099c-1.142,0-1.788-0.155-2.097-0.503
	c-0.146-0.165-0.209-0.371-0.182-0.596c0.111-0.926,1.354-0.926,1.762-0.926c0.458,0,0.961,0.045,1.447,0.088
	c0.757,0.067,1.466,0.112,1.743,0.02c0.295-0.096,0.705-0.448,1.004-0.705l0.154-0.132c0.422-0.352,0.825-0.892,1.181-1.369
	c0.154-0.206,0.302-0.404,0.443-0.579c0.08-0.099,0.186-0.212,0.3-0.334c0.263-0.281,0.589-0.631,0.659-0.894
	c0.045-0.168,0.038-0.293-0.021-0.369c-0.082-0.107-0.333-0.235-1.058-0.235c-0.278,0-0.57,0.017-0.851,0.033
	c-0.35,0.02-0.684,0.038-0.943,0.026c-1.2-0.058-2.496-0.018-3.784,0.021c-0.824,0.025-1.645,0.049-2.438,0.049h-5.189
	c-0.102,0-0.211-0.003-0.324-0.007c-0.114-0.004-0.232-0.008-0.35-0.008c-0.13,0-0.522,0-0.687,0.12
	c-0.338,0.304-0.466,3.178-0.177,4.045c0.098,0.292,0.283,0.461,0.941,0.461c0.193,0,0.4-0.013,0.615-0.027
	c0.347-0.021,0.751-0.029,1.051-0.037l0.214-0.005c0.221,0,0.446,0.025,0.603,0.206c0.178,0.206,0.162,0.505,0.119,0.798
	c-0.08,0.542-0.492,0.816-1.228,0.816c-0.353,0-0.753-0.058-1.141-0.114c-0.36-0.052-0.733-0.106-1.03-0.106
	c-0.575,0-0.575,0.186-0.575,0.335c0,0.345-0.223,0.755-1.283,0.755c-0.439,0-1.873-0.036-1.873-0.493v-1.419
	c0-0.144,0.015-0.318,0.03-0.502c0.029-0.332,0.065-0.744-0.013-0.958c-0.118-0.33-0.197-0.34-0.596-0.34l-0.17,0
	c-0.186,0-0.4-0.004-0.649-0.034c-0.107-0.013-0.2-0.083-0.242-0.183c-0.028-0.07-0.03-0.146-0.006-0.215
	c-0.139-0.022-0.522-0.024-0.829-0.013c-0.051,0.002-0.099,0.004-0.144,0.005c0.006,0.016,0.012,0.031,0.017,0.044
	c0.055,0.147,0.117,0.315,0.117,0.489c0,0.133,0.026,0.342,0.053,0.567C4.56,17.981,4.59,18.232,4.6,18.443l0.006,0.119
	c0.058,1.133,0.117,2.305,0.117,3.508v4.261c0,0.162-0.051,0.4-0.115,0.701C4.5,27.53,4.3,28.46,4.512,28.723
	c0.021,0.025,0.106,0.081,0.29,0.046c0.065-0.096,0.157-0.165,0.266-0.133c0.162,0.042,0.286,0.039,0.327-0.009
	c0.038-0.045,0.066-0.169,0.029-0.381c-0.016-0.089,0.011-0.181,0.07-0.249c0.06-0.068,0.174-0.103,0.236-0.103
	c0.197,0.007,0.37,0.019,0.521,0.029c0.157,0.011,0.291,0.02,0.403,0.02c0.261,0,0.308,0,0.308-0.764
	c0-0.092-0.016-0.244-0.032-0.419c-0.07-0.733-0.104-1.272,0.089-1.54c0.191-0.268,0.587-0.327,0.942-0.336
	c-0.45,0-0.683-0.021-0.837-0.18c-0.141-0.144-0.137-0.327-0.133-0.487c0.002-0.106,0.007-0.248-0.025-0.435
	c-0.09-0.527-0.06-1.099-0.031-1.652c0.014-0.257,0.027-0.51,0.027-0.75c0-0.08,0.032-0.157,0.089-0.213
	c0.352-0.349,0.979-0.287,1.511-0.262c0.142,0.006,0.278,0.013,0.401,0.013l0.313-0.001c0.259,0,0.503,0,0.673,0.17
	c0.171,0.171,0.171,0.405,0.17,0.793c0,0.332-0.012,0.61-0.024,0.89c-0.023,0.537-0.048,1.092,0.021,1.525
	c0.018,0.105-0.023,0.212-0.106,0.28c-0.362,0.294-0.874,0.319-1.326,0.319l-0.348-0.004c0.145,0.006,0.291,0.015,0.429,0.024
	c0.548,0.037,0.912-0.069,1.069,0.226c0.033,0.064,0.032,0.166,0.01,0.253c0.104,0.105,0.179,0.23,0.247,0.343
	c0.042,0.07,0.105,0.176,0.138,0.2c0.254,0.1,0.68,0.154,1.253,0.154c0.583,0,1.244-0.054,1.826-0.102
	c0.491-0.041,0.956-0.079,1.304-0.079h4.385c0.403,0,0.813,0.039,1.208,0.076c0.368,0.035,0.716,0.067,1.033,0.067
	c0.806,0,1.175-0.216,1.32-0.773c0.297-1.151,0.456-1.341,1.25-2.161l0.196-0.208c0.23-0.247,0.468-0.502,0.747-0.686
	c1.082-0.711,2.176-0.589,3.576-0.612c0.002,0,0.076-0.001,0.078-0.001c0.619,0,1.117,0.122,1.6,0.239
	c0.439,0.107,0.854,0.208,1.344,0.213c0.321-0.009,0.547-0.014,0.813-0.028c0.298-0.016,0.607-0.032,0.913-0.032
	c0.795,0,1.776,0.099,2.313,0.868c0.669,0.958,0.081,1.765-0.391,2.414c-0.087,0.119-0.174,0.238-0.254,0.359
	c-0.525,0.788-0.99,1.53-1.464,2.285c-0.446,0.71-0.899,1.433-1.417,2.217c-0.084,0.128-0.19,0.25-0.299,0.371
	c-0.157,0.175-0.305,0.341-0.351,0.515c-0.072,0.274-0.045,0.377-0.022,0.415c0.058,0.096,0.326,0.157,0.611,0.221
	c0.164,0.038,0.347,0.079,0.543,0.136l0.228,0.069c0.618,0.188,1.904,0.582,2.708,0.581c0.324,0,0.448-0.067,0.469-0.102
	c0.02-0.034,0.016-0.168-0.137-0.435c-0.047-0.082-0.053-0.18-0.017-0.266c0.18-0.425,0.463-0.911,0.714-1.34
	c0.098-0.167,0.191-0.328,0.273-0.476c0.049-0.088,0.092-0.178,0.136-0.268c0.108-0.227,0.232-0.484,0.442-0.691
	c0.161-0.157,0.399-0.176,0.609-0.193c0.026-0.002,0.059-0.005,0.09-0.008c-0.018-0.05-0.039-0.12-0.052-0.158
	c-0.043-0.136-0.076-0.243-0.019-0.367c-0.008,0.01-0.011-0.043-0.01-0.106c0.002-0.13,0.004-0.264,0.032-0.371
	c0.2-0.734,0.815-1.193,1.606-1.199l0.852-0.007c-0.022-0.009-0.045-0.02-0.065-0.03c-1.144-0.55-0.949-2.348-0.592-3.188
	c0.035-0.082,0.104-0.144,0.189-0.169c0.111-0.034,0.211-0.05,0.307-0.05c0.738,0,0.754,0.824,0.766,1.485
	c0.012,0.604,0.048,0.958,0.179,1.134c-0.15-0.776-0.073-1.542,0.768-2.159c0.989-0.727,2.09-0.796,2.699-0.183
	c0.328,0.33,0.5,0.828,0.497,1.44v0.121c0,0.478,0,0.898-0.315,1.256C44.75,26.117,44.803,26.112,44.858,26.112z M41.768,26.119
	c0.152,0.008,0.311,0.012,0.472,0.012c1.054,0,1.734-0.164,1.921-0.317c0.243-0.199,0.256-0.398,0.256-0.945v-0.124
	c0.002-0.45-0.109-0.8-0.322-1.014c-0.396-0.398-1.184-0.298-1.919,0.243c-0.7,0.513-0.687,1.108-0.417,2.027
	C41.769,26.04,41.772,26.08,41.768,26.119z M40.108,23.63c-0.24,0.699-0.319,1.942,0.354,2.266c0.016,0.008,0.032,0.015,0.05,0.022
	c-0.221-0.393-0.231-0.958-0.239-1.392C40.267,24.149,40.257,23.632,40.108,23.63z M7.591,24.272
	c0.119,0.013,0.325,0.013,0.404,0.013l0.688,0.007c0.303,0,0.604-0.015,0.814-0.105c-0.045-0.447-0.023-0.953-0.002-1.445
	c0.013-0.271,0.024-0.541,0.024-0.795c0-0.193,0-0.346-0.009-0.424c-0.07-0.008-0.188-0.008-0.234-0.008l-0.313,0.001
	c-0.132,0-0.277-0.006-0.428-0.013c-0.151-0.007-0.308-0.014-0.458-0.014c-0.281,0-0.434,0.028-0.518,0.057
	c-0.004,0.2-0.015,0.406-0.025,0.615c-0.027,0.521-0.055,1.059,0.023,1.521c0.041,0.24,0.036,0.419,0.033,0.55
	C7.592,24.246,7.591,24.259,7.591,24.272z M19.439,18.542c-1.118,0-1.154,0.299-1.166,0.398c-0.008,0.063,0.009,0.095,0.035,0.125
	c0.08,0.09,0.401,0.301,1.647,0.301c0.644,0,1.351-0.054,1.919-0.097c0.411-0.031,0.759-0.057,0.981-0.057
	c0.173,0,0.445-0.326,0.592-0.501c0.057-0.068,0.108-0.13,0.153-0.177c0.194-0.206,0.468-0.585,0.785-1.024
	c0.025-0.035,0.051-0.07,0.076-0.105c-0.095,0.095-0.19,0.185-0.289,0.267L24.024,17.8c-0.355,0.306-0.799,0.687-1.208,0.82
	c-0.391,0.128-1.139,0.082-1.982,0.008C20.36,18.586,19.87,18.542,19.439,18.542z M54.639,11.154
	c-0.006,0.031-0.013,0.068-0.019,0.103c-0.018,0.097-0.039,0.219-0.075,0.372c-0.152,0.647-0.191,1.491,0.037,1.779
	c0.048,0.06,0.1,0.084,0.181,0.084h14.967c0.089,0,0.154-0.002,0.203-0.004c-0.012-0.146-0.007-0.314,0.063-0.522
	c0.034-0.103,0.028-0.187,0.02-0.293c-0.002-0.026-0.004-0.054-0.005-0.083c-0.185,0.097-0.434,0.1-0.771,0.068
	c-0.139-0.013-0.293-0.027-0.462-0.027c-0.603,0-1.229,0.026-1.864,0.053c-0.661,0.027-1.331,0.055-1.994,0.055
	c-1.079,0-1.937-0.075-2.696-0.236c-0.377-0.08-0.78-0.216-1.17-0.348c-0.337-0.114-0.672-0.229-0.985-0.302
	c-0.335-0.079-0.68-0.172-1.018-0.264c-0.422-0.114-0.835-0.226-1.206-0.303c-0.515-0.108-1.023-0.123-1.497-0.123l-0.917,0.006
	c-0.228,0-0.406-0.005-0.546-0.01l-0.214-0.005C54.659,11.154,54.648,11.154,54.639,11.154z M74.175,14.092h-1.662
	c-0.105,0-0.202-0.055-0.257-0.145c-0.055-0.09-0.058-0.202-0.009-0.294c0.236-0.448,0.796-0.448,1.007-0.448
	c0.156,0,0.322,0.011,0.487,0.023c0.148,0.01,0.297,0.021,0.434,0.021c0.166,0,0.3,0.134,0.3,0.3v0.244
	C74.475,13.958,74.341,14.092,74.175,14.092z M51.372,12.914c-0.001,0-0.001,0-0.002,0l-2.22-0.013
	c-1.723-0.01-3.445-0.021-5.166-0.027c-0.085,0-0.165-0.036-0.222-0.099s-0.084-0.146-0.076-0.23
	c0.013-0.133-0.001-0.332-0.015-0.545c-0.04-0.657-0.049-1.104,0.181-1.34c0.177-0.182,0.471-0.271,0.896-0.271
	c0.6,0,1.998,0.275,2.465,0.711c0.461,0.013,0.915,0.025,1.37,0.035c0.483-0.392,1.755-0.728,2.248-0.728
	c0.332,0,0.585,0.084,0.752,0.249c0.194,0.196,0.198,0.589,0.113,1.598c-0.014,0.161-0.025,0.292-0.025,0.36
	c0,0.08-0.031,0.156-0.088,0.213C51.527,12.883,51.451,12.914,51.372,12.914z M44.288,12.275c1.621,0.007,3.243,0.017,4.865,0.026
	l1.938,0.011c0.003-0.035,0.006-0.071,0.009-0.109c0.025-0.299,0.084-0.994,0.028-1.164c0.001,0.017-0.083-0.033-0.296-0.033
	c-0.647,0-1.674,0.429-1.884,0.587c-0.054,0.088-0.126,0.132-0.263,0.143c-0.539-0.012-1.077-0.026-1.616-0.041
	c-0.119-0.003-0.228-0.076-0.275-0.182c-0.194-0.173-1.258-0.526-2.045-0.526c-0.375,0-0.463,0.086-0.467,0.089
	c-0.059,0.106-0.027,0.613-0.011,0.885C44.278,12.071,44.284,12.177,44.288,12.275z"/>
<rect id="sliceCopy_x5F_51_1_" x="113.213" fill="none" width="135.832" height="40"/>
<rect id="sliceCopy_x5F_50_1_" fill="none" width="113.213" height="40"/>
</svg>
