<?xml version="1.0" encoding="utf-8"?>
<!-- Generator: Adobe Illustrator 15.1.0, SVG Export Plug-In  -->
<!DOCTYPE svg PUBLIC "-//W3C//DTD SVG 1.1//EN" "http://www.w3.org/Graphics/SVG/1.1/DTD/svg11.dtd" [
	<!ENTITY ns_flows "http://ns.adobe.com/Flows/1.0/">
]>
<svg version="1.1"
	 xmlns="http://www.w3.org/2000/svg" xmlns:xlink="http://www.w3.org/1999/xlink" xmlns:a="http://ns.adobe.com/AdobeSVGViewerExtensions/3.0/"
	 x="0px" y="0px" width="107px" height="40px" viewBox="0.611 0 107 40" enable-background="new 0.611 0 107 40"
	 xml:space="preserve">
<defs>
</defs>
<path d="M59.843,34.3c-0.014,0-0.039-0.002-0.053-0.004c-0.571-0.081-1.199-0.119-1.977-0.119c-0.525,0-1.054,0.017-1.579,0.034
	c-0.523,0.017-1.044,0.033-1.555,0.033l-3.166,0.001c-0.405,0-1.355,0-1.36-1.016l-0.07-11.163
	c-0.001-0.061,0.005-0.157,0.011-0.271c0.011-0.177,0.036-0.623-0.003-0.79c-0.082-0.024-0.199,0.017-0.272,0.096
	c-0.027,0.029-0.071,0.089-0.066,0.161c0.005,0.058,0.023,0.132,0.041,0.212c0.071,0.313,0.202,0.895-0.293,1.106
	c0.009,0.028,0.052,0.236,0.074,0.347c0.024,0.119,0.047,0.236,0.054,0.336c0.006,0.099,0.06,0.987-0.18,1.394
	c-0.375,0.636-1.646,1.114-2.288,1.114c-1.076,0-2.131-0.04-3.184-0.483c-0.189,0.541-0.398,1.075-0.602,1.593
	c-0.112,0.285-0.224,0.57-0.333,0.857l-0.189,0.49c-0.131,0.333-0.262,0.668-0.375,1.006c-0.021,0.066-0.059,0.152-0.1,0.244
	c-0.045,0.102-0.139,0.313-0.137,0.382c0.006,0.055,0.043,0.115,0.091,0.191c0.091,0.147,0.229,0.369,0.165,0.681
	c-0.126,0.622-0.745,1.339-1.385,1.372l-0.126,0.003c-0.586,0-1.168-0.191-1.731-0.376c-0.166-0.054-0.328-0.108-0.486-0.154
	c-0.318-0.094-0.626-0.224-0.923-0.349c-0.138-0.059-0.276-0.117-0.414-0.171c-0.124-0.048-0.263-0.114-0.408-0.184
	c-0.344-0.165-0.725-0.359-1.018-0.313c-0.117,0.021-0.237-0.036-0.302-0.138c-0.063-0.103-0.06-0.233,0.01-0.332
	c0.63-0.888,1.196-1.889,1.744-2.857c0.217-0.383,0.433-0.764,0.65-1.135l0.759-1.298c0.033-0.056,0.076-0.123,0.123-0.195
	c0.082-0.127,0.275-0.424,0.272-0.525l-0.005-0.111c-0.024-0.535-0.058-0.872-0.421-1.054c-0.443-0.3-0.692-0.411-0.76-0.418
	l-1.67-0.122c-2.639-0.194-5.367-0.396-8.06-0.396c-0.364,0-0.729-0.003-1.093-0.006c-0.363-0.003-0.726-0.007-1.088-0.007
	c-0.719,0-1.664,0.012-2.603,0.104l-3.078,0.306c-1.77,0.174-2.573,0.658-2.53,1.524c0.02,0.422,0.129,0.832,0.315,1.184
	c0.04,0.075,0.106,0.158,0.176,0.247c0.209,0.269,0.469,0.604,0.39,0.989c-0.088,0.428-0.577,0.452-0.762,0.461l-11.821,0.54
	c-0.097,0.004-0.204,0.015-0.317,0.026c-0.452,0.044-0.952,0.053-1.26-0.089c-0.983-0.46-0.979-1.617-0.976-2.462l0.001-2.939
	l-0.001-6.751c-0.007-0.672,0.065-0.799,0.699-1.237c0.21-0.145,0.685-0.109,1.088-0.056c0.104,0.014,0.193,0.026,0.252,0.029
	l0.263,0.005c0.224,0.003,0.448,0.007,0.665,0.037l5.883,0.815c0.132,0.018,0.27,0.032,0.411,0.047
	c0.598,0.062,1.276,0.131,1.791,0.519c0.277,0.209,0.511,0.456,0.737,0.695c0.391,0.412,0.759,0.802,1.297,0.935
	c0.226,0.056,0.573,0.038,0.894,0.012c0.135-0.011,0.268-0.022,0.394-0.026c2.931-0.098,6.015-0.861,9.426-2.335
	c1.208-0.522,2.508-1.053,3.944-1.306c0.728-0.128,1.471-0.195,2.189-0.259c0.563-0.051,1.128-0.101,1.689-0.181
	c0.852-0.122,1.671-0.178,2.378-0.213c0.029-0.08,0.067-0.186,0.112-0.307c0.377-1.033,0.593-1.557,0.801-1.74
	c0.352-0.308,0.794-0.457,1.353-0.457c0.475,0,0.958,0.109,1.384,0.205l0.209,0.047c0.813,0.179,1.549,0.385,2.317,0.65
	c0.511,0.176,0.604,0.862,0.671,1.363c0.01,0.071,0.021,0.157,0.033,0.227h5.392c-0.001-0.008-0.002-0.016-0.003-0.022
	c-0.014-0.106-0.031-0.238,0.07-0.354c0.057-0.065,0.148-0.106,0.235-0.106h2.857c0.086-0.008,0.155-0.014,0.211-0.014
	c0.057,0,0.188,0,0.289,0.098c0.132,0.121,0.137,0.284,0.117,0.41c0.34,0.01,0.679,0.013,1.019,0.016
	c0.386,0.003,0.771,0.007,1.158,0.02c1.546,0.05,3.038,0.015,4.62-0.11l0.616-0.046c0.592-0.043,1.184-0.087,1.774-0.153
	c0.191-0.021,0.385-0.032,0.578-0.043c0.636-0.036,1.236-0.071,1.649-0.483c0.107-0.108,0.406-0.547,0.502-0.771
	c-0.328-0.217-0.642-0.421-0.995-0.568c-0.665-0.277-1.35-0.408-2.075-0.546c-0.211-0.04-0.421-0.08-0.633-0.125l-0.277-0.056
	c-0.33-0.066-0.671-0.134-1.005-0.239c-0.269-0.083-0.43-0.134-0.669-0.372c-0.063-0.063-0.121-0.122-0.141-0.133
	c-0.012-0.001-0.093-0.001-0.128-0.001H59.65c-0.104,0-0.237,0.017-0.381,0.034c-0.44,0.051-0.899,0.07-1.158-0.07
	c-0.033-0.019-0.063-0.044-0.088-0.074c-0.425-0.521-0.576-1.123-0.416-1.65c0.056-0.182,0.171-0.374,0.293-0.577
	c0.11-0.184,0.295-0.492,0.282-0.603c-0.011-0.091,0.021-0.181,0.085-0.246s0.151-0.099,0.245-0.087
	c0.662,0.073,1.29,0.354,1.826,0.814c0.048-0.001,0.098-0.003,0.147-0.005c0.445-0.02,1.012-0.063,1.422,0.38
	c0.024,0.027,0.046,0.036,0.195,0.036c0.171,0,0.297,0.054,0.381,0.166c0.028,0.002,0.057,0.003,0.084,0.003l0.153-0.005
	c0.105-0.005,0.213-0.009,0.325,0c0.543,0.044,0.998,0.305,1.438,0.558c0.23,0.131,0.445,0.159,0.694,0.19
	c0.183,0.023,0.368,0.048,0.559,0.104c0.322,0.094,1.098,0.336,1.317,0.559c0.295,0.299,0.431,1.116,0.485,1.577
	c0.062,0.529,0.025,1.032-0.111,1.538c-0.192,0.623-0.404,1.104-0.637,1.442h7.46c0.087,0,0.22-0.014,0.37-0.029
	c0.226-0.022,0.488-0.048,0.717-0.048c0.279,0,0.474,0.038,0.61,0.119c0.205,0.122,0.277,0.307,0.33,0.441
	c0.057,0.145,0.063,0.146,0.127,0.159l0.423,0.077c0.31,0.056,0.62,0.112,0.927,0.18c0.311,0.069,0.619,0.146,0.927,0.222
	c0.438,0.109,0.876,0.218,1.32,0.303c0.377,0.072,0.751,0.142,1.132,0.196c0.059,0.008,0.112,0.013,0.16,0.013
	c0.213,0,0.255-0.02,0.345-0.654c0.066-0.47,0.245-0.806,0.417-1.131c0.174-0.327,0.337-0.635,0.358-0.984
	c0.026-0.409,0.076-0.807,0.132-1.214c0.051-0.396,0.562-0.396,0.754-0.396c0.162,0,0.338,0.013,0.479,0.023
	c0.237,0.018,0.336,0.021,0.422,0.11c0.13,0.133,0.201,0.306,0.15,2.291l-0.006,1.695c0,0.05-0.01,0.145-0.023,0.253
	c-0.009,0.072-0.023,0.189-0.028,0.269c0.129,0.023,0.509,0.026,0.643,0.027c0.09,0,0.163,0.001,0.206,0.005
	c0.272,0.022,0.536,0.039,0.809,0.039l0.085,0c2.836-0.035,5.67-0.062,8.505-0.088l2.161-0.019c0.333,0,0.667,0.004,1.002,0.009
	c0.334,0.004,0.669,0.009,1.003,0.009c0.592,0,1.369-0.013,2.136-0.113c0.281-0.037,0.565-0.031,0.855-0.022
	c0.108,0.003,0.217,0.006,0.324,0.006c0.667,0,0.736,0.641,0.773,0.985c0.01,0.084,0.018,0.167,0.032,0.242
	c0.018,0.091,0.04,0.175,0.062,0.256c0.088,0.327,0.197,0.734-0.207,1.092c-0.274,0.243-0.766,0.294-1.13,0.294l-0.142-0.002
	c-3.767-0.154-6.664-0.223-9.393-0.223h-6.35c0.067,0.016,0.127,0.036,0.181,0.062c0.89,0.428,0.828,1.424,0.783,2.151
	c-0.01,0.154-0.02,0.302-0.02,0.438c0,0.143-0.075,0.383-0.582,0.383c-0.249,0-0.619-0.049-0.78-0.129
	c-0.297-0.149-0.453-0.155-0.752-0.155h-0.188c-1.047,0-2.129,0.062-3.176,0.122c-0.704,0.04-1.408,0.08-2.107,0.103
	c-0.565,0.019-1.128,0.065-1.689,0.112c-0.553,0.046-1.105,0.091-1.659,0.111c-0.076-0.002-0.143-0.002-0.221-0.006
	c-0.195-0.008-0.476-0.009-0.554,0c-0.033,0.051-0.065,0.104-0.1,0.157c-0.215,0.342-0.459,0.73-0.858,0.922
	c-0.629,0.304-1.313,0.136-1.962-0.497c-0.197-0.193-0.352-0.281-0.553-0.369c0.04,0.393,0.065,0.771,0.056,1.167l-0.002,0.121
	c-0.01,0.538-0.024,1.35-0.881,1.35c-0.086,0-0.183-0.009-0.291-0.029c-0.137-0.027-0.256-0.082-0.36-0.131
	c-0.097-0.045-0.188-0.088-0.259-0.09l-1.074-0.03c-0.241-0.006-0.484-0.008-0.728-0.008l-1.07,0.004
	c-1.204,0-2.408,0.009-3.612,0.018c-1.076,0.008-2.152,0.016-3.229,0.018c0.472,1.941,0.471,3.772,0.47,5.705l0.005,0.486
	c0.088,3.778-0.108,4.512-0.334,4.743C60.066,34.235,59.924,34.3,59.843,34.3z M57.813,33.577c0.738,0,1.35,0.033,1.907,0.104
	c0.086-0.277,0.207-1.196,0.137-4.232l-0.005-0.501c0.001-2.104,0.001-3.92-0.546-5.925c-0.025-0.09-0.006-0.187,0.051-0.261
	s0.145-0.118,0.238-0.118c1.204,0,2.408-0.009,3.612-0.018c1.205-0.009,2.41-0.018,3.616-0.018l1.07-0.004
	c0.248,0,0.496,0.002,0.744,0.009l1.075,0.03c0.194,0.005,0.354,0.08,0.495,0.146c0.08,0.038,0.156,0.073,0.219,0.085
	c0.066,0.012,0.125,0.019,0.179,0.019c0.201,0,0.268-0.059,0.28-0.761l0.003-0.125c0.013-0.524-0.042-1.031-0.109-1.591
	c-0.013-0.107,0.033-0.213,0.119-0.277c0.086-0.065,0.201-0.077,0.3-0.033s0.188,0.08,0.272,0.114
	c0.32,0.13,0.597,0.243,0.934,0.574c0.465,0.453,0.872,0.582,1.283,0.385c0.243-0.117,0.43-0.413,0.61-0.7
	c0.053-0.084,0.104-0.167,0.156-0.242c0.117-0.171,0.341-0.206,0.665-0.206c0.126,0,0.258,0.006,0.366,0.011l0.162,0.005
	c0.555-0.02,1.098-0.065,1.642-0.11c0.572-0.047,1.145-0.095,1.72-0.114c0.694-0.022,1.394-0.063,2.093-0.103
	c1.055-0.061,2.146-0.123,3.21-0.123l0.188,0c0.363,0,0.613,0.015,1.02,0.218c0.052,0.021,0.296,0.064,0.5,0.066
	c0.004-0.084,0.01-0.17,0.015-0.258c0.048-0.773,0.044-1.338-0.443-1.573c-0.024-0.012-0.104-0.04-0.307-0.04
	c-0.18,0-0.38,0.02-0.562,0.038c-0.169,0.017-0.325,0.031-0.441,0.031c-0.303,0-0.54-0.208-0.576-0.507
	c-0.036-0.303,0.144-0.574,0.428-0.644c0.305-0.076,0.603-0.086,0.854-0.086l0.509,0.005h6.523c2.737,0,5.642,0.068,9.417,0.223
	l0.117,0.002c0.421,0,0.657-0.077,0.731-0.143c0.111-0.099,0.115-0.158,0.026-0.488c-0.025-0.094-0.052-0.193-0.071-0.298
	c-0.018-0.089-0.028-0.189-0.039-0.29c-0.05-0.451-0.095-0.451-0.178-0.451c-0.112,0-0.227-0.003-0.341-0.006
	c-0.256-0.008-0.513-0.014-0.762,0.018c-0.8,0.104-1.604,0.118-2.213,0.118c-0.337,0-0.675-0.004-1.011-0.009
	c-0.333-0.004-0.664-0.009-0.994-0.009l-2.155,0.019c-2.835,0.027-5.668,0.054-8.503,0.088l-0.093,0.001
	c-0.289,0-0.568-0.017-0.859-0.041c-0.035-0.003-0.091-0.003-0.16-0.003c-0.537-0.004-0.997-0.03-1.177-0.314
	c-0.087-0.137-0.069-0.318-0.028-0.655c0.01-0.076,0.02-0.144,0.02-0.18l0.006-1.711c0.023-0.913,0.021-1.511-0.005-1.786
	c-0.004,0-0.008,0-0.012-0.001c-0.198-0.014-0.5-0.025-0.613-0.013c-0.046,0.348-0.087,0.689-0.108,1.039
	c-0.03,0.479-0.232,0.859-0.428,1.228c-0.155,0.292-0.302,0.569-0.345,0.87c-0.094,0.67-0.15,1.366-1.192,1.215
	c-0.39-0.056-0.773-0.127-1.159-0.201c-0.455-0.086-0.903-0.198-1.353-0.31c-0.303-0.075-0.605-0.151-0.911-0.218
	c-0.3-0.066-0.602-0.121-0.904-0.175l-0.429-0.078c-0.396-0.076-0.507-0.36-0.573-0.53c-0.031-0.079-0.051-0.128-0.077-0.144
	c-0.002-0.001-0.065-0.035-0.305-0.035c-0.21,0-0.45,0.024-0.657,0.045c-0.175,0.018-0.329,0.032-0.43,0.032h-8.34
	c-0.163,0-0.296-0.129-0.3-0.292s0.122-0.299,0.284-0.308c0.232-0.012,0.618-0.514,0.955-1.609c0.116-0.426,0.146-0.843,0.093-1.301
	c-0.076-0.644-0.221-1.128-0.316-1.225c-0.089-0.076-0.585-0.267-1.06-0.405c-0.16-0.047-0.313-0.066-0.465-0.085
	c-0.273-0.035-0.582-0.074-0.898-0.254c-0.419-0.241-0.797-0.458-1.208-0.491c-0.087-0.007-0.167-0.002-0.246,0.002
	c-0.154,0.006-0.306,0.012-0.466-0.021c-0.12-0.024-0.192-0.086-0.236-0.143c-0.174-0.003-0.395-0.027-0.581-0.228
	c-0.129-0.139-0.325-0.195-0.678-0.195c-0.094,0-0.188,0.003-0.281,0.007c-0.177,0.006-0.363,0.04-0.485-0.072
	c-0.384-0.353-0.828-0.589-1.298-0.694c-0.069,0.2-0.191,0.403-0.311,0.602c-0.099,0.164-0.199,0.333-0.233,0.443
	c-0.127,0.418,0.092,0.813,0.263,1.04c0.104,0.03,0.463,0.017,0.756-0.017c0.169-0.02,0.327-0.037,0.45-0.037l0.094,0
	c0.353,0,0.433,0.05,0.688,0.305c0.14,0.14,0.188,0.155,0.426,0.229c0.308,0.096,0.618,0.158,0.946,0.223l0.283,0.057
	c0.207,0.043,0.415,0.083,0.622,0.123c0.724,0.138,1.472,0.28,2.193,0.582c0.427,0.178,0.778,0.411,1.151,0.659l0.075,0.05
	c0.075,0.05,0.156,0.193,0.165,0.283c0.045,0.45-0.697,1.318-0.704,1.326c-0.575,0.574-1.319,0.617-2.039,0.658
	c-0.184,0.01-0.366,0.021-0.547,0.041c-0.598,0.067-1.197,0.111-1.797,0.155l-0.613,0.046c-1.604,0.125-3.114,0.163-4.688,0.111
	c-0.382-0.013-0.763-0.017-1.144-0.02c-0.417-0.003-0.835-0.007-1.253-0.023c-0.174-0.007-0.271-0.089-0.322-0.157
	c-0.082-0.109-0.087-0.228-0.072-0.33h-2.536c-0.004,0.117-0.032,0.233-0.118,0.331c-0.061,0.069-0.172,0.152-0.355,0.152h-5.707
	c-0.344,0-0.394-0.362-0.445-0.746c-0.033-0.246-0.11-0.82-0.271-0.876c-0.746-0.257-1.461-0.458-2.25-0.632l-0.213-0.047
	c-0.396-0.089-0.844-0.19-1.252-0.19c-0.407,0-0.72,0.101-0.957,0.308c-0.141,0.146-0.485,1.091-0.633,1.495
	c-0.221,0.604-0.249,0.681-0.464,0.692c-0.732,0.035-1.604,0.088-2.506,0.217c-0.571,0.082-1.146,0.133-1.72,0.185
	c-0.706,0.063-1.437,0.129-2.14,0.253c-1.371,0.242-2.634,0.758-3.81,1.266c-3.482,1.504-6.637,2.284-9.645,2.384
	c-0.117,0.004-0.239,0.014-0.364,0.024c-0.384,0.031-0.789,0.045-1.087-0.028c-0.708-0.176-1.155-0.648-1.588-1.105
	c-0.22-0.231-0.426-0.449-0.663-0.628c-0.381-0.287-0.945-0.345-1.491-0.402c-0.148-0.015-0.293-0.03-0.432-0.049L6.586,14.48
	c-0.192-0.027-0.393-0.029-0.591-0.031l-0.277-0.006c-0.072-0.003-0.183-0.017-0.309-0.033c-0.279-0.037-0.682-0.038-0.684-0.036
	c-0.429,0.297-0.429,0.297-0.425,0.728l0.001,9.699c-0.004,0.917,0.04,1.641,0.628,1.916c0.194,0.09,0.601,0.072,0.948,0.036
	c0.125-0.012,0.243-0.023,0.35-0.028l11.819-0.54c0.052-0.002,0.194-0.01,0.235-0.035c-0.01-0.063-0.189-0.295-0.309-0.448
	c-0.093-0.118-0.178-0.231-0.232-0.333c-0.228-0.431-0.36-0.927-0.385-1.437c-0.091-1.838,2.289-2.073,3.071-2.149l3.078-0.306
	c0.965-0.096,1.929-0.108,2.661-0.108c0.364,0,0.729,0.003,1.093,0.007c0.363,0.003,0.726,0.007,1.088,0.007
	c2.715,0,5.454,0.202,8.104,0.397l1.669,0.121c0.08,0.006,0.322,0.024,1.019,0.5c0.663,0.328,0.693,1.001,0.718,1.543l0.005,0.106
	c0.016,0.29-0.188,0.605-0.368,0.883c-0.041,0.063-0.079,0.121-0.107,0.17l-0.761,1.3c-0.216,0.369-0.43,0.747-0.646,1.127
	c-0.471,0.832-0.954,1.687-1.485,2.483c0.272,0.073,0.54,0.201,0.787,0.319c0.131,0.063,0.255,0.123,0.367,0.166
	c0.144,0.057,0.287,0.117,0.43,0.177c0.282,0.119,0.573,0.242,0.859,0.326c0.163,0.048,0.331,0.103,0.503,0.16
	c0.519,0.17,1.056,0.346,1.545,0.346l0.097-0.002c0.329-0.016,0.752-0.524,0.826-0.891c0.015-0.073-0.01-0.12-0.088-0.247
	c-0.069-0.113-0.157-0.254-0.177-0.444c-0.024-0.217,0.087-0.468,0.186-0.689c0.031-0.071,0.062-0.137,0.078-0.189
	c0.117-0.349,0.251-0.692,0.386-1.036l0.188-0.483c0.109-0.29,0.222-0.577,0.334-0.864c0.24-0.613,0.488-1.246,0.701-1.881
	c0.027-0.083,0.089-0.149,0.17-0.182c0.08-0.033,0.171-0.03,0.248,0.009c1.041,0.521,2.076,0.563,3.226,0.563
	c0.521,0,1.542-0.432,1.771-0.819c0.091-0.154,0.124-0.667,0.099-1.049c-0.006-0.077-0.024-0.166-0.043-0.256
	c-0.063-0.309-0.169-0.827,0.278-1.019c0.026-0.057-0.03-0.303-0.057-0.422c-0.025-0.111-0.047-0.215-0.054-0.297
	c-0.018-0.223,0.062-0.441,0.224-0.616c0.275-0.299,0.745-0.38,1.075-0.178c0.284,0.175,0.279,0.634,0.24,1.313
	c-0.006,0.098-0.011,0.181-0.011,0.233l0.07,11.164c0.002,0.314,0.112,0.419,0.761,0.419l3.166-0.001
	c0.504,0,1.019-0.017,1.536-0.033C56.747,33.594,57.281,33.577,57.813,33.577z M46.746,24.551c-0.479,0-1.598,0-1.807-1.096
	c-0.076-0.396-0.029-0.69,0.144-0.899c0.223-0.27,0.584-0.307,0.907-0.307l0.476,0.009l1.567-0.021c0.001,0,0.003,0,0.004,0
	c0.133,0,0.25,0.087,0.288,0.215c0.119,0.403,0.262,1.154-0.116,1.662c-0.147,0.197-0.436,0.431-0.979,0.432L46.746,24.551z
	 M45.99,22.85c-0.092,0-0.372,0-0.444,0.088c-0.023,0.028-0.071,0.123-0.017,0.404c0.086,0.45,0.404,0.609,1.217,0.609l0.484-0.005
	c0.239,0,0.401-0.063,0.497-0.191c0.134-0.179,0.16-0.518,0.077-0.915l-1.281,0.017L45.99,22.85z"/>
<rect id="sliceCopy_x5F_57_1_" fill="none" width="106.674" height="40"/>
</svg>
