<?xml version="1.0" encoding="utf-8"?>
<!-- Generator: Adobe Illustrator 15.1.0, SVG Export Plug-In  -->
<!DOCTYPE svg PUBLIC "-//W3C//DTD SVG 1.1//EN" "http://www.w3.org/Graphics/SVG/1.1/DTD/svg11.dtd" [
	<!ENTITY ns_flows "http://ns.adobe.com/Flows/1.0/">
]>
<svg version="1.1"
	 xmlns="http://www.w3.org/2000/svg" xmlns:xlink="http://www.w3.org/1999/xlink" xmlns:a="http://ns.adobe.com/AdobeSVGViewerExtensions/3.0/"
	 x="0px" y="0px" width="21px" height="40px" viewBox="0.758 0 21 40" enable-background="new 0.758 0 21 40" xml:space="preserve">
<defs>
</defs>
<path d="M8.825,34.3c-1.172,0-2.25-0.198-3.292-0.606L5.37,33.633c-0.832-0.306-1.578-0.624-1.578-1.146l0.005-17.6
	c0.005-0.759,0.01-1.518-0.004-2.275c-0.155-0.354-0.088-0.61,0-0.765c0.297-0.525,1.181-0.593,1.827-0.643
	c0.145-0.011,0.268-0.02,0.351-0.034c0.059-0.011,0.148-0.02,0.25-0.03c0.139-0.014,0.439-0.044,0.578-0.091
	c0.017-0.221,0.084-0.393,0.144-0.547c0.056-0.144,0.1-0.257,0.1-0.395V8.818c-0.104-0.005-0.261-0.01-0.5-0.01L6.356,8.809
	c0,0,0,0-0.001,0c-0.184,0-0.342-0.097-0.377-0.314c-0.06-0.373,0.289-1.796,0.899-1.998C7.053,6.438,7.33,6.445,7.59,6.468
	c0.085,0.007,0.167,0.015,0.234,0.015h1.978c0.041,0,0.124-0.005,0.234-0.012c0.238-0.014,0.591-0.035,0.936-0.035
	c0.453,0,0.765,0.033,0.977,0.11c0.27-0.473,0.509-0.731,0.757-0.826c0.062-0.022,0.128-0.026,0.189-0.008
	c0.024,0.002,0.057,0.001,0.091,0.001c0.181,0.001,0.336,0.003,0.45,0.115c0.149,0.149,0.117,0.347,0.092,0.493
	c0.236,0.085,0.287,0.272,0.288,0.417c0.106,0.301,0.226,0.603,0.347,0.908c0.083,0.21,0.167,0.422,0.248,0.636
	c0.085,0.224,0.205,0.537,0.324,0.655c0.163,0.164,0.197,0.407,0.228,0.622c0.013,0.092,0.035,0.247,0.063,0.287
	c0.253,0.248,0.326,0.611,0.389,0.932c0.051,0.258,0.1,0.502,0.225,0.628c0.154,0.153,0.224,0.383,0.291,0.606
	c0.035,0.115,0.071,0.234,0.11,0.306c0.004,0.004,0.025,0.028,0.049,0.055c0.156,0.182,0.275,0.334,0.275,0.514
	c0,0.305,0.007,0.418,0.094,0.595c0.056,0.115,0.116,0.208,0.175,0.298c0.123,0.189,0.262,0.403,0.342,0.754
	c0.119,0.527,0.107,1.156,0.096,1.765c-0.003,0.17-0.006,0.338-0.006,0.5l0.002,12.991c0.006,0.482,0.013,0.981-0.461,1.308
	c-0.174,0.121-0.244,0.153-0.506,0.134c-0.205,0-0.354-0.001-0.471-0.122c-0.117-0.119-0.115-0.266-0.112-0.407l0.001-0.1
	c0-0.305,0.129-0.482,0.207-0.588c0.016-0.022,0.039-0.053,0.043-0.064l-0.002-12.858c0-0.198,0.021-0.442,0.043-0.702
	c0.043-0.495,0.098-1.112-0.024-1.438c-0.027-0.06-0.179-0.243-0.26-0.341c-0.086-0.104-0.164-0.199-0.203-0.259
	c-0.072-0.111-0.137-0.231-0.201-0.352c-0.088-0.166-0.171-0.322-0.272-0.439c-0.03-0.036-0.059-0.075-0.088-0.114v19.075
	c0,0.243-0.092,0.381-0.299,0.447c-0.028,0.009-0.042,0.013-0.068,0.033c-0.509,0.386-1.29,0.69-2.32,0.905
	C10.765,34.179,9.763,34.3,8.825,34.3z M4.392,28.654v3.833c0.038,0.067,0.278,0.249,1.186,0.583l0.175,0.066
	C6.724,33.515,7.729,33.7,8.825,33.7c0.895,0,1.859-0.118,3.125-0.381c0.942-0.196,1.642-0.464,2.08-0.796
	c0.047-0.035,0.09-0.061,0.128-0.08l0.001-3.745c-0.108,0.088-0.277,0.135-0.538,0.164l-2.917,0.366
	c-0.118,0.014-0.24,0.037-0.365,0.059c-0.326,0.059-0.674,0.119-1.001,0.078L4.737,28.79C4.578,28.77,4.468,28.719,4.392,28.654z
	 M16.116,30.631c0.07,0,0.101,0,0.123-0.004c0.219-0.158,0.233-0.341,0.227-0.831l-0.001-0.202V16.797
	c0-0.165,0.003-0.336,0.006-0.511c0.011-0.573,0.022-1.166-0.081-1.622c-0.056-0.246-0.146-0.384-0.26-0.559
	c-0.072-0.111-0.145-0.225-0.212-0.364c-0.146-0.299-0.153-0.521-0.153-0.856c-0.008,0.03-0.091-0.077-0.13-0.123
	c-0.056-0.064-0.096-0.111-0.123-0.163c-0.067-0.122-0.112-0.271-0.156-0.416c-0.037-0.123-0.094-0.309-0.141-0.355
	c-0.254-0.254-0.326-0.616-0.39-0.936c-0.051-0.259-0.1-0.503-0.226-0.626c-0.166-0.162-0.201-0.408-0.231-0.625
	c-0.013-0.092-0.035-0.247-0.063-0.287c-0.188-0.187-0.317-0.5-0.434-0.803c-0.102-0.27-0.185-0.478-0.267-0.686
	c-0.131-0.331-0.26-0.658-0.374-0.984c-0.003-0.008-0.005-0.015-0.007-0.023c-0.092-0.031-0.199-0.093-0.267-0.229
	c-0.053-0.104-0.05-0.214-0.036-0.317c-0.019,0-0.036-0.001-0.053-0.002c-0.09,0.067-0.274,0.265-0.568,0.853
	c-0.066,0.133-0.218,0.197-0.358,0.152c-0.1-0.032-0.173-0.111-0.199-0.208c-0.078-0.027-0.281-0.072-0.77-0.072
	c-0.332,0-0.671,0.021-0.9,0.034C9.945,7.077,9.85,7.082,9.802,7.082H7.825c-0.083,0-0.181-0.008-0.285-0.017
	C7.343,7.049,7.116,7.05,7.066,7.067C6.89,7.143,6.646,7.829,6.583,8.208c0.706,0,1.06,0.007,1.06,0.361v1.538
	c0,0.25-0.075,0.442-0.141,0.612c-0.058,0.148-0.107,0.276-0.107,0.438c0,0.467-0.617,0.529-1.113,0.579
	c-0.084,0.009-0.158,0.016-0.207,0.024c-0.097,0.017-0.24,0.029-0.409,0.042c-0.362,0.028-1.211,0.093-1.351,0.34
	c-0.039,0.068,0.003,0.183,0.045,0.266c0.02,0.04,0.031,0.084,0.032,0.128c0.014,0.739,0.011,1.479,0.006,2.22
	c0.054-0.03,0.116-0.045,0.178-0.037l4.847,0.493c0.441,0.044,0.957-0.044,1.457-0.129c0.253-0.042,0.5-0.084,0.729-0.109
	l2.407-0.255c0.049-0.004,0.099,0.002,0.144,0.02v-2.156c0-0.113,0.063-0.216,0.163-0.267c0.102-0.051,0.221-0.042,0.313,0.024
	c0.218,0.157,0.364,0.382,0.493,0.58c0.059,0.091,0.116,0.179,0.177,0.253c0.141,0.166,0.244,0.358,0.343,0.544
	c0.056,0.105,0.111,0.21,0.174,0.307c0.031,0.047,0.093,0.121,0.161,0.202c0.186,0.224,0.312,0.381,0.361,0.517
	c0.169,0.451,0.111,1.114,0.06,1.699c-0.021,0.24-0.042,0.466-0.042,0.649v12.874c0,0.189-0.09,0.313-0.157,0.404
	c-0.059,0.08-0.091,0.125-0.091,0.233V30.631z M4.834,28.193l4.579,0.576c0.253,0.032,0.539-0.022,0.82-0.073
	c0.136-0.024,0.27-0.048,0.397-0.064l2.926-0.367c0.065-0.007,0.136-0.015,0.185-0.023c0.007-0.076,0.007-0.21,0.007-0.314v-0.654
	l-2.075,0.22c-0.218,0.023-0.453,0.063-0.693,0.104c-0.539,0.091-1.109,0.187-1.618,0.134l-4.517-0.459v0.696
	c0,0.072-0.004,0.137-0.009,0.196C4.835,28.174,4.835,28.184,4.834,28.193z M4.545,26.641c0.01,0,0.02,0,0.03,0.001l4.847,0.493
	c0.441,0.045,0.957-0.044,1.457-0.129c0.253-0.042,0.5-0.084,0.729-0.109l2.407-0.255c0.049-0.005,0.099,0.002,0.144,0.02v-9.887
	c-0.108,0.088-0.277,0.135-0.538,0.164l-2.917,0.366c-0.118,0.014-0.24,0.037-0.365,0.059c-0.326,0.059-0.674,0.118-1.001,0.078
	l-4.601-0.575c-0.16-0.02-0.27-0.07-0.345-0.136v9.952C4.438,26.656,4.491,26.641,4.545,26.641z M4.834,16.271l4.579,0.576
	c0.253,0.035,0.539-0.022,0.82-0.073c0.136-0.024,0.27-0.048,0.397-0.064l2.926-0.367c0.065-0.007,0.136-0.015,0.185-0.023
	c0.007-0.076,0.007-0.21,0.007-0.314v-0.654l-2.075,0.22c-0.218,0.023-0.453,0.063-0.693,0.104
	c-0.539,0.091-1.109,0.185-1.618,0.134L4.845,15.35v0.696c0,0.072-0.004,0.137-0.009,0.196C4.835,16.251,4.835,16.261,4.834,16.271z
	"/>
<rect id="sliceCopy_x5F_7_1_" x="20.777" fill="none" width="19.73" height="40"/>
<rect id="sliceCopy_x5F_6_1_" fill="none" width="20.777" height="40"/>
</svg>
