<?xml version="1.0" encoding="utf-8"?>
<!-- Generator: Adobe Illustrator 15.1.0, SVG Export Plug-In  -->
<!DOCTYPE svg PUBLIC "-//W3C//DTD SVG 1.1//EN" "http://www.w3.org/Graphics/SVG/1.1/DTD/svg11.dtd" [
	<!ENTITY ns_flows "http://ns.adobe.com/Flows/1.0/">
]>
<svg version="1.1"
	 xmlns="http://www.w3.org/2000/svg" xmlns:xlink="http://www.w3.org/1999/xlink" xmlns:a="http://ns.adobe.com/AdobeSVGViewerExtensions/3.0/"
	 x="0px" y="0px" width="100px" height="40px" viewBox="0.933 0 100 40" enable-background="new 0.933 0 100 40"
	 xml:space="preserve">
<defs>
</defs>
<path d="M61.135,36.301c-0.293,0-0.587-0.013-0.878-0.025c-0.275-0.012-0.55-0.023-0.816-0.023h-4.652
	c-0.104,0-0.198-0.053-0.253-0.139c-0.265-0.055-0.516-0.126-0.735-0.192c-0.587-0.332-0.852-0.955-0.852-1.88
	c0-0.033,0.005-0.065,0.016-0.096c0.037-0.109,0.067-0.22,0.093-0.332l-0.158-0.018c-0.843-0.093-1.639-0.182-2.447-0.617
	c-0.097-0.052-0.157-0.154-0.157-0.264v-0.141l-0.075-0.149c-0.021-0.043-0.032-0.092-0.031-0.14
	c0.006-0.307-0.033-0.612-0.074-0.936c-0.046-0.361-0.094-0.734-0.077-1.125c0.043-1.06,0.316-2.065,0.581-3.037
	c0.017-0.061,0.052-0.116,0.099-0.159c0.337-1.187,0.904-2.373,1.453-3.521c0.224-0.468,0.444-0.93,0.645-1.382
	c0.214-0.482,0.463-0.983,0.718-1.495c0.653-1.313,1.329-2.669,1.532-3.97l-0.454-1.365c-0.364-0.724-1.839-0.875-2.815-0.976
	l-0.386-0.042c-0.051-0.006-0.099-0.024-0.14-0.054c-0.284-0.204-0.467-0.56-0.502-0.977c-0.037-0.44,0.097-0.86,0.358-1.124
	c0.309-0.258,0.957-0.552,1.409-0.609c1.305-1.242,2.047-2.348,1.747-3.954c-0.001-0.003-0.001-0.007-0.002-0.01l-0.05-0.304
	c-0.052-0.309-0.106-0.628-0.113-0.956C54.115,6.261,54.119,6.23,54.129,6.2c0.141-0.472,0.382-0.739,0.717-0.793
	c0.644-0.091,1.138,0.011,1.658,0.121c0.128,0.027,0.261,0.055,0.401,0.081c0.28-0.065,0.563-0.187,0.861-0.316
	c0.393-0.17,0.797-0.345,1.231-0.401V4.163c0-0.161,0.127-0.294,0.289-0.3c0.466-0.019,0.939,0.042,1.395,0.1
	c0.169,0.022,0.337,0.043,0.504,0.061c0.063,0.006,0.122,0.032,0.169,0.074c0.365,0.325,0.451,0.709,0.496,1.092
	c1.019,0,2.037-0.006,3.055-0.012c2.184-0.013,4.438-0.025,6.657,0.013c0.085,0.001,0.165,0.039,0.221,0.103l0.281,0.322h20.19
	l0.05-0.1c0.025-0.05,0.063-0.092,0.111-0.122C92.666,5.24,92.81,5.1,92.884,4.94c0.018-0.038,0.043-0.072,0.075-0.1
	c0.511-0.449,1.14-0.584,1.777-0.378c0.756,0.244,1.41,0.958,1.59,1.736c0.022,0.095,0.052,0.208,0.085,0.334
	c0.219,0.839,0.545,2.087,0.01,2.744l-0.044,0.59c-0.097,1.304-0.197,2.653-0.161,3.946c0.002,0.081-0.028,0.159-0.085,0.217
	s-0.134,0.091-0.215,0.091h-3.092l-0.082,0.19c-0.033,0.079-0.1,0.14-0.181,0.167c-0.894,0.297-2.022,0.248-3.02,0.204
	c-0.341-0.015-0.67-0.03-0.974-0.03c-1.396,0-2.76-0.043-4.27-0.097c-1.577-0.053-2.986-0.006-4.298,1.159l-0.217,0.189
	c-0.534,0.464-1.088,0.944-1.152,1.623l-0.035,0.317c-0.025,0.22-0.053,0.442-0.053,0.662c0,0.083,0.042,0.258,0.078,0.414
	c0.109,0.463,0.223,0.943-0.083,1.188l-0.261,0.35c0,0.123-0.074,0.233-0.188,0.278c-1.942,0.777-3.738,1.216-5.339,1.305
	c-0.751,0.043-1.578-0.098-2.459-0.246c-1.522-0.256-3.095-0.52-4.152,0.21c-0.601,0.754-0.85,1.769-1.091,2.75
	c-0.079,0.322-0.158,0.642-0.248,0.952c-0.124,0.427-0.233,0.872-0.344,1.322c-0.236,0.959-0.48,1.95-0.878,2.834
	c0.001,0.535,0.087,1.113,0.177,1.723c0.218,1.465,0.442,2.98-0.443,4.224c-0.028,0.04-0.066,0.072-0.109,0.094
	C62.553,36.228,61.846,36.301,61.135,36.301z M54.964,35.653h4.477c0.275,0,0.558,0.012,0.842,0.023
	c0.895,0.039,1.818,0.078,2.584-0.278c0.695-1.04,0.492-2.405,0.297-3.726c-0.094-0.629-0.19-1.28-0.184-1.879
	c0-0.042,0.01-0.084,0.027-0.123c0.39-0.847,0.632-1.833,0.867-2.787c0.112-0.458,0.225-0.911,0.351-1.345
	c0.088-0.302,0.164-0.614,0.241-0.928c0.261-1.06,0.53-2.155,1.234-3.018c0.017-0.021,0.036-0.039,0.058-0.054
	c1.262-0.902,2.978-0.615,4.634-0.336c0.847,0.142,1.646,0.277,2.326,0.239c1.484-0.083,3.153-0.483,4.964-1.19
	c0.009-0.056,0.034-0.108,0.071-0.152l0.373-0.424c0.037-0.089-0.044-0.433-0.088-0.617c-0.05-0.214-0.094-0.399-0.094-0.552
	c0-0.243,0.028-0.488,0.057-0.732l0.033-0.303c0.088-0.918,0.762-1.503,1.357-2.02l0.211-0.185c1.476-1.312,3.075-1.368,4.718-1.31
	c1.504,0.053,2.861,0.097,4.248,0.097c0.313,0,0.65,0.015,1,0.03c0.896,0.039,1.903,0.083,2.678-0.135l0.104-0.244
	c0.047-0.111,0.155-0.182,0.275-0.182h2.984c-0.016-1.227,0.078-2.482,0.169-3.699l0.051-0.693c0.005-0.074,0.037-0.143,0.091-0.195
	c0.397-0.382,0.08-1.598-0.091-2.25c-0.034-0.132-0.065-0.251-0.088-0.351c-0.133-0.573-0.634-1.12-1.19-1.3
	c-0.29-0.094-0.723-0.13-1.154,0.221c-0.15,0.283-0.395,0.475-0.594,0.604l-0.053,0.107c-0.041,0.132-0.152,0.25-0.284,0.25H71.929
	c-0.087,0-0.169-0.037-0.226-0.103L71.42,5.788c-2.173-0.035-4.377-0.023-6.511-0.01C63.8,5.784,62.689,5.79,61.58,5.79
	c-0.154,0-0.283-0.116-0.299-0.269l-0.008-0.079c-0.038-0.388-0.071-0.632-0.254-0.833c-0.137-0.015-0.275-0.033-0.414-0.051
	c-0.333-0.042-0.675-0.086-1.008-0.096v0.709c0,0.08-0.031,0.157-0.089,0.213c-0.057,0.056-0.143,0.08-0.213,0.087
	c-0.004,0-0.007,0-0.011,0c-0.423,0-0.839,0.181-1.28,0.372c-0.332,0.144-0.676,0.292-1.035,0.365
	c-0.037,0.008-0.076,0.007-0.113,0.001c-0.168-0.031-0.324-0.063-0.476-0.095C55.872,6.007,55.47,5.924,54.936,6
	c-0.072,0.012-0.154,0.134-0.218,0.328c0.01,0.267,0.056,0.536,0.104,0.82l0.05,0.306c0.394,2.11-0.827,3.466-2.002,4.571
	c-0.054,0.05-0.124,0.079-0.197,0.081c-0.3,0.008-0.917,0.275-1.143,0.462c-0.113,0.117-0.187,0.372-0.165,0.631
	c0.018,0.207,0.091,0.386,0.201,0.495l0.29,0.031c1.106,0.113,2.779,0.285,3.307,1.344l0.493,1.472
	c0.016,0.044,0.02,0.091,0.013,0.137c-0.204,1.417-0.913,2.843-1.6,4.221c-0.251,0.504-0.496,0.997-0.706,1.471
	c-0.202,0.457-0.426,0.924-0.652,1.397c-0.56,1.17-1.138,2.379-1.454,3.56c-0.017,0.061-0.051,0.113-0.096,0.151
	c-0.257,0.943-0.486,1.828-0.524,2.771c-0.015,0.34,0.028,0.672,0.073,1.024c0.039,0.307,0.079,0.624,0.079,0.948l0.074,0.148
	c0.021,0.042,0.031,0.087,0.031,0.134v0.028c0.653,0.312,1.314,0.385,2.071,0.468l0.479,0.055c0.079,0.01,0.15,0.051,0.199,0.114
	c0.05,0.063,0.071,0.143,0.062,0.222c-0.029,0.235-0.082,0.47-0.156,0.699c0.008,0.669,0.172,1.102,0.487,1.286
	c0.204,0.051,0.475,0.127,0.751,0.176C54.856,35.563,54.919,35.6,54.964,35.653z M14.47,36.184c-0.397,0-0.793-0.023-1.171-0.045
	c-0.758-0.044-1.429-0.042-2.121-0.015c-1.257,0.047-2.553,0.097-3.743-0.425c-0.044-0.019-0.082-0.048-0.112-0.085l-0.478-0.584
	c-0.036-0.045-0.06-0.099-0.065-0.157c-0.046-0.412-0.093-0.893-0.105-1.408l-0.041-0.004c-0.885-0.094-1.648-0.175-2.512-0.64
	c-0.08-0.043-0.137-0.121-0.152-0.211c-0.021-0.116-0.061-0.221-0.121-0.322c-0.03-0.049-0.045-0.106-0.043-0.163
	c0.01-0.338-0.02-0.663-0.051-1.006c-0.042-0.463-0.085-0.942-0.022-1.445c0.05-0.396,0.128-0.799,0.206-1.203
	c0.102-0.519,0.206-1.055,0.239-1.558c0.003-0.04,0.014-0.078,0.031-0.114c0.759-1.517,1.447-3.103,2.114-4.636l0.193-0.445
	c0.146-0.333,0.287-0.67,0.429-1.006c0.277-0.662,0.565-1.346,0.883-2.003l0.157-0.32c0.577-1.168,0.993-2.012,0.318-3.196
	c-0.354-0.706-1.538-0.851-2.488-0.967c-0.275-0.034-0.534-0.065-0.757-0.107C5,14.106,4.946,14.078,4.904,14.037
	c-0.618-0.603-0.446-1.185-0.28-1.749l0.042-0.141C4.678,12.104,4.7,12.064,4.73,12.03c0.348-0.389,0.982-0.538,1.466-0.613
	c0.952-0.914,1.508-1.846,1.9-3.181L8.08,8.151c-0.125-0.659-0.254-1.34-0.241-2.029c0.102-0.48,0.287-0.748,0.56-0.857
	c0.029-0.011,0.059-0.018,0.09-0.021C9.104,5.2,9.607,5.303,10.143,5.41c0.147,0.029,0.297,0.06,0.453,0.087l0.229-0.101
	c0.566-0.25,1.15-0.507,1.79-0.601V4.004c0-0.161,0.126-0.293,0.287-0.3c0.477-0.017,0.957,0.042,1.419,0.102
	c0.162,0.021,0.323,0.042,0.483,0.059c0.484,0.099,0.533,0.39,0.533,0.511l0.112,0.653c0.652-0.007,1.315-0.043,1.96-0.079
	c0.847-0.045,1.729-0.09,2.584-0.078l2.885,0.051c0.191,0.003,0.398-0.002,0.613-0.007c0.594-0.015,1.27-0.032,1.816,0.126
	c0.068,0.02,0.127,0.063,0.166,0.121l0.23,0.345H45.95c0.158-0.312,0.382-0.534,0.598-0.749l0.066-0.065
	c0.303-0.348,0.77-0.489,1.369-0.403l0.282,0.062c0.264,0.057,0.536,0.115,0.798,0.223c0.06,0.024,0.109,0.067,0.143,0.123
	c0.041,0.068,0.104,0.112,0.203,0.177c0.161,0.107,0.383,0.253,0.468,0.595c0.102,0.698,0.271,1.304,0.464,1.969
	c0.106,0.365-0.006,0.892-0.114,1.402c-0.05,0.235-0.099,0.455-0.111,0.621c-0.031,0.417-0.073,0.838-0.116,1.261
	c-0.095,0.951-0.193,1.935-0.167,2.878c0.002,0.081-0.028,0.159-0.085,0.217s-0.134,0.091-0.215,0.091h-2.999
	c-0.062,0.111-0.136,0.218-0.221,0.318c-0.03,0.036-0.068,0.064-0.111,0.083c-0.455,0.194-1.057,0.184-1.583,0.173
	c-0.172-0.002-0.335-0.006-0.483-0.001c-0.557,0.021-1.113,0.017-1.676,0.014l-0.624-0.003c-0.691,0-1.382-0.026-2.072-0.053
	c-0.682-0.026-1.364-0.053-2.046-0.053l-0.412-0.003c-0.602-0.007-1.163-0.013-1.72,0.104c-1.067,0.2-1.688,0.777-2.473,1.506
	l-0.194,0.18c-0.84,0.775-0.744,1.849-0.644,2.985c0.018,0.198,0.035,0.395,0.048,0.589c0.005,0.086-0.027,0.17-0.088,0.231
	l-0.286,0.284c-0.008,0.115-0.081,0.215-0.188,0.258c-1.558,0.623-3.21,1.239-4.792,1.326c-0.979,0.057-1.806,0.02-2.849-0.123
	c-0.27-0.037-0.563-0.09-0.867-0.145c-0.916-0.167-1.955-0.355-2.725-0.146l-0.774,0.42c-0.382,0.544-0.533,1.065-0.724,1.72
	l-1.382,4.661c-0.248,0.83-0.399,1.379-0.399,2.162c0,1.098,0.168,2.185,0.313,3.009c0.005,1.064-0.215,1.776-0.667,2.228
	C16.166,36.079,15.313,36.184,14.47,36.184z M12.252,35.496c0.34,0,0.706,0.021,1.082,0.043c1.149,0.069,2.341,0.139,3.194-0.374
	c0.271-0.284,0.438-0.874,0.438-1.707c-0.146-0.796-0.318-1.917-0.318-3.062c0-0.911,0.196-1.57,0.424-2.333l1.381-4.657
	c0.204-0.704,0.381-1.312,0.854-1.96c0.026-0.037,0.062-0.067,0.102-0.088l0.9-0.479c0.963-0.269,2.071-0.068,3.051,0.109
	c0.295,0.054,0.579,0.105,0.842,0.141c1,0.137,1.79,0.171,2.733,0.119c1.436-0.08,2.972-0.636,4.433-1.216
	c0.016-0.04,0.039-0.077,0.069-0.107l0.277-0.275c-0.011-0.145-0.023-0.291-0.037-0.438c-0.104-1.174-0.222-2.504,0.835-3.479
	l0.192-0.179c0.788-0.732,1.532-1.423,2.764-1.655c0.616-0.128,1.241-0.121,1.844-0.115l0.405,0.003
	c0.689,0,1.379,0.026,2.069,0.053c0.683,0.026,1.365,0.053,2.049,0.053l0.628,0.002c0.551,0.002,1.102,0.007,1.65-0.014
	c0.155-0.004,0.332-0.002,0.517,0.001c0.441,0.009,0.933,0.017,1.27-0.1c0.071-0.093,0.129-0.191,0.173-0.292
	c0.047-0.11,0.155-0.182,0.275-0.182h2.88c-0.002-0.883,0.088-1.778,0.175-2.646c0.042-0.418,0.084-0.834,0.115-1.247
	c0.014-0.187,0.065-0.436,0.122-0.7c0.08-0.375,0.189-0.889,0.125-1.109c-0.192-0.662-0.374-1.315-0.476-2.021
	c-0.022-0.081-0.077-0.122-0.211-0.21C48.978,5.31,48.858,5.23,48.756,5.1c-0.191-0.069-0.398-0.114-0.616-0.161L47.872,4.88
	c-0.365-0.049-0.644,0.021-0.82,0.224l-0.08,0.082c-0.196,0.195-0.367,0.365-0.482,0.587v0.037c0,0.166-0.134,0.3-0.3,0.3H25.545
	c-0.101,0-0.193-0.05-0.249-0.133L25.04,5.593c-0.447-0.104-1.022-0.09-1.533-0.077c-0.225,0.006-0.441,0.013-0.638,0.007
	l-2.885-0.051c-0.846-0.014-1.706,0.033-2.542,0.077c-0.735,0.04-1.496,0.081-2.245,0.081c-0.146,0-0.271-0.106-0.296-0.25
	l-0.152-0.915c-0.01-0.003-0.022-0.006-0.037-0.009c-0.136-0.013-0.302-0.035-0.468-0.056c-0.341-0.044-0.689-0.09-1.029-0.099
	v0.764c0,0.158-0.122,0.289-0.28,0.299c-0.646,0.043-1.239,0.305-1.867,0.582l-0.316,0.138c-0.052,0.022-0.11,0.031-0.168,0.02
	c-0.194-0.033-0.379-0.07-0.559-0.106c-0.498-0.1-0.927-0.184-1.432-0.159C8.53,5.888,8.471,6.016,8.432,6.192
	C8.428,6.76,8.551,7.41,8.67,8.04l0.029,0.155C8.708,8.24,8.705,8.288,8.692,8.333c-0.434,1.517-1.058,2.555-2.153,3.585
	c-0.045,0.042-0.102,0.069-0.162,0.078c-0.572,0.082-0.96,0.213-1.156,0.391L5.2,12.458c-0.153,0.519-0.214,0.779,0.062,1.085
	c0.188,0.032,0.401,0.058,0.626,0.085c1.093,0.133,2.452,0.3,2.944,1.279c0.825,1.446,0.274,2.563-0.31,3.745l-0.155,0.316
	c-0.311,0.644-0.595,1.32-0.87,1.975c-0.143,0.339-0.285,0.678-0.431,1.014l-0.193,0.444c-0.662,1.522-1.347,3.097-2.102,4.612
	c-0.04,0.52-0.145,1.054-0.244,1.57c-0.076,0.391-0.152,0.781-0.2,1.163c-0.055,0.439-0.017,0.866,0.024,1.317
	c0.029,0.32,0.059,0.65,0.055,0.994c0.05,0.096,0.09,0.194,0.118,0.296c0.712,0.355,1.361,0.424,2.172,0.51l0.308,0.033
	c0.151,0.017,0.267,0.146,0.267,0.298c0,0.552,0.047,1.076,0.095,1.524l0.375,0.458c1.047,0.437,2.194,0.394,3.415,0.347
	C11.522,35.509,11.89,35.496,12.252,35.496z M72.764,20.33l-2.378-0.087c-0.703-0.027-1.294-0.28-1.865-0.524
	c-0.204-0.087-0.409-0.176-0.622-0.254c-0.041-0.015-0.078-0.039-0.108-0.069l-0.709-0.708c-0.104-0.006-0.197-0.066-0.246-0.158
	c-0.355-0.667-0.232-1.335-0.114-1.981l0.032-0.176c0.238-0.807,0.923-1.127,1.528-1.411l0.276-0.132
	c0.042-0.021,0.088-0.031,0.134-0.031h0.1c0.513-0.199,1.167-0.161,1.75-0.129c0.192,0.011,0.376,0.022,0.539,0.022l3.928-0.001
	c0.044,0,0.088,0.01,0.129,0.029c0.729,0.346,1.239,0.782,1.515,1.298l0.394,1.333c0.014,0.047,0.016,0.097,0.006,0.146
	l-0.157,0.743C76.73,19.298,75.378,19.989,72.764,20.33z M68.168,18.925c0.201,0.076,0.396,0.16,0.589,0.242
	c0.545,0.233,1.06,0.454,1.652,0.477l2.327,0.089c2.199-0.292,3.45-0.847,3.566-1.604l0.146-0.686l-0.35-1.203
	c-0.184-0.331-0.581-0.668-1.159-0.952L71.08,15.29c-0.173,0-0.368-0.011-0.573-0.022c-0.539-0.03-1.146-0.065-1.536,0.105
	c-0.038,0.017-0.079,0.025-0.12,0.025h-0.09c-0.073,0.036-0.149,0.072-0.226,0.107c-0.538,0.252-1.046,0.49-1.2,1.005l-0.024,0.146
	c-0.094,0.514-0.184,1.002-0.012,1.446c0.044,0.015,0.086,0.04,0.119,0.074L68.168,18.925z M26.335,20.116l-2.342-0.085
	c-0.586-0.022-1.086-0.221-1.569-0.414c-0.297-0.118-0.578-0.23-0.876-0.302c-0.054-0.013-0.104-0.041-0.143-0.08l-0.901-0.901
	c-0.041-0.041-0.069-0.093-0.082-0.15l-0.06-0.268c-0.132-0.568-0.281-1.211,0.032-1.838c0.111-0.341,0.381-0.678,0.786-0.961
	c0.96-0.433,1.57-0.568,2.661-0.607c0.856-0.031,1.699-0.03,2.569-0.031h0.143c0.012,0,0.023,0,0.034,0.002h2.035
	c0.049,0,0.097,0.012,0.14,0.035c0.725,0.382,1.231,0.834,1.505,1.344c0.445,0.763,0.401,1.42,0.299,2.199
	C30.312,19.042,28.93,19.704,26.335,20.116z M21.771,18.753c0.308,0.081,0.596,0.195,0.874,0.306
	c0.457,0.182,0.888,0.353,1.371,0.372L26.3,19.52c2.959-0.476,3.578-1.194,3.679-1.579c0.09-0.692,0.122-1.178-0.234-1.79
	c-0.214-0.397-0.614-0.755-1.196-1.072h-1.994c-0.012,0-0.023,0-0.034-0.002h-0.108c-0.85,0.007-1.697,0-2.548,0.031
	c-1.014,0.036-1.55,0.155-2.389,0.528c-0.247,0.18-0.441,0.415-0.527,0.67c-0.233,0.473-0.12,0.958-0.001,1.473l0.043,0.191
	L21.771,18.753z"/>
<rect id="sliceCopy_x5F_29_1_" x="100.411" fill="none" width="94.576" height="40"/>
<rect id="sliceCopy_x5F_28_1_" fill="none" width="100.411" height="40"/>
</svg>
