<?xml version="1.0" encoding="utf-8"?>
<!-- Generator: Adobe Illustrator 15.1.0, SVG Export Plug-In  -->
<!DOCTYPE svg PUBLIC "-//W3C//DTD SVG 1.1//EN" "http://www.w3.org/Graphics/SVG/1.1/DTD/svg11.dtd" [
	<!ENTITY ns_flows "http://ns.adobe.com/Flows/1.0/">
]>
<svg version="1.1"
	 xmlns="http://www.w3.org/2000/svg" xmlns:xlink="http://www.w3.org/1999/xlink" xmlns:a="http://ns.adobe.com/AdobeSVGViewerExtensions/3.0/"
	 x="0px" y="0px" width="83px" height="40px" viewBox="0.703 0 83 40" enable-background="new 0.703 0 83 40" xml:space="preserve">
<defs>
</defs>
<path d="M48.801,35.3c-0.429,0-0.894-0.032-1.28-0.059c-0.261-0.018-0.484-0.034-0.63-0.034h-4.346
	c-0.081,0-0.162-0.034-0.219-0.092c-0.103-0.107-0.1-0.221-0.091-0.496c0.002-0.074,0.006-0.145,0.003-0.181
	c-0.017-0.04-0.014-0.101-0.007-0.164c-0.111-0.006-0.274,0.008-0.391,0.017l-0.441,0.024c-0.134,0.008-0.261,0.016-0.379,0.016
	c-0.425,0-0.939-0.097-1.151-0.854c-0.185-0.66-0.167-1.419-0.149-2.153c0.005-0.2,0.01-0.396,0.01-0.584
	c0-1.782,0-3.562,0.487-5.164c0.046-0.151,0.133-0.281,0.216-0.406c0.065-0.098,0.127-0.189,0.154-0.271
	c0.025-0.078,0.04-0.162,0.056-0.246c0.025-0.135,0.053-0.271,0.102-0.396c0.097-0.25,0.237-0.48,0.373-0.703
	c0.124-0.205,0.242-0.398,0.318-0.592c0.08-0.203,0.168-0.406,0.257-0.611c0.271-0.626,0.552-1.274,0.586-1.93
	c0.027-0.502-0.057-0.747-0.267-1.138l-0.087-0.17c-0.27-0.537-0.459-0.836-0.563-0.888l-2.085,0.02
	c-1.955,0.011-3.909,0.022-5.863,0.039c-0.355,0.006-0.733-0.021-1.113-0.043c-0.407-0.024-0.837-0.05-1.252-0.05
	c-0.713,0-1.222,0.081-1.555,0.247c-0.367,0.186-0.845,0.057-1.198-0.319c-0.225-0.241-0.358-0.537-0.358-0.791v-3.011
	c-0.056,0.004-0.11,0.004-0.169,0.007c-0.228,0.014-0.511,0.056-0.771-0.151c-0.137-0.009-0.343-0.037-0.479-0.245c0,0,0,0,0,0
	s-0.057-0.072-0.106-0.172c-0.061,0.002-0.123,0.008-0.181,0.014c-0.078,0.007-0.149,0.013-0.204,0.013H7.121
	c-0.092,0-0.158,0.017-0.183,0.045c-0.083,0.095-0.035,0.437-0.004,0.663c0.022,0.166,0.044,0.326,0.043,0.462
	c-0.004,0.735-0.106,1.51-0.207,2.26c-0.056,0.424-0.112,0.844-0.149,1.252l-0.453,4.93c-0.024,0.265-0.121,0.526-0.215,0.778
	c-0.044,0.117-0.087,0.232-0.121,0.345c-0.251,0.84-0.81,0.852-1.351,0.863c-0.138,0.003-0.289,0.006-0.453,0.021
	c-0.087,0.008-0.168-0.02-0.23-0.077C3.735,25.267,3.7,25.187,3.7,25.102V10.91c0-0.234,0.171-0.403,0.407-0.403
	c0.174,0,0.365,0.09,0.53,0.174c1.262,0.196,2.786,0.212,4.236,0.212l12.226,0c0.724,0,1.447,0.004,2.172,0.009
	c1.462,0.01,2.925,0.019,4.385-0.01l2.094-0.042L29.749,9.42c0-0.198-0.025-0.46-0.052-0.745c-0.067-0.73-0.145-1.558,0.077-2.057
	c0.221-0.488,0.96-0.697,2.475-0.697c0.721,0,1.505,0.047,2.195,0.089c0.7,0.042,1.352,0.069,1.578,0.053
	c0.029-0.279,0.124-0.406,0.257-0.552c0.054-0.061,0.105-0.118,0.165-0.219c0.021-0.037,0.043-0.069,0.064-0.1
	c-0.02-0.082,0.012-0.225,0.06-0.294c0.048-0.069,0.139-0.172,0.223-0.184c0.795-0.106,1.255,0.34,1.65,0.729
	c0.309,0.303,0.574,0.564,0.971,0.564H68.18c0.113,0,0.302-0.018,0.533-0.038c0.398-0.035,0.895-0.079,1.378-0.079
	c0.971,0,1.518,0.186,1.72,0.583c0.252,0.493,0.409,1.048,0.562,1.585c0.133,0.469,0.271,0.955,0.469,1.388
	c0.081,0.178,0.25,0.382,0.844,0.382c0.307,0,0.645-0.053,0.973-0.103c0.298-0.046,0.579-0.089,0.817-0.089
	c0.878,0,1.903,0.094,2.809,0.177l0.437,0.04c0.801,0.071,0.835,0.404,0.828,1.035c-0.002,0.235-0.009,0.542-0.017,0.879
	c-0.019,0.819-0.042,1.838-0.009,2.405l0.015,0.179c0.02,0.213,0.041,0.434-0.119,0.609c-0.154,0.17-0.4,0.205-0.724,0.205l0,0
	c-0.065,0-0.138-0.001-0.217-0.004c-0.826-0.031-1.647-0.021-2.47-0.01c-0.262,0.003-0.524,0.007-0.786,0.009l1.492,3.366
	c0.076,0.176,0.075,0.396,0.075,0.589l0.011,0.37c0.019,0.38,0.03,0.632-0.149,0.825c-0.183,0.196-0.461,0.216-0.898,0.227
	c-0.127,0.003-0.235,0.009-0.33,0.014c-0.104,0.006-0.193,0.011-0.271,0.011c-0.487,0-0.683-0.211-0.959-0.717l-1.293-2.351
	c-0.014,0.018-0.203-0.043-0.539-0.043c-0.56,0-0.931,0.15-0.973,0.23c0.002,0.417-0.02,0.861-0.041,1.31
	c-0.021,0.446-0.043,0.896-0.043,1.335c0,0.422,0.062,0.834,0.126,1.271c0.065,0.445,0.134,0.906,0.134,1.386
	c0,0.538,0.254,1.204,0.478,1.791c0.089,0.231,0.174,0.456,0.242,0.664c0.276,0.842,0.518,1.703,0.698,2.489
	c0.034,0.145,0.083,0.332,0.14,0.547c0.421,1.598,1.126,4.271-0.2,5.009c-0.73,0.408-1.797,0.518-2.575,0.598
	c-0.216,0.022-0.442,0.036-0.666,0.05c-0.306,0.018-0.608,0.036-0.875,0.078c-0.087,0.014-0.212,0.045-0.353,0.079
	c-0.457,0.112-0.981,0.229-1.254,0.119c-0.822-0.331-0.934-0.539-1.193-1.21l-0.032-0.084c-0.076-0.194-0.164-0.382-0.251-0.568
	c-0.123-0.264-0.244-0.526-0.338-0.804c-0.071-0.218-0.08-0.466-0.08-0.68c0-0.102-0.021-0.128-0.088-0.214
	c-0.059-0.074-0.138-0.176-0.195-0.331c-0.128-0.348-0.181-0.864-0.22-1.241l-0.013-0.126c-0.1-0.928-0.176-1.708-0.176-2.58
	c0-0.137-0.036-0.317-0.074-0.507c-0.046-0.231-0.098-0.492-0.098-0.746c0-0.282-0.024-0.533-0.048-0.791
	c-0.014-0.144-0.027-0.289-0.038-0.442L64.33,23.72c-0.055-0.789-0.106-1.533-0.106-2.334c0-0.853-0.197-1.907-1.138-2.081
	c-0.732-0.138-1.14,0.364-1.63,0.959c-0.335,0.406-0.682,0.826-1.161,1.066c-0.221,0.11-0.404,0.266-0.6,0.432
	c-0.209,0.177-0.426,0.36-0.698,0.496l-0.345,0.178c-0.544,0.285-1.057,0.555-1.773,0.639c-0.707,0.083-1.321,0.154-1.925,0.154
	c-1.108,0-1.943-0.251-2.651-0.806c-1.44,2.908-1.562,6.129-1.562,9.719v1.361c0,0.531-0.215,0.729-0.396,0.8
	c0.002,0.024,0.005,0.047,0.007,0.066c0.018,0.161,0.034,0.313-0.029,0.449C50.165,35.156,49.71,35.3,48.801,35.3z M42.836,34.607
	h4.055c0.155,0,0.394,0.016,0.672,0.035c0.373,0.026,0.823,0.058,1.238,0.058c0.805,0,0.964-0.126,0.982-0.144
	c-0.009,0.006-0.021-0.068-0.028-0.121c-0.021-0.192-0.045-0.41,0.096-0.566c0.056-0.063,0.197-0.124,0.282-0.125
	c-0.02-0.004,0.009-0.081,0.009-0.24v-1.361c0-3.811,0.136-7.219,1.805-10.337c0.044-0.083,0.125-0.14,0.218-0.155
	c0.092-0.015,0.187,0.015,0.254,0.08c0.651,0.622,1.434,0.899,2.536,0.899c0.568,0,1.166-0.069,1.798-0.143
	c0.663-0.078,1.107-0.311,1.622-0.581l0.354-0.184c0.209-0.104,0.389-0.256,0.579-0.417c0.213-0.181,0.435-0.368,0.719-0.51
	c0.366-0.183,0.657-0.537,0.967-0.911c0.523-0.635,1.126-1.37,2.202-1.167c1.05,0.195,1.628,1.143,1.628,2.671
	c0,0.78,0.051,1.515,0.105,2.292l0.024,0.365c0.011,0.148,0.023,0.288,0.036,0.426c0.026,0.276,0.051,0.545,0.051,0.847
	c0,0.194,0.044,0.415,0.087,0.628c0.044,0.22,0.085,0.429,0.085,0.625c0,0.842,0.075,1.605,0.172,2.516l0.014,0.129
	c0.033,0.325,0.084,0.817,0.187,1.095c0.024,0.067,0.058,0.109,0.104,0.167c0.091,0.116,0.216,0.275,0.216,0.584
	c0,0.157,0.006,0.355,0.05,0.492c0.086,0.253,0.199,0.495,0.313,0.739c0.093,0.198,0.185,0.397,0.266,0.604l0.033,0.085
	c0.223,0.575,0.241,0.622,0.858,0.87c0.282-0.012,0.614-0.078,0.887-0.145c0.16-0.04,0.303-0.074,0.401-0.089
	c0.284-0.045,0.606-0.065,0.933-0.084c0.215-0.013,0.433-0.026,0.64-0.047c0.728-0.075,1.723-0.178,2.346-0.526
	c0.919-0.511,0.214-3.188-0.088-4.332c-0.059-0.223-0.109-0.416-0.144-0.565c-0.177-0.769-0.414-1.611-0.685-2.436
	c-0.065-0.201-0.147-0.416-0.232-0.638c-0.242-0.636-0.517-1.356-0.517-2.005c0-0.437-0.063-0.855-0.128-1.298
	c-0.064-0.438-0.132-0.892-0.132-1.358c0-0.449,0.021-0.908,0.044-1.364c0.021-0.439,0.042-0.875,0.042-1.293
	c0-0.604,0.846-0.818,1.57-0.818c0.397,0,0.904,0.062,1.065,0.354l1.292,2.351c0.223,0.405,0.263,0.405,0.433,0.405
	c0.068,0,0.146-0.004,0.238-0.009c0.1-0.006,0.215-0.012,0.348-0.015c0.104-0.002,0.422-0.01,0.487-0.047
	c-0.006-0.02-0.015-0.209-0.023-0.376l-0.01-0.235c-0.002-0.047-0.002-0.105-0.002-0.167c0.001-0.101,0.001-0.287-0.024-0.346
	l-1.677-3.784c-0.041-0.093-0.032-0.2,0.023-0.285c0.055-0.085,0.149-0.136,0.251-0.136c0.413,0,0.825-0.005,1.238-0.01
	c0.833-0.011,1.668-0.021,2.499,0.01l0.195,0.004c0.136,0,0.214-0.008,0.256-0.015c-0.001-0.041-0.006-0.095-0.011-0.142
	l-0.017-0.201c-0.034-0.59-0.011-1.623,0.009-2.453c0.007-0.334,0.015-0.639,0.017-0.872c0.002-0.165,0.003-0.353-0.018-0.399
	c0.003,0.01-0.049-0.014-0.264-0.033l-0.439-0.04c-0.892-0.082-1.902-0.175-2.753-0.175c-0.192,0-0.452,0.04-0.727,0.083
	c-0.333,0.052-0.711,0.11-1.063,0.11c-0.701,0-1.168-0.246-1.39-0.732c-0.217-0.475-0.361-0.982-0.5-1.473
	c-0.151-0.533-0.294-1.036-0.52-1.477c-0.021-0.043-0.181-0.255-1.185-0.255c-0.457,0-0.938,0.042-1.325,0.077
	c-0.255,0.022-0.462,0.04-0.586,0.04H39.412c-0.642,0-1.04-0.391-1.391-0.736c-0.289-0.283-0.541-0.531-0.899-0.569
	c-0.029,0.098-0.078,0.17-0.117,0.227l-0.043,0.065c-0.091,0.154-0.176,0.249-0.238,0.318c-0.09,0.1-0.111,0.123-0.111,0.352
	c0,0.092-0.038,0.314-0.389,0.377c-0.295,0.054-0.976,0.017-1.815-0.034c-0.683-0.041-1.456-0.088-2.159-0.088
	c-1.688,0-1.901,0.285-1.927,0.342c-0.158,0.354-0.082,1.164-0.027,1.755c0.028,0.306,0.054,0.587,0.054,0.8l0.002,1.446
	c0.004,0.151,0.007,0.307-0.117,0.436c-0.123,0.129-0.291,0.143-0.468,0.146l-2.098,0.042c-1.464,0.03-2.933,0.021-4.4,0.011
	c-0.723-0.005-1.445-0.01-2.168-0.01L8.874,11.493c-1.474,0-3.023-0.017-4.358-0.221c-0.032-0.004-0.121-0.042-0.149-0.057
	C4.342,11.203,4.32,11.192,4.3,11.183v13.601c0.059-0.002,0.115-0.003,0.169-0.004c0.522-0.011,0.663-0.014,0.789-0.435
	c0.037-0.125,0.084-0.253,0.133-0.383c0.08-0.215,0.163-0.438,0.18-0.624l0.453-4.93c0.038-0.416,0.095-0.844,0.152-1.276
	c0.098-0.731,0.198-1.488,0.202-2.184c0-0.111-0.02-0.241-0.038-0.377c-0.055-0.393-0.116-0.838,0.146-1.139
	c0.146-0.167,0.359-0.251,0.636-0.251h18.904c0.04,0,0.092-0.005,0.148-0.011c0.213-0.019,0.434-0.024,0.574,0.032
	c0.001,0,0.002,0,0.003,0.001c0.103,0.042,0.169,0.135,0.183,0.237c0.029,0.06,0.077,0.143,0.088,0.161
	c0.094-0.026,0.231-0.017,0.346,0.097c0.005,0.005,0.036,0.032,0.182,0.032c0.061,0,0.122-0.004,0.182-0.008
	c0.069-0.004,0.136-0.008,0.198-0.008c0.563,0,0.607,0.399,0.607,0.522v3.089c0,0.082,0.063,0.236,0.198,0.381
	c0.162,0.175,0.357,0.26,0.49,0.193c0.425-0.212,1.004-0.311,1.823-0.311c0.427,0,0.869,0.026,1.288,0.051
	c0.365,0.021,0.713,0.042,1.016,0.042c2.011-0.017,3.966-0.028,5.92-0.039L41.4,17.63c0.42,0,0.729,0.549,1.061,1.212l0.079,0.155
	c0.251,0.466,0.372,0.819,0.338,1.454c-0.04,0.764-0.343,1.462-0.635,2.137c-0.087,0.199-0.172,0.396-0.249,0.593
	c-0.096,0.243-0.232,0.467-0.364,0.685c-0.128,0.21-0.248,0.408-0.327,0.61c-0.035,0.091-0.052,0.189-0.07,0.287
	c-0.021,0.112-0.042,0.224-0.077,0.328c-0.053,0.157-0.144,0.292-0.223,0.413c-0.06,0.089-0.121,0.181-0.142,0.248
	c-0.462,1.516-0.462,3.25-0.462,4.928c0,0.254-0.005,0.455-0.01,0.66c-0.016,0.69-0.033,1.404,0.128,1.977
	c0.099,0.353,0.235,0.416,0.573,0.416c0.106,0,0.221-0.007,0.343-0.015c0.095-0.006,0.193-0.012,0.296-0.016l0.139-0.009
	c0.318-0.021,0.77-0.091,0.972,0.167c0.107,0.134,0.084,0.299,0.066,0.42C42.842,34.358,42.842,34.428,42.836,34.607z M40.94,33.192
	c-0.004,0-0.008,0-0.011,0c-0.305-0.011-0.322-0.395-0.322-0.4l0,0c0.002-0.146,0.109-0.268,0.253-0.291
	c0.145-0.021,0.284,0.062,0.331,0.199l0.031,0.09c0.012,0.033,0.018,0.067,0.018,0.102c0,0.063-0.021,0.125-0.059,0.177
	C41.125,33.146,41.035,33.192,40.94,33.192z M55.496,21.342c-0.009,0-0.017,0-0.025-0.001c-1.089-0.094-2.102-0.579-2.931-1.404
	c-0.094-0.092-0.142-0.223-0.133-0.367c0.036-0.631,1.25-1.649,1.262-1.659c0.086-0.067,0.203-0.083,0.304-0.039
	c0.102,0.044,0.17,0.139,0.18,0.249c0.077,0.859,0.465,1.662,1.122,2.32l0.421,0.377c0.013,0.011,0.024,0.024,0.035,0.037
	c-0.03-0.048-0.059-0.098-0.087-0.148l-0.082-0.142c-0.41-0.688-0.627-1.494-0.627-2.333c0.016-1.042,0.335-1.188,1.115-1.295
	c0.105-0.014,0.223-0.03,0.354-0.052c1.676-0.278,3.13,0.978,3.626,1.485c0.104,0.106,0.114,0.271,0.025,0.389l-0.202,0.273
	c-0.481,0.654-0.937,1.272-1.69,1.717c-0.448,0.266-0.941,0.448-1.466,0.539c-0.088,0.015-0.164,0.022-0.233,0.022l0,0
	c-0.365,0-0.554-0.182-0.698-0.401c0.038,0.077,0.043,0.169,0.007,0.252C55.724,21.271,55.615,21.342,55.496,21.342z M56.89,17.444
	c-0.129,0-0.258,0.01-0.387,0.032c-0.138,0.023-0.261,0.04-0.371,0.055c-0.588,0.08-0.588,0.08-0.598,0.705
	c0,0.726,0.188,1.427,0.542,2.021l0.088,0.152c0.168,0.292,0.19,0.301,0.299,0.301l0,0c0.039,0,0.082-0.004,0.131-0.013
	c0.451-0.079,0.877-0.235,1.263-0.464c0.649-0.383,1.068-0.953,1.513-1.557l0.049-0.065C58.934,18.16,57.991,17.444,56.89,17.444z
	 M53.016,19.562c0.458,0.443,0.977,0.769,1.531,0.968c-0.447-0.539-0.751-1.142-0.9-1.784
	C53.362,19.038,53.071,19.391,53.016,19.562z"/>
<rect id="sliceCopy_x5F_35_1_" x="83.251" fill="none" width="60.272" height="40"/>
<rect id="sliceCopy_x5F_34_1_" fill="none" width="83.251" height="40"/>
</svg>
