<?xml version="1.0" encoding="utf-8"?>
<!-- Generator: Adobe Illustrator 15.1.0, SVG Export Plug-In  -->
<!DOCTYPE svg PUBLIC "-//W3C//DTD SVG 1.1//EN" "http://www.w3.org/Graphics/SVG/1.1/DTD/svg11.dtd" [
	<!ENTITY ns_flows "http://ns.adobe.com/Flows/1.0/">
]>
<svg version="1.1"
	 xmlns="http://www.w3.org/2000/svg" xmlns:xlink="http://www.w3.org/1999/xlink" xmlns:a="http://ns.adobe.com/AdobeSVGViewerExtensions/3.0/"
	 x="0px" y="0px" width="36px" height="40px" viewBox="0.25 0 36 40" enable-background="new 0.25 0 36 40" xml:space="preserve">
<defs>
</defs>
<path d="M22.055,36.284h-7.85c-0.574,0-0.916-0.342-0.916-0.916v-1.499c0-0.051,0.013-0.102,0.038-0.146l0.976-1.74v-1.95
	c0-0.166,0.134-0.3,0.3-0.3h0.186v-1.517h-0.186c-0.166,0-0.3-0.134-0.3-0.3v-2.204c0-0.166,0.134-0.3,0.3-0.3h0.186v-1.518h-0.186
	c-0.166,0-0.3-0.134-0.3-0.3V21.39c0-0.166,0.134-0.3,0.3-0.3h0.186v-1.517h-0.186c-0.166,0-0.3-0.134-0.3-0.3v-1.945l-0.921-0.881
	c-0.059-0.057-0.092-0.135-0.092-0.217v-2.822c0-0.574,0.342-0.917,0.916-0.917h0.506l1.135-0.984v-1.375
	c-0.913-0.216-1.058-0.872-1.058-1.266c0-0.637,0.312-0.908,0.574-1.023c0.024-0.011,0.05-0.018,0.076-0.022l0.883-0.134
	l4.896-0.003c0.104,0,0.2,0.053,0.254,0.141l4.102,6.57c0.03,0.047,0.045,0.103,0.045,0.159v13.891c0,0.115-0.065,0.219-0.168,0.27
	l-2.074,1.015c-0.059,0.029-0.125,0.037-0.191,0.024l-0.66-0.133c-0.086-0.017-0.16-0.071-0.203-0.148
	c-0.126-0.227-0.263-0.674,0.238-1.119c0.25-0.22,0.613-0.463,1.111-0.744l0.464-0.233v-12.03l-1.163-0.668v1.554
	c0,0.084-0.035,0.165-0.097,0.221l-0.962,0.881v1.941c0,0.166-0.134,0.3-0.3,0.3h-0.142v1.517h0.142c0.166,0,0.3,0.134,0.3,0.3
	v2.204c0,0.166-0.134,0.3-0.3,0.3h-0.142v1.518h0.142c0.166,0,0.3,0.134,0.3,0.3v2.204c0,0.166-0.134,0.3-0.3,0.3h-0.142v1.517
	h0.142c0.166,0,0.3,0.134,0.3,0.3v1.947l1.019,1.738c0.027,0.046,0.041,0.099,0.041,0.152v1.499
	C22.973,35.941,22.629,36.284,22.055,36.284z M13.889,33.947v1.421c0,0.245,0.071,0.316,0.316,0.316h7.85
	c0.247,0,0.318-0.071,0.318-0.316V33.95l-1.019-1.738c-0.027-0.046-0.041-0.099-0.041-0.152v-1.729h-0.142
	c-0.166,0-0.3-0.134-0.3-0.3v-2.116c0-0.166,0.134-0.3,0.3-0.3h0.142v-1.604h-0.142c-0.166,0-0.3-0.134-0.3-0.3v-2.117
	c0-0.166,0.134-0.3,0.3-0.3h0.142V21.69h-0.142c-0.166,0-0.3-0.134-0.3-0.3v-2.116c0-0.166,0.134-0.3,0.3-0.3h0.142v-1.773
	c0-0.084,0.035-0.165,0.097-0.221l0.962-0.881v-1.94c0-0.107,0.057-0.206,0.149-0.26s0.207-0.053,0.3,0l1.763,1.014
	c0.093,0.054,0.15,0.153,0.15,0.26v12.389c0,0.113-0.064,0.217-0.165,0.268l-0.616,0.31c-0.443,0.25-0.782,0.476-0.996,0.664
	c-0.125,0.111-0.158,0.192-0.152,0.262l0.399,0.081l1.815-0.888V14.64l-3.968-6.356h-4.684l-0.793,0.124
	c-0.07,0.038-0.185,0.136-0.185,0.459c0,0.306,0.095,0.63,0.795,0.717c0.15,0.019,0.263,0.146,0.263,0.298v1.764
	c0,0.087-0.038,0.17-0.104,0.227l-1.323,1.146c-0.054,0.047-0.124,0.073-0.196,0.073h-0.618c-0.245,0-0.316,0.071-0.316,0.317v2.694
	l0.921,0.881c0.059,0.057,0.092,0.135,0.092,0.217v1.773h0.186c0.166,0,0.3,0.134,0.3,0.3v2.116c0,0.166-0.134,0.3-0.3,0.3h-0.186
	v1.604h0.186c0.166,0,0.3,0.134,0.3,0.3v2.117c0,0.166-0.134,0.3-0.3,0.3h-0.186v1.604h0.186c0.166,0,0.3,0.134,0.3,0.3v2.116
	c0,0.166-0.134,0.3-0.3,0.3h-0.186v1.729c0,0.051-0.013,0.102-0.038,0.146L13.889,33.947z M7.998,23.069H6.551
	c-0.166,0-0.3-0.134-0.3-0.3v-1.551l-1.398,0.799c-0.07,0.04-0.153,0.049-0.23,0.029c-0.077-0.022-0.143-0.074-0.182-0.144
	l-0.704-1.275c-0.08-0.145-0.028-0.326,0.116-0.407l1.345-0.753l-1.35-0.791c-0.068-0.04-0.118-0.106-0.138-0.183
	c-0.021-0.077-0.009-0.159,0.031-0.228l0.747-1.274c0.083-0.142,0.268-0.19,0.41-0.107l1.353,0.791v-1.587
	c0-0.166,0.134-0.3,0.3-0.3h1.447c0.166,0,0.3,0.134,0.3,0.3v1.548l1.311-0.753c0.069-0.04,0.153-0.05,0.23-0.029
	c0.078,0.022,0.143,0.074,0.182,0.144l0.703,1.274c0.078,0.142,0.03,0.319-0.108,0.402l-1.313,0.789l1.35,0.756
	c0.07,0.04,0.122,0.105,0.143,0.183s0.01,0.161-0.031,0.23l-0.747,1.275c-0.083,0.141-0.264,0.19-0.408,0.108l-1.311-0.752v1.504
	C8.298,22.935,8.164,23.069,7.998,23.069z M6.851,22.469h0.848v-1.723c0-0.107,0.057-0.206,0.149-0.26s0.207-0.053,0.3,0
	l1.502,0.862l0.442-0.755l-1.534-0.859c-0.093-0.052-0.152-0.15-0.153-0.257C8.402,19.37,8.458,19.27,8.55,19.215l1.509-0.907
	l-0.416-0.754l-1.495,0.859c-0.093,0.053-0.207,0.053-0.3,0s-0.149-0.153-0.149-0.26v-1.767H6.851v1.811
	c0,0.107-0.057,0.207-0.15,0.26c-0.094,0.053-0.208,0.053-0.301-0.001l-1.545-0.903L4.411,18.31l1.543,0.904
	c0.093,0.054,0.149,0.154,0.148,0.262c-0.001,0.107-0.06,0.207-0.153,0.259l-1.542,0.863l0.413,0.748l1.583-0.904
	c0.094-0.053,0.208-0.053,0.299,0.001c0.093,0.053,0.149,0.152,0.149,0.259V22.469z M28.832,13.222h-1.451
	c-0.166,0-0.3-0.134-0.3-0.3v-1.548l-1.397,0.798c-0.071,0.04-0.154,0.049-0.23,0.029c-0.077-0.022-0.143-0.074-0.182-0.144
	l-0.704-1.274c-0.079-0.143-0.029-0.324,0.113-0.405l1.316-0.756l-1.321-0.792c-0.141-0.084-0.188-0.267-0.104-0.409l0.748-1.274
	c0.084-0.143,0.268-0.191,0.41-0.107l1.351,0.79V6.243c0-0.166,0.134-0.3,0.3-0.3h1.451c0.166,0,0.3,0.134,0.3,0.3V7.79l1.308-0.752
	c0.069-0.041,0.152-0.051,0.23-0.029c0.078,0.022,0.144,0.074,0.182,0.145l0.702,1.274c0.078,0.141,0.03,0.319-0.108,0.402
	l-1.313,0.789l1.352,0.758c0.07,0.04,0.122,0.105,0.143,0.183c0.021,0.078,0.01,0.161-0.031,0.23l-0.748,1.274
	c-0.083,0.142-0.268,0.19-0.408,0.108l-1.308-0.752v1.503C29.132,13.088,28.998,13.222,28.832,13.222z M27.681,12.623h0.852v-1.722
	c0-0.107,0.057-0.206,0.149-0.26c0.094-0.054,0.208-0.053,0.3,0l1.499,0.863l0.443-0.754l-1.536-0.861
	c-0.094-0.052-0.152-0.15-0.153-0.257c-0.002-0.107,0.054-0.207,0.146-0.262l1.509-0.906L30.474,7.71l-1.492,0.858
	c-0.092,0.053-0.206,0.053-0.3,0c-0.092-0.054-0.149-0.153-0.149-0.26V6.542h-0.852v1.81c0,0.107-0.057,0.207-0.15,0.26
	c-0.093,0.053-0.208,0.053-0.301-0.001l-1.543-0.903l-0.446,0.76l1.505,0.902c0.091,0.055,0.146,0.154,0.146,0.26
	s-0.058,0.204-0.15,0.257l-1.504,0.864l0.414,0.75l1.582-0.903c0.093-0.053,0.207-0.053,0.299,0.001
	c0.093,0.054,0.149,0.152,0.149,0.259V12.623z M10.979,12.252H9.219c-0.166,0-0.3-0.134-0.3-0.3V9.968L7.18,10.962
	c-0.145,0.083-0.326,0.033-0.409-0.11L5.912,9.366c-0.04-0.069-0.051-0.151-0.03-0.229c0.021-0.077,0.071-0.143,0.141-0.182
	l1.733-0.991L6.023,6.975c-0.069-0.04-0.12-0.105-0.141-0.183s-0.01-0.159,0.03-0.229l0.859-1.486c0.04-0.069,0.106-0.12,0.184-0.14
	c0.077-0.021,0.16-0.009,0.229,0.032l1.735,1.023V4.016c0-0.166,0.134-0.3,0.3-0.3h1.761c0.166,0,0.3,0.134,0.3,0.3v1.901
	l1.62-0.948c0.069-0.042,0.151-0.053,0.228-0.031c0.077,0.021,0.143,0.071,0.183,0.14l0.86,1.486
	c0.083,0.144,0.034,0.327-0.109,0.41l-1.706,0.991l1.706,0.992c0.143,0.083,0.191,0.267,0.109,0.41l-0.86,1.486
	c-0.083,0.142-0.263,0.192-0.408,0.111l-1.624-0.92v1.909C11.279,12.118,11.145,12.252,10.979,12.252z M9.519,11.652h1.161V9.528
	c0-0.107,0.057-0.206,0.149-0.259s0.207-0.054,0.299-0.002l1.813,1.027l0.562-0.97l-1.893-1.101
	C11.517,8.17,11.46,8.071,11.46,7.964s0.057-0.206,0.149-0.259l1.893-1.1l-0.56-0.966l-1.811,1.06
	C11.038,6.753,10.924,6.753,10.83,6.7c-0.093-0.054-0.15-0.153-0.15-0.26V4.316H9.519v2.202c0,0.108-0.058,0.207-0.151,0.261
	C9.274,6.832,9.159,6.832,9.066,6.776L7.14,5.64L6.583,6.604l1.928,1.1c0.093,0.054,0.151,0.153,0.151,0.261
	c0,0.107-0.058,0.207-0.151,0.26L6.583,9.327l0.559,0.967L9.07,9.191c0.093-0.053,0.208-0.053,0.299,0.001
	c0.093,0.053,0.149,0.152,0.149,0.259V11.652z"/>
<rect id="sliceCopy_x5F_9_1_" x="35.337" fill="none" width="20.776" height="40"/>
<rect id="sliceCopy_x5F_8_1_" fill="none" width="35.337" height="40"/>
</svg>
