<?xml version="1.0" encoding="utf-8"?>
<!-- Generator: Adobe Illustrator 15.1.0, SVG Export Plug-In  -->
<!DOCTYPE svg PUBLIC "-//W3C//DTD SVG 1.1//EN" "http://www.w3.org/Graphics/SVG/1.1/DTD/svg11.dtd" [
	<!ENTITY ns_flows "http://ns.adobe.com/Flows/1.0/">
]>
<svg version="1.1"
	 xmlns="http://www.w3.org/2000/svg" xmlns:xlink="http://www.w3.org/1999/xlink" xmlns:a="http://ns.adobe.com/AdobeSVGViewerExtensions/3.0/"
	 x="0px" y="0px" width="137px" height="40px" viewBox="0.128 0 137 40" enable-background="new 0.128 0 137 40"
	 xml:space="preserve">
<defs>
</defs>
<path d="M56.355,36.3H56.15c-0.166,0-0.3-0.134-0.3-0.3v-0.163l-0.808-2.675l-1.183-4.575l-0.418-3.114l-0.077-1.017l-0.237,0.043
	c-0.032,0.006-0.066,0.006-0.096,0.002l-0.719-0.103l-4.776,0.003l-1.848,0.153c-0.17,0-0.302,0.032-0.381,0.092l-0.245,0.248
	l-1.013,1.935l0.433,0.513c0.055,0.065,0.079,0.15,0.067,0.235s-0.059,0.16-0.129,0.208l-0.152,0.103
	c-0.022,0.015-0.048,0.027-0.073,0.036c-0.188,0.063-0.417,0.161-0.68,0.292l-0.345,0.357l-2.164,4.233l-0.032,0.251l0.171,0.271
	l0.161,0.121c0.111,0.084,0.15,0.234,0.094,0.361l-0.205,0.462c-0.059,0.131-0.206,0.201-0.343,0.17l-7.23-1.691
	c-0.093-0.021-0.169-0.085-0.207-0.173c-0.038-0.087-0.032-0.187,0.016-0.269l6.512-11.281l0.13-0.408l0.08-0.787l-0.311-0.802
	L39.354,18.5l-0.507-0.253l-1.284-0.041c-0.038,0.104-0.133,0.182-0.248,0.194l-0.463,0.051c-0.092,0.005-0.168-0.018-0.231-0.073
	s-0.101-0.135-0.102-0.22l-0.046-2.537l-0.998-0.04c-0.148-0.006-0.27-0.119-0.286-0.266l-0.022-0.196h-4.811l-1.15,0.864
	c-0.05,0.038-0.11,0.059-0.174,0.06l-4.579,0.097v0.167c0,0.164-0.132,0.298-0.296,0.3l-3.954,0.048l0.045,2.364
	c0.002,0.081-0.029,0.159-0.086,0.216c-0.056,0.058-0.134,0.09-0.214,0.09h-2.673v0.777c0,0.166-0.134,0.3-0.3,0.3h-1.436
	c-0.166,0-0.3-0.134-0.3-0.3v-0.483l-4.361,2.737c-0.092,0.058-0.207,0.061-0.305,0.009c-0.095-0.053-0.154-0.153-0.154-0.263
	v-1.996l-5.513,2.501l-0.042,0.842c-0.002,0.027-0.007,0.054-0.015,0.079l-0.051,0.154c-0.019,0.056-0.053,0.104-0.098,0.141
	l-0.256,0.204c-0.12,0.095-0.29,0.085-0.399-0.022l-0.205-0.204c-0.032-0.032-0.057-0.072-0.072-0.115l-0.053-0.154
	C3.705,23.5,3.7,23.466,3.7,23.432l0.104-13.64c0.001-0.165,0.135-0.297,0.3-0.297h5.436c0.079,0,0.156,0.031,0.212,0.088
	l0.205,0.205c0.041,0.041,0.069,0.092,0.081,0.149l0.104,0.483l13.758,0.151c0.059,0,0.115,0.018,0.163,0.05l0.154,0.103
	c0.051,0.034,0.091,0.083,0.113,0.14l0.026,0.068L35.15,10.98l-0.015-0.126c-0.01-0.085,0.018-0.17,0.074-0.234s0.138-0.1,0.224-0.1
	h1.034v-0.06c0-0.153,0.115-0.281,0.267-0.298l0.461-0.051c0.17-0.009,0.308,0.095,0.33,0.255l0.014,0.093l0.774-0.03v-0.327
	c0-0.166,0.134-0.3,0.3-0.3h1.334l3.451-5.47c0.018-0.023,0.038-0.043,0.061-0.061l0.41-0.307c0.021-0.016,0.044-0.028,0.068-0.038
	l0.514-0.206C44.486,3.708,44.524,3.7,44.563,3.7h0.307l17.108,1.847l0.541,0.108c0.032,0.006,0.063,0.019,0.093,0.035l0.871,0.513
	c0.044,0.026,0.08,0.063,0.106,0.106l0.514,0.871l0.219,0.494c0.019,0.041,0.026,0.085,0.025,0.13l-0.045,1.491
	c0.035-0.007,0.072-0.007,0.109,0l0.721,0.137c0.001-0.148,0.111-0.273,0.258-0.293l0.15-0.021c0.001,0,0.001-0.001,0.002-0.002
	l0.104-0.154c0.033-0.05,0.081-0.089,0.138-0.111l0.256-0.103c0.037-0.015,0.078-0.02,0.116-0.021l18.973,0.308
	c0.112,0.001,0.214,0.065,0.264,0.166l0.205,0.41c0.021,0.042,0.031,0.088,0.031,0.134v0.241l0.244,0.025
	c0.037,0.003,0.073,0.014,0.106,0.031l0.102,0.052c0.04,0.021,0.075,0.05,0.103,0.086l0.154,0.204
	c0.034,0.045,0.055,0.099,0.06,0.156l0.079,0.957h0.098l0.045-1.708c0.002-0.06,0.021-0.117,0.055-0.166l3.129-4.41
	c0.016-0.021,0.033-0.04,0.053-0.057l0.307-0.256c0.271-0.227,0.563-0.316,0.855-0.272c0.583,0.079,1.029,0.307,1.317,0.676
	c0.017,0.021,0.029,0.043,0.04,0.067l0.152,0.358c0.028,0.067,0.031,0.142,0.009,0.211L92.5,6.047l0.048,5.448h5.138
	c0.034,0,0.068,0.006,0.101,0.017l0.668,0.238l2.74-0.046c0.039-0.121,0.152-0.208,0.286-0.208h7.239V10.41
	c0-0.166,0.134-0.3,0.3-0.3h22.973c0.079,0,0.156,0.031,0.212,0.088l0.205,0.205c0.057,0.056,0.088,0.132,0.088,0.212v4.872
	c0,0.055-0.015,0.108-0.043,0.155l-0.154,0.256c-0.055,0.09-0.151,0.145-0.257,0.145c0,0,0,0-0.001,0l-23.484-0.052
	c-0.158,0-0.289-0.124-0.299-0.283l-0.053-0.923c-0.003-0.049,0.007-0.096,0.025-0.138l-6.755-0.092
	c-0.129-0.001-0.238-0.085-0.279-0.2l-2.795,0.046l-0.571,0.189c-0.031,0.011-0.063,0.023-0.098,0.015l-4.053-0.038v0.815
	c0,0.07-0.024,0.139-0.07,0.193l-0.258,0.308c-0.059,0.071-0.149,0.103-0.242,0.107l-0.867-0.038v0.097c0,0.166-0.134,0.3-0.3,0.3
	h-0.871c-0.166,0-0.3-0.134-0.3-0.3v-1.459l-2.616-0.08l-0.032,0.096l-0.088,0.712c-0.007,0.045-0.022,0.088-0.047,0.126
	l-0.102,0.154c-0.034,0.051-0.083,0.091-0.14,0.113l-0.256,0.103c-0.087,0.036-0.184,0.027-0.266-0.021l-0.442-0.246
	c-0.109-0.055-0.174-0.169-0.165-0.291l0.048-0.657l-0.016-0.046h-0.165l-0.038,0.842c-0.004,0.075-0.035,0.146-0.088,0.198
	l-0.438,0.386c-0.053,0.04-0.116,0.061-0.182,0.061h-0.168l-0.228,0.493c-0.049,0.105-0.154,0.173-0.271,0.174l-18.922,0.153
	c0,0-0.001,0-0.002,0c-0.052,0-0.104-0.013-0.148-0.039l-0.32-0.183l-0.331-0.074l-0.892,0.328
	c-0.087,0.032-0.187,0.022-0.266-0.029c-0.079-0.05-0.13-0.135-0.137-0.229l-0.079-0.99l-0.329,0.019l0.032,0.519
	c0.003,0.052-0.008,0.104-0.031,0.152l-0.214,0.379c-0.037,0.063-0.095,0.109-0.163,0.132l-0.464,0.154
	c-0.061,0.02-0.127,0.02-0.188,0l-0.069-0.023c-0.016,0.019-0.043,0.05-0.048,0.059l-0.259,0.416v4.073l0.104,0.035
	c0.107,0.036,0.186,0.13,0.201,0.242l0.051,0.36c0.02,0.138-0.059,0.271-0.188,0.322l-0.475,0.183v1.382
	c0.064,1.188,0.218,2.328,0.454,3.37l1.123,3.984l0.648,2.042l0.17,0.213c0.063,0.079,0.082,0.184,0.051,0.279
	c-0.03,0.096-0.107,0.17-0.205,0.197l-7.744,2.153C56.409,36.296,56.383,36.3,56.355,36.3z M53.639,23.802
	c0.065,0,0.131,0.021,0.184,0.063c0.067,0.052,0.109,0.13,0.115,0.214l0.102,1.332l0.408,3.062L55.62,33l0.807,2.669l7.18-1.997
	l-0.666-2.095l-1.13-4.008c-0.247-1.09-0.404-2.264-0.472-3.502v-1.604c0-0.124,0.076-0.235,0.191-0.28l0.366-0.141l-0.047-0.016
	c-0.122-0.041-0.204-0.155-0.204-0.284v-4.358c0-0.047,0.011-0.093,0.032-0.135l0.104-0.205l0.223-0.339
	c0.113-0.233,0.382-0.409,0.65-0.324l0.061,0.02l0.262-0.087l0.1-0.17l-0.046-0.742c-0.005-0.08,0.022-0.158,0.075-0.218
	c0.054-0.06,0.128-0.096,0.208-0.1l0.924-0.052c0.164-0.011,0.303,0.113,0.315,0.276l0.07,0.888l0.604-0.222
	c0.054-0.02,0.112-0.024,0.169-0.011l0.461,0.103c0.029,0.007,0.058,0.018,0.083,0.032l0.289,0.165l18.651-0.151l0.229-0.495
	c0.049-0.106,0.155-0.174,0.272-0.174h0.259l0.214-0.188l0.046-1.014c0.007-0.16,0.14-0.286,0.3-0.286h0.668
	c0.129,0,0.243,0.082,0.284,0.204l0.104,0.308c0.013,0.038,0.018,0.078,0.015,0.118l-0.038,0.518l0.176,0.102l0.043-0.031
	l0.092-0.701l0.117-0.363c0.041-0.125,0.144-0.2,0.293-0.204l3.332,0.102c0.162,0.005,0.291,0.138,0.291,0.3v0.205
	c0,0.132-0.085,0.244-0.203,0.284v0.955h0.271v-0.11c0-0.082,0.033-0.16,0.093-0.217c0.059-0.056,0.146-0.076,0.22-0.083
	l1.032,0.044l0.093-0.11v-0.565l-0.834-0.159c-0.153-0.029-0.258-0.17-0.243-0.325c0.016-0.153,0.145-0.27,0.299-0.27
	c0.001,0,0.002,0,0.003,0l5.384,0.05l0.567-0.188c0.029-0.01,0.06-0.015,0.09-0.015l3.129-0.052
	c0.056,0.001,0.157,0.029,0.215,0.086c0.035,0.035,0.062,0.077,0.076,0.123l7.255,0.099c0.086,0.001,0.168,0.039,0.224,0.104
	c0.057,0.065,0.082,0.152,0.069,0.237l-0.051,0.359c-0.019,0.136-0.128,0.241-0.264,0.256l-0.179,0.02l0.021,0.356l23.032,0.051
	l0.023-0.039l-0.029-4.694h-22.549v1.085c0,0.166-0.134,0.3-0.3,0.3h-7.255c-0.039,0.117-0.149,0.202-0.279,0.204l-3.076,0.052
	c-0.024,0.006-0.07-0.005-0.105-0.017l-0.67-0.239H92.25c-0.165,0-0.299-0.132-0.3-0.297l-0.051-5.795
	c0-0.033,0.005-0.065,0.015-0.096l0.016-0.047l-0.092-0.216c-0.192-0.228-0.49-0.367-0.909-0.423
	c-0.162-0.01-0.27,0.043-0.383,0.139L90.269,5.59l-0.973,1.372c0.049-0.024,0.103-0.035,0.16-0.03l1.182,0.103
	c0.144,0.012,0.258,0.125,0.272,0.269l0.051,0.513l0.17,0.536l0.117,0.118h0.336c0.166,0,0.3,0.134,0.3,0.3V10
	c0,0.07-0.024,0.138-0.069,0.192L91.559,10.5c-0.057,0.068-0.142,0.108-0.23,0.108h-3.486c-0.067,0-0.134-0.023-0.187-0.065
	l-0.258-0.205c-0.121-0.096-0.149-0.268-0.065-0.397l1.432-2.229l-1.548,2.183l-0.051,1.909c-0.004,0.163-0.137,0.292-0.3,0.292
	h-0.666c-0.156,0-0.286-0.12-0.299-0.275l-0.095-1.145L85.749,10.6l-0.451-0.045c-0.153-0.015-0.27-0.145-0.27-0.298V9.814
	L84.937,9.63l-18.73-0.304l-0.115,0.059c0,0.149-0.109,0.276-0.258,0.297l-0.102,0.015v0.099c0,0.089-0.04,0.174-0.108,0.231
	c-0.069,0.057-0.153,0.08-0.248,0.064l-0.731-0.14l-0.039,1.136c-0.005,0.145-0.113,0.266-0.257,0.287l-0.359,0.052
	c-0.087,0.012-0.176-0.014-0.243-0.073c-0.065-0.059-0.103-0.144-0.1-0.233l0.1-3.265l-0.176-0.4l-0.458-0.772l-0.761-0.448
	L61.886,6.14L44.837,4.298L44.621,4.3l-0.424,0.17l-0.345,0.257l-0.128,0.171l-3.422,5.466c-0.048,0.078-0.13,0.129-0.221,0.139
	c-0.091,0.008-0.182-0.022-0.246-0.087l-0.014-0.014h-0.909v0.315c0,0.161-0.127,0.293-0.288,0.3l-1.332,0.052
	c-0.101,0-0.195-0.044-0.254-0.122c-0.048,0.102-0.151,0.173-0.271,0.173H35.77l0.015,0.128c0.01,0.085-0.018,0.17-0.074,0.234
	c-0.058,0.063-0.139,0.1-0.224,0.1h-0.001L24.151,11.53c-0.123,0-0.233-0.076-0.278-0.189l-0.068-0.171L9.896,11.018
	c-0.071,0-0.137-0.026-0.188-0.069c-0.012,0.024-0.026,0.047-0.045,0.068c-0.057,0.065-0.14,0.103-0.227,0.103H4.564
	c-0.063,0-0.122-0.02-0.171-0.053l-0.04,5.298l0.097-0.193c0.04-0.079,0.111-0.136,0.196-0.157l0.205-0.051
	c0.023-0.006,0.048-0.009,0.072-0.009h3.795l0.277,0.06c0.077,0.019,0.144,0.068,0.185,0.137l0.154,0.257
	c0.058,0.095,0.058,0.214,0,0.309l-0.154,0.257c-0.013,0.021-0.028,0.042-0.046,0.059L8.98,17.186
	c-0.057,0.056-0.132,0.086-0.211,0.086H4.924c-0.059,0-0.116-0.017-0.165-0.049l-0.154-0.102c-0.026-0.017-0.05-0.039-0.069-0.063
	l-0.185-0.231l-0.044,5.751l0.009-0.184c0.006-0.112,0.073-0.212,0.176-0.259l6.104-2.768c0.094-0.042,0.201-0.034,0.286,0.021
	c0.086,0.055,0.138,0.15,0.138,0.252v1.918l4.361-2.737c0.093-0.059,0.207-0.062,0.305-0.009c0.095,0.053,0.154,0.153,0.154,0.263
	v0.726h0.836v-0.777c0-0.166,0.134-0.3,0.3-0.3h2.667l-0.045-2.36c-0.002-0.08,0.028-0.157,0.084-0.215
	c0.056-0.057,0.132-0.09,0.212-0.091l3.96-0.048v-0.165c0-0.163,0.13-0.296,0.294-0.3l4.776-0.101l1.153-0.866
	c0.052-0.039,0.114-0.06,0.18-0.06h5.178c0.152,0,0.281,0.114,0.298,0.266l0.023,0.207l1.024,0.041
	c0.159,0.006,0.285,0.135,0.288,0.294l0.042,2.324c0.053-0.036,0.108-0.048,0.182-0.054l1.641,0.052
	c0.043,0.001,0.086,0.012,0.124,0.031l0.615,0.308c0.033,0.017,0.063,0.039,0.087,0.066l0.564,0.615
	c0.025,0.027,0.046,0.06,0.059,0.094l0.357,0.922c0.018,0.045,0.024,0.093,0.019,0.141l-0.102,0.923l-0.168,0.525L34.153,32.26
	l6.595,1.543l0.008-0.017l-0.015-0.011c-0.029-0.022-0.054-0.049-0.073-0.08l-0.258-0.409c-0.037-0.059-0.053-0.129-0.044-0.198
	l0.053-0.41c0.005-0.035,0.015-0.068,0.031-0.099l2.323-4.491c0.016-0.023,0.034-0.044,0.056-0.063l0.359-0.307
	c0.233-0.124,0.425-0.213,0.591-0.281l-0.317-0.376c-0.078-0.093-0.093-0.225-0.036-0.333l1.127-2.153
	c0.014-0.027,0.032-0.052,0.054-0.073l0.309-0.308c0.218-0.169,0.468-0.241,0.774-0.241h0.258l1.365-0.133l-0.469-0.351
	c-0.487-0.445-0.744-0.926-0.785-1.448c-0.08-0.896,0.24-1.593,0.953-2.068l0.938-0.341c0.112-0.04,0.238-0.009,0.32,0.079
	c0.081,0.088,0.103,0.216,0.054,0.325l-0.205,0.462c-0.146,0.354-0.209,0.667-0.182,0.922c0.016,0.221,0.081,0.43,0.198,0.631
	c-0.031-0.158-0.039-0.314-0.025-0.471c0.037-0.421,0.207-0.879,0.505-1.362l0.506-0.517c0.057-0.056,0.133-0.087,0.212-0.087h1.947
	c0.036,0,0.072,0.006,0.105,0.019l0.41,0.154c0.037,0.014,0.071,0.035,0.1,0.062l0.873,0.819c0.031,0.029,0.057,0.065,0.072,0.105
	c0.267,0.651,0.303,1.258,0.106,1.806l-0.393,0.603v0.526c0,0.048-0.011,0.093-0.031,0.133l0.546,0.076l0.517-0.094
	C53.603,23.803,53.621,23.802,53.639,23.802z M49.376,23.392h2.578v-0.315c0-0.059,0.018-0.117,0.05-0.167l0.41-0.615
	c0.11-0.331,0.085-0.76-0.105-1.251l-0.781-0.733l-0.303-0.114h-1.769l-0.375,0.375c-0.205,0.347-0.345,0.717-0.374,1.044
	c-0.027,0.306,0.072,0.609,0.303,0.926l0.418,0.362c0.067,0.06,0.104,0.147,0.101,0.237s-0.049,0.174-0.121,0.228L49.376,23.392z
	 M47.738,23.392h0.939l-0.503-0.387c-0.522-0.479-0.797-0.994-0.835-1.549c-0.033-0.303,0.021-0.657,0.163-1.048l-0.226,0.08
	c-0.456,0.315-0.682,0.813-0.621,1.485c0.029,0.375,0.216,0.713,0.57,1.037L47.738,23.392z M5.014,16.673h3.633l0.08-0.106
	l-0.08-0.02l-3.728,0.03L5.014,16.673z M7.689,10.521h1.361L8.99,10.505L7.689,10.521z M88.002,10.008h3.186l0.097-0.116V9.069
	h-0.161c-0.08,0-0.156-0.032-0.213-0.088l-0.256-0.258C90.62,8.688,90.595,8.646,90.58,8.6l-0.205-0.666L90.34,7.61l-0.756-0.065
	L88.002,10.008z M91.174,12.095h-3.281c-0.166,0-0.3-0.134-0.3-0.3v-0.513c0-0.166,0.134-0.3,0.3-0.3h3.436
	c0.095,0,0.185,0.045,0.241,0.121c0.057,0.076,0.073,0.175,0.046,0.266l-0.154,0.513C91.423,12.008,91.307,12.095,91.174,12.095z
	 M45.588,10.248c-0.079,0-0.155-0.031-0.212-0.087l-0.309-0.308c-0.086-0.085-0.111-0.214-0.065-0.326l0.82-2
	c0.011-0.026,0.025-0.051,0.043-0.074l0.205-0.256l0.485-0.487c0.025-0.025,0.056-0.046,0.088-0.061l0.564-0.256
	c0.039-0.018,0.081-0.026,0.124-0.026h14.717c0.06,0,0.118,0.018,0.168,0.051l0.554,0.354c0.479,0.387,0.707,0.879,0.707,1.484
	c0,0.717-0.252,1.25-0.75,1.583l-0.443,0.224l-0.266,0.074l-16.429,0.11C45.589,10.248,45.589,10.248,45.588,10.248z M45.633,9.569
	l0.078,0.078l16.232-0.101l0.134-0.043l0.35-0.183c0.293-0.199,0.451-0.554,0.451-1.065c0-0.421-0.149-0.748-0.456-0.997
	l-0.465-0.292H47.396l-0.455,0.207l-0.58,0.62L45.633,9.569z"/>
<rect id="sliceCopy_x5F_42_1_" x="136.197" fill="none" width="106.639" height="40"/>
<rect id="sliceCopy_x5F_41_1_" fill="none" width="136.197" height="40"/>
</svg>
