<?xml version="1.0" encoding="utf-8"?>
<!-- Generator: Adobe Illustrator 15.1.0, SVG Export Plug-In  -->
<!DOCTYPE svg PUBLIC "-//W3C//DTD SVG 1.1//EN" "http://www.w3.org/Graphics/SVG/1.1/DTD/svg11.dtd" [
	<!ENTITY ns_flows "http://ns.adobe.com/Flows/1.0/">
]>
<svg version="1.1"
	 xmlns="http://www.w3.org/2000/svg" xmlns:xlink="http://www.w3.org/1999/xlink" xmlns:a="http://ns.adobe.com/AdobeSVGViewerExtensions/3.0/"
	 x="0px" y="0px" width="103px" height="40px" viewBox="0.707 0 103 40" enable-background="new 0.707 0 103 40"
	 xml:space="preserve">
<defs>
</defs>
<path d="M9.171,30.3c-0.343,0-0.75-0.096-1.282-0.301c-1.161-0.448-2.272-1.731-3.166-2.763l-0.237-0.274
	c-0.928-1.058-0.823-2.658-0.723-4.206c0.029-0.451,0.059-0.893,0.059-1.307c0-1.198-0.032-2.351-0.065-3.5l-0.009-0.332
	c-0.008-0.224-0.006-0.45-0.003-0.677l0.003-0.329c0-0.397,0.514-0.397,0.927-0.397c0.236,0,0.489,0.01,0.665,0.017
	c0.088,0.003,0.155,0.006,0.188,0.006c0.407,0,0.548,0.137,0.668,0.29c0.039,0.051,0.062,0.079,0.126,0.111
	c0.161,0.08,0.315,0.161,0.467,0.24c0.825,0.432,1.515,0.794,2.647,0.652c1.146-0.141,2.328-0.567,3.371-0.943l0.473-0.168
	c0.723-0.255,1.47-0.519,2.068-0.847c0.18-0.098,0.373-0.241,0.573-0.388c0.408-0.298,0.83-0.607,1.266-0.696
	c0.381-0.077,0.757-0.362,1.121-0.639c0.253-0.192,0.492-0.373,0.744-0.499c0.324-0.162,0.646-0.345,0.972-0.531
	c0.368-0.209,0.742-0.423,1.134-0.614c0.329-0.161,0.678-0.314,1.029-0.469c0.435-0.191,0.875-0.385,1.291-0.599
	c0.478-0.246,1.024-0.423,1.603-0.611c0.493-0.161,1.003-0.327,1.477-0.54c0.025-0.011,0.052-0.019,0.079-0.023
	c1.028-0.152,2.151-0.224,3.535-0.224c1.119,0,2.264,0.048,3.37,0.094c1.112,0.046,2.163,0.09,3.195,0.09
	c0.212,0,0.568-0.033,1.007-0.073C38.481,9.783,39.401,9.7,40.291,9.7c1.057,0,2.455,0.099,2.897,0.895
	c0.259-0.008,0.644,0.034,1.009,0.077c0.282,0.033,0.553,0.066,0.732,0.066l23.021,0.015c5.193,0.003,10.516,0.013,15.836,0.022
	c5.204,0.009,10.406,0.019,15.482,0.022c0.166,0,0.3,0.134,0.3,0.3v3.66c0,0.171-0.134,0.307-0.317,0.3
	c0.01,0,0.021,0.001,0.031,0.001c0.16,0.007,0.286,0.139,0.286,0.3v3.729c0,0.081-0.032,0.158-0.09,0.214
	c-0.059,0.057-0.142,0.077-0.217,0.085c-0.184-0.004-0.354-0.011-0.512-0.019c-0.737-0.03-1.18-0.067-1.679,0.384
	c-0.118,0.106-0.233,0.294-0.346,0.475c-0.152,0.247-0.296,0.479-0.496,0.62c-0.729,0.506-1.817,0.57-2.685,0.57
	c-0.425,0-0.861-0.018-1.286-0.035c-0.396-0.016-0.781-0.032-1.139-0.032l-12.813,0.02c-0.157,0-0.497-0.015-0.946-0.035
	c-0.847-0.038-2.125-0.095-3.268-0.095c-1.892,0-2.329,0.161-2.425,0.218c-0.048,0.109-0.155,0.165-0.281,0.181l-1.744-0.034
	c-0.15-0.003-0.243-0.068-0.294-0.123c-0.102-0.108-0.109-0.24-0.107-0.327c-0.238-0.078-0.463-0.19-0.681-0.298
	c-0.26-0.13-0.506-0.252-0.731-0.294c-0.752-0.141-1.623-0.21-2.663-0.21c-0.95,0-1.935,0.056-2.886,0.11
	c-0.95,0.054-1.847,0.105-2.712,0.105c-0.129,0-0.341,0.018-0.604,0.04c-0.438,0.036-1.038,0.085-1.623,0.085
	c-0.577,0-2.271,0-2.445-1.053c-0.053-0.006-0.13-0.01-0.24-0.01c-0.608,0-1.624,0.139-2.018,0.202
	c-0.007,0.065-0.03,0.138-0.087,0.206c-0.127,0.152-0.345,0.193-0.635,0.199c0.001,0,0.001,0.001,0.001,0.001
	c0.022,0.042,0.036,0.091,0.036,0.143c0,0.167-0.134,0.286-0.308,0.3c-0.005,0-0.01,0-0.014,0l-1.676-0.034
	c-0.194-0.004-0.304-0.089-0.362-0.16c-0.079-0.096-0.1-0.204-0.101-0.299c-0.471-0.067-1.151-0.036-1.773,0.004
	c-0.348,0.023-0.687,0.044-0.996,0.044h-4.549c-0.134,0-0.272-0.005-0.413-0.011c-0.138-0.006-0.277-0.012-0.415-0.012
	c-0.359,0-0.605,0.043-0.8,0.14c-0.237,0.118-0.567,0.367-0.858,0.587c-0.498,0.376-0.791,0.589-1.029,0.606
	c-0.849,0.061-1.696,0.273-2.34,0.451c-1.776,0.493-3.51,1.324-5.15,2.469c-1.483,1.035-3.285,1.628-4.941,1.628
	c-1.06,0-2.036-0.231-2.903-0.686c-0.75-0.395-1.247-0.98-1.807-1.795c-0.158-0.232-0.303-0.478-0.445-0.721
	c-0.479-0.816-0.892-1.521-1.708-1.521c-0.238,0-0.513,0.059-0.814,0.175l-0.111,0.038c-0.096,0.037-0.199,0.021-0.28-0.037
	c-0.042-0.03-0.074-0.069-0.096-0.113c-2.405,1.211-4.701,3.25-6.35,5.651c-0.536,0.78-0.886,1.38-1.039,1.783
	C10.437,29.504,10.138,30.3,9.171,30.3z M4.345,16.825v0.124c-0.003,0.217-0.006,0.434,0.002,0.65l0.01,0.334
	c0.032,1.155,0.064,2.313,0.064,3.517c0,0.426-0.029,0.882-0.06,1.346c-0.093,1.425-0.189,2.899,0.575,3.771l0.24,0.276
	c0.849,0.981,1.906,2.202,2.928,2.596c0.454,0.175,0.804,0.26,1.066,0.26c0.468,0,0.654-0.274,0.944-1.046
	c0.173-0.455,0.534-1.08,1.106-1.911c1.798-2.618,4.345-4.822,6.988-6.047c0.092-0.045,0.201-0.037,0.287,0.019
	c0.063,0.04,0.107,0.101,0.127,0.17c0.26-0.078,0.507-0.117,0.743-0.117c1.16,0,1.702,0.924,2.226,1.818
	c0.136,0.232,0.272,0.466,0.423,0.686c0.507,0.739,0.951,1.265,1.591,1.603c0.779,0.409,1.662,0.617,2.624,0.617
	c1.537,0,3.213-0.554,4.598-1.521c1.697-1.184,3.492-2.043,5.334-2.555c0.671-0.185,1.556-0.406,2.457-0.471
	c0.101-0.025,0.468-0.303,0.71-0.486c0.328-0.248,0.667-0.503,0.953-0.646c0.36-0.18,0.76-0.203,1.067-0.203
	c0.146,0,0.294,0.006,0.439,0.012c0.133,0.005,0.263,0.011,0.389,0.011h4.549c0.298,0,0.623-0.021,0.957-0.043
	c0.786-0.051,1.616-0.075,2.175,0.05c0.09,0.021,0.279,0.1,0.256,0.405l1.205,0.024c0.011-0.092,0.043-0.181,0.105-0.259
	c0.066-0.081,0.191-0.177,0.415-0.177c0.087,0,0.15-0.003,0.196-0.007c0.02-0.231,0.195-0.317,0.281-0.346
	c0.11-0.036,1.549-0.254,2.341-0.254c0.247,0,0.825,0,0.825,0.427c0,0.526,1.012,0.636,1.86,0.636c0.561,0,1.123-0.046,1.574-0.083
	c0.283-0.023,0.513-0.042,0.652-0.042c0.848,0,1.736-0.051,2.678-0.104c0.96-0.055,1.952-0.111,2.92-0.111
	c1.078,0,1.985,0.072,2.774,0.22c0.307,0.058,0.603,0.205,0.888,0.347c0.222,0.11,0.451,0.224,0.671,0.287
	c0.197,0.057,0.311,0.192,0.337,0.401l1.396,0.027c0.269-0.253,0.996-0.396,2.86-0.396c1.156,0,2.443,0.058,3.296,0.096
	c0.435,0.02,0.764,0.035,0.917,0.035l12.788-0.02c0.391,0,0.785,0.016,1.189,0.032c0.416,0.017,0.844,0.035,1.261,0.035
	c0.78,0,1.751-0.053,2.342-0.463c0.098-0.068,0.221-0.267,0.329-0.442c0.134-0.217,0.271-0.441,0.453-0.605
	c0.659-0.595,1.236-0.577,2.107-0.538c0.063,0.002,0.126,0.005,0.192,0.008v-3.13c-0.701-0.023-1.27-0.014-1.683-0.007l-0.408,0.005
	c-0.137,0-0.391,0-0.512-0.205c-0.116-0.198-0.009-0.391,0.095-0.576c0.04-0.072,0.089-0.158,0.138-0.262
	c0.05-0.105,0.155-0.171,0.271-0.171c0.37,0,0.743,0.006,1.128,0.013c0.313,0.005,0.636,0.011,0.971,0.013v-3.059
	c-4.982-0.004-10.082-0.013-15.184-0.022c-5.32-0.009-10.643-0.019-15.835-0.022L44.93,11.336c-0.197,0-0.493-0.033-0.802-0.069
	c-0.486-0.057-1.02-0.062-1.022-0.062c-0.078,0.027-0.17,0.021-0.244-0.02C42.789,11.146,42.73,11.08,42.71,11
	c-0.117-0.451-0.976-0.7-2.419-0.7c-0.862,0-1.767,0.082-2.493,0.148c-0.462,0.042-0.838,0.075-1.062,0.075
	c-1.045,0-2.15-0.046-3.22-0.09c-1.101-0.045-2.238-0.093-3.346-0.093c-1.316,0-2.432,0.069-3.406,0.211
	c-0.492,0.218-1.004,0.385-1.499,0.546c-0.555,0.181-1.079,0.351-1.514,0.574c-0.426,0.22-0.878,0.419-1.324,0.615
	c-0.344,0.151-0.685,0.301-1.007,0.458c-0.38,0.186-0.743,0.393-1.1,0.597c-0.337,0.191-0.668,0.38-1.002,0.546
	c-0.201,0.101-0.419,0.266-0.649,0.44c-0.397,0.302-0.85,0.645-1.364,0.749c-0.307,0.063-0.675,0.332-1.03,0.592
	c-0.223,0.163-0.433,0.317-0.639,0.43c-0.642,0.352-1.412,0.624-2.158,0.887l-0.469,0.167c-1.072,0.387-2.288,0.825-3.5,0.975
	c-1.315,0.162-2.132-0.262-3-0.716c-0.148-0.077-0.299-0.156-0.456-0.234c-0.187-0.093-0.273-0.205-0.331-0.278
	c-0.035-0.042-0.068-0.06-0.195-0.06c-0.038,0-0.113-0.002-0.212-0.007C5.032,16.82,4.522,16.811,4.345,16.825z M97.055,15.029
	c-0.002,0.004-0.004,0.008-0.006,0.012l0.229-0.002c0.085-0.001,0.176-0.003,0.272-0.004C97.384,15.032,97.219,15.03,97.055,15.029z
	 M26.581,25.227c-0.89,0-1.787-0.249-2.462-0.683c-0.619-0.395-1.042-1.132-1.052-1.833c-0.009-0.608,0.283-1.144,0.822-1.51
	c0.092-0.063,0.212-0.069,0.31-0.017s0.159,0.154,0.159,0.265c0,0.142-0.004,0.297-0.009,0.459
	c-0.019,0.619-0.044,1.467,0.253,1.772c0.017,0.018,0.038,0.037,0.065,0.055c0.147-0.941,0.805-2.715,0.813-2.736
	c0.036-0.084,0.108-0.148,0.197-0.172c0.276-0.075,0.607-0.11,1.043-0.11c0.194,0,0.391,0.006,0.584,0.013
	c0.18,0.006,0.355,0.012,0.522,0.012l0.684-0.007c0.826,0,1.667,0.087,2.067,1.123c0.23,0.6,0.149,1.201-0.228,1.693
	c-0.62,0.806-1.886,1.29-2.585,1.507C27.404,25.17,27.006,25.227,26.581,25.227z M25.112,24.366
	c0.789,0.289,1.754,0.341,2.477,0.118c0.509-0.157,1.749-0.599,2.286-1.299c0.253-0.329,0.301-0.704,0.144-1.113
	c-0.242-0.627-0.679-0.738-1.507-0.738l-0.684,0.006c-0.174,0-0.356-0.006-0.543-0.012c-0.486-0.015-0.985-0.019-1.305,0.043
	c-0.201,0.553-0.701,2.151-0.757,2.586c0.024,0.043,0.039,0.094,0.039,0.147C25.263,24.217,25.202,24.314,25.112,24.366z
	 M23.74,22.283c-0.051,0.131-0.075,0.271-0.073,0.42c0.003,0.188,0.05,0.383,0.131,0.569C23.743,22.963,23.735,22.621,23.74,22.283z
	"/>
<rect id="sliceCopy_x5F_55_1_" x="103.27" fill="none" width="108.338" height="40"/>
<rect id="sliceCopy_x5F_54_1_" fill="none" width="103.27" height="40"/>
</svg>
