<?xml version="1.0" encoding="utf-8"?>
<!-- Generator: Adobe Illustrator 15.1.0, SVG Export Plug-In  -->
<!DOCTYPE svg PUBLIC "-//W3C//DTD SVG 1.1//EN" "http://www.w3.org/Graphics/SVG/1.1/DTD/svg11.dtd" [
	<!ENTITY ns_flows "http://ns.adobe.com/Flows/1.0/">
]>
<svg version="1.1"
	 xmlns="http://www.w3.org/2000/svg" xmlns:xlink="http://www.w3.org/1999/xlink" xmlns:a="http://ns.adobe.com/AdobeSVGViewerExtensions/3.0/"
	 x="0px" y="0px" width="88px" height="40px" viewBox="0.769 0 88 40" enable-background="new 0.769 0 88 40" xml:space="preserve">
<defs>
</defs>
<path d="M8.539,28.638c-0.331,0-0.602-0.155-0.784-0.447L5.21,24.12c-0.193-0.311-0.425-0.594-0.67-0.893l-0.236-0.291
	c-0.385-0.485-0.864-1.088-0.439-1.937c0.277-0.554,0.677-0.995,1.063-1.422l0.172-0.19c0.31-0.346,0.558-0.728,0.82-1.132
	l0.225-0.344c0.483-0.725,0.967-0.889,1.804-0.965c0.554-0.05,1.126-0.15,1.654-0.288c1.333-0.349,2.551-0.879,3.84-1.441
	c0.358-0.156,0.718-0.313,1.082-0.466c3.445-1.453,6.35-1.969,8.984-1.618c1.231,0.164,2.545,0.326,3.879,0.347l0.469,0.003
	c0.489,0,0.974-0.012,1.466-0.036l0.287-0.012c0.208-0.009,0.415-0.017,0.622-0.034l0.415-0.035c0.07-0.149,0.205-0.19,0.271-0.201
	c0.017-0.003,0.084-0.009,0.101-0.009c0.104,0,0.181,0.03,0.239,0.066c0.052-0.06,0.122-0.096,0.19-0.113
	c0.18-0.046,0.287-0.042,0.406,0.028c0.121-0.162,0.395-0.192,0.575-0.063c0.086-0.12,0.211-0.139,0.279-0.139
	c0.079,0,0.146,0.025,0.202,0.055c0.015-0.032,0.035-0.064,0.063-0.095c0.066-0.073,0.208-0.159,0.454-0.108
	c0.054-0.059,0.158-0.116,0.23-0.126c0.099-0.015,0.154-0.015,0.24,0.013c0.11-0.201,0.356-0.217,0.531-0.108
	c0.104-0.12,0.243-0.175,0.484-0.133c0.024,0.004,0.048,0.012,0.069,0.021c0.136-0.113,0.377-0.133,0.511,0.017
	c0.056-0.024,0.127-0.062,0.168-0.083l0.111-0.057c0.181-0.084,0.337-0.184,0.478-0.305c0.172-0.147,0.356-0.166,0.497-0.166
	l0.131,0.302v-0.3l0.199-0.088c0.405-0.239,0.916-0.504,1.447-0.372c0.211,0.053,0.406,0.146,0.595,0.237
	c0.318,0.154,0.586,0.248,0.909,0.205c0.249-0.032,0.501-0.04,0.682,0.04c0.307,0.134,0.565,0.333,0.815,0.526l0.159,0.122
	c0.027,0.012,0.146,0.024,0.211,0.03c0.061,0.006,0.117,0.012,0.162,0.021l4.052,0.771c3.292,0.626,6.031,0.787,8.4,0.495
	c1.003-0.124,1.93-0.425,3.098-1.01c0.14-0.07,0.286-0.156,0.437-0.243c0.392-0.228,0.797-0.464,1.221-0.535
	c0.216-0.038,0.384-0.065,0.544-0.065c0.408,0,0.608,0.184,0.705,0.338c0.086,0.137,0.157,0.287,0.229,0.438
	c0.105,0.223,0.205,0.434,0.354,0.581c0.047,0.048,0.079,0.054,0.103,0.054c0.087,0,0.216-0.092,0.3-0.213
	c0.051-0.073,0.052-0.308-0.017-0.458c-0.042-0.093-0.034-0.201,0.021-0.287c0.055-0.085,0.15-0.137,0.252-0.137l0.076-0.001
	c0.001,0,0.001,0,0.002,0c0.351,0,0.466,0.124,0.588,0.368c0.047,0.094,0.099,0.185,0.151,0.276l0.153,0.277
	c0.104,0.195,0.179,0.337,0.327,0.428c0.062,0.039,0.194,0.08,0.339,0.08c0.103,0,0.229-0.023,0.248-0.089
	c0.054-0.175,0.001-0.568-0.099-0.739c-0.059-0.1-0.055-0.226,0.012-0.322c0.066-0.096,0.183-0.145,0.297-0.125
	c0.502,0.084,0.665,0.346,0.838,0.623l0.103,0.159c0.052,0.078,0.095,0.149,0.137,0.217c0.112,0.186,0.188,0.309,0.365,0.433
	c0.05,0.034,0.078,0.034,0.088,0.034c0.04,0,0.131-0.027,0.298-0.211l0,0c-0.021,0-0.034-0.155-0.222-0.528
	c-0.049-0.098-0.041-0.214,0.021-0.304c0.062-0.09,0.156-0.141,0.277-0.128c0.525,0.053,0.695,0.381,0.86,0.699l0.086,0.171
	c0.044,0.093,0.178,0.376,0.259,0.398l0.681-0.045l0.053-0.112c0.023-0.085-0.102-0.384-0.196-0.456
	c-0.105-0.081-0.146-0.221-0.099-0.345c0.047-0.124,0.159-0.196,0.302-0.193c0.538,0.038,0.673,0.168,0.889,0.628l0.056,0.121
	c0.09,0.201,0.191,0.428,0.33,0.51c0.127,0.077,0.412,0.248,0.551,0.154c0.04-0.031,0.201-0.151-0.144-0.685
	c-0.063-0.096-0.064-0.22-0.005-0.318c0.06-0.098,0.174-0.152,0.283-0.144c0.505,0.045,0.646,0.297,0.796,0.563l0.064,0.114
	c0.033,0.057,0.065,0.118,0.099,0.181c0.093,0.174,0.188,0.354,0.31,0.437c0.063,0.042,0.248,0.101,0.436,0.101
	c0.096,0,0.151-0.016,0.169-0.026c0.023-0.019,0.057-0.082,0.071-0.168c0.034-0.204-0.047-0.449-0.14-0.577
	c-0.073-0.1-0.077-0.235-0.01-0.34c0.068-0.104,0.195-0.155,0.314-0.13c0.569,0.121,0.687,0.315,0.897,0.742l0.036,0.072
	c0.102,0.203,0.305,0.441,0.481,0.567c0.083,0.067,0.149,0.079,0.194,0.079c0.109,0,0.23-0.064,0.254-0.208
	c0.021-0.13-0.069-0.316-0.254-0.522c-0.088-0.098-0.102-0.243-0.033-0.355c0.069-0.112,0.204-0.166,0.33-0.136
	c0.518,0.13,0.655,0.343,0.871,0.739c0.127,0.23,0.245,0.448,0.438,0.544c0.25,0.125,0.364-0.099,0.376-0.14
	c0.015-0.053,0.045-0.237-0.16-0.355c-0.123-0.071-0.18-0.22-0.134-0.355s0.179-0.216,0.322-0.202l8.649,1.096
	c0.112,0.015,0.207,0.091,0.245,0.198c0.037,0.107,0.012,0.226-0.066,0.308l-5.936,6.196c-0.265,0.275-0.623,0.363-0.94,0.44
	c-0.089,0.022-0.177,0.043-0.261,0.069l-2.139,0.659c-1.86,0.572-4.306,1.256-6.718,1.474l-4.938,0.445
	c-0.391,0.035-0.782,0.047-1.173,0.059l-0.697,0.026c-0.221,0.01-0.44,0.02-0.661,0.024c-0.043,0.001-0.109,0.008-0.186,0.016
	c-0.14,0.014-0.308,0.03-0.45,0.03l0,0c-0.2,0-0.334-0.031-0.433-0.101c-0.139-0.1-0.192-0.273-0.254-0.475
	c-0.021-0.066-0.038-0.131-0.059-0.17c-0.153-0.244-0.38-0.478-0.669-0.69c-0.381-0.313-0.855-0.5-1.464-0.58
	c-0.11-0.015-0.221-0.018-0.332-0.018l-0.255,0.002L41.94,22.69c-0.096,0-0.22-0.01-0.357-0.021
	c-0.163-0.013-0.348-0.028-0.531-0.028c-0.621,0-0.659,0.179-0.671,0.238c-0.297,1.412-0.616,2.816-0.944,4.221
	c-0.181,0.776-0.634,0.992-1.305,1.088c-0.507,0.073-1.051,0.024-1.574-0.027c-0.147-0.014-0.294-0.028-0.438-0.039
	c-0.191-0.014-0.775-0.057-0.899-0.576c-0.008-0.543,0.351-0.927,0.639-1.235L36,26.158c0.433-0.488,0.717-1.013,1.019-1.598
	c0.079-0.155,0.072-0.343,0.064-0.562c-0.003-0.07-0.005-0.142-0.005-0.214c0-0.09-0.006-0.18-0.011-0.27l-0.002-0.034
	c-0.041-0.023-0.082-0.057-0.122-0.103c-0.107-0.125-0.217-0.267-0.328-0.412c-0.257-0.334-0.522-0.68-0.813-0.868
	c-0.855-0.552-1.951-1.065-3.071-0.723c-1.216,0.374-1.771,1.417-2.155,2.389l-0.037,0.096c-0.187,0.485-0.497,1.296-1.074,1.296
	c-0.244,0-0.468-0.147-0.664-0.437c-0.368-0.542-0.696-1.089-1.076-1.745c-0.605-1.046-2.363-1.774-3.419-1.365
	c-0.42,0.163-0.823,0.467-1.213,0.762c-0.177,0.133-0.351,0.265-0.525,0.384l-0.121,0.085c-0.271,0.193-0.586,0.416-1.051,0.342
	c-0.193-0.032-0.38-0.115-0.561-0.195c-0.102-0.045-0.202-0.091-0.298-0.121c-0.608-0.19-1.181-0.235-1.842-0.287l-0.163-0.013
	c-0.001,0-0.003,0-0.005,0c-0.183,0-0.389,0.066-0.57,0.125c-0.108,0.035-0.213,0.068-0.309,0.091
	c-0.387,0.095-0.763,0.299-1.116,0.607l-0.218,0.196c-0.259,0.236-0.526,0.48-0.852,0.649c-0.257,0.133-0.533,0.206-0.8,0.276
	c-0.097,0.025-0.192,0.05-0.285,0.078c-0.237,0.072-0.479,0.122-0.721,0.171c-0.365,0.075-0.71,0.146-1.036,0.294
	c-0.676,0.359-1.182,1.026-1.672,1.67l-0.086,0.112c-0.083,0.111-0.169,0.244-0.259,0.382c-0.292,0.451-0.623,0.962-1.108,1.15
	l-0.121,0.048C9.119,28.521,8.828,28.638,8.539,28.638z M21.876,13.625c-2.113,0-4.442,0.549-7.12,1.678
	c-0.361,0.152-0.719,0.308-1.075,0.463c-1.253,0.546-2.549,1.111-3.927,1.471c-0.561,0.146-1.166,0.252-1.752,0.306
	c-0.713,0.065-1.009,0.175-1.358,0.701l-0.222,0.337c-0.264,0.406-0.535,0.825-0.876,1.206L5.372,19.98
	c-0.376,0.415-0.73,0.807-0.971,1.288c-0.229,0.457-0.054,0.759,0.372,1.295l0.23,0.284c0.246,0.301,0.501,0.612,0.716,0.956
	l2.544,4.07c0.085,0.137,0.172,0.165,0.275,0.165c0.174,0,0.397-0.089,0.613-0.176l0.127-0.05c0.304-0.118,0.579-0.542,0.821-0.917
	c0.099-0.152,0.193-0.297,0.285-0.419l0.086-0.113c0.528-0.696,1.076-1.416,1.885-1.846c0.404-0.184,0.799-0.265,1.18-0.343
	c0.225-0.046,0.449-0.092,0.67-0.158c0.099-0.03,0.201-0.057,0.304-0.084c0.246-0.065,0.479-0.126,0.677-0.229
	c0.255-0.133,0.493-0.35,0.724-0.561l0.228-0.205c0.427-0.372,0.888-0.62,1.369-0.738c0.083-0.02,0.173-0.049,0.267-0.08
	c0.226-0.072,0.481-0.154,0.725-0.154c0.008,0,0.075,0.002,0.083,0.003l0.161,0.013c0.669,0.052,1.301,0.102,1.975,0.313
	c0.115,0.036,0.238,0.09,0.362,0.145c0.146,0.065,0.296,0.132,0.412,0.151c0.217,0.031,0.36-0.063,0.607-0.238l0.131-0.092
	c0.167-0.113,0.333-0.239,0.501-0.367c0.423-0.32,0.86-0.65,1.358-0.843c1.335-0.515,3.405,0.33,4.155,1.624
	c0.373,0.644,0.695,1.181,1.053,1.708c0.107,0.158,0.169,0.174,0.17,0.174c0.05-0.011,0.209-0.121,0.512-0.911l0.039-0.103
	c0.411-1.039,1.07-2.29,2.538-2.741c0.323-0.1,0.652-0.15,0.978-0.15c0.999,0,1.872,0.477,2.595,0.942
	c0.377,0.244,0.688,0.648,0.963,1.006c0.084,0.109,0.166,0.216,0.247,0.315c0.298,0.012,0.315,0.337,0.322,0.461l0.006,0.103
	c0.006,0.102,0.012,0.204,0.012,0.306l0.005,0.192c0.01,0.264,0.021,0.563-0.131,0.857c-0.207,0.403-0.419,0.799-0.68,1.179
	c0.055-0.055,0.116-0.106,0.187-0.152c0.521-0.345,1.33-0.089,1.555,0.484c0.138,0.358,0.006,0.646-0.1,0.877l-0.059,0.132
	c-0.018,0.043-0.045,0.082-0.08,0.112l-0.07,0.061l-0.001-0.001c-0.015,0.011-0.029,0.022-0.045,0.031
	c0.384-0.083,0.507-0.222,0.594-0.594c0.326-1.401,0.646-2.801,0.94-4.208c0.101-0.474,0.523-0.714,1.259-0.714
	c0.199,0,0.401,0.016,0.578,0.03c0.121,0.009,0.229,0.019,0.314,0.019l14.67,0.079l0.294-0.001c0.138,0,0.275,0.004,0.411,0.022
	c0.723,0.095,1.297,0.325,1.753,0.702c0.338,0.247,0.615,0.536,0.811,0.848c0.052,0.083,0.086,0.193,0.122,0.31
	c0.013,0.043,0.032,0.104,0.049,0.15c0.017,0.001,0.038,0.002,0.064,0.002l0,0c0.124,0,0.27-0.015,0.391-0.027
	c0.097-0.009,0.18-0.017,0.233-0.018c0.216-0.004,0.431-0.014,0.646-0.024l0.706-0.027c0.38-0.012,0.76-0.024,1.138-0.057
	l4.938-0.445c2.357-0.212,4.764-0.886,6.597-1.449l2.139-0.659c0.095-0.029,0.193-0.054,0.294-0.078
	c0.261-0.064,0.507-0.125,0.65-0.273l5.522-5.766l-7.411-0.939c0.021,0.126,0.016,0.258-0.021,0.391
	c-0.14,0.521-0.704,0.781-1.223,0.522c-0.25-0.125-0.415-0.326-0.543-0.528c-0.2,0.494-0.92,0.688-1.354,0.326
	c-0.222-0.156-0.472-0.442-0.622-0.716c0,0.001-0.001,0.002-0.001,0.004c-0.041,0.249-0.161,0.449-0.347,0.579
	c-0.378,0.214-0.957,0.117-1.257-0.086c-0.201-0.136-0.33-0.334-0.437-0.527c-0.058,0.163-0.166,0.283-0.282,0.371
	c-0.387,0.262-0.842,0.094-1.208-0.128c-0.202-0.121-0.336-0.312-0.439-0.505l-0.035,0.077c-0.06,0.134-0.149,0.336-0.487,0.358
	l-0.707,0.046c-0.001,0-0.002,0-0.002,0c-0.427,0-0.647-0.357-0.784-0.632c-0.02,0.042-0.045,0.08-0.076,0.115
	c-0.162,0.181-0.417,0.422-0.755,0.422c-0.149,0-0.294-0.047-0.43-0.141c-0.283-0.197-0.406-0.399-0.536-0.614
	c-0.037-0.061-0.077-0.126-0.123-0.196l-0.032-0.049c-0.004,0.108-0.019,0.21-0.045,0.296c-0.099,0.321-0.405,0.513-0.821,0.513
	c-0.239,0-0.483-0.063-0.654-0.168c-0.287-0.176-0.423-0.432-0.543-0.658l-0.104-0.189c-0.023,0.077-0.057,0.148-0.101,0.212
	c-0.157,0.228-0.448,0.472-0.793,0.472c-0.195,0-0.378-0.079-0.527-0.229c-0.221-0.22-0.348-0.49-0.471-0.75
	c-0.062-0.129-0.121-0.258-0.194-0.375c-0.052-0.082-0.356-0.05-0.564-0.012l-0.077,0.013c-0.316,0.053-0.674,0.261-1.019,0.462
	c-0.162,0.094-0.319,0.186-0.471,0.261c-1.232,0.617-2.217,0.937-3.292,1.069c-2.431,0.297-5.232,0.136-8.585-0.5l-4.053-0.771
	c-0.029-0.005-0.068-0.009-0.11-0.013c-0.162-0.016-0.364-0.037-0.511-0.147l-0.165-0.126c-0.232-0.178-0.451-0.347-0.69-0.452
	c-0.04-0.017-0.215-0.014-0.364,0.006c-0.505,0.063-0.895-0.091-1.246-0.259c-0.168-0.082-0.328-0.158-0.479-0.196
	c-0.325-0.082-0.653,0.103-0.998,0.307l-0.158,0.092c-0.123,0.071-0.249,0.08-0.346,0.08l-0.131-0.002
	c-0.082,0-0.096,0.012-0.106,0.021c-0.182,0.156-0.383,0.285-0.614,0.393l-0.084,0.043c-0.2,0.106-0.486,0.232-0.698,0.142
	c-0.086,0.102-0.188,0.199-0.341,0.206c-0.057-0.001-0.106-0.01-0.152-0.034c-0.105,0.101-0.277,0.145-0.41,0.089
	c-0.012,0.016-0.024,0.03-0.039,0.044c-0.113,0.112-0.28,0.15-0.453,0.101c-0.056,0.049-0.138,0.089-0.202,0.098
	c-0.129,0.014-0.199,0.008-0.271-0.016c-0.027,0.028-0.061,0.051-0.1,0.07c-0.133,0.068-0.299,0.063-0.419,0.019
	c-0.132,0.167-0.458,0.202-0.629,0.114c-0.121,0.116-0.307,0.158-0.529,0.095c-0.02-0.005-0.049-0.016-0.083-0.032
	c-0.065,0.047-0.149,0.077-0.25,0.086c-0.109,0.023-0.215-0.021-0.283-0.052c-0.086,0.082-0.193,0.099-0.239,0.103l-0.563,0.047
	c-0.216,0.018-0.432,0.027-0.646,0.036l-0.283,0.013c-0.503,0.024-0.997,0.036-1.495,0.036l-0.479-0.004
	c-1.365-0.021-2.699-0.185-3.949-0.352C22.924,13.659,22.401,13.625,21.876,13.625z M35.822,27.47c0.027,0,0.117,0.039,0.342,0.055
	c0.148,0.011,0.299,0.026,0.451,0.041c0.185,0.018,0.371,0.036,0.558,0.048c-0.252-0.138-0.453-0.376-0.538-0.662
	c-0.072-0.24-0.049-0.479,0.057-0.688c-0.076,0.099-0.156,0.196-0.241,0.292l-0.152,0.166c-0.216,0.231-0.485,0.519-0.485,0.756
	C35.813,27.472,35.816,27.47,35.822,27.47z M37.628,26.294c-0.088,0-0.171,0.024-0.24,0.07c-0.168,0.11-0.228,0.25-0.179,0.415
	c0.073,0.247,0.417,0.481,0.708,0.285l0.051-0.09c0.097-0.21,0.129-0.299,0.086-0.41C37.981,26.377,37.788,26.294,37.628,26.294z"/>
<rect id="sliceCopy_x5F_22_1_" x="87.999" fill="none" width="88" height="40"/>
<rect id="sliceCopy_x5F_21_1_" fill="none" width="88" height="40"/>
</svg>
