<?xml version="1.0" encoding="utf-8"?>
<!-- Generator: Adobe Illustrator 15.1.0, SVG Export Plug-In  -->
<!DOCTYPE svg PUBLIC "-//W3C//DTD SVG 1.1//EN" "http://www.w3.org/Graphics/SVG/1.1/DTD/svg11.dtd" [
	<!ENTITY ns_flows "http://ns.adobe.com/Flows/1.0/">
]>
<svg version="1.1"
	 xmlns="http://www.w3.org/2000/svg" xmlns:xlink="http://www.w3.org/1999/xlink" xmlns:a="http://ns.adobe.com/AdobeSVGViewerExtensions/3.0/"
	 x="0px" y="0px" width="82px" height="40px" viewBox="0.866 0 82 40" enable-background="new 0.866 0 82 40" xml:space="preserve">
<defs>
</defs>
<path d="M38.196,35.3c-1.474,0-2.987-0.072-4.499-0.215L31.83,34.91c-0.747-0.071-0.708-0.64-0.686-0.98
	c0.007-0.104,0.016-0.217,0.012-0.339c-0.002-0.083-0.001-0.15,0-0.208c0-0.031,0.002-0.057,0.001-0.079
	c-0.015-0.002-0.043-0.015-0.088-0.031l-5.356-2.002c-0.066-0.024-0.139-0.057-0.213-0.092c-0.121-0.055-0.271-0.124-0.36-0.128
	c-0.028-0.001-0.116-0.01-0.235-0.021c-0.273-0.027-0.741-0.075-0.98-0.068c-0.28,0.481-0.762,1.216-1.534,1.216H5.407
	c-0.387,0-0.711-0.134-0.963-0.4c-0.727-0.764-0.643-2.451-0.586-3.567c0.012-0.238,0.022-0.446,0.022-0.607l0.002-1.505
	c0.004-1.446,0.007-2.892-0.018-4.338c-0.038-2.128-0.078-4.329-0.162-6.495c-0.019-0.452,0.063-0.756,0.254-0.957
	c0.264-0.274,0.666-0.274,1.021-0.274H23.64c0.368,0,0.749,0.016,1.135,0.032c0.387,0.016,0.778,0.033,1.166,0.033
	c0.54,0,0.972-0.032,1.359-0.102c1.423-0.254,2.81-0.368,4.494-0.368h13.91c0.021-0.199,0.013-0.57,0.008-0.812
	c-0.012-0.528-0.015-0.836,0.062-1.016c0.459-1.086,0.851-2.059,1.197-2.973c0.217-0.571,0.403-1.065,1.147-1.374
	c0.228-0.095,0.273-0.344,0.317-0.85c0.018-0.211,0.037-0.43,0.092-0.636c0.162-0.6,0.788-1.267,1.429-1.267
	c0.219,0,0.624,0.083,0.879,0.645c0.211,0.448,0.208,0.963,0.205,1.418l-0.001,0.145c0,0.057,0.005,0.122,0.011,0.189
	c0.013,0.181,0.028,0.385-0.021,0.565c-0.027,0.105-0.098,0.178-0.149,0.231c-0.038,0.039-0.064,0.067-0.064,0.083
	c0,0.042-0.005,0.115-0.012,0.203c-0.008,0.097-0.024,0.31-0.021,0.454h12.496c0.125-0.006,0.504-0.28,0.666-0.397
	c0.118-0.086,0.225-0.162,0.303-0.208c0.139-0.08,0.269-0.14,0.388-0.194c0.335-0.153,0.426-0.194,0.426-0.521
	c0-0.001,0-0.003,0-0.004c-0.083-0.027-0.182-0.091-0.245-0.236c-0.082-0.19-0.059-0.443-0.038-0.665
	c0.007-0.07,0.014-0.134,0.014-0.183c0-0.564,0.385-1.181,1.029-1.237c0.053-0.005,0.122-0.018,0.2-0.032
	c0.164-0.03,0.368-0.066,0.561-0.066c0.62,0,0.73,0.395,0.749,0.565c0.049,0.434,0.045,0.868,0.041,1.288l-0.002,0.335
	c0,0.518,0.04,0.84,0.158,1.276c0.133,0.504,0.157,0.504,0.562,0.504l0.368-0.008c0.275,0,0.499,0.058,0.765,0.344l1.376,1.486
	c0.117,0.126,0.243,0.25,0.37,0.377c0.591,0.588,1.261,1.254,1.261,2.214v3.798c0,0.045-0.006,0.116-0.014,0.201
	c-0.007,0.076-0.022,0.244-0.021,0.361l5.896,0c0.07,0,0.139,0.025,0.193,0.07c0.574,0.483,0.911,1.907,0.681,2.874
	c-0.135,0.567-0.459,0.938-0.911,1.043c-0.436,0.103-1.054,0.093-1.656,0.058c-0.231-0.014-0.457-0.027-0.668-0.027h-4.133
	c-0.028,0-0.055-0.003-0.079-0.008c0.291,0.334,0.578,0.711,0.711,1.163c0.117,0.397,0.031,0.854-0.044,1.258
	c-0.023,0.124-0.046,0.243-0.06,0.351c-0.147,1.18-0.244,2.088-0.315,2.946c-0.012,0.135-0.014,0.285-0.016,0.439
	c-0.006,0.349-0.012,0.744-0.12,1.068c-0.221,0.656-0.792,0.656-1.134,0.656l-0.125,0c-0.182,0-0.389,0.019-0.604,0.038
	c-0.254,0.022-0.518,0.045-0.771,0.045c-0.001,0-0.002,0-0.003,0c-0.345,0-1.375-0.003-1.572-1.035
	c-0.086-0.454-0.119-0.904-0.151-1.34c-0.038-0.52-0.074-1.011-0.193-1.507c0,0,0,0,0,0c-0.007,0-0.174-0.15-1.047-0.15
	c-0.447,0-0.909,0.039-1.187,0.062l-0.2,0.016c-0.146,0.057-0.495,0.653-0.519,0.829l-0.174,1.884
	c-0.185,1.992-1.136,3.846-2.542,4.96c-1.267,1.004-3.01,1.618-4.909,1.73l-2.043,0.12c-0.095,0.006-0.196,0.018-0.301,0.03
	c-0.337,0.041-0.698,0.063-0.957-0.013c-0.104-0.03-0.208-0.051-0.305-0.07c-0.372-0.075-0.935-0.188-0.877-0.928
	c0.021-0.296,0.108-0.592,0.193-0.878c0.039-0.131,0.077-0.261,0.106-0.385l0.475-1.965c0.021-0.086,0.05-0.179,0.08-0.274
	c0.069-0.221,0.148-0.472,0.091-0.617c-0.115-0.291-0.532-0.427-1.312-0.427c-0.211,0-0.423,0.009-0.621,0.018
	c-0.183,0.008-0.354,0.015-0.506,0.015l-0.271-0.005c-0.339,0-0.398,0.024-0.674,0.437c-0.214,0.319-0.587,0.588-0.917,0.825
	c-0.091,0.066-0.179,0.128-0.257,0.188c-2.727,2.093-5.688,4.045-8.874,4.154C39.121,35.292,38.66,35.3,38.196,35.3z M31.746,34.282
	c0.003,0,0.037,0.02,0.141,0.03l1.866,0.175c1.963,0.186,3.927,0.253,5.803,0.19c3.016-0.103,5.881-1.998,8.528-4.03
	c0.082-0.063,0.175-0.13,0.271-0.2c0.289-0.207,0.615-0.442,0.77-0.671c0.347-0.519,0.575-0.703,1.172-0.703l0.271,0.005
	c0.144,0,0.307-0.007,0.48-0.014c0.206-0.009,0.427-0.019,0.646-0.019c0.721,0,1.586,0.092,1.869,0.807
	c0.136,0.343,0.018,0.717-0.076,1.018c-0.026,0.082-0.051,0.16-0.068,0.233l-0.475,1.965c-0.032,0.133-0.073,0.273-0.115,0.415
	c-0.075,0.256-0.153,0.521-0.171,0.753c-0.015,0.196-0.016,0.211,0.397,0.294c0.113,0.023,0.232,0.047,0.354,0.083
	c0.17,0.05,0.461,0.024,0.719-0.007c0.117-0.014,0.23-0.027,0.336-0.033l2.043-0.12c1.777-0.105,3.4-0.674,4.571-1.602
	c1.281-1.015,2.147-2.713,2.317-4.545l0.174-1.887c0.03-0.307,0.532-1.333,1.078-1.369l0.189-0.015
	c0.285-0.024,0.764-0.064,1.235-0.064c0.692,0,1.504,0.069,1.631,0.61c0.13,0.542,0.17,1.082,0.208,1.603
	c0.032,0.438,0.063,0.852,0.143,1.272c0.063,0.328,0.254,0.547,0.985,0.547c0.235,0,0.481-0.022,0.718-0.042
	c0.234-0.021,0.459-0.04,0.656-0.04l0.125,0.3v-0.3c0.405,0,0.495-0.039,0.565-0.247c0.078-0.235,0.084-0.566,0.089-0.887
	c0.002-0.169,0.005-0.333,0.018-0.48c0.071-0.865,0.17-1.781,0.317-2.971c0.016-0.12,0.04-0.25,0.065-0.386
	c0.063-0.337,0.135-0.718,0.058-0.978c-0.124-0.426-0.459-0.797-0.782-1.157l-0.201-0.226c-0.106-0.123-0.096-0.307,0.023-0.417
	c0.273-0.254,0.462-0.395,0.65-0.395c0.217,0.004,0.317,0.172,0.372,0.271h4.015c0.222,0,0.459,0.013,0.702,0.027
	c0.541,0.032,1.117,0.045,1.484-0.042c0.227-0.053,0.383-0.254,0.465-0.599c0.176-0.736-0.08-1.817-0.413-2.206l-5.936,0
	c-0.113,0-0.218-0.046-0.295-0.13c-0.17-0.187-0.155-0.498-0.12-0.886c0.006-0.062,0.012-0.113,0.012-0.146v-3.798
	c0-0.711-0.527-1.234-1.085-1.789c-0.132-0.132-0.264-0.262-0.386-0.394l-1.375-1.484c-0.136-0.146-0.189-0.154-0.326-0.154
	l-0.139,0.003c-0.068,0.002-0.144,0.005-0.229,0.005c-0.768,0-0.965-0.28-1.142-0.949c-0.148-0.551-0.178-0.942-0.178-1.431
	l0.002-0.34c0.003-0.421,0.007-0.819-0.037-1.217c0.004-0.007-0.03-0.031-0.153-0.031c-0.148,0-0.314,0.031-0.454,0.057
	c-0.099,0.018-0.187,0.033-0.253,0.039c-0.334,0.029-0.483,0.392-0.483,0.64c0,0.064-0.007,0.148-0.016,0.239
	c-0.006,0.064-0.016,0.172-0.018,0.258c0.303,0.062,0.303,0.455,0.303,0.592c0,0.713-0.413,0.901-0.777,1.067
	c-0.103,0.047-0.215,0.098-0.333,0.166c-0.064,0.038-0.153,0.104-0.254,0.176c-0.4,0.289-0.729,0.51-1.018,0.51H50.597
	c-0.084,0-0.215-0.059-0.271-0.12c-0.169-0.183-0.157-0.522-0.121-0.981c0.006-0.068,0.011-0.124,0.011-0.156
	c0-0.261,0.152-0.417,0.233-0.501c0.023-0.052,0.013-0.208,0.003-0.333c-0.006-0.083-0.012-0.164-0.012-0.234V6.759
	c0.003-0.41,0.006-0.834-0.149-1.163C50.155,5.3,50.006,5.3,49.956,5.3c-0.305,0-0.741,0.422-0.849,0.822
	c-0.042,0.155-0.058,0.338-0.074,0.533c-0.043,0.493-0.097,1.106-0.685,1.352c-0.484,0.201-0.601,0.462-0.817,1.033
	c-0.35,0.921-0.743,1.901-1.205,2.995c-0.029,0.093-0.021,0.499-0.015,0.769c0.018,0.792,0.007,1.133-0.169,1.313
	c-0.057,0.058-0.18,0.111-0.261,0.111H31.794c-1.648,0-3.002,0.111-4.389,0.359c-0.423,0.076-0.889,0.111-1.465,0.111
	c-0.396,0-0.796-0.017-1.191-0.033c-0.377-0.016-0.75-0.032-1.109-0.032H4.978c-0.283,0-0.507,0.007-0.587,0.09
	c-0.039,0.041-0.103,0.162-0.088,0.517c0.084,2.173,0.124,4.377,0.162,6.509c0.024,1.45,0.021,2.9,0.019,4.35L4.48,27.601
	c0,0.169-0.011,0.388-0.023,0.638c-0.048,0.952-0.127,2.546,0.422,3.124c0.139,0.146,0.307,0.214,0.528,0.214H22.39
	c0.49,0,0.874-0.67,1.079-1.03c0.105-0.187,0.339-0.187,0.493-0.187c0.276,0,0.726,0.044,1.002,0.071
	c0.101,0.01,0.175,0.018,0.203,0.019c0.207,0.011,0.406,0.102,0.582,0.182c0.062,0.028,0.119,0.055,0.173,0.075l5.358,2.003
	c0.417,0.156,0.481,0.329,0.476,0.683c-0.001,0.05-0.002,0.109,0,0.18c0.005,0.143-0.004,0.276-0.013,0.398
	C31.736,34.078,31.725,34.241,31.746,34.282L31.746,34.282z M36.91,29.549L36.91,29.549c-0.534,0-1.046-0.183-1.565-0.559
	c-0.831-0.603-1.235-1.468-1.235-2.647c-0.007-0.077-0.023-0.189-0.04-0.307c-0.065-0.45-0.146-1.01,0.14-1.424
	c0.191-0.279,0.458-0.508,0.716-0.73c0.103-0.088,0.203-0.174,0.293-0.26c0.072-0.069,0.155-0.165,0.245-0.267
	c0.244-0.277,0.52-0.592,0.815-0.71c0.154-0.061,0.402-0.056,0.641-0.034c0.068,0.006,0.132,0.013,0.182,0.013h5.059
	c1.063,0,1.458,1.536,1.458,2.504c0,1.404-1.521,2.682-4.523,3.799c-0.15,0.056-0.297,0.113-0.438,0.168
	C38.062,29.329,37.499,29.549,36.91,29.549z M36.61,23.193c-0.081,0-0.108,0.009-0.109,0.01c-0.162,0.065-0.407,0.344-0.587,0.549
	c-0.103,0.118-0.199,0.227-0.282,0.306c-0.098,0.093-0.206,0.186-0.315,0.28c-0.229,0.196-0.465,0.399-0.612,0.615
	c-0.153,0.221-0.094,0.634-0.041,0.999c0.019,0.131,0.037,0.257,0.045,0.369c0.001,1.009,0.314,1.696,0.988,2.184
	c0.905,0.656,1.69,0.443,2.741,0.033c0.145-0.057,0.293-0.115,0.447-0.172c2.665-0.991,4.133-2.141,4.133-3.236
	c0-0.643-0.26-1.904-0.858-1.904h-5.059c-0.065,0-0.148-0.007-0.237-0.015C36.781,23.202,36.692,23.193,36.61,23.193z M57.47,28.857
	c-0.521,0-0.915-0.237-1.295-0.465c-0.261-0.157-0.508-0.305-0.802-0.39c-0.351-0.099-0.345-0.536-0.316-0.923
	c-0.079,0.001-0.158,0.005-0.216,0.008l-0.1,0.004h-1.145c-0.08,0-0.164-0.035-0.22-0.092c-0.109-0.11-0.123-0.248-0.118-0.735
	c-0.003-0.207-0.012-0.36-0.021-0.521c-0.045-0.732-0.095-1.562,0.313-2.176c0.625-0.716,1.502-0.825,2.275-0.92
	c0.134-0.017,0.268-0.033,0.397-0.052c0.145-0.021,0.265-0.031,0.368-0.031c0.538,0,0.729,0.271,0.994,0.645l0.057,0.079
	c0.224,0.311,0.519,0.542,0.832,0.786c0.399,0.312,0.812,0.634,1.09,1.143c0.373,0.686,0.446,1.382,0.213,2.015
	c-0.243,0.658-0.808,1.185-1.588,1.483C57.938,28.811,57.702,28.857,57.47,28.857z M55.648,27.46
	c0.322,0.109,0.593,0.272,0.835,0.417c0.49,0.295,0.905,0.502,1.49,0.276c0.617-0.236,1.058-0.637,1.239-1.13
	c0.172-0.465,0.111-0.991-0.177-1.52c-0.218-0.399-0.564-0.67-0.932-0.957c-0.333-0.26-0.677-0.528-0.95-0.91l-0.059-0.082
	c-0.246-0.347-0.286-0.392-0.505-0.392c-0.079,0-0.171,0.009-0.281,0.025c-0.134,0.02-0.272,0.037-0.411,0.054
	c-0.732,0.09-1.423,0.175-1.873,0.688c-0.272,0.415-0.229,1.138-0.189,1.776c0.011,0.168,0.021,0.33,0.023,0.48
	c0,0.003,0,0.081,0,0.084c-0.001,0.086-0.001,0.16-0.001,0.221h0.883c0.148-0.007,0.262-0.013,0.368-0.013
	c0.154,0,0.564,0,0.564,0.351c0,0.046-0.005,0.117-0.012,0.2C55.655,27.123,55.638,27.34,55.648,27.46z M66.42,17.958
	c-0.336,0-0.585-0.192-0.606-0.467l-0.146-1.803c-0.027-0.319,0.129-0.591,0.267-0.83c0.061-0.104,0.122-0.21,0.164-0.32
	c-0.007-0.057-0.133-0.138-0.278-0.156c-0.501-0.063-0.466-0.462-0.452-0.612c0.003-0.04,0.008-0.085,0.008-0.135
	c0-0.223,0-0.745,0.59-0.745c0.053,0,0.111,0.003,0.178,0.007c0.115,0.007,0.28-0.025,0.41,0.054
	c0.617,0.379,0.516,1.589,0.442,2.473c-0.016,0.19-0.03,0.351-0.03,0.458v1.638c0,0.155-0.089,0.293-0.238,0.37
	C66.616,17.946,66.499,17.958,66.42,17.958z M66.408,15.236c-0.084,0.149-0.153,0.289-0.144,0.402l0.101,1.235v-0.991
	c0-0.119,0.014-0.297,0.032-0.508C66.4,15.333,66.404,15.287,66.408,15.236z M65.967,13.799c0.157,0.033,0.326,0.098,0.463,0.203
	c-0.021-0.221-0.063-0.404-0.143-0.497c-0.065-0.002-0.126-0.006-0.18-0.009c-0.047-0.003-0.089-0.005-0.126-0.006
	c-0.004,0.031-0.007,0.078-0.007,0.145C65.975,13.694,65.971,13.749,65.967,13.799z M64.282,14.721L64.282,14.721H51.804
	c-0.08,0-0.162-0.034-0.219-0.092c-0.105-0.108-0.134-0.137-0.112-1.402l0.002-0.156c0-0.083,0.034-0.162,0.094-0.218
	c0.061-0.057,0.161-0.087,0.223-0.081c0.599,0.034,1.198,0.075,1.799,0.116c1.424,0.098,2.896,0.199,4.333,0.199h6.088
	c0.09,0,0.886,0.012,1.113,0.437c0.055,0.102,0.12,0.311-0.053,0.57c-0.032,0.069-0.062,0.148-0.084,0.209
	C64.854,14.66,64.694,14.721,64.282,14.721z M52.068,14.121h12.2h0.001c0.07,0,0.116-0.001,0.146-0.003
	c0.003-0.008,0.006-0.016,0.009-0.025c0.028-0.076,0.064-0.173,0.128-0.301c0.001-0.001,0.003-0.003,0.004-0.004
	c-0.116-0.056-0.374-0.102-0.546-0.102h-6.088c-1.457,0-2.94-0.102-4.374-0.2c-0.494-0.034-0.987-0.068-1.479-0.098
	C52.065,13.716,52.064,13.96,52.068,14.121z"/>
<rect id="sliceCopy_x5F_41_1_" x="82.738" fill="none" width="136.197" height="40"/>
<rect id="sliceCopy_x5F_40_1_" fill="none" width="82.738" height="40"/>
</svg>
