<?xml version="1.0" encoding="utf-8"?>
<!-- Generator: Adobe Illustrator 15.1.0, SVG Export Plug-In  -->
<!DOCTYPE svg PUBLIC "-//W3C//DTD SVG 1.1//EN" "http://www.w3.org/Graphics/SVG/1.1/DTD/svg11.dtd" [
	<!ENTITY ns_flows "http://ns.adobe.com/Flows/1.0/">
]>
<svg version="1.1"
	 xmlns="http://www.w3.org/2000/svg" xmlns:xlink="http://www.w3.org/1999/xlink" xmlns:a="http://ns.adobe.com/AdobeSVGViewerExtensions/3.0/"
	 x="0px" y="0px" width="29px" height="40px" viewBox="0.137 0 29 40" enable-background="new 0.137 0 29 40" xml:space="preserve">
<defs>
</defs>
<path d="M9.399,35.3L9.399,35.3c-0.257,0-0.519-0.035-0.777-0.104c-0.877-0.236-1.662-0.614-2.47-1.19
	c-0.795-0.569-1.44-1.229-1.917-1.963c-0.477-0.762-0.628-1.29-0.479-1.665l7.155-10.086c0.441-0.646,1.284-1.255,2.573-1.857
	l1.227-0.573l0.659-0.442l1.841-2.238c-0.05-0.029-0.091-0.072-0.118-0.125l-0.521-1.042c-0.255-0.852-0.295-1.497-0.141-2.02
	l0.516-0.958c0.149-0.3,0.142-0.75-0.025-1.328c-0.031-0.109,0.001-0.226,0.083-0.303c0.082-0.077,0.201-0.101,0.308-0.063
	l0.451,0.165c0.457,0.243,0.764,0.597,0.951,1.072c0.01,0.024,0.016,0.05,0.02,0.077l0.051,0.456l0.131-0.288
	c-0.005-0.125-0.076-0.421-0.484-1.033l-0.886-1.126c-0.142-0.21-0.308-0.615-0.268-1.914c0.028-1.029,0.186-1.653,0.498-1.962
	c0.083-0.082,0.206-0.106,0.313-0.069c0.109,0.04,0.186,0.139,0.197,0.254c0.047,0.504,0.259,0.939,0.648,1.33
	c0.102,0.101,0.45,0.323,1.631,0.66c0.486,0.139,0.799,0.456,0.904,0.917l0.088,0.229c-0.041-0.388,0.056-0.859,0.439-1.399
	c0.068-0.098,0.188-0.147,0.307-0.12c0.117,0.025,0.208,0.117,0.231,0.234c0.019,0.094,0.144,0.386,0.89,1.064
	c0.644,0.616,1.044,1.229,1.194,1.827l0.048,0.877c0.001,0.037-0.003,0.074-0.015,0.109l-0.326,0.982
	c-0.008,0.024-0.019,0.047-0.033,0.068l-0.449,0.694c-0.009,0.032,0.05,0.175,0.187,0.346c0.278,0.397,0.225,0.882-0.146,1.455
	l-1.333,1.585c-0.348,0.399-0.843,0.661-1.476,0.779c-0.093,0.018-0.184-0.009-0.251-0.068l-2.051,3.345
	c-0.04,0.07-0.151,0.389-0.327,2.122c-0.167,1.381-0.472,2.403-0.908,3.043l-7.122,9.989c-0.031,0.043-0.072,0.077-0.121,0.099
	C10.26,35.156,9.925,35.3,9.399,35.3z M4.28,30.661c0.012,0-0.032,0.272,0.46,1.059c0.433,0.666,1.026,1.272,1.76,1.797
	c0.757,0.54,1.46,0.879,2.277,1.099c0.486,0.13,1.028,0.055,1.204,0l7.064-9.909c0.378-0.554,0.649-1.487,0.804-2.766
	c0.198-1.963,0.323-2.263,0.433-2.4l2.637-4.306c0.043-0.071,0.115-0.121,0.196-0.137l0.091-0.019l1.063-1.451l-0.121-0.313
	l-0.806-0.729c-0.299-0.202-0.585-0.359-0.845-0.458l-0.364-0.025l-1.031,1.409v0.202c0,0.069-0.024,0.137-0.068,0.19l-3.232,3.929
	c-0.019,0.023-0.041,0.043-0.065,0.059l-0.735,0.49l-1.266,0.596c-1.172,0.547-1.958,1.104-2.334,1.656L4.279,30.662
	C4.279,30.662,4.28,30.661,4.28,30.661z M19.823,11.13c0.009,0,0.018,0,0.026,0.001l0.859,0.075
	c0.026,0.002,0.051,0.008,0.076,0.017c0.352,0.128,0.721,0.326,1.129,0.607l1.021,0.97c0.032,0.03,0.057,0.068,0.073,0.109
	l0.271,0.709c0.036,0.095,0.022,0.202-0.038,0.285l-0.971,1.329l1.132-1.344c0.204-0.318,0.261-0.577,0.147-0.739
	c-0.279-0.348-0.362-0.685-0.235-0.985l0.453-0.707l0.297-0.894l-0.037-0.762c-0.113-0.428-0.457-0.944-1.012-1.475
	c-0.345-0.314-0.604-0.584-0.781-0.821c-0.187,0.476-0.046,0.797,0.096,1.012c0.374,0.596,0.563,1.045,0.285,1.319
	c-0.089,0.089-0.201,0.137-0.323,0.137c-0.256,0-0.451-0.212-0.574-0.371l-0.456-0.62c-0.016-0.022-0.029-0.045-0.039-0.071
	l-0.327-0.859c-0.069-0.289-0.218-0.435-0.496-0.514c-1.35-0.386-1.726-0.649-1.89-0.813c-0.24-0.241-0.429-0.502-0.566-0.782
	c-0.032,0.211-0.057,0.48-0.066,0.823c-0.034,1.135,0.096,1.458,0.154,1.543l0.886,1.126c0.444,0.666,0.629,1.131,0.595,1.484
	c-0.003,0.033-0.012,0.065-0.026,0.095l-0.438,0.964l0.532-0.728C19.638,11.175,19.728,11.13,19.823,11.13z M17.622,10.113
	c0.065,0.472,0.017,0.874-0.145,1.198l-0.497,0.909c-0.094,0.345-0.053,0.894,0.146,1.573l0.293,0.581l0.404-0.491
	c-0.018-0.079-0.004-0.163,0.042-0.232l0.773-1.112c-0.03,0.005-0.06,0.004-0.09-0.001c-0.134-0.023-0.236-0.134-0.249-0.27
	l-0.16-1.506C18.023,10.478,17.852,10.265,17.622,10.113z"/>
<rect id="sliceCopy_x5F_11_1_" x="28.367" fill="none" width="88" height="40"/>
<rect id="sliceCopy_x5F_10_1_" fill="none" width="28.367" height="40"/>
</svg>
